<?xml version="1.0" encoding="UTF-8" standalone="no"?>
<!DOCTYPE svg PUBLIC "-//W3C//DTD SVG 1.1//EN"
 "http://www.w3.org/Graphics/SVG/1.1/DTD/svg11.dtd">
<!-- Generated by graphviz version 2.38.0 (20140413.2041)
 -->
<!-- Title: src.harness.fake_sas.FakeSas.Deregistration Pages: 1 -->
<svg width="343pt" height="88pt"
 viewBox="0.00 0.00 343.00 88.00" xmlns="http://www.w3.org/2000/svg" xmlns:xlink="http://www.w3.org/1999/xlink">
<g id="graph0" class="graph" transform="scale(1 1) rotate(0) translate(4 84)">
<title>src.harness.fake_sas.FakeSas.Deregistration</title>
<polygon fill="white" stroke="none" points="-4,4 -4,-84 339,-84 339,4 -4,4"/>
<!-- Node1 -->
<g id="node1" class="node"><title>Node1</title>
<polygon fill="#bfbfbf" stroke="black" points="0,-24.5 0,-54.5 135,-54.5 135,-24.5 0,-24.5"/>
<text text-anchor="start" x="8" y="-42.5" font-family="Helvetica,sans-Serif" font-size="10.00">src.harness.fake_sas.Fake</text>
<text text-anchor="middle" x="67.5" y="-31.5" font-family="Helvetica,sans-Serif" font-size="10.00">Sas.Deregistration</text>
</g>
<!-- Node2 -->
<g id="node2" class="node"><title>Node2</title>
<g id="a_node2"><a xlink:href="../../d0/db1/classsrc_1_1harness_1_1fake__sas_1_1FakeSas.html#acc5683bac80f0027285b8de501e94612" target="_top" xlink:title="src.harness.fake_sas.Fake\lSas._GetMissingParamResponse">
<polygon fill="white" stroke="black" points="171,-49.5 171,-79.5 335,-79.5 335,-49.5 171,-49.5"/>
<text text-anchor="start" x="179" y="-67.5" font-family="Helvetica,sans-Serif" font-size="10.00">src.harness.fake_sas.Fake</text>
<text text-anchor="middle" x="253" y="-56.5" font-family="Helvetica,sans-Serif" font-size="10.00">Sas._GetMissingParamResponse</text>
</a>
</g>
</g>
<!-- Node1&#45;&gt;Node2 -->
<g id="edge1" class="edge"><title>Node1&#45;&gt;Node2</title>
<path fill="none" stroke="midnightblue" d="M135.007,-48.5609C143.338,-49.6959 151.969,-50.8718 160.596,-52.0472"/>
<polygon fill="midnightblue" stroke="midnightblue" points="160.323,-55.5422 170.704,-53.4243 161.268,-48.6063 160.323,-55.5422"/>
</g>
<!-- Node3 -->
<g id="node3" class="node"><title>Node3</title>
<g id="a_node3"><a xlink:href="../../d0/db1/classsrc_1_1harness_1_1fake__sas_1_1FakeSas.html#a6dd6dd7ae7a0fce74553a3f9efa9a7c3" target="_top" xlink:title="src.harness.fake_sas.Fake\lSas._GetSuccessResponse">
<polygon fill="white" stroke="black" points="183,-0.5 183,-30.5 323,-30.5 323,-0.5 183,-0.5"/>
<text text-anchor="start" x="191" y="-18.5" font-family="Helvetica,sans-Serif" font-size="10.00">src.harness.fake_sas.Fake</text>
<text text-anchor="middle" x="253" y="-7.5" font-family="Helvetica,sans-Serif" font-size="10.00">Sas._GetSuccessResponse</text>
</a>
</g>
</g>
<!-- Node1&#45;&gt;Node3 -->
<g id="edge2" class="edge"><title>Node1&#45;&gt;Node3</title>
<path fill="none" stroke="midnightblue" d="M135.007,-30.8015C147.309,-29.1926 160.267,-27.4978 172.899,-25.8456"/>
<polygon fill="midnightblue" stroke="midnightblue" points="173.479,-29.2996 182.941,-24.5322 172.572,-22.3587 173.479,-29.2996"/>
</g>
</g>
</svg>
