<?xml version="1.0" encoding="UTF-8" standalone="no"?>
<!DOCTYPE svg PUBLIC "-//W3C//DTD SVG 1.1//EN"
 "http://www.w3.org/Graphics/SVG/1.1/DTD/svg11.dtd">
<!-- Generated by graphviz version 2.38.0 (20140413.2041)
 -->
<!-- Title: src.harness.fake_sas.FakeSas._GetSuccessResponse Pages: 1 -->
<svg width="319pt" height="235pt"
 viewBox="0.00 0.00 319.00 235.00" xmlns="http://www.w3.org/2000/svg" xmlns:xlink="http://www.w3.org/1999/xlink">
<g id="graph0" class="graph" transform="scale(1 1) rotate(0) translate(4 231)">
<title>src.harness.fake_sas.FakeSas._GetSuccessResponse</title>
<polygon fill="white" stroke="none" points="-4,4 -4,-231 315,-231 315,4 -4,4"/>
<!-- Node1 -->
<g id="node1" class="node"><title>Node1</title>
<polygon fill="#bfbfbf" stroke="black" points="0,-98.5 0,-128.5 140,-128.5 140,-98.5 0,-98.5"/>
<text text-anchor="start" x="8" y="-116.5" font-family="Helvetica,sans-Serif" font-size="10.00">src.harness.fake_sas.Fake</text>
<text text-anchor="middle" x="70" y="-105.5" font-family="Helvetica,sans-Serif" font-size="10.00">Sas._GetSuccessResponse</text>
</g>
<!-- Node2 -->
<g id="node2" class="node"><title>Node2</title>
<g id="a_node2"><a xlink:href="../../d0/db1/classsrc_1_1harness_1_1fake__sas_1_1FakeSas.html#aaa08993c944d449577537360625a9d24" target="_top" xlink:title="src.harness.fake_sas.Fake\lSas.SpectrumInquiry">
<polygon fill="white" stroke="black" points="176,-196.5 176,-226.5 311,-226.5 311,-196.5 176,-196.5"/>
<text text-anchor="start" x="184" y="-214.5" font-family="Helvetica,sans-Serif" font-size="10.00">src.harness.fake_sas.Fake</text>
<text text-anchor="middle" x="243.5" y="-203.5" font-family="Helvetica,sans-Serif" font-size="10.00">Sas.SpectrumInquiry</text>
</a>
</g>
</g>
<!-- Node1&#45;&gt;Node2 -->
<g id="edge1" class="edge"><title>Node1&#45;&gt;Node2</title>
<path fill="none" stroke="midnightblue" d="M97.292,-135.034C117.797,-151.065 147.489,-172.652 176,-187.5 182.205,-190.732 188.944,-193.714 195.671,-196.398"/>
<polygon fill="midnightblue" stroke="midnightblue" points="99.3791,-132.222 89.367,-128.757 95.0327,-137.709 99.3791,-132.222"/>
</g>
<!-- Node3 -->
<g id="node3" class="node"><title>Node3</title>
<g id="a_node3"><a xlink:href="../../d0/db1/classsrc_1_1harness_1_1fake__sas_1_1FakeSas.html#a122a15edb0059cb4a80c35c84ddb1e87" target="_top" xlink:title="src.harness.fake_sas.Fake\lSas.Grant">
<polygon fill="white" stroke="black" points="176,-147.5 176,-177.5 311,-177.5 311,-147.5 176,-147.5"/>
<text text-anchor="start" x="184" y="-165.5" font-family="Helvetica,sans-Serif" font-size="10.00">src.harness.fake_sas.Fake</text>
<text text-anchor="middle" x="243.5" y="-154.5" font-family="Helvetica,sans-Serif" font-size="10.00">Sas.Grant</text>
</a>
</g>
</g>
<!-- Node1&#45;&gt;Node3 -->
<g id="edge2" class="edge"><title>Node1&#45;&gt;Node3</title>
<path fill="none" stroke="midnightblue" d="M133.629,-131.394C152.075,-136.664 172.064,-142.376 189.819,-147.448"/>
<polygon fill="midnightblue" stroke="midnightblue" points="134.432,-127.983 123.855,-128.601 132.509,-134.714 134.432,-127.983"/>
</g>
<!-- Node4 -->
<g id="node4" class="node"><title>Node4</title>
<g id="a_node4"><a xlink:href="../../d0/db1/classsrc_1_1harness_1_1fake__sas_1_1FakeSas.html#a72ee2c9a7b22a1d561d68a9703b51be2" target="_top" xlink:title="src.harness.fake_sas.Fake\lSas.Heartbeat">
<polygon fill="white" stroke="black" points="176,-98.5 176,-128.5 311,-128.5 311,-98.5 176,-98.5"/>
<text text-anchor="start" x="184" y="-116.5" font-family="Helvetica,sans-Serif" font-size="10.00">src.harness.fake_sas.Fake</text>
<text text-anchor="middle" x="243.5" y="-105.5" font-family="Helvetica,sans-Serif" font-size="10.00">Sas.Heartbeat</text>
</a>
</g>
</g>
<!-- Node1&#45;&gt;Node4 -->
<g id="edge3" class="edge"><title>Node1&#45;&gt;Node4</title>
<path fill="none" stroke="midnightblue" d="M150.504,-113.5C158.952,-113.5 167.482,-113.5 175.762,-113.5"/>
<polygon fill="midnightblue" stroke="midnightblue" points="150.261,-110 140.261,-113.5 150.261,-117 150.261,-110"/>
</g>
<!-- Node5 -->
<g id="node5" class="node"><title>Node5</title>
<g id="a_node5"><a xlink:href="../../d0/db1/classsrc_1_1harness_1_1fake__sas_1_1FakeSas.html#a77903f27608bc31c8f8a6bba554909e1" target="_top" xlink:title="src.harness.fake_sas.Fake\lSas.Relinquishment">
<polygon fill="white" stroke="black" points="176,-49.5 176,-79.5 311,-79.5 311,-49.5 176,-49.5"/>
<text text-anchor="start" x="184" y="-67.5" font-family="Helvetica,sans-Serif" font-size="10.00">src.harness.fake_sas.Fake</text>
<text text-anchor="middle" x="243.5" y="-56.5" font-family="Helvetica,sans-Serif" font-size="10.00">Sas.Relinquishment</text>
</a>
</g>
</g>
<!-- Node1&#45;&gt;Node5 -->
<g id="edge4" class="edge"><title>Node1&#45;&gt;Node5</title>
<path fill="none" stroke="midnightblue" d="M133.629,-95.6059C152.075,-90.3356 172.064,-84.6245 189.819,-79.5516"/>
<polygon fill="midnightblue" stroke="midnightblue" points="132.509,-92.2859 123.855,-98.3986 134.432,-99.0166 132.509,-92.2859"/>
</g>
<!-- Node6 -->
<g id="node6" class="node"><title>Node6</title>
<g id="a_node6"><a xlink:href="../../d0/db1/classsrc_1_1harness_1_1fake__sas_1_1FakeSas.html#ab4de2aa00751da38ac231b5b4dbdd4b2" target="_top" xlink:title="src.harness.fake_sas.Fake\lSas.Deregistration">
<polygon fill="white" stroke="black" points="176,-0.5 176,-30.5 311,-30.5 311,-0.5 176,-0.5"/>
<text text-anchor="start" x="184" y="-18.5" font-family="Helvetica,sans-Serif" font-size="10.00">src.harness.fake_sas.Fake</text>
<text text-anchor="middle" x="243.5" y="-7.5" font-family="Helvetica,sans-Serif" font-size="10.00">Sas.Deregistration</text>
</a>
</g>
</g>
<!-- Node1&#45;&gt;Node6 -->
<g id="edge5" class="edge"><title>Node1&#45;&gt;Node6</title>
<path fill="none" stroke="midnightblue" d="M97.7711,-92.1009C118.315,-76.3862 147.84,-55.288 176,-40.5 182.88,-36.8873 190.4,-33.5386 197.83,-30.5429"/>
<polygon fill="midnightblue" stroke="midnightblue" points="95.5821,-89.3693 89.8183,-98.2591 99.8678,-94.9039 95.5821,-89.3693"/>
</g>
</g>
</svg>
