<?xml version="1.0" encoding="UTF-8" standalone="no"?>
<!DOCTYPE svg PUBLIC "-//W3C//DTD SVG 1.1//EN"
 "http://www.w3.org/Graphics/SVG/1.1/DTD/svg11.dtd">
<!-- Generated by graphviz version 2.38.0 (20140413.2041)
 -->
<!-- Title: src.harness.fake_sas.FakeSas._GetMissingParamResponse Pages: 1 -->
<svg width="343pt" height="88pt"
 viewBox="0.00 0.00 343.00 88.00" xmlns="http://www.w3.org/2000/svg" xmlns:xlink="http://www.w3.org/1999/xlink">
<g id="graph0" class="graph" transform="scale(1 1) rotate(0) translate(4 84)">
<title>src.harness.fake_sas.FakeSas._GetMissingParamResponse</title>
<polygon fill="white" stroke="none" points="-4,4 -4,-84 339,-84 339,4 -4,4"/>
<!-- Node1 -->
<g id="node1" class="node"><title>Node1</title>
<polygon fill="#bfbfbf" stroke="black" points="0,-24.5 0,-54.5 164,-54.5 164,-24.5 0,-24.5"/>
<text text-anchor="start" x="8" y="-42.5" font-family="Helvetica,sans-Serif" font-size="10.00">src.harness.fake_sas.Fake</text>
<text text-anchor="middle" x="82" y="-31.5" font-family="Helvetica,sans-Serif" font-size="10.00">Sas._GetMissingParamResponse</text>
</g>
<!-- Node2 -->
<g id="node2" class="node"><title>Node2</title>
<g id="a_node2"><a xlink:href="../../d0/db1/classsrc_1_1harness_1_1fake__sas_1_1FakeSas.html#a122a15edb0059cb4a80c35c84ddb1e87" target="_top" xlink:title="src.harness.fake_sas.Fake\lSas.Grant">
<polygon fill="white" stroke="black" points="200,-49.5 200,-79.5 335,-79.5 335,-49.5 200,-49.5"/>
<text text-anchor="start" x="208" y="-67.5" font-family="Helvetica,sans-Serif" font-size="10.00">src.harness.fake_sas.Fake</text>
<text text-anchor="middle" x="267.5" y="-56.5" font-family="Helvetica,sans-Serif" font-size="10.00">Sas.Grant</text>
</a>
</g>
</g>
<!-- Node1&#45;&gt;Node2 -->
<g id="edge1" class="edge"><title>Node1&#45;&gt;Node2</title>
<path fill="none" stroke="midnightblue" d="M174.186,-51.9232C182.865,-53.1056 191.55,-54.2889 199.932,-55.4308"/>
<polygon fill="midnightblue" stroke="midnightblue" points="174.401,-48.4202 164.02,-50.5381 173.456,-55.3561 174.401,-48.4202"/>
</g>
<!-- Node3 -->
<g id="node3" class="node"><title>Node3</title>
<g id="a_node3"><a xlink:href="../../d0/db1/classsrc_1_1harness_1_1fake__sas_1_1FakeSas.html#ab4de2aa00751da38ac231b5b4dbdd4b2" target="_top" xlink:title="src.harness.fake_sas.Fake\lSas.Deregistration">
<polygon fill="white" stroke="black" points="200,-0.5 200,-30.5 335,-30.5 335,-0.5 200,-0.5"/>
<text text-anchor="start" x="208" y="-18.5" font-family="Helvetica,sans-Serif" font-size="10.00">src.harness.fake_sas.Fake</text>
<text text-anchor="middle" x="267.5" y="-7.5" font-family="Helvetica,sans-Serif" font-size="10.00">Sas.Deregistration</text>
</a>
</g>
</g>
<!-- Node1&#45;&gt;Node3 -->
<g id="edge2" class="edge"><title>Node1&#45;&gt;Node3</title>
<path fill="none" stroke="midnightblue" d="M174.186,-27.5737C182.865,-26.4386 191.55,-25.3027 199.932,-24.2064"/>
<polygon fill="midnightblue" stroke="midnightblue" points="173.482,-24.136 164.02,-28.9034 174.389,-31.0769 173.482,-24.136"/>
</g>
</g>
</svg>
