<?xml version="1.0" encoding="UTF-8" standalone="no"?>
<!DOCTYPE svg PUBLIC "-//W3C//DTD SVG 1.1//EN"
 "http://www.w3.org/Graphics/SVG/1.1/DTD/svg11.dtd">
<!-- Generated by graphviz version 2.38.0 (20140413.2041)
 -->
<!-- Title: ExtendedHata Pages: 1 -->
<!--zoomable 415 -->
<svg id="main" version="1.1" xmlns="http://www.w3.org/2000/svg" xmlns:xlink="http://www.w3.org/1999/xlink" xml:space="preserve" onload="init(evt)">
<style type="text/css"><![CDATA[
.edge:hover path { stroke: red; }
.edge:hover polygon { stroke: red; fill: red; }
]]></style>
<script type="text/javascript"><![CDATA[
var edges = document.getElementsByTagName('g');
if (edges && edges.length) {
  for (var i=0;i<edges.length;i++) {
    if (edges[i].id.substr(0,4)=='edge') {
      edges[i].setAttribute('class','edge');
    }
  }
}
]]></script>
        <defs>
                <circle id="rim" cx="0" cy="0" r="7"/>
                <circle id="rim2" cx="0" cy="0" r="3.5"/>
                <g id="zoomPlus">
                        <use xlink:href="#rim" fill="#404040">
                                <set attributeName="fill" to="#808080" begin="zoomplus.mouseover" end="zoomplus.mouseout"/>
                        </use>
                        <path d="M-4,0h8M0,-4v8" fill="none" stroke="white" stroke-width="1.5" pointer-events="none"/>
                </g>
                <g id="zoomMin">
                        <use xlink:href="#rim" fill="#404040">
                                <set attributeName="fill" to="#808080" begin="zoomminus.mouseover" end="zoomminus.mouseout"/>
                        </use>
                        <path d="M-4,0h8" fill="none" stroke="white" stroke-width="1.5" pointer-events="none"/>
                </g>
                <g id="dirArrow">
                        <path fill="none" stroke="white" stroke-width="1.5" d="M0,-3.0v7 M-2.5,-0.5L0,-3.0L2.5,-0.5"/>
                </g>
               <g id="resetDef">
                       <use xlink:href="#rim2" fill="#404040">
                               <set attributeName="fill" to="#808080" begin="reset.mouseover" end="reset.mouseout"/>
                       </use>
               </g>
        </defs>

<script type="text/javascript">
var viewWidth = 743;
var viewHeight = 415;
var sectionId = 'dynsection-1';
</script>
<script xlink:href="../../svgpan.js"/>
<svg id="graph" class="graph">
<g id="viewport">
<title>ExtendedHata</title>
<polygon fill="white" stroke="none" points="-4,4 -4,-411 739,-411 739,4 -4,4"/>
<!-- Node1 -->
<g id="node1" class="node"><title>Node1</title>
<polygon fill="#bfbfbf" stroke="black" points="0,-156.5 0,-175.5 79,-175.5 79,-156.5 0,-156.5"/>
<text text-anchor="middle" x="39.5" y="-163.5" font-family="Helvetica,sans-Serif" font-size="10.00">ExtendedHata</text>
</g>
<!-- Node2 -->
<g id="node2" class="node"><title>Node2</title>
<g id="a_node2"><a xlink:href="../../d9/daf/ExtendedHata_8cpp.html#a11232c905b4b2d54ca008791dad7ecf3" target="_top" xlink:title="ExtendedHata_DBG">
<polygon fill="white" stroke="black" points="115,-156.5 115,-175.5 221,-175.5 221,-156.5 115,-156.5"/>
<text text-anchor="middle" x="168" y="-163.5" font-family="Helvetica,sans-Serif" font-size="10.00">ExtendedHata_DBG</text>
</a>
</g>
</g>
<!-- Node1&#45;&gt;Node2 -->
<g id="edge1" class="edge"><title>Node1&#45;&gt;Node2</title>
<path fill="none" stroke="midnightblue" d="M79.1415,-166C87.184,-166 95.8553,-166 104.508,-166"/>
<polygon fill="midnightblue" stroke="midnightblue" points="104.617,-169.5 114.617,-166 104.617,-162.5 104.617,-169.5"/>
</g>
<!-- Node3 -->
<g id="node3" class="node"><title>Node3</title>
<g id="a_node3"><a xlink:href="../../d3/d10/ehata_8h.html#a89ca684c84b78b8528505abc29419fa7" target="_top" xlink:title="PreprocessTerrainPath">
<polygon fill="white" stroke="black" points="281,-311.5 281,-330.5 397,-330.5 397,-311.5 281,-311.5"/>
<text text-anchor="middle" x="339" y="-318.5" font-family="Helvetica,sans-Serif" font-size="10.00">PreprocessTerrainPath</text>
</a>
</g>
</g>
<!-- Node2&#45;&gt;Node3 -->
<g id="edge2" class="edge"><title>Node2&#45;&gt;Node3</title>
<path fill="none" stroke="midnightblue" d="M172.338,-175.721C181.514,-200.909 209.63,-268.649 257,-302 261.318,-305.04 266.055,-307.6 271.003,-309.754"/>
<polygon fill="midnightblue" stroke="midnightblue" points="270.132,-313.166 280.724,-313.416 272.6,-306.615 270.132,-313.166"/>
</g>
<!-- Node14 -->
<g id="node14" class="node"><title>Node14</title>
<g id="a_node14"><a xlink:href="../../d9/daf/ExtendedHata_8cpp.html#ac2661be4d300461cad422c3ddd036efc" target="_top" xlink:title="GetDistanceInMeters">
<polygon fill="white" stroke="black" points="284,-273.5 284,-292.5 394,-292.5 394,-273.5 284,-273.5"/>
<text text-anchor="middle" x="339" y="-280.5" font-family="Helvetica,sans-Serif" font-size="10.00">GetDistanceInMeters</text>
</a>
</g>
</g>
<!-- Node2&#45;&gt;Node14 -->
<g id="edge16" class="edge"><title>Node2&#45;&gt;Node14</title>
<path fill="none" stroke="midnightblue" d="M174.692,-175.558C187.023,-195.385 218.242,-241.043 257,-264 262.383,-267.188 268.263,-269.842 274.318,-272.05"/>
<polygon fill="midnightblue" stroke="midnightblue" points="273.338,-275.411 283.93,-275.166 275.497,-268.753 273.338,-275.411"/>
</g>
<!-- Node15 -->
<g id="node15" class="node"><title>Node15</title>
<g id="a_node15"><a xlink:href="../../da/d86/namespacesrc_1_1harness_1_1reference__models_1_1propagation_1_1ehata_1_1ehata.html#ad7cf66a53fd465def05331ae71e500ee" target="_top" xlink:title="src.harness.reference\l_models.propagation.ehata.ehata.\lMedianBasicPropLoss">
<polygon fill="white" stroke="black" points="257,-213.5 257,-254.5 421,-254.5 421,-213.5 257,-213.5"/>
<text text-anchor="start" x="265" y="-242.5" font-family="Helvetica,sans-Serif" font-size="10.00">src.harness.reference</text>
<text text-anchor="start" x="265" y="-231.5" font-family="Helvetica,sans-Serif" font-size="10.00">_models.propagation.ehata.ehata.</text>
<text text-anchor="middle" x="339" y="-220.5" font-family="Helvetica,sans-Serif" font-size="10.00">MedianBasicPropLoss</text>
</a>
</g>
</g>
<!-- Node2&#45;&gt;Node15 -->
<g id="edge17" class="edge"><title>Node2&#45;&gt;Node15</title>
<path fill="none" stroke="midnightblue" d="M190.206,-175.532C207.949,-183.416 233.984,-194.776 257,-204 261.75,-205.904 266.673,-207.833 271.639,-209.747"/>
<polygon fill="midnightblue" stroke="midnightblue" points="270.615,-213.103 281.205,-213.399 273.111,-206.563 270.615,-213.103"/>
</g>
<!-- Node16 -->
<g id="node16" class="node"><title>Node16</title>
<g id="a_node16"><a xlink:href="../../d3/d10/ehata_8h.html#afa1d8e8e562e4f5bb0490a0590b6b4ff" target="_top" xlink:title="IsolatedRidgeCorrectionFactor">
<polygon fill="white" stroke="black" points="264.5,-175.5 264.5,-194.5 413.5,-194.5 413.5,-175.5 264.5,-175.5"/>
<text text-anchor="middle" x="339" y="-182.5" font-family="Helvetica,sans-Serif" font-size="10.00">IsolatedRidgeCorrectionFactor</text>
</a>
</g>
</g>
<!-- Node2&#45;&gt;Node16 -->
<g id="edge18" class="edge"><title>Node2&#45;&gt;Node16</title>
<path fill="none" stroke="midnightblue" d="M221.085,-171.856C231.661,-173.045 243.036,-174.324 254.39,-175.6"/>
<polygon fill="midnightblue" stroke="midnightblue" points="254.013,-179.08 264.342,-176.719 254.795,-172.123 254.013,-179.08"/>
</g>
<!-- Node17 -->
<g id="node17" class="node"><title>Node17</title>
<g id="a_node17"><a xlink:href="../../d3/d10/ehata_8h.html#ac2ce9e68d9cc0bb358944607471b4451" target="_top" xlink:title="MixedPathCorrectionFactor">
<polygon fill="white" stroke="black" points="271,-137.5 271,-156.5 407,-156.5 407,-137.5 271,-137.5"/>
<text text-anchor="middle" x="339" y="-144.5" font-family="Helvetica,sans-Serif" font-size="10.00">MixedPathCorrectionFactor</text>
</a>
</g>
</g>
<!-- Node2&#45;&gt;Node17 -->
<g id="edge19" class="edge"><title>Node2&#45;&gt;Node17</title>
<path fill="none" stroke="midnightblue" d="M221.085,-160.144C233.605,-158.737 247.244,-157.203 260.642,-155.697"/>
<polygon fill="midnightblue" stroke="midnightblue" points="261.272,-159.148 270.818,-154.553 260.489,-152.192 261.272,-159.148"/>
</g>
<!-- Node18 -->
<g id="node18" class="node"><title>Node18</title>
<g id="a_node18"><a xlink:href="../../d3/d10/ehata_8h.html#abbaa6ba53c0b4f9dfb444307d7e5b4cc" target="_top" xlink:title="MedianRollingHillyTerrain\lCorrectionFactor">
<polygon fill="white" stroke="black" points="275,-88 275,-118 403,-118 403,-88 275,-88"/>
<text text-anchor="start" x="283" y="-106" font-family="Helvetica,sans-Serif" font-size="10.00">MedianRollingHillyTerrain</text>
<text text-anchor="middle" x="339" y="-95" font-family="Helvetica,sans-Serif" font-size="10.00">CorrectionFactor</text>
</a>
</g>
</g>
<!-- Node2&#45;&gt;Node18 -->
<g id="edge20" class="edge"><title>Node2&#45;&gt;Node18</title>
<path fill="none" stroke="midnightblue" d="M189.371,-156.456C207.045,-148.357 233.425,-136.699 257,-128 263.308,-125.672 269.945,-123.379 276.591,-121.182"/>
<polygon fill="midnightblue" stroke="midnightblue" points="277.863,-124.45 286.299,-118.04 275.708,-117.79 277.863,-124.45"/>
</g>
<!-- Node19 -->
<g id="node19" class="node"><title>Node19</title>
<g id="a_node19"><a xlink:href="../../d3/d10/ehata_8h.html#a82a89504823298d3e6b579c5982fd680" target="_top" xlink:title="FineRollingHillyTerrainCorection\lFactor">
<polygon fill="white" stroke="black" points="260.5,-39 260.5,-69 417.5,-69 417.5,-39 260.5,-39"/>
<text text-anchor="start" x="268.5" y="-57" font-family="Helvetica,sans-Serif" font-size="10.00">FineRollingHillyTerrainCorection</text>
<text text-anchor="middle" x="339" y="-46" font-family="Helvetica,sans-Serif" font-size="10.00">Factor</text>
</a>
</g>
</g>
<!-- Node2&#45;&gt;Node19 -->
<g id="edge21" class="edge"><title>Node2&#45;&gt;Node19</title>
<path fill="none" stroke="midnightblue" d="M176.115,-156.379C189.805,-138.533 221.611,-100.191 257,-79 260.622,-76.8311 264.45,-74.8343 268.391,-72.9983"/>
<polygon fill="midnightblue" stroke="midnightblue" points="269.93,-76.1472 277.751,-69.0009 267.18,-69.7097 269.93,-76.1472"/>
</g>
<!-- Node20 -->
<g id="node20" class="node"><title>Node20</title>
<g id="a_node20"><a xlink:href="../../d3/d10/ehata_8h.html#af46b0604fab4518f86ea4009fdff2f56" target="_top" xlink:title="GeneralSlopeCorrectionFactor">
<polygon fill="white" stroke="black" points="265,-0.5 265,-19.5 413,-19.5 413,-0.5 265,-0.5"/>
<text text-anchor="middle" x="339" y="-7.5" font-family="Helvetica,sans-Serif" font-size="10.00">GeneralSlopeCorrectionFactor</text>
</a>
</g>
</g>
<!-- Node2&#45;&gt;Node20 -->
<g id="edge22" class="edge"><title>Node2&#45;&gt;Node20</title>
<path fill="none" stroke="midnightblue" d="M172.317,-156.209C181.44,-130.837 209.44,-62.6039 257,-29 259.713,-27.0829 262.593,-25.357 265.587,-23.8033"/>
<polygon fill="midnightblue" stroke="midnightblue" points="267.171,-26.9286 274.861,-19.64 264.304,-20.5425 267.171,-26.9286"/>
</g>
<!-- Node4 -->
<g id="node4" class="node"><title>Node4</title>
<g id="a_node4"><a xlink:href="../../d9/dbb/PreprocessTerrainPath_8cpp.html#a00f5ff87da922544d27c2b981b5b6b36" target="_top" xlink:title="FindAverageGroundHeight">
<polygon fill="white" stroke="black" points="457,-349.5 457,-368.5 588,-368.5 588,-349.5 457,-349.5"/>
<text text-anchor="middle" x="522.5" y="-356.5" font-family="Helvetica,sans-Serif" font-size="10.00">FindAverageGroundHeight</text>
</a>
</g>
</g>
<!-- Node3&#45;&gt;Node4 -->
<g id="edge3" class="edge"><title>Node3&#45;&gt;Node4</title>
<path fill="none" stroke="midnightblue" d="M385.8,-330.589C410.183,-335.694 440.357,-342.011 466.056,-347.392"/>
<polygon fill="midnightblue" stroke="midnightblue" points="465.524,-350.856 476.029,-349.48 466.959,-344.005 465.524,-350.856"/>
</g>
<!-- Node6 -->
<g id="node6" class="node"><title>Node6</title>
<g id="a_node6"><a xlink:href="../../d9/dbb/PreprocessTerrainPath_8cpp.html#ac81f09823451e4d2ef74055acfe06b36" target="_top" xlink:title="ComputeTerrainStatistics">
<polygon fill="white" stroke="black" points="458.5,-387.5 458.5,-406.5 586.5,-406.5 586.5,-387.5 458.5,-387.5"/>
<text text-anchor="middle" x="522.5" y="-394.5" font-family="Helvetica,sans-Serif" font-size="10.00">ComputeTerrainStatistics</text>
</a>
</g>
</g>
<!-- Node3&#45;&gt;Node6 -->
<g id="edge5" class="edge"><title>Node3&#45;&gt;Node6</title>
<path fill="none" stroke="midnightblue" d="M357.428,-330.633C379.936,-342.806 420.555,-363.868 457,-378 462.928,-380.299 469.254,-382.479 475.539,-384.488"/>
<polygon fill="midnightblue" stroke="midnightblue" points="474.733,-387.902 485.32,-387.496 476.791,-381.211 474.733,-387.902"/>
</g>
<!-- Node8 -->
<g id="node8" class="node"><title>Node8</title>
<g id="a_node8"><a xlink:href="../../d9/dbb/PreprocessTerrainPath_8cpp.html#a6763c3438128142d15da82c3ce7d5ebb" target="_top" xlink:title="MobileTerrainSlope">
<polygon fill="white" stroke="black" points="472.5,-311.5 472.5,-330.5 572.5,-330.5 572.5,-311.5 472.5,-311.5"/>
<text text-anchor="middle" x="522.5" y="-318.5" font-family="Helvetica,sans-Serif" font-size="10.00">MobileTerrainSlope</text>
</a>
</g>
</g>
<!-- Node3&#45;&gt;Node8 -->
<g id="edge8" class="edge"><title>Node3&#45;&gt;Node8</title>
<path fill="none" stroke="midnightblue" d="M397.428,-321C418.134,-321 441.528,-321 462.376,-321"/>
<polygon fill="midnightblue" stroke="midnightblue" points="462.384,-324.5 472.383,-321 462.383,-317.5 462.384,-324.5"/>
</g>
<!-- Node10 -->
<g id="node10" class="node"><title>Node10</title>
<g id="a_node10"><a xlink:href="../../d9/dbb/PreprocessTerrainPath_8cpp.html#afd68e3ff1f0e2b5300a867d859dd5b21" target="_top" xlink:title="AnalyzeSeaPath">
<polygon fill="white" stroke="black" points="478,-235.5 478,-254.5 567,-254.5 567,-235.5 478,-235.5"/>
<text text-anchor="middle" x="522.5" y="-242.5" font-family="Helvetica,sans-Serif" font-size="10.00">AnalyzeSeaPath</text>
</a>
</g>
</g>
<!-- Node3&#45;&gt;Node10 -->
<g id="edge11" class="edge"><title>Node3&#45;&gt;Node10</title>
<path fill="none" stroke="midnightblue" d="M397.374,-311.973C405.605,-309.43 413.736,-306.173 421,-302 441.173,-290.412 437.16,-276.149 457,-264 460.584,-261.805 464.435,-259.852 468.408,-258.116"/>
<polygon fill="midnightblue" stroke="midnightblue" points="469.782,-261.337 477.83,-254.447 467.242,-254.815 469.782,-261.337"/>
</g>
<!-- Node11 -->
<g id="node11" class="node"><title>Node11</title>
<g id="a_node11"><a xlink:href="../../d9/dbb/PreprocessTerrainPath_8cpp.html#a27a12c18458e03988a70810234122896" target="_top" xlink:title="SingleHorizonTest">
<polygon fill="white" stroke="black" points="474,-273.5 474,-292.5 571,-292.5 571,-273.5 474,-273.5"/>
<text text-anchor="middle" x="522.5" y="-280.5" font-family="Helvetica,sans-Serif" font-size="10.00">SingleHorizonTest</text>
</a>
</g>
</g>
<!-- Node3&#45;&gt;Node11 -->
<g id="edge12" class="edge"><title>Node3&#45;&gt;Node11</title>
<path fill="none" stroke="midnightblue" d="M385.8,-311.411C410.183,-306.306 440.357,-299.989 466.056,-294.608"/>
<polygon fill="midnightblue" stroke="midnightblue" points="466.959,-297.995 476.029,-292.52 465.524,-291.144 466.959,-297.995"/>
</g>
<!-- Node5 -->
<g id="node5" class="node"><title>Node5</title>
<g id="a_node5"><a xlink:href="../../d3/d10/ehata_8h.html#a04da5d949a150c9e4be4ccacc17b237c" target="_top" xlink:title="GetDistanceInMeters">
<polygon fill="white" stroke="black" points="624.5,-349.5 624.5,-368.5 734.5,-368.5 734.5,-349.5 624.5,-349.5"/>
<text text-anchor="middle" x="679.5" y="-356.5" font-family="Helvetica,sans-Serif" font-size="10.00">GetDistanceInMeters</text>
</a>
</g>
</g>
<!-- Node4&#45;&gt;Node5 -->
<g id="edge4" class="edge"><title>Node4&#45;&gt;Node5</title>
<path fill="none" stroke="midnightblue" d="M588.336,-359C596.829,-359 605.53,-359 614.017,-359"/>
<polygon fill="midnightblue" stroke="midnightblue" points="614.234,-362.5 624.234,-359 614.234,-355.5 614.234,-362.5"/>
</g>
<!-- Node6&#45;&gt;Node5 -->
<g id="edge6" class="edge"><title>Node6&#45;&gt;Node5</title>
<path fill="none" stroke="midnightblue" d="M562.613,-387.411C582.975,-382.419 608.066,-376.268 629.689,-370.967"/>
<polygon fill="midnightblue" stroke="midnightblue" points="630.789,-374.301 639.668,-368.52 629.122,-367.502 630.789,-374.301"/>
</g>
<!-- Node7 -->
<g id="node7" class="node"><title>Node7</title>
<g id="a_node7"><a xlink:href="../../d3/d10/ehata_8h.html#ab1ea39eb9d2a55d7d659770100edc454" target="_top" xlink:title="FindQuantile">
<polygon fill="white" stroke="black" points="644,-387.5 644,-406.5 715,-406.5 715,-387.5 644,-387.5"/>
<text text-anchor="middle" x="679.5" y="-394.5" font-family="Helvetica,sans-Serif" font-size="10.00">FindQuantile</text>
</a>
</g>
</g>
<!-- Node6&#45;&gt;Node7 -->
<g id="edge7" class="edge"><title>Node6&#45;&gt;Node7</title>
<path fill="none" stroke="midnightblue" d="M586.544,-397C602.326,-397 618.937,-397 633.633,-397"/>
<polygon fill="midnightblue" stroke="midnightblue" points="633.956,-400.5 643.956,-397 633.956,-393.5 633.956,-400.5"/>
</g>
<!-- Node8&#45;&gt;Node5 -->
<g id="edge9" class="edge"><title>Node8&#45;&gt;Node5</title>
<path fill="none" stroke="midnightblue" d="M562.613,-330.589C582.975,-335.581 608.066,-341.732 629.689,-347.033"/>
<polygon fill="midnightblue" stroke="midnightblue" points="629.122,-350.498 639.668,-349.48 630.789,-343.699 629.122,-350.498"/>
</g>
<!-- Node9 -->
<g id="node9" class="node"><title>Node9</title>
<g id="a_node9"><a xlink:href="../../d3/d10/ehata_8h.html#aaa5b4f6709cdb127a70af78debc1e496" target="_top" xlink:title="LeastSquares">
<polygon fill="white" stroke="black" points="641,-311.5 641,-330.5 718,-330.5 718,-311.5 641,-311.5"/>
<text text-anchor="middle" x="679.5" y="-318.5" font-family="Helvetica,sans-Serif" font-size="10.00">LeastSquares</text>
</a>
</g>
</g>
<!-- Node8&#45;&gt;Node9 -->
<g id="edge10" class="edge"><title>Node8&#45;&gt;Node9</title>
<path fill="none" stroke="midnightblue" d="M572.543,-321C591.016,-321 611.994,-321 630.381,-321"/>
<polygon fill="midnightblue" stroke="midnightblue" points="630.583,-324.5 640.583,-321 630.583,-317.5 630.583,-324.5"/>
</g>
<!-- Node11&#45;&gt;Node5 -->
<g id="edge13" class="edge"><title>Node11&#45;&gt;Node5</title>
<path fill="none" stroke="midnightblue" d="M567.509,-292.566C574.637,-295.058 581.728,-298.159 588,-302 607.84,-314.149 604.463,-327.369 624,-340 627.085,-341.994 630.403,-343.807 633.826,-345.449"/>
<polygon fill="midnightblue" stroke="midnightblue" points="632.468,-348.675 643.038,-349.406 635.231,-342.243 632.468,-348.675"/>
</g>
<!-- Node12 -->
<g id="node12" class="node"><title>Node12</title>
<g id="a_node12"><a xlink:href="../../d9/dbb/PreprocessTerrainPath_8cpp.html#a5215bf8ba24622edaa42bec0d6f12f2a" target="_top" xlink:title="AverageTerrainHeight">
<polygon fill="white" stroke="black" points="624,-235.5 624,-254.5 735,-254.5 735,-235.5 624,-235.5"/>
<text text-anchor="middle" x="679.5" y="-242.5" font-family="Helvetica,sans-Serif" font-size="10.00">AverageTerrainHeight</text>
</a>
</g>
</g>
<!-- Node11&#45;&gt;Node12 -->
<g id="edge14" class="edge"><title>Node11&#45;&gt;Node12</title>
<path fill="none" stroke="midnightblue" d="M562.613,-273.411C582.975,-268.419 608.066,-262.268 629.689,-256.967"/>
<polygon fill="midnightblue" stroke="midnightblue" points="630.789,-260.301 639.668,-254.52 629.122,-253.502 630.789,-260.301"/>
</g>
<!-- Node13 -->
<g id="node13" class="node"><title>Node13</title>
<g id="a_node13"><a xlink:href="../../d3/d10/ehata_8h.html#ae12b05e3f880936b5258e4ecbeed7fad" target="_top" xlink:title="FindHorizons">
<polygon fill="white" stroke="black" points="642.5,-273.5 642.5,-292.5 716.5,-292.5 716.5,-273.5 642.5,-273.5"/>
<text text-anchor="middle" x="679.5" y="-280.5" font-family="Helvetica,sans-Serif" font-size="10.00">FindHorizons</text>
</a>
</g>
</g>
<!-- Node11&#45;&gt;Node13 -->
<g id="edge15" class="edge"><title>Node11&#45;&gt;Node13</title>
<path fill="none" stroke="midnightblue" d="M571.27,-283C590.723,-283 613.122,-283 632.4,-283"/>
<polygon fill="midnightblue" stroke="midnightblue" points="632.457,-286.5 642.457,-283 632.457,-279.5 632.457,-286.5"/>
</g>
</g>
</svg>
        <g id="navigator" transform="translate(0 0)" fill="#404254">
                <rect fill="#f2f5e9" fill-opacity="0.5" stroke="#606060" stroke-width=".5" x="0" y="0" width="60" height="60"/>
                <use id="zoomplus" xlink:href="#zoomPlus" x="17" y="9" onmousedown="handleZoom(evt,'in')"/>
                <use id="zoomminus" xlink:href="#zoomMin" x="42" y="9" onmousedown="handleZoom(evt,'out')"/>
                <use id="reset" xlink:href="#resetDef" x="30" y="36" onmousedown="handleReset()"/>
                <g id="arrowUp" xlink:href="#dirArrow" transform="translate(30 24)" onmousedown="handlePan(0,-1)">
                  <use xlink:href="#rim" fill="#404040">
                        <set attributeName="fill" to="#808080" begin="arrowUp.mouseover" end="arrowUp.mouseout"/>
                  </use>
                  <path fill="none" stroke="white" stroke-width="1.5" d="M0,-3.0v7 M-2.5,-0.5L0,-3.0L2.5,-0.5"/>
                </g>
                <g id="arrowRight" xlink:href="#dirArrow" transform="rotate(90) translate(36 -43)" onmousedown="handlePan(1,0)">
                  <use xlink:href="#rim" fill="#404040">
                        <set attributeName="fill" to="#808080" begin="arrowRight.mouseover" end="arrowRight.mouseout"/>
                  </use>
                  <path fill="none" stroke="white" stroke-width="1.5" d="M0,-3.0v7 M-2.5,-0.5L0,-3.0L2.5,-0.5"/>
                </g>
                <g id="arrowDown" xlink:href="#dirArrow" transform="rotate(180) translate(-30 -48)" onmousedown="handlePan(0,1)">
                  <use xlink:href="#rim" fill="#404040">
                        <set attributeName="fill" to="#808080" begin="arrowDown.mouseover" end="arrowDown.mouseout"/>
                  </use>
                  <path fill="none" stroke="white" stroke-width="1.5" d="M0,-3.0v7 M-2.5,-0.5L0,-3.0L2.5,-0.5"/>
                </g>
                <g id="arrowLeft" xlink:href="#dirArrow" transform="rotate(270) translate(-36 17)" onmousedown="handlePan(-1,0)">
                  <use xlink:href="#rim" fill="#404040">
                        <set attributeName="fill" to="#808080" begin="arrowLeft.mouseover" end="arrowLeft.mouseout"/>
                  </use>
                  <path fill="none" stroke="white" stroke-width="1.5" d="M0,-3.0v7 M-2.5,-0.5L0,-3.0L2.5,-0.5"/>
                </g>
        </g>
        <svg viewBox="0 0 15 15" width="100%" height="30px" preserveAspectRatio="xMaxYMin meet">
         <g id="arrow_out" transform="scale(0.3 0.3)">
          <a xlink:href="ExtendedHata_8cpp_a4b797564ae1455108c2b74aaffd5cc01_cgraph_org.svg" target="_base">
           <rect id="button" ry="5" rx="5" y="6" x="6" height="38" width="38"
                fill="#f2f5e9" fill-opacity="0.5" stroke="#606060" stroke-width="1.0"/>
           <path id="arrow"
             d="M 11.500037,31.436501 C 11.940474,20.09759 22.043105,11.32322 32.158766,21.979434 L 37.068811,17.246167 C 37.068811,17.246167 37.088388,32 37.088388,32 L 22.160133,31.978069 C 22.160133,31.978069 26.997745,27.140456 26.997745,27.140456 C 18.528582,18.264221 13.291696,25.230495 11.500037,31.436501 z"
             style="fill:#404040;"/>
          </a>
         </g>
        </svg>
</svg>
