<?xml version="1.0" encoding="UTF-8" standalone="no"?>
<!DOCTYPE svg PUBLIC "-//W3C//DTD SVG 1.1//EN"
 "http://www.w3.org/Graphics/SVG/1.1/DTD/svg11.dtd">
<!-- Generated by graphviz version 2.38.0 (20140413.2041)
 -->
<!-- Title: ExtendedHata_DBG Pages: 1 -->
<!--zoomable 415 -->
<svg id="main" version="1.1" xmlns="http://www.w3.org/2000/svg" xmlns:xlink="http://www.w3.org/1999/xlink" xml:space="preserve" onload="init(evt)">
<style type="text/css"><![CDATA[
.edge:hover path { stroke: red; }
.edge:hover polygon { stroke: red; fill: red; }
]]></style>
<script type="text/javascript"><![CDATA[
var edges = document.getElementsByTagName('g');
if (edges && edges.length) {
  for (var i=0;i<edges.length;i++) {
    if (edges[i].id.substr(0,4)=='edge') {
      edges[i].setAttribute('class','edge');
    }
  }
}
]]></script>
        <defs>
                <circle id="rim" cx="0" cy="0" r="7"/>
                <circle id="rim2" cx="0" cy="0" r="3.5"/>
                <g id="zoomPlus">
                        <use xlink:href="#rim" fill="#404040">
                                <set attributeName="fill" to="#808080" begin="zoomplus.mouseover" end="zoomplus.mouseout"/>
                        </use>
                        <path d="M-4,0h8M0,-4v8" fill="none" stroke="white" stroke-width="1.5" pointer-events="none"/>
                </g>
                <g id="zoomMin">
                        <use xlink:href="#rim" fill="#404040">
                                <set attributeName="fill" to="#808080" begin="zoomminus.mouseover" end="zoomminus.mouseout"/>
                        </use>
                        <path d="M-4,0h8" fill="none" stroke="white" stroke-width="1.5" pointer-events="none"/>
                </g>
                <g id="dirArrow">
                        <path fill="none" stroke="white" stroke-width="1.5" d="M0,-3.0v7 M-2.5,-0.5L0,-3.0L2.5,-0.5"/>
                </g>
               <g id="resetDef">
                       <use xlink:href="#rim2" fill="#404040">
                               <set attributeName="fill" to="#808080" begin="reset.mouseover" end="reset.mouseout"/>
                       </use>
               </g>
        </defs>

<script type="text/javascript">
var viewWidth = 628;
var viewHeight = 415;
var sectionId = 'dynsection-2';
</script>
<script xlink:href="../../svgpan.js"/>
<svg id="graph" class="graph">
<g id="viewport">
<title>ExtendedHata_DBG</title>
<polygon fill="white" stroke="none" points="-4,4 -4,-411 624,-411 624,4 -4,4"/>
<!-- Node1 -->
<g id="node1" class="node"><title>Node1</title>
<polygon fill="#bfbfbf" stroke="black" points="0,-156.5 0,-175.5 106,-175.5 106,-156.5 0,-156.5"/>
<text text-anchor="middle" x="53" y="-163.5" font-family="Helvetica,sans-Serif" font-size="10.00">ExtendedHata_DBG</text>
</g>
<!-- Node2 -->
<g id="node2" class="node"><title>Node2</title>
<g id="a_node2"><a xlink:href="../../d3/d10/ehata_8h.html#a89ca684c84b78b8528505abc29419fa7" target="_top" xlink:title="PreprocessTerrainPath">
<polygon fill="white" stroke="black" points="166,-311.5 166,-330.5 282,-330.5 282,-311.5 166,-311.5"/>
<text text-anchor="middle" x="224" y="-318.5" font-family="Helvetica,sans-Serif" font-size="10.00">PreprocessTerrainPath</text>
</a>
</g>
</g>
<!-- Node1&#45;&gt;Node2 -->
<g id="edge1" class="edge"><title>Node1&#45;&gt;Node2</title>
<path fill="none" stroke="midnightblue" d="M57.3384,-175.721C66.5141,-200.909 94.6299,-268.649 142,-302 146.318,-305.04 151.055,-307.6 156.003,-309.754"/>
<polygon fill="midnightblue" stroke="midnightblue" points="155.132,-313.166 165.724,-313.416 157.6,-306.615 155.132,-313.166"/>
</g>
<!-- Node13 -->
<g id="node13" class="node"><title>Node13</title>
<g id="a_node13"><a xlink:href="../../d9/daf/ExtendedHata_8cpp.html#ac2661be4d300461cad422c3ddd036efc" target="_top" xlink:title="GetDistanceInMeters">
<polygon fill="white" stroke="black" points="169,-273.5 169,-292.5 279,-292.5 279,-273.5 169,-273.5"/>
<text text-anchor="middle" x="224" y="-280.5" font-family="Helvetica,sans-Serif" font-size="10.00">GetDistanceInMeters</text>
</a>
</g>
</g>
<!-- Node1&#45;&gt;Node13 -->
<g id="edge15" class="edge"><title>Node1&#45;&gt;Node13</title>
<path fill="none" stroke="midnightblue" d="M59.692,-175.558C72.0231,-195.385 103.242,-241.043 142,-264 147.383,-267.188 153.263,-269.842 159.318,-272.05"/>
<polygon fill="midnightblue" stroke="midnightblue" points="158.338,-275.411 168.93,-275.166 160.497,-268.753 158.338,-275.411"/>
</g>
<!-- Node14 -->
<g id="node14" class="node"><title>Node14</title>
<g id="a_node14"><a xlink:href="../../da/d86/namespacesrc_1_1harness_1_1reference__models_1_1propagation_1_1ehata_1_1ehata.html#ad7cf66a53fd465def05331ae71e500ee" target="_top" xlink:title="src.harness.reference\l_models.propagation.ehata.ehata.\lMedianBasicPropLoss">
<polygon fill="white" stroke="black" points="142,-213.5 142,-254.5 306,-254.5 306,-213.5 142,-213.5"/>
<text text-anchor="start" x="150" y="-242.5" font-family="Helvetica,sans-Serif" font-size="10.00">src.harness.reference</text>
<text text-anchor="start" x="150" y="-231.5" font-family="Helvetica,sans-Serif" font-size="10.00">_models.propagation.ehata.ehata.</text>
<text text-anchor="middle" x="224" y="-220.5" font-family="Helvetica,sans-Serif" font-size="10.00">MedianBasicPropLoss</text>
</a>
</g>
</g>
<!-- Node1&#45;&gt;Node14 -->
<g id="edge16" class="edge"><title>Node1&#45;&gt;Node14</title>
<path fill="none" stroke="midnightblue" d="M75.2065,-175.532C92.9491,-183.416 118.984,-194.776 142,-204 146.75,-205.904 151.673,-207.833 156.639,-209.747"/>
<polygon fill="midnightblue" stroke="midnightblue" points="155.615,-213.103 166.205,-213.399 158.111,-206.563 155.615,-213.103"/>
</g>
<!-- Node15 -->
<g id="node15" class="node"><title>Node15</title>
<g id="a_node15"><a xlink:href="../../d3/d10/ehata_8h.html#afa1d8e8e562e4f5bb0490a0590b6b4ff" target="_top" xlink:title="IsolatedRidgeCorrectionFactor">
<polygon fill="white" stroke="black" points="149.5,-175.5 149.5,-194.5 298.5,-194.5 298.5,-175.5 149.5,-175.5"/>
<text text-anchor="middle" x="224" y="-182.5" font-family="Helvetica,sans-Serif" font-size="10.00">IsolatedRidgeCorrectionFactor</text>
</a>
</g>
</g>
<!-- Node1&#45;&gt;Node15 -->
<g id="edge17" class="edge"><title>Node1&#45;&gt;Node15</title>
<path fill="none" stroke="midnightblue" d="M106.085,-171.856C116.661,-173.045 128.036,-174.324 139.39,-175.6"/>
<polygon fill="midnightblue" stroke="midnightblue" points="139.013,-179.08 149.342,-176.719 139.795,-172.123 139.013,-179.08"/>
</g>
<!-- Node16 -->
<g id="node16" class="node"><title>Node16</title>
<g id="a_node16"><a xlink:href="../../d3/d10/ehata_8h.html#ac2ce9e68d9cc0bb358944607471b4451" target="_top" xlink:title="MixedPathCorrectionFactor">
<polygon fill="white" stroke="black" points="156,-137.5 156,-156.5 292,-156.5 292,-137.5 156,-137.5"/>
<text text-anchor="middle" x="224" y="-144.5" font-family="Helvetica,sans-Serif" font-size="10.00">MixedPathCorrectionFactor</text>
</a>
</g>
</g>
<!-- Node1&#45;&gt;Node16 -->
<g id="edge18" class="edge"><title>Node1&#45;&gt;Node16</title>
<path fill="none" stroke="midnightblue" d="M106.085,-160.144C118.605,-158.737 132.244,-157.203 145.642,-155.697"/>
<polygon fill="midnightblue" stroke="midnightblue" points="146.272,-159.148 155.818,-154.553 145.489,-152.192 146.272,-159.148"/>
</g>
<!-- Node17 -->
<g id="node17" class="node"><title>Node17</title>
<g id="a_node17"><a xlink:href="../../d3/d10/ehata_8h.html#abbaa6ba53c0b4f9dfb444307d7e5b4cc" target="_top" xlink:title="MedianRollingHillyTerrain\lCorrectionFactor">
<polygon fill="white" stroke="black" points="160,-88 160,-118 288,-118 288,-88 160,-88"/>
<text text-anchor="start" x="168" y="-106" font-family="Helvetica,sans-Serif" font-size="10.00">MedianRollingHillyTerrain</text>
<text text-anchor="middle" x="224" y="-95" font-family="Helvetica,sans-Serif" font-size="10.00">CorrectionFactor</text>
</a>
</g>
</g>
<!-- Node1&#45;&gt;Node17 -->
<g id="edge19" class="edge"><title>Node1&#45;&gt;Node17</title>
<path fill="none" stroke="midnightblue" d="M74.3705,-156.456C92.0448,-148.357 118.425,-136.699 142,-128 148.308,-125.672 154.945,-123.379 161.591,-121.182"/>
<polygon fill="midnightblue" stroke="midnightblue" points="162.863,-124.45 171.299,-118.04 160.708,-117.79 162.863,-124.45"/>
</g>
<!-- Node18 -->
<g id="node18" class="node"><title>Node18</title>
<g id="a_node18"><a xlink:href="../../d3/d10/ehata_8h.html#a82a89504823298d3e6b579c5982fd680" target="_top" xlink:title="FineRollingHillyTerrainCorection\lFactor">
<polygon fill="white" stroke="black" points="145.5,-39 145.5,-69 302.5,-69 302.5,-39 145.5,-39"/>
<text text-anchor="start" x="153.5" y="-57" font-family="Helvetica,sans-Serif" font-size="10.00">FineRollingHillyTerrainCorection</text>
<text text-anchor="middle" x="224" y="-46" font-family="Helvetica,sans-Serif" font-size="10.00">Factor</text>
</a>
</g>
</g>
<!-- Node1&#45;&gt;Node18 -->
<g id="edge20" class="edge"><title>Node1&#45;&gt;Node18</title>
<path fill="none" stroke="midnightblue" d="M61.1145,-156.379C74.8053,-138.533 106.611,-100.191 142,-79 145.622,-76.8311 149.45,-74.8343 153.391,-72.9983"/>
<polygon fill="midnightblue" stroke="midnightblue" points="154.93,-76.1472 162.751,-69.0009 152.18,-69.7097 154.93,-76.1472"/>
</g>
<!-- Node19 -->
<g id="node19" class="node"><title>Node19</title>
<g id="a_node19"><a xlink:href="../../d3/d10/ehata_8h.html#af46b0604fab4518f86ea4009fdff2f56" target="_top" xlink:title="GeneralSlopeCorrectionFactor">
<polygon fill="white" stroke="black" points="150,-0.5 150,-19.5 298,-19.5 298,-0.5 150,-0.5"/>
<text text-anchor="middle" x="224" y="-7.5" font-family="Helvetica,sans-Serif" font-size="10.00">GeneralSlopeCorrectionFactor</text>
</a>
</g>
</g>
<!-- Node1&#45;&gt;Node19 -->
<g id="edge21" class="edge"><title>Node1&#45;&gt;Node19</title>
<path fill="none" stroke="midnightblue" d="M57.3167,-156.209C66.44,-130.837 94.4402,-62.6039 142,-29 144.713,-27.0829 147.593,-25.357 150.587,-23.8033"/>
<polygon fill="midnightblue" stroke="midnightblue" points="152.171,-26.9286 159.861,-19.64 149.304,-20.5425 152.171,-26.9286"/>
</g>
<!-- Node3 -->
<g id="node3" class="node"><title>Node3</title>
<g id="a_node3"><a xlink:href="../../d9/dbb/PreprocessTerrainPath_8cpp.html#a00f5ff87da922544d27c2b981b5b6b36" target="_top" xlink:title="FindAverageGroundHeight">
<polygon fill="white" stroke="black" points="342,-349.5 342,-368.5 473,-368.5 473,-349.5 342,-349.5"/>
<text text-anchor="middle" x="407.5" y="-356.5" font-family="Helvetica,sans-Serif" font-size="10.00">FindAverageGroundHeight</text>
</a>
</g>
</g>
<!-- Node2&#45;&gt;Node3 -->
<g id="edge2" class="edge"><title>Node2&#45;&gt;Node3</title>
<path fill="none" stroke="midnightblue" d="M270.8,-330.589C295.183,-335.694 325.357,-342.011 351.056,-347.392"/>
<polygon fill="midnightblue" stroke="midnightblue" points="350.524,-350.856 361.029,-349.48 351.959,-344.005 350.524,-350.856"/>
</g>
<!-- Node5 -->
<g id="node5" class="node"><title>Node5</title>
<g id="a_node5"><a xlink:href="../../d9/dbb/PreprocessTerrainPath_8cpp.html#ac81f09823451e4d2ef74055acfe06b36" target="_top" xlink:title="ComputeTerrainStatistics">
<polygon fill="white" stroke="black" points="343.5,-387.5 343.5,-406.5 471.5,-406.5 471.5,-387.5 343.5,-387.5"/>
<text text-anchor="middle" x="407.5" y="-394.5" font-family="Helvetica,sans-Serif" font-size="10.00">ComputeTerrainStatistics</text>
</a>
</g>
</g>
<!-- Node2&#45;&gt;Node5 -->
<g id="edge4" class="edge"><title>Node2&#45;&gt;Node5</title>
<path fill="none" stroke="midnightblue" d="M242.428,-330.633C264.936,-342.806 305.555,-363.868 342,-378 347.928,-380.299 354.254,-382.479 360.539,-384.488"/>
<polygon fill="midnightblue" stroke="midnightblue" points="359.733,-387.902 370.32,-387.496 361.791,-381.211 359.733,-387.902"/>
</g>
<!-- Node7 -->
<g id="node7" class="node"><title>Node7</title>
<g id="a_node7"><a xlink:href="../../d9/dbb/PreprocessTerrainPath_8cpp.html#a6763c3438128142d15da82c3ce7d5ebb" target="_top" xlink:title="MobileTerrainSlope">
<polygon fill="white" stroke="black" points="357.5,-311.5 357.5,-330.5 457.5,-330.5 457.5,-311.5 357.5,-311.5"/>
<text text-anchor="middle" x="407.5" y="-318.5" font-family="Helvetica,sans-Serif" font-size="10.00">MobileTerrainSlope</text>
</a>
</g>
</g>
<!-- Node2&#45;&gt;Node7 -->
<g id="edge7" class="edge"><title>Node2&#45;&gt;Node7</title>
<path fill="none" stroke="midnightblue" d="M282.428,-321C303.134,-321 326.528,-321 347.376,-321"/>
<polygon fill="midnightblue" stroke="midnightblue" points="347.384,-324.5 357.383,-321 347.383,-317.5 347.384,-324.5"/>
</g>
<!-- Node9 -->
<g id="node9" class="node"><title>Node9</title>
<g id="a_node9"><a xlink:href="../../d9/dbb/PreprocessTerrainPath_8cpp.html#afd68e3ff1f0e2b5300a867d859dd5b21" target="_top" xlink:title="AnalyzeSeaPath">
<polygon fill="white" stroke="black" points="363,-235.5 363,-254.5 452,-254.5 452,-235.5 363,-235.5"/>
<text text-anchor="middle" x="407.5" y="-242.5" font-family="Helvetica,sans-Serif" font-size="10.00">AnalyzeSeaPath</text>
</a>
</g>
</g>
<!-- Node2&#45;&gt;Node9 -->
<g id="edge10" class="edge"><title>Node2&#45;&gt;Node9</title>
<path fill="none" stroke="midnightblue" d="M282.374,-311.973C290.605,-309.43 298.736,-306.173 306,-302 326.173,-290.412 322.16,-276.149 342,-264 345.584,-261.805 349.435,-259.852 353.408,-258.116"/>
<polygon fill="midnightblue" stroke="midnightblue" points="354.782,-261.337 362.83,-254.447 352.242,-254.815 354.782,-261.337"/>
</g>
<!-- Node10 -->
<g id="node10" class="node"><title>Node10</title>
<g id="a_node10"><a xlink:href="../../d9/dbb/PreprocessTerrainPath_8cpp.html#a27a12c18458e03988a70810234122896" target="_top" xlink:title="SingleHorizonTest">
<polygon fill="white" stroke="black" points="359,-273.5 359,-292.5 456,-292.5 456,-273.5 359,-273.5"/>
<text text-anchor="middle" x="407.5" y="-280.5" font-family="Helvetica,sans-Serif" font-size="10.00">SingleHorizonTest</text>
</a>
</g>
</g>
<!-- Node2&#45;&gt;Node10 -->
<g id="edge11" class="edge"><title>Node2&#45;&gt;Node10</title>
<path fill="none" stroke="midnightblue" d="M270.8,-311.411C295.183,-306.306 325.357,-299.989 351.056,-294.608"/>
<polygon fill="midnightblue" stroke="midnightblue" points="351.959,-297.995 361.029,-292.52 350.524,-291.144 351.959,-297.995"/>
</g>
<!-- Node4 -->
<g id="node4" class="node"><title>Node4</title>
<g id="a_node4"><a xlink:href="../../d3/d10/ehata_8h.html#a04da5d949a150c9e4be4ccacc17b237c" target="_top" xlink:title="GetDistanceInMeters">
<polygon fill="white" stroke="black" points="509.5,-349.5 509.5,-368.5 619.5,-368.5 619.5,-349.5 509.5,-349.5"/>
<text text-anchor="middle" x="564.5" y="-356.5" font-family="Helvetica,sans-Serif" font-size="10.00">GetDistanceInMeters</text>
</a>
</g>
</g>
<!-- Node3&#45;&gt;Node4 -->
<g id="edge3" class="edge"><title>Node3&#45;&gt;Node4</title>
<path fill="none" stroke="midnightblue" d="M473.336,-359C481.829,-359 490.53,-359 499.017,-359"/>
<polygon fill="midnightblue" stroke="midnightblue" points="499.234,-362.5 509.234,-359 499.234,-355.5 499.234,-362.5"/>
</g>
<!-- Node5&#45;&gt;Node4 -->
<g id="edge5" class="edge"><title>Node5&#45;&gt;Node4</title>
<path fill="none" stroke="midnightblue" d="M447.613,-387.411C467.975,-382.419 493.066,-376.268 514.689,-370.967"/>
<polygon fill="midnightblue" stroke="midnightblue" points="515.789,-374.301 524.668,-368.52 514.122,-367.502 515.789,-374.301"/>
</g>
<!-- Node6 -->
<g id="node6" class="node"><title>Node6</title>
<g id="a_node6"><a xlink:href="../../d3/d10/ehata_8h.html#ab1ea39eb9d2a55d7d659770100edc454" target="_top" xlink:title="FindQuantile">
<polygon fill="white" stroke="black" points="529,-387.5 529,-406.5 600,-406.5 600,-387.5 529,-387.5"/>
<text text-anchor="middle" x="564.5" y="-394.5" font-family="Helvetica,sans-Serif" font-size="10.00">FindQuantile</text>
</a>
</g>
</g>
<!-- Node5&#45;&gt;Node6 -->
<g id="edge6" class="edge"><title>Node5&#45;&gt;Node6</title>
<path fill="none" stroke="midnightblue" d="M471.544,-397C487.326,-397 503.937,-397 518.633,-397"/>
<polygon fill="midnightblue" stroke="midnightblue" points="518.956,-400.5 528.956,-397 518.956,-393.5 518.956,-400.5"/>
</g>
<!-- Node7&#45;&gt;Node4 -->
<g id="edge8" class="edge"><title>Node7&#45;&gt;Node4</title>
<path fill="none" stroke="midnightblue" d="M447.613,-330.589C467.975,-335.581 493.066,-341.732 514.689,-347.033"/>
<polygon fill="midnightblue" stroke="midnightblue" points="514.122,-350.498 524.668,-349.48 515.789,-343.699 514.122,-350.498"/>
</g>
<!-- Node8 -->
<g id="node8" class="node"><title>Node8</title>
<g id="a_node8"><a xlink:href="../../d3/d10/ehata_8h.html#aaa5b4f6709cdb127a70af78debc1e496" target="_top" xlink:title="LeastSquares">
<polygon fill="white" stroke="black" points="526,-311.5 526,-330.5 603,-330.5 603,-311.5 526,-311.5"/>
<text text-anchor="middle" x="564.5" y="-318.5" font-family="Helvetica,sans-Serif" font-size="10.00">LeastSquares</text>
</a>
</g>
</g>
<!-- Node7&#45;&gt;Node8 -->
<g id="edge9" class="edge"><title>Node7&#45;&gt;Node8</title>
<path fill="none" stroke="midnightblue" d="M457.543,-321C476.016,-321 496.994,-321 515.381,-321"/>
<polygon fill="midnightblue" stroke="midnightblue" points="515.583,-324.5 525.583,-321 515.583,-317.5 515.583,-324.5"/>
</g>
<!-- Node10&#45;&gt;Node4 -->
<g id="edge12" class="edge"><title>Node10&#45;&gt;Node4</title>
<path fill="none" stroke="midnightblue" d="M452.509,-292.566C459.637,-295.058 466.728,-298.159 473,-302 492.84,-314.149 489.463,-327.369 509,-340 512.085,-341.994 515.403,-343.807 518.826,-345.449"/>
<polygon fill="midnightblue" stroke="midnightblue" points="517.468,-348.675 528.038,-349.406 520.231,-342.243 517.468,-348.675"/>
</g>
<!-- Node11 -->
<g id="node11" class="node"><title>Node11</title>
<g id="a_node11"><a xlink:href="../../d9/dbb/PreprocessTerrainPath_8cpp.html#a5215bf8ba24622edaa42bec0d6f12f2a" target="_top" xlink:title="AverageTerrainHeight">
<polygon fill="white" stroke="black" points="509,-235.5 509,-254.5 620,-254.5 620,-235.5 509,-235.5"/>
<text text-anchor="middle" x="564.5" y="-242.5" font-family="Helvetica,sans-Serif" font-size="10.00">AverageTerrainHeight</text>
</a>
</g>
</g>
<!-- Node10&#45;&gt;Node11 -->
<g id="edge13" class="edge"><title>Node10&#45;&gt;Node11</title>
<path fill="none" stroke="midnightblue" d="M447.613,-273.411C467.975,-268.419 493.066,-262.268 514.689,-256.967"/>
<polygon fill="midnightblue" stroke="midnightblue" points="515.789,-260.301 524.668,-254.52 514.122,-253.502 515.789,-260.301"/>
</g>
<!-- Node12 -->
<g id="node12" class="node"><title>Node12</title>
<g id="a_node12"><a xlink:href="../../d3/d10/ehata_8h.html#ae12b05e3f880936b5258e4ecbeed7fad" target="_top" xlink:title="FindHorizons">
<polygon fill="white" stroke="black" points="527.5,-273.5 527.5,-292.5 601.5,-292.5 601.5,-273.5 527.5,-273.5"/>
<text text-anchor="middle" x="564.5" y="-280.5" font-family="Helvetica,sans-Serif" font-size="10.00">FindHorizons</text>
</a>
</g>
</g>
<!-- Node10&#45;&gt;Node12 -->
<g id="edge14" class="edge"><title>Node10&#45;&gt;Node12</title>
<path fill="none" stroke="midnightblue" d="M456.27,-283C475.723,-283 498.122,-283 517.4,-283"/>
<polygon fill="midnightblue" stroke="midnightblue" points="517.457,-286.5 527.457,-283 517.457,-279.5 517.457,-286.5"/>
</g>
</g>
</svg>
        <g id="navigator" transform="translate(0 0)" fill="#404254">
                <rect fill="#f2f5e9" fill-opacity="0.5" stroke="#606060" stroke-width=".5" x="0" y="0" width="60" height="60"/>
                <use id="zoomplus" xlink:href="#zoomPlus" x="17" y="9" onmousedown="handleZoom(evt,'in')"/>
                <use id="zoomminus" xlink:href="#zoomMin" x="42" y="9" onmousedown="handleZoom(evt,'out')"/>
                <use id="reset" xlink:href="#resetDef" x="30" y="36" onmousedown="handleReset()"/>
                <g id="arrowUp" xlink:href="#dirArrow" transform="translate(30 24)" onmousedown="handlePan(0,-1)">
                  <use xlink:href="#rim" fill="#404040">
                        <set attributeName="fill" to="#808080" begin="arrowUp.mouseover" end="arrowUp.mouseout"/>
                  </use>
                  <path fill="none" stroke="white" stroke-width="1.5" d="M0,-3.0v7 M-2.5,-0.5L0,-3.0L2.5,-0.5"/>
                </g>
                <g id="arrowRight" xlink:href="#dirArrow" transform="rotate(90) translate(36 -43)" onmousedown="handlePan(1,0)">
                  <use xlink:href="#rim" fill="#404040">
                        <set attributeName="fill" to="#808080" begin="arrowRight.mouseover" end="arrowRight.mouseout"/>
                  </use>
                  <path fill="none" stroke="white" stroke-width="1.5" d="M0,-3.0v7 M-2.5,-0.5L0,-3.0L2.5,-0.5"/>
                </g>
                <g id="arrowDown" xlink:href="#dirArrow" transform="rotate(180) translate(-30 -48)" onmousedown="handlePan(0,1)">
                  <use xlink:href="#rim" fill="#404040">
                        <set attributeName="fill" to="#808080" begin="arrowDown.mouseover" end="arrowDown.mouseout"/>
                  </use>
                  <path fill="none" stroke="white" stroke-width="1.5" d="M0,-3.0v7 M-2.5,-0.5L0,-3.0L2.5,-0.5"/>
                </g>
                <g id="arrowLeft" xlink:href="#dirArrow" transform="rotate(270) translate(-36 17)" onmousedown="handlePan(-1,0)">
                  <use xlink:href="#rim" fill="#404040">
                        <set attributeName="fill" to="#808080" begin="arrowLeft.mouseover" end="arrowLeft.mouseout"/>
                  </use>
                  <path fill="none" stroke="white" stroke-width="1.5" d="M0,-3.0v7 M-2.5,-0.5L0,-3.0L2.5,-0.5"/>
                </g>
        </g>
        <svg viewBox="0 0 15 15" width="100%" height="30px" preserveAspectRatio="xMaxYMin meet">
         <g id="arrow_out" transform="scale(0.3 0.3)">
          <a xlink:href="ExtendedHata_8cpp_a11232c905b4b2d54ca008791dad7ecf3_cgraph_org.svg" target="_base">
           <rect id="button" ry="5" rx="5" y="6" x="6" height="38" width="38"
                fill="#f2f5e9" fill-opacity="0.5" stroke="#606060" stroke-width="1.0"/>
           <path id="arrow"
             d="M 11.500037,31.436501 C 11.940474,20.09759 22.043105,11.32322 32.158766,21.979434 L 37.068811,17.246167 C 37.068811,17.246167 37.088388,32 37.088388,32 L 22.160133,31.978069 C 22.160133,31.978069 26.997745,27.140456 26.997745,27.140456 C 18.528582,18.264221 13.291696,25.230495 11.500037,31.436501 z"
             style="fill:#404040;"/>
          </a>
         </g>
        </svg>
</svg>
