<?xml version="1.0" encoding="UTF-8" standalone="no"?>
<!DOCTYPE svg PUBLIC "-//W3C//DTD SVG 1.1//EN"
 "http://www.w3.org/Graphics/SVG/1.1/DTD/svg11.dtd">
<!-- Generated by graphviz version 2.38.0 (20140413.2041)
 -->
<!-- Title: extract_uls_data.ConsolidateULSData Pages: 1 -->
<svg width="351pt" height="116pt"
 viewBox="0.00 0.00 351.00 116.00" xmlns="http://www.w3.org/2000/svg" xmlns:xlink="http://www.w3.org/1999/xlink">
<g id="graph0" class="graph" transform="scale(1 1) rotate(0) translate(4 112)">
<title>extract_uls_data.ConsolidateULSData</title>
<polygon fill="white" stroke="none" points="-4,4 -4,-112 347,-112 347,4 -4,4"/>
<!-- Node1 -->
<g id="node1" class="node"><title>Node1</title>
<polygon fill="#bfbfbf" stroke="black" points="0,-39 0,-69 143,-69 143,-39 0,-39"/>
<text text-anchor="start" x="8" y="-57" font-family="Helvetica,sans-Serif" font-size="10.00">extract_uls_data.Consolidate</text>
<text text-anchor="middle" x="71.5" y="-46" font-family="Helvetica,sans-Serif" font-size="10.00">ULSData</text>
</g>
<!-- Node2 -->
<g id="node2" class="node"><title>Node2</title>
<g id="a_node2"><a xlink:href="../../d8/d5b/namespaceextract__uls__data.html#a3124ebc0516dd6ff6591b60beff177be" target="_top" xlink:title="extract_uls_data.LoadULSFlatFile">
<polygon fill="white" stroke="black" points="179,-88.5 179,-107.5 343,-107.5 343,-88.5 179,-88.5"/>
<text text-anchor="middle" x="261" y="-95.5" font-family="Helvetica,sans-Serif" font-size="10.00">extract_uls_data.LoadULSFlatFile</text>
</a>
</g>
</g>
<!-- Node1&#45;&gt;Node2 -->
<g id="edge1" class="edge"><title>Node1&#45;&gt;Node2</title>
<path fill="none" stroke="midnightblue" d="M136.419,-69.0062C150.448,-72.2993 165.225,-75.7676 179,-79 188.808,-81.3016 199.285,-83.7595 209.338,-86.1176"/>
<polygon fill="midnightblue" stroke="midnightblue" points="208.673,-89.5567 219.208,-88.433 210.272,-82.7417 208.673,-89.5567"/>
</g>
<!-- Node3 -->
<g id="node3" class="node"><title>Node3</title>
<g id="a_node3"><a xlink:href="../../d8/d5b/namespaceextract__uls__data.html#a22ca29b25d3ad93c0b1bd09944b372a0" target="_top" xlink:title="extract_uls_data.WriteHeader\lRecord">
<polygon fill="white" stroke="black" points="188,-39 188,-69 334,-69 334,-39 188,-39"/>
<text text-anchor="start" x="196" y="-57" font-family="Helvetica,sans-Serif" font-size="10.00">extract_uls_data.WriteHeader</text>
<text text-anchor="middle" x="261" y="-46" font-family="Helvetica,sans-Serif" font-size="10.00">Record</text>
</a>
</g>
</g>
<!-- Node1&#45;&gt;Node3 -->
<g id="edge2" class="edge"><title>Node1&#45;&gt;Node3</title>
<path fill="none" stroke="midnightblue" d="M143.119,-54C154.439,-54 166.24,-54 177.803,-54"/>
<polygon fill="midnightblue" stroke="midnightblue" points="177.885,-57.5001 187.885,-54 177.885,-50.5001 177.885,-57.5001"/>
</g>
<!-- Node4 -->
<g id="node4" class="node"><title>Node4</title>
<g id="a_node4"><a xlink:href="../../d8/d5b/namespaceextract__uls__data.html#af25caa0ea0d20ae40a638e3a49740cef" target="_top" xlink:title="extract_uls_data.WriteRecord">
<polygon fill="white" stroke="black" points="188,-0.5 188,-19.5 334,-19.5 334,-0.5 188,-0.5"/>
<text text-anchor="middle" x="261" y="-7.5" font-family="Helvetica,sans-Serif" font-size="10.00">extract_uls_data.WriteRecord</text>
</a>
</g>
</g>
<!-- Node1&#45;&gt;Node4 -->
<g id="edge3" class="edge"><title>Node1&#45;&gt;Node4</title>
<path fill="none" stroke="midnightblue" d="M136.502,-38.9808C160.33,-33.3892 187.018,-27.1265 209.471,-21.8574"/>
<polygon fill="midnightblue" stroke="midnightblue" points="210.528,-25.2045 219.464,-19.5124 208.929,-18.3897 210.528,-25.2045"/>
</g>
</g>
</svg>
