<?xml version="1.0" encoding="UTF-8" standalone="no"?>
<!DOCTYPE svg PUBLIC "-//W3C//DTD SVG 1.1//EN"
 "http://www.w3.org/Graphics/SVG/1.1/DTD/svg11.dtd">
<!-- Generated by graphviz version 2.38.0 (20140413.2041)
 -->
<!-- Title: extract_uls_data.ReadULSDataRecords Pages: 1 -->
<svg width="510pt" height="39pt"
 viewBox="0.00 0.00 510.00 39.00" xmlns="http://www.w3.org/2000/svg" xmlns:xlink="http://www.w3.org/1999/xlink">
<g id="graph0" class="graph" transform="scale(1 1) rotate(0) translate(4 35)">
<title>extract_uls_data.ReadULSDataRecords</title>
<polygon fill="white" stroke="none" points="-4,4 -4,-35 506,-35 506,4 -4,4"/>
<!-- Node1 -->
<g id="node1" class="node"><title>Node1</title>
<polygon fill="#bfbfbf" stroke="black" points="0,-0.5 0,-30.5 155,-30.5 155,-0.5 0,-0.5"/>
<text text-anchor="start" x="8" y="-18.5" font-family="Helvetica,sans-Serif" font-size="10.00">extract_uls_data.ReadULSData</text>
<text text-anchor="middle" x="77.5" y="-7.5" font-family="Helvetica,sans-Serif" font-size="10.00">Records</text>
</g>
<!-- Node2 -->
<g id="node2" class="node"><title>Node2</title>
<g id="a_node2"><a xlink:href="../../d8/d5b/namespaceextract__uls__data.html#afd6ccfa6d71f064c826268f6885cca54" target="_top" xlink:title="extract_uls_data.Process\lULSData">
<polygon fill="white" stroke="black" points="191,-0.5 191,-30.5 319,-30.5 319,-0.5 191,-0.5"/>
<text text-anchor="start" x="199" y="-18.5" font-family="Helvetica,sans-Serif" font-size="10.00">extract_uls_data.Process</text>
<text text-anchor="middle" x="255" y="-7.5" font-family="Helvetica,sans-Serif" font-size="10.00">ULSData</text>
</a>
</g>
</g>
<!-- Node1&#45;&gt;Node2 -->
<g id="edge1" class="edge"><title>Node1&#45;&gt;Node2</title>
<path fill="none" stroke="midnightblue" d="M165.306,-15.5C173.918,-15.5 182.543,-15.5 190.847,-15.5"/>
<polygon fill="midnightblue" stroke="midnightblue" points="165.222,-12.0001 155.222,-15.5 165.222,-19.0001 165.222,-12.0001"/>
</g>
<!-- Node3 -->
<g id="node3" class="node"><title>Node3</title>
<g id="a_node3"><a xlink:href="../../d8/d5b/namespaceextract__uls__data.html#ae3e8882220e3e138f638b18a014c306b" target="_top" xlink:title="extract_uls_data.ProcessULS">
<polygon fill="white" stroke="black" points="355,-6 355,-25 502,-25 502,-6 355,-6"/>
<text text-anchor="middle" x="428.5" y="-13" font-family="Helvetica,sans-Serif" font-size="10.00">extract_uls_data.ProcessULS</text>
</a>
</g>
</g>
<!-- Node2&#45;&gt;Node3 -->
<g id="edge2" class="edge"><title>Node2&#45;&gt;Node3</title>
<path fill="none" stroke="midnightblue" d="M329.509,-15.5C337.902,-15.5 346.454,-15.5 354.836,-15.5"/>
<polygon fill="midnightblue" stroke="midnightblue" points="329.373,-12.0001 319.373,-15.5 329.373,-19.0001 329.373,-12.0001"/>
</g>
</g>
</svg>
