<?xml version="1.0" encoding="UTF-8" standalone="no"?>
<!DOCTYPE svg PUBLIC "-//W3C//DTD SVG 1.1//EN"
 "http://www.w3.org/Graphics/SVG/1.1/DTD/svg11.dtd">
<!-- Generated by graphviz version 2.38.0 (20140413.2041)
 -->
<!-- Title: extract_uls_data.ProcessULS Pages: 1 -->
<svg width="750pt" height="233pt"
 viewBox="0.00 0.00 750.00 233.00" xmlns="http://www.w3.org/2000/svg" xmlns:xlink="http://www.w3.org/1999/xlink">
<g id="graph0" class="graph" transform="scale(1 1) rotate(0) translate(4 229)">
<title>extract_uls_data.ProcessULS</title>
<polygon fill="white" stroke="none" points="-4,4 -4,-229 746,-229 746,4 -4,4"/>
<!-- Node1 -->
<g id="node1" class="node"><title>Node1</title>
<polygon fill="#bfbfbf" stroke="black" points="0,-136.5 0,-155.5 147,-155.5 147,-136.5 0,-136.5"/>
<text text-anchor="middle" x="73.5" y="-143.5" font-family="Helvetica,sans-Serif" font-size="10.00">extract_uls_data.ProcessULS</text>
</g>
<!-- Node2 -->
<g id="node2" class="node"><title>Node2</title>
<g id="a_node2"><a xlink:href="../../d8/d5b/namespaceextract__uls__data.html#a63e6882ef243f07992fa7fa1007f1ccf" target="_top" xlink:title="extract_uls_data.LoadULSSchema">
<polygon fill="white" stroke="black" points="183,-205.5 183,-224.5 351,-224.5 351,-205.5 183,-205.5"/>
<text text-anchor="middle" x="267" y="-212.5" font-family="Helvetica,sans-Serif" font-size="10.00">extract_uls_data.LoadULSSchema</text>
</a>
</g>
</g>
<!-- Node1&#45;&gt;Node2 -->
<g id="edge1" class="edge"><title>Node1&#45;&gt;Node2</title>
<path fill="none" stroke="midnightblue" d="M92.4563,-155.678C113.598,-166.74 150.018,-184.761 183,-196 190.56,-198.576 198.626,-200.911 206.648,-202.993"/>
<polygon fill="midnightblue" stroke="midnightblue" points="205.826,-206.395 216.374,-205.404 207.511,-199.6 205.826,-206.395"/>
</g>
<!-- Node3 -->
<g id="node3" class="node"><title>Node3</title>
<g id="a_node3"><a xlink:href="../../d8/d5b/namespaceextract__uls__data.html#a41f33050d28cbd4d261edd66427fa770" target="_top" xlink:title="extract_uls_data.UnzipNeeded\lFiles">
<polygon fill="white" stroke="black" points="191.5,-156 191.5,-186 342.5,-186 342.5,-156 191.5,-156"/>
<text text-anchor="start" x="199.5" y="-174" font-family="Helvetica,sans-Serif" font-size="10.00">extract_uls_data.UnzipNeeded</text>
<text text-anchor="middle" x="267" y="-163" font-family="Helvetica,sans-Serif" font-size="10.00">Files</text>
</a>
</g>
</g>
<!-- Node1&#45;&gt;Node3 -->
<g id="edge2" class="edge"><title>Node1&#45;&gt;Node3</title>
<path fill="none" stroke="midnightblue" d="M147.171,-155.487C158.383,-156.951 170.043,-158.473 181.486,-159.967"/>
<polygon fill="midnightblue" stroke="midnightblue" points="181.101,-163.446 191.47,-161.27 182.007,-156.505 181.101,-163.446"/>
</g>
<!-- Node4 -->
<g id="node4" class="node"><title>Node4</title>
<g id="a_node4"><a xlink:href="../../d8/d5b/namespaceextract__uls__data.html#afd6ccfa6d71f064c826268f6885cca54" target="_top" xlink:title="extract_uls_data.Process\lULSData">
<polygon fill="white" stroke="black" points="203,-58 203,-88 331,-88 331,-58 203,-58"/>
<text text-anchor="start" x="211" y="-76" font-family="Helvetica,sans-Serif" font-size="10.00">extract_uls_data.Process</text>
<text text-anchor="middle" x="267" y="-65" font-family="Helvetica,sans-Serif" font-size="10.00">ULSData</text>
</a>
</g>
</g>
<!-- Node1&#45;&gt;Node4 -->
<g id="edge3" class="edge"><title>Node1&#45;&gt;Node4</title>
<path fill="none" stroke="midnightblue" d="M94.1925,-136.402C115.702,-126.128 151.32,-109.727 183,-98 189.353,-95.6482 196.038,-93.3505 202.743,-91.1605"/>
<polygon fill="midnightblue" stroke="midnightblue" points="204.078,-94.4084 212.542,-88.0354 201.951,-87.7393 204.078,-94.4084"/>
</g>
<!-- Node10 -->
<g id="node10" class="node"><title>Node10</title>
<g id="a_node10"><a xlink:href="../../d8/d5b/namespaceextract__uls__data.html#a526568abb0390b12e9bfd0c691e344f8" target="_top" xlink:title="extract_uls_data.Consolidate\lULSData">
<polygon fill="white" stroke="black" points="195.5,-107 195.5,-137 338.5,-137 338.5,-107 195.5,-107"/>
<text text-anchor="start" x="203.5" y="-125" font-family="Helvetica,sans-Serif" font-size="10.00">extract_uls_data.Consolidate</text>
<text text-anchor="middle" x="267" y="-114" font-family="Helvetica,sans-Serif" font-size="10.00">ULSData</text>
</a>
</g>
</g>
<!-- Node1&#45;&gt;Node10 -->
<g id="edge9" class="edge"><title>Node1&#45;&gt;Node10</title>
<path fill="none" stroke="midnightblue" d="M147.171,-136.892C159.611,-135.333 172.604,-133.705 185.239,-132.121"/>
<polygon fill="midnightblue" stroke="midnightblue" points="185.791,-135.58 195.278,-130.863 184.921,-128.634 185.791,-135.58"/>
</g>
<!-- Node5 -->
<g id="node5" class="node"><title>Node5</title>
<g id="a_node5"><a xlink:href="../../d8/d5b/namespaceextract__uls__data.html#a22ca29b25d3ad93c0b1bd09944b372a0" target="_top" xlink:title="extract_uls_data.WriteHeader\lRecord">
<polygon fill="white" stroke="black" points="396,-105 396,-135 542,-135 542,-105 396,-105"/>
<text text-anchor="start" x="404" y="-123" font-family="Helvetica,sans-Serif" font-size="10.00">extract_uls_data.WriteHeader</text>
<text text-anchor="middle" x="469" y="-112" font-family="Helvetica,sans-Serif" font-size="10.00">Record</text>
</a>
</g>
</g>
<!-- Node4&#45;&gt;Node5 -->
<g id="edge4" class="edge"><title>Node4&#45;&gt;Node5</title>
<path fill="none" stroke="midnightblue" d="M331.007,-87.8066C350.982,-92.5007 373.249,-97.7335 393.927,-102.593"/>
<polygon fill="midnightblue" stroke="midnightblue" points="393.398,-106.064 403.934,-104.944 395,-99.2495 393.398,-106.064"/>
</g>
<!-- Node6 -->
<g id="node6" class="node"><title>Node6</title>
<g id="a_node6"><a xlink:href="../../d8/d5b/namespaceextract__uls__data.html#a64d85f6406808d3e6c85cf0a45c31729" target="_top" xlink:title="extract_uls_data.ReadULSData\lRecords">
<polygon fill="white" stroke="black" points="391.5,-17 391.5,-47 546.5,-47 546.5,-17 391.5,-17"/>
<text text-anchor="start" x="399.5" y="-35" font-family="Helvetica,sans-Serif" font-size="10.00">extract_uls_data.ReadULSData</text>
<text text-anchor="middle" x="469" y="-24" font-family="Helvetica,sans-Serif" font-size="10.00">Records</text>
</a>
</g>
</g>
<!-- Node4&#45;&gt;Node6 -->
<g id="edge5" class="edge"><title>Node4&#45;&gt;Node6</title>
<path fill="none" stroke="midnightblue" d="M331.007,-60.0836C348.01,-56.598 366.674,-52.7718 384.606,-49.0958"/>
<polygon fill="midnightblue" stroke="midnightblue" points="385.384,-52.5092 394.477,-47.0722 383.978,-45.6518 385.384,-52.5092"/>
</g>
<!-- Node9 -->
<g id="node9" class="node"><title>Node9</title>
<g id="a_node9"><a xlink:href="../../d8/d5b/namespaceextract__uls__data.html#af25caa0ea0d20ae40a638e3a49740cef" target="_top" xlink:title="extract_uls_data.WriteRecord">
<polygon fill="white" stroke="black" points="396,-66.5 396,-85.5 542,-85.5 542,-66.5 396,-66.5"/>
<text text-anchor="middle" x="469" y="-73.5" font-family="Helvetica,sans-Serif" font-size="10.00">extract_uls_data.WriteRecord</text>
</a>
</g>
</g>
<!-- Node4&#45;&gt;Node9 -->
<g id="edge8" class="edge"><title>Node4&#45;&gt;Node9</title>
<path fill="none" stroke="midnightblue" d="M331.007,-73.9451C348.396,-74.2059 367.523,-74.4929 385.827,-74.7674"/>
<polygon fill="midnightblue" stroke="midnightblue" points="385.843,-78.2679 395.895,-74.9184 385.948,-71.2687 385.843,-78.2679"/>
</g>
<!-- Node7 -->
<g id="node7" class="node"><title>Node7</title>
<g id="a_node7"><a xlink:href="../../d8/d5b/namespaceextract__uls__data.html#aaf9f5aef1e13ee749e9b7e1ebf2b0fa2" target="_top" xlink:title="extract_uls_data.Normalize\lLines">
<polygon fill="white" stroke="black" points="596.5,-39 596.5,-69 732.5,-69 732.5,-39 596.5,-39"/>
<text text-anchor="start" x="604.5" y="-57" font-family="Helvetica,sans-Serif" font-size="10.00">extract_uls_data.Normalize</text>
<text text-anchor="middle" x="664.5" y="-46" font-family="Helvetica,sans-Serif" font-size="10.00">Lines</text>
</a>
</g>
</g>
<!-- Node6&#45;&gt;Node7 -->
<g id="edge6" class="edge"><title>Node6&#45;&gt;Node7</title>
<path fill="none" stroke="midnightblue" d="M546.754,-40.7266C559.659,-42.1938 573.061,-43.7175 585.985,-45.1869"/>
<polygon fill="midnightblue" stroke="midnightblue" points="585.897,-48.6994 596.229,-46.3516 586.688,-41.7442 585.897,-48.6994"/>
</g>
<!-- Node8 -->
<g id="node8" class="node"><title>Node8</title>
<g id="a_node8"><a xlink:href="../../d8/d5b/namespaceextract__uls__data.html#a93cffd2122b1d16029eac2db067e56ba" target="_top" xlink:title="extract_uls_data.RowToRecord">
<polygon fill="white" stroke="black" points="587,-0.5 587,-19.5 742,-19.5 742,-0.5 587,-0.5"/>
<text text-anchor="middle" x="664.5" y="-7.5" font-family="Helvetica,sans-Serif" font-size="10.00">extract_uls_data.RowToRecord</text>
</a>
</g>
</g>
<!-- Node6&#45;&gt;Node8 -->
<g id="edge7" class="edge"><title>Node6&#45;&gt;Node8</title>
<path fill="none" stroke="midnightblue" d="M546.754,-23.2734C556.646,-22.1487 566.83,-20.9909 576.867,-19.8498"/>
<polygon fill="midnightblue" stroke="midnightblue" points="577.298,-23.3234 586.839,-18.716 576.507,-16.3682 577.298,-23.3234"/>
</g>
<!-- Node10&#45;&gt;Node5 -->
<g id="edge11" class="edge"><title>Node10&#45;&gt;Node5</title>
<path fill="none" stroke="midnightblue" d="M338.513,-121.295C353.735,-121.143 369.958,-120.98 385.589,-120.824"/>
<polygon fill="midnightblue" stroke="midnightblue" points="385.795,-124.322 395.759,-120.722 385.724,-117.323 385.795,-124.322"/>
</g>
<!-- Node10&#45;&gt;Node9 -->
<g id="edge12" class="edge"><title>Node10&#45;&gt;Node9</title>
<path fill="none" stroke="midnightblue" d="M333.487,-106.938C360.541,-100.715 391.437,-93.6096 416.79,-87.7783"/>
<polygon fill="midnightblue" stroke="midnightblue" points="417.61,-91.1811 426.571,-85.5286 416.041,-84.3592 417.61,-91.1811"/>
</g>
<!-- Node11 -->
<g id="node11" class="node"><title>Node11</title>
<g id="a_node11"><a xlink:href="../../d8/d5b/namespaceextract__uls__data.html#a3124ebc0516dd6ff6591b60beff177be" target="_top" xlink:title="extract_uls_data.LoadULSFlatFile">
<polygon fill="white" stroke="black" points="387,-154.5 387,-173.5 551,-173.5 551,-154.5 387,-154.5"/>
<text text-anchor="middle" x="469" y="-161.5" font-family="Helvetica,sans-Serif" font-size="10.00">extract_uls_data.LoadULSFlatFile</text>
</a>
</g>
</g>
<!-- Node10&#45;&gt;Node11 -->
<g id="edge10" class="edge"><title>Node10&#45;&gt;Node11</title>
<path fill="none" stroke="midnightblue" d="M338.513,-136.808C362.808,-141.91 389.654,-147.547 412.573,-152.36"/>
<polygon fill="midnightblue" stroke="midnightblue" points="411.962,-155.808 422.468,-154.438 413.401,-148.958 411.962,-155.808"/>
</g>
</g>
</svg>
