<?xml version="1.0" encoding="UTF-8" standalone="no"?>
<!DOCTYPE svg PUBLIC "-//W3C//DTD SVG 1.1//EN"
 "http://www.w3.org/Graphics/SVG/1.1/DTD/svg11.dtd">
<!-- Generated by graphviz version 2.38.0 (20140413.2041)
 -->
<!-- Title: extract_uls_data.ReadULSDataRecords Pages: 1 -->
<svg width="354pt" height="78pt"
 viewBox="0.00 0.00 354.00 77.50" xmlns="http://www.w3.org/2000/svg" xmlns:xlink="http://www.w3.org/1999/xlink">
<g id="graph0" class="graph" transform="scale(1 1) rotate(0) translate(4 73.5)">
<title>extract_uls_data.ReadULSDataRecords</title>
<polygon fill="white" stroke="none" points="-4,4 -4,-73.5 350,-73.5 350,4 -4,4"/>
<!-- Node1 -->
<g id="node1" class="node"><title>Node1</title>
<polygon fill="#bfbfbf" stroke="black" points="0,-17 0,-47 155,-47 155,-17 0,-17"/>
<text text-anchor="start" x="8" y="-35" font-family="Helvetica,sans-Serif" font-size="10.00">extract_uls_data.ReadULSData</text>
<text text-anchor="middle" x="77.5" y="-24" font-family="Helvetica,sans-Serif" font-size="10.00">Records</text>
</g>
<!-- Node2 -->
<g id="node2" class="node"><title>Node2</title>
<g id="a_node2"><a xlink:href="../../d8/d5b/namespaceextract__uls__data.html#aaf9f5aef1e13ee749e9b7e1ebf2b0fa2" target="_top" xlink:title="extract_uls_data.Normalize\lLines">
<polygon fill="white" stroke="black" points="200.5,-39 200.5,-69 336.5,-69 336.5,-39 200.5,-39"/>
<text text-anchor="start" x="208.5" y="-57" font-family="Helvetica,sans-Serif" font-size="10.00">extract_uls_data.Normalize</text>
<text text-anchor="middle" x="268.5" y="-46" font-family="Helvetica,sans-Serif" font-size="10.00">Lines</text>
</a>
</g>
</g>
<!-- Node1&#45;&gt;Node2 -->
<g id="edge1" class="edge"><title>Node1&#45;&gt;Node2</title>
<path fill="none" stroke="midnightblue" d="M155.101,-40.9165C166.656,-42.2615 178.581,-43.6496 190.151,-44.9965"/>
<polygon fill="midnightblue" stroke="midnightblue" points="189.872,-48.4875 200.21,-46.1673 190.681,-41.5344 189.872,-48.4875"/>
</g>
<!-- Node3 -->
<g id="node3" class="node"><title>Node3</title>
<g id="a_node3"><a xlink:href="../../d8/d5b/namespaceextract__uls__data.html#a93cffd2122b1d16029eac2db067e56ba" target="_top" xlink:title="extract_uls_data.RowToRecord">
<polygon fill="white" stroke="black" points="191,-0.5 191,-19.5 346,-19.5 346,-0.5 191,-0.5"/>
<text text-anchor="middle" x="268.5" y="-7.5" font-family="Helvetica,sans-Serif" font-size="10.00">extract_uls_data.RowToRecord</text>
</a>
</g>
</g>
<!-- Node1&#45;&gt;Node3 -->
<g id="edge2" class="edge"><title>Node1&#45;&gt;Node3</title>
<path fill="none" stroke="midnightblue" d="M155.101,-23.0835C163.559,-22.099 172.215,-21.0914 180.786,-20.0937"/>
<polygon fill="midnightblue" stroke="midnightblue" points="181.262,-23.5621 190.79,-18.9292 180.452,-16.609 181.262,-23.5621"/>
</g>
</g>
</svg>
