<?xml version="1.0" encoding="UTF-8" standalone="no"?>
<!DOCTYPE svg PUBLIC "-//W3C//DTD SVG 1.1//EN"
 "http://www.w3.org/Graphics/SVG/1.1/DTD/svg11.dtd">
<!-- Generated by graphviz version 2.38.0 (20140413.2041)
 -->
<!-- Title: extract_uls_data.LoadULSFlatFile Pages: 1 -->
<svg width="534pt" height="39pt"
 viewBox="0.00 0.00 534.00 39.00" xmlns="http://www.w3.org/2000/svg" xmlns:xlink="http://www.w3.org/1999/xlink">
<g id="graph0" class="graph" transform="scale(1 1) rotate(0) translate(4 35)">
<title>extract_uls_data.LoadULSFlatFile</title>
<polygon fill="white" stroke="none" points="-4,4 -4,-35 530,-35 530,4 -4,4"/>
<!-- Node1 -->
<g id="node1" class="node"><title>Node1</title>
<polygon fill="#bfbfbf" stroke="black" points="0,-6 0,-25 164,-25 164,-6 0,-6"/>
<text text-anchor="middle" x="82" y="-13" font-family="Helvetica,sans-Serif" font-size="10.00">extract_uls_data.LoadULSFlatFile</text>
</g>
<!-- Node2 -->
<g id="node2" class="node"><title>Node2</title>
<g id="a_node2"><a xlink:href="../../d8/d5b/namespaceextract__uls__data.html#a526568abb0390b12e9bfd0c691e344f8" target="_top" xlink:title="extract_uls_data.Consolidate\lULSData">
<polygon fill="white" stroke="black" points="200,-0.5 200,-30.5 343,-30.5 343,-0.5 200,-0.5"/>
<text text-anchor="start" x="208" y="-18.5" font-family="Helvetica,sans-Serif" font-size="10.00">extract_uls_data.Consolidate</text>
<text text-anchor="middle" x="271.5" y="-7.5" font-family="Helvetica,sans-Serif" font-size="10.00">ULSData</text>
</a>
</g>
</g>
<!-- Node1&#45;&gt;Node2 -->
<g id="edge1" class="edge"><title>Node1&#45;&gt;Node2</title>
<path fill="none" stroke="midnightblue" d="M174.219,-15.5C182.822,-15.5 191.453,-15.5 199.823,-15.5"/>
<polygon fill="midnightblue" stroke="midnightblue" points="174.15,-12.0001 164.15,-15.5 174.15,-19.0001 174.15,-12.0001"/>
</g>
<!-- Node3 -->
<g id="node3" class="node"><title>Node3</title>
<g id="a_node3"><a xlink:href="../../d8/d5b/namespaceextract__uls__data.html#ae3e8882220e3e138f638b18a014c306b" target="_top" xlink:title="extract_uls_data.ProcessULS">
<polygon fill="white" stroke="black" points="379,-6 379,-25 526,-25 526,-6 379,-6"/>
<text text-anchor="middle" x="452.5" y="-13" font-family="Helvetica,sans-Serif" font-size="10.00">extract_uls_data.ProcessULS</text>
</a>
</g>
</g>
<!-- Node2&#45;&gt;Node3 -->
<g id="edge2" class="edge"><title>Node2&#45;&gt;Node3</title>
<path fill="none" stroke="midnightblue" d="M353.507,-15.5C361.978,-15.5 370.551,-15.5 378.92,-15.5"/>
<polygon fill="midnightblue" stroke="midnightblue" points="353.246,-12.0001 343.246,-15.5 353.246,-19.0001 353.246,-12.0001"/>
</g>
</g>
</svg>
