<?xml version="1.0" encoding="UTF-8" standalone="no"?>
<!DOCTYPE svg PUBLIC "-//W3C//DTD SVG 1.1//EN"
 "http://www.w3.org/Graphics/SVG/1.1/DTD/svg11.dtd">
<!-- Generated by graphviz version 2.38.0 (20140413.2041)
 -->
<!-- Title: extract_uls_data.ProcessULSData Pages: 1 -->
<svg width="518pt" height="127pt"
 viewBox="0.00 0.00 518.00 126.50" xmlns="http://www.w3.org/2000/svg" xmlns:xlink="http://www.w3.org/1999/xlink">
<g id="graph0" class="graph" transform="scale(1 1) rotate(0) translate(4 122.5)">
<title>extract_uls_data.ProcessULSData</title>
<polygon fill="white" stroke="none" points="-4,4 -4,-122.5 514,-122.5 514,4 -4,4"/>
<!-- Node1 -->
<g id="node1" class="node"><title>Node1</title>
<polygon fill="#bfbfbf" stroke="black" points="0,-39 0,-69 128,-69 128,-39 0,-39"/>
<text text-anchor="start" x="8" y="-57" font-family="Helvetica,sans-Serif" font-size="10.00">extract_uls_data.Process</text>
<text text-anchor="middle" x="64" y="-46" font-family="Helvetica,sans-Serif" font-size="10.00">ULSData</text>
</g>
<!-- Node2 -->
<g id="node2" class="node"><title>Node2</title>
<g id="a_node2"><a xlink:href="../../d8/d5b/namespaceextract__uls__data.html#a22ca29b25d3ad93c0b1bd09944b372a0" target="_top" xlink:title="extract_uls_data.WriteHeader\lRecord">
<polygon fill="white" stroke="black" points="168.5,-88 168.5,-118 314.5,-118 314.5,-88 168.5,-88"/>
<text text-anchor="start" x="176.5" y="-106" font-family="Helvetica,sans-Serif" font-size="10.00">extract_uls_data.WriteHeader</text>
<text text-anchor="middle" x="241.5" y="-95" font-family="Helvetica,sans-Serif" font-size="10.00">Record</text>
</a>
</g>
</g>
<!-- Node1&#45;&gt;Node2 -->
<g id="edge1" class="edge"><title>Node1&#45;&gt;Node2</title>
<path fill="none" stroke="midnightblue" d="M119.088,-69.1014C137.356,-74.2019 157.918,-79.9429 176.856,-85.2305"/>
<polygon fill="midnightblue" stroke="midnightblue" points="176.018,-88.6303 186.591,-87.9484 177.9,-81.8881 176.018,-88.6303"/>
</g>
<!-- Node3 -->
<g id="node3" class="node"><title>Node3</title>
<g id="a_node3"><a xlink:href="../../d8/d5b/namespaceextract__uls__data.html#a64d85f6406808d3e6c85cf0a45c31729" target="_top" xlink:title="extract_uls_data.ReadULSData\lRecords">
<polygon fill="white" stroke="black" points="164,-39 164,-69 319,-69 319,-39 164,-39"/>
<text text-anchor="start" x="172" y="-57" font-family="Helvetica,sans-Serif" font-size="10.00">extract_uls_data.ReadULSData</text>
<text text-anchor="middle" x="241.5" y="-46" font-family="Helvetica,sans-Serif" font-size="10.00">Records</text>
</a>
</g>
</g>
<!-- Node1&#45;&gt;Node3 -->
<g id="edge2" class="edge"><title>Node1&#45;&gt;Node3</title>
<path fill="none" stroke="midnightblue" d="M128.36,-54C136.616,-54 145.186,-54 153.743,-54"/>
<polygon fill="midnightblue" stroke="midnightblue" points="153.763,-57.5001 163.762,-54 153.762,-50.5001 153.763,-57.5001"/>
</g>
<!-- Node6 -->
<g id="node6" class="node"><title>Node6</title>
<g id="a_node6"><a xlink:href="../../d8/d5b/namespaceextract__uls__data.html#af25caa0ea0d20ae40a638e3a49740cef" target="_top" xlink:title="extract_uls_data.WriteRecord">
<polygon fill="white" stroke="black" points="168.5,-0.5 168.5,-19.5 314.5,-19.5 314.5,-0.5 168.5,-0.5"/>
<text text-anchor="middle" x="241.5" y="-7.5" font-family="Helvetica,sans-Serif" font-size="10.00">extract_uls_data.WriteRecord</text>
</a>
</g>
</g>
<!-- Node1&#45;&gt;Node6 -->
<g id="edge5" class="edge"><title>Node1&#45;&gt;Node6</title>
<path fill="none" stroke="midnightblue" d="M124.906,-38.9808C147.008,-33.4396 171.739,-27.2393 192.636,-22.0001"/>
<polygon fill="midnightblue" stroke="midnightblue" points="193.71,-25.3393 202.558,-19.5124 192.007,-18.5494 193.71,-25.3393"/>
</g>
<!-- Node4 -->
<g id="node4" class="node"><title>Node4</title>
<g id="a_node4"><a xlink:href="../../d8/d5b/namespaceextract__uls__data.html#aaf9f5aef1e13ee749e9b7e1ebf2b0fa2" target="_top" xlink:title="extract_uls_data.Normalize\lLines">
<polygon fill="white" stroke="black" points="364.5,-61 364.5,-91 500.5,-91 500.5,-61 364.5,-61"/>
<text text-anchor="start" x="372.5" y="-79" font-family="Helvetica,sans-Serif" font-size="10.00">extract_uls_data.Normalize</text>
<text text-anchor="middle" x="432.5" y="-68" font-family="Helvetica,sans-Serif" font-size="10.00">Lines</text>
</a>
</g>
</g>
<!-- Node3&#45;&gt;Node4 -->
<g id="edge3" class="edge"><title>Node3&#45;&gt;Node4</title>
<path fill="none" stroke="midnightblue" d="M319.101,-62.9165C330.656,-64.2615 342.581,-65.6496 354.151,-66.9965"/>
<polygon fill="midnightblue" stroke="midnightblue" points="353.872,-70.4875 364.21,-68.1673 354.681,-63.5344 353.872,-70.4875"/>
</g>
<!-- Node5 -->
<g id="node5" class="node"><title>Node5</title>
<g id="a_node5"><a xlink:href="../../d8/d5b/namespaceextract__uls__data.html#a93cffd2122b1d16029eac2db067e56ba" target="_top" xlink:title="extract_uls_data.RowToRecord">
<polygon fill="white" stroke="black" points="355,-22.5 355,-41.5 510,-41.5 510,-22.5 355,-22.5"/>
<text text-anchor="middle" x="432.5" y="-29.5" font-family="Helvetica,sans-Serif" font-size="10.00">extract_uls_data.RowToRecord</text>
</a>
</g>
</g>
<!-- Node3&#45;&gt;Node5 -->
<g id="edge4" class="edge"><title>Node3&#45;&gt;Node5</title>
<path fill="none" stroke="midnightblue" d="M319.101,-45.0835C327.559,-44.099 336.215,-43.0914 344.786,-42.0937"/>
<polygon fill="midnightblue" stroke="midnightblue" points="345.262,-45.5621 354.79,-40.9292 344.452,-38.609 345.262,-45.5621"/>
</g>
</g>
</svg>
