<?xml version="1.0" encoding="UTF-8" standalone="no"?>
<!DOCTYPE svg PUBLIC "-//W3C//DTD SVG 1.1//EN"
 "http://www.w3.org/Graphics/SVG/1.1/DTD/svg11.dtd">
<!-- Generated by graphviz version 2.38.0 (20140413.2041)
 -->
<!-- Title: extract_uls_data.NormalizeLines Pages: 1 -->
<svg width="682pt" height="39pt"
 viewBox="0.00 0.00 682.00 39.00" xmlns="http://www.w3.org/2000/svg" xmlns:xlink="http://www.w3.org/1999/xlink">
<g id="graph0" class="graph" transform="scale(1 1) rotate(0) translate(4 35)">
<title>extract_uls_data.NormalizeLines</title>
<polygon fill="white" stroke="none" points="-4,4 -4,-35 678,-35 678,4 -4,4"/>
<!-- Node1 -->
<g id="node1" class="node"><title>Node1</title>
<polygon fill="#bfbfbf" stroke="black" points="0,-0.5 0,-30.5 136,-30.5 136,-0.5 0,-0.5"/>
<text text-anchor="start" x="8" y="-18.5" font-family="Helvetica,sans-Serif" font-size="10.00">extract_uls_data.Normalize</text>
<text text-anchor="middle" x="68" y="-7.5" font-family="Helvetica,sans-Serif" font-size="10.00">Lines</text>
</g>
<!-- Node2 -->
<g id="node2" class="node"><title>Node2</title>
<g id="a_node2"><a xlink:href="../../d8/d5b/namespaceextract__uls__data.html#a64d85f6406808d3e6c85cf0a45c31729" target="_top" xlink:title="extract_uls_data.ReadULSData\lRecords">
<polygon fill="white" stroke="black" points="172,-0.5 172,-30.5 327,-30.5 327,-0.5 172,-0.5"/>
<text text-anchor="start" x="180" y="-18.5" font-family="Helvetica,sans-Serif" font-size="10.00">extract_uls_data.ReadULSData</text>
<text text-anchor="middle" x="249.5" y="-7.5" font-family="Helvetica,sans-Serif" font-size="10.00">Records</text>
</a>
</g>
</g>
<!-- Node1&#45;&gt;Node2 -->
<g id="edge1" class="edge"><title>Node1&#45;&gt;Node2</title>
<path fill="none" stroke="midnightblue" d="M146.314,-15.5C154.77,-15.5 163.376,-15.5 171.824,-15.5"/>
<polygon fill="midnightblue" stroke="midnightblue" points="146.094,-12.0001 136.094,-15.5 146.094,-19.0001 146.094,-12.0001"/>
</g>
<!-- Node3 -->
<g id="node3" class="node"><title>Node3</title>
<g id="a_node3"><a xlink:href="../../d8/d5b/namespaceextract__uls__data.html#afd6ccfa6d71f064c826268f6885cca54" target="_top" xlink:title="extract_uls_data.Process\lULSData">
<polygon fill="white" stroke="black" points="363,-0.5 363,-30.5 491,-30.5 491,-0.5 363,-0.5"/>
<text text-anchor="start" x="371" y="-18.5" font-family="Helvetica,sans-Serif" font-size="10.00">extract_uls_data.Process</text>
<text text-anchor="middle" x="427" y="-7.5" font-family="Helvetica,sans-Serif" font-size="10.00">ULSData</text>
</a>
</g>
</g>
<!-- Node2&#45;&gt;Node3 -->
<g id="edge2" class="edge"><title>Node2&#45;&gt;Node3</title>
<path fill="none" stroke="midnightblue" d="M337.306,-15.5C345.918,-15.5 354.543,-15.5 362.847,-15.5"/>
<polygon fill="midnightblue" stroke="midnightblue" points="337.222,-12.0001 327.222,-15.5 337.222,-19.0001 337.222,-12.0001"/>
</g>
<!-- Node4 -->
<g id="node4" class="node"><title>Node4</title>
<g id="a_node4"><a xlink:href="../../d8/d5b/namespaceextract__uls__data.html#ae3e8882220e3e138f638b18a014c306b" target="_top" xlink:title="extract_uls_data.ProcessULS">
<polygon fill="white" stroke="black" points="527,-6 527,-25 674,-25 674,-6 527,-6"/>
<text text-anchor="middle" x="600.5" y="-13" font-family="Helvetica,sans-Serif" font-size="10.00">extract_uls_data.ProcessULS</text>
</a>
</g>
</g>
<!-- Node3&#45;&gt;Node4 -->
<g id="edge3" class="edge"><title>Node3&#45;&gt;Node4</title>
<path fill="none" stroke="midnightblue" d="M501.509,-15.5C509.902,-15.5 518.454,-15.5 526.836,-15.5"/>
<polygon fill="midnightblue" stroke="midnightblue" points="501.373,-12.0001 491.373,-15.5 501.373,-19.0001 501.373,-12.0001"/>
</g>
</g>
</svg>
