<?xml version="1.0" encoding="UTF-8" standalone="no"?>
<!DOCTYPE svg PUBLIC "-//W3C//DTD SVG 1.1//EN"
 "http://www.w3.org/Graphics/SVG/1.1/DTD/svg11.dtd">
<!-- Generated by graphviz version 2.38.0 (20140413.2041)
 -->
<!-- Title: extract_uls_data.WriteRecord Pages: 1 -->
<svg width="516pt" height="88pt"
 viewBox="0.00 0.00 516.00 88.00" xmlns="http://www.w3.org/2000/svg" xmlns:xlink="http://www.w3.org/1999/xlink">
<g id="graph0" class="graph" transform="scale(1 1) rotate(0) translate(4 84)">
<title>extract_uls_data.WriteRecord</title>
<polygon fill="white" stroke="none" points="-4,4 -4,-84 512,-84 512,4 -4,4"/>
<!-- Node1 -->
<g id="node1" class="node"><title>Node1</title>
<polygon fill="#bfbfbf" stroke="black" points="0,-30 0,-49 146,-49 146,-30 0,-30"/>
<text text-anchor="middle" x="73" y="-37" font-family="Helvetica,sans-Serif" font-size="10.00">extract_uls_data.WriteRecord</text>
</g>
<!-- Node2 -->
<g id="node2" class="node"><title>Node2</title>
<g id="a_node2"><a xlink:href="../../d8/d5b/namespaceextract__uls__data.html#afd6ccfa6d71f064c826268f6885cca54" target="_top" xlink:title="extract_uls_data.Process\lULSData">
<polygon fill="white" stroke="black" points="189.5,-49.5 189.5,-79.5 317.5,-79.5 317.5,-49.5 189.5,-49.5"/>
<text text-anchor="start" x="197.5" y="-67.5" font-family="Helvetica,sans-Serif" font-size="10.00">extract_uls_data.Process</text>
<text text-anchor="middle" x="253.5" y="-56.5" font-family="Helvetica,sans-Serif" font-size="10.00">ULSData</text>
</a>
</g>
</g>
<!-- Node1&#45;&gt;Node2 -->
<g id="edge1" class="edge"><title>Node1&#45;&gt;Node2</title>
<path fill="none" stroke="midnightblue" d="M151.946,-50.4168C164.462,-52.1698 177.28,-53.965 189.393,-55.6615"/>
<polygon fill="midnightblue" stroke="midnightblue" points="152.381,-46.9437 141.992,-49.0227 151.41,-53.876 152.381,-46.9437"/>
</g>
<!-- Node4 -->
<g id="node4" class="node"><title>Node4</title>
<g id="a_node4"><a xlink:href="../../d8/d5b/namespaceextract__uls__data.html#a526568abb0390b12e9bfd0c691e344f8" target="_top" xlink:title="extract_uls_data.Consolidate\lULSData">
<polygon fill="white" stroke="black" points="182,-0.5 182,-30.5 325,-30.5 325,-0.5 182,-0.5"/>
<text text-anchor="start" x="190" y="-18.5" font-family="Helvetica,sans-Serif" font-size="10.00">extract_uls_data.Consolidate</text>
<text text-anchor="middle" x="253.5" y="-7.5" font-family="Helvetica,sans-Serif" font-size="10.00">ULSData</text>
</a>
</g>
</g>
<!-- Node1&#45;&gt;Node4 -->
<g id="edge3" class="edge"><title>Node1&#45;&gt;Node4</title>
<path fill="none" stroke="midnightblue" d="M154.873,-28.6264C163.851,-27.4192 172.943,-26.1968 181.781,-25.0084"/>
<polygon fill="midnightblue" stroke="midnightblue" points="154.249,-25.1787 144.804,-29.9801 155.182,-32.1162 154.249,-25.1787"/>
</g>
<!-- Node3 -->
<g id="node3" class="node"><title>Node3</title>
<g id="a_node3"><a xlink:href="../../d8/d5b/namespaceextract__uls__data.html#ae3e8882220e3e138f638b18a014c306b" target="_top" xlink:title="extract_uls_data.ProcessULS">
<polygon fill="white" stroke="black" points="361,-30 361,-49 508,-49 508,-30 361,-30"/>
<text text-anchor="middle" x="434.5" y="-37" font-family="Helvetica,sans-Serif" font-size="10.00">extract_uls_data.ProcessULS</text>
</a>
</g>
</g>
<!-- Node2&#45;&gt;Node3 -->
<g id="edge2" class="edge"><title>Node2&#45;&gt;Node3</title>
<path fill="none" stroke="midnightblue" d="M327.858,-54.2545C340.204,-52.5302 352.973,-50.7468 365.184,-49.0413"/>
<polygon fill="midnightblue" stroke="midnightblue" points="327.028,-50.8363 317.609,-55.6859 327.997,-57.769 327.028,-50.8363"/>
</g>
<!-- Node4&#45;&gt;Node3 -->
<g id="edge4" class="edge"><title>Node4&#45;&gt;Node3</title>
<path fill="none" stroke="midnightblue" d="M335.356,-26.341C344.372,-27.5499 353.507,-28.7746 362.389,-29.9655"/>
<polygon fill="midnightblue" stroke="midnightblue" points="335.622,-22.8455 325.246,-24.9854 334.692,-29.7834 335.622,-22.8455"/>
</g>
</g>
</svg>
