<?xml version="1.0" encoding="UTF-8" standalone="no"?>
<!DOCTYPE svg PUBLIC "-//W3C//DTD SVG 1.1//EN"
 "http://www.w3.org/Graphics/SVG/1.1/DTD/svg11.dtd">
<!-- Generated by graphviz version 2.38.0 (20140413.2041)
 -->
<!-- Title: src.harness.testcases.WINNF_FT_S_SIQ_testcase.SpectrumInquiryTestcase.test_WINNF_FT_S_SIQ_9 Pages: 1 -->
<!--zoomable 118 -->
<svg id="main" version="1.1" xmlns="http://www.w3.org/2000/svg" xmlns:xlink="http://www.w3.org/1999/xlink" xml:space="preserve" onload="init(evt)">
<style type="text/css"><![CDATA[
.edge:hover path { stroke: red; }
.edge:hover polygon { stroke: red; fill: red; }
]]></style>
<script type="text/javascript"><![CDATA[
var edges = document.getElementsByTagName('g');
if (edges && edges.length) {
  for (var i=0;i<edges.length;i++) {
    if (edges[i].id.substr(0,4)=='edge') {
      edges[i].setAttribute('class','edge');
    }
  }
}
]]></script>
        <defs>
                <circle id="rim" cx="0" cy="0" r="7"/>
                <circle id="rim2" cx="0" cy="0" r="3.5"/>
                <g id="zoomPlus">
                        <use xlink:href="#rim" fill="#404040">
                                <set attributeName="fill" to="#808080" begin="zoomplus.mouseover" end="zoomplus.mouseout"/>
                        </use>
                        <path d="M-4,0h8M0,-4v8" fill="none" stroke="white" stroke-width="1.5" pointer-events="none"/>
                </g>
                <g id="zoomMin">
                        <use xlink:href="#rim" fill="#404040">
                                <set attributeName="fill" to="#808080" begin="zoomminus.mouseover" end="zoomminus.mouseout"/>
                        </use>
                        <path d="M-4,0h8" fill="none" stroke="white" stroke-width="1.5" pointer-events="none"/>
                </g>
                <g id="dirArrow">
                        <path fill="none" stroke="white" stroke-width="1.5" d="M0,-3.0v7 M-2.5,-0.5L0,-3.0L2.5,-0.5"/>
                </g>
               <g id="resetDef">
                       <use xlink:href="#rim2" fill="#404040">
                               <set attributeName="fill" to="#808080" begin="reset.mouseover" end="reset.mouseout"/>
                       </use>
               </g>
        </defs>

<script type="text/javascript">
var viewWidth = 645;
var viewHeight = 118;
var sectionId = 'dynsection-6';
</script>
<script xlink:href="../../svgpan.js"/>
<svg id="graph" class="graph">
<g id="viewport">
<title>src.harness.testcases.WINNF_FT_S_SIQ_testcase.SpectrumInquiryTestcase.test_WINNF_FT_S_SIQ_9</title>
<polygon fill="white" stroke="none" points="-4,4 -4,-113.5 641,-113.5 641,4 -4,4"/>
<!-- Node1 -->
<g id="node1" class="node"><title>Node1</title>
<polygon fill="#bfbfbf" stroke="black" points="0,-49.5 0,-90.5 185,-90.5 185,-49.5 0,-49.5"/>
<text text-anchor="start" x="8" y="-78.5" font-family="Helvetica,sans-Serif" font-size="10.00">src.harness.testcases.WINNF</text>
<text text-anchor="start" x="8" y="-67.5" font-family="Helvetica,sans-Serif" font-size="10.00">_FT_S_SIQ_testcase.SpectrumInquiry</text>
<text text-anchor="middle" x="92.5" y="-56.5" font-family="Helvetica,sans-Serif" font-size="10.00">Testcase.test_WINNF_FT_S_SIQ_9</text>
</g>
<!-- Node2 -->
<g id="node2" class="node"><title>Node2</title>
<g id="a_node2"><a xlink:href="../../d8/d6c/namespacesrc_1_1harness_1_1util.html#ad781031fc0a08430a583769551ac9b40" target="_top" xlink:title="src.harness.util.makePpa\lAndPalRecordsConsistent">
<polygon fill="white" stroke="black" points="476,-79 476,-109 608,-109 608,-79 476,-79"/>
<text text-anchor="start" x="484" y="-97" font-family="Helvetica,sans-Serif" font-size="10.00">src.harness.util.makePpa</text>
<text text-anchor="middle" x="542" y="-86" font-family="Helvetica,sans-Serif" font-size="10.00">AndPalRecordsConsistent</text>
</a>
</g>
</g>
<!-- Node1&#45;&gt;Node2 -->
<g id="edge1" class="edge"><title>Node1&#45;&gt;Node2</title>
<path fill="none" stroke="midnightblue" d="M185.115,-90.1647C197.133,-92.1615 209.325,-93.8662 221,-95 304.455,-103.105 400.732,-101.306 465.704,-98.4632"/>
<polygon fill="midnightblue" stroke="midnightblue" points="466.027,-101.952 475.857,-97.9995 465.707,-94.9595 466.027,-101.952"/>
</g>
<!-- Node3 -->
<g id="node3" class="node"><title>Node3</title>
<g id="a_node3"><a xlink:href="../../d8/d6c/namespacesrc_1_1harness_1_1util.html#a105dd692e0d0640cc251860113ff5a97" target="_top" xlink:title="src.harness.util.getRandom\lLatLongInPolygon">
<polygon fill="white" stroke="black" points="247.5,-55 247.5,-85 384.5,-85 384.5,-55 247.5,-55"/>
<text text-anchor="start" x="255.5" y="-73" font-family="Helvetica,sans-Serif" font-size="10.00">src.harness.util.getRandom</text>
<text text-anchor="middle" x="316" y="-62" font-family="Helvetica,sans-Serif" font-size="10.00">LatLongInPolygon</text>
</a>
</g>
</g>
<!-- Node1&#45;&gt;Node3 -->
<g id="edge2" class="edge"><title>Node1&#45;&gt;Node3</title>
<path fill="none" stroke="midnightblue" d="M185.191,-70C202.439,-70 220.323,-70 237.101,-70"/>
<polygon fill="midnightblue" stroke="midnightblue" points="237.389,-73.5001 247.389,-70 237.389,-66.5001 237.389,-73.5001"/>
</g>
<!-- Node4 -->
<g id="node4" class="node"><title>Node4</title>
<g id="a_node4"><a xlink:href="../../df/ded/classsrc_1_1harness_1_1sas__interface_1_1SasTestcaseInterface.html#ae5fdeb19b3235937e0fe9b447297f7ec" target="_top" xlink:title="src.harness.sas_interface.\lSasTestcaseInterface.assertRegistered">
<polygon fill="white" stroke="black" points="221,-6 221,-36 411,-36 411,-6 221,-6"/>
<text text-anchor="start" x="229" y="-24" font-family="Helvetica,sans-Serif" font-size="10.00">src.harness.sas_interface.</text>
<text text-anchor="middle" x="316" y="-13" font-family="Helvetica,sans-Serif" font-size="10.00">SasTestcaseInterface.assertRegistered</text>
</a>
</g>
</g>
<!-- Node1&#45;&gt;Node4 -->
<g id="edge4" class="edge"><title>Node1&#45;&gt;Node4</title>
<path fill="none" stroke="midnightblue" d="M185.191,-49.7161C202.503,-45.8866 220.454,-41.9153 237.286,-38.1919"/>
<polygon fill="midnightblue" stroke="midnightblue" points="238.045,-41.6087 247.053,-36.0312 236.533,-34.7739 238.045,-41.6087"/>
</g>
<!-- Node3&#45;&gt;Node2 -->
<g id="edge3" class="edge"><title>Node3&#45;&gt;Node2</title>
<path fill="none" stroke="midnightblue" d="M384.511,-77.2333C410.099,-79.9749 439.386,-83.1128 465.65,-85.9268"/>
<polygon fill="midnightblue" stroke="midnightblue" points="465.618,-89.4433 475.934,-87.0287 466.364,-82.4832 465.618,-89.4433"/>
</g>
<!-- Node5 -->
<g id="node5" class="node"><title>Node5</title>
<g id="a_node5"><a xlink:href="../../df/ded/classsrc_1_1harness_1_1sas__interface_1_1SasTestcaseInterface.html#a36b0593c135c9f69cba9eb4b359bdfa2" target="_top" xlink:title="src.harness.sas_interface.\lSasTestcaseInterface.assertRegistered\lAndGranted">
<polygon fill="white" stroke="black" points="447,-0.5 447,-41.5 637,-41.5 637,-0.5 447,-0.5"/>
<text text-anchor="start" x="455" y="-29.5" font-family="Helvetica,sans-Serif" font-size="10.00">src.harness.sas_interface.</text>
<text text-anchor="start" x="455" y="-18.5" font-family="Helvetica,sans-Serif" font-size="10.00">SasTestcaseInterface.assertRegistered</text>
<text text-anchor="middle" x="542" y="-7.5" font-family="Helvetica,sans-Serif" font-size="10.00">AndGranted</text>
</a>
</g>
</g>
<!-- Node4&#45;&gt;Node5 -->
<g id="edge5" class="edge"><title>Node4&#45;&gt;Node5</title>
<path fill="none" stroke="midnightblue" d="M411.023,-21C419.542,-21 428.204,-21 436.804,-21"/>
<polygon fill="midnightblue" stroke="midnightblue" points="436.859,-24.5001 446.859,-21 436.859,-17.5001 436.859,-24.5001"/>
</g>
</g>
</svg>
        <g id="navigator" transform="translate(0 0)" fill="#404254">
                <rect fill="#f2f5e9" fill-opacity="0.5" stroke="#606060" stroke-width=".5" x="0" y="0" width="60" height="60"/>
                <use id="zoomplus" xlink:href="#zoomPlus" x="17" y="9" onmousedown="handleZoom(evt,'in')"/>
                <use id="zoomminus" xlink:href="#zoomMin" x="42" y="9" onmousedown="handleZoom(evt,'out')"/>
                <use id="reset" xlink:href="#resetDef" x="30" y="36" onmousedown="handleReset()"/>
                <g id="arrowUp" xlink:href="#dirArrow" transform="translate(30 24)" onmousedown="handlePan(0,-1)">
                  <use xlink:href="#rim" fill="#404040">
                        <set attributeName="fill" to="#808080" begin="arrowUp.mouseover" end="arrowUp.mouseout"/>
                  </use>
                  <path fill="none" stroke="white" stroke-width="1.5" d="M0,-3.0v7 M-2.5,-0.5L0,-3.0L2.5,-0.5"/>
                </g>
                <g id="arrowRight" xlink:href="#dirArrow" transform="rotate(90) translate(36 -43)" onmousedown="handlePan(1,0)">
                  <use xlink:href="#rim" fill="#404040">
                        <set attributeName="fill" to="#808080" begin="arrowRight.mouseover" end="arrowRight.mouseout"/>
                  </use>
                  <path fill="none" stroke="white" stroke-width="1.5" d="M0,-3.0v7 M-2.5,-0.5L0,-3.0L2.5,-0.5"/>
                </g>
                <g id="arrowDown" xlink:href="#dirArrow" transform="rotate(180) translate(-30 -48)" onmousedown="handlePan(0,1)">
                  <use xlink:href="#rim" fill="#404040">
                        <set attributeName="fill" to="#808080" begin="arrowDown.mouseover" end="arrowDown.mouseout"/>
                  </use>
                  <path fill="none" stroke="white" stroke-width="1.5" d="M0,-3.0v7 M-2.5,-0.5L0,-3.0L2.5,-0.5"/>
                </g>
                <g id="arrowLeft" xlink:href="#dirArrow" transform="rotate(270) translate(-36 17)" onmousedown="handlePan(-1,0)">
                  <use xlink:href="#rim" fill="#404040">
                        <set attributeName="fill" to="#808080" begin="arrowLeft.mouseover" end="arrowLeft.mouseout"/>
                  </use>
                  <path fill="none" stroke="white" stroke-width="1.5" d="M0,-3.0v7 M-2.5,-0.5L0,-3.0L2.5,-0.5"/>
                </g>
        </g>
        <svg viewBox="0 0 15 15" width="100%" height="30px" preserveAspectRatio="xMaxYMin meet">
         <g id="arrow_out" transform="scale(0.3 0.3)">
          <a xlink:href="classsrc_1_1harness_1_1testcases_1_1WINNF__FT__S__SIQ__testcase_1_1SpectrumInquiryTestcase_a0d4f3fcfc17ad9efb42163561ac8d7c4_cgraph_org.svg" target="_base">
           <rect id="button" ry="5" rx="5" y="6" x="6" height="38" width="38"
                fill="#f2f5e9" fill-opacity="0.5" stroke="#606060" stroke-width="1.0"/>
           <path id="arrow"
             d="M 11.500037,31.436501 C 11.940474,20.09759 22.043105,11.32322 32.158766,21.979434 L 37.068811,17.246167 C 37.068811,17.246167 37.088388,32 37.088388,32 L 22.160133,31.978069 C 22.160133,31.978069 26.997745,27.140456 26.997745,27.140456 C 18.528582,18.264221 13.291696,25.230495 11.500037,31.436501 z"
             style="fill:#404040;"/>
          </a>
         </g>
        </svg>
</svg>
