<?xml version="1.0" encoding="UTF-8" standalone="no"?>
<!DOCTYPE svg PUBLIC "-//W3C//DTD SVG 1.1//EN"
 "http://www.w3.org/Graphics/SVG/1.1/DTD/svg11.dtd">
<!-- Generated by graphviz version 2.38.0 (20140413.2041)
 -->
<!-- Title: src.harness.testcases.WINNF_FT_S_SIQ_testcase.SpectrumInquiryTestcase.test_WINNF_FT_S_SIQ_13 Pages: 1 -->
<svg width="645pt" height="50pt"
 viewBox="0.00 0.00 645.00 50.00" xmlns="http://www.w3.org/2000/svg" xmlns:xlink="http://www.w3.org/1999/xlink">
<g id="graph0" class="graph" transform="scale(1 1) rotate(0) translate(4 46)">
<title>src.harness.testcases.WINNF_FT_S_SIQ_testcase.SpectrumInquiryTestcase.test_WINNF_FT_S_SIQ_13</title>
<polygon fill="white" stroke="none" points="-4,4 -4,-46 641,-46 641,4 -4,4"/>
<!-- Node1 -->
<g id="node1" class="node"><title>Node1</title>
<polygon fill="#bfbfbf" stroke="black" points="0,-0.5 0,-41.5 185,-41.5 185,-0.5 0,-0.5"/>
<text text-anchor="start" x="8" y="-29.5" font-family="Helvetica,sans-Serif" font-size="10.00">src.harness.testcases.WINNF</text>
<text text-anchor="start" x="8" y="-18.5" font-family="Helvetica,sans-Serif" font-size="10.00">_FT_S_SIQ_testcase.SpectrumInquiry</text>
<text text-anchor="middle" x="92.5" y="-7.5" font-family="Helvetica,sans-Serif" font-size="10.00">Testcase.test_WINNF_FT_S_SIQ_13</text>
</g>
<!-- Node2 -->
<g id="node2" class="node"><title>Node2</title>
<g id="a_node2"><a xlink:href="../../df/ded/classsrc_1_1harness_1_1sas__interface_1_1SasTestcaseInterface.html#ae5fdeb19b3235937e0fe9b447297f7ec" target="_top" xlink:title="src.harness.sas_interface.\lSasTestcaseInterface.assertRegistered">
<polygon fill="white" stroke="black" points="221,-6 221,-36 411,-36 411,-6 221,-6"/>
<text text-anchor="start" x="229" y="-24" font-family="Helvetica,sans-Serif" font-size="10.00">src.harness.sas_interface.</text>
<text text-anchor="middle" x="316" y="-13" font-family="Helvetica,sans-Serif" font-size="10.00">SasTestcaseInterface.assertRegistered</text>
</a>
</g>
</g>
<!-- Node1&#45;&gt;Node2 -->
<g id="edge1" class="edge"><title>Node1&#45;&gt;Node2</title>
<path fill="none" stroke="midnightblue" d="M185.191,-21C193.66,-21 202.282,-21 210.851,-21"/>
<polygon fill="midnightblue" stroke="midnightblue" points="210.874,-24.5001 220.874,-21 210.874,-17.5001 210.874,-24.5001"/>
</g>
<!-- Node3 -->
<g id="node3" class="node"><title>Node3</title>
<g id="a_node3"><a xlink:href="../../df/ded/classsrc_1_1harness_1_1sas__interface_1_1SasTestcaseInterface.html#a36b0593c135c9f69cba9eb4b359bdfa2" target="_top" xlink:title="src.harness.sas_interface.\lSasTestcaseInterface.assertRegistered\lAndGranted">
<polygon fill="white" stroke="black" points="447,-0.5 447,-41.5 637,-41.5 637,-0.5 447,-0.5"/>
<text text-anchor="start" x="455" y="-29.5" font-family="Helvetica,sans-Serif" font-size="10.00">src.harness.sas_interface.</text>
<text text-anchor="start" x="455" y="-18.5" font-family="Helvetica,sans-Serif" font-size="10.00">SasTestcaseInterface.assertRegistered</text>
<text text-anchor="middle" x="542" y="-7.5" font-family="Helvetica,sans-Serif" font-size="10.00">AndGranted</text>
</a>
</g>
</g>
<!-- Node2&#45;&gt;Node3 -->
<g id="edge2" class="edge"><title>Node2&#45;&gt;Node3</title>
<path fill="none" stroke="midnightblue" d="M411.023,-21C419.542,-21 428.204,-21 436.804,-21"/>
<polygon fill="midnightblue" stroke="midnightblue" points="436.859,-24.5001 446.859,-21 436.859,-17.5001 436.859,-24.5001"/>
</g>
</g>
</svg>
