<?xml version="1.0" encoding="UTF-8" standalone="no"?>
<!DOCTYPE svg PUBLIC "-//W3C//DTD SVG 1.1//EN"
 "http://www.w3.org/Graphics/SVG/1.1/DTD/svg11.dtd">
<!-- Generated by graphviz version 2.38.0 (20140413.2041)
 -->
<!-- Title: src.harness.testcases.WINNF_FT_S_SIQ_testcase.SpectrumInquiryTestcase.test_WINNF_FT_S_SIQ_5 Pages: 1 -->
<svg width="665pt" height="174pt"
 viewBox="0.00 0.00 665.00 173.82" xmlns="http://www.w3.org/2000/svg" xmlns:xlink="http://www.w3.org/1999/xlink">
<g id="graph0" class="graph" transform="scale(1 1) rotate(0) translate(4 169.821)">
<title>src.harness.testcases.WINNF_FT_S_SIQ_testcase.SpectrumInquiryTestcase.test_WINNF_FT_S_SIQ_5</title>
<polygon fill="white" stroke="none" points="-4,4 -4,-169.821 661,-169.821 661,4 -4,4"/>
<!-- Node1 -->
<g id="node1" class="node"><title>Node1</title>
<polygon fill="#bfbfbf" stroke="black" points="0,-76.5 0,-117.5 185,-117.5 185,-76.5 0,-76.5"/>
<text text-anchor="start" x="8" y="-105.5" font-family="Helvetica,sans-Serif" font-size="10.00">src.harness.testcases.WINNF</text>
<text text-anchor="start" x="8" y="-94.5" font-family="Helvetica,sans-Serif" font-size="10.00">_FT_S_SIQ_testcase.SpectrumInquiry</text>
<text text-anchor="middle" x="92.5" y="-83.5" font-family="Helvetica,sans-Serif" font-size="10.00">Testcase.test_WINNF_FT_S_SIQ_5</text>
</g>
<!-- Node2 -->
<g id="node2" class="node"><title>Node2</title>
<g id="a_node2"><a xlink:href="../../d8/d6c/namespacesrc_1_1harness_1_1util.html#ad781031fc0a08430a583769551ac9b40" target="_top" xlink:title="src.harness.util.makePpa\lAndPalRecordsConsistent">
<polygon fill="white" stroke="black" points="496,-109 496,-139 628,-139 628,-109 496,-109"/>
<text text-anchor="start" x="504" y="-127" font-family="Helvetica,sans-Serif" font-size="10.00">src.harness.util.makePpa</text>
<text text-anchor="middle" x="562" y="-116" font-family="Helvetica,sans-Serif" font-size="10.00">AndPalRecordsConsistent</text>
</a>
</g>
</g>
<!-- Node1&#45;&gt;Node2 -->
<g id="edge1" class="edge"><title>Node1&#45;&gt;Node2</title>
<path fill="none" stroke="midnightblue" d="M128.667,-117.573C153.533,-130.884 188.157,-146.993 221,-154 312.279,-173.475 338.266,-164.561 431,-154 453.252,-151.466 477.239,-146.566 498.477,-141.45"/>
<polygon fill="midnightblue" stroke="midnightblue" points="499.475,-144.809 508.343,-139.011 497.795,-138.013 499.475,-144.809"/>
</g>
<!-- Node3 -->
<g id="node3" class="node"><title>Node3</title>
<g id="a_node3"><a xlink:href="../../df/ded/classsrc_1_1harness_1_1sas__interface_1_1SasTestcaseInterface.html#a39812d93a172aad20d1ec3006ade06bb" target="_top" xlink:title="src.harness.sas_interface.\lSasTestcaseInterface.TriggerDaily\lActivitiesImmediatelyAndWaitUntilComplete">
<polygon fill="white" stroke="black" points="221,-103.5 221,-144.5 431,-144.5 431,-103.5 221,-103.5"/>
<text text-anchor="start" x="229" y="-132.5" font-family="Helvetica,sans-Serif" font-size="10.00">src.harness.sas_interface.</text>
<text text-anchor="start" x="229" y="-121.5" font-family="Helvetica,sans-Serif" font-size="10.00">SasTestcaseInterface.TriggerDaily</text>
<text text-anchor="middle" x="326" y="-110.5" font-family="Helvetica,sans-Serif" font-size="10.00">ActivitiesImmediatelyAndWaitUntilComplete</text>
</a>
</g>
</g>
<!-- Node1&#45;&gt;Node3 -->
<g id="edge2" class="edge"><title>Node1&#45;&gt;Node3</title>
<path fill="none" stroke="midnightblue" d="M185.327,-107.71C193.675,-108.683 202.196,-109.677 210.706,-110.67"/>
<polygon fill="midnightblue" stroke="midnightblue" points="210.343,-114.151 220.681,-111.833 211.154,-107.198 210.343,-114.151"/>
</g>
<!-- Node4 -->
<g id="node4" class="node"><title>Node4</title>
<g id="a_node4"><a xlink:href="../../d8/d6c/namespacesrc_1_1harness_1_1util.html#a105dd692e0d0640cc251860113ff5a97" target="_top" xlink:title="src.harness.util.getRandom\lLatLongInPolygon">
<polygon fill="white" stroke="black" points="257.5,-55 257.5,-85 394.5,-85 394.5,-55 257.5,-55"/>
<text text-anchor="start" x="265.5" y="-73" font-family="Helvetica,sans-Serif" font-size="10.00">src.harness.util.getRandom</text>
<text text-anchor="middle" x="326" y="-62" font-family="Helvetica,sans-Serif" font-size="10.00">LatLongInPolygon</text>
</a>
</g>
</g>
<!-- Node1&#45;&gt;Node4 -->
<g id="edge3" class="edge"><title>Node1&#45;&gt;Node4</title>
<path fill="none" stroke="midnightblue" d="M185.327,-86.2901C205.752,-83.908 227.216,-81.4046 247.023,-79.0945"/>
<polygon fill="midnightblue" stroke="midnightblue" points="247.688,-82.5408 257.215,-77.9058 246.877,-75.5879 247.688,-82.5408"/>
</g>
<!-- Node5 -->
<g id="node5" class="node"><title>Node5</title>
<g id="a_node5"><a xlink:href="../../df/ded/classsrc_1_1harness_1_1sas__interface_1_1SasTestcaseInterface.html#ae5fdeb19b3235937e0fe9b447297f7ec" target="_top" xlink:title="src.harness.sas_interface.\lSasTestcaseInterface.assertRegistered">
<polygon fill="white" stroke="black" points="231,-6 231,-36 421,-36 421,-6 231,-6"/>
<text text-anchor="start" x="239" y="-24" font-family="Helvetica,sans-Serif" font-size="10.00">src.harness.sas_interface.</text>
<text text-anchor="middle" x="326" y="-13" font-family="Helvetica,sans-Serif" font-size="10.00">SasTestcaseInterface.assertRegistered</text>
</a>
</g>
</g>
<!-- Node1&#45;&gt;Node5 -->
<g id="edge5" class="edge"><title>Node1&#45;&gt;Node5</title>
<path fill="none" stroke="midnightblue" d="M140.138,-76.4604C164.02,-66.4269 193.739,-54.6785 221,-46 229.228,-43.3806 237.898,-40.8879 246.579,-38.5623"/>
<polygon fill="midnightblue" stroke="midnightblue" points="247.568,-41.9214 256.36,-36.0099 245.801,-35.1482 247.568,-41.9214"/>
</g>
<!-- Node4&#45;&gt;Node2 -->
<g id="edge4" class="edge"><title>Node4&#45;&gt;Node2</title>
<path fill="none" stroke="midnightblue" d="M392.182,-85.042C421.22,-91.7431 455.594,-99.6756 485.722,-106.628"/>
<polygon fill="midnightblue" stroke="midnightblue" points="485.231,-110.107 495.762,-108.945 486.805,-103.286 485.231,-110.107"/>
</g>
<!-- Node6 -->
<g id="node6" class="node"><title>Node6</title>
<g id="a_node6"><a xlink:href="../../df/ded/classsrc_1_1harness_1_1sas__interface_1_1SasTestcaseInterface.html#a36b0593c135c9f69cba9eb4b359bdfa2" target="_top" xlink:title="src.harness.sas_interface.\lSasTestcaseInterface.assertRegistered\lAndGranted">
<polygon fill="white" stroke="black" points="467,-0.5 467,-41.5 657,-41.5 657,-0.5 467,-0.5"/>
<text text-anchor="start" x="475" y="-29.5" font-family="Helvetica,sans-Serif" font-size="10.00">src.harness.sas_interface.</text>
<text text-anchor="start" x="475" y="-18.5" font-family="Helvetica,sans-Serif" font-size="10.00">SasTestcaseInterface.assertRegistered</text>
<text text-anchor="middle" x="562" y="-7.5" font-family="Helvetica,sans-Serif" font-size="10.00">AndGranted</text>
</a>
</g>
</g>
<!-- Node5&#45;&gt;Node6 -->
<g id="edge6" class="edge"><title>Node5&#45;&gt;Node6</title>
<path fill="none" stroke="midnightblue" d="M421.165,-21C432.756,-21 444.657,-21 456.391,-21"/>
<polygon fill="midnightblue" stroke="midnightblue" points="456.647,-24.5001 466.647,-21 456.646,-17.5001 456.647,-24.5001"/>
</g>
</g>
</svg>
