<?xml version="1.0" encoding="UTF-8" standalone="no"?>
<!DOCTYPE svg PUBLIC "-//W3C//DTD SVG 1.1//EN"
 "http://www.w3.org/Graphics/SVG/1.1/DTD/svg11.dtd">
<!-- Generated by graphviz version 2.38.0 (20140413.2041)
 -->
<!-- Title: src.harness.testcases.WINNF_FT_S_SIQ_testcase.SpectrumInquiryTestcase.test_WINNF_FT_S_SIQ_4 Pages: 1 -->
<svg width="645pt" height="104pt"
 viewBox="0.00 0.00 645.00 104.00" xmlns="http://www.w3.org/2000/svg" xmlns:xlink="http://www.w3.org/1999/xlink">
<g id="graph0" class="graph" transform="scale(1 1) rotate(0) translate(4 100)">
<title>src.harness.testcases.WINNF_FT_S_SIQ_testcase.SpectrumInquiryTestcase.test_WINNF_FT_S_SIQ_4</title>
<polygon fill="white" stroke="none" points="-4,4 -4,-100 641,-100 641,4 -4,4"/>
<!-- Node1 -->
<g id="node1" class="node"><title>Node1</title>
<polygon fill="#bfbfbf" stroke="black" points="0,-27.5 0,-68.5 185,-68.5 185,-27.5 0,-27.5"/>
<text text-anchor="start" x="8" y="-56.5" font-family="Helvetica,sans-Serif" font-size="10.00">src.harness.testcases.WINNF</text>
<text text-anchor="start" x="8" y="-45.5" font-family="Helvetica,sans-Serif" font-size="10.00">_FT_S_SIQ_testcase.SpectrumInquiry</text>
<text text-anchor="middle" x="92.5" y="-34.5" font-family="Helvetica,sans-Serif" font-size="10.00">Testcase.test_WINNF_FT_S_SIQ_4</text>
</g>
<!-- Node2 -->
<g id="node2" class="node"><title>Node2</title>
<g id="a_node2"><a xlink:href="../../df/ded/classsrc_1_1harness_1_1sas__interface_1_1SasTestcaseInterface.html#ae5fdeb19b3235937e0fe9b447297f7ec" target="_top" xlink:title="src.harness.sas_interface.\lSasTestcaseInterface.assertRegistered">
<polygon fill="white" stroke="black" points="221,-60 221,-90 411,-90 411,-60 221,-60"/>
<text text-anchor="start" x="229" y="-78" font-family="Helvetica,sans-Serif" font-size="10.00">src.harness.sas_interface.</text>
<text text-anchor="middle" x="316" y="-67" font-family="Helvetica,sans-Serif" font-size="10.00">SasTestcaseInterface.assertRegistered</text>
</a>
</g>
</g>
<!-- Node1&#45;&gt;Node2 -->
<g id="edge1" class="edge"><title>Node1&#45;&gt;Node2</title>
<path fill="none" stroke="midnightblue" d="M185.191,-59.1768C193.66,-60.2091 202.282,-61.2601 210.851,-62.3047"/>
<polygon fill="midnightblue" stroke="midnightblue" points="210.524,-65.7906 220.874,-63.5264 211.371,-58.842 210.524,-65.7906"/>
</g>
<!-- Node4 -->
<g id="node4" class="node"><title>Node4</title>
<g id="a_node4"><a xlink:href="../../df/dc5/classsrc_1_1harness_1_1sas__testcase_1_1SasTestCase.html#a2c48084a45c1953e0f1b658bec5c66f8" target="_top" xlink:title="src.harness.sas_testcase.\lSasTestCase.assertChannelsContain\lFrequencyRange">
<polygon fill="white" stroke="black" points="225,-0.5 225,-41.5 407,-41.5 407,-0.5 225,-0.5"/>
<text text-anchor="start" x="233" y="-29.5" font-family="Helvetica,sans-Serif" font-size="10.00">src.harness.sas_testcase.</text>
<text text-anchor="start" x="233" y="-18.5" font-family="Helvetica,sans-Serif" font-size="10.00">SasTestCase.assertChannelsContain</text>
<text text-anchor="middle" x="316" y="-7.5" font-family="Helvetica,sans-Serif" font-size="10.00">FrequencyRange</text>
</a>
</g>
</g>
<!-- Node1&#45;&gt;Node4 -->
<g id="edge3" class="edge"><title>Node1&#45;&gt;Node4</title>
<path fill="none" stroke="midnightblue" d="M185.191,-36.8232C194.908,-35.6388 204.826,-34.4298 214.635,-33.2341"/>
<polygon fill="midnightblue" stroke="midnightblue" points="215.301,-36.6789 224.804,-31.9946 214.454,-29.7304 215.301,-36.6789"/>
</g>
<!-- Node3 -->
<g id="node3" class="node"><title>Node3</title>
<g id="a_node3"><a xlink:href="../../df/ded/classsrc_1_1harness_1_1sas__interface_1_1SasTestcaseInterface.html#a36b0593c135c9f69cba9eb4b359bdfa2" target="_top" xlink:title="src.harness.sas_interface.\lSasTestcaseInterface.assertRegistered\lAndGranted">
<polygon fill="white" stroke="black" points="447,-54.5 447,-95.5 637,-95.5 637,-54.5 447,-54.5"/>
<text text-anchor="start" x="455" y="-83.5" font-family="Helvetica,sans-Serif" font-size="10.00">src.harness.sas_interface.</text>
<text text-anchor="start" x="455" y="-72.5" font-family="Helvetica,sans-Serif" font-size="10.00">SasTestcaseInterface.assertRegistered</text>
<text text-anchor="middle" x="542" y="-61.5" font-family="Helvetica,sans-Serif" font-size="10.00">AndGranted</text>
</a>
</g>
</g>
<!-- Node2&#45;&gt;Node3 -->
<g id="edge2" class="edge"><title>Node2&#45;&gt;Node3</title>
<path fill="none" stroke="midnightblue" d="M411.023,-75C419.542,-75 428.204,-75 436.804,-75"/>
<polygon fill="midnightblue" stroke="midnightblue" points="436.859,-78.5001 446.859,-75 436.859,-71.5001 436.859,-78.5001"/>
</g>
</g>
</svg>
