<?xml version="1.0" encoding="UTF-8" standalone="no"?>
<!DOCTYPE svg PUBLIC "-//W3C//DTD SVG 1.1//EN"
 "http://www.w3.org/Graphics/SVG/1.1/DTD/svg11.dtd">
<!-- Generated by graphviz version 2.38.0 (20140413.2041)
 -->
<!-- Title: src.harness.sas_testcase.SasTestCase Pages: 1 -->
<svg width="861pt" height="580pt"
 viewBox="0.00 0.00 861.00 580.00" xmlns="http://www.w3.org/2000/svg" xmlns:xlink="http://www.w3.org/1999/xlink">
<g id="graph0" class="graph" transform="scale(1 1) rotate(0) translate(4 576)">
<title>src.harness.sas_testcase.SasTestCase</title>
<polygon fill="white" stroke="none" points="-4,4 -4,-576 857,-576 857,4 -4,4"/>
<!-- Node1 -->
<g id="node1" class="node"><title>Node1</title>
<polygon fill="#bfbfbf" stroke="black" points="247,-256 247,-286 379,-286 379,-256 247,-256"/>
<text text-anchor="start" x="255" y="-274" font-family="Helvetica,sans-Serif" font-size="10.00">src.harness.sas_testcase.</text>
<text text-anchor="middle" x="313" y="-263" font-family="Helvetica,sans-Serif" font-size="10.00">SasTestCase</text>
</g>
<!-- Node5 -->
<g id="node5" class="node"><title>Node5</title>
<g id="a_node5"><a xlink:href="../../db/df9/classsrc_1_1harness_1_1security__testcase_1_1SecurityTestCase.html" target="_top" xlink:title="src.harness.security\l_testcase.SecurityTestCase">
<polygon fill="white" stroke="black" points="448.5,-506 448.5,-536 589.5,-536 589.5,-506 448.5,-506"/>
<text text-anchor="start" x="456.5" y="-524" font-family="Helvetica,sans-Serif" font-size="10.00">src.harness.security</text>
<text text-anchor="middle" x="519" y="-513" font-family="Helvetica,sans-Serif" font-size="10.00">_testcase.SecurityTestCase</text>
</a>
</g>
</g>
<!-- Node1&#45;&gt;Node5 -->
<g id="edge4" class="edge"><title>Node1&#45;&gt;Node5</title>
<path fill="none" stroke="midnightblue" d="M317.859,-295.934C326.445,-342.634 351.613,-443.311 415,-496 424.552,-503.94 436.227,-509.43 448.243,-513.212"/>
<polygon fill="midnightblue" stroke="midnightblue" points="321.303,-295.307 316.145,-286.052 314.406,-296.503 321.303,-295.307"/>
</g>
<!-- Node8 -->
<g id="node8" class="node"><title>Node8</title>
<g id="a_node8"><a xlink:href="../../de/d99/classsrc_1_1harness_1_1testcases_1_1grant__testcase_1_1GrantTestcaseUsingOldIds.html" target="_top" xlink:title="src.harness.testcases.grant\l_testcase.GrantTestcaseUsingOldIds">
<polygon fill="white" stroke="black" points="428.5,-457 428.5,-487 609.5,-487 609.5,-457 428.5,-457"/>
<text text-anchor="start" x="436.5" y="-475" font-family="Helvetica,sans-Serif" font-size="10.00">src.harness.testcases.grant</text>
<text text-anchor="middle" x="519" y="-464" font-family="Helvetica,sans-Serif" font-size="10.00">_testcase.GrantTestcaseUsingOldIds</text>
</a>
</g>
</g>
<!-- Node1&#45;&gt;Node8 -->
<g id="edge7" class="edge"><title>Node1&#45;&gt;Node8</title>
<path fill="none" stroke="midnightblue" d="M321.143,-296.067C333.552,-334.897 362.885,-409.15 415,-448 419.637,-451.457 424.692,-454.426 429.993,-456.976"/>
<polygon fill="midnightblue" stroke="midnightblue" points="324.368,-294.646 318.088,-286.114 317.677,-296.701 324.368,-294.646"/>
</g>
<!-- Node9 -->
<g id="node9" class="node"><title>Node9</title>
<g id="a_node9"><a xlink:href="../../d8/d41/classsrc_1_1harness_1_1testcases_1_1helper__unit__testcase_1_1AssertChannelsContainFrequencyRangeTest.html" target="_top" xlink:title="src.harness.testcases.helper\l_unit_testcase.AssertChannelsContain\lFrequencyRangeTest">
<polygon fill="white" stroke="black" points="425.5,-397.5 425.5,-438.5 612.5,-438.5 612.5,-397.5 425.5,-397.5"/>
<text text-anchor="start" x="433.5" y="-426.5" font-family="Helvetica,sans-Serif" font-size="10.00">src.harness.testcases.helper</text>
<text text-anchor="start" x="433.5" y="-415.5" font-family="Helvetica,sans-Serif" font-size="10.00">_unit_testcase.AssertChannelsContain</text>
<text text-anchor="middle" x="519" y="-404.5" font-family="Helvetica,sans-Serif" font-size="10.00">FrequencyRangeTest</text>
</a>
</g>
</g>
<!-- Node1&#45;&gt;Node9 -->
<g id="edge8" class="edge"><title>Node1&#45;&gt;Node9</title>
<path fill="none" stroke="midnightblue" d="M328.377,-294.676C345.699,-321.228 377.235,-363.738 415,-388 420.484,-391.523 426.395,-394.644 432.511,-397.407"/>
<polygon fill="midnightblue" stroke="midnightblue" points="331.18,-292.561 322.856,-286.006 325.275,-296.321 331.18,-292.561"/>
</g>
<!-- Node10 -->
<g id="node10" class="node"><title>Node10</title>
<g id="a_node10"><a xlink:href="../../d7/d0d/classsrc_1_1harness_1_1testcases_1_1spectrum__inquiry__testcase_1_1SpectrumInquiryTestcaseUsingOldIds.html" target="_top" xlink:title="src.harness.testcases.spectrum\l_inquiry_testcase.SpectrumInquiryTestcase\lUsingOldIds">
<polygon fill="white" stroke="black" points="415,-337.5 415,-378.5 623,-378.5 623,-337.5 415,-337.5"/>
<text text-anchor="start" x="423" y="-366.5" font-family="Helvetica,sans-Serif" font-size="10.00">src.harness.testcases.spectrum</text>
<text text-anchor="start" x="423" y="-355.5" font-family="Helvetica,sans-Serif" font-size="10.00">_inquiry_testcase.SpectrumInquiryTestcase</text>
<text text-anchor="middle" x="519" y="-344.5" font-family="Helvetica,sans-Serif" font-size="10.00">UsingOldIds</text>
</a>
</g>
</g>
<!-- Node1&#45;&gt;Node10 -->
<g id="edge9" class="edge"><title>Node1&#45;&gt;Node10</title>
<path fill="none" stroke="midnightblue" d="M346.013,-291.588C365.41,-303.414 390.972,-317.88 415,-328 423.067,-331.398 431.644,-334.559 440.272,-337.456"/>
<polygon fill="midnightblue" stroke="midnightblue" points="347.639,-288.478 337.293,-286.195 343.957,-294.431 347.639,-288.478"/>
</g>
<!-- Node11 -->
<g id="node11" class="node"><title>Node11</title>
<g id="a_node11"><a xlink:href="../../d3/d24/classsrc_1_1harness_1_1testcases_1_1WINNF__FT__S__DRG__testcase_1_1DeregistrationTestcase.html" target="_top" xlink:title="src.harness.testcases.WINNF\l_FT_S_DRG_testcase.Deregistration\lTestcase">
<polygon fill="white" stroke="black" points="429,-277.5 429,-318.5 609,-318.5 609,-277.5 429,-277.5"/>
<text text-anchor="start" x="437" y="-306.5" font-family="Helvetica,sans-Serif" font-size="10.00">src.harness.testcases.WINNF</text>
<text text-anchor="start" x="437" y="-295.5" font-family="Helvetica,sans-Serif" font-size="10.00">_FT_S_DRG_testcase.Deregistration</text>
<text text-anchor="middle" x="519" y="-284.5" font-family="Helvetica,sans-Serif" font-size="10.00">Testcase</text>
</a>
</g>
</g>
<!-- Node1&#45;&gt;Node11 -->
<g id="edge10" class="edge"><title>Node1&#45;&gt;Node11</title>
<path fill="none" stroke="midnightblue" d="M389.309,-280.967C402.215,-282.676 415.735,-284.465 428.958,-286.215"/>
<polygon fill="midnightblue" stroke="midnightblue" points="389.481,-277.46 379.108,-279.617 388.562,-284.399 389.481,-277.46"/>
</g>
<!-- Node12 -->
<g id="node12" class="node"><title>Node12</title>
<g id="a_node12"><a xlink:href="../../d5/de0/classsrc_1_1harness_1_1testcases_1_1WINNF__FT__S__GRA__testcase_1_1GrantTestcase.html" target="_top" xlink:title="src.harness.testcases.WINNF\l_FT_S_GRA_testcase.GrantTestcase">
<polygon fill="white" stroke="black" points="427.5,-229 427.5,-259 610.5,-259 610.5,-229 427.5,-229"/>
<text text-anchor="start" x="435.5" y="-247" font-family="Helvetica,sans-Serif" font-size="10.00">src.harness.testcases.WINNF</text>
<text text-anchor="middle" x="519" y="-236" font-family="Helvetica,sans-Serif" font-size="10.00">_FT_S_GRA_testcase.GrantTestcase</text>
</a>
</g>
</g>
<!-- Node1&#45;&gt;Node12 -->
<g id="edge11" class="edge"><title>Node1&#45;&gt;Node12</title>
<path fill="none" stroke="midnightblue" d="M389.377,-261.024C401.781,-259.382 414.751,-257.665 427.479,-255.981"/>
<polygon fill="midnightblue" stroke="midnightblue" points="388.562,-257.601 379.108,-262.383 389.481,-264.54 388.562,-257.601"/>
</g>
<!-- Node13 -->
<g id="node13" class="node"><title>Node13</title>
<g id="a_node13"><a xlink:href="../../d5/d7b/classsrc_1_1harness_1_1testcases_1_1WINNF__FT__S__HBT__testcase_1_1HeartbeatTestcase.html" target="_top" xlink:title="src.harness.testcases.WINNF\l_FT_S_HBT_testcase.HeartbeatTestcase">
<polygon fill="white" stroke="black" points="419,-180 419,-210 619,-210 619,-180 419,-180"/>
<text text-anchor="start" x="427" y="-198" font-family="Helvetica,sans-Serif" font-size="10.00">src.harness.testcases.WINNF</text>
<text text-anchor="middle" x="519" y="-187" font-family="Helvetica,sans-Serif" font-size="10.00">_FT_S_HBT_testcase.HeartbeatTestcase</text>
</a>
</g>
</g>
<!-- Node1&#45;&gt;Node13 -->
<g id="edge12" class="edge"><title>Node1&#45;&gt;Node13</title>
<path fill="none" stroke="midnightblue" d="M347.882,-250.887C367.053,-240.196 391.774,-227.536 415,-219 424.134,-215.643 433.901,-212.648 443.647,-210.007"/>
<polygon fill="midnightblue" stroke="midnightblue" points="345.922,-247.974 338.948,-255.95 349.373,-254.064 345.922,-247.974"/>
</g>
<!-- Node14 -->
<g id="node14" class="node"><title>Node14</title>
<g id="a_node14"><a xlink:href="../../d3/da6/classsrc_1_1harness_1_1testcases_1_1WINNF__FT__S__REG__testcase_1_1RegistrationTestcase.html" target="_top" xlink:title="src.harness.testcases.WINNF\l_FT_S_REG_testcase.Registration\lTestcase">
<polygon fill="white" stroke="black" points="433.5,-120.5 433.5,-161.5 604.5,-161.5 604.5,-120.5 433.5,-120.5"/>
<text text-anchor="start" x="441.5" y="-149.5" font-family="Helvetica,sans-Serif" font-size="10.00">src.harness.testcases.WINNF</text>
<text text-anchor="start" x="441.5" y="-138.5" font-family="Helvetica,sans-Serif" font-size="10.00">_FT_S_REG_testcase.Registration</text>
<text text-anchor="middle" x="519" y="-127.5" font-family="Helvetica,sans-Serif" font-size="10.00">Testcase</text>
</a>
</g>
</g>
<!-- Node1&#45;&gt;Node14 -->
<g id="edge13" class="edge"><title>Node1&#45;&gt;Node14</title>
<path fill="none" stroke="midnightblue" d="M331.102,-248.021C349.406,-225.013 380.508,-190.206 415,-170 420.771,-166.62 426.955,-163.616 433.323,-160.951"/>
<polygon fill="midnightblue" stroke="midnightblue" points="328.338,-245.874 324.955,-255.915 333.861,-250.175 328.338,-245.874"/>
</g>
<!-- Node15 -->
<g id="node15" class="node"><title>Node15</title>
<g id="a_node15"><a xlink:href="../../d7/de3/classsrc_1_1harness_1_1testcases_1_1WINNF__FT__S__RLQ__testcase_1_1RelinquishmentTestcase.html" target="_top" xlink:title="src.harness.testcases.WINNF\l_FT_S_RLQ_testcase.Relinquishment\lTestcase">
<polygon fill="white" stroke="black" points="426.5,-60.5 426.5,-101.5 611.5,-101.5 611.5,-60.5 426.5,-60.5"/>
<text text-anchor="start" x="434.5" y="-89.5" font-family="Helvetica,sans-Serif" font-size="10.00">src.harness.testcases.WINNF</text>
<text text-anchor="start" x="434.5" y="-78.5" font-family="Helvetica,sans-Serif" font-size="10.00">_FT_S_RLQ_testcase.Relinquishment</text>
<text text-anchor="middle" x="519" y="-67.5" font-family="Helvetica,sans-Serif" font-size="10.00">Testcase</text>
</a>
</g>
</g>
<!-- Node1&#45;&gt;Node15 -->
<g id="edge14" class="edge"><title>Node1&#45;&gt;Node15</title>
<path fill="none" stroke="midnightblue" d="M323.097,-246.062C337.264,-210.722 367.954,-146.437 415,-111 419.686,-107.47 424.779,-104.355 430.106,-101.605"/>
<polygon fill="midnightblue" stroke="midnightblue" points="319.74,-245.037 319.385,-255.626 326.266,-247.57 319.74,-245.037"/>
</g>
<!-- Node16 -->
<g id="node16" class="node"><title>Node16</title>
<g id="a_node16"><a xlink:href="../../dd/df3/classsrc_1_1harness_1_1testcases_1_1WINNF__FT__S__SIQ__testcase_1_1SpectrumInquiryTestcase.html" target="_top" xlink:title="src.harness.testcases.WINNF\l_FT_S_SIQ_testcase.SpectrumInquiry\lTestcase">
<polygon fill="white" stroke="black" points="426.5,-0.5 426.5,-41.5 611.5,-41.5 611.5,-0.5 426.5,-0.5"/>
<text text-anchor="start" x="434.5" y="-29.5" font-family="Helvetica,sans-Serif" font-size="10.00">src.harness.testcases.WINNF</text>
<text text-anchor="start" x="434.5" y="-18.5" font-family="Helvetica,sans-Serif" font-size="10.00">_FT_S_SIQ_testcase.SpectrumInquiry</text>
<text text-anchor="middle" x="519" y="-7.5" font-family="Helvetica,sans-Serif" font-size="10.00">Testcase</text>
</a>
</g>
</g>
<!-- Node1&#45;&gt;Node16 -->
<g id="edge15" class="edge"><title>Node1&#45;&gt;Node16</title>
<path fill="none" stroke="midnightblue" d="M318.447,-245.92C327.868,-200.27 354.17,-103.488 415,-51 419.089,-47.4714 423.574,-44.3574 428.312,-41.6091"/>
<polygon fill="midnightblue" stroke="midnightblue" points="314.987,-245.378 316.498,-255.864 321.857,-246.724 314.987,-245.378"/>
</g>
<!-- Node2 -->
<g id="node2" class="node"><title>Node2</title>
<g id="a_node2"><a xlink:href="../../df/ded/classsrc_1_1harness_1_1sas__interface_1_1SasTestcaseInterface.html" target="_top" xlink:title="src.harness.sas_interface.\lSasTestcaseInterface">
<polygon fill="white" stroke="black" points="79,-278 79,-308 211,-308 211,-278 79,-278"/>
<text text-anchor="start" x="87" y="-296" font-family="Helvetica,sans-Serif" font-size="10.00">src.harness.sas_interface.</text>
<text text-anchor="middle" x="145" y="-285" font-family="Helvetica,sans-Serif" font-size="10.00">SasTestcaseInterface</text>
</a>
</g>
</g>
<!-- Node2&#45;&gt;Node1 -->
<g id="edge1" class="edge"><title>Node2&#45;&gt;Node1</title>
<path fill="none" stroke="midnightblue" d="M221.114,-283.045C229.681,-281.91 238.361,-280.759 246.784,-279.643"/>
<polygon fill="midnightblue" stroke="midnightblue" points="220.585,-279.585 211.131,-284.368 221.504,-286.524 220.585,-279.585"/>
</g>
<!-- Node3 -->
<g id="node3" class="node"><title>Node3</title>
<polygon fill="white" stroke="#bfbfbf" points="0,-283.5 0,-302.5 43,-302.5 43,-283.5 0,-283.5"/>
<text text-anchor="middle" x="21.5" y="-290.5" font-family="Helvetica,sans-Serif" font-size="10.00">object</text>
</g>
<!-- Node3&#45;&gt;Node2 -->
<g id="edge2" class="edge"><title>Node3&#45;&gt;Node2</title>
<path fill="none" stroke="midnightblue" d="M53.2777,-293C61.1999,-293 70.0293,-293 78.983,-293"/>
<polygon fill="midnightblue" stroke="midnightblue" points="53.1109,-289.5 43.1108,-293 53.1108,-296.5 53.1109,-289.5"/>
</g>
<!-- Node4 -->
<g id="node4" class="node"><title>Node4</title>
<polygon fill="white" stroke="#bfbfbf" points="115.5,-239.5 115.5,-258.5 174.5,-258.5 174.5,-239.5 115.5,-239.5"/>
<text text-anchor="middle" x="145" y="-246.5" font-family="Helvetica,sans-Serif" font-size="10.00">TestCase</text>
</g>
<!-- Node4&#45;&gt;Node1 -->
<g id="edge3" class="edge"><title>Node4&#45;&gt;Node1</title>
<path fill="none" stroke="midnightblue" d="M184.6,-254.116C203.051,-256.561 225.651,-259.556 246.666,-262.341"/>
<polygon fill="midnightblue" stroke="midnightblue" points="184.91,-250.626 174.536,-252.782 183.99,-257.565 184.91,-250.626"/>
</g>
<!-- Node6 -->
<g id="node6" class="node"><title>Node6</title>
<g id="a_node6"><a xlink:href="../../da/d08/classsrc_1_1harness_1_1testcases_1_1WINNF__FT__S__SCS__testcase_1_1SasCbsdSecurityTestcase.html" target="_top" xlink:title="src.harness.testcases.WINNF\l_FT_S_SCS_testcase.SasCbsdSecurity\lTestcase">
<polygon fill="white" stroke="black" points="659,-530.5 659,-571.5 853,-571.5 853,-530.5 659,-530.5"/>
<text text-anchor="start" x="667" y="-559.5" font-family="Helvetica,sans-Serif" font-size="10.00">src.harness.testcases.WINNF</text>
<text text-anchor="start" x="667" y="-548.5" font-family="Helvetica,sans-Serif" font-size="10.00">_FT_S_SCS_testcase.SasCbsdSecurity</text>
<text text-anchor="middle" x="756" y="-537.5" font-family="Helvetica,sans-Serif" font-size="10.00">Testcase</text>
</a>
</g>
</g>
<!-- Node5&#45;&gt;Node6 -->
<g id="edge5" class="edge"><title>Node5&#45;&gt;Node6</title>
<path fill="none" stroke="midnightblue" d="M599.62,-531.164C618.58,-533.585 639.012,-536.193 658.632,-538.698"/>
<polygon fill="midnightblue" stroke="midnightblue" points="599.917,-527.674 589.554,-529.879 599.03,-534.617 599.917,-527.674"/>
</g>
<!-- Node7 -->
<g id="node7" class="node"><title>Node7</title>
<g id="a_node7"><a xlink:href="../../d5/daa/classsrc_1_1harness_1_1testcases_1_1WINNF__FT__S__SDS__testcase_1_1SasDomainProxySecurityTestcase.html" target="_top" xlink:title="src.harness.testcases.WINNF\l_FT_S_SDS_testcase.SasDomainProxy\lSecurityTestcase">
<polygon fill="white" stroke="black" points="659,-470.5 659,-511.5 853,-511.5 853,-470.5 659,-470.5"/>
<text text-anchor="start" x="667" y="-499.5" font-family="Helvetica,sans-Serif" font-size="10.00">src.harness.testcases.WINNF</text>
<text text-anchor="start" x="667" y="-488.5" font-family="Helvetica,sans-Serif" font-size="10.00">_FT_S_SDS_testcase.SasDomainProxy</text>
<text text-anchor="middle" x="756" y="-477.5" font-family="Helvetica,sans-Serif" font-size="10.00">SecurityTestcase</text>
</a>
</g>
</g>
<!-- Node5&#45;&gt;Node7 -->
<g id="edge6" class="edge"><title>Node5&#45;&gt;Node7</title>
<path fill="none" stroke="midnightblue" d="M599.62,-510.836C618.58,-508.415 639.012,-505.807 658.632,-503.302"/>
<polygon fill="midnightblue" stroke="midnightblue" points="599.03,-507.383 589.554,-512.121 599.917,-514.326 599.03,-507.383"/>
</g>
</g>
</svg>
