<?xml version="1.0" encoding="UTF-8" standalone="no"?>
<!DOCTYPE svg PUBLIC "-//W3C//DTD SVG 1.1//EN"
 "http://www.w3.org/Graphics/SVG/1.1/DTD/svg11.dtd">
<!-- Generated by graphviz version 2.38.0 (20140413.2041)
 -->
<!-- Title: /home/nirajan/NetBeansProjects/sas&#45;winnforum/Spectrum&#45;Access&#45;System/Spectrum&#45;Access&#45;System&#45;master/src/harness/reference_models/propagation/ehata/its/FineRollingHillyTerrainCorectionFactor.cpp Pages: 1 -->
<svg width="220pt" height="139pt"
 viewBox="0.00 0.00 220.00 139.00" xmlns="http://www.w3.org/2000/svg" xmlns:xlink="http://www.w3.org/1999/xlink">
<g id="graph0" class="graph" transform="scale(1 1) rotate(0) translate(4 135)">
<title>/home/nirajan/NetBeansProjects/sas&#45;winnforum/Spectrum&#45;Access&#45;System/Spectrum&#45;Access&#45;System&#45;master/src/harness/reference_models/propagation/ehata/its/FineRollingHillyTerrainCorectionFactor.cpp</title>
<polygon fill="white" stroke="none" points="-4,4 -4,-135 216,-135 216,4 -4,4"/>
<!-- Node1 -->
<g id="node1" class="node"><title>Node1</title>
<polygon fill="#bfbfbf" stroke="black" points="-1.42109e-14,-56.5 -1.42109e-14,-130.5 212,-130.5 212,-56.5 -1.42109e-14,-56.5"/>
<text text-anchor="start" x="8" y="-118.5" font-family="Helvetica,sans-Serif" font-size="10.00">/home/nirajan/NetBeansProjects</text>
<text text-anchor="start" x="8" y="-107.5" font-family="Helvetica,sans-Serif" font-size="10.00">/sas&#45;winnforum/Spectrum&#45;Access</text>
<text text-anchor="start" x="8" y="-96.5" font-family="Helvetica,sans-Serif" font-size="10.00">&#45;System/Spectrum&#45;Access&#45;System</text>
<text text-anchor="start" x="8" y="-85.5" font-family="Helvetica,sans-Serif" font-size="10.00">&#45;master/src/harness/reference_models</text>
<text text-anchor="start" x="8" y="-74.5" font-family="Helvetica,sans-Serif" font-size="10.00">/propagation/ehata/its/FineRollingHillyTerrain</text>
<text text-anchor="middle" x="106" y="-63.5" font-family="Helvetica,sans-Serif" font-size="10.00">CorectionFactor.cpp</text>
</g>
<!-- Node2 -->
<g id="node2" class="node"><title>Node2</title>
<polygon fill="white" stroke="#bfbfbf" points="49.5,-0.5 49.5,-19.5 96.5,-19.5 96.5,-0.5 49.5,-0.5"/>
<text text-anchor="middle" x="73" y="-7.5" font-family="Helvetica,sans-Serif" font-size="10.00">math.h</text>
</g>
<!-- Node1&#45;&gt;Node2 -->
<g id="edge1" class="edge"><title>Node1&#45;&gt;Node2</title>
<path fill="none" stroke="midnightblue" d="M91.2374,-56.0408C87.419,-46.6107 83.4752,-36.8707 80.2361,-28.871"/>
<polygon fill="midnightblue" stroke="midnightblue" points="83.451,-27.485 76.4537,-19.5296 76.9627,-30.1122 83.451,-27.485"/>
</g>
<!-- Node3 -->
<g id="node3" class="node"><title>Node3</title>
<g id="a_node3"><a xlink:href="../../d3/d10/ehata_8h.html" target="_top" xlink:title="ehata.h">
<polygon fill="white" stroke="black" points="114.5,-0.5 114.5,-19.5 163.5,-19.5 163.5,-0.5 114.5,-0.5"/>
<text text-anchor="middle" x="139" y="-7.5" font-family="Helvetica,sans-Serif" font-size="10.00">ehata.h</text>
</a>
</g>
</g>
<!-- Node1&#45;&gt;Node3 -->
<g id="edge2" class="edge"><title>Node1&#45;&gt;Node3</title>
<path fill="none" stroke="midnightblue" d="M120.763,-56.0408C124.581,-46.6107 128.525,-36.8707 131.764,-28.871"/>
<polygon fill="midnightblue" stroke="midnightblue" points="135.037,-30.1122 135.546,-19.5296 128.549,-27.485 135.037,-30.1122"/>
</g>
</g>
</svg>
