<?xml version="1.0" encoding="UTF-8" standalone="no"?>
<!DOCTYPE svg PUBLIC "-//W3C//DTD SVG 1.1//EN"
 "http://www.w3.org/Graphics/SVG/1.1/DTD/svg11.dtd">
<!-- Generated by graphviz version 2.38.0 (20140413.2041)
 -->
<!-- Title: src.harness.reference_models.geo.utils.PolyWithoutSmallHoles Pages: 1 -->
<svg width="530pt" height="50pt"
 viewBox="0.00 0.00 530.00 50.00" xmlns="http://www.w3.org/2000/svg" xmlns:xlink="http://www.w3.org/1999/xlink">
<g id="graph0" class="graph" transform="scale(1 1) rotate(0) translate(4 46)">
<title>src.harness.reference_models.geo.utils.PolyWithoutSmallHoles</title>
<polygon fill="white" stroke="none" points="-4,4 -4,-46 526,-46 526,4 -4,4"/>
<!-- Node1 -->
<g id="node1" class="node"><title>Node1</title>
<polygon fill="#bfbfbf" stroke="black" points="0,-0.5 0,-41.5 149,-41.5 149,-0.5 0,-0.5"/>
<text text-anchor="start" x="8" y="-29.5" font-family="Helvetica,sans-Serif" font-size="10.00">src.harness.reference</text>
<text text-anchor="start" x="8" y="-18.5" font-family="Helvetica,sans-Serif" font-size="10.00">_models.geo.utils.PolyWithout</text>
<text text-anchor="middle" x="74.5" y="-7.5" font-family="Helvetica,sans-Serif" font-size="10.00">SmallHoles</text>
</g>
<!-- Node2 -->
<g id="node2" class="node"><title>Node2</title>
<g id="a_node2"><a xlink:href="../../d2/d53/namespacesrc_1_1harness_1_1reference__models_1_1geo_1_1utils.html#a8f01dd6ef9f523df2e9626e1418f36a8" target="_top" xlink:title="src.harness.reference\l_models.geo.utils.GeometryArea">
<polygon fill="white" stroke="black" points="185,-6 185,-36 344,-36 344,-6 185,-6"/>
<text text-anchor="start" x="193" y="-24" font-family="Helvetica,sans-Serif" font-size="10.00">src.harness.reference</text>
<text text-anchor="middle" x="264.5" y="-13" font-family="Helvetica,sans-Serif" font-size="10.00">_models.geo.utils.GeometryArea</text>
</a>
</g>
</g>
<!-- Node1&#45;&gt;Node2 -->
<g id="edge1" class="edge"><title>Node1&#45;&gt;Node2</title>
<path fill="none" stroke="midnightblue" d="M149.263,-21C157.692,-21 166.349,-21 174.945,-21"/>
<polygon fill="midnightblue" stroke="midnightblue" points="174.99,-24.5001 184.99,-21 174.99,-17.5001 174.99,-24.5001"/>
</g>
<!-- Node3 -->
<g id="node3" class="node"><title>Node3</title>
<g id="a_node3"><a xlink:href="../../d2/d53/namespacesrc_1_1harness_1_1reference__models_1_1geo_1_1utils.html#a5e016fa06bcf624bd328904fe396ad5c" target="_top" xlink:title="src.harness.reference\l_models.geo.utils._RingArea">
<polygon fill="white" stroke="black" points="380,-6 380,-36 522,-36 522,-6 380,-6"/>
<text text-anchor="start" x="388" y="-24" font-family="Helvetica,sans-Serif" font-size="10.00">src.harness.reference</text>
<text text-anchor="middle" x="451" y="-13" font-family="Helvetica,sans-Serif" font-size="10.00">_models.geo.utils._RingArea</text>
</a>
</g>
</g>
<!-- Node2&#45;&gt;Node3 -->
<g id="edge2" class="edge"><title>Node2&#45;&gt;Node3</title>
<path fill="none" stroke="midnightblue" d="M344.012,-21C352.449,-21 361.043,-21 369.503,-21"/>
<polygon fill="midnightblue" stroke="midnightblue" points="369.736,-24.5001 379.736,-21 369.736,-17.5001 369.736,-24.5001"/>
</g>
</g>
</svg>
