<?xml version="1.0" encoding="UTF-8" standalone="no"?>
<!DOCTYPE svg PUBLIC "-//W3C//DTD SVG 1.1//EN"
 "http://www.w3.org/Graphics/SVG/1.1/DTD/svg11.dtd">
<!-- Generated by graphviz version 2.38.0 (20140413.2041)
 -->
<!-- Title: src.harness.testcases.helper_unit_testcase.AssertChannelsContainFrequencyRangeTest.test_shouldSucceedWhenMultiSequencialChannel Pages: 1 -->
<svg width="453pt" height="61pt"
 viewBox="0.00 0.00 453.00 61.00" xmlns="http://www.w3.org/2000/svg" xmlns:xlink="http://www.w3.org/1999/xlink">
<g id="graph0" class="graph" transform="scale(1 1) rotate(0) translate(4 57)">
<title>src.harness.testcases.helper_unit_testcase.AssertChannelsContainFrequencyRangeTest.test_shouldSucceedWhenMultiSequencialChannel</title>
<polygon fill="white" stroke="none" points="-4,4 -4,-57 449,-57 449,4 -4,4"/>
<!-- Node1 -->
<g id="node1" class="node"><title>Node1</title>
<polygon fill="#bfbfbf" stroke="black" points="0,-0.5 0,-52.5 227,-52.5 227,-0.5 0,-0.5"/>
<text text-anchor="start" x="8" y="-40.5" font-family="Helvetica,sans-Serif" font-size="10.00">src.harness.testcases.helper</text>
<text text-anchor="start" x="8" y="-29.5" font-family="Helvetica,sans-Serif" font-size="10.00">_unit_testcase.AssertChannelsContain</text>
<text text-anchor="start" x="8" y="-18.5" font-family="Helvetica,sans-Serif" font-size="10.00">FrequencyRangeTest.test_shouldSucceedWhen</text>
<text text-anchor="middle" x="113.5" y="-7.5" font-family="Helvetica,sans-Serif" font-size="10.00">MultiSequencialChannel</text>
</g>
<!-- Node2 -->
<g id="node2" class="node"><title>Node2</title>
<g id="a_node2"><a xlink:href="../../df/dc5/classsrc_1_1harness_1_1sas__testcase_1_1SasTestCase.html#a2c48084a45c1953e0f1b658bec5c66f8" target="_top" xlink:title="src.harness.sas_testcase.\lSasTestCase.assertChannelsContain\lFrequencyRange">
<polygon fill="white" stroke="black" points="263,-6 263,-47 445,-47 445,-6 263,-6"/>
<text text-anchor="start" x="271" y="-35" font-family="Helvetica,sans-Serif" font-size="10.00">src.harness.sas_testcase.</text>
<text text-anchor="start" x="271" y="-24" font-family="Helvetica,sans-Serif" font-size="10.00">SasTestCase.assertChannelsContain</text>
<text text-anchor="middle" x="354" y="-13" font-family="Helvetica,sans-Serif" font-size="10.00">FrequencyRange</text>
</a>
</g>
</g>
<!-- Node1&#45;&gt;Node2 -->
<g id="edge1" class="edge"><title>Node1&#45;&gt;Node2</title>
<path fill="none" stroke="midnightblue" d="M227.115,-26.5C235.604,-26.5 244.138,-26.5 252.544,-26.5"/>
<polygon fill="midnightblue" stroke="midnightblue" points="252.723,-30.0001 262.722,-26.5 252.722,-23.0001 252.723,-30.0001"/>
</g>
</g>
</svg>
