<?xml version="1.0" encoding="UTF-8" standalone="no"?>
<!DOCTYPE svg PUBLIC "-//W3C//DTD SVG 1.1//EN"
 "http://www.w3.org/Graphics/SVG/1.1/DTD/svg11.dtd">
<!-- Generated by graphviz version 2.38.0 (20140413.2041)
 -->
<!-- Title: avar Pages: 1 -->
<svg width="128pt" height="66pt"
 viewBox="0.00 0.00 128.00 66.00" xmlns="http://www.w3.org/2000/svg" xmlns:xlink="http://www.w3.org/1999/xlink">
<g id="graph0" class="graph" transform="scale(1 1) rotate(0) translate(4 62)">
<title>avar</title>
<polygon fill="white" stroke="none" points="-4,4 -4,-62 124,-62 124,4 -4,4"/>
<!-- Node1 -->
<g id="node1" class="node"><title>Node1</title>
<polygon fill="#bfbfbf" stroke="black" points="0,-19.5 0,-38.5 35,-38.5 35,-19.5 0,-19.5"/>
<text text-anchor="middle" x="17.5" y="-26.5" font-family="Helvetica,sans-Serif" font-size="10.00">avar</text>
</g>
<!-- Node2 -->
<g id="node2" class="node"><title>Node2</title>
<g id="a_node2"><a xlink:href="../../d2/d31/itm_8cpp.html#aef74668a97df8c1c4614043e233d38fe" target="_top" xlink:title="mymax">
<polygon fill="white" stroke="black" points="71,-38.5 71,-57.5 120,-57.5 120,-38.5 71,-38.5"/>
<text text-anchor="middle" x="95.5" y="-45.5" font-family="Helvetica,sans-Serif" font-size="10.00">mymax</text>
</a>
</g>
</g>
<!-- Node1&#45;&gt;Node2 -->
<g id="edge1" class="edge"><title>Node1&#45;&gt;Node2</title>
<path fill="none" stroke="midnightblue" d="M35.3669,-33.2167C42.9289,-35.1072 52.1281,-37.407 60.996,-39.624"/>
<polygon fill="midnightblue" stroke="midnightblue" points="60.2122,-43.0357 70.7625,-42.0656 61.91,-36.2447 60.2122,-43.0357"/>
</g>
<!-- Node3 -->
<g id="node3" class="node"><title>Node3</title>
<g id="a_node3"><a xlink:href="../../d2/d31/itm_8cpp.html#acc398b6d1b1334689f775af613edb43f" target="_top" xlink:title="curve">
<polygon fill="white" stroke="black" points="75,-0.5 75,-19.5 116,-19.5 116,-0.5 75,-0.5"/>
<text text-anchor="middle" x="95.5" y="-7.5" font-family="Helvetica,sans-Serif" font-size="10.00">curve</text>
</a>
</g>
</g>
<!-- Node1&#45;&gt;Node3 -->
<g id="edge2" class="edge"><title>Node1&#45;&gt;Node3</title>
<path fill="none" stroke="midnightblue" d="M35.3669,-24.7833C44.1568,-22.5858 55.1587,-19.8353 65.2812,-17.3047"/>
<polygon fill="midnightblue" stroke="midnightblue" points="66.1435,-20.6969 74.996,-14.876 64.4456,-13.9059 66.1435,-20.6969"/>
</g>
</g>
</svg>
