<?xml version="1.0" encoding="UTF-8" standalone="no"?>
<!DOCTYPE svg PUBLIC "-//W3C//DTD SVG 1.1//EN"
 "http://www.w3.org/Graphics/SVG/1.1/DTD/svg11.dtd">
<!-- Generated by graphviz version 2.38.0 (20140413.2041)
 -->
<!-- Title: qtile Pages: 1 -->
<svg width="484pt" height="142pt"
 viewBox="0.00 0.00 484.00 142.00" xmlns="http://www.w3.org/2000/svg" xmlns:xlink="http://www.w3.org/1999/xlink">
<g id="graph0" class="graph" transform="scale(1 1) rotate(0) translate(4 138)">
<title>qtile</title>
<polygon fill="white" stroke="none" points="-4,4 -4,-138 480,-138 480,4 -4,4"/>
<!-- Node1 -->
<g id="node1" class="node"><title>Node1</title>
<polygon fill="#bfbfbf" stroke="black" points="0,-57.5 0,-76.5 35,-76.5 35,-57.5 0,-57.5"/>
<text text-anchor="middle" x="17.5" y="-64.5" font-family="Helvetica,sans-Serif" font-size="10.00">qtile</text>
</g>
<!-- Node2 -->
<g id="node2" class="node"><title>Node2</title>
<g id="a_node2"><a xlink:href="../../d2/d31/itm_8cpp.html#a45e678693240356cd41b59d8edb5bb12" target="_top" xlink:title="d1thx">
<polygon fill="white" stroke="black" points="71,-57.5 71,-76.5 112,-76.5 112,-57.5 71,-57.5"/>
<text text-anchor="middle" x="91.5" y="-64.5" font-family="Helvetica,sans-Serif" font-size="10.00">d1thx</text>
</a>
</g>
</g>
<!-- Node1&#45;&gt;Node2 -->
<g id="edge1" class="edge"><title>Node1&#45;&gt;Node2</title>
<path fill="none" stroke="midnightblue" d="M45.3613,-67C53.8084,-67 62.9742,-67 70.8257,-67"/>
<polygon fill="midnightblue" stroke="midnightblue" points="45.1993,-63.5001 35.1992,-67 45.1992,-70.5001 45.1993,-63.5001"/>
</g>
<!-- Node3 -->
<g id="node3" class="node"><title>Node3</title>
<g id="a_node3"><a xlink:href="../../d2/d31/itm_8cpp.html#ae682440b4eaee05406c08f8ae48e60d8" target="_top" xlink:title="qlrpfl">
<polygon fill="white" stroke="black" points="148,-57.5 148,-76.5 186,-76.5 186,-57.5 148,-57.5"/>
<text text-anchor="middle" x="167" y="-64.5" font-family="Helvetica,sans-Serif" font-size="10.00">qlrpfl</text>
</a>
</g>
</g>
<!-- Node2&#45;&gt;Node3 -->
<g id="edge2" class="edge"><title>Node2&#45;&gt;Node3</title>
<path fill="none" stroke="midnightblue" d="M122.314,-67C130.932,-67 140.079,-67 147.764,-67"/>
<polygon fill="midnightblue" stroke="midnightblue" points="122.197,-63.5001 112.197,-67 122.197,-70.5001 122.197,-63.5001"/>
</g>
<!-- Node4 -->
<g id="node4" class="node"><title>Node4</title>
<g id="a_node4"><a xlink:href="../../d3/d37/itm_8h.html#aad6a3ed1b693ddfc2884c909e39d3989" target="_top" xlink:title="point_to_point">
<polygon fill="white" stroke="black" points="234,-114.5 234,-133.5 311,-133.5 311,-114.5 234,-114.5"/>
<text text-anchor="middle" x="272.5" y="-121.5" font-family="Helvetica,sans-Serif" font-size="10.00">point_to_point</text>
</a>
</g>
</g>
<!-- Node3&#45;&gt;Node4 -->
<g id="edge3" class="edge"><title>Node3&#45;&gt;Node4</title>
<path fill="none" stroke="midnightblue" d="M187.862,-82.756C197.75,-90.1283 210.108,-98.6592 222,-105 228.579,-108.508 235.951,-111.698 242.954,-114.421"/>
<polygon fill="midnightblue" stroke="midnightblue" points="189.954,-79.9494 179.883,-76.6598 185.704,-85.5119 189.954,-79.9494"/>
</g>
<!-- Node5 -->
<g id="node5" class="node"><title>Node5</title>
<g id="a_node5"><a xlink:href="../../d3/d37/itm_8h.html#acca1a0cc60cc78b1f95772c7dc981182" target="_top" xlink:title="point_to_point_rels">
<polygon fill="white" stroke="black" points="223.5,-76.5 223.5,-95.5 321.5,-95.5 321.5,-76.5 223.5,-76.5"/>
<text text-anchor="middle" x="272.5" y="-83.5" font-family="Helvetica,sans-Serif" font-size="10.00">point_to_point_rels</text>
</a>
</g>
</g>
<!-- Node3&#45;&gt;Node5 -->
<g id="edge4" class="edge"><title>Node3&#45;&gt;Node5</title>
<path fill="none" stroke="midnightblue" d="M196.075,-72.1539C204.534,-73.7068 214.07,-75.4572 223.443,-77.1779"/>
<polygon fill="midnightblue" stroke="midnightblue" points="196.496,-68.6727 186.028,-70.3095 195.232,-75.5577 196.496,-68.6727"/>
</g>
<!-- Node7 -->
<g id="node7" class="node"><title>Node7</title>
<g id="a_node7"><a xlink:href="../../d3/d37/itm_8h.html#a606b3a527141eef67be36272940cb1ee" target="_top" xlink:title="point_to_pointMDH">
<polygon fill="white" stroke="black" points="222,-38.5 222,-57.5 323,-57.5 323,-38.5 222,-38.5"/>
<text text-anchor="middle" x="272.5" y="-45.5" font-family="Helvetica,sans-Serif" font-size="10.00">point_to_pointMDH</text>
</a>
</g>
</g>
<!-- Node3&#45;&gt;Node7 -->
<g id="edge6" class="edge"><title>Node3&#45;&gt;Node7</title>
<path fill="none" stroke="midnightblue" d="M195.868,-61.8841C203.845,-60.4197 212.792,-58.7773 221.664,-57.1487"/>
<polygon fill="midnightblue" stroke="midnightblue" points="195.232,-58.4423 186.028,-63.6905 196.496,-65.3273 195.232,-58.4423"/>
</g>
<!-- Node8 -->
<g id="node8" class="node"><title>Node8</title>
<g id="a_node8"><a xlink:href="../../d3/d37/itm_8h.html#a3d6220d50384cf3904089e8320ff6617" target="_top" xlink:title="point_to_pointDH">
<polygon fill="white" stroke="black" points="226.5,-0.5 226.5,-19.5 318.5,-19.5 318.5,-0.5 226.5,-0.5"/>
<text text-anchor="middle" x="272.5" y="-7.5" font-family="Helvetica,sans-Serif" font-size="10.00">point_to_pointDH</text>
</a>
</g>
</g>
<!-- Node3&#45;&gt;Node8 -->
<g id="edge7" class="edge"><title>Node3&#45;&gt;Node8</title>
<path fill="none" stroke="midnightblue" d="M187.862,-51.244C197.75,-43.8717 210.108,-35.3408 222,-29 228.579,-25.4919 235.951,-22.3017 242.954,-19.5793"/>
<polygon fill="midnightblue" stroke="midnightblue" points="185.704,-48.4881 179.883,-57.3402 189.954,-54.0506 185.704,-48.4881"/>
</g>
<!-- Node6 -->
<g id="node6" class="node"><title>Node6</title>
<g id="a_node6"><a xlink:href="../../d3/dcc/itm__its__py_8cpp.html#ab9bd9d469dbd1234f77f39093f765453" target="_top" xlink:title="itm_point_to_point_rels">
<polygon fill="white" stroke="black" points="359,-76.5 359,-95.5 476,-95.5 476,-76.5 359,-76.5"/>
<text text-anchor="middle" x="417.5" y="-83.5" font-family="Helvetica,sans-Serif" font-size="10.00">itm_point_to_point_rels</text>
</a>
</g>
</g>
<!-- Node5&#45;&gt;Node6 -->
<g id="edge5" class="edge"><title>Node5&#45;&gt;Node6</title>
<path fill="none" stroke="midnightblue" d="M331.556,-86C340.591,-86 349.922,-86 358.945,-86"/>
<polygon fill="midnightblue" stroke="midnightblue" points="331.515,-82.5001 321.515,-86 331.515,-89.5001 331.515,-82.5001"/>
</g>
</g>
</svg>
