<?xml version="1.0" encoding="UTF-8" standalone="no"?>
<!DOCTYPE svg PUBLIC "-//W3C//DTD SVG 1.1//EN"
 "http://www.w3.org/Graphics/SVG/1.1/DTD/svg11.dtd">
<!-- Generated by graphviz version 2.38.0 (20140413.2041)
 -->
<!-- Title: mymax Pages: 1 -->
<!--zoomable 314 -->
<svg id="main" version="1.1" xmlns="http://www.w3.org/2000/svg" xmlns:xlink="http://www.w3.org/1999/xlink" xml:space="preserve" onload="init(evt)">
<style type="text/css"><![CDATA[
.edge:hover path { stroke: red; }
.edge:hover polygon { stroke: red; fill: red; }
]]></style>
<script type="text/javascript"><![CDATA[
var edges = document.getElementsByTagName('g');
if (edges && edges.length) {
  for (var i=0;i<edges.length;i++) {
    if (edges[i].id.substr(0,4)=='edge') {
      edges[i].setAttribute('class','edge');
    }
  }
}
]]></script>
        <defs>
                <circle id="rim" cx="0" cy="0" r="7"/>
                <circle id="rim2" cx="0" cy="0" r="3.5"/>
                <g id="zoomPlus">
                        <use xlink:href="#rim" fill="#404040">
                                <set attributeName="fill" to="#808080" begin="zoomplus.mouseover" end="zoomplus.mouseout"/>
                        </use>
                        <path d="M-4,0h8M0,-4v8" fill="none" stroke="white" stroke-width="1.5" pointer-events="none"/>
                </g>
                <g id="zoomMin">
                        <use xlink:href="#rim" fill="#404040">
                                <set attributeName="fill" to="#808080" begin="zoomminus.mouseover" end="zoomminus.mouseout"/>
                        </use>
                        <path d="M-4,0h8" fill="none" stroke="white" stroke-width="1.5" pointer-events="none"/>
                </g>
                <g id="dirArrow">
                        <path fill="none" stroke="white" stroke-width="1.5" d="M0,-3.0v7 M-2.5,-0.5L0,-3.0L2.5,-0.5"/>
                </g>
               <g id="resetDef">
                       <use xlink:href="#rim2" fill="#404040">
                               <set attributeName="fill" to="#808080" begin="reset.mouseover" end="reset.mouseout"/>
                       </use>
               </g>
        </defs>

<script type="text/javascript">
var viewWidth = 575;
var viewHeight = 314;
var sectionId = 'dynsection-23';
</script>
<script xlink:href="../../svgpan.js"/>
<svg id="graph" class="graph">
<g id="viewport">
<title>mymax</title>
<polygon fill="white" stroke="none" points="-4,4 -4,-310.324 571,-310.324 571,4 -4,4"/>
<!-- Node1 -->
<g id="node1" class="node"><title>Node1</title>
<polygon fill="#bfbfbf" stroke="black" points="0,-152.5 0,-171.5 49,-171.5 49,-152.5 0,-152.5"/>
<text text-anchor="middle" x="24.5" y="-159.5" font-family="Helvetica,sans-Serif" font-size="10.00">mymax</text>
</g>
<!-- Node2 -->
<g id="node2" class="node"><title>Node2</title>
<g id="a_node2"><a xlink:href="../../d2/d31/itm_8cpp.html#a74cbbcd996594f97dd6088dbbaff27c7" target="_top" xlink:title="ascat">
<polygon fill="white" stroke="black" points="85,-76.5 85,-95.5 126,-95.5 126,-76.5 85,-76.5"/>
<text text-anchor="middle" x="105.5" y="-83.5" font-family="Helvetica,sans-Serif" font-size="10.00">ascat</text>
</a>
</g>
</g>
<!-- Node1&#45;&gt;Node2 -->
<g id="edge1" class="edge"><title>Node1&#45;&gt;Node2</title>
<path fill="none" stroke="midnightblue" d="M43.0781,-145.089C58.9305,-129.839 81.6767,-107.957 94.5758,-95.5473"/>
<polygon fill="midnightblue" stroke="midnightblue" points="40.2855,-142.919 35.5054,-152.375 45.1385,-147.964 40.2855,-142.919"/>
</g>
<!-- Node3 -->
<g id="node3" class="node"><title>Node3</title>
<g id="a_node3"><a xlink:href="../../d2/d31/itm_8cpp.html#a32289828f24201e9dde6140e27708d73" target="_top" xlink:title="lrprop">
<polygon fill="white" stroke="black" points="162,-114.5 162,-133.5 203,-133.5 203,-114.5 162,-114.5"/>
<text text-anchor="middle" x="182.5" y="-121.5" font-family="Helvetica,sans-Serif" font-size="10.00">lrprop</text>
</a>
</g>
</g>
<!-- Node1&#45;&gt;Node3 -->
<g id="edge21" class="edge"><title>Node1&#45;&gt;Node3</title>
<path fill="none" stroke="midnightblue" d="M58.6812,-150.663C67.2029,-147.956 76.395,-145.213 85,-143 111.294,-136.237 142.151,-130.546 161.761,-127.203"/>
<polygon fill="midnightblue" stroke="midnightblue" points="57.489,-147.37 49.0606,-153.79 59.6528,-154.027 57.489,-147.37"/>
</g>
<!-- Node4 -->
<g id="node4" class="node"><title>Node4</title>
<g id="a_node4"><a xlink:href="../../d2/d31/itm_8cpp.html#ae682440b4eaee05406c08f8ae48e60d8" target="_top" xlink:title="qlrpfl">
<polygon fill="white" stroke="black" points="239,-228.5 239,-247.5 277,-247.5 277,-228.5 239,-228.5"/>
<text text-anchor="middle" x="258" y="-235.5" font-family="Helvetica,sans-Serif" font-size="10.00">qlrpfl</text>
</a>
</g>
</g>
<!-- Node1&#45;&gt;Node4 -->
<g id="edge32" class="edge"><title>Node1&#45;&gt;Node4</title>
<path fill="none" stroke="midnightblue" d="M27.7374,-181.86C32.3591,-212.334 46.0378,-269.747 85,-295 139.38,-330.246 217.616,-271.859 246.103,-247.707"/>
<polygon fill="midnightblue" stroke="midnightblue" points="31.1638,-181.074 26.3757,-171.622 24.2249,-181.997 31.1638,-181.074"/>
</g>
<!-- Node12 -->
<g id="node12" class="node"><title>Node12</title>
<g id="a_node12"><a xlink:href="../../d2/d31/itm_8cpp.html#ad0a12435e029210dab38fce002347a31" target="_top" xlink:title="qerfi">
<polygon fill="white" stroke="black" points="240.5,-152.5 240.5,-171.5 275.5,-171.5 275.5,-152.5 240.5,-152.5"/>
<text text-anchor="middle" x="258" y="-159.5" font-family="Helvetica,sans-Serif" font-size="10.00">qerfi</text>
</a>
</g>
</g>
<!-- Node1&#45;&gt;Node12 -->
<g id="edge11" class="edge"><title>Node1&#45;&gt;Node12</title>
<path fill="none" stroke="midnightblue" d="M31.2035,-142.838C39.1324,-120.061 55.8979,-83.1118 85,-67 100.942,-58.174 108.254,-62.8596 126,-67 163.165,-75.6712 172.286,-82.3495 203,-105 221.87,-118.916 239.76,-139.863 249.468,-152.111"/>
<polygon fill="midnightblue" stroke="midnightblue" points="27.8405,-141.862 28.0874,-152.454 34.4996,-144.02 27.8405,-141.862"/>
</g>
<!-- Node13 -->
<g id="node13" class="node"><title>Node13</title>
<g id="a_node13"><a xlink:href="../../d2/d31/itm_8cpp.html#a404799cf89ce54ce7b92e13ad355ad85" target="_top" xlink:title="alos">
<polygon fill="white" stroke="black" points="88,-152.5 88,-171.5 123,-171.5 123,-152.5 88,-152.5"/>
<text text-anchor="middle" x="105.5" y="-159.5" font-family="Helvetica,sans-Serif" font-size="10.00">alos</text>
</a>
</g>
</g>
<!-- Node1&#45;&gt;Node13 -->
<g id="edge17" class="edge"><title>Node1&#45;&gt;Node13</title>
<path fill="none" stroke="midnightblue" d="M59.4623,-162C69.1881,-162 79.371,-162 87.5889,-162"/>
<polygon fill="midnightblue" stroke="midnightblue" points="59.2026,-158.5 49.2026,-162 59.2026,-165.5 59.2026,-158.5"/>
</g>
<!-- Node14 -->
<g id="node14" class="node"><title>Node14</title>
<g id="a_node14"><a xlink:href="../../d2/d31/itm_8cpp.html#ae3afa2621c52a60ad6ad9cbeb815bea0" target="_top" xlink:title="qlra">
<polygon fill="white" stroke="black" points="166.5,-0.5 166.5,-19.5 198.5,-19.5 198.5,-0.5 166.5,-0.5"/>
<text text-anchor="middle" x="182.5" y="-7.5" font-family="Helvetica,sans-Serif" font-size="10.00">qlra</text>
</a>
</g>
</g>
<!-- Node1&#45;&gt;Node14 -->
<g id="edge19" class="edge"><title>Node1&#45;&gt;Node14</title>
<path fill="none" stroke="midnightblue" d="M29.1115,-142.32C35.3637,-114.001 50.9543,-62.0828 85,-34 108.573,-14.5561 145.68,-10.5264 166.337,-9.89104"/>
<polygon fill="midnightblue" stroke="midnightblue" points="25.6574,-141.742 27.094,-152.239 32.517,-143.138 25.6574,-141.742"/>
</g>
<!-- Node15 -->
<g id="node15" class="node"><title>Node15</title>
<g id="a_node15"><a xlink:href="../../d2/d31/itm_8cpp.html#af10b92806af5d5946a8332763321e2df" target="_top" xlink:title="avar">
<polygon fill="white" stroke="black" points="240.5,-190.5 240.5,-209.5 275.5,-209.5 275.5,-190.5 240.5,-190.5"/>
<text text-anchor="middle" x="258" y="-197.5" font-family="Helvetica,sans-Serif" font-size="10.00">avar</text>
</a>
</g>
</g>
<!-- Node1&#45;&gt;Node15 -->
<g id="edge22" class="edge"><title>Node1&#45;&gt;Node15</title>
<path fill="none" stroke="midnightblue" d="M58.7868,-173.914C67.2482,-176.586 76.3855,-179.168 85,-181 141.126,-192.937 209.246,-197.638 240.22,-199.256"/>
<polygon fill="midnightblue" stroke="midnightblue" points="59.8292,-170.573 49.2363,-170.776 57.6441,-177.223 59.8292,-170.573"/>
</g>
<!-- Node16 -->
<g id="node16" class="node"><title>Node16</title>
<g id="a_node16"><a xlink:href="../../d2/d31/itm_8cpp.html#a8ab54b7902d55b592e2d76dafdb93069" target="_top" xlink:title="qtile">
<polygon fill="white" stroke="black" points="88,-266.5 88,-285.5 123,-285.5 123,-266.5 88,-266.5"/>
<text text-anchor="middle" x="105.5" y="-273.5" font-family="Helvetica,sans-Serif" font-size="10.00">qtile</text>
</a>
</g>
</g>
<!-- Node1&#45;&gt;Node16 -->
<g id="edge28" class="edge"><title>Node1&#45;&gt;Node16</title>
<path fill="none" stroke="midnightblue" d="M36.824,-180.252C48.4349,-198.69 67.2551,-227.827 85,-252 88.5581,-256.847 92.7353,-262.047 96.3088,-266.363"/>
<polygon fill="midnightblue" stroke="midnightblue" points="39.7245,-178.289 31.4533,-171.668 33.7903,-182.002 39.7245,-178.289"/>
</g>
<!-- Node17 -->
<g id="node17" class="node"><title>Node17</title>
<g id="a_node17"><a xlink:href="../../d2/d31/itm_8cpp.html#a45e678693240356cd41b59d8edb5bb12" target="_top" xlink:title="d1thx">
<polygon fill="white" stroke="black" points="162,-228.5 162,-247.5 203,-247.5 203,-228.5 162,-228.5"/>
<text text-anchor="middle" x="182.5" y="-235.5" font-family="Helvetica,sans-Serif" font-size="10.00">d1thx</text>
</a>
</g>
</g>
<!-- Node1&#45;&gt;Node17 -->
<g id="edge31" class="edge"><title>Node1&#45;&gt;Node17</title>
<path fill="none" stroke="midnightblue" d="M40.6505,-178.943C51.8322,-190.448 68.0033,-205.13 85,-214 109.641,-226.86 141.456,-233.037 161.676,-235.851"/>
<polygon fill="midnightblue" stroke="midnightblue" points="43.1522,-176.494 33.7576,-171.596 38.0471,-181.283 43.1522,-176.494"/>
</g>
<!-- Node2&#45;&gt;Node3 -->
<g id="edge2" class="edge"><title>Node2&#45;&gt;Node3</title>
<path fill="none" stroke="midnightblue" d="M134.429,-100.151C143.813,-104.905 154.054,-110.094 162.58,-114.414"/>
<polygon fill="midnightblue" stroke="midnightblue" points="135.928,-96.9866 125.426,-95.589 132.764,-103.231 135.928,-96.9866"/>
</g>
<!-- Node3&#45;&gt;Node4 -->
<g id="edge3" class="edge"><title>Node3&#45;&gt;Node4</title>
<path fill="none" stroke="midnightblue" d="M192.821,-142.77C203.001,-162.526 220.358,-194.147 239,-219 241.399,-222.199 244.276,-225.443 247.018,-228.325"/>
<polygon fill="midnightblue" stroke="midnightblue" points="195.826,-140.956 188.183,-133.619 189.582,-144.121 195.826,-140.956"/>
</g>
<!-- Node10 -->
<g id="node10" class="node"><title>Node10</title>
<g id="a_node10"><a xlink:href="../../d2/d31/itm_8cpp.html#aac99abe6fa8a284a3e964aa7f45a8deb" target="_top" xlink:title="area">
<polygon fill="white" stroke="black" points="346,-114.5 346,-133.5 381,-133.5 381,-114.5 346,-114.5"/>
<text text-anchor="middle" x="363.5" y="-121.5" font-family="Helvetica,sans-Serif" font-size="10.00">area</text>
</a>
</g>
</g>
<!-- Node3&#45;&gt;Node10 -->
<g id="edge9" class="edge"><title>Node3&#45;&gt;Node10</title>
<path fill="none" stroke="midnightblue" d="M213.807,-124C251.906,-124 315.95,-124 345.997,-124"/>
<polygon fill="midnightblue" stroke="midnightblue" points="213.34,-120.5 203.34,-124 213.34,-127.5 213.34,-120.5"/>
</g>
<!-- Node5 -->
<g id="node5" class="node"><title>Node5</title>
<g id="a_node5"><a xlink:href="../../d3/d37/itm_8h.html#aad6a3ed1b693ddfc2884c909e39d3989" target="_top" xlink:title="point_to_point">
<polygon fill="white" stroke="black" points="325,-266.5 325,-285.5 402,-285.5 402,-266.5 325,-266.5"/>
<text text-anchor="middle" x="363.5" y="-273.5" font-family="Helvetica,sans-Serif" font-size="10.00">point_to_point</text>
</a>
</g>
</g>
<!-- Node4&#45;&gt;Node5 -->
<g id="edge4" class="edge"><title>Node4&#45;&gt;Node5</title>
<path fill="none" stroke="midnightblue" d="M286.594,-248.131C302.089,-253.82 321.31,-260.877 336.533,-266.466"/>
<polygon fill="midnightblue" stroke="midnightblue" points="287.622,-244.78 277.028,-244.619 285.209,-251.351 287.622,-244.78"/>
</g>
<!-- Node6 -->
<g id="node6" class="node"><title>Node6</title>
<g id="a_node6"><a xlink:href="../../d3/d37/itm_8h.html#acca1a0cc60cc78b1f95772c7dc981182" target="_top" xlink:title="point_to_point_rels">
<polygon fill="white" stroke="black" points="314.5,-228.5 314.5,-247.5 412.5,-247.5 412.5,-228.5 314.5,-228.5"/>
<text text-anchor="middle" x="363.5" y="-235.5" font-family="Helvetica,sans-Serif" font-size="10.00">point_to_point_rels</text>
</a>
</g>
</g>
<!-- Node4&#45;&gt;Node6 -->
<g id="edge5" class="edge"><title>Node4&#45;&gt;Node6</title>
<path fill="none" stroke="midnightblue" d="M287.075,-238C295.534,-238 305.07,-238 314.443,-238"/>
<polygon fill="midnightblue" stroke="midnightblue" points="287.028,-234.5 277.028,-238 287.028,-241.5 287.028,-234.5"/>
</g>
<!-- Node8 -->
<g id="node8" class="node"><title>Node8</title>
<g id="a_node8"><a xlink:href="../../d3/d37/itm_8h.html#a606b3a527141eef67be36272940cb1ee" target="_top" xlink:title="point_to_pointMDH">
<polygon fill="white" stroke="black" points="313,-190.5 313,-209.5 414,-209.5 414,-190.5 313,-190.5"/>
<text text-anchor="middle" x="363.5" y="-197.5" font-family="Helvetica,sans-Serif" font-size="10.00">point_to_pointMDH</text>
</a>
</g>
</g>
<!-- Node4&#45;&gt;Node8 -->
<g id="edge7" class="edge"><title>Node4&#45;&gt;Node8</title>
<path fill="none" stroke="midnightblue" d="M286.594,-227.869C302.089,-222.18 321.31,-215.123 336.533,-209.534"/>
<polygon fill="midnightblue" stroke="midnightblue" points="285.209,-224.649 277.028,-231.381 287.622,-231.22 285.209,-224.649"/>
</g>
<!-- Node9 -->
<g id="node9" class="node"><title>Node9</title>
<g id="a_node9"><a xlink:href="../../d3/d37/itm_8h.html#a3d6220d50384cf3904089e8320ff6617" target="_top" xlink:title="point_to_pointDH">
<polygon fill="white" stroke="black" points="317.5,-152.5 317.5,-171.5 409.5,-171.5 409.5,-152.5 317.5,-152.5"/>
<text text-anchor="middle" x="363.5" y="-159.5" font-family="Helvetica,sans-Serif" font-size="10.00">point_to_pointDH</text>
</a>
</g>
</g>
<!-- Node4&#45;&gt;Node9 -->
<g id="edge8" class="edge"><title>Node4&#45;&gt;Node9</title>
<path fill="none" stroke="midnightblue" d="M275.314,-220.758C291.158,-204.015 312.856,-181.096 313,-181 318.586,-177.264 325.011,-174.114 331.343,-171.52"/>
<polygon fill="midnightblue" stroke="midnightblue" points="272.457,-218.684 268.126,-228.354 277.541,-223.496 272.457,-218.684"/>
</g>
<!-- Node7 -->
<g id="node7" class="node"><title>Node7</title>
<g id="a_node7"><a xlink:href="../../d3/dcc/itm__its__py_8cpp.html#ab9bd9d469dbd1234f77f39093f765453" target="_top" xlink:title="itm_point_to_point_rels">
<polygon fill="white" stroke="black" points="450,-228.5 450,-247.5 567,-247.5 567,-228.5 450,-228.5"/>
<text text-anchor="middle" x="508.5" y="-235.5" font-family="Helvetica,sans-Serif" font-size="10.00">itm_point_to_point_rels</text>
</a>
</g>
</g>
<!-- Node6&#45;&gt;Node7 -->
<g id="edge6" class="edge"><title>Node6&#45;&gt;Node7</title>
<path fill="none" stroke="midnightblue" d="M422.556,-238C431.591,-238 440.922,-238 449.945,-238"/>
<polygon fill="midnightblue" stroke="midnightblue" points="422.515,-234.5 412.515,-238 422.515,-241.5 422.515,-234.5"/>
</g>
<!-- Node11 -->
<g id="node11" class="node"><title>Node11</title>
<g id="a_node11"><a xlink:href="../../d3/d37/itm_8h.html#a5e3421c4e7d0133df57f985ed4eacbfd" target="_top" xlink:title="ITMAreadBLoss">
<polygon fill="white" stroke="black" points="465,-114.5 465,-133.5 552,-133.5 552,-114.5 465,-114.5"/>
<text text-anchor="middle" x="508.5" y="-121.5" font-family="Helvetica,sans-Serif" font-size="10.00">ITMAreadBLoss</text>
</a>
</g>
</g>
<!-- Node10&#45;&gt;Node11 -->
<g id="edge10" class="edge"><title>Node10&#45;&gt;Node11</title>
<path fill="none" stroke="midnightblue" d="M391.184,-124C411.913,-124 441.062,-124 464.994,-124"/>
<polygon fill="midnightblue" stroke="midnightblue" points="391.184,-120.5 381.184,-124 391.184,-127.5 391.184,-120.5"/>
</g>
<!-- Node12&#45;&gt;Node5 -->
<g id="edge12" class="edge"><title>Node12&#45;&gt;Node5</title>
<path fill="none" stroke="midnightblue" d="M275.673,-179.149C276.133,-179.764 276.576,-180.381 277,-181 298.115,-211.84 285.588,-231.593 313,-257 317.186,-260.88 322.247,-263.994 327.515,-266.487"/>
<polygon fill="midnightblue" stroke="midnightblue" points="278.325,-176.865 269.163,-171.545 273.008,-181.418 278.325,-176.865"/>
</g>
<!-- Node12&#45;&gt;Node6 -->
<g id="edge13" class="edge"><title>Node12&#45;&gt;Node6</title>
<path fill="none" stroke="midnightblue" d="M275.314,-179.242C291.158,-195.985 312.856,-218.904 313,-219 318.586,-222.736 325.011,-225.886 331.343,-228.48"/>
<polygon fill="midnightblue" stroke="midnightblue" points="277.541,-176.504 268.126,-171.646 272.457,-181.316 277.541,-176.504"/>
</g>
<!-- Node12&#45;&gt;Node8 -->
<g id="edge14" class="edge"><title>Node12&#45;&gt;Node8</title>
<path fill="none" stroke="midnightblue" d="M285.281,-171.649C301.02,-177.428 320.948,-184.744 336.616,-190.497"/>
<polygon fill="midnightblue" stroke="midnightblue" points="286.223,-168.266 275.629,-168.105 283.81,-174.838 286.223,-168.266"/>
</g>
<!-- Node12&#45;&gt;Node9 -->
<g id="edge15" class="edge"><title>Node12&#45;&gt;Node9</title>
<path fill="none" stroke="midnightblue" d="M285.76,-162C295.395,-162 306.552,-162 317.322,-162"/>
<polygon fill="midnightblue" stroke="midnightblue" points="285.629,-158.5 275.629,-162 285.629,-165.5 285.629,-158.5"/>
</g>
<!-- Node12&#45;&gt;Node10 -->
<g id="edge16" class="edge"><title>Node12&#45;&gt;Node10</title>
<path fill="none" stroke="midnightblue" d="M285.229,-152.37C304.306,-145.366 329.555,-136.096 345.912,-130.09"/>
<polygon fill="midnightblue" stroke="midnightblue" points="283.81,-149.162 275.629,-155.895 286.223,-155.734 283.81,-149.162"/>
</g>
<!-- Node13&#45;&gt;Node3 -->
<g id="edge18" class="edge"><title>Node13&#45;&gt;Node3</title>
<path fill="none" stroke="midnightblue" d="M132.199,-148.979C142.146,-143.939 153.327,-138.274 162.523,-133.615"/>
<polygon fill="midnightblue" stroke="midnightblue" points="130.483,-145.925 123.145,-153.567 133.647,-152.169 130.483,-145.925"/>
</g>
<!-- Node14&#45;&gt;Node10 -->
<g id="edge20" class="edge"><title>Node14&#45;&gt;Node10</title>
<path fill="none" stroke="midnightblue" d="M207.157,-25.0667C244.466,-48.8273 315.934,-94.3437 347.21,-114.262"/>
<polygon fill="midnightblue" stroke="midnightblue" points="208.768,-21.9432 198.454,-19.5235 205.008,-27.8475 208.768,-21.9432"/>
</g>
<!-- Node15&#45;&gt;Node5 -->
<g id="edge23" class="edge"><title>Node15&#45;&gt;Node5</title>
<path fill="none" stroke="midnightblue" d="M275.314,-217.242C291.158,-233.985 312.856,-256.904 313,-257 318.586,-260.736 325.011,-263.886 331.343,-266.48"/>
<polygon fill="midnightblue" stroke="midnightblue" points="277.541,-214.504 268.126,-209.646 272.457,-219.316 277.541,-214.504"/>
</g>
<!-- Node15&#45;&gt;Node6 -->
<g id="edge24" class="edge"><title>Node15&#45;&gt;Node6</title>
<path fill="none" stroke="midnightblue" d="M285.281,-209.649C301.02,-215.428 320.948,-222.744 336.616,-228.497"/>
<polygon fill="midnightblue" stroke="midnightblue" points="286.223,-206.266 275.629,-206.105 283.81,-212.838 286.223,-206.266"/>
</g>
<!-- Node15&#45;&gt;Node8 -->
<g id="edge25" class="edge"><title>Node15&#45;&gt;Node8</title>
<path fill="none" stroke="midnightblue" d="M285.779,-200C294.07,-200 303.486,-200 312.813,-200"/>
<polygon fill="midnightblue" stroke="midnightblue" points="285.629,-196.5 275.629,-200 285.629,-203.5 285.629,-196.5"/>
</g>
<!-- Node15&#45;&gt;Node9 -->
<g id="edge26" class="edge"><title>Node15&#45;&gt;Node9</title>
<path fill="none" stroke="midnightblue" d="M285.281,-190.351C301.02,-184.572 320.948,-177.256 336.616,-171.503"/>
<polygon fill="midnightblue" stroke="midnightblue" points="283.81,-187.162 275.629,-193.895 286.223,-193.734 283.81,-187.162"/>
</g>
<!-- Node15&#45;&gt;Node10 -->
<g id="edge27" class="edge"><title>Node15&#45;&gt;Node10</title>
<path fill="none" stroke="midnightblue" d="M275.314,-182.758C291.158,-166.015 312.856,-143.096 313,-143 322.947,-136.348 335.556,-131.552 345.559,-128.443"/>
<polygon fill="midnightblue" stroke="midnightblue" points="272.457,-180.684 268.126,-190.354 277.541,-185.496 272.457,-180.684"/>
</g>
<!-- Node16&#45;&gt;Node17 -->
<g id="edge29" class="edge"><title>Node16&#45;&gt;Node17</title>
<path fill="none" stroke="midnightblue" d="M132.199,-262.979C142.146,-257.939 153.327,-252.274 162.523,-247.615"/>
<polygon fill="midnightblue" stroke="midnightblue" points="130.483,-259.925 123.145,-267.567 133.647,-266.169 130.483,-259.925"/>
</g>
<!-- Node17&#45;&gt;Node4 -->
<g id="edge30" class="edge"><title>Node17&#45;&gt;Node4</title>
<path fill="none" stroke="midnightblue" d="M213.314,-238C221.932,-238 231.079,-238 238.764,-238"/>
<polygon fill="midnightblue" stroke="midnightblue" points="213.197,-234.5 203.197,-238 213.197,-241.5 213.197,-234.5"/>
</g>
</g>
</svg>
        <g id="navigator" transform="translate(0 0)" fill="#404254">
                <rect fill="#f2f5e9" fill-opacity="0.5" stroke="#606060" stroke-width=".5" x="0" y="0" width="60" height="60"/>
                <use id="zoomplus" xlink:href="#zoomPlus" x="17" y="9" onmousedown="handleZoom(evt,'in')"/>
                <use id="zoomminus" xlink:href="#zoomMin" x="42" y="9" onmousedown="handleZoom(evt,'out')"/>
                <use id="reset" xlink:href="#resetDef" x="30" y="36" onmousedown="handleReset()"/>
                <g id="arrowUp" xlink:href="#dirArrow" transform="translate(30 24)" onmousedown="handlePan(0,-1)">
                  <use xlink:href="#rim" fill="#404040">
                        <set attributeName="fill" to="#808080" begin="arrowUp.mouseover" end="arrowUp.mouseout"/>
                  </use>
                  <path fill="none" stroke="white" stroke-width="1.5" d="M0,-3.0v7 M-2.5,-0.5L0,-3.0L2.5,-0.5"/>
                </g>
                <g id="arrowRight" xlink:href="#dirArrow" transform="rotate(90) translate(36 -43)" onmousedown="handlePan(1,0)">
                  <use xlink:href="#rim" fill="#404040">
                        <set attributeName="fill" to="#808080" begin="arrowRight.mouseover" end="arrowRight.mouseout"/>
                  </use>
                  <path fill="none" stroke="white" stroke-width="1.5" d="M0,-3.0v7 M-2.5,-0.5L0,-3.0L2.5,-0.5"/>
                </g>
                <g id="arrowDown" xlink:href="#dirArrow" transform="rotate(180) translate(-30 -48)" onmousedown="handlePan(0,1)">
                  <use xlink:href="#rim" fill="#404040">
                        <set attributeName="fill" to="#808080" begin="arrowDown.mouseover" end="arrowDown.mouseout"/>
                  </use>
                  <path fill="none" stroke="white" stroke-width="1.5" d="M0,-3.0v7 M-2.5,-0.5L0,-3.0L2.5,-0.5"/>
                </g>
                <g id="arrowLeft" xlink:href="#dirArrow" transform="rotate(270) translate(-36 17)" onmousedown="handlePan(-1,0)">
                  <use xlink:href="#rim" fill="#404040">
                        <set attributeName="fill" to="#808080" begin="arrowLeft.mouseover" end="arrowLeft.mouseout"/>
                  </use>
                  <path fill="none" stroke="white" stroke-width="1.5" d="M0,-3.0v7 M-2.5,-0.5L0,-3.0L2.5,-0.5"/>
                </g>
        </g>
        <svg viewBox="0 0 15 15" width="100%" height="30px" preserveAspectRatio="xMaxYMin meet">
         <g id="arrow_out" transform="scale(0.3 0.3)">
          <a xlink:href="itm_8cpp_aef74668a97df8c1c4614043e233d38fe_icgraph_org.svg" target="_base">
           <rect id="button" ry="5" rx="5" y="6" x="6" height="38" width="38"
                fill="#f2f5e9" fill-opacity="0.5" stroke="#606060" stroke-width="1.0"/>
           <path id="arrow"
             d="M 11.500037,31.436501 C 11.940474,20.09759 22.043105,11.32322 32.158766,21.979434 L 37.068811,17.246167 C 37.068811,17.246167 37.088388,32 37.088388,32 L 22.160133,31.978069 C 22.160133,31.978069 26.997745,27.140456 26.997745,27.140456 C 18.528582,18.264221 13.291696,25.230495 11.500037,31.436501 z"
             style="fill:#404040;"/>
          </a>
         </g>
        </svg>
</svg>
