<?xml version="1.0" encoding="UTF-8" standalone="no"?>
<!DOCTYPE svg PUBLIC "-//W3C//DTD SVG 1.1//EN"
 "http://www.w3.org/Graphics/SVG/1.1/DTD/svg11.dtd">
<!-- Generated by graphviz version 2.38.0 (20140413.2041)
 -->
<!-- Title: alos Pages: 1 -->
<svg width="484pt" height="180pt"
 viewBox="0.00 0.00 484.00 180.00" xmlns="http://www.w3.org/2000/svg" xmlns:xlink="http://www.w3.org/1999/xlink">
<g id="graph0" class="graph" transform="scale(1 1) rotate(0) translate(4 176)">
<title>alos</title>
<polygon fill="white" stroke="none" points="-4,4 -4,-176 480,-176 480,4 -4,4"/>
<!-- Node1 -->
<g id="node1" class="node"><title>Node1</title>
<polygon fill="#bfbfbf" stroke="black" points="0,-47.5 0,-66.5 35,-66.5 35,-47.5 0,-47.5"/>
<text text-anchor="middle" x="17.5" y="-54.5" font-family="Helvetica,sans-Serif" font-size="10.00">alos</text>
</g>
<!-- Node2 -->
<g id="node2" class="node"><title>Node2</title>
<g id="a_node2"><a xlink:href="../../d2/d31/itm_8cpp.html#a32289828f24201e9dde6140e27708d73" target="_top" xlink:title="lrprop">
<polygon fill="white" stroke="black" points="71,-47.5 71,-66.5 112,-66.5 112,-47.5 71,-47.5"/>
<text text-anchor="middle" x="91.5" y="-54.5" font-family="Helvetica,sans-Serif" font-size="10.00">lrprop</text>
</a>
</g>
</g>
<!-- Node1&#45;&gt;Node2 -->
<g id="edge1" class="edge"><title>Node1&#45;&gt;Node2</title>
<path fill="none" stroke="midnightblue" d="M45.3613,-57C53.8084,-57 62.9742,-57 70.8257,-57"/>
<polygon fill="midnightblue" stroke="midnightblue" points="45.1993,-53.5001 35.1992,-57 45.1992,-60.5001 45.1993,-53.5001"/>
</g>
<!-- Node3 -->
<g id="node3" class="node"><title>Node3</title>
<g id="a_node3"><a xlink:href="../../d2/d31/itm_8cpp.html#ae682440b4eaee05406c08f8ae48e60d8" target="_top" xlink:title="qlrpfl">
<polygon fill="white" stroke="black" points="148,-76.5 148,-95.5 186,-95.5 186,-76.5 148,-76.5"/>
<text text-anchor="middle" x="167" y="-83.5" font-family="Helvetica,sans-Serif" font-size="10.00">qlrpfl</text>
</a>
</g>
</g>
<!-- Node2&#45;&gt;Node3 -->
<g id="edge2" class="edge"><title>Node2&#45;&gt;Node3</title>
<path fill="none" stroke="midnightblue" d="M121.746,-68.5393C130.529,-72.0048 139.91,-75.706 147.764,-78.8047"/>
<polygon fill="midnightblue" stroke="midnightblue" points="122.783,-65.186 112.197,-64.7715 120.214,-71.6975 122.783,-65.186"/>
</g>
<!-- Node9 -->
<g id="node9" class="node"><title>Node9</title>
<g id="a_node9"><a xlink:href="../../d2/d31/itm_8cpp.html#aac99abe6fa8a284a3e964aa7f45a8deb" target="_top" xlink:title="area">
<polygon fill="white" stroke="black" points="149.5,-19.5 149.5,-38.5 184.5,-38.5 184.5,-19.5 149.5,-19.5"/>
<text text-anchor="middle" x="167" y="-26.5" font-family="Helvetica,sans-Serif" font-size="10.00">area</text>
</a>
</g>
</g>
<!-- Node2&#45;&gt;Node9 -->
<g id="edge8" class="edge"><title>Node2&#45;&gt;Node9</title>
<path fill="none" stroke="midnightblue" d="M121.611,-45.9101C130.991,-42.3369 141.065,-38.4991 149.241,-35.3843"/>
<polygon fill="midnightblue" stroke="midnightblue" points="120.296,-42.6658 112.197,-49.4965 122.788,-49.2072 120.296,-42.6658"/>
</g>
<!-- Node4 -->
<g id="node4" class="node"><title>Node4</title>
<g id="a_node4"><a xlink:href="../../d3/d37/itm_8h.html#aad6a3ed1b693ddfc2884c909e39d3989" target="_top" xlink:title="point_to_point">
<polygon fill="white" stroke="black" points="234,-152.5 234,-171.5 311,-171.5 311,-152.5 234,-152.5"/>
<text text-anchor="middle" x="272.5" y="-159.5" font-family="Helvetica,sans-Serif" font-size="10.00">point_to_point</text>
</a>
</g>
</g>
<!-- Node3&#45;&gt;Node4 -->
<g id="edge3" class="edge"><title>Node3&#45;&gt;Node4</title>
<path fill="none" stroke="midnightblue" d="M181.439,-103.965C191.471,-116.335 206.135,-132.39 222,-143 227.586,-146.736 234.011,-149.886 240.343,-152.48"/>
<polygon fill="midnightblue" stroke="midnightblue" points="183.922,-101.458 175.003,-95.7396 178.409,-105.772 183.922,-101.458"/>
</g>
<!-- Node5 -->
<g id="node5" class="node"><title>Node5</title>
<g id="a_node5"><a xlink:href="../../d3/d37/itm_8h.html#acca1a0cc60cc78b1f95772c7dc981182" target="_top" xlink:title="point_to_point_rels">
<polygon fill="white" stroke="black" points="223.5,-114.5 223.5,-133.5 321.5,-133.5 321.5,-114.5 223.5,-114.5"/>
<text text-anchor="middle" x="272.5" y="-121.5" font-family="Helvetica,sans-Serif" font-size="10.00">point_to_point_rels</text>
</a>
</g>
</g>
<!-- Node3&#45;&gt;Node5 -->
<g id="edge4" class="edge"><title>Node3&#45;&gt;Node5</title>
<path fill="none" stroke="midnightblue" d="M195.594,-96.131C211.089,-101.82 230.31,-108.877 245.533,-114.466"/>
<polygon fill="midnightblue" stroke="midnightblue" points="196.622,-92.7801 186.028,-92.6191 194.209,-99.3513 196.622,-92.7801"/>
</g>
<!-- Node7 -->
<g id="node7" class="node"><title>Node7</title>
<g id="a_node7"><a xlink:href="../../d3/d37/itm_8h.html#a606b3a527141eef67be36272940cb1ee" target="_top" xlink:title="point_to_pointMDH">
<polygon fill="white" stroke="black" points="222,-76.5 222,-95.5 323,-95.5 323,-76.5 222,-76.5"/>
<text text-anchor="middle" x="272.5" y="-83.5" font-family="Helvetica,sans-Serif" font-size="10.00">point_to_pointMDH</text>
</a>
</g>
</g>
<!-- Node3&#45;&gt;Node7 -->
<g id="edge6" class="edge"><title>Node3&#45;&gt;Node7</title>
<path fill="none" stroke="midnightblue" d="M196.138,-86C204.046,-86 212.892,-86 221.664,-86"/>
<polygon fill="midnightblue" stroke="midnightblue" points="196.028,-82.5001 186.028,-86 196.028,-89.5001 196.028,-82.5001"/>
</g>
<!-- Node8 -->
<g id="node8" class="node"><title>Node8</title>
<g id="a_node8"><a xlink:href="../../d3/d37/itm_8h.html#a3d6220d50384cf3904089e8320ff6617" target="_top" xlink:title="point_to_pointDH">
<polygon fill="white" stroke="black" points="226.5,-38.5 226.5,-57.5 318.5,-57.5 318.5,-38.5 226.5,-38.5"/>
<text text-anchor="middle" x="272.5" y="-45.5" font-family="Helvetica,sans-Serif" font-size="10.00">point_to_pointDH</text>
</a>
</g>
</g>
<!-- Node3&#45;&gt;Node8 -->
<g id="edge7" class="edge"><title>Node3&#45;&gt;Node8</title>
<path fill="none" stroke="midnightblue" d="M195.594,-75.869C211.089,-70.1798 230.31,-63.1229 245.533,-57.5338"/>
<polygon fill="midnightblue" stroke="midnightblue" points="194.209,-72.6487 186.028,-79.3809 196.622,-79.2199 194.209,-72.6487"/>
</g>
<!-- Node6 -->
<g id="node6" class="node"><title>Node6</title>
<g id="a_node6"><a xlink:href="../../d3/dcc/itm__its__py_8cpp.html#ab9bd9d469dbd1234f77f39093f765453" target="_top" xlink:title="itm_point_to_point_rels">
<polygon fill="white" stroke="black" points="359,-114.5 359,-133.5 476,-133.5 476,-114.5 359,-114.5"/>
<text text-anchor="middle" x="417.5" y="-121.5" font-family="Helvetica,sans-Serif" font-size="10.00">itm_point_to_point_rels</text>
</a>
</g>
</g>
<!-- Node5&#45;&gt;Node6 -->
<g id="edge5" class="edge"><title>Node5&#45;&gt;Node6</title>
<path fill="none" stroke="midnightblue" d="M331.556,-124C340.591,-124 349.922,-124 358.945,-124"/>
<polygon fill="midnightblue" stroke="midnightblue" points="331.515,-120.5 321.515,-124 331.515,-127.5 331.515,-120.5"/>
</g>
<!-- Node10 -->
<g id="node10" class="node"><title>Node10</title>
<g id="a_node10"><a xlink:href="../../d3/d37/itm_8h.html#a5e3421c4e7d0133df57f985ed4eacbfd" target="_top" xlink:title="ITMAreadBLoss">
<polygon fill="white" stroke="black" points="229,-0.5 229,-19.5 316,-19.5 316,-0.5 229,-0.5"/>
<text text-anchor="middle" x="272.5" y="-7.5" font-family="Helvetica,sans-Serif" font-size="10.00">ITMAreadBLoss</text>
</a>
</g>
</g>
<!-- Node9&#45;&gt;Node10 -->
<g id="edge9" class="edge"><title>Node9&#45;&gt;Node10</title>
<path fill="none" stroke="midnightblue" d="M194.656,-24.1066C204.984,-22.2106 217.072,-19.9917 228.562,-17.8823"/>
<polygon fill="midnightblue" stroke="midnightblue" points="193.833,-20.6992 184.629,-25.9473 195.097,-27.5841 193.833,-20.6992"/>
</g>
</g>
</svg>
