<?xml version="1.0" encoding="UTF-8" standalone="no"?>
<!DOCTYPE svg PUBLIC "-//W3C//DTD SVG 1.1//EN"
 "http://www.w3.org/Graphics/SVG/1.1/DTD/svg11.dtd">
<!-- Generated by graphviz version 2.38.0 (20140413.2041)
 -->
<!-- Title: hzns Pages: 1 -->
<svg width="410pt" height="142pt"
 viewBox="0.00 0.00 410.00 142.00" xmlns="http://www.w3.org/2000/svg" xmlns:xlink="http://www.w3.org/1999/xlink">
<g id="graph0" class="graph" transform="scale(1 1) rotate(0) translate(4 138)">
<title>hzns</title>
<polygon fill="white" stroke="none" points="-4,4 -4,-138 406,-138 406,4 -4,4"/>
<!-- Node1 -->
<g id="node1" class="node"><title>Node1</title>
<polygon fill="#bfbfbf" stroke="black" points="0,-57.5 0,-76.5 38,-76.5 38,-57.5 0,-57.5"/>
<text text-anchor="middle" x="19" y="-64.5" font-family="Helvetica,sans-Serif" font-size="10.00">hzns</text>
</g>
<!-- Node2 -->
<g id="node2" class="node"><title>Node2</title>
<g id="a_node2"><a xlink:href="../../d2/d31/itm_8cpp.html#ae682440b4eaee05406c08f8ae48e60d8" target="_top" xlink:title="qlrpfl">
<polygon fill="white" stroke="black" points="74,-57.5 74,-76.5 112,-76.5 112,-57.5 74,-57.5"/>
<text text-anchor="middle" x="93" y="-64.5" font-family="Helvetica,sans-Serif" font-size="10.00">qlrpfl</text>
</a>
</g>
</g>
<!-- Node1&#45;&gt;Node2 -->
<g id="edge1" class="edge"><title>Node1&#45;&gt;Node2</title>
<path fill="none" stroke="midnightblue" d="M48.4274,-67C56.8916,-67 65.9407,-67 73.5867,-67"/>
<polygon fill="midnightblue" stroke="midnightblue" points="48.1687,-63.5001 38.1686,-67 48.1686,-70.5001 48.1687,-63.5001"/>
</g>
<!-- Node3 -->
<g id="node3" class="node"><title>Node3</title>
<g id="a_node3"><a xlink:href="../../d3/d37/itm_8h.html#aad6a3ed1b693ddfc2884c909e39d3989" target="_top" xlink:title="point_to_point">
<polygon fill="white" stroke="black" points="160,-114.5 160,-133.5 237,-133.5 237,-114.5 160,-114.5"/>
<text text-anchor="middle" x="198.5" y="-121.5" font-family="Helvetica,sans-Serif" font-size="10.00">point_to_point</text>
</a>
</g>
</g>
<!-- Node2&#45;&gt;Node3 -->
<g id="edge2" class="edge"><title>Node2&#45;&gt;Node3</title>
<path fill="none" stroke="midnightblue" d="M113.862,-82.756C123.75,-90.1283 136.108,-98.6592 148,-105 154.579,-108.508 161.951,-111.698 168.954,-114.421"/>
<polygon fill="midnightblue" stroke="midnightblue" points="115.954,-79.9494 105.883,-76.6598 111.704,-85.5119 115.954,-79.9494"/>
</g>
<!-- Node4 -->
<g id="node4" class="node"><title>Node4</title>
<g id="a_node4"><a xlink:href="../../d3/d37/itm_8h.html#acca1a0cc60cc78b1f95772c7dc981182" target="_top" xlink:title="point_to_point_rels">
<polygon fill="white" stroke="black" points="149.5,-76.5 149.5,-95.5 247.5,-95.5 247.5,-76.5 149.5,-76.5"/>
<text text-anchor="middle" x="198.5" y="-83.5" font-family="Helvetica,sans-Serif" font-size="10.00">point_to_point_rels</text>
</a>
</g>
</g>
<!-- Node2&#45;&gt;Node4 -->
<g id="edge3" class="edge"><title>Node2&#45;&gt;Node4</title>
<path fill="none" stroke="midnightblue" d="M122.075,-72.1539C130.534,-73.7068 140.07,-75.4572 149.443,-77.1779"/>
<polygon fill="midnightblue" stroke="midnightblue" points="122.496,-68.6727 112.028,-70.3095 121.232,-75.5577 122.496,-68.6727"/>
</g>
<!-- Node6 -->
<g id="node6" class="node"><title>Node6</title>
<g id="a_node6"><a xlink:href="../../d3/d37/itm_8h.html#a606b3a527141eef67be36272940cb1ee" target="_top" xlink:title="point_to_pointMDH">
<polygon fill="white" stroke="black" points="148,-38.5 148,-57.5 249,-57.5 249,-38.5 148,-38.5"/>
<text text-anchor="middle" x="198.5" y="-45.5" font-family="Helvetica,sans-Serif" font-size="10.00">point_to_pointMDH</text>
</a>
</g>
</g>
<!-- Node2&#45;&gt;Node6 -->
<g id="edge5" class="edge"><title>Node2&#45;&gt;Node6</title>
<path fill="none" stroke="midnightblue" d="M121.868,-61.8841C129.845,-60.4197 138.792,-58.7773 147.664,-57.1487"/>
<polygon fill="midnightblue" stroke="midnightblue" points="121.232,-58.4423 112.028,-63.6905 122.496,-65.3273 121.232,-58.4423"/>
</g>
<!-- Node7 -->
<g id="node7" class="node"><title>Node7</title>
<g id="a_node7"><a xlink:href="../../d3/d37/itm_8h.html#a3d6220d50384cf3904089e8320ff6617" target="_top" xlink:title="point_to_pointDH">
<polygon fill="white" stroke="black" points="152.5,-0.5 152.5,-19.5 244.5,-19.5 244.5,-0.5 152.5,-0.5"/>
<text text-anchor="middle" x="198.5" y="-7.5" font-family="Helvetica,sans-Serif" font-size="10.00">point_to_pointDH</text>
</a>
</g>
</g>
<!-- Node2&#45;&gt;Node7 -->
<g id="edge6" class="edge"><title>Node2&#45;&gt;Node7</title>
<path fill="none" stroke="midnightblue" d="M113.862,-51.244C123.75,-43.8717 136.108,-35.3408 148,-29 154.579,-25.4919 161.951,-22.3017 168.954,-19.5793"/>
<polygon fill="midnightblue" stroke="midnightblue" points="111.704,-48.4881 105.883,-57.3402 115.954,-54.0506 111.704,-48.4881"/>
</g>
<!-- Node5 -->
<g id="node5" class="node"><title>Node5</title>
<g id="a_node5"><a xlink:href="../../d3/dcc/itm__its__py_8cpp.html#ab9bd9d469dbd1234f77f39093f765453" target="_top" xlink:title="itm_point_to_point_rels">
<polygon fill="white" stroke="black" points="285,-76.5 285,-95.5 402,-95.5 402,-76.5 285,-76.5"/>
<text text-anchor="middle" x="343.5" y="-83.5" font-family="Helvetica,sans-Serif" font-size="10.00">itm_point_to_point_rels</text>
</a>
</g>
</g>
<!-- Node4&#45;&gt;Node5 -->
<g id="edge4" class="edge"><title>Node4&#45;&gt;Node5</title>
<path fill="none" stroke="midnightblue" d="M257.556,-86C266.591,-86 275.922,-86 284.945,-86"/>
<polygon fill="midnightblue" stroke="midnightblue" points="257.515,-82.5001 247.515,-86 257.515,-89.5001 257.515,-82.5001"/>
</g>
</g>
</svg>
