<?xml version="1.0" encoding="UTF-8" standalone="no"?>
<!DOCTYPE svg PUBLIC "-//W3C//DTD SVG 1.1//EN"
 "http://www.w3.org/Graphics/SVG/1.1/DTD/svg11.dtd">
<!-- Generated by graphviz version 2.38.0 (20140413.2041)
 -->
<!-- Title: adiff Pages: 1 -->
<svg width="125pt" height="104pt"
 viewBox="0.00 0.00 125.00 104.00" xmlns="http://www.w3.org/2000/svg" xmlns:xlink="http://www.w3.org/1999/xlink">
<g id="graph0" class="graph" transform="scale(1 1) rotate(0) translate(4 100)">
<title>adiff</title>
<polygon fill="white" stroke="none" points="-4,4 -4,-100 121,-100 121,4 -4,4"/>
<!-- Node1 -->
<g id="node1" class="node"><title>Node1</title>
<polygon fill="#bfbfbf" stroke="black" points="0,-38.5 0,-57.5 35,-57.5 35,-38.5 0,-38.5"/>
<text text-anchor="middle" x="17.5" y="-45.5" font-family="Helvetica,sans-Serif" font-size="10.00">adiff</text>
</g>
<!-- Node2 -->
<g id="node2" class="node"><title>Node2</title>
<g id="a_node2"><a xlink:href="../../d2/d31/itm_8cpp.html#ae383616ab74473e2622ac352721e342f" target="_top" xlink:title="mymin">
<polygon fill="white" stroke="black" points="71,-76.5 71,-95.5 117,-95.5 117,-76.5 71,-76.5"/>
<text text-anchor="middle" x="94" y="-83.5" font-family="Helvetica,sans-Serif" font-size="10.00">mymin</text>
</a>
</g>
</g>
<!-- Node1&#45;&gt;Node2 -->
<g id="edge1" class="edge"><title>Node1&#45;&gt;Node2</title>
<path fill="none" stroke="midnightblue" d="M35.034,-56.4334C43.8955,-60.9534 55.0506,-66.6433 65.2026,-71.8215"/>
<polygon fill="midnightblue" stroke="midnightblue" points="63.6509,-74.959 74.1494,-76.3849 66.8316,-68.7233 63.6509,-74.959"/>
</g>
<!-- Node3 -->
<g id="node3" class="node"><title>Node3</title>
<g id="a_node3"><a xlink:href="../../d2/d31/itm_8cpp.html#a58865d6a14f0fb4c0da66d610f830cdb" target="_top" xlink:title="fht">
<polygon fill="white" stroke="black" points="79.5,-38.5 79.5,-57.5 108.5,-57.5 108.5,-38.5 79.5,-38.5"/>
<text text-anchor="middle" x="94" y="-45.5" font-family="Helvetica,sans-Serif" font-size="10.00">fht</text>
</a>
</g>
</g>
<!-- Node1&#45;&gt;Node3 -->
<g id="edge2" class="edge"><title>Node1&#45;&gt;Node3</title>
<path fill="none" stroke="midnightblue" d="M35.034,-48C45.065,-48 58.0349,-48 69.162,-48"/>
<polygon fill="midnightblue" stroke="midnightblue" points="69.4979,-51.5001 79.4978,-48 69.4978,-44.5001 69.4979,-51.5001"/>
</g>
<!-- Node4 -->
<g id="node4" class="node"><title>Node4</title>
<g id="a_node4"><a xlink:href="../../d2/d31/itm_8cpp.html#a133ac157c106bdbab35606739556ed65" target="_top" xlink:title="aknfe">
<polygon fill="white" stroke="black" points="73.5,-0.5 73.5,-19.5 114.5,-19.5 114.5,-0.5 73.5,-0.5"/>
<text text-anchor="middle" x="94" y="-7.5" font-family="Helvetica,sans-Serif" font-size="10.00">aknfe</text>
</a>
</g>
</g>
<!-- Node1&#45;&gt;Node4 -->
<g id="edge3" class="edge"><title>Node1&#45;&gt;Node4</title>
<path fill="none" stroke="midnightblue" d="M35.034,-39.5666C43.8955,-35.0466 55.0506,-29.3567 65.2026,-24.1785"/>
<polygon fill="midnightblue" stroke="midnightblue" points="66.8316,-27.2767 74.1494,-19.6151 63.6509,-21.041 66.8316,-27.2767"/>
</g>
</g>
</svg>
