<?xml version="1.0" encoding="UTF-8" standalone="no"?>
<!DOCTYPE svg PUBLIC "-//W3C//DTD SVG 1.1//EN"
 "http://www.w3.org/Graphics/SVG/1.1/DTD/svg11.dtd">
<!-- Generated by graphviz version 2.38.0 (20140413.2041)
 -->
<!-- Title: z1sq1 Pages: 1 -->
<svg width="492pt" height="142pt"
 viewBox="0.00 0.00 492.00 142.00" xmlns="http://www.w3.org/2000/svg" xmlns:xlink="http://www.w3.org/1999/xlink">
<g id="graph0" class="graph" transform="scale(1 1) rotate(0) translate(4 138)">
<title>z1sq1</title>
<polygon fill="white" stroke="none" points="-4,4 -4,-138 488,-138 488,4 -4,4"/>
<!-- Node1 -->
<g id="node1" class="node"><title>Node1</title>
<polygon fill="#bfbfbf" stroke="black" points="0,-57.5 0,-76.5 43,-76.5 43,-57.5 0,-57.5"/>
<text text-anchor="middle" x="21.5" y="-64.5" font-family="Helvetica,sans-Serif" font-size="10.00">z1sq1</text>
</g>
<!-- Node2 -->
<g id="node2" class="node"><title>Node2</title>
<g id="a_node2"><a xlink:href="../../d2/d31/itm_8cpp.html#a45e678693240356cd41b59d8edb5bb12" target="_top" xlink:title="d1thx">
<polygon fill="white" stroke="black" points="79,-76.5 79,-95.5 120,-95.5 120,-76.5 79,-76.5"/>
<text text-anchor="middle" x="99.5" y="-83.5" font-family="Helvetica,sans-Serif" font-size="10.00">d1thx</text>
</a>
</g>
</g>
<!-- Node1&#45;&gt;Node2 -->
<g id="edge1" class="edge"><title>Node1&#45;&gt;Node2</title>
<path fill="none" stroke="midnightblue" d="M53.0862,-74.6465C61.7571,-76.8143 70.9638,-79.116 78.8045,-81.0761"/>
<polygon fill="midnightblue" stroke="midnightblue" points="53.8177,-71.2218 43.2673,-72.1918 52.1199,-78.0128 53.8177,-71.2218"/>
</g>
<!-- Node3 -->
<g id="node3" class="node"><title>Node3</title>
<g id="a_node3"><a xlink:href="../../d2/d31/itm_8cpp.html#ae682440b4eaee05406c08f8ae48e60d8" target="_top" xlink:title="qlrpfl">
<polygon fill="white" stroke="black" points="156,-57.5 156,-76.5 194,-76.5 194,-57.5 156,-57.5"/>
<text text-anchor="middle" x="175" y="-64.5" font-family="Helvetica,sans-Serif" font-size="10.00">qlrpfl</text>
</a>
</g>
</g>
<!-- Node1&#45;&gt;Node3 -->
<g id="edge8" class="edge"><title>Node1&#45;&gt;Node3</title>
<path fill="none" stroke="midnightblue" d="M53.4476,-67C84.2747,-67 130.554,-67 155.867,-67"/>
<polygon fill="midnightblue" stroke="midnightblue" points="53.2478,-63.5001 43.2478,-67 53.2477,-70.5001 53.2478,-63.5001"/>
</g>
<!-- Node2&#45;&gt;Node3 -->
<g id="edge2" class="edge"><title>Node2&#45;&gt;Node3</title>
<path fill="none" stroke="midnightblue" d="M130.03,-78.3665C138.731,-76.1172 147.994,-73.7225 155.764,-71.7142"/>
<polygon fill="midnightblue" stroke="midnightblue" points="129.002,-75.0169 120.197,-80.9083 130.754,-81.7941 129.002,-75.0169"/>
</g>
<!-- Node4 -->
<g id="node4" class="node"><title>Node4</title>
<g id="a_node4"><a xlink:href="../../d3/d37/itm_8h.html#aad6a3ed1b693ddfc2884c909e39d3989" target="_top" xlink:title="point_to_point">
<polygon fill="white" stroke="black" points="242,-114.5 242,-133.5 319,-133.5 319,-114.5 242,-114.5"/>
<text text-anchor="middle" x="280.5" y="-121.5" font-family="Helvetica,sans-Serif" font-size="10.00">point_to_point</text>
</a>
</g>
</g>
<!-- Node3&#45;&gt;Node4 -->
<g id="edge3" class="edge"><title>Node3&#45;&gt;Node4</title>
<path fill="none" stroke="midnightblue" d="M195.862,-82.756C205.75,-90.1283 218.108,-98.6592 230,-105 236.579,-108.508 243.951,-111.698 250.954,-114.421"/>
<polygon fill="midnightblue" stroke="midnightblue" points="197.954,-79.9494 187.883,-76.6598 193.704,-85.5119 197.954,-79.9494"/>
</g>
<!-- Node5 -->
<g id="node5" class="node"><title>Node5</title>
<g id="a_node5"><a xlink:href="../../d3/d37/itm_8h.html#acca1a0cc60cc78b1f95772c7dc981182" target="_top" xlink:title="point_to_point_rels">
<polygon fill="white" stroke="black" points="231.5,-76.5 231.5,-95.5 329.5,-95.5 329.5,-76.5 231.5,-76.5"/>
<text text-anchor="middle" x="280.5" y="-83.5" font-family="Helvetica,sans-Serif" font-size="10.00">point_to_point_rels</text>
</a>
</g>
</g>
<!-- Node3&#45;&gt;Node5 -->
<g id="edge4" class="edge"><title>Node3&#45;&gt;Node5</title>
<path fill="none" stroke="midnightblue" d="M204.075,-72.1539C212.534,-73.7068 222.07,-75.4572 231.443,-77.1779"/>
<polygon fill="midnightblue" stroke="midnightblue" points="204.496,-68.6727 194.028,-70.3095 203.232,-75.5577 204.496,-68.6727"/>
</g>
<!-- Node7 -->
<g id="node7" class="node"><title>Node7</title>
<g id="a_node7"><a xlink:href="../../d3/d37/itm_8h.html#a606b3a527141eef67be36272940cb1ee" target="_top" xlink:title="point_to_pointMDH">
<polygon fill="white" stroke="black" points="230,-38.5 230,-57.5 331,-57.5 331,-38.5 230,-38.5"/>
<text text-anchor="middle" x="280.5" y="-45.5" font-family="Helvetica,sans-Serif" font-size="10.00">point_to_pointMDH</text>
</a>
</g>
</g>
<!-- Node3&#45;&gt;Node7 -->
<g id="edge6" class="edge"><title>Node3&#45;&gt;Node7</title>
<path fill="none" stroke="midnightblue" d="M203.868,-61.8841C211.845,-60.4197 220.792,-58.7773 229.664,-57.1487"/>
<polygon fill="midnightblue" stroke="midnightblue" points="203.232,-58.4423 194.028,-63.6905 204.496,-65.3273 203.232,-58.4423"/>
</g>
<!-- Node8 -->
<g id="node8" class="node"><title>Node8</title>
<g id="a_node8"><a xlink:href="../../d3/d37/itm_8h.html#a3d6220d50384cf3904089e8320ff6617" target="_top" xlink:title="point_to_pointDH">
<polygon fill="white" stroke="black" points="234.5,-0.5 234.5,-19.5 326.5,-19.5 326.5,-0.5 234.5,-0.5"/>
<text text-anchor="middle" x="280.5" y="-7.5" font-family="Helvetica,sans-Serif" font-size="10.00">point_to_pointDH</text>
</a>
</g>
</g>
<!-- Node3&#45;&gt;Node8 -->
<g id="edge7" class="edge"><title>Node3&#45;&gt;Node8</title>
<path fill="none" stroke="midnightblue" d="M195.862,-51.244C205.75,-43.8717 218.108,-35.3408 230,-29 236.579,-25.4919 243.951,-22.3017 250.954,-19.5793"/>
<polygon fill="midnightblue" stroke="midnightblue" points="193.704,-48.4881 187.883,-57.3402 197.954,-54.0506 193.704,-48.4881"/>
</g>
<!-- Node6 -->
<g id="node6" class="node"><title>Node6</title>
<g id="a_node6"><a xlink:href="../../d3/dcc/itm__its__py_8cpp.html#ab9bd9d469dbd1234f77f39093f765453" target="_top" xlink:title="itm_point_to_point_rels">
<polygon fill="white" stroke="black" points="367,-76.5 367,-95.5 484,-95.5 484,-76.5 367,-76.5"/>
<text text-anchor="middle" x="425.5" y="-83.5" font-family="Helvetica,sans-Serif" font-size="10.00">itm_point_to_point_rels</text>
</a>
</g>
</g>
<!-- Node5&#45;&gt;Node6 -->
<g id="edge5" class="edge"><title>Node5&#45;&gt;Node6</title>
<path fill="none" stroke="midnightblue" d="M339.556,-86C348.591,-86 357.922,-86 366.945,-86"/>
<polygon fill="midnightblue" stroke="midnightblue" points="339.515,-82.5001 329.515,-86 339.515,-89.5001 339.515,-82.5001"/>
</g>
</g>
</svg>
