<?xml version="1.0" encoding="UTF-8" standalone="no"?>
<!DOCTYPE svg PUBLIC "-//W3C//DTD SVG 1.1//EN"
 "http://www.w3.org/Graphics/SVG/1.1/DTD/svg11.dtd">
<!-- Generated by graphviz version 2.38.0 (20140413.2041)
 -->
<!-- Title: d1thx Pages: 1 -->
<svg width="253pt" height="132pt"
 viewBox="0.00 0.00 253.00 132.00" xmlns="http://www.w3.org/2000/svg" xmlns:xlink="http://www.w3.org/1999/xlink">
<g id="graph0" class="graph" transform="scale(1 1) rotate(0) translate(4 128)">
<title>d1thx</title>
<polygon fill="white" stroke="none" points="-4,4 -4,-128 249,-128 249,4 -4,4"/>
<!-- Node1 -->
<g id="node1" class="node"><title>Node1</title>
<polygon fill="#bfbfbf" stroke="black" points="0,-57.5 0,-76.5 41,-76.5 41,-57.5 0,-57.5"/>
<text text-anchor="middle" x="20.5" y="-64.5" font-family="Helvetica,sans-Serif" font-size="10.00">d1thx</text>
</g>
<!-- Node2 -->
<g id="node2" class="node"><title>Node2</title>
<g id="a_node2"><a xlink:href="../../d2/d31/itm_8cpp.html#ae383616ab74473e2622ac352721e342f" target="_top" xlink:title="mymin">
<polygon fill="white" stroke="black" points="177.5,-104.5 177.5,-123.5 223.5,-123.5 223.5,-104.5 177.5,-104.5"/>
<text text-anchor="middle" x="200.5" y="-111.5" font-family="Helvetica,sans-Serif" font-size="10.00">mymin</text>
</a>
</g>
</g>
<!-- Node1&#45;&gt;Node2 -->
<g id="edge1" class="edge"><title>Node1&#45;&gt;Node2</title>
<path fill="none" stroke="midnightblue" d="M32.0171,-76.7616C42.5267,-85.856 59.5865,-98.9017 77,-105 106.233,-115.238 141.729,-116.755 166.97,-116.152"/>
<polygon fill="midnightblue" stroke="midnightblue" points="167.246,-119.645 177.112,-115.783 166.991,-112.649 167.246,-119.645"/>
</g>
<!-- Node3 -->
<g id="node3" class="node"><title>Node3</title>
<g id="a_node3"><a xlink:href="../../d2/d31/itm_8cpp.html#aef74668a97df8c1c4614043e233d38fe" target="_top" xlink:title="mymax">
<polygon fill="white" stroke="black" points="176,-47.5 176,-66.5 225,-66.5 225,-47.5 176,-47.5"/>
<text text-anchor="middle" x="200.5" y="-54.5" font-family="Helvetica,sans-Serif" font-size="10.00">mymax</text>
</a>
</g>
</g>
<!-- Node1&#45;&gt;Node3 -->
<g id="edge2" class="edge"><title>Node1&#45;&gt;Node3</title>
<path fill="none" stroke="midnightblue" d="M41.2292,-65.8916C71.2171,-64.2069 128.664,-60.9796 165.478,-58.9114"/>
<polygon fill="midnightblue" stroke="midnightblue" points="165.943,-62.3909 175.731,-58.3354 165.55,-55.4019 165.943,-62.3909"/>
</g>
<!-- Node4 -->
<g id="node4" class="node"><title>Node4</title>
<g id="a_node4"><a xlink:href="../../d2/d31/itm_8cpp.html#a95a65538c0942d9e797bc3ea36ab7f08" target="_top" xlink:title="z1sq1">
<polygon fill="white" stroke="black" points="77,-0.5 77,-19.5 120,-19.5 120,-0.5 77,-0.5"/>
<text text-anchor="middle" x="98.5" y="-7.5" font-family="Helvetica,sans-Serif" font-size="10.00">z1sq1</text>
</a>
</g>
</g>
<!-- Node1&#45;&gt;Node4 -->
<g id="edge3" class="edge"><title>Node1&#45;&gt;Node4</title>
<path fill="none" stroke="midnightblue" d="M34.3924,-57.3307C45.9261,-48.6804 63.0454,-35.8409 76.5448,-25.7164"/>
<polygon fill="midnightblue" stroke="midnightblue" points="78.898,-28.3265 84.798,-19.5265 74.698,-22.7265 78.898,-28.3265"/>
</g>
<!-- Node6 -->
<g id="node6" class="node"><title>Node6</title>
<g id="a_node6"><a xlink:href="../../d2/d31/itm_8cpp.html#a8ab54b7902d55b592e2d76dafdb93069" target="_top" xlink:title="qtile">
<polygon fill="white" stroke="black" points="81,-76.5 81,-95.5 116,-95.5 116,-76.5 81,-76.5"/>
<text text-anchor="middle" x="98.5" y="-83.5" font-family="Helvetica,sans-Serif" font-size="10.00">qtile</text>
</a>
</g>
</g>
<!-- Node1&#45;&gt;Node6 -->
<g id="edge5" class="edge"><title>Node1&#45;&gt;Node6</title>
<path fill="none" stroke="midnightblue" d="M41.0719,-71.893C50.2117,-74.1779 61.2282,-76.932 71.0922,-79.398"/>
<polygon fill="midnightblue" stroke="midnightblue" points="70.277,-82.8019 80.8274,-81.8318 71.9748,-76.0109 70.277,-82.8019"/>
</g>
<!-- Node5 -->
<g id="node5" class="node"><title>Node5</title>
<g id="a_node5"><a xlink:href="../../d2/d31/itm_8cpp.html#ae61eab5929102f86b606d9007f0cc139" target="_top" xlink:title="FORTRAN_DIM">
<polygon fill="white" stroke="black" points="156,-0.5 156,-19.5 245,-19.5 245,-0.5 156,-0.5"/>
<text text-anchor="middle" x="200.5" y="-7.5" font-family="Helvetica,sans-Serif" font-size="10.00">FORTRAN_DIM</text>
</a>
</g>
</g>
<!-- Node4&#45;&gt;Node5 -->
<g id="edge4" class="edge"><title>Node4&#45;&gt;Node5</title>
<path fill="none" stroke="midnightblue" d="M120.22,-10C127.702,-10 136.534,-10 145.539,-10"/>
<polygon fill="midnightblue" stroke="midnightblue" points="145.716,-13.5001 155.716,-10 145.716,-6.5001 145.716,-13.5001"/>
</g>
<!-- Node6&#45;&gt;Node2 -->
<g id="edge6" class="edge"><title>Node6&#45;&gt;Node2</title>
<path fill="none" stroke="midnightblue" d="M116.013,-90.6236C130.018,-94.5449 150.509,-100.283 167.686,-105.092"/>
<polygon fill="midnightblue" stroke="midnightblue" points="166.768,-108.47 177.342,-107.796 168.656,-101.729 166.768,-108.47"/>
</g>
<!-- Node6&#45;&gt;Node3 -->
<g id="edge7" class="edge"><title>Node6&#45;&gt;Node3</title>
<path fill="none" stroke="midnightblue" d="M116.013,-81.2112C129.519,-77.2944 149.059,-71.628 165.84,-66.7615"/>
<polygon fill="midnightblue" stroke="midnightblue" points="167.223,-70.0045 175.853,-63.8577 165.274,-63.2815 167.223,-70.0045"/>
</g>
</g>
</svg>
