<?xml version="1.0" encoding="UTF-8" standalone="no"?>
<!DOCTYPE svg PUBLIC "-//W3C//DTD SVG 1.1//EN"
 "http://www.w3.org/Graphics/SVG/1.1/DTD/svg11.dtd">
<!-- Generated by graphviz version 2.38.0 (20140413.2041)
 -->
<!-- Title: abq_alos Pages: 1 -->
<!--zoomable 180 -->
<svg id="main" version="1.1" xmlns="http://www.w3.org/2000/svg" xmlns:xlink="http://www.w3.org/1999/xlink" xml:space="preserve" onload="init(evt)">
<style type="text/css"><![CDATA[
.edge:hover path { stroke: red; }
.edge:hover polygon { stroke: red; fill: red; }
]]></style>
<script type="text/javascript"><![CDATA[
var edges = document.getElementsByTagName('g');
if (edges && edges.length) {
  for (var i=0;i<edges.length;i++) {
    if (edges[i].id.substr(0,4)=='edge') {
      edges[i].setAttribute('class','edge');
    }
  }
}
]]></script>
        <defs>
                <circle id="rim" cx="0" cy="0" r="7"/>
                <circle id="rim2" cx="0" cy="0" r="3.5"/>
                <g id="zoomPlus">
                        <use xlink:href="#rim" fill="#404040">
                                <set attributeName="fill" to="#808080" begin="zoomplus.mouseover" end="zoomplus.mouseout"/>
                        </use>
                        <path d="M-4,0h8M0,-4v8" fill="none" stroke="white" stroke-width="1.5" pointer-events="none"/>
                </g>
                <g id="zoomMin">
                        <use xlink:href="#rim" fill="#404040">
                                <set attributeName="fill" to="#808080" begin="zoomminus.mouseover" end="zoomminus.mouseout"/>
                        </use>
                        <path d="M-4,0h8" fill="none" stroke="white" stroke-width="1.5" pointer-events="none"/>
                </g>
                <g id="dirArrow">
                        <path fill="none" stroke="white" stroke-width="1.5" d="M0,-3.0v7 M-2.5,-0.5L0,-3.0L2.5,-0.5"/>
                </g>
               <g id="resetDef">
                       <use xlink:href="#rim2" fill="#404040">
                               <set attributeName="fill" to="#808080" begin="reset.mouseover" end="reset.mouseout"/>
                       </use>
               </g>
        </defs>

<script type="text/javascript">
var viewWidth = 576;
var viewHeight = 180;
var sectionId = 'dynsection-1';
</script>
<script xlink:href="../../svgpan.js"/>
<svg id="graph" class="graph">
<g id="viewport">
<title>abq_alos</title>
<polygon fill="white" stroke="none" points="-4,4 -4,-176 572,-176 572,4 -4,4"/>
<!-- Node1 -->
<g id="node1" class="node"><title>Node1</title>
<polygon fill="#bfbfbf" stroke="black" points="0,-47.5 0,-66.5 56,-66.5 56,-47.5 0,-47.5"/>
<text text-anchor="middle" x="28" y="-54.5" font-family="Helvetica,sans-Serif" font-size="10.00">abq_alos</text>
</g>
<!-- Node2 -->
<g id="node2" class="node"><title>Node2</title>
<g id="a_node2"><a xlink:href="../../d2/d31/itm_8cpp.html#a404799cf89ce54ce7b92e13ad355ad85" target="_top" xlink:title="alos">
<polygon fill="white" stroke="black" points="92,-47.5 92,-66.5 127,-66.5 127,-47.5 92,-47.5"/>
<text text-anchor="middle" x="109.5" y="-54.5" font-family="Helvetica,sans-Serif" font-size="10.00">alos</text>
</a>
</g>
</g>
<!-- Node1&#45;&gt;Node2 -->
<g id="edge1" class="edge"><title>Node1&#45;&gt;Node2</title>
<path fill="none" stroke="midnightblue" d="M66.6444,-57C75.5528,-57 84.6026,-57 91.9974,-57"/>
<polygon fill="midnightblue" stroke="midnightblue" points="66.3594,-53.5001 56.3594,-57 66.3594,-60.5001 66.3594,-53.5001"/>
</g>
<!-- Node3 -->
<g id="node3" class="node"><title>Node3</title>
<g id="a_node3"><a xlink:href="../../d2/d31/itm_8cpp.html#a32289828f24201e9dde6140e27708d73" target="_top" xlink:title="lrprop">
<polygon fill="white" stroke="black" points="163,-47.5 163,-66.5 204,-66.5 204,-47.5 163,-47.5"/>
<text text-anchor="middle" x="183.5" y="-54.5" font-family="Helvetica,sans-Serif" font-size="10.00">lrprop</text>
</a>
</g>
</g>
<!-- Node2&#45;&gt;Node3 -->
<g id="edge2" class="edge"><title>Node2&#45;&gt;Node3</title>
<path fill="none" stroke="midnightblue" d="M137.361,-57C145.808,-57 154.974,-57 162.826,-57"/>
<polygon fill="midnightblue" stroke="midnightblue" points="137.199,-53.5001 127.199,-57 137.199,-60.5001 137.199,-53.5001"/>
</g>
<!-- Node4 -->
<g id="node4" class="node"><title>Node4</title>
<g id="a_node4"><a xlink:href="../../d2/d31/itm_8cpp.html#ae682440b4eaee05406c08f8ae48e60d8" target="_top" xlink:title="qlrpfl">
<polygon fill="white" stroke="black" points="240,-76.5 240,-95.5 278,-95.5 278,-76.5 240,-76.5"/>
<text text-anchor="middle" x="259" y="-83.5" font-family="Helvetica,sans-Serif" font-size="10.00">qlrpfl</text>
</a>
</g>
</g>
<!-- Node3&#45;&gt;Node4 -->
<g id="edge3" class="edge"><title>Node3&#45;&gt;Node4</title>
<path fill="none" stroke="midnightblue" d="M213.746,-68.5393C222.529,-72.0048 231.91,-75.706 239.764,-78.8047"/>
<polygon fill="midnightblue" stroke="midnightblue" points="214.783,-65.186 204.197,-64.7715 212.214,-71.6975 214.783,-65.186"/>
</g>
<!-- Node10 -->
<g id="node10" class="node"><title>Node10</title>
<g id="a_node10"><a xlink:href="../../d2/d31/itm_8cpp.html#aac99abe6fa8a284a3e964aa7f45a8deb" target="_top" xlink:title="area">
<polygon fill="white" stroke="black" points="241.5,-19.5 241.5,-38.5 276.5,-38.5 276.5,-19.5 241.5,-19.5"/>
<text text-anchor="middle" x="259" y="-26.5" font-family="Helvetica,sans-Serif" font-size="10.00">area</text>
</a>
</g>
</g>
<!-- Node3&#45;&gt;Node10 -->
<g id="edge9" class="edge"><title>Node3&#45;&gt;Node10</title>
<path fill="none" stroke="midnightblue" d="M213.611,-45.9101C222.991,-42.3369 233.065,-38.4991 241.241,-35.3843"/>
<polygon fill="midnightblue" stroke="midnightblue" points="212.296,-42.6658 204.197,-49.4965 214.788,-49.2072 212.296,-42.6658"/>
</g>
<!-- Node5 -->
<g id="node5" class="node"><title>Node5</title>
<g id="a_node5"><a xlink:href="../../d3/d37/itm_8h.html#aad6a3ed1b693ddfc2884c909e39d3989" target="_top" xlink:title="point_to_point">
<polygon fill="white" stroke="black" points="326,-152.5 326,-171.5 403,-171.5 403,-152.5 326,-152.5"/>
<text text-anchor="middle" x="364.5" y="-159.5" font-family="Helvetica,sans-Serif" font-size="10.00">point_to_point</text>
</a>
</g>
</g>
<!-- Node4&#45;&gt;Node5 -->
<g id="edge4" class="edge"><title>Node4&#45;&gt;Node5</title>
<path fill="none" stroke="midnightblue" d="M273.439,-103.965C283.471,-116.335 298.135,-132.39 314,-143 319.586,-146.736 326.011,-149.886 332.343,-152.48"/>
<polygon fill="midnightblue" stroke="midnightblue" points="275.922,-101.458 267.003,-95.7396 270.409,-105.772 275.922,-101.458"/>
</g>
<!-- Node6 -->
<g id="node6" class="node"><title>Node6</title>
<g id="a_node6"><a xlink:href="../../d3/d37/itm_8h.html#acca1a0cc60cc78b1f95772c7dc981182" target="_top" xlink:title="point_to_point_rels">
<polygon fill="white" stroke="black" points="315.5,-114.5 315.5,-133.5 413.5,-133.5 413.5,-114.5 315.5,-114.5"/>
<text text-anchor="middle" x="364.5" y="-121.5" font-family="Helvetica,sans-Serif" font-size="10.00">point_to_point_rels</text>
</a>
</g>
</g>
<!-- Node4&#45;&gt;Node6 -->
<g id="edge5" class="edge"><title>Node4&#45;&gt;Node6</title>
<path fill="none" stroke="midnightblue" d="M287.594,-96.131C303.089,-101.82 322.31,-108.877 337.533,-114.466"/>
<polygon fill="midnightblue" stroke="midnightblue" points="288.622,-92.7801 278.028,-92.6191 286.209,-99.3513 288.622,-92.7801"/>
</g>
<!-- Node8 -->
<g id="node8" class="node"><title>Node8</title>
<g id="a_node8"><a xlink:href="../../d3/d37/itm_8h.html#a606b3a527141eef67be36272940cb1ee" target="_top" xlink:title="point_to_pointMDH">
<polygon fill="white" stroke="black" points="314,-76.5 314,-95.5 415,-95.5 415,-76.5 314,-76.5"/>
<text text-anchor="middle" x="364.5" y="-83.5" font-family="Helvetica,sans-Serif" font-size="10.00">point_to_pointMDH</text>
</a>
</g>
</g>
<!-- Node4&#45;&gt;Node8 -->
<g id="edge7" class="edge"><title>Node4&#45;&gt;Node8</title>
<path fill="none" stroke="midnightblue" d="M288.138,-86C296.046,-86 304.892,-86 313.664,-86"/>
<polygon fill="midnightblue" stroke="midnightblue" points="288.028,-82.5001 278.028,-86 288.028,-89.5001 288.028,-82.5001"/>
</g>
<!-- Node9 -->
<g id="node9" class="node"><title>Node9</title>
<g id="a_node9"><a xlink:href="../../d3/d37/itm_8h.html#a3d6220d50384cf3904089e8320ff6617" target="_top" xlink:title="point_to_pointDH">
<polygon fill="white" stroke="black" points="318.5,-38.5 318.5,-57.5 410.5,-57.5 410.5,-38.5 318.5,-38.5"/>
<text text-anchor="middle" x="364.5" y="-45.5" font-family="Helvetica,sans-Serif" font-size="10.00">point_to_pointDH</text>
</a>
</g>
</g>
<!-- Node4&#45;&gt;Node9 -->
<g id="edge8" class="edge"><title>Node4&#45;&gt;Node9</title>
<path fill="none" stroke="midnightblue" d="M287.594,-75.869C303.089,-70.1798 322.31,-63.1229 337.533,-57.5338"/>
<polygon fill="midnightblue" stroke="midnightblue" points="286.209,-72.6487 278.028,-79.3809 288.622,-79.2199 286.209,-72.6487"/>
</g>
<!-- Node7 -->
<g id="node7" class="node"><title>Node7</title>
<g id="a_node7"><a xlink:href="../../d3/dcc/itm__its__py_8cpp.html#ab9bd9d469dbd1234f77f39093f765453" target="_top" xlink:title="itm_point_to_point_rels">
<polygon fill="white" stroke="black" points="451,-114.5 451,-133.5 568,-133.5 568,-114.5 451,-114.5"/>
<text text-anchor="middle" x="509.5" y="-121.5" font-family="Helvetica,sans-Serif" font-size="10.00">itm_point_to_point_rels</text>
</a>
</g>
</g>
<!-- Node6&#45;&gt;Node7 -->
<g id="edge6" class="edge"><title>Node6&#45;&gt;Node7</title>
<path fill="none" stroke="midnightblue" d="M423.556,-124C432.591,-124 441.922,-124 450.945,-124"/>
<polygon fill="midnightblue" stroke="midnightblue" points="423.515,-120.5 413.515,-124 423.515,-127.5 423.515,-120.5"/>
</g>
<!-- Node11 -->
<g id="node11" class="node"><title>Node11</title>
<g id="a_node11"><a xlink:href="../../d3/d37/itm_8h.html#a5e3421c4e7d0133df57f985ed4eacbfd" target="_top" xlink:title="ITMAreadBLoss">
<polygon fill="white" stroke="black" points="321,-0.5 321,-19.5 408,-19.5 408,-0.5 321,-0.5"/>
<text text-anchor="middle" x="364.5" y="-7.5" font-family="Helvetica,sans-Serif" font-size="10.00">ITMAreadBLoss</text>
</a>
</g>
</g>
<!-- Node10&#45;&gt;Node11 -->
<g id="edge10" class="edge"><title>Node10&#45;&gt;Node11</title>
<path fill="none" stroke="midnightblue" d="M286.656,-24.1066C296.984,-22.2106 309.072,-19.9917 320.562,-17.8823"/>
<polygon fill="midnightblue" stroke="midnightblue" points="285.833,-20.6992 276.629,-25.9473 287.097,-27.5841 285.833,-20.6992"/>
</g>
</g>
</svg>
        <g id="navigator" transform="translate(0 0)" fill="#404254">
                <rect fill="#f2f5e9" fill-opacity="0.5" stroke="#606060" stroke-width=".5" x="0" y="0" width="60" height="60"/>
                <use id="zoomplus" xlink:href="#zoomPlus" x="17" y="9" onmousedown="handleZoom(evt,'in')"/>
                <use id="zoomminus" xlink:href="#zoomMin" x="42" y="9" onmousedown="handleZoom(evt,'out')"/>
                <use id="reset" xlink:href="#resetDef" x="30" y="36" onmousedown="handleReset()"/>
                <g id="arrowUp" xlink:href="#dirArrow" transform="translate(30 24)" onmousedown="handlePan(0,-1)">
                  <use xlink:href="#rim" fill="#404040">
                        <set attributeName="fill" to="#808080" begin="arrowUp.mouseover" end="arrowUp.mouseout"/>
                  </use>
                  <path fill="none" stroke="white" stroke-width="1.5" d="M0,-3.0v7 M-2.5,-0.5L0,-3.0L2.5,-0.5"/>
                </g>
                <g id="arrowRight" xlink:href="#dirArrow" transform="rotate(90) translate(36 -43)" onmousedown="handlePan(1,0)">
                  <use xlink:href="#rim" fill="#404040">
                        <set attributeName="fill" to="#808080" begin="arrowRight.mouseover" end="arrowRight.mouseout"/>
                  </use>
                  <path fill="none" stroke="white" stroke-width="1.5" d="M0,-3.0v7 M-2.5,-0.5L0,-3.0L2.5,-0.5"/>
                </g>
                <g id="arrowDown" xlink:href="#dirArrow" transform="rotate(180) translate(-30 -48)" onmousedown="handlePan(0,1)">
                  <use xlink:href="#rim" fill="#404040">
                        <set attributeName="fill" to="#808080" begin="arrowDown.mouseover" end="arrowDown.mouseout"/>
                  </use>
                  <path fill="none" stroke="white" stroke-width="1.5" d="M0,-3.0v7 M-2.5,-0.5L0,-3.0L2.5,-0.5"/>
                </g>
                <g id="arrowLeft" xlink:href="#dirArrow" transform="rotate(270) translate(-36 17)" onmousedown="handlePan(-1,0)">
                  <use xlink:href="#rim" fill="#404040">
                        <set attributeName="fill" to="#808080" begin="arrowLeft.mouseover" end="arrowLeft.mouseout"/>
                  </use>
                  <path fill="none" stroke="white" stroke-width="1.5" d="M0,-3.0v7 M-2.5,-0.5L0,-3.0L2.5,-0.5"/>
                </g>
        </g>
        <svg viewBox="0 0 15 15" width="100%" height="30px" preserveAspectRatio="xMaxYMin meet">
         <g id="arrow_out" transform="scale(0.3 0.3)">
          <a xlink:href="itm_8cpp_aea4c472ad2b67e25eefe72767a817667_icgraph_org.svg" target="_base">
           <rect id="button" ry="5" rx="5" y="6" x="6" height="38" width="38"
                fill="#f2f5e9" fill-opacity="0.5" stroke="#606060" stroke-width="1.0"/>
           <path id="arrow"
             d="M 11.500037,31.436501 C 11.940474,20.09759 22.043105,11.32322 32.158766,21.979434 L 37.068811,17.246167 C 37.068811,17.246167 37.088388,32 37.088388,32 L 22.160133,31.978069 C 22.160133,31.978069 26.997745,27.140456 26.997745,27.140456 C 18.528582,18.264221 13.291696,25.230495 11.500037,31.436501 z"
             style="fill:#404040;"/>
          </a>
         </g>
        </svg>
</svg>
