<?xml version="1.0" encoding="UTF-8" standalone="no"?>
<!DOCTYPE svg PUBLIC "-//W3C//DTD SVG 1.1//EN"
 "http://www.w3.org/Graphics/SVG/1.1/DTD/svg11.dtd">
<!-- Generated by graphviz version 2.38.0 (20140413.2041)
 -->
<!-- Title: aknfe Pages: 1 -->
<svg width="561pt" height="180pt"
 viewBox="0.00 0.00 561.00 180.00" xmlns="http://www.w3.org/2000/svg" xmlns:xlink="http://www.w3.org/1999/xlink">
<g id="graph0" class="graph" transform="scale(1 1) rotate(0) translate(4 176)">
<title>aknfe</title>
<polygon fill="white" stroke="none" points="-4,4 -4,-176 557,-176 557,4 -4,4"/>
<!-- Node1 -->
<g id="node1" class="node"><title>Node1</title>
<polygon fill="#bfbfbf" stroke="black" points="0,-47.5 0,-66.5 41,-66.5 41,-47.5 0,-47.5"/>
<text text-anchor="middle" x="20.5" y="-54.5" font-family="Helvetica,sans-Serif" font-size="10.00">aknfe</text>
</g>
<!-- Node2 -->
<g id="node2" class="node"><title>Node2</title>
<g id="a_node2"><a xlink:href="../../d2/d31/itm_8cpp.html#a61774c377cce1be80117b174ac61eef2" target="_top" xlink:title="adiff">
<polygon fill="white" stroke="black" points="77,-47.5 77,-66.5 112,-66.5 112,-47.5 77,-47.5"/>
<text text-anchor="middle" x="94.5" y="-54.5" font-family="Helvetica,sans-Serif" font-size="10.00">adiff</text>
</a>
</g>
</g>
<!-- Node1&#45;&gt;Node2 -->
<g id="edge1" class="edge"><title>Node1&#45;&gt;Node2</title>
<path fill="none" stroke="midnightblue" d="M51.3754,-57C60.053,-57 69.2196,-57 76.7781,-57"/>
<polygon fill="midnightblue" stroke="midnightblue" points="51.1744,-53.5001 41.1743,-57 51.1743,-60.5001 51.1744,-53.5001"/>
</g>
<!-- Node3 -->
<g id="node3" class="node"><title>Node3</title>
<g id="a_node3"><a xlink:href="../../d2/d31/itm_8cpp.html#a32289828f24201e9dde6140e27708d73" target="_top" xlink:title="lrprop">
<polygon fill="white" stroke="black" points="148,-47.5 148,-66.5 189,-66.5 189,-47.5 148,-47.5"/>
<text text-anchor="middle" x="168.5" y="-54.5" font-family="Helvetica,sans-Serif" font-size="10.00">lrprop</text>
</a>
</g>
</g>
<!-- Node2&#45;&gt;Node3 -->
<g id="edge2" class="edge"><title>Node2&#45;&gt;Node3</title>
<path fill="none" stroke="midnightblue" d="M122.361,-57C130.808,-57 139.974,-57 147.826,-57"/>
<polygon fill="midnightblue" stroke="midnightblue" points="122.199,-53.5001 112.199,-57 122.199,-60.5001 122.199,-53.5001"/>
</g>
<!-- Node4 -->
<g id="node4" class="node"><title>Node4</title>
<g id="a_node4"><a xlink:href="../../d2/d31/itm_8cpp.html#ae682440b4eaee05406c08f8ae48e60d8" target="_top" xlink:title="qlrpfl">
<polygon fill="white" stroke="black" points="225,-76.5 225,-95.5 263,-95.5 263,-76.5 225,-76.5"/>
<text text-anchor="middle" x="244" y="-83.5" font-family="Helvetica,sans-Serif" font-size="10.00">qlrpfl</text>
</a>
</g>
</g>
<!-- Node3&#45;&gt;Node4 -->
<g id="edge3" class="edge"><title>Node3&#45;&gt;Node4</title>
<path fill="none" stroke="midnightblue" d="M198.746,-68.5393C207.529,-72.0048 216.91,-75.706 224.764,-78.8047"/>
<polygon fill="midnightblue" stroke="midnightblue" points="199.783,-65.186 189.197,-64.7715 197.214,-71.6975 199.783,-65.186"/>
</g>
<!-- Node10 -->
<g id="node10" class="node"><title>Node10</title>
<g id="a_node10"><a xlink:href="../../d2/d31/itm_8cpp.html#aac99abe6fa8a284a3e964aa7f45a8deb" target="_top" xlink:title="area">
<polygon fill="white" stroke="black" points="226.5,-19.5 226.5,-38.5 261.5,-38.5 261.5,-19.5 226.5,-19.5"/>
<text text-anchor="middle" x="244" y="-26.5" font-family="Helvetica,sans-Serif" font-size="10.00">area</text>
</a>
</g>
</g>
<!-- Node3&#45;&gt;Node10 -->
<g id="edge9" class="edge"><title>Node3&#45;&gt;Node10</title>
<path fill="none" stroke="midnightblue" d="M198.611,-45.9101C207.991,-42.3369 218.065,-38.4991 226.241,-35.3843"/>
<polygon fill="midnightblue" stroke="midnightblue" points="197.296,-42.6658 189.197,-49.4965 199.788,-49.2072 197.296,-42.6658"/>
</g>
<!-- Node5 -->
<g id="node5" class="node"><title>Node5</title>
<g id="a_node5"><a xlink:href="../../d3/d37/itm_8h.html#aad6a3ed1b693ddfc2884c909e39d3989" target="_top" xlink:title="point_to_point">
<polygon fill="white" stroke="black" points="311,-152.5 311,-171.5 388,-171.5 388,-152.5 311,-152.5"/>
<text text-anchor="middle" x="349.5" y="-159.5" font-family="Helvetica,sans-Serif" font-size="10.00">point_to_point</text>
</a>
</g>
</g>
<!-- Node4&#45;&gt;Node5 -->
<g id="edge4" class="edge"><title>Node4&#45;&gt;Node5</title>
<path fill="none" stroke="midnightblue" d="M258.439,-103.965C268.471,-116.335 283.135,-132.39 299,-143 304.586,-146.736 311.011,-149.886 317.343,-152.48"/>
<polygon fill="midnightblue" stroke="midnightblue" points="260.922,-101.458 252.003,-95.7396 255.409,-105.772 260.922,-101.458"/>
</g>
<!-- Node6 -->
<g id="node6" class="node"><title>Node6</title>
<g id="a_node6"><a xlink:href="../../d3/d37/itm_8h.html#acca1a0cc60cc78b1f95772c7dc981182" target="_top" xlink:title="point_to_point_rels">
<polygon fill="white" stroke="black" points="300.5,-114.5 300.5,-133.5 398.5,-133.5 398.5,-114.5 300.5,-114.5"/>
<text text-anchor="middle" x="349.5" y="-121.5" font-family="Helvetica,sans-Serif" font-size="10.00">point_to_point_rels</text>
</a>
</g>
</g>
<!-- Node4&#45;&gt;Node6 -->
<g id="edge5" class="edge"><title>Node4&#45;&gt;Node6</title>
<path fill="none" stroke="midnightblue" d="M272.594,-96.131C288.089,-101.82 307.31,-108.877 322.533,-114.466"/>
<polygon fill="midnightblue" stroke="midnightblue" points="273.622,-92.7801 263.028,-92.6191 271.209,-99.3513 273.622,-92.7801"/>
</g>
<!-- Node8 -->
<g id="node8" class="node"><title>Node8</title>
<g id="a_node8"><a xlink:href="../../d3/d37/itm_8h.html#a606b3a527141eef67be36272940cb1ee" target="_top" xlink:title="point_to_pointMDH">
<polygon fill="white" stroke="black" points="299,-76.5 299,-95.5 400,-95.5 400,-76.5 299,-76.5"/>
<text text-anchor="middle" x="349.5" y="-83.5" font-family="Helvetica,sans-Serif" font-size="10.00">point_to_pointMDH</text>
</a>
</g>
</g>
<!-- Node4&#45;&gt;Node8 -->
<g id="edge7" class="edge"><title>Node4&#45;&gt;Node8</title>
<path fill="none" stroke="midnightblue" d="M273.138,-86C281.046,-86 289.892,-86 298.664,-86"/>
<polygon fill="midnightblue" stroke="midnightblue" points="273.028,-82.5001 263.028,-86 273.028,-89.5001 273.028,-82.5001"/>
</g>
<!-- Node9 -->
<g id="node9" class="node"><title>Node9</title>
<g id="a_node9"><a xlink:href="../../d3/d37/itm_8h.html#a3d6220d50384cf3904089e8320ff6617" target="_top" xlink:title="point_to_pointDH">
<polygon fill="white" stroke="black" points="303.5,-38.5 303.5,-57.5 395.5,-57.5 395.5,-38.5 303.5,-38.5"/>
<text text-anchor="middle" x="349.5" y="-45.5" font-family="Helvetica,sans-Serif" font-size="10.00">point_to_pointDH</text>
</a>
</g>
</g>
<!-- Node4&#45;&gt;Node9 -->
<g id="edge8" class="edge"><title>Node4&#45;&gt;Node9</title>
<path fill="none" stroke="midnightblue" d="M272.594,-75.869C288.089,-70.1798 307.31,-63.1229 322.533,-57.5338"/>
<polygon fill="midnightblue" stroke="midnightblue" points="271.209,-72.6487 263.028,-79.3809 273.622,-79.2199 271.209,-72.6487"/>
</g>
<!-- Node7 -->
<g id="node7" class="node"><title>Node7</title>
<g id="a_node7"><a xlink:href="../../d3/dcc/itm__its__py_8cpp.html#ab9bd9d469dbd1234f77f39093f765453" target="_top" xlink:title="itm_point_to_point_rels">
<polygon fill="white" stroke="black" points="436,-114.5 436,-133.5 553,-133.5 553,-114.5 436,-114.5"/>
<text text-anchor="middle" x="494.5" y="-121.5" font-family="Helvetica,sans-Serif" font-size="10.00">itm_point_to_point_rels</text>
</a>
</g>
</g>
<!-- Node6&#45;&gt;Node7 -->
<g id="edge6" class="edge"><title>Node6&#45;&gt;Node7</title>
<path fill="none" stroke="midnightblue" d="M408.556,-124C417.591,-124 426.922,-124 435.945,-124"/>
<polygon fill="midnightblue" stroke="midnightblue" points="408.515,-120.5 398.515,-124 408.515,-127.5 408.515,-120.5"/>
</g>
<!-- Node11 -->
<g id="node11" class="node"><title>Node11</title>
<g id="a_node11"><a xlink:href="../../d3/d37/itm_8h.html#a5e3421c4e7d0133df57f985ed4eacbfd" target="_top" xlink:title="ITMAreadBLoss">
<polygon fill="white" stroke="black" points="306,-0.5 306,-19.5 393,-19.5 393,-0.5 306,-0.5"/>
<text text-anchor="middle" x="349.5" y="-7.5" font-family="Helvetica,sans-Serif" font-size="10.00">ITMAreadBLoss</text>
</a>
</g>
</g>
<!-- Node10&#45;&gt;Node11 -->
<g id="edge10" class="edge"><title>Node10&#45;&gt;Node11</title>
<path fill="none" stroke="midnightblue" d="M271.656,-24.1066C281.984,-22.2106 294.072,-19.9917 305.562,-17.8823"/>
<polygon fill="midnightblue" stroke="midnightblue" points="270.833,-20.6992 261.629,-25.9473 272.097,-27.5841 270.833,-20.6992"/>
</g>
</g>
</svg>
