<?xml version="1.0" encoding="UTF-8" standalone="no"?>
<!DOCTYPE svg PUBLIC "-//W3C//DTD SVG 1.1//EN"
 "http://www.w3.org/Graphics/SVG/1.1/DTD/svg11.dtd">
<!-- Generated by graphviz version 2.38.0 (20140413.2041)
 -->
<!-- Title: point_to_point_rels Pages: 1 -->
<svg width="461pt" height="593pt"
 viewBox="0.00 0.00 461.00 593.00" xmlns="http://www.w3.org/2000/svg" xmlns:xlink="http://www.w3.org/1999/xlink">
<g id="graph0" class="graph" transform="scale(1 1) rotate(0) translate(4 589)">
<title>point_to_point_rels</title>
<polygon fill="white" stroke="none" points="-4,4 -4,-589 457,-589 457,4 -4,4"/>
<!-- Node1 -->
<g id="node1" class="node"><title>Node1</title>
<polygon fill="#bfbfbf" stroke="black" points="0,-95.5 0,-114.5 98,-114.5 98,-95.5 0,-95.5"/>
<text text-anchor="middle" x="49" y="-102.5" font-family="Helvetica,sans-Serif" font-size="10.00">point_to_point_rels</text>
</g>
<!-- Node2 -->
<g id="node2" class="node"><title>Node2</title>
<g id="a_node2"><a xlink:href="../../d2/d31/itm_8cpp.html#ad0a12435e029210dab38fce002347a31" target="_top" xlink:title="qerfi">
<polygon fill="white" stroke="black" points="135.5,-76.5 135.5,-95.5 170.5,-95.5 170.5,-76.5 135.5,-76.5"/>
<text text-anchor="middle" x="153" y="-83.5" font-family="Helvetica,sans-Serif" font-size="10.00">qerfi</text>
</a>
</g>
</g>
<!-- Node1&#45;&gt;Node2 -->
<g id="edge1" class="edge"><title>Node1&#45;&gt;Node2</title>
<path fill="none" stroke="midnightblue" d="M98.0132,-96.0564C107.459,-94.2968 117.043,-92.5117 125.461,-90.9436"/>
<polygon fill="midnightblue" stroke="midnightblue" points="126.213,-94.3638 135.403,-89.0917 124.931,-87.4822 126.213,-94.3638"/>
</g>
<!-- Node4 -->
<g id="node4" class="node"><title>Node4</title>
<g id="a_node4"><a xlink:href="../../d2/d31/itm_8cpp.html#a35bdc04d015dd4e8c83f0ff5ffb4966a" target="_top" xlink:title="qlrps">
<polygon fill="white" stroke="black" points="134,-114.5 134,-133.5 172,-133.5 172,-114.5 134,-114.5"/>
<text text-anchor="middle" x="153" y="-121.5" font-family="Helvetica,sans-Serif" font-size="10.00">qlrps</text>
</a>
</g>
</g>
<!-- Node1&#45;&gt;Node4 -->
<g id="edge3" class="edge"><title>Node1&#45;&gt;Node4</title>
<path fill="none" stroke="midnightblue" d="M98.0132,-113.944C106.923,-115.603 115.955,-117.286 124.017,-118.787"/>
<polygon fill="midnightblue" stroke="midnightblue" points="123.491,-122.25 133.963,-120.64 124.773,-115.368 123.491,-122.25"/>
</g>
<!-- Node5 -->
<g id="node5" class="node"><title>Node5</title>
<g id="a_node5"><a xlink:href="../../d2/d31/itm_8cpp.html#ae682440b4eaee05406c08f8ae48e60d8" target="_top" xlink:title="qlrpfl">
<polygon fill="white" stroke="black" points="134,-247.5 134,-266.5 172,-266.5 172,-247.5 134,-247.5"/>
<text text-anchor="middle" x="153" y="-254.5" font-family="Helvetica,sans-Serif" font-size="10.00">qlrpfl</text>
</a>
</g>
</g>
<!-- Node1&#45;&gt;Node5 -->
<g id="edge4" class="edge"><title>Node1&#45;&gt;Node5</title>
<path fill="none" stroke="midnightblue" d="M56.3806,-114.508C73.0526,-139.353 118.131,-206.528 139.905,-238.976"/>
<polygon fill="midnightblue" stroke="midnightblue" points="137.143,-241.142 145.622,-247.495 142.956,-237.241 137.143,-241.142"/>
</g>
<!-- Node21 -->
<g id="node21" class="node"><title>Node21</title>
<g id="a_node21"><a xlink:href="../../d2/d31/itm_8cpp.html#af10b92806af5d5946a8332763321e2df" target="_top" xlink:title="avar">
<polygon fill="white" stroke="black" points="135.5,-38.5 135.5,-57.5 170.5,-57.5 170.5,-38.5 135.5,-38.5"/>
<text text-anchor="middle" x="153" y="-45.5" font-family="Helvetica,sans-Serif" font-size="10.00">avar</text>
</a>
</g>
</g>
<!-- Node1&#45;&gt;Node21 -->
<g id="edge36" class="edge"><title>Node1&#45;&gt;Node21</title>
<path fill="none" stroke="midnightblue" d="M67.3029,-95.3307C83.543,-86.2554 108.035,-72.569 126.51,-62.2443"/>
<polygon fill="midnightblue" stroke="midnightblue" points="128.269,-65.2712 135.291,-57.3376 124.854,-59.1606 128.269,-65.2712"/>
</g>
<!-- Node3 -->
<g id="node3" class="node"><title>Node3</title>
<g id="a_node3"><a xlink:href="../../d2/d31/itm_8cpp.html#aef74668a97df8c1c4614043e233d38fe" target="_top" xlink:title="mymax">
<polygon fill="white" stroke="black" points="384,-171.5 384,-190.5 433,-190.5 433,-171.5 384,-171.5"/>
<text text-anchor="middle" x="408.5" y="-178.5" font-family="Helvetica,sans-Serif" font-size="10.00">mymax</text>
</a>
</g>
</g>
<!-- Node2&#45;&gt;Node3 -->
<g id="edge2" class="edge"><title>Node2&#45;&gt;Node3</title>
<path fill="none" stroke="midnightblue" d="M170.633,-92.2332C211.8,-107.661 319.079,-147.864 374.016,-168.452"/>
<polygon fill="midnightblue" stroke="midnightblue" points="373.045,-171.825 383.637,-172.057 375.501,-165.271 373.045,-171.825"/>
</g>
<!-- Node5&#45;&gt;Node3 -->
<g id="edge17" class="edge"><title>Node5&#45;&gt;Node3</title>
<path fill="none" stroke="midnightblue" d="M157.856,-247.481C165.055,-231.018 182.187,-197.416 208,-181 258.489,-148.89 331.686,-160.118 373.951,-170.814"/>
<polygon fill="midnightblue" stroke="midnightblue" points="373.18,-174.231 383.744,-173.425 374.983,-167.467 373.18,-174.231"/>
</g>
<!-- Node6 -->
<g id="node6" class="node"><title>Node6</title>
<g id="a_node6"><a xlink:href="../../d2/d31/itm_8cpp.html#a33721834e531cc713891ff5da4ab5d1f" target="_top" xlink:title="hzns">
<polygon fill="white" stroke="black" points="209.5,-190.5 209.5,-209.5 247.5,-209.5 247.5,-190.5 209.5,-190.5"/>
<text text-anchor="middle" x="228.5" y="-197.5" font-family="Helvetica,sans-Serif" font-size="10.00">hzns</text>
</a>
</g>
</g>
<!-- Node5&#45;&gt;Node6 -->
<g id="edge5" class="edge"><title>Node5&#45;&gt;Node6</title>
<path fill="none" stroke="midnightblue" d="M166.468,-247.331C177.623,-238.68 194.179,-225.841 207.234,-215.716"/>
<polygon fill="midnightblue" stroke="midnightblue" points="209.459,-218.421 215.216,-209.526 205.169,-212.889 209.459,-218.421"/>
</g>
<!-- Node7 -->
<g id="node7" class="node"><title>Node7</title>
<g id="a_node7"><a xlink:href="../../d2/d31/itm_8cpp.html#ae383616ab74473e2622ac352721e342f" target="_top" xlink:title="mymin">
<polygon fill="white" stroke="black" points="385.5,-344.5 385.5,-363.5 431.5,-363.5 431.5,-344.5 385.5,-344.5"/>
<text text-anchor="middle" x="408.5" y="-351.5" font-family="Helvetica,sans-Serif" font-size="10.00">mymin</text>
</a>
</g>
</g>
<!-- Node5&#45;&gt;Node7 -->
<g id="edge6" class="edge"><title>Node5&#45;&gt;Node7</title>
<path fill="none" stroke="midnightblue" d="M172.231,-263.976C214.981,-280.334 322.11,-321.326 375.796,-341.868"/>
<polygon fill="midnightblue" stroke="midnightblue" points="374.58,-345.151 385.17,-345.456 377.081,-338.613 374.58,-345.151"/>
</g>
<!-- Node8 -->
<g id="node8" class="node"><title>Node8</title>
<g id="a_node8"><a xlink:href="../../d2/d31/itm_8cpp.html#a45e678693240356cd41b59d8edb5bb12" target="_top" xlink:title="d1thx">
<polygon fill="white" stroke="black" points="208,-228.5 208,-247.5 249,-247.5 249,-228.5 208,-228.5"/>
<text text-anchor="middle" x="228.5" y="-235.5" font-family="Helvetica,sans-Serif" font-size="10.00">d1thx</text>
</a>
</g>
</g>
<!-- Node5&#45;&gt;Node8 -->
<g id="edge7" class="edge"><title>Node5&#45;&gt;Node8</title>
<path fill="none" stroke="midnightblue" d="M172.169,-252.303C179.991,-250.281 189.337,-247.865 198.101,-245.6"/>
<polygon fill="midnightblue" stroke="midnightblue" points="199.191,-248.933 207.996,-243.042 197.439,-242.156 199.191,-248.933"/>
</g>
<!-- Node9 -->
<g id="node9" class="node"><title>Node9</title>
<g id="a_node9"><a xlink:href="../../d2/d31/itm_8cpp.html#a95a65538c0942d9e797bc3ea36ab7f08" target="_top" xlink:title="z1sq1">
<polygon fill="white" stroke="black" points="285,-494.5 285,-513.5 328,-513.5 328,-494.5 285,-494.5"/>
<text text-anchor="middle" x="306.5" y="-501.5" font-family="Helvetica,sans-Serif" font-size="10.00">z1sq1</text>
</a>
</g>
</g>
<!-- Node5&#45;&gt;Node9 -->
<g id="edge15" class="edge"><title>Node5&#45;&gt;Node9</title>
<path fill="none" stroke="midnightblue" d="M155.813,-266.571C160.876,-291.603 176.875,-360.427 208,-409 228.712,-441.323 262.395,-470.875 284.249,-488.159"/>
<polygon fill="midnightblue" stroke="midnightblue" points="282.22,-491.015 292.269,-494.372 286.506,-485.481 282.22,-491.015"/>
</g>
<!-- Node10 -->
<g id="node10" class="node"><title>Node10</title>
<g id="a_node10"><a xlink:href="../../d2/d31/itm_8cpp.html#ae61eab5929102f86b606d9007f0cc139" target="_top" xlink:title="FORTRAN_DIM">
<polygon fill="white" stroke="black" points="364,-480.5 364,-499.5 453,-499.5 453,-480.5 364,-480.5"/>
<text text-anchor="middle" x="408.5" y="-487.5" font-family="Helvetica,sans-Serif" font-size="10.00">FORTRAN_DIM</text>
</a>
</g>
</g>
<!-- Node5&#45;&gt;Node10 -->
<g id="edge16" class="edge"><title>Node5&#45;&gt;Node10</title>
<path fill="none" stroke="midnightblue" d="M154.274,-266.625C156.15,-311.474 170.81,-500.331 285,-561 301.877,-569.967 310.684,-569.086 328,-561 350.583,-550.454 345.308,-534.488 364,-518 369.34,-513.29 375.544,-508.811 381.566,-504.873"/>
<polygon fill="midnightblue" stroke="midnightblue" points="383.504,-507.789 390.135,-499.526 379.798,-501.851 383.504,-507.789"/>
</g>
<!-- Node12 -->
<g id="node12" class="node"><title>Node12</title>
<g id="a_node12"><a xlink:href="../../d2/d31/itm_8cpp.html#a32289828f24201e9dde6140e27708d73" target="_top" xlink:title="lrprop">
<polygon fill="white" stroke="black" points="208,-380.5 208,-399.5 249,-399.5 249,-380.5 208,-380.5"/>
<text text-anchor="middle" x="228.5" y="-387.5" font-family="Helvetica,sans-Serif" font-size="10.00">lrprop</text>
</a>
</g>
</g>
<!-- Node5&#45;&gt;Node12 -->
<g id="edge18" class="edge"><title>Node5&#45;&gt;Node12</title>
<path fill="none" stroke="midnightblue" d="M159.286,-266.565C171.358,-288.41 201.137,-342.296 217.061,-371.11"/>
<polygon fill="midnightblue" stroke="midnightblue" points="214.163,-373.103 222.064,-380.163 220.29,-369.717 214.163,-373.103"/>
</g>
<!-- Node8&#45;&gt;Node3 -->
<g id="edge9" class="edge"><title>Node8&#45;&gt;Node3</title>
<path fill="none" stroke="midnightblue" d="M239.496,-228.41C242.57,-225.421 245.947,-222.096 249,-219 265.335,-202.435 263.629,-190.192 285,-181 313.16,-168.887 348.445,-170.415 373.904,-174.062"/>
<polygon fill="midnightblue" stroke="midnightblue" points="373.393,-177.525 383.823,-175.66 374.507,-170.614 373.393,-177.525"/>
</g>
<!-- Node8&#45;&gt;Node7 -->
<g id="edge8" class="edge"><title>Node8&#45;&gt;Node7</title>
<path fill="none" stroke="midnightblue" d="M249.01,-238.036C270.556,-239.058 305.205,-243.723 328,-262 356.224,-284.629 337.834,-310.02 364,-335 367.539,-338.379 371.777,-341.212 376.198,-343.572"/>
<polygon fill="midnightblue" stroke="midnightblue" points="374.818,-346.79 385.367,-347.772 377.733,-340.425 374.818,-346.79"/>
</g>
<!-- Node8&#45;&gt;Node9 -->
<g id="edge10" class="edge"><title>Node8&#45;&gt;Node9</title>
<path fill="none" stroke="midnightblue" d="M231.754,-247.666C238.791,-277.552 261.297,-371.022 285,-447 288.987,-459.781 294.079,-473.947 298.19,-484.959"/>
<polygon fill="midnightblue" stroke="midnightblue" points="294.951,-486.289 301.763,-494.403 301.498,-483.812 294.951,-486.289"/>
</g>
<!-- Node11 -->
<g id="node11" class="node"><title>Node11</title>
<g id="a_node11"><a xlink:href="../../d2/d31/itm_8cpp.html#a8ab54b7902d55b592e2d76dafdb93069" target="_top" xlink:title="qtile">
<polygon fill="white" stroke="black" points="289,-190.5 289,-209.5 324,-209.5 324,-190.5 289,-190.5"/>
<text text-anchor="middle" x="306.5" y="-197.5" font-family="Helvetica,sans-Serif" font-size="10.00">qtile</text>
</a>
</g>
</g>
<!-- Node8&#45;&gt;Node11 -->
<g id="edge12" class="edge"><title>Node8&#45;&gt;Node11</title>
<path fill="none" stroke="midnightblue" d="M248.678,-228.411C258.075,-223.712 269.527,-217.986 279.681,-212.909"/>
<polygon fill="midnightblue" stroke="midnightblue" points="281.531,-215.898 288.91,-208.295 278.4,-209.637 281.531,-215.898"/>
</g>
<!-- Node9&#45;&gt;Node10 -->
<g id="edge11" class="edge"><title>Node9&#45;&gt;Node10</title>
<path fill="none" stroke="midnightblue" d="M328.22,-501.099C335.702,-500.052 344.534,-498.815 353.539,-497.555"/>
<polygon fill="midnightblue" stroke="midnightblue" points="354.298,-500.983 363.716,-496.13 353.327,-494.05 354.298,-500.983"/>
</g>
<!-- Node11&#45;&gt;Node3 -->
<g id="edge14" class="edge"><title>Node11&#45;&gt;Node3</title>
<path fill="none" stroke="midnightblue" d="M324.013,-196.863C337.519,-194.296 357.059,-190.584 373.84,-187.395"/>
<polygon fill="midnightblue" stroke="midnightblue" points="374.682,-190.798 383.853,-185.493 373.375,-183.921 374.682,-190.798"/>
</g>
<!-- Node11&#45;&gt;Node7 -->
<g id="edge13" class="edge"><title>Node11&#45;&gt;Node7</title>
<path fill="none" stroke="midnightblue" d="M317.235,-209.611C321.009,-213.757 325.11,-218.836 328,-224 353.33,-269.257 329.171,-296.572 364,-335 367.352,-338.698 371.552,-341.71 376.012,-344.153"/>
<polygon fill="midnightblue" stroke="midnightblue" points="374.792,-347.443 385.343,-348.407 377.696,-341.074 374.792,-347.443"/>
</g>
<!-- Node12&#45;&gt;Node3 -->
<g id="edge19" class="edge"><title>Node12&#45;&gt;Node3</title>
<path fill="none" stroke="midnightblue" d="M237.611,-380.477C265.353,-347.903 356.72,-240.624 392.727,-198.346"/>
<polygon fill="midnightblue" stroke="midnightblue" points="395.522,-200.462 399.342,-190.579 390.193,-195.923 395.522,-200.462"/>
</g>
<!-- Node12&#45;&gt;Node7 -->
<g id="edge28" class="edge"><title>Node12&#45;&gt;Node7</title>
<path fill="none" stroke="midnightblue" d="M249.146,-386.331C269.043,-382.586 300.693,-376.553 328,-371 343.582,-367.832 360.845,-364.16 375.293,-361.041"/>
<polygon fill="midnightblue" stroke="midnightblue" points="376.219,-364.421 385.251,-358.883 374.736,-357.58 376.219,-364.421"/>
</g>
<!-- Node12&#45;&gt;Node10 -->
<g id="edge29" class="edge"><title>Node12&#45;&gt;Node10</title>
<path fill="none" stroke="midnightblue" d="M236.7,-399.818C246.383,-412.383 264.743,-434.068 285,-447 306.514,-460.734 332.965,-470.732 355.775,-477.611"/>
<polygon fill="midnightblue" stroke="midnightblue" points="355.056,-481.046 365.635,-480.462 357.001,-474.322 355.056,-481.046"/>
</g>
<!-- Node13 -->
<g id="node13" class="node"><title>Node13</title>
<g id="a_node13"><a xlink:href="../../d2/d31/itm_8cpp.html#a61774c377cce1be80117b174ac61eef2" target="_top" xlink:title="adiff">
<polygon fill="white" stroke="black" points="289,-532.5 289,-551.5 324,-551.5 324,-532.5 289,-532.5"/>
<text text-anchor="middle" x="306.5" y="-539.5" font-family="Helvetica,sans-Serif" font-size="10.00">adiff</text>
</a>
</g>
</g>
<!-- Node12&#45;&gt;Node13 -->
<g id="edge20" class="edge"><title>Node12&#45;&gt;Node13</title>
<path fill="none" stroke="midnightblue" d="M232.005,-399.725C238.242,-422.707 256.074,-481.555 285,-523 285.437,-523.627 285.899,-524.248 286.379,-524.863"/>
<polygon fill="midnightblue" stroke="midnightblue" points="283.953,-527.394 293.332,-532.321 289.073,-522.62 283.953,-527.394"/>
</g>
<!-- Node16 -->
<g id="node16" class="node"><title>Node16</title>
<g id="a_node16"><a xlink:href="../../d2/d31/itm_8cpp.html#a404799cf89ce54ce7b92e13ad355ad85" target="_top" xlink:title="alos">
<polygon fill="white" stroke="black" points="289,-342.5 289,-361.5 324,-361.5 324,-342.5 289,-342.5"/>
<text text-anchor="middle" x="306.5" y="-349.5" font-family="Helvetica,sans-Serif" font-size="10.00">alos</text>
</a>
</g>
</g>
<!-- Node12&#45;&gt;Node16 -->
<g id="edge24" class="edge"><title>Node12&#45;&gt;Node16</title>
<path fill="none" stroke="midnightblue" d="M248.678,-380.411C258.075,-375.712 269.527,-369.986 279.681,-364.909"/>
<polygon fill="midnightblue" stroke="midnightblue" points="281.531,-367.898 288.91,-360.295 278.4,-361.637 281.531,-367.898"/>
</g>
<!-- Node18 -->
<g id="node18" class="node"><title>Node18</title>
<g id="a_node18"><a xlink:href="../../d2/d31/itm_8cpp.html#a74cbbcd996594f97dd6088dbbaff27c7" target="_top" xlink:title="ascat">
<polygon fill="white" stroke="black" points="286,-418.5 286,-437.5 327,-437.5 327,-418.5 286,-418.5"/>
<text text-anchor="middle" x="306.5" y="-425.5" font-family="Helvetica,sans-Serif" font-size="10.00">ascat</text>
</a>
</g>
</g>
<!-- Node12&#45;&gt;Node18 -->
<g id="edge30" class="edge"><title>Node12&#45;&gt;Node18</title>
<path fill="none" stroke="midnightblue" d="M248.678,-399.589C257.319,-403.909 267.697,-409.098 277.205,-413.853"/>
<polygon fill="midnightblue" stroke="midnightblue" points="275.819,-417.072 286.328,-418.414 278.949,-410.811 275.819,-417.072"/>
</g>
<!-- Node13&#45;&gt;Node7 -->
<g id="edge21" class="edge"><title>Node13&#45;&gt;Node7</title>
<path fill="none" stroke="midnightblue" d="M320.454,-532.151C323.291,-529.456 326.032,-526.346 328,-523 362.106,-465.024 322.158,-428.666 364,-376 367.336,-371.801 371.687,-368.332 376.345,-365.49"/>
<polygon fill="midnightblue" stroke="midnightblue" points="378.213,-368.465 385.495,-360.769 375.003,-362.244 378.213,-368.465"/>
</g>
<!-- Node14 -->
<g id="node14" class="node"><title>Node14</title>
<g id="a_node14"><a xlink:href="../../d2/d31/itm_8cpp.html#a58865d6a14f0fb4c0da66d610f830cdb" target="_top" xlink:title="fht">
<polygon fill="white" stroke="black" points="394,-565.5 394,-584.5 423,-584.5 423,-565.5 394,-565.5"/>
<text text-anchor="middle" x="408.5" y="-572.5" font-family="Helvetica,sans-Serif" font-size="10.00">fht</text>
</a>
</g>
</g>
<!-- Node13&#45;&gt;Node14 -->
<g id="edge22" class="edge"><title>Node13&#45;&gt;Node14</title>
<path fill="none" stroke="midnightblue" d="M324.013,-547.449C340.413,-552.861 365.707,-561.208 384.158,-567.297"/>
<polygon fill="midnightblue" stroke="midnightblue" points="383.264,-570.688 393.857,-570.498 385.458,-564.04 383.264,-570.688"/>
</g>
<!-- Node15 -->
<g id="node15" class="node"><title>Node15</title>
<g id="a_node15"><a xlink:href="../../d2/d31/itm_8cpp.html#a133ac157c106bdbab35606739556ed65" target="_top" xlink:title="aknfe">
<polygon fill="white" stroke="black" points="388,-527.5 388,-546.5 429,-546.5 429,-527.5 388,-527.5"/>
<text text-anchor="middle" x="408.5" y="-534.5" font-family="Helvetica,sans-Serif" font-size="10.00">aknfe</text>
</a>
</g>
</g>
<!-- Node13&#45;&gt;Node15 -->
<g id="edge23" class="edge"><title>Node13&#45;&gt;Node15</title>
<path fill="none" stroke="midnightblue" d="M324.013,-541.174C338.53,-540.449 360.017,-539.374 377.557,-538.497"/>
<polygon fill="midnightblue" stroke="midnightblue" points="378.057,-541.977 387.87,-537.982 377.708,-534.985 378.057,-541.977"/>
</g>
<!-- Node16&#45;&gt;Node3 -->
<g id="edge25" class="edge"><title>Node16&#45;&gt;Node3</title>
<path fill="none" stroke="midnightblue" d="M316.776,-342.103C320.48,-337.914 324.652,-332.88 328,-328 357.823,-284.532 385.358,-228.721 398.831,-199.981"/>
<polygon fill="midnightblue" stroke="midnightblue" points="402.108,-201.235 403.137,-190.69 395.756,-198.292 402.108,-201.235"/>
</g>
<!-- Node16&#45;&gt;Node7 -->
<g id="edge26" class="edge"><title>Node16&#45;&gt;Node7</title>
<path fill="none" stroke="midnightblue" d="M324.013,-352.33C337.887,-352.608 358.127,-353.013 375.203,-353.354"/>
<polygon fill="midnightblue" stroke="midnightblue" points="375.274,-356.856 385.342,-353.557 375.414,-349.857 375.274,-356.856"/>
</g>
<!-- Node17 -->
<g id="node17" class="node"><title>Node17</title>
<g id="a_node17"><a xlink:href="../../d2/d31/itm_8cpp.html#aea4c472ad2b67e25eefe72767a817667" target="_top" xlink:title="abq_alos">
<polygon fill="white" stroke="black" points="380.5,-306.5 380.5,-325.5 436.5,-325.5 436.5,-306.5 380.5,-306.5"/>
<text text-anchor="middle" x="408.5" y="-313.5" font-family="Helvetica,sans-Serif" font-size="10.00">abq_alos</text>
</a>
</g>
</g>
<!-- Node16&#45;&gt;Node17 -->
<g id="edge27" class="edge"><title>Node16&#45;&gt;Node17</title>
<path fill="none" stroke="midnightblue" d="M324.013,-346.055C336.784,-341.458 354.95,-334.918 371.077,-329.112"/>
<polygon fill="midnightblue" stroke="midnightblue" points="372.565,-332.297 380.788,-325.616 370.194,-325.71 372.565,-332.297"/>
</g>
<!-- Node18&#45;&gt;Node3 -->
<g id="edge31" class="edge"><title>Node18&#45;&gt;Node3</title>
<path fill="none" stroke="midnightblue" d="M311.42,-418.317C326.324,-381.506 379.631,-249.838 399.744,-200.158"/>
<polygon fill="midnightblue" stroke="midnightblue" points="403.098,-201.198 403.607,-190.616 396.61,-198.571 403.098,-201.198"/>
</g>
<!-- Node18&#45;&gt;Node7 -->
<g id="edge32" class="edge"><title>Node18&#45;&gt;Node7</title>
<path fill="none" stroke="midnightblue" d="M316.414,-418.313C327.013,-407.166 345.593,-388.758 364,-376 367.965,-373.252 372.32,-370.637 376.696,-368.232"/>
<polygon fill="midnightblue" stroke="midnightblue" points="378.326,-371.33 385.589,-363.615 375.101,-365.117 378.326,-371.33"/>
</g>
<!-- Node18&#45;&gt;Node10 -->
<g id="edge34" class="edge"><title>Node18&#45;&gt;Node10</title>
<path fill="none" stroke="midnightblue" d="M323.125,-437.688C339.27,-447.697 364.682,-463.453 383.402,-475.059"/>
<polygon fill="midnightblue" stroke="midnightblue" points="381.641,-478.086 391.985,-480.381 385.33,-472.136 381.641,-478.086"/>
</g>
<!-- Node19 -->
<g id="node19" class="node"><title>Node19</title>
<g id="a_node19"><a xlink:href="../../d2/d31/itm_8cpp.html#a8e415ee823bbb4b0da13d5f81f042d7f" target="_top" xlink:title="h0f">
<polygon fill="white" stroke="black" points="393.5,-423.5 393.5,-442.5 423.5,-442.5 423.5,-423.5 393.5,-423.5"/>
<text text-anchor="middle" x="408.5" y="-430.5" font-family="Helvetica,sans-Serif" font-size="10.00">h0f</text>
</a>
</g>
</g>
<!-- Node18&#45;&gt;Node19 -->
<g id="edge33" class="edge"><title>Node18&#45;&gt;Node19</title>
<path fill="none" stroke="midnightblue" d="M327.257,-428.988C343.226,-429.786 365.787,-430.914 382.921,-431.771"/>
<polygon fill="midnightblue" stroke="midnightblue" points="383.111,-435.285 393.274,-432.289 383.461,-428.294 383.111,-435.285"/>
</g>
<!-- Node20 -->
<g id="node20" class="node"><title>Node20</title>
<g id="a_node20"><a xlink:href="../../d2/d31/itm_8cpp.html#a5cd3659f451452a38a465a50992b9e7c" target="_top" xlink:title="ahd">
<polygon fill="white" stroke="black" points="392.5,-385.5 392.5,-404.5 424.5,-404.5 424.5,-385.5 392.5,-385.5"/>
<text text-anchor="middle" x="408.5" y="-392.5" font-family="Helvetica,sans-Serif" font-size="10.00">ahd</text>
</a>
</g>
</g>
<!-- Node18&#45;&gt;Node20 -->
<g id="edge35" class="edge"><title>Node18&#45;&gt;Node20</title>
<path fill="none" stroke="midnightblue" d="M327.257,-421.48C343.095,-416.254 365.418,-408.887 382.499,-403.25"/>
<polygon fill="midnightblue" stroke="midnightblue" points="383.953,-406.456 392.353,-399.999 381.76,-399.809 383.953,-406.456"/>
</g>
<!-- Node21&#45;&gt;Node3 -->
<g id="edge37" class="edge"><title>Node21&#45;&gt;Node3</title>
<path fill="none" stroke="midnightblue" d="M170.632,-55.1578C201.978,-68.8167 271.706,-100.008 328,-131 347.701,-141.846 369.251,-155.519 384.938,-165.825"/>
<polygon fill="midnightblue" stroke="midnightblue" points="383.17,-168.851 393.439,-171.456 387.036,-163.016 383.17,-168.851"/>
</g>
<!-- Node22 -->
<g id="node22" class="node"><title>Node22</title>
<g id="a_node22"><a xlink:href="../../d2/d31/itm_8cpp.html#acc398b6d1b1334689f775af613edb43f" target="_top" xlink:title="curve">
<polygon fill="white" stroke="black" points="208,-0.5 208,-19.5 249,-19.5 249,-0.5 208,-0.5"/>
<text text-anchor="middle" x="228.5" y="-7.5" font-family="Helvetica,sans-Serif" font-size="10.00">curve</text>
</a>
</g>
</g>
<!-- Node21&#45;&gt;Node22 -->
<g id="edge38" class="edge"><title>Node21&#45;&gt;Node22</title>
<path fill="none" stroke="midnightblue" d="M170.678,-39.3772C179.344,-34.8967 190.159,-29.3057 200.02,-24.2073"/>
<polygon fill="midnightblue" stroke="midnightblue" points="201.806,-27.224 209.082,-19.5223 198.591,-21.0059 201.806,-27.224"/>
</g>
</g>
</svg>
