<?xml version="1.0" encoding="UTF-8" standalone="no"?>
<!DOCTYPE svg PUBLIC "-//W3C//DTD SVG 1.1//EN"
 "http://www.w3.org/Graphics/SVG/1.1/DTD/svg11.dtd">
<!-- Generated by graphviz version 2.38.0 (20140413.2041)
 -->
<!-- Title: h0f Pages: 1 -->
<svg width="556pt" height="180pt"
 viewBox="0.00 0.00 556.00 180.00" xmlns="http://www.w3.org/2000/svg" xmlns:xlink="http://www.w3.org/1999/xlink">
<g id="graph0" class="graph" transform="scale(1 1) rotate(0) translate(4 176)">
<title>h0f</title>
<polygon fill="white" stroke="none" points="-4,4 -4,-176 552,-176 552,4 -4,4"/>
<!-- Node1 -->
<g id="node1" class="node"><title>Node1</title>
<polygon fill="#bfbfbf" stroke="black" points="0,-47.5 0,-66.5 30,-66.5 30,-47.5 0,-47.5"/>
<text text-anchor="middle" x="15" y="-54.5" font-family="Helvetica,sans-Serif" font-size="10.00">h0f</text>
</g>
<!-- Node2 -->
<g id="node2" class="node"><title>Node2</title>
<g id="a_node2"><a xlink:href="../../d2/d31/itm_8cpp.html#a74cbbcd996594f97dd6088dbbaff27c7" target="_top" xlink:title="ascat">
<polygon fill="white" stroke="black" points="66,-47.5 66,-66.5 107,-66.5 107,-47.5 66,-47.5"/>
<text text-anchor="middle" x="86.5" y="-54.5" font-family="Helvetica,sans-Serif" font-size="10.00">ascat</text>
</a>
</g>
</g>
<!-- Node1&#45;&gt;Node2 -->
<g id="edge1" class="edge"><title>Node1&#45;&gt;Node2</title>
<path fill="none" stroke="midnightblue" d="M40.0884,-57C48.5296,-57 57.9002,-57 65.9265,-57"/>
<polygon fill="midnightblue" stroke="midnightblue" points="40.0644,-53.5001 30.0644,-57 40.0643,-60.5001 40.0644,-53.5001"/>
</g>
<!-- Node3 -->
<g id="node3" class="node"><title>Node3</title>
<g id="a_node3"><a xlink:href="../../d2/d31/itm_8cpp.html#a32289828f24201e9dde6140e27708d73" target="_top" xlink:title="lrprop">
<polygon fill="white" stroke="black" points="143,-47.5 143,-66.5 184,-66.5 184,-47.5 143,-47.5"/>
<text text-anchor="middle" x="163.5" y="-54.5" font-family="Helvetica,sans-Serif" font-size="10.00">lrprop</text>
</a>
</g>
</g>
<!-- Node2&#45;&gt;Node3 -->
<g id="edge2" class="edge"><title>Node2&#45;&gt;Node3</title>
<path fill="none" stroke="midnightblue" d="M117.305,-57C125.921,-57 135.104,-57 142.926,-57"/>
<polygon fill="midnightblue" stroke="midnightblue" points="117.205,-53.5001 107.205,-57 117.205,-60.5001 117.205,-53.5001"/>
</g>
<!-- Node4 -->
<g id="node4" class="node"><title>Node4</title>
<g id="a_node4"><a xlink:href="../../d2/d31/itm_8cpp.html#ae682440b4eaee05406c08f8ae48e60d8" target="_top" xlink:title="qlrpfl">
<polygon fill="white" stroke="black" points="220,-76.5 220,-95.5 258,-95.5 258,-76.5 220,-76.5"/>
<text text-anchor="middle" x="239" y="-83.5" font-family="Helvetica,sans-Serif" font-size="10.00">qlrpfl</text>
</a>
</g>
</g>
<!-- Node3&#45;&gt;Node4 -->
<g id="edge3" class="edge"><title>Node3&#45;&gt;Node4</title>
<path fill="none" stroke="midnightblue" d="M193.746,-68.5393C202.529,-72.0048 211.91,-75.706 219.764,-78.8047"/>
<polygon fill="midnightblue" stroke="midnightblue" points="194.783,-65.186 184.197,-64.7715 192.214,-71.6975 194.783,-65.186"/>
</g>
<!-- Node10 -->
<g id="node10" class="node"><title>Node10</title>
<g id="a_node10"><a xlink:href="../../d2/d31/itm_8cpp.html#aac99abe6fa8a284a3e964aa7f45a8deb" target="_top" xlink:title="area">
<polygon fill="white" stroke="black" points="221.5,-19.5 221.5,-38.5 256.5,-38.5 256.5,-19.5 221.5,-19.5"/>
<text text-anchor="middle" x="239" y="-26.5" font-family="Helvetica,sans-Serif" font-size="10.00">area</text>
</a>
</g>
</g>
<!-- Node3&#45;&gt;Node10 -->
<g id="edge9" class="edge"><title>Node3&#45;&gt;Node10</title>
<path fill="none" stroke="midnightblue" d="M193.611,-45.9101C202.991,-42.3369 213.065,-38.4991 221.241,-35.3843"/>
<polygon fill="midnightblue" stroke="midnightblue" points="192.296,-42.6658 184.197,-49.4965 194.788,-49.2072 192.296,-42.6658"/>
</g>
<!-- Node5 -->
<g id="node5" class="node"><title>Node5</title>
<g id="a_node5"><a xlink:href="../../d3/d37/itm_8h.html#aad6a3ed1b693ddfc2884c909e39d3989" target="_top" xlink:title="point_to_point">
<polygon fill="white" stroke="black" points="306,-152.5 306,-171.5 383,-171.5 383,-152.5 306,-152.5"/>
<text text-anchor="middle" x="344.5" y="-159.5" font-family="Helvetica,sans-Serif" font-size="10.00">point_to_point</text>
</a>
</g>
</g>
<!-- Node4&#45;&gt;Node5 -->
<g id="edge4" class="edge"><title>Node4&#45;&gt;Node5</title>
<path fill="none" stroke="midnightblue" d="M253.439,-103.965C263.471,-116.335 278.135,-132.39 294,-143 299.586,-146.736 306.011,-149.886 312.343,-152.48"/>
<polygon fill="midnightblue" stroke="midnightblue" points="255.922,-101.458 247.003,-95.7396 250.409,-105.772 255.922,-101.458"/>
</g>
<!-- Node6 -->
<g id="node6" class="node"><title>Node6</title>
<g id="a_node6"><a xlink:href="../../d3/d37/itm_8h.html#acca1a0cc60cc78b1f95772c7dc981182" target="_top" xlink:title="point_to_point_rels">
<polygon fill="white" stroke="black" points="295.5,-114.5 295.5,-133.5 393.5,-133.5 393.5,-114.5 295.5,-114.5"/>
<text text-anchor="middle" x="344.5" y="-121.5" font-family="Helvetica,sans-Serif" font-size="10.00">point_to_point_rels</text>
</a>
</g>
</g>
<!-- Node4&#45;&gt;Node6 -->
<g id="edge5" class="edge"><title>Node4&#45;&gt;Node6</title>
<path fill="none" stroke="midnightblue" d="M267.594,-96.131C283.089,-101.82 302.31,-108.877 317.533,-114.466"/>
<polygon fill="midnightblue" stroke="midnightblue" points="268.622,-92.7801 258.028,-92.6191 266.209,-99.3513 268.622,-92.7801"/>
</g>
<!-- Node8 -->
<g id="node8" class="node"><title>Node8</title>
<g id="a_node8"><a xlink:href="../../d3/d37/itm_8h.html#a606b3a527141eef67be36272940cb1ee" target="_top" xlink:title="point_to_pointMDH">
<polygon fill="white" stroke="black" points="294,-76.5 294,-95.5 395,-95.5 395,-76.5 294,-76.5"/>
<text text-anchor="middle" x="344.5" y="-83.5" font-family="Helvetica,sans-Serif" font-size="10.00">point_to_pointMDH</text>
</a>
</g>
</g>
<!-- Node4&#45;&gt;Node8 -->
<g id="edge7" class="edge"><title>Node4&#45;&gt;Node8</title>
<path fill="none" stroke="midnightblue" d="M268.138,-86C276.046,-86 284.892,-86 293.664,-86"/>
<polygon fill="midnightblue" stroke="midnightblue" points="268.028,-82.5001 258.028,-86 268.028,-89.5001 268.028,-82.5001"/>
</g>
<!-- Node9 -->
<g id="node9" class="node"><title>Node9</title>
<g id="a_node9"><a xlink:href="../../d3/d37/itm_8h.html#a3d6220d50384cf3904089e8320ff6617" target="_top" xlink:title="point_to_pointDH">
<polygon fill="white" stroke="black" points="298.5,-38.5 298.5,-57.5 390.5,-57.5 390.5,-38.5 298.5,-38.5"/>
<text text-anchor="middle" x="344.5" y="-45.5" font-family="Helvetica,sans-Serif" font-size="10.00">point_to_pointDH</text>
</a>
</g>
</g>
<!-- Node4&#45;&gt;Node9 -->
<g id="edge8" class="edge"><title>Node4&#45;&gt;Node9</title>
<path fill="none" stroke="midnightblue" d="M267.594,-75.869C283.089,-70.1798 302.31,-63.1229 317.533,-57.5338"/>
<polygon fill="midnightblue" stroke="midnightblue" points="266.209,-72.6487 258.028,-79.3809 268.622,-79.2199 266.209,-72.6487"/>
</g>
<!-- Node7 -->
<g id="node7" class="node"><title>Node7</title>
<g id="a_node7"><a xlink:href="../../d3/dcc/itm__its__py_8cpp.html#ab9bd9d469dbd1234f77f39093f765453" target="_top" xlink:title="itm_point_to_point_rels">
<polygon fill="white" stroke="black" points="431,-114.5 431,-133.5 548,-133.5 548,-114.5 431,-114.5"/>
<text text-anchor="middle" x="489.5" y="-121.5" font-family="Helvetica,sans-Serif" font-size="10.00">itm_point_to_point_rels</text>
</a>
</g>
</g>
<!-- Node6&#45;&gt;Node7 -->
<g id="edge6" class="edge"><title>Node6&#45;&gt;Node7</title>
<path fill="none" stroke="midnightblue" d="M403.556,-124C412.591,-124 421.922,-124 430.945,-124"/>
<polygon fill="midnightblue" stroke="midnightblue" points="403.515,-120.5 393.515,-124 403.515,-127.5 403.515,-120.5"/>
</g>
<!-- Node11 -->
<g id="node11" class="node"><title>Node11</title>
<g id="a_node11"><a xlink:href="../../d3/d37/itm_8h.html#a5e3421c4e7d0133df57f985ed4eacbfd" target="_top" xlink:title="ITMAreadBLoss">
<polygon fill="white" stroke="black" points="301,-0.5 301,-19.5 388,-19.5 388,-0.5 301,-0.5"/>
<text text-anchor="middle" x="344.5" y="-7.5" font-family="Helvetica,sans-Serif" font-size="10.00">ITMAreadBLoss</text>
</a>
</g>
</g>
<!-- Node10&#45;&gt;Node11 -->
<g id="edge10" class="edge"><title>Node10&#45;&gt;Node11</title>
<path fill="none" stroke="midnightblue" d="M266.656,-24.1066C276.984,-22.2106 289.072,-19.9917 300.562,-17.8823"/>
<polygon fill="midnightblue" stroke="midnightblue" points="265.833,-20.6992 256.629,-25.9473 267.097,-27.5841 265.833,-20.6992"/>
</g>
</g>
</svg>
