<?xml version="1.0" encoding="UTF-8" standalone="no"?>
<!DOCTYPE svg PUBLIC "-//W3C//DTD SVG 1.1//EN"
 "http://www.w3.org/Graphics/SVG/1.1/DTD/svg11.dtd">
<!-- Generated by graphviz version 2.38.0 (20140413.2041)
 -->
<!-- Title: qlra Pages: 1 -->
<svg width="234pt" height="28pt"
 viewBox="0.00 0.00 234.00 28.00" xmlns="http://www.w3.org/2000/svg" xmlns:xlink="http://www.w3.org/1999/xlink">
<g id="graph0" class="graph" transform="scale(1 1) rotate(0) translate(4 24)">
<title>qlra</title>
<polygon fill="white" stroke="none" points="-4,4 -4,-24 230,-24 230,4 -4,4"/>
<!-- Node1 -->
<g id="node1" class="node"><title>Node1</title>
<polygon fill="#bfbfbf" stroke="black" points="0,-0.5 0,-19.5 32,-19.5 32,-0.5 0,-0.5"/>
<text text-anchor="middle" x="16" y="-7.5" font-family="Helvetica,sans-Serif" font-size="10.00">qlra</text>
</g>
<!-- Node2 -->
<g id="node2" class="node"><title>Node2</title>
<g id="a_node2"><a xlink:href="../../d2/d31/itm_8cpp.html#aac99abe6fa8a284a3e964aa7f45a8deb" target="_top" xlink:title="area">
<polygon fill="white" stroke="black" points="68,-0.5 68,-19.5 103,-19.5 103,-0.5 68,-0.5"/>
<text text-anchor="middle" x="85.5" y="-7.5" font-family="Helvetica,sans-Serif" font-size="10.00">area</text>
</a>
</g>
</g>
<!-- Node1&#45;&gt;Node2 -->
<g id="edge1" class="edge"><title>Node1&#45;&gt;Node2</title>
<path fill="none" stroke="midnightblue" d="M42.4863,-10C50.9663,-10 60.1878,-10 67.8254,-10"/>
<polygon fill="midnightblue" stroke="midnightblue" points="42.3168,-6.5001 32.3168,-10 42.3168,-13.5001 42.3168,-6.5001"/>
</g>
<!-- Node3 -->
<g id="node3" class="node"><title>Node3</title>
<g id="a_node3"><a xlink:href="../../d3/d37/itm_8h.html#a5e3421c4e7d0133df57f985ed4eacbfd" target="_top" xlink:title="ITMAreadBLoss">
<polygon fill="white" stroke="black" points="139,-0.5 139,-19.5 226,-19.5 226,-0.5 139,-0.5"/>
<text text-anchor="middle" x="182.5" y="-7.5" font-family="Helvetica,sans-Serif" font-size="10.00">ITMAreadBLoss</text>
</a>
</g>
</g>
<!-- Node2&#45;&gt;Node3 -->
<g id="edge2" class="edge"><title>Node2&#45;&gt;Node3</title>
<path fill="none" stroke="midnightblue" d="M113.136,-10C121.054,-10 129.936,-10 138.612,-10"/>
<polygon fill="midnightblue" stroke="midnightblue" points="113.048,-6.5001 103.048,-10 113.048,-13.5001 113.048,-6.5001"/>
</g>
</g>
</svg>
