<?xml version="1.0" encoding="UTF-8" standalone="no"?>
<!DOCTYPE svg PUBLIC "-//W3C//DTD SVG 1.1//EN"
 "http://www.w3.org/Graphics/SVG/1.1/DTD/svg11.dtd">
<!-- Generated by graphviz version 2.38.0 (20140413.2041)
 -->
<!-- Title: qerfi Pages: 1 -->
<svg width="333pt" height="180pt"
 viewBox="0.00 0.00 333.00 180.00" xmlns="http://www.w3.org/2000/svg" xmlns:xlink="http://www.w3.org/1999/xlink">
<g id="graph0" class="graph" transform="scale(1 1) rotate(0) translate(4 176)">
<title>qerfi</title>
<polygon fill="white" stroke="none" points="-4,4 -4,-176 329,-176 329,4 -4,4"/>
<!-- Node1 -->
<g id="node1" class="node"><title>Node1</title>
<polygon fill="#bfbfbf" stroke="black" points="0,-76.5 0,-95.5 35,-95.5 35,-76.5 0,-76.5"/>
<text text-anchor="middle" x="17.5" y="-83.5" font-family="Helvetica,sans-Serif" font-size="10.00">qerfi</text>
</g>
<!-- Node2 -->
<g id="node2" class="node"><title>Node2</title>
<g id="a_node2"><a xlink:href="../../d3/d37/itm_8h.html#aad6a3ed1b693ddfc2884c909e39d3989" target="_top" xlink:title="point_to_point">
<polygon fill="white" stroke="black" points="83,-152.5 83,-171.5 160,-171.5 160,-152.5 83,-152.5"/>
<text text-anchor="middle" x="121.5" y="-159.5" font-family="Helvetica,sans-Serif" font-size="10.00">point_to_point</text>
</a>
</g>
</g>
<!-- Node1&#45;&gt;Node2 -->
<g id="edge1" class="edge"><title>Node1&#45;&gt;Node2</title>
<path fill="none" stroke="midnightblue" d="M31.4677,-103.983C41.1737,-116.361 55.4156,-132.418 71,-143 76.4832,-146.723 82.7976,-149.855 89.0419,-152.433"/>
<polygon fill="midnightblue" stroke="midnightblue" points="34.0687,-101.619 25.2476,-95.7505 28.4837,-105.839 34.0687,-101.619"/>
</g>
<!-- Node3 -->
<g id="node3" class="node"><title>Node3</title>
<g id="a_node3"><a xlink:href="../../d3/d37/itm_8h.html#acca1a0cc60cc78b1f95772c7dc981182" target="_top" xlink:title="point_to_point_rels">
<polygon fill="white" stroke="black" points="72.5,-114.5 72.5,-133.5 170.5,-133.5 170.5,-114.5 72.5,-114.5"/>
<text text-anchor="middle" x="121.5" y="-121.5" font-family="Helvetica,sans-Serif" font-size="10.00">point_to_point_rels</text>
</a>
</g>
</g>
<!-- Node1&#45;&gt;Node3 -->
<g id="edge2" class="edge"><title>Node1&#45;&gt;Node3</title>
<path fill="none" stroke="midnightblue" d="M44.805,-95.7999C60.1985,-101.535 79.5485,-108.744 94.8311,-114.437"/>
<polygon fill="midnightblue" stroke="midnightblue" points="45.936,-92.4863 35.3432,-92.2749 43.4921,-99.0459 45.936,-92.4863"/>
</g>
<!-- Node5 -->
<g id="node5" class="node"><title>Node5</title>
<g id="a_node5"><a xlink:href="../../d3/d37/itm_8h.html#a606b3a527141eef67be36272940cb1ee" target="_top" xlink:title="point_to_pointMDH">
<polygon fill="white" stroke="black" points="71,-76.5 71,-95.5 172,-95.5 172,-76.5 71,-76.5"/>
<text text-anchor="middle" x="121.5" y="-83.5" font-family="Helvetica,sans-Serif" font-size="10.00">point_to_pointMDH</text>
</a>
</g>
</g>
<!-- Node1&#45;&gt;Node5 -->
<g id="edge4" class="edge"><title>Node1&#45;&gt;Node5</title>
<path fill="none" stroke="midnightblue" d="M45.5369,-86C53.2687,-86 61.9515,-86 70.5925,-86"/>
<polygon fill="midnightblue" stroke="midnightblue" points="45.3433,-82.5001 35.3432,-86 45.3432,-89.5001 45.3433,-82.5001"/>
</g>
<!-- Node6 -->
<g id="node6" class="node"><title>Node6</title>
<g id="a_node6"><a xlink:href="../../d3/d37/itm_8h.html#a3d6220d50384cf3904089e8320ff6617" target="_top" xlink:title="point_to_pointDH">
<polygon fill="white" stroke="black" points="75.5,-38.5 75.5,-57.5 167.5,-57.5 167.5,-38.5 75.5,-38.5"/>
<text text-anchor="middle" x="121.5" y="-45.5" font-family="Helvetica,sans-Serif" font-size="10.00">point_to_pointDH</text>
</a>
</g>
</g>
<!-- Node1&#45;&gt;Node6 -->
<g id="edge5" class="edge"><title>Node1&#45;&gt;Node6</title>
<path fill="none" stroke="midnightblue" d="M44.805,-76.2001C60.1985,-70.4653 79.5485,-63.2564 94.8311,-57.5629"/>
<polygon fill="midnightblue" stroke="midnightblue" points="43.4921,-72.9541 35.3432,-79.7251 45.936,-79.5137 43.4921,-72.9541"/>
</g>
<!-- Node7 -->
<g id="node7" class="node"><title>Node7</title>
<g id="a_node7"><a xlink:href="../../d2/d31/itm_8cpp.html#aac99abe6fa8a284a3e964aa7f45a8deb" target="_top" xlink:title="area">
<polygon fill="white" stroke="black" points="104,-0.5 104,-19.5 139,-19.5 139,-0.5 104,-0.5"/>
<text text-anchor="middle" x="121.5" y="-7.5" font-family="Helvetica,sans-Serif" font-size="10.00">area</text>
</a>
</g>
</g>
<!-- Node1&#45;&gt;Node7 -->
<g id="edge6" class="edge"><title>Node1&#45;&gt;Node7</title>
<path fill="none" stroke="midnightblue" d="M31.4677,-68.0174C41.1737,-55.6392 55.4156,-39.5816 71,-29 81.0525,-22.1745 93.8988,-17.3363 103.985,-14.2507"/>
<polygon fill="midnightblue" stroke="midnightblue" points="28.4837,-66.1609 25.2476,-76.2495 34.0687,-70.381 28.4837,-66.1609"/>
</g>
<!-- Node4 -->
<g id="node4" class="node"><title>Node4</title>
<g id="a_node4"><a xlink:href="../../d3/dcc/itm__its__py_8cpp.html#ab9bd9d469dbd1234f77f39093f765453" target="_top" xlink:title="itm_point_to_point_rels">
<polygon fill="white" stroke="black" points="208,-114.5 208,-133.5 325,-133.5 325,-114.5 208,-114.5"/>
<text text-anchor="middle" x="266.5" y="-121.5" font-family="Helvetica,sans-Serif" font-size="10.00">itm_point_to_point_rels</text>
</a>
</g>
</g>
<!-- Node3&#45;&gt;Node4 -->
<g id="edge3" class="edge"><title>Node3&#45;&gt;Node4</title>
<path fill="none" stroke="midnightblue" d="M180.556,-124C189.591,-124 198.922,-124 207.945,-124"/>
<polygon fill="midnightblue" stroke="midnightblue" points="180.515,-120.5 170.515,-124 180.515,-127.5 180.515,-120.5"/>
</g>
<!-- Node8 -->
<g id="node8" class="node"><title>Node8</title>
<g id="a_node8"><a xlink:href="../../d3/d37/itm_8h.html#a5e3421c4e7d0133df57f985ed4eacbfd" target="_top" xlink:title="ITMAreadBLoss">
<polygon fill="white" stroke="black" points="223,-0.5 223,-19.5 310,-19.5 310,-0.5 223,-0.5"/>
<text text-anchor="middle" x="266.5" y="-7.5" font-family="Helvetica,sans-Serif" font-size="10.00">ITMAreadBLoss</text>
</a>
</g>
</g>
<!-- Node7&#45;&gt;Node8 -->
<g id="edge7" class="edge"><title>Node7&#45;&gt;Node8</title>
<path fill="none" stroke="midnightblue" d="M149.184,-10C169.913,-10 199.062,-10 222.994,-10"/>
<polygon fill="midnightblue" stroke="midnightblue" points="149.184,-6.5001 139.184,-10 149.184,-13.5001 149.184,-6.5001"/>
</g>
</g>
</svg>
