<?xml version="1.0" encoding="UTF-8" standalone="no"?>
<!DOCTYPE svg PUBLIC "-//W3C//DTD SVG 1.1//EN"
 "http://www.w3.org/Graphics/SVG/1.1/DTD/svg11.dtd">
<!-- Generated by graphviz version 2.38.0 (20140413.2041)
 -->
<!-- Title: qtile Pages: 1 -->
<svg width="128pt" height="66pt"
 viewBox="0.00 0.00 128.00 66.00" xmlns="http://www.w3.org/2000/svg" xmlns:xlink="http://www.w3.org/1999/xlink">
<g id="graph0" class="graph" transform="scale(1 1) rotate(0) translate(4 62)">
<title>qtile</title>
<polygon fill="white" stroke="none" points="-4,4 -4,-62 124,-62 124,4 -4,4"/>
<!-- Node1 -->
<g id="node1" class="node"><title>Node1</title>
<polygon fill="#bfbfbf" stroke="black" points="0,-19.5 0,-38.5 35,-38.5 35,-19.5 0,-19.5"/>
<text text-anchor="middle" x="17.5" y="-26.5" font-family="Helvetica,sans-Serif" font-size="10.00">qtile</text>
</g>
<!-- Node2 -->
<g id="node2" class="node"><title>Node2</title>
<g id="a_node2"><a xlink:href="../../d2/d31/itm_8cpp.html#ae383616ab74473e2622ac352721e342f" target="_top" xlink:title="mymin">
<polygon fill="white" stroke="black" points="72.5,-38.5 72.5,-57.5 118.5,-57.5 118.5,-38.5 72.5,-38.5"/>
<text text-anchor="middle" x="95.5" y="-45.5" font-family="Helvetica,sans-Serif" font-size="10.00">mymin</text>
</a>
</g>
</g>
<!-- Node1&#45;&gt;Node2 -->
<g id="edge1" class="edge"><title>Node1&#45;&gt;Node2</title>
<path fill="none" stroke="midnightblue" d="M35.3669,-33.2167C43.3956,-35.2239 53.2698,-37.6924 62.6336,-40.0334"/>
<polygon fill="midnightblue" stroke="midnightblue" points="61.9322,-43.4657 72.4826,-42.4956 63.63,-36.6747 61.9322,-43.4657"/>
</g>
<!-- Node3 -->
<g id="node3" class="node"><title>Node3</title>
<g id="a_node3"><a xlink:href="../../d2/d31/itm_8cpp.html#aef74668a97df8c1c4614043e233d38fe" target="_top" xlink:title="mymax">
<polygon fill="white" stroke="black" points="71,-0.5 71,-19.5 120,-19.5 120,-0.5 71,-0.5"/>
<text text-anchor="middle" x="95.5" y="-7.5" font-family="Helvetica,sans-Serif" font-size="10.00">mymax</text>
</a>
</g>
</g>
<!-- Node1&#45;&gt;Node3 -->
<g id="edge2" class="edge"><title>Node1&#45;&gt;Node3</title>
<path fill="none" stroke="midnightblue" d="M35.3669,-24.7833C42.9289,-22.8928 52.1281,-20.593 60.996,-18.376"/>
<polygon fill="midnightblue" stroke="midnightblue" points="61.91,-21.7553 70.7625,-15.9344 60.2122,-14.9643 61.91,-21.7553"/>
</g>
</g>
</svg>
