<?xml version="1.0" encoding="UTF-8" standalone="no"?>
<!DOCTYPE svg PUBLIC "-//W3C//DTD SVG 1.1//EN"
 "http://www.w3.org/Graphics/SVG/1.1/DTD/svg11.dtd">
<!-- Generated by graphviz version 2.38.0 (20140413.2041)
 -->
<!-- Title: qlrpfl Pages: 1 -->
<svg width="327pt" height="480pt"
 viewBox="0.00 0.00 327.00 480.16" xmlns="http://www.w3.org/2000/svg" xmlns:xlink="http://www.w3.org/1999/xlink">
<g id="graph0" class="graph" transform="scale(1 1) rotate(0) translate(4 476.163)">
<title>qlrpfl</title>
<polygon fill="white" stroke="none" points="-4,4 -4,-476.163 323,-476.163 323,4 -4,4"/>
<!-- Node1 -->
<g id="node1" class="node"><title>Node1</title>
<polygon fill="#bfbfbf" stroke="black" points="0,-186.663 0,-205.663 38,-205.663 38,-186.663 0,-186.663"/>
<text text-anchor="middle" x="19" y="-193.663" font-family="Helvetica,sans-Serif" font-size="10.00">qlrpfl</text>
</g>
<!-- Node2 -->
<g id="node2" class="node"><title>Node2</title>
<g id="a_node2"><a xlink:href="../../d2/d31/itm_8cpp.html#a33721834e531cc713891ff5da4ab5d1f" target="_top" xlink:title="hzns">
<polygon fill="white" stroke="black" points="75.5,-433.663 75.5,-452.663 113.5,-452.663 113.5,-433.663 75.5,-433.663"/>
<text text-anchor="middle" x="94.5" y="-440.663" font-family="Helvetica,sans-Serif" font-size="10.00">hzns</text>
</a>
</g>
</g>
<!-- Node1&#45;&gt;Node2 -->
<g id="edge1" class="edge"><title>Node1&#45;&gt;Node2</title>
<path fill="none" stroke="midnightblue" d="M20.8279,-206.032C23.8489,-238.268 36.1595,-342.777 74,-419.163 75.0456,-421.274 76.3056,-423.366 77.6757,-425.384"/>
<polygon fill="midnightblue" stroke="midnightblue" points="75.157,-427.846 84.0641,-433.583 80.6788,-423.543 75.157,-427.846"/>
</g>
<!-- Node3 -->
<g id="node3" class="node"><title>Node3</title>
<g id="a_node3"><a xlink:href="../../d2/d31/itm_8cpp.html#ae383616ab74473e2622ac352721e342f" target="_top" xlink:title="mymin">
<polygon fill="white" stroke="black" points="251.5,-319.663 251.5,-338.663 297.5,-338.663 297.5,-319.663 251.5,-319.663"/>
<text text-anchor="middle" x="274.5" y="-326.663" font-family="Helvetica,sans-Serif" font-size="10.00">mymin</text>
</a>
</g>
</g>
<!-- Node1&#45;&gt;Node3 -->
<g id="edge2" class="edge"><title>Node1&#45;&gt;Node3</title>
<path fill="none" stroke="midnightblue" d="M23.8491,-205.823C36.509,-236.056 80.1451,-328.772 151,-361.163 183.971,-376.236 225.304,-358.605 250.54,-344.153"/>
<polygon fill="midnightblue" stroke="midnightblue" points="252.604,-346.996 259.372,-338.845 248.998,-340.996 252.604,-346.996"/>
</g>
<!-- Node4 -->
<g id="node4" class="node"><title>Node4</title>
<g id="a_node4"><a xlink:href="../../d2/d31/itm_8cpp.html#a45e678693240356cd41b59d8edb5bb12" target="_top" xlink:title="d1thx">
<polygon fill="white" stroke="black" points="74,-186.663 74,-205.663 115,-205.663 115,-186.663 74,-186.663"/>
<text text-anchor="middle" x="94.5" y="-193.663" font-family="Helvetica,sans-Serif" font-size="10.00">d1thx</text>
</a>
</g>
</g>
<!-- Node1&#45;&gt;Node4 -->
<g id="edge3" class="edge"><title>Node1&#45;&gt;Node4</title>
<path fill="none" stroke="midnightblue" d="M38.1685,-196.163C45.9055,-196.163 55.1335,-196.163 63.8149,-196.163"/>
<polygon fill="midnightblue" stroke="midnightblue" points="63.9964,-199.663 73.9963,-196.163 63.9963,-192.663 63.9964,-199.663"/>
</g>
<!-- Node5 -->
<g id="node5" class="node"><title>Node5</title>
<g id="a_node5"><a xlink:href="../../d2/d31/itm_8cpp.html#aef74668a97df8c1c4614043e233d38fe" target="_top" xlink:title="mymax">
<polygon fill="white" stroke="black" points="250,-186.663 250,-205.663 299,-205.663 299,-186.663 250,-186.663"/>
<text text-anchor="middle" x="274.5" y="-193.663" font-family="Helvetica,sans-Serif" font-size="10.00">mymax</text>
</a>
</g>
</g>
<!-- Node1&#45;&gt;Node5 -->
<g id="edge13" class="edge"><title>Node1&#45;&gt;Node5</title>
<path fill="none" stroke="midnightblue" d="M38.0835,-188.071C48.3821,-183.907 61.6564,-179.271 74,-177.163 131.77,-167.296 199.89,-178.64 239.728,-187.554"/>
<polygon fill="midnightblue" stroke="midnightblue" points="239.171,-191.017 249.703,-189.868 240.753,-184.198 239.171,-191.017"/>
</g>
<!-- Node6 -->
<g id="node6" class="node"><title>Node6</title>
<g id="a_node6"><a xlink:href="../../d2/d31/itm_8cpp.html#a95a65538c0942d9e797bc3ea36ab7f08" target="_top" xlink:title="z1sq1">
<polygon fill="white" stroke="black" points="151,-15.6629 151,-34.6629 194,-34.6629 194,-15.6629 151,-15.6629"/>
<text text-anchor="middle" x="172.5" y="-22.6629" font-family="Helvetica,sans-Serif" font-size="10.00">z1sq1</text>
</a>
</g>
</g>
<!-- Node1&#45;&gt;Node6 -->
<g id="edge11" class="edge"><title>Node1&#45;&gt;Node6</title>
<path fill="none" stroke="midnightblue" d="M26.9715,-186.22C36.9248,-172.211 56.0006,-146.041 74,-125.163 100.439,-94.4951 133.873,-61.2861 153.925,-41.9007"/>
<polygon fill="midnightblue" stroke="midnightblue" points="156.614,-44.1711 161.398,-34.7181 151.763,-39.1242 156.614,-44.1711"/>
</g>
<!-- Node7 -->
<g id="node7" class="node"><title>Node7</title>
<g id="a_node7"><a xlink:href="../../d2/d31/itm_8cpp.html#ae61eab5929102f86b606d9007f0cc139" target="_top" xlink:title="FORTRAN_DIM">
<polygon fill="white" stroke="black" points="230,-15.6629 230,-34.6629 319,-34.6629 319,-15.6629 230,-15.6629"/>
<text text-anchor="middle" x="274.5" y="-22.6629" font-family="Helvetica,sans-Serif" font-size="10.00">FORTRAN_DIM</text>
</a>
</g>
</g>
<!-- Node1&#45;&gt;Node7 -->
<g id="edge12" class="edge"><title>Node1&#45;&gt;Node7</title>
<path fill="none" stroke="midnightblue" d="M22.5715,-186.519C32.2664,-152.492 70.2374,-38.3614 151,-6.16287 181.003,5.79867 217.929,-2.79445 243.349,-11.9531"/>
<polygon fill="midnightblue" stroke="midnightblue" points="242.23,-15.2727 252.821,-15.5835 244.736,-8.73635 242.23,-15.2727"/>
</g>
<!-- Node9 -->
<g id="node9" class="node"><title>Node9</title>
<g id="a_node9"><a xlink:href="../../d2/d31/itm_8cpp.html#a32289828f24201e9dde6140e27708d73" target="_top" xlink:title="lrprop">
<polygon fill="white" stroke="black" points="74,-243.663 74,-262.663 115,-262.663 115,-243.663 74,-243.663"/>
<text text-anchor="middle" x="94.5" y="-250.663" font-family="Helvetica,sans-Serif" font-size="10.00">lrprop</text>
</a>
</g>
</g>
<!-- Node1&#45;&gt;Node9 -->
<g id="edge14" class="edge"><title>Node1&#45;&gt;Node9</title>
<path fill="none" stroke="midnightblue" d="M32.4683,-205.832C43.6226,-214.482 60.1788,-227.322 73.2341,-237.446"/>
<polygon fill="midnightblue" stroke="midnightblue" points="71.1687,-240.274 81.2159,-243.636 75.4585,-234.742 71.1687,-240.274"/>
</g>
<!-- Node4&#45;&gt;Node3 -->
<g id="edge4" class="edge"><title>Node4&#45;&gt;Node3</title>
<path fill="none" stroke="midnightblue" d="M100.554,-205.804C104.542,-213.459 110.211,-224.454 115,-234.163 131.534,-267.682 121.047,-287.808 151,-310.163 176.885,-329.482 214.521,-332.679 241.234,-332.018"/>
<polygon fill="midnightblue" stroke="midnightblue" points="241.404,-335.514 251.242,-331.58 241.098,-328.521 241.404,-335.514"/>
</g>
<!-- Node4&#45;&gt;Node5 -->
<g id="edge5" class="edge"><title>Node4&#45;&gt;Node5</title>
<path fill="none" stroke="midnightblue" d="M115.229,-196.163C145.217,-196.163 202.664,-196.163 239.478,-196.163"/>
<polygon fill="midnightblue" stroke="midnightblue" points="239.731,-199.663 249.731,-196.163 239.731,-192.663 239.731,-199.663"/>
</g>
<!-- Node4&#45;&gt;Node6 -->
<g id="edge6" class="edge"><title>Node4&#45;&gt;Node6</title>
<path fill="none" stroke="midnightblue" d="M97.9337,-186.361C104.251,-161.97 122.678,-97.066 151,-49.1629 152.318,-46.9341 153.847,-44.7105 155.466,-42.566"/>
<polygon fill="midnightblue" stroke="midnightblue" points="158.184,-44.7711 161.887,-34.8445 152.802,-40.2952 158.184,-44.7711"/>
</g>
<!-- Node8 -->
<g id="node8" class="node"><title>Node8</title>
<g id="a_node8"><a xlink:href="../../d2/d31/itm_8cpp.html#a8ab54b7902d55b592e2d76dafdb93069" target="_top" xlink:title="qtile">
<polygon fill="white" stroke="black" points="155,-205.663 155,-224.663 190,-224.663 190,-205.663 155,-205.663"/>
<text text-anchor="middle" x="172.5" y="-212.663" font-family="Helvetica,sans-Serif" font-size="10.00">qtile</text>
</a>
</g>
</g>
<!-- Node4&#45;&gt;Node8 -->
<g id="edge8" class="edge"><title>Node4&#45;&gt;Node8</title>
<path fill="none" stroke="midnightblue" d="M115.072,-201.056C124.212,-203.341 135.228,-206.095 145.092,-208.561"/>
<polygon fill="midnightblue" stroke="midnightblue" points="144.277,-211.965 154.827,-210.995 145.975,-205.174 144.277,-211.965"/>
</g>
<!-- Node6&#45;&gt;Node7 -->
<g id="edge7" class="edge"><title>Node6&#45;&gt;Node7</title>
<path fill="none" stroke="midnightblue" d="M194.22,-25.1629C201.702,-25.1629 210.534,-25.1629 219.539,-25.1629"/>
<polygon fill="midnightblue" stroke="midnightblue" points="219.716,-28.663 229.716,-25.1629 219.716,-21.663 219.716,-28.663"/>
</g>
<!-- Node8&#45;&gt;Node3 -->
<g id="edge9" class="edge"><title>Node8&#45;&gt;Node3</title>
<path fill="none" stroke="midnightblue" d="M176.925,-224.846C184.033,-243.675 202.087,-285.531 230,-310.163 233.501,-313.252 237.583,-315.905 241.817,-318.162"/>
<polygon fill="midnightblue" stroke="midnightblue" points="240.619,-321.465 251.164,-322.491 243.56,-315.113 240.619,-321.465"/>
</g>
<!-- Node8&#45;&gt;Node5 -->
<g id="edge10" class="edge"><title>Node8&#45;&gt;Node5</title>
<path fill="none" stroke="midnightblue" d="M190.013,-212.025C203.519,-209.459 223.059,-205.747 239.84,-202.558"/>
<polygon fill="midnightblue" stroke="midnightblue" points="240.682,-205.961 249.853,-200.656 239.375,-199.084 240.682,-205.961"/>
</g>
<!-- Node9&#45;&gt;Node3 -->
<g id="edge24" class="edge"><title>Node9&#45;&gt;Node3</title>
<path fill="none" stroke="midnightblue" d="M98.0397,-262.787C103.74,-282.186 119.583,-325.626 151,-343.163 179.216,-358.913 216.752,-351.219 242.805,-342.254"/>
<polygon fill="midnightblue" stroke="midnightblue" points="244.354,-345.414 252.524,-338.669 241.931,-338.846 244.354,-345.414"/>
</g>
<!-- Node9&#45;&gt;Node5 -->
<g id="edge15" class="edge"><title>Node9&#45;&gt;Node5</title>
<path fill="none" stroke="midnightblue" d="M115.124,-250.88C135.275,-248.189 167.368,-242.936 194,-234.163 212.65,-228.019 232.585,-218.483 247.827,-210.501"/>
<polygon fill="midnightblue" stroke="midnightblue" points="249.491,-213.58 256.657,-205.776 246.189,-207.408 249.491,-213.58"/>
</g>
<!-- Node9&#45;&gt;Node7 -->
<g id="edge25" class="edge"><title>Node9&#45;&gt;Node7</title>
<path fill="none" stroke="midnightblue" d="M101.219,-243.425C105.458,-235.9 111.146,-225.121 115,-215.163 137.101,-158.052 111.558,-129.008 151,-82.1629 169.272,-60.4609 197.622,-46.5422 222.448,-37.8965"/>
<polygon fill="midnightblue" stroke="midnightblue" points="223.705,-41.1679 232.117,-34.7264 221.524,-34.5163 223.705,-41.1679"/>
</g>
<!-- Node10 -->
<g id="node10" class="node"><title>Node10</title>
<g id="a_node10"><a xlink:href="../../d2/d31/itm_8cpp.html#a61774c377cce1be80117b174ac61eef2" target="_top" xlink:title="adiff">
<polygon fill="white" stroke="black" points="155,-433.663 155,-452.663 190,-452.663 190,-433.663 155,-433.663"/>
<text text-anchor="middle" x="172.5" y="-440.663" font-family="Helvetica,sans-Serif" font-size="10.00">adiff</text>
</a>
</g>
</g>
<!-- Node9&#45;&gt;Node10 -->
<g id="edge16" class="edge"><title>Node9&#45;&gt;Node10</title>
<path fill="none" stroke="midnightblue" d="M99.3733,-262.846C111.313,-292.696 147.713,-383.694 163.761,-423.814"/>
<polygon fill="midnightblue" stroke="midnightblue" points="160.58,-425.286 167.543,-433.271 167.079,-422.687 160.58,-425.286"/>
</g>
<!-- Node13 -->
<g id="node13" class="node"><title>Node13</title>
<g id="a_node13"><a xlink:href="../../d2/d31/itm_8cpp.html#a404799cf89ce54ce7b92e13ad355ad85" target="_top" xlink:title="alos">
<polygon fill="white" stroke="black" points="155,-281.663 155,-300.663 190,-300.663 190,-281.663 155,-281.663"/>
<text text-anchor="middle" x="172.5" y="-288.663" font-family="Helvetica,sans-Serif" font-size="10.00">alos</text>
</a>
</g>
</g>
<!-- Node9&#45;&gt;Node13 -->
<g id="edge20" class="edge"><title>Node9&#45;&gt;Node13</title>
<path fill="none" stroke="midnightblue" d="M114.678,-262.752C124.075,-267.45 135.527,-273.176 145.681,-278.253"/>
<polygon fill="midnightblue" stroke="midnightblue" points="144.4,-281.526 154.91,-282.868 147.531,-275.265 144.4,-281.526"/>
</g>
<!-- Node15 -->
<g id="node15" class="node"><title>Node15</title>
<g id="a_node15"><a xlink:href="../../d2/d31/itm_8cpp.html#a74cbbcd996594f97dd6088dbbaff27c7" target="_top" xlink:title="ascat">
<polygon fill="white" stroke="black" points="152,-91.6629 152,-110.663 193,-110.663 193,-91.6629 152,-91.6629"/>
<text text-anchor="middle" x="172.5" y="-98.6629" font-family="Helvetica,sans-Serif" font-size="10.00">ascat</text>
</a>
</g>
</g>
<!-- Node9&#45;&gt;Node15 -->
<g id="edge26" class="edge"><title>Node9&#45;&gt;Node15</title>
<path fill="none" stroke="midnightblue" d="M100.507,-243.498C104.468,-235.83 110.125,-224.829 115,-215.163 131.821,-181.812 151.072,-142.779 162.204,-120.123"/>
<polygon fill="midnightblue" stroke="midnightblue" points="165.444,-121.465 166.709,-110.945 159.16,-118.38 165.444,-121.465"/>
</g>
<!-- Node10&#45;&gt;Node3 -->
<g id="edge17" class="edge"><title>Node10&#45;&gt;Node3</title>
<path fill="none" stroke="midnightblue" d="M182.026,-433.443C198.926,-414.177 236.88,-370.909 258.207,-346.597"/>
<polygon fill="midnightblue" stroke="midnightblue" points="261.032,-348.683 264.996,-338.858 255.77,-344.067 261.032,-348.683"/>
</g>
<!-- Node11 -->
<g id="node11" class="node"><title>Node11</title>
<g id="a_node11"><a xlink:href="../../d2/d31/itm_8cpp.html#a58865d6a14f0fb4c0da66d610f830cdb" target="_top" xlink:title="fht">
<polygon fill="white" stroke="black" points="260,-452.663 260,-471.663 289,-471.663 289,-452.663 260,-452.663"/>
<text text-anchor="middle" x="274.5" y="-459.663" font-family="Helvetica,sans-Serif" font-size="10.00">fht</text>
</a>
</g>
</g>
<!-- Node10&#45;&gt;Node11 -->
<g id="edge18" class="edge"><title>Node10&#45;&gt;Node11</title>
<path fill="none" stroke="midnightblue" d="M190.013,-446.3C206.336,-449.402 231.472,-454.178 249.9,-457.679"/>
<polygon fill="midnightblue" stroke="midnightblue" points="249.38,-461.143 259.857,-459.571 250.686,-454.266 249.38,-461.143"/>
</g>
<!-- Node12 -->
<g id="node12" class="node"><title>Node12</title>
<g id="a_node12"><a xlink:href="../../d2/d31/itm_8cpp.html#a133ac157c106bdbab35606739556ed65" target="_top" xlink:title="aknfe">
<polygon fill="white" stroke="black" points="254,-414.663 254,-433.663 295,-433.663 295,-414.663 254,-414.663"/>
<text text-anchor="middle" x="274.5" y="-421.663" font-family="Helvetica,sans-Serif" font-size="10.00">aknfe</text>
</a>
</g>
</g>
<!-- Node10&#45;&gt;Node12 -->
<g id="edge19" class="edge"><title>Node10&#45;&gt;Node12</title>
<path fill="none" stroke="midnightblue" d="M190.013,-440.025C204.53,-437.267 226.017,-433.185 243.557,-429.852"/>
<polygon fill="midnightblue" stroke="midnightblue" points="244.699,-433.198 253.87,-427.893 243.392,-426.321 244.699,-433.198"/>
</g>
<!-- Node13&#45;&gt;Node3 -->
<g id="edge22" class="edge"><title>Node13&#45;&gt;Node3</title>
<path fill="none" stroke="midnightblue" d="M190.013,-297.438C204.018,-302.76 224.509,-310.546 241.686,-317.073"/>
<polygon fill="midnightblue" stroke="midnightblue" points="240.751,-320.462 251.342,-320.743 243.237,-313.919 240.751,-320.462"/>
</g>
<!-- Node13&#45;&gt;Node5 -->
<g id="edge21" class="edge"><title>Node13&#45;&gt;Node5</title>
<path fill="none" stroke="midnightblue" d="M183.825,-281.354C200.905,-265.128 235.224,-232.525 256.101,-212.692"/>
<polygon fill="midnightblue" stroke="midnightblue" points="258.541,-215.202 263.38,-205.777 253.719,-210.127 258.541,-215.202"/>
</g>
<!-- Node14 -->
<g id="node14" class="node"><title>Node14</title>
<g id="a_node14"><a xlink:href="../../d2/d31/itm_8cpp.html#aea4c472ad2b67e25eefe72767a817667" target="_top" xlink:title="abq_alos">
<polygon fill="white" stroke="black" points="246.5,-281.663 246.5,-300.663 302.5,-300.663 302.5,-281.663 246.5,-281.663"/>
<text text-anchor="middle" x="274.5" y="-288.663" font-family="Helvetica,sans-Serif" font-size="10.00">abq_alos</text>
</a>
</g>
</g>
<!-- Node13&#45;&gt;Node14 -->
<g id="edge23" class="edge"><title>Node13&#45;&gt;Node14</title>
<path fill="none" stroke="midnightblue" d="M190.013,-291.163C202.573,-291.163 220.35,-291.163 236.274,-291.163"/>
<polygon fill="midnightblue" stroke="midnightblue" points="236.397,-294.663 246.397,-291.163 236.397,-287.663 236.397,-294.663"/>
</g>
<!-- Node15&#45;&gt;Node3 -->
<g id="edge28" class="edge"><title>Node15&#45;&gt;Node3</title>
<path fill="none" stroke="midnightblue" d="M175.561,-110.668C184.039,-149.45 216.409,-294.399 230,-310.163 233.259,-313.943 237.411,-316.998 241.85,-319.459"/>
<polygon fill="midnightblue" stroke="midnightblue" points="240.623,-322.747 251.173,-323.72 243.533,-316.38 240.623,-322.747"/>
</g>
<!-- Node15&#45;&gt;Node5 -->
<g id="edge27" class="edge"><title>Node15&#45;&gt;Node5</title>
<path fill="none" stroke="midnightblue" d="M183.825,-110.972C200.905,-127.198 235.224,-159.801 256.101,-179.634"/>
<polygon fill="midnightblue" stroke="midnightblue" points="253.719,-182.199 263.38,-186.549 258.541,-177.124 253.719,-182.199"/>
</g>
<!-- Node15&#45;&gt;Node7 -->
<g id="edge30" class="edge"><title>Node15&#45;&gt;Node7</title>
<path fill="none" stroke="midnightblue" d="M186.165,-91.5374C202.921,-78.8029 232.673,-56.1911 252.739,-40.9409"/>
<polygon fill="midnightblue" stroke="midnightblue" points="255.094,-43.5476 260.938,-34.7102 250.858,-37.9745 255.094,-43.5476"/>
</g>
<!-- Node16 -->
<g id="node16" class="node"><title>Node16</title>
<g id="a_node16"><a xlink:href="../../d2/d31/itm_8cpp.html#a8e415ee823bbb4b0da13d5f81f042d7f" target="_top" xlink:title="h0f">
<polygon fill="white" stroke="black" points="259.5,-110.663 259.5,-129.663 289.5,-129.663 289.5,-110.663 259.5,-110.663"/>
<text text-anchor="middle" x="274.5" y="-117.663" font-family="Helvetica,sans-Serif" font-size="10.00">h0f</text>
</a>
</g>
</g>
<!-- Node15&#45;&gt;Node16 -->
<g id="edge29" class="edge"><title>Node15&#45;&gt;Node16</title>
<path fill="none" stroke="midnightblue" d="M193.257,-104.917C209.378,-107.98 232.217,-112.319 249.409,-115.586"/>
<polygon fill="midnightblue" stroke="midnightblue" points="248.796,-119.032 259.274,-117.46 250.103,-112.155 248.796,-119.032"/>
</g>
<!-- Node17 -->
<g id="node17" class="node"><title>Node17</title>
<g id="a_node17"><a xlink:href="../../d2/d31/itm_8cpp.html#a5cd3659f451452a38a465a50992b9e7c" target="_top" xlink:title="ahd">
<polygon fill="white" stroke="black" points="258.5,-72.6629 258.5,-91.6629 290.5,-91.6629 290.5,-72.6629 258.5,-72.6629"/>
<text text-anchor="middle" x="274.5" y="-79.6629" font-family="Helvetica,sans-Serif" font-size="10.00">ahd</text>
</a>
</g>
</g>
<!-- Node15&#45;&gt;Node17 -->
<g id="edge31" class="edge"><title>Node15&#45;&gt;Node17</title>
<path fill="none" stroke="midnightblue" d="M193.257,-97.4091C209.095,-94.3999 231.418,-90.1585 248.499,-86.913"/>
<polygon fill="midnightblue" stroke="midnightblue" points="249.182,-90.346 258.353,-85.0408 247.875,-83.469 249.182,-90.346"/>
</g>
</g>
</svg>
