<?xml version="1.0" encoding="UTF-8" standalone="no"?>
<!DOCTYPE svg PUBLIC "-//W3C//DTD SVG 1.1//EN"
 "http://www.w3.org/Graphics/SVG/1.1/DTD/svg11.dtd">
<!-- Generated by graphviz version 2.38.0 (20140413.2041)
 -->
<!-- Title: lrprop Pages: 1 -->
<svg width="413pt" height="180pt"
 viewBox="0.00 0.00 413.00 180.00" xmlns="http://www.w3.org/2000/svg" xmlns:xlink="http://www.w3.org/1999/xlink">
<g id="graph0" class="graph" transform="scale(1 1) rotate(0) translate(4 176)">
<title>lrprop</title>
<polygon fill="white" stroke="none" points="-4,4 -4,-176 409,-176 409,4 -4,4"/>
<!-- Node1 -->
<g id="node1" class="node"><title>Node1</title>
<polygon fill="#bfbfbf" stroke="black" points="0,-47.5 0,-66.5 41,-66.5 41,-47.5 0,-47.5"/>
<text text-anchor="middle" x="20.5" y="-54.5" font-family="Helvetica,sans-Serif" font-size="10.00">lrprop</text>
</g>
<!-- Node2 -->
<g id="node2" class="node"><title>Node2</title>
<g id="a_node2"><a xlink:href="../../d2/d31/itm_8cpp.html#ae682440b4eaee05406c08f8ae48e60d8" target="_top" xlink:title="qlrpfl">
<polygon fill="white" stroke="black" points="77,-76.5 77,-95.5 115,-95.5 115,-76.5 77,-76.5"/>
<text text-anchor="middle" x="96" y="-83.5" font-family="Helvetica,sans-Serif" font-size="10.00">qlrpfl</text>
</a>
</g>
</g>
<!-- Node1&#45;&gt;Node2 -->
<g id="edge1" class="edge"><title>Node1&#45;&gt;Node2</title>
<path fill="none" stroke="midnightblue" d="M50.7462,-68.5393C59.5294,-72.0048 68.9099,-75.706 76.7636,-78.8047"/>
<polygon fill="midnightblue" stroke="midnightblue" points="51.7834,-65.186 41.1967,-64.7715 49.2142,-71.6975 51.7834,-65.186"/>
</g>
<!-- Node8 -->
<g id="node8" class="node"><title>Node8</title>
<g id="a_node8"><a xlink:href="../../d2/d31/itm_8cpp.html#aac99abe6fa8a284a3e964aa7f45a8deb" target="_top" xlink:title="area">
<polygon fill="white" stroke="black" points="78.5,-19.5 78.5,-38.5 113.5,-38.5 113.5,-19.5 78.5,-19.5"/>
<text text-anchor="middle" x="96" y="-26.5" font-family="Helvetica,sans-Serif" font-size="10.00">area</text>
</a>
</g>
</g>
<!-- Node1&#45;&gt;Node8 -->
<g id="edge7" class="edge"><title>Node1&#45;&gt;Node8</title>
<path fill="none" stroke="midnightblue" d="M50.6111,-45.9101C59.9907,-42.3369 70.0649,-38.4991 78.2412,-35.3843"/>
<polygon fill="midnightblue" stroke="midnightblue" points="49.2955,-42.6658 41.1967,-49.4965 51.7875,-49.2072 49.2955,-42.6658"/>
</g>
<!-- Node3 -->
<g id="node3" class="node"><title>Node3</title>
<g id="a_node3"><a xlink:href="../../d3/d37/itm_8h.html#aad6a3ed1b693ddfc2884c909e39d3989" target="_top" xlink:title="point_to_point">
<polygon fill="white" stroke="black" points="163,-152.5 163,-171.5 240,-171.5 240,-152.5 163,-152.5"/>
<text text-anchor="middle" x="201.5" y="-159.5" font-family="Helvetica,sans-Serif" font-size="10.00">point_to_point</text>
</a>
</g>
</g>
<!-- Node2&#45;&gt;Node3 -->
<g id="edge2" class="edge"><title>Node2&#45;&gt;Node3</title>
<path fill="none" stroke="midnightblue" d="M110.439,-103.965C120.471,-116.335 135.135,-132.39 151,-143 156.586,-146.736 163.011,-149.886 169.343,-152.48"/>
<polygon fill="midnightblue" stroke="midnightblue" points="112.922,-101.458 104.003,-95.7396 107.409,-105.772 112.922,-101.458"/>
</g>
<!-- Node4 -->
<g id="node4" class="node"><title>Node4</title>
<g id="a_node4"><a xlink:href="../../d3/d37/itm_8h.html#acca1a0cc60cc78b1f95772c7dc981182" target="_top" xlink:title="point_to_point_rels">
<polygon fill="white" stroke="black" points="152.5,-114.5 152.5,-133.5 250.5,-133.5 250.5,-114.5 152.5,-114.5"/>
<text text-anchor="middle" x="201.5" y="-121.5" font-family="Helvetica,sans-Serif" font-size="10.00">point_to_point_rels</text>
</a>
</g>
</g>
<!-- Node2&#45;&gt;Node4 -->
<g id="edge3" class="edge"><title>Node2&#45;&gt;Node4</title>
<path fill="none" stroke="midnightblue" d="M124.594,-96.131C140.089,-101.82 159.31,-108.877 174.533,-114.466"/>
<polygon fill="midnightblue" stroke="midnightblue" points="125.622,-92.7801 115.028,-92.6191 123.209,-99.3513 125.622,-92.7801"/>
</g>
<!-- Node6 -->
<g id="node6" class="node"><title>Node6</title>
<g id="a_node6"><a xlink:href="../../d3/d37/itm_8h.html#a606b3a527141eef67be36272940cb1ee" target="_top" xlink:title="point_to_pointMDH">
<polygon fill="white" stroke="black" points="151,-76.5 151,-95.5 252,-95.5 252,-76.5 151,-76.5"/>
<text text-anchor="middle" x="201.5" y="-83.5" font-family="Helvetica,sans-Serif" font-size="10.00">point_to_pointMDH</text>
</a>
</g>
</g>
<!-- Node2&#45;&gt;Node6 -->
<g id="edge5" class="edge"><title>Node2&#45;&gt;Node6</title>
<path fill="none" stroke="midnightblue" d="M125.138,-86C133.046,-86 141.892,-86 150.664,-86"/>
<polygon fill="midnightblue" stroke="midnightblue" points="125.028,-82.5001 115.028,-86 125.028,-89.5001 125.028,-82.5001"/>
</g>
<!-- Node7 -->
<g id="node7" class="node"><title>Node7</title>
<g id="a_node7"><a xlink:href="../../d3/d37/itm_8h.html#a3d6220d50384cf3904089e8320ff6617" target="_top" xlink:title="point_to_pointDH">
<polygon fill="white" stroke="black" points="155.5,-38.5 155.5,-57.5 247.5,-57.5 247.5,-38.5 155.5,-38.5"/>
<text text-anchor="middle" x="201.5" y="-45.5" font-family="Helvetica,sans-Serif" font-size="10.00">point_to_pointDH</text>
</a>
</g>
</g>
<!-- Node2&#45;&gt;Node7 -->
<g id="edge6" class="edge"><title>Node2&#45;&gt;Node7</title>
<path fill="none" stroke="midnightblue" d="M124.594,-75.869C140.089,-70.1798 159.31,-63.1229 174.533,-57.5338"/>
<polygon fill="midnightblue" stroke="midnightblue" points="123.209,-72.6487 115.028,-79.3809 125.622,-79.2199 123.209,-72.6487"/>
</g>
<!-- Node5 -->
<g id="node5" class="node"><title>Node5</title>
<g id="a_node5"><a xlink:href="../../d3/dcc/itm__its__py_8cpp.html#ab9bd9d469dbd1234f77f39093f765453" target="_top" xlink:title="itm_point_to_point_rels">
<polygon fill="white" stroke="black" points="288,-114.5 288,-133.5 405,-133.5 405,-114.5 288,-114.5"/>
<text text-anchor="middle" x="346.5" y="-121.5" font-family="Helvetica,sans-Serif" font-size="10.00">itm_point_to_point_rels</text>
</a>
</g>
</g>
<!-- Node4&#45;&gt;Node5 -->
<g id="edge4" class="edge"><title>Node4&#45;&gt;Node5</title>
<path fill="none" stroke="midnightblue" d="M260.556,-124C269.591,-124 278.922,-124 287.945,-124"/>
<polygon fill="midnightblue" stroke="midnightblue" points="260.515,-120.5 250.515,-124 260.515,-127.5 260.515,-120.5"/>
</g>
<!-- Node9 -->
<g id="node9" class="node"><title>Node9</title>
<g id="a_node9"><a xlink:href="../../d3/d37/itm_8h.html#a5e3421c4e7d0133df57f985ed4eacbfd" target="_top" xlink:title="ITMAreadBLoss">
<polygon fill="white" stroke="black" points="158,-0.5 158,-19.5 245,-19.5 245,-0.5 158,-0.5"/>
<text text-anchor="middle" x="201.5" y="-7.5" font-family="Helvetica,sans-Serif" font-size="10.00">ITMAreadBLoss</text>
</a>
</g>
</g>
<!-- Node8&#45;&gt;Node9 -->
<g id="edge8" class="edge"><title>Node8&#45;&gt;Node9</title>
<path fill="none" stroke="midnightblue" d="M123.656,-24.1066C133.984,-22.2106 146.072,-19.9917 157.562,-17.8823"/>
<polygon fill="midnightblue" stroke="midnightblue" points="122.833,-20.6992 113.629,-25.9473 124.097,-27.5841 122.833,-20.6992"/>
</g>
</g>
</svg>
