<?xml version="1.0" encoding="UTF-8" standalone="no"?>
<!DOCTYPE svg PUBLIC "-//W3C//DTD SVG 1.1//EN"
 "http://www.w3.org/Graphics/SVG/1.1/DTD/svg11.dtd">
<!-- Generated by graphviz version 2.38.0 (20140413.2041)
 -->
<!-- Title: ascat Pages: 1 -->
<svg width="490pt" height="180pt"
 viewBox="0.00 0.00 490.00 180.00" xmlns="http://www.w3.org/2000/svg" xmlns:xlink="http://www.w3.org/1999/xlink">
<g id="graph0" class="graph" transform="scale(1 1) rotate(0) translate(4 176)">
<title>ascat</title>
<polygon fill="white" stroke="none" points="-4,4 -4,-176 486,-176 486,4 -4,4"/>
<!-- Node1 -->
<g id="node1" class="node"><title>Node1</title>
<polygon fill="#bfbfbf" stroke="black" points="0,-47.5 0,-66.5 41,-66.5 41,-47.5 0,-47.5"/>
<text text-anchor="middle" x="20.5" y="-54.5" font-family="Helvetica,sans-Serif" font-size="10.00">ascat</text>
</g>
<!-- Node2 -->
<g id="node2" class="node"><title>Node2</title>
<g id="a_node2"><a xlink:href="../../d2/d31/itm_8cpp.html#a32289828f24201e9dde6140e27708d73" target="_top" xlink:title="lrprop">
<polygon fill="white" stroke="black" points="77,-47.5 77,-66.5 118,-66.5 118,-47.5 77,-47.5"/>
<text text-anchor="middle" x="97.5" y="-54.5" font-family="Helvetica,sans-Serif" font-size="10.00">lrprop</text>
</a>
</g>
</g>
<!-- Node1&#45;&gt;Node2 -->
<g id="edge1" class="edge"><title>Node1&#45;&gt;Node2</title>
<path fill="none" stroke="midnightblue" d="M51.305,-57C59.9214,-57 69.1042,-57 76.9262,-57"/>
<polygon fill="midnightblue" stroke="midnightblue" points="51.2054,-53.5001 41.2054,-57 51.2053,-60.5001 51.2054,-53.5001"/>
</g>
<!-- Node3 -->
<g id="node3" class="node"><title>Node3</title>
<g id="a_node3"><a xlink:href="../../d2/d31/itm_8cpp.html#ae682440b4eaee05406c08f8ae48e60d8" target="_top" xlink:title="qlrpfl">
<polygon fill="white" stroke="black" points="154,-76.5 154,-95.5 192,-95.5 192,-76.5 154,-76.5"/>
<text text-anchor="middle" x="173" y="-83.5" font-family="Helvetica,sans-Serif" font-size="10.00">qlrpfl</text>
</a>
</g>
</g>
<!-- Node2&#45;&gt;Node3 -->
<g id="edge2" class="edge"><title>Node2&#45;&gt;Node3</title>
<path fill="none" stroke="midnightblue" d="M127.746,-68.5393C136.529,-72.0048 145.91,-75.706 153.764,-78.8047"/>
<polygon fill="midnightblue" stroke="midnightblue" points="128.783,-65.186 118.197,-64.7715 126.214,-71.6975 128.783,-65.186"/>
</g>
<!-- Node9 -->
<g id="node9" class="node"><title>Node9</title>
<g id="a_node9"><a xlink:href="../../d2/d31/itm_8cpp.html#aac99abe6fa8a284a3e964aa7f45a8deb" target="_top" xlink:title="area">
<polygon fill="white" stroke="black" points="155.5,-19.5 155.5,-38.5 190.5,-38.5 190.5,-19.5 155.5,-19.5"/>
<text text-anchor="middle" x="173" y="-26.5" font-family="Helvetica,sans-Serif" font-size="10.00">area</text>
</a>
</g>
</g>
<!-- Node2&#45;&gt;Node9 -->
<g id="edge8" class="edge"><title>Node2&#45;&gt;Node9</title>
<path fill="none" stroke="midnightblue" d="M127.611,-45.9101C136.991,-42.3369 147.065,-38.4991 155.241,-35.3843"/>
<polygon fill="midnightblue" stroke="midnightblue" points="126.296,-42.6658 118.197,-49.4965 128.788,-49.2072 126.296,-42.6658"/>
</g>
<!-- Node4 -->
<g id="node4" class="node"><title>Node4</title>
<g id="a_node4"><a xlink:href="../../d3/d37/itm_8h.html#aad6a3ed1b693ddfc2884c909e39d3989" target="_top" xlink:title="point_to_point">
<polygon fill="white" stroke="black" points="240,-152.5 240,-171.5 317,-171.5 317,-152.5 240,-152.5"/>
<text text-anchor="middle" x="278.5" y="-159.5" font-family="Helvetica,sans-Serif" font-size="10.00">point_to_point</text>
</a>
</g>
</g>
<!-- Node3&#45;&gt;Node4 -->
<g id="edge3" class="edge"><title>Node3&#45;&gt;Node4</title>
<path fill="none" stroke="midnightblue" d="M187.439,-103.965C197.471,-116.335 212.135,-132.39 228,-143 233.586,-146.736 240.011,-149.886 246.343,-152.48"/>
<polygon fill="midnightblue" stroke="midnightblue" points="189.922,-101.458 181.003,-95.7396 184.409,-105.772 189.922,-101.458"/>
</g>
<!-- Node5 -->
<g id="node5" class="node"><title>Node5</title>
<g id="a_node5"><a xlink:href="../../d3/d37/itm_8h.html#acca1a0cc60cc78b1f95772c7dc981182" target="_top" xlink:title="point_to_point_rels">
<polygon fill="white" stroke="black" points="229.5,-114.5 229.5,-133.5 327.5,-133.5 327.5,-114.5 229.5,-114.5"/>
<text text-anchor="middle" x="278.5" y="-121.5" font-family="Helvetica,sans-Serif" font-size="10.00">point_to_point_rels</text>
</a>
</g>
</g>
<!-- Node3&#45;&gt;Node5 -->
<g id="edge4" class="edge"><title>Node3&#45;&gt;Node5</title>
<path fill="none" stroke="midnightblue" d="M201.594,-96.131C217.089,-101.82 236.31,-108.877 251.533,-114.466"/>
<polygon fill="midnightblue" stroke="midnightblue" points="202.622,-92.7801 192.028,-92.6191 200.209,-99.3513 202.622,-92.7801"/>
</g>
<!-- Node7 -->
<g id="node7" class="node"><title>Node7</title>
<g id="a_node7"><a xlink:href="../../d3/d37/itm_8h.html#a606b3a527141eef67be36272940cb1ee" target="_top" xlink:title="point_to_pointMDH">
<polygon fill="white" stroke="black" points="228,-76.5 228,-95.5 329,-95.5 329,-76.5 228,-76.5"/>
<text text-anchor="middle" x="278.5" y="-83.5" font-family="Helvetica,sans-Serif" font-size="10.00">point_to_pointMDH</text>
</a>
</g>
</g>
<!-- Node3&#45;&gt;Node7 -->
<g id="edge6" class="edge"><title>Node3&#45;&gt;Node7</title>
<path fill="none" stroke="midnightblue" d="M202.138,-86C210.046,-86 218.892,-86 227.664,-86"/>
<polygon fill="midnightblue" stroke="midnightblue" points="202.028,-82.5001 192.028,-86 202.028,-89.5001 202.028,-82.5001"/>
</g>
<!-- Node8 -->
<g id="node8" class="node"><title>Node8</title>
<g id="a_node8"><a xlink:href="../../d3/d37/itm_8h.html#a3d6220d50384cf3904089e8320ff6617" target="_top" xlink:title="point_to_pointDH">
<polygon fill="white" stroke="black" points="232.5,-38.5 232.5,-57.5 324.5,-57.5 324.5,-38.5 232.5,-38.5"/>
<text text-anchor="middle" x="278.5" y="-45.5" font-family="Helvetica,sans-Serif" font-size="10.00">point_to_pointDH</text>
</a>
</g>
</g>
<!-- Node3&#45;&gt;Node8 -->
<g id="edge7" class="edge"><title>Node3&#45;&gt;Node8</title>
<path fill="none" stroke="midnightblue" d="M201.594,-75.869C217.089,-70.1798 236.31,-63.1229 251.533,-57.5338"/>
<polygon fill="midnightblue" stroke="midnightblue" points="200.209,-72.6487 192.028,-79.3809 202.622,-79.2199 200.209,-72.6487"/>
</g>
<!-- Node6 -->
<g id="node6" class="node"><title>Node6</title>
<g id="a_node6"><a xlink:href="../../d3/dcc/itm__its__py_8cpp.html#ab9bd9d469dbd1234f77f39093f765453" target="_top" xlink:title="itm_point_to_point_rels">
<polygon fill="white" stroke="black" points="365,-114.5 365,-133.5 482,-133.5 482,-114.5 365,-114.5"/>
<text text-anchor="middle" x="423.5" y="-121.5" font-family="Helvetica,sans-Serif" font-size="10.00">itm_point_to_point_rels</text>
</a>
</g>
</g>
<!-- Node5&#45;&gt;Node6 -->
<g id="edge5" class="edge"><title>Node5&#45;&gt;Node6</title>
<path fill="none" stroke="midnightblue" d="M337.556,-124C346.591,-124 355.922,-124 364.945,-124"/>
<polygon fill="midnightblue" stroke="midnightblue" points="337.515,-120.5 327.515,-124 337.515,-127.5 337.515,-120.5"/>
</g>
<!-- Node10 -->
<g id="node10" class="node"><title>Node10</title>
<g id="a_node10"><a xlink:href="../../d3/d37/itm_8h.html#a5e3421c4e7d0133df57f985ed4eacbfd" target="_top" xlink:title="ITMAreadBLoss">
<polygon fill="white" stroke="black" points="235,-0.5 235,-19.5 322,-19.5 322,-0.5 235,-0.5"/>
<text text-anchor="middle" x="278.5" y="-7.5" font-family="Helvetica,sans-Serif" font-size="10.00">ITMAreadBLoss</text>
</a>
</g>
</g>
<!-- Node9&#45;&gt;Node10 -->
<g id="edge9" class="edge"><title>Node9&#45;&gt;Node10</title>
<path fill="none" stroke="midnightblue" d="M200.656,-24.1066C210.984,-22.2106 223.072,-19.9917 234.562,-17.8823"/>
<polygon fill="midnightblue" stroke="midnightblue" points="199.833,-20.6992 190.629,-25.9473 201.097,-27.5841 199.833,-20.6992"/>
</g>
</g>
</svg>
