<?xml version="1.0" encoding="UTF-8" standalone="no"?>
<!DOCTYPE svg PUBLIC "-//W3C//DTD SVG 1.1//EN"
 "http://www.w3.org/Graphics/SVG/1.1/DTD/svg11.dtd">
<!-- Generated by graphviz version 2.38.0 (20140413.2041)
 -->
<!-- Title: mymin Pages: 1 -->
<svg width="572pt" height="267pt"
 viewBox="0.00 0.00 572.00 266.69" xmlns="http://www.w3.org/2000/svg" xmlns:xlink="http://www.w3.org/1999/xlink">
<g id="graph0" class="graph" transform="scale(1 1) rotate(0) translate(4 262.694)">
<title>mymin</title>
<polygon fill="white" stroke="none" points="-4,4 -4,-262.694 568,-262.694 568,4 -4,4"/>
<!-- Node1 -->
<g id="node1" class="node"><title>Node1</title>
<polygon fill="#bfbfbf" stroke="black" points="0,-113.194 0,-132.194 46,-132.194 46,-113.194 0,-113.194"/>
<text text-anchor="middle" x="23" y="-120.194" font-family="Helvetica,sans-Serif" font-size="10.00">mymin</text>
</g>
<!-- Node2 -->
<g id="node2" class="node"><title>Node2</title>
<g id="a_node2"><a xlink:href="../../d2/d31/itm_8cpp.html#a61774c377cce1be80117b174ac61eef2" target="_top" xlink:title="adiff">
<polygon fill="white" stroke="black" points="85,-94.1941 85,-113.194 120,-113.194 120,-94.1941 85,-94.1941"/>
<text text-anchor="middle" x="102.5" y="-101.194" font-family="Helvetica,sans-Serif" font-size="10.00">adiff</text>
</a>
</g>
</g>
<!-- Node1&#45;&gt;Node2 -->
<g id="edge1" class="edge"><title>Node1&#45;&gt;Node2</title>
<path fill="none" stroke="midnightblue" d="M56.0011,-114.849C65.9173,-112.418 76.4418,-109.837 84.8684,-107.772"/>
<polygon fill="midnightblue" stroke="midnightblue" points="54.8801,-111.52 46.0011,-117.3 56.5469,-118.318 54.8801,-111.52"/>
</g>
<!-- Node3 -->
<g id="node3" class="node"><title>Node3</title>
<g id="a_node3"><a xlink:href="../../d2/d31/itm_8cpp.html#a32289828f24201e9dde6140e27708d73" target="_top" xlink:title="lrprop">
<polygon fill="white" stroke="black" points="159,-82.1941 159,-101.194 200,-101.194 200,-82.1941 159,-82.1941"/>
<text text-anchor="middle" x="179.5" y="-89.1941" font-family="Helvetica,sans-Serif" font-size="10.00">lrprop</text>
</a>
</g>
</g>
<!-- Node1&#45;&gt;Node3 -->
<g id="edge17" class="edge"><title>Node1&#45;&gt;Node3</title>
<path fill="none" stroke="midnightblue" d="M42.3713,-106.654C53.1311,-98.3415 67.4365,-89.0401 82,-84.6941 107.754,-77.0089 139.011,-81.6646 158.832,-86.2371"/>
<polygon fill="midnightblue" stroke="midnightblue" points="40.1206,-103.973 34.5651,-112.994 44.5339,-109.406 40.1206,-103.973"/>
</g>
<!-- Node4 -->
<g id="node4" class="node"><title>Node4</title>
<g id="a_node4"><a xlink:href="../../d2/d31/itm_8cpp.html#ae682440b4eaee05406c08f8ae48e60d8" target="_top" xlink:title="qlrpfl">
<polygon fill="white" stroke="black" points="236,-189.194 236,-208.194 274,-208.194 274,-189.194 236,-189.194"/>
<text text-anchor="middle" x="255" y="-196.194" font-family="Helvetica,sans-Serif" font-size="10.00">qlrpfl</text>
</a>
</g>
</g>
<!-- Node1&#45;&gt;Node4 -->
<g id="edge22" class="edge"><title>Node1&#45;&gt;Node4</title>
<path fill="none" stroke="midnightblue" d="M27.5253,-142.409C33.4888,-169.187 48.3752,-216.075 82,-236.694 133.879,-268.507 209.036,-227.899 239.932,-208.238"/>
<polygon fill="midnightblue" stroke="midnightblue" points="30.8946,-141.411 25.4873,-132.3 24.0326,-142.794 30.8946,-141.411"/>
</g>
<!-- Node12 -->
<g id="node12" class="node"><title>Node12</title>
<g id="a_node12"><a xlink:href="../../d2/d31/itm_8cpp.html#a74cbbcd996594f97dd6088dbbaff27c7" target="_top" xlink:title="ascat">
<polygon fill="white" stroke="black" points="82,-18.1941 82,-37.1941 123,-37.1941 123,-18.1941 82,-18.1941"/>
<text text-anchor="middle" x="102.5" y="-25.1941" font-family="Helvetica,sans-Serif" font-size="10.00">ascat</text>
</a>
</g>
</g>
<!-- Node1&#45;&gt;Node12 -->
<g id="edge11" class="edge"><title>Node1&#45;&gt;Node12</title>
<path fill="none" stroke="midnightblue" d="M38.3299,-105.128C54.6428,-85.132 80.7012,-53.1895 93.657,-37.3082"/>
<polygon fill="midnightblue" stroke="midnightblue" points="35.6112,-102.924 32.002,-112.885 41.0353,-107.349 35.6112,-102.924"/>
</g>
<!-- Node13 -->
<g id="node13" class="node"><title>Node13</title>
<g id="a_node13"><a xlink:href="../../d2/d31/itm_8cpp.html#a404799cf89ce54ce7b92e13ad355ad85" target="_top" xlink:title="alos">
<polygon fill="white" stroke="black" points="85,-132.194 85,-151.194 120,-151.194 120,-132.194 85,-132.194"/>
<text text-anchor="middle" x="102.5" y="-139.194" font-family="Helvetica,sans-Serif" font-size="10.00">alos</text>
</a>
</g>
</g>
<!-- Node1&#45;&gt;Node13 -->
<g id="edge13" class="edge"><title>Node1&#45;&gt;Node13</title>
<path fill="none" stroke="midnightblue" d="M56.0011,-130.54C65.9173,-132.971 76.4418,-135.551 84.8684,-137.617"/>
<polygon fill="midnightblue" stroke="midnightblue" points="56.5469,-127.07 46.0011,-128.088 54.8801,-133.868 56.5469,-127.07"/>
</g>
<!-- Node14 -->
<g id="node14" class="node"><title>Node14</title>
<g id="a_node14"><a xlink:href="../../d2/d31/itm_8cpp.html#ae3afa2621c52a60ad6ad9cbeb815bea0" target="_top" xlink:title="qlra">
<polygon fill="white" stroke="black" points="163.5,-6.19414 163.5,-25.1941 195.5,-25.1941 195.5,-6.19414 163.5,-6.19414"/>
<text text-anchor="middle" x="179.5" y="-13.1941" font-family="Helvetica,sans-Serif" font-size="10.00">qlra</text>
</a>
</g>
</g>
<!-- Node1&#45;&gt;Node14 -->
<g id="edge15" class="edge"><title>Node1&#45;&gt;Node14</title>
<path fill="none" stroke="midnightblue" d="M27.5253,-102.979C33.4888,-76.2017 48.3752,-29.3133 82,-8.69414 107.059,6.67252 142.952,-2.24103 163.157,-9.42004"/>
<polygon fill="midnightblue" stroke="midnightblue" points="24.0326,-102.594 25.4873,-113.089 30.8946,-103.978 24.0326,-102.594"/>
</g>
<!-- Node15 -->
<g id="node15" class="node"><title>Node15</title>
<g id="a_node15"><a xlink:href="../../d2/d31/itm_8cpp.html#a8ab54b7902d55b592e2d76dafdb93069" target="_top" xlink:title="qtile">
<polygon fill="white" stroke="black" points="85,-208.194 85,-227.194 120,-227.194 120,-208.194 85,-208.194"/>
<text text-anchor="middle" x="102.5" y="-215.194" font-family="Helvetica,sans-Serif" font-size="10.00">qtile</text>
</a>
</g>
</g>
<!-- Node1&#45;&gt;Node15 -->
<g id="edge18" class="edge"><title>Node1&#45;&gt;Node15</title>
<path fill="none" stroke="midnightblue" d="M38.3299,-140.26C54.6428,-160.256 80.7012,-192.199 93.657,-208.08"/>
<polygon fill="midnightblue" stroke="midnightblue" points="41.0353,-138.039 32.002,-132.503 35.6112,-142.464 41.0353,-138.039"/>
</g>
<!-- Node16 -->
<g id="node16" class="node"><title>Node16</title>
<g id="a_node16"><a xlink:href="../../d2/d31/itm_8cpp.html#a45e678693240356cd41b59d8edb5bb12" target="_top" xlink:title="d1thx">
<polygon fill="white" stroke="black" points="159,-189.194 159,-208.194 200,-208.194 200,-189.194 159,-189.194"/>
<text text-anchor="middle" x="179.5" y="-196.194" font-family="Helvetica,sans-Serif" font-size="10.00">d1thx</text>
</a>
</g>
</g>
<!-- Node1&#45;&gt;Node16 -->
<g id="edge21" class="edge"><title>Node1&#45;&gt;Node16</title>
<path fill="none" stroke="midnightblue" d="M45.1902,-138.084C55.9066,-145.472 69.3041,-154.124 82,-160.694 107.586,-173.935 138.885,-185.469 158.761,-192.257"/>
<polygon fill="midnightblue" stroke="midnightblue" points="47.0864,-135.139 36.8933,-132.249 43.0594,-140.865 47.0864,-135.139"/>
</g>
<!-- Node2&#45;&gt;Node3 -->
<g id="edge2" class="edge"><title>Node2&#45;&gt;Node3</title>
<path fill="none" stroke="midnightblue" d="M130.275,-99.4102C139.75,-97.8942 150.223,-96.2185 158.981,-94.8171"/>
<polygon fill="midnightblue" stroke="midnightblue" points="129.466,-95.9949 120.145,-101.031 130.572,-102.907 129.466,-95.9949"/>
</g>
<!-- Node3&#45;&gt;Node4 -->
<g id="edge3" class="edge"><title>Node3&#45;&gt;Node4</title>
<path fill="none" stroke="midnightblue" d="M193.129,-110.079C208.889,-133.022 235.25,-171.399 247.445,-189.152"/>
<polygon fill="midnightblue" stroke="midnightblue" points="195.83,-107.83 187.283,-101.569 190.06,-111.793 195.83,-107.83"/>
</g>
<!-- Node10 -->
<g id="node10" class="node"><title>Node10</title>
<g id="a_node10"><a xlink:href="../../d2/d31/itm_8cpp.html#aac99abe6fa8a284a3e964aa7f45a8deb" target="_top" xlink:title="area">
<polygon fill="white" stroke="black" points="237.5,-73.1941 237.5,-92.1941 272.5,-92.1941 272.5,-73.1941 237.5,-73.1941"/>
<text text-anchor="middle" x="255" y="-80.1941" font-family="Helvetica,sans-Serif" font-size="10.00">area</text>
</a>
</g>
</g>
<!-- Node3&#45;&gt;Node10 -->
<g id="edge9" class="edge"><title>Node3&#45;&gt;Node10</title>
<path fill="none" stroke="midnightblue" d="M210.204,-88.0569C219.414,-86.9292 229.237,-85.7263 237.241,-84.7462"/>
<polygon fill="midnightblue" stroke="midnightblue" points="209.697,-84.5928 200.197,-89.2823 210.548,-91.5409 209.697,-84.5928"/>
</g>
<!-- Node5 -->
<g id="node5" class="node"><title>Node5</title>
<g id="a_node5"><a xlink:href="../../d3/d37/itm_8h.html#aad6a3ed1b693ddfc2884c909e39d3989" target="_top" xlink:title="point_to_point">
<polygon fill="white" stroke="black" points="322,-201.194 322,-220.194 399,-220.194 399,-201.194 322,-201.194"/>
<text text-anchor="middle" x="360.5" y="-208.194" font-family="Helvetica,sans-Serif" font-size="10.00">point_to_point</text>
</a>
</g>
</g>
<!-- Node4&#45;&gt;Node5 -->
<g id="edge4" class="edge"><title>Node4&#45;&gt;Node5</title>
<path fill="none" stroke="midnightblue" d="M284.075,-201.949C295.743,-203.302 309.457,-204.892 321.969,-206.343"/>
<polygon fill="midnightblue" stroke="midnightblue" points="284.365,-198.459 274.028,-200.784 283.559,-205.413 284.365,-198.459"/>
</g>
<!-- Node6 -->
<g id="node6" class="node"><title>Node6</title>
<g id="a_node6"><a xlink:href="../../d3/d37/itm_8h.html#acca1a0cc60cc78b1f95772c7dc981182" target="_top" xlink:title="point_to_point_rels">
<polygon fill="white" stroke="black" points="311.5,-163.194 311.5,-182.194 409.5,-182.194 409.5,-163.194 311.5,-163.194"/>
<text text-anchor="middle" x="360.5" y="-170.194" font-family="Helvetica,sans-Serif" font-size="10.00">point_to_point_rels</text>
</a>
</g>
</g>
<!-- Node4&#45;&gt;Node6 -->
<g id="edge5" class="edge"><title>Node4&#45;&gt;Node6</title>
<path fill="none" stroke="midnightblue" d="M283.981,-191.665C295.535,-188.763 309.11,-185.353 321.539,-182.23"/>
<polygon fill="midnightblue" stroke="midnightblue" points="282.874,-188.334 274.028,-194.165 284.58,-195.123 282.874,-188.334"/>
</g>
<!-- Node8 -->
<g id="node8" class="node"><title>Node8</title>
<g id="a_node8"><a xlink:href="../../d3/d37/itm_8h.html#a606b3a527141eef67be36272940cb1ee" target="_top" xlink:title="point_to_pointMDH">
<polygon fill="white" stroke="black" points="310,-125.194 310,-144.194 411,-144.194 411,-125.194 310,-125.194"/>
<text text-anchor="middle" x="360.5" y="-132.194" font-family="Helvetica,sans-Serif" font-size="10.00">point_to_pointMDH</text>
</a>
</g>
</g>
<!-- Node4&#45;&gt;Node8 -->
<g id="edge7" class="edge"><title>Node4&#45;&gt;Node8</title>
<path fill="none" stroke="midnightblue" d="M272.936,-182.086C283.064,-172.819 296.545,-161.589 310,-153.694 316.193,-150.061 323.207,-146.877 329.967,-144.207"/>
<polygon fill="midnightblue" stroke="midnightblue" points="270.48,-179.591 265.598,-188.995 275.278,-184.688 270.48,-179.591"/>
</g>
<!-- Node9 -->
<g id="node9" class="node"><title>Node9</title>
<g id="a_node9"><a xlink:href="../../d3/d37/itm_8h.html#a3d6220d50384cf3904089e8320ff6617" target="_top" xlink:title="point_to_pointDH">
<polygon fill="white" stroke="black" points="314.5,-239.194 314.5,-258.194 406.5,-258.194 406.5,-239.194 314.5,-239.194"/>
<text text-anchor="middle" x="360.5" y="-246.194" font-family="Helvetica,sans-Serif" font-size="10.00">point_to_pointDH</text>
</a>
</g>
</g>
<!-- Node4&#45;&gt;Node9 -->
<g id="edge8" class="edge"><title>Node4&#45;&gt;Node9</title>
<path fill="none" stroke="midnightblue" d="M279.9,-213.476C289.135,-218.903 299.896,-224.89 310,-229.694 317.149,-233.093 325.082,-236.353 332.464,-239.183"/>
<polygon fill="midnightblue" stroke="midnightblue" points="281.633,-210.433 271.255,-208.299 278.036,-216.439 281.633,-210.433"/>
</g>
<!-- Node7 -->
<g id="node7" class="node"><title>Node7</title>
<g id="a_node7"><a xlink:href="../../d3/dcc/itm__its__py_8cpp.html#ab9bd9d469dbd1234f77f39093f765453" target="_top" xlink:title="itm_point_to_point_rels">
<polygon fill="white" stroke="black" points="447,-163.194 447,-182.194 564,-182.194 564,-163.194 447,-163.194"/>
<text text-anchor="middle" x="505.5" y="-170.194" font-family="Helvetica,sans-Serif" font-size="10.00">itm_point_to_point_rels</text>
</a>
</g>
</g>
<!-- Node6&#45;&gt;Node7 -->
<g id="edge6" class="edge"><title>Node6&#45;&gt;Node7</title>
<path fill="none" stroke="midnightblue" d="M419.556,-172.694C428.591,-172.694 437.922,-172.694 446.945,-172.694"/>
<polygon fill="midnightblue" stroke="midnightblue" points="419.515,-169.194 409.515,-172.694 419.515,-176.194 419.515,-169.194"/>
</g>
<!-- Node11 -->
<g id="node11" class="node"><title>Node11</title>
<g id="a_node11"><a xlink:href="../../d3/d37/itm_8h.html#a5e3421c4e7d0133df57f985ed4eacbfd" target="_top" xlink:title="ITMAreadBLoss">
<polygon fill="white" stroke="black" points="317,-73.1941 317,-92.1941 404,-92.1941 404,-73.1941 317,-73.1941"/>
<text text-anchor="middle" x="360.5" y="-80.1941" font-family="Helvetica,sans-Serif" font-size="10.00">ITMAreadBLoss</text>
</a>
</g>
</g>
<!-- Node10&#45;&gt;Node11 -->
<g id="edge10" class="edge"><title>Node10&#45;&gt;Node11</title>
<path fill="none" stroke="midnightblue" d="M282.656,-82.6941C292.984,-82.6941 305.072,-82.6941 316.562,-82.6941"/>
<polygon fill="midnightblue" stroke="midnightblue" points="282.629,-79.1942 272.629,-82.6941 282.629,-86.1942 282.629,-79.1942"/>
</g>
<!-- Node12&#45;&gt;Node3 -->
<g id="edge12" class="edge"><title>Node12&#45;&gt;Node3</title>
<path fill="none" stroke="midnightblue" d="M122.532,-43.9348C136.558,-55.9033 155.177,-71.7917 167.002,-81.8824"/>
<polygon fill="midnightblue" stroke="midnightblue" points="124.77,-41.2432 114.891,-37.4144 120.226,-46.568 124.77,-41.2432"/>
</g>
<!-- Node13&#45;&gt;Node3 -->
<g id="edge14" class="edge"><title>Node13&#45;&gt;Node3</title>
<path fill="none" stroke="midnightblue" d="M126.369,-126.448C138.648,-118.262 153.408,-108.422 164.084,-101.305"/>
<polygon fill="midnightblue" stroke="midnightblue" points="124.34,-123.594 117.961,-132.054 128.223,-129.419 124.34,-123.594"/>
</g>
<!-- Node14&#45;&gt;Node10 -->
<g id="edge16" class="edge"><title>Node14&#45;&gt;Node10</title>
<path fill="none" stroke="midnightblue" d="M198.667,-32.2541C212.766,-45.1062 231.817,-62.4729 243.489,-73.1125"/>
<polygon fill="midnightblue" stroke="midnightblue" points="200.779,-29.4438 191.031,-25.2936 196.063,-34.617 200.779,-29.4438"/>
</g>
<!-- Node15&#45;&gt;Node16 -->
<g id="edge19" class="edge"><title>Node15&#45;&gt;Node16</title>
<path fill="none" stroke="midnightblue" d="M129.969,-210.989C139.525,-208.568 150.129,-205.882 158.981,-203.639"/>
<polygon fill="midnightblue" stroke="midnightblue" points="128.979,-207.629 120.145,-213.477 130.698,-214.414 128.979,-207.629"/>
</g>
<!-- Node16&#45;&gt;Node4 -->
<g id="edge20" class="edge"><title>Node16&#45;&gt;Node4</title>
<path fill="none" stroke="midnightblue" d="M210.314,-198.694C218.932,-198.694 228.079,-198.694 235.764,-198.694"/>
<polygon fill="midnightblue" stroke="midnightblue" points="210.197,-195.194 200.197,-198.694 210.197,-202.194 210.197,-195.194"/>
</g>
</g>
</svg>
