<?xml version="1.0" encoding="UTF-8" standalone="no"?>
<!DOCTYPE svg PUBLIC "-//W3C//DTD SVG 1.1//EN"
 "http://www.w3.org/Graphics/SVG/1.1/DTD/svg11.dtd">
<!-- Generated by graphviz version 2.38.0 (20140413.2041)
 -->
<!-- Title: curve Pages: 1 -->
<svg width="410pt" height="180pt"
 viewBox="0.00 0.00 410.00 180.00" xmlns="http://www.w3.org/2000/svg" xmlns:xlink="http://www.w3.org/1999/xlink">
<g id="graph0" class="graph" transform="scale(1 1) rotate(0) translate(4 176)">
<title>curve</title>
<polygon fill="white" stroke="none" points="-4,4 -4,-176 406,-176 406,4 -4,4"/>
<!-- Node1 -->
<g id="node1" class="node"><title>Node1</title>
<polygon fill="#bfbfbf" stroke="black" points="0,-76.5 0,-95.5 41,-95.5 41,-76.5 0,-76.5"/>
<text text-anchor="middle" x="20.5" y="-83.5" font-family="Helvetica,sans-Serif" font-size="10.00">curve</text>
</g>
<!-- Node2 -->
<g id="node2" class="node"><title>Node2</title>
<g id="a_node2"><a xlink:href="../../d2/d31/itm_8cpp.html#af10b92806af5d5946a8332763321e2df" target="_top" xlink:title="avar">
<polygon fill="white" stroke="black" points="77,-76.5 77,-95.5 112,-95.5 112,-76.5 77,-76.5"/>
<text text-anchor="middle" x="94.5" y="-83.5" font-family="Helvetica,sans-Serif" font-size="10.00">avar</text>
</a>
</g>
</g>
<!-- Node1&#45;&gt;Node2 -->
<g id="edge1" class="edge"><title>Node1&#45;&gt;Node2</title>
<path fill="none" stroke="midnightblue" d="M51.3754,-86C60.053,-86 69.2196,-86 76.7781,-86"/>
<polygon fill="midnightblue" stroke="midnightblue" points="51.1744,-82.5001 41.1743,-86 51.1743,-89.5001 51.1744,-82.5001"/>
</g>
<!-- Node3 -->
<g id="node3" class="node"><title>Node3</title>
<g id="a_node3"><a xlink:href="../../d3/d37/itm_8h.html#aad6a3ed1b693ddfc2884c909e39d3989" target="_top" xlink:title="point_to_point">
<polygon fill="white" stroke="black" points="160,-152.5 160,-171.5 237,-171.5 237,-152.5 160,-152.5"/>
<text text-anchor="middle" x="198.5" y="-159.5" font-family="Helvetica,sans-Serif" font-size="10.00">point_to_point</text>
</a>
</g>
</g>
<!-- Node2&#45;&gt;Node3 -->
<g id="edge2" class="edge"><title>Node2&#45;&gt;Node3</title>
<path fill="none" stroke="midnightblue" d="M108.468,-103.983C118.174,-116.361 132.416,-132.418 148,-143 153.483,-146.723 159.798,-149.855 166.042,-152.433"/>
<polygon fill="midnightblue" stroke="midnightblue" points="111.069,-101.619 102.248,-95.7505 105.484,-105.839 111.069,-101.619"/>
</g>
<!-- Node4 -->
<g id="node4" class="node"><title>Node4</title>
<g id="a_node4"><a xlink:href="../../d3/d37/itm_8h.html#acca1a0cc60cc78b1f95772c7dc981182" target="_top" xlink:title="point_to_point_rels">
<polygon fill="white" stroke="black" points="149.5,-114.5 149.5,-133.5 247.5,-133.5 247.5,-114.5 149.5,-114.5"/>
<text text-anchor="middle" x="198.5" y="-121.5" font-family="Helvetica,sans-Serif" font-size="10.00">point_to_point_rels</text>
</a>
</g>
</g>
<!-- Node2&#45;&gt;Node4 -->
<g id="edge3" class="edge"><title>Node2&#45;&gt;Node4</title>
<path fill="none" stroke="midnightblue" d="M121.805,-95.7999C137.198,-101.535 156.549,-108.744 171.831,-114.437"/>
<polygon fill="midnightblue" stroke="midnightblue" points="122.936,-92.4863 112.343,-92.2749 120.492,-99.0459 122.936,-92.4863"/>
</g>
<!-- Node6 -->
<g id="node6" class="node"><title>Node6</title>
<g id="a_node6"><a xlink:href="../../d3/d37/itm_8h.html#a606b3a527141eef67be36272940cb1ee" target="_top" xlink:title="point_to_pointMDH">
<polygon fill="white" stroke="black" points="148,-76.5 148,-95.5 249,-95.5 249,-76.5 148,-76.5"/>
<text text-anchor="middle" x="198.5" y="-83.5" font-family="Helvetica,sans-Serif" font-size="10.00">point_to_pointMDH</text>
</a>
</g>
</g>
<!-- Node2&#45;&gt;Node6 -->
<g id="edge5" class="edge"><title>Node2&#45;&gt;Node6</title>
<path fill="none" stroke="midnightblue" d="M122.537,-86C130.269,-86 138.952,-86 147.593,-86"/>
<polygon fill="midnightblue" stroke="midnightblue" points="122.343,-82.5001 112.343,-86 122.343,-89.5001 122.343,-82.5001"/>
</g>
<!-- Node7 -->
<g id="node7" class="node"><title>Node7</title>
<g id="a_node7"><a xlink:href="../../d3/d37/itm_8h.html#a3d6220d50384cf3904089e8320ff6617" target="_top" xlink:title="point_to_pointDH">
<polygon fill="white" stroke="black" points="152.5,-38.5 152.5,-57.5 244.5,-57.5 244.5,-38.5 152.5,-38.5"/>
<text text-anchor="middle" x="198.5" y="-45.5" font-family="Helvetica,sans-Serif" font-size="10.00">point_to_pointDH</text>
</a>
</g>
</g>
<!-- Node2&#45;&gt;Node7 -->
<g id="edge6" class="edge"><title>Node2&#45;&gt;Node7</title>
<path fill="none" stroke="midnightblue" d="M121.805,-76.2001C137.198,-70.4653 156.549,-63.2564 171.831,-57.5629"/>
<polygon fill="midnightblue" stroke="midnightblue" points="120.492,-72.9541 112.343,-79.7251 122.936,-79.5137 120.492,-72.9541"/>
</g>
<!-- Node8 -->
<g id="node8" class="node"><title>Node8</title>
<g id="a_node8"><a xlink:href="../../d2/d31/itm_8cpp.html#aac99abe6fa8a284a3e964aa7f45a8deb" target="_top" xlink:title="area">
<polygon fill="white" stroke="black" points="181,-0.5 181,-19.5 216,-19.5 216,-0.5 181,-0.5"/>
<text text-anchor="middle" x="198.5" y="-7.5" font-family="Helvetica,sans-Serif" font-size="10.00">area</text>
</a>
</g>
</g>
<!-- Node2&#45;&gt;Node8 -->
<g id="edge7" class="edge"><title>Node2&#45;&gt;Node8</title>
<path fill="none" stroke="midnightblue" d="M108.468,-68.0174C118.174,-55.6392 132.416,-39.5816 148,-29 158.052,-22.1745 170.899,-17.3363 180.985,-14.2507"/>
<polygon fill="midnightblue" stroke="midnightblue" points="105.484,-66.1609 102.248,-76.2495 111.069,-70.381 105.484,-66.1609"/>
</g>
<!-- Node5 -->
<g id="node5" class="node"><title>Node5</title>
<g id="a_node5"><a xlink:href="../../d3/dcc/itm__its__py_8cpp.html#ab9bd9d469dbd1234f77f39093f765453" target="_top" xlink:title="itm_point_to_point_rels">
<polygon fill="white" stroke="black" points="285,-114.5 285,-133.5 402,-133.5 402,-114.5 285,-114.5"/>
<text text-anchor="middle" x="343.5" y="-121.5" font-family="Helvetica,sans-Serif" font-size="10.00">itm_point_to_point_rels</text>
</a>
</g>
</g>
<!-- Node4&#45;&gt;Node5 -->
<g id="edge4" class="edge"><title>Node4&#45;&gt;Node5</title>
<path fill="none" stroke="midnightblue" d="M257.556,-124C266.591,-124 275.922,-124 284.945,-124"/>
<polygon fill="midnightblue" stroke="midnightblue" points="257.515,-120.5 247.515,-124 257.515,-127.5 257.515,-120.5"/>
</g>
<!-- Node9 -->
<g id="node9" class="node"><title>Node9</title>
<g id="a_node9"><a xlink:href="../../d3/d37/itm_8h.html#a5e3421c4e7d0133df57f985ed4eacbfd" target="_top" xlink:title="ITMAreadBLoss">
<polygon fill="white" stroke="black" points="300,-0.5 300,-19.5 387,-19.5 387,-0.5 300,-0.5"/>
<text text-anchor="middle" x="343.5" y="-7.5" font-family="Helvetica,sans-Serif" font-size="10.00">ITMAreadBLoss</text>
</a>
</g>
</g>
<!-- Node8&#45;&gt;Node9 -->
<g id="edge8" class="edge"><title>Node8&#45;&gt;Node9</title>
<path fill="none" stroke="midnightblue" d="M226.184,-10C246.913,-10 276.062,-10 299.994,-10"/>
<polygon fill="midnightblue" stroke="midnightblue" points="226.184,-6.5001 216.184,-10 226.184,-13.5001 226.184,-6.5001"/>
</g>
</g>
</svg>
