<?xml version="1.0" encoding="UTF-8" standalone="no"?>
<!DOCTYPE svg PUBLIC "-//W3C//DTD SVG 1.1//EN"
 "http://www.w3.org/Graphics/SVG/1.1/DTD/svg11.dtd">
<!-- Generated by graphviz version 2.38.0 (20140413.2041)
 -->
<!-- Title: FORTRAN_DIM Pages: 1 -->
<svg width="617pt" height="218pt"
 viewBox="0.00 0.00 617.00 218.00" xmlns="http://www.w3.org/2000/svg" xmlns:xlink="http://www.w3.org/1999/xlink">
<g id="graph0" class="graph" transform="scale(1 1) rotate(0) translate(4 214)">
<title>FORTRAN_DIM</title>
<polygon fill="white" stroke="none" points="-4,4 -4,-214 613,-214 613,4 -4,4"/>
<!-- Node1 -->
<g id="node1" class="node"><title>Node1</title>
<polygon fill="#bfbfbf" stroke="black" points="0,-133.5 0,-152.5 89,-152.5 89,-133.5 0,-133.5"/>
<text text-anchor="middle" x="44.5" y="-140.5" font-family="Helvetica,sans-Serif" font-size="10.00">FORTRAN_DIM</text>
</g>
<!-- Node2 -->
<g id="node2" class="node"><title>Node2</title>
<g id="a_node2"><a xlink:href="../../d2/d31/itm_8cpp.html#a74cbbcd996594f97dd6088dbbaff27c7" target="_top" xlink:title="ascat">
<polygon fill="white" stroke="black" points="126,-190.5 126,-209.5 167,-209.5 167,-190.5 126,-190.5"/>
<text text-anchor="middle" x="146.5" y="-197.5" font-family="Helvetica,sans-Serif" font-size="10.00">ascat</text>
</a>
</g>
</g>
<!-- Node1&#45;&gt;Node2 -->
<g id="edge1" class="edge"><title>Node1&#45;&gt;Node2</title>
<path fill="none" stroke="midnightblue" d="M71.3522,-157.736C89.4557,-168.055 113.117,-181.542 128.787,-190.474"/>
<polygon fill="midnightblue" stroke="midnightblue" points="72.8847,-154.581 62.4636,-152.669 69.4182,-160.662 72.8847,-154.581"/>
</g>
<!-- Node3 -->
<g id="node3" class="node"><title>Node3</title>
<g id="a_node3"><a xlink:href="../../d2/d31/itm_8cpp.html#a32289828f24201e9dde6140e27708d73" target="_top" xlink:title="lrprop">
<polygon fill="white" stroke="black" points="204,-152.5 204,-171.5 245,-171.5 245,-152.5 204,-152.5"/>
<text text-anchor="middle" x="224.5" y="-159.5" font-family="Helvetica,sans-Serif" font-size="10.00">lrprop</text>
</a>
</g>
</g>
<!-- Node1&#45;&gt;Node3 -->
<g id="edge11" class="edge"><title>Node1&#45;&gt;Node3</title>
<path fill="none" stroke="midnightblue" d="M99.2327,-148.736C134.606,-152.511 178.845,-157.234 203.864,-159.904"/>
<polygon fill="midnightblue" stroke="midnightblue" points="99.3587,-145.229 89.0437,-147.648 98.6157,-152.19 99.3587,-145.229"/>
</g>
<!-- Node4 -->
<g id="node4" class="node"><title>Node4</title>
<g id="a_node4"><a xlink:href="../../d2/d31/itm_8cpp.html#ae682440b4eaee05406c08f8ae48e60d8" target="_top" xlink:title="qlrpfl">
<polygon fill="white" stroke="black" points="281,-76.5 281,-95.5 319,-95.5 319,-76.5 281,-76.5"/>
<text text-anchor="middle" x="300" y="-83.5" font-family="Helvetica,sans-Serif" font-size="10.00">qlrpfl</text>
</a>
</g>
</g>
<!-- Node1&#45;&gt;Node4 -->
<g id="edge16" class="edge"><title>Node1&#45;&gt;Node4</title>
<path fill="none" stroke="midnightblue" d="M99.0734,-132.08C139.317,-123.726 195.741,-111.689 245,-100 256.873,-97.1826 270.14,-93.7471 280.553,-90.9844"/>
<polygon fill="midnightblue" stroke="midnightblue" points="98.288,-128.669 89.2048,-134.123 99.7066,-135.523 98.288,-128.669"/>
</g>
<!-- Node12 -->
<g id="node12" class="node"><title>Node12</title>
<g id="a_node12"><a xlink:href="../../d2/d31/itm_8cpp.html#a95a65538c0942d9e797bc3ea36ab7f08" target="_top" xlink:title="z1sq1">
<polygon fill="white" stroke="black" points="125,-76.5 125,-95.5 168,-95.5 168,-76.5 125,-76.5"/>
<text text-anchor="middle" x="146.5" y="-83.5" font-family="Helvetica,sans-Serif" font-size="10.00">z1sq1</text>
</a>
</g>
</g>
<!-- Node1&#45;&gt;Node12 -->
<g id="edge12" class="edge"><title>Node1&#45;&gt;Node12</title>
<path fill="none" stroke="midnightblue" d="M71.3522,-128.264C89.4557,-117.945 113.117,-104.458 128.787,-95.5265"/>
<polygon fill="midnightblue" stroke="midnightblue" points="69.4182,-125.338 62.4636,-133.331 72.8847,-131.419 69.4182,-125.338"/>
</g>
<!-- Node2&#45;&gt;Node3 -->
<g id="edge2" class="edge"><title>Node2&#45;&gt;Node3</title>
<path fill="none" stroke="midnightblue" d="M175.801,-185.849C185.311,-181.095 195.688,-175.906 204.328,-171.586"/>
<polygon fill="midnightblue" stroke="midnightblue" points="174.057,-182.808 166.678,-190.411 177.188,-189.069 174.057,-182.808"/>
</g>
<!-- Node3&#45;&gt;Node4 -->
<g id="edge3" class="edge"><title>Node3&#45;&gt;Node4</title>
<path fill="none" stroke="midnightblue" d="M241.812,-145.133C256.468,-129.979 277.483,-108.249 289.535,-95.7874"/>
<polygon fill="midnightblue" stroke="midnightblue" points="239.245,-142.753 234.809,-152.375 244.277,-147.619 239.245,-142.753"/>
</g>
<!-- Node10 -->
<g id="node10" class="node"><title>Node10</title>
<g id="a_node10"><a xlink:href="../../d2/d31/itm_8cpp.html#aac99abe6fa8a284a3e964aa7f45a8deb" target="_top" xlink:title="area">
<polygon fill="white" stroke="black" points="282.5,-152.5 282.5,-171.5 317.5,-171.5 317.5,-152.5 282.5,-152.5"/>
<text text-anchor="middle" x="300" y="-159.5" font-family="Helvetica,sans-Serif" font-size="10.00">area</text>
</a>
</g>
</g>
<!-- Node3&#45;&gt;Node10 -->
<g id="edge9" class="edge"><title>Node3&#45;&gt;Node10</title>
<path fill="none" stroke="midnightblue" d="M255.204,-162C264.414,-162 274.237,-162 282.241,-162"/>
<polygon fill="midnightblue" stroke="midnightblue" points="255.197,-158.5 245.197,-162 255.197,-165.5 255.197,-158.5"/>
</g>
<!-- Node5 -->
<g id="node5" class="node"><title>Node5</title>
<g id="a_node5"><a xlink:href="../../d3/d37/itm_8h.html#aad6a3ed1b693ddfc2884c909e39d3989" target="_top" xlink:title="point_to_point">
<polygon fill="white" stroke="black" points="367,-114.5 367,-133.5 444,-133.5 444,-114.5 367,-114.5"/>
<text text-anchor="middle" x="405.5" y="-121.5" font-family="Helvetica,sans-Serif" font-size="10.00">point_to_point</text>
</a>
</g>
</g>
<!-- Node4&#45;&gt;Node5 -->
<g id="edge4" class="edge"><title>Node4&#45;&gt;Node5</title>
<path fill="none" stroke="midnightblue" d="M328.594,-96.131C344.089,-101.82 363.31,-108.877 378.533,-114.466"/>
<polygon fill="midnightblue" stroke="midnightblue" points="329.622,-92.7801 319.028,-92.6191 327.209,-99.3513 329.622,-92.7801"/>
</g>
<!-- Node6 -->
<g id="node6" class="node"><title>Node6</title>
<g id="a_node6"><a xlink:href="../../d3/d37/itm_8h.html#acca1a0cc60cc78b1f95772c7dc981182" target="_top" xlink:title="point_to_point_rels">
<polygon fill="white" stroke="black" points="356.5,-76.5 356.5,-95.5 454.5,-95.5 454.5,-76.5 356.5,-76.5"/>
<text text-anchor="middle" x="405.5" y="-83.5" font-family="Helvetica,sans-Serif" font-size="10.00">point_to_point_rels</text>
</a>
</g>
</g>
<!-- Node4&#45;&gt;Node6 -->
<g id="edge5" class="edge"><title>Node4&#45;&gt;Node6</title>
<path fill="none" stroke="midnightblue" d="M329.075,-86C337.534,-86 347.07,-86 356.443,-86"/>
<polygon fill="midnightblue" stroke="midnightblue" points="329.028,-82.5001 319.028,-86 329.028,-89.5001 329.028,-82.5001"/>
</g>
<!-- Node8 -->
<g id="node8" class="node"><title>Node8</title>
<g id="a_node8"><a xlink:href="../../d3/d37/itm_8h.html#a606b3a527141eef67be36272940cb1ee" target="_top" xlink:title="point_to_pointMDH">
<polygon fill="white" stroke="black" points="355,-38.5 355,-57.5 456,-57.5 456,-38.5 355,-38.5"/>
<text text-anchor="middle" x="405.5" y="-45.5" font-family="Helvetica,sans-Serif" font-size="10.00">point_to_pointMDH</text>
</a>
</g>
</g>
<!-- Node4&#45;&gt;Node8 -->
<g id="edge7" class="edge"><title>Node4&#45;&gt;Node8</title>
<path fill="none" stroke="midnightblue" d="M328.594,-75.869C344.089,-70.1798 363.31,-63.1229 378.533,-57.5338"/>
<polygon fill="midnightblue" stroke="midnightblue" points="327.209,-72.6487 319.028,-79.3809 329.622,-79.2199 327.209,-72.6487"/>
</g>
<!-- Node9 -->
<g id="node9" class="node"><title>Node9</title>
<g id="a_node9"><a xlink:href="../../d3/d37/itm_8h.html#a3d6220d50384cf3904089e8320ff6617" target="_top" xlink:title="point_to_pointDH">
<polygon fill="white" stroke="black" points="359.5,-0.5 359.5,-19.5 451.5,-19.5 451.5,-0.5 359.5,-0.5"/>
<text text-anchor="middle" x="405.5" y="-7.5" font-family="Helvetica,sans-Serif" font-size="10.00">point_to_pointDH</text>
</a>
</g>
</g>
<!-- Node4&#45;&gt;Node9 -->
<g id="edge8" class="edge"><title>Node4&#45;&gt;Node9</title>
<path fill="none" stroke="midnightblue" d="M314.439,-68.035C324.471,-55.6652 339.135,-39.6102 355,-29 360.586,-25.2644 367.011,-22.1144 373.343,-19.5196"/>
<polygon fill="midnightblue" stroke="midnightblue" points="311.409,-66.228 308.003,-76.2604 316.922,-70.5417 311.409,-66.228"/>
</g>
<!-- Node7 -->
<g id="node7" class="node"><title>Node7</title>
<g id="a_node7"><a xlink:href="../../d3/dcc/itm__its__py_8cpp.html#ab9bd9d469dbd1234f77f39093f765453" target="_top" xlink:title="itm_point_to_point_rels">
<polygon fill="white" stroke="black" points="492,-76.5 492,-95.5 609,-95.5 609,-76.5 492,-76.5"/>
<text text-anchor="middle" x="550.5" y="-83.5" font-family="Helvetica,sans-Serif" font-size="10.00">itm_point_to_point_rels</text>
</a>
</g>
</g>
<!-- Node6&#45;&gt;Node7 -->
<g id="edge6" class="edge"><title>Node6&#45;&gt;Node7</title>
<path fill="none" stroke="midnightblue" d="M464.556,-86C473.591,-86 482.922,-86 491.945,-86"/>
<polygon fill="midnightblue" stroke="midnightblue" points="464.515,-82.5001 454.515,-86 464.515,-89.5001 464.515,-82.5001"/>
</g>
<!-- Node11 -->
<g id="node11" class="node"><title>Node11</title>
<g id="a_node11"><a xlink:href="../../d3/d37/itm_8h.html#a5e3421c4e7d0133df57f985ed4eacbfd" target="_top" xlink:title="ITMAreadBLoss">
<polygon fill="white" stroke="black" points="362,-152.5 362,-171.5 449,-171.5 449,-152.5 362,-152.5"/>
<text text-anchor="middle" x="405.5" y="-159.5" font-family="Helvetica,sans-Serif" font-size="10.00">ITMAreadBLoss</text>
</a>
</g>
</g>
<!-- Node10&#45;&gt;Node11 -->
<g id="edge10" class="edge"><title>Node10&#45;&gt;Node11</title>
<path fill="none" stroke="midnightblue" d="M327.656,-162C337.984,-162 350.072,-162 361.562,-162"/>
<polygon fill="midnightblue" stroke="midnightblue" points="327.629,-158.5 317.629,-162 327.629,-165.5 327.629,-158.5"/>
</g>
<!-- Node12&#45;&gt;Node4 -->
<g id="edge15" class="edge"><title>Node12&#45;&gt;Node4</title>
<path fill="none" stroke="midnightblue" d="M178.448,-86C209.275,-86 255.554,-86 280.867,-86"/>
<polygon fill="midnightblue" stroke="midnightblue" points="178.248,-82.5001 168.248,-86 178.248,-89.5001 178.248,-82.5001"/>
</g>
<!-- Node13 -->
<g id="node13" class="node"><title>Node13</title>
<g id="a_node13"><a xlink:href="../../d2/d31/itm_8cpp.html#a45e678693240356cd41b59d8edb5bb12" target="_top" xlink:title="d1thx">
<polygon fill="white" stroke="black" points="204,-38.5 204,-57.5 245,-57.5 245,-38.5 204,-38.5"/>
<text text-anchor="middle" x="224.5" y="-45.5" font-family="Helvetica,sans-Serif" font-size="10.00">d1thx</text>
</a>
</g>
</g>
<!-- Node12&#45;&gt;Node13 -->
<g id="edge13" class="edge"><title>Node12&#45;&gt;Node13</title>
<path fill="none" stroke="midnightblue" d="M175.801,-71.8494C185.311,-67.0947 195.688,-61.9059 204.328,-57.5859"/>
<polygon fill="midnightblue" stroke="midnightblue" points="174.057,-68.8083 166.678,-76.411 177.188,-75.0693 174.057,-68.8083"/>
</g>
<!-- Node13&#45;&gt;Node4 -->
<g id="edge14" class="edge"><title>Node13&#45;&gt;Node4</title>
<path fill="none" stroke="midnightblue" d="M253.011,-62.2233C262.356,-67.0549 272.554,-72.3273 280.967,-76.6768"/>
<polygon fill="midnightblue" stroke="midnightblue" points="254.538,-59.0726 244.047,-57.589 251.323,-65.2907 254.538,-59.0726"/>
</g>
</g>
</svg>
