<?xml version="1.0" encoding="UTF-8" standalone="no"?>
<!DOCTYPE svg PUBLIC "-//W3C//DTD SVG 1.1//EN"
 "http://www.w3.org/Graphics/SVG/1.1/DTD/svg11.dtd">
<!-- Generated by graphviz version 2.38.0 (20140413.2041)
 -->
<!-- Title: fht Pages: 1 -->
<svg width="549pt" height="180pt"
 viewBox="0.00 0.00 549.00 180.00" xmlns="http://www.w3.org/2000/svg" xmlns:xlink="http://www.w3.org/1999/xlink">
<g id="graph0" class="graph" transform="scale(1 1) rotate(0) translate(4 176)">
<title>fht</title>
<polygon fill="white" stroke="none" points="-4,4 -4,-176 545,-176 545,4 -4,4"/>
<!-- Node1 -->
<g id="node1" class="node"><title>Node1</title>
<polygon fill="#bfbfbf" stroke="black" points="0,-47.5 0,-66.5 29,-66.5 29,-47.5 0,-47.5"/>
<text text-anchor="middle" x="14.5" y="-54.5" font-family="Helvetica,sans-Serif" font-size="10.00">fht</text>
</g>
<!-- Node2 -->
<g id="node2" class="node"><title>Node2</title>
<g id="a_node2"><a xlink:href="../../d2/d31/itm_8cpp.html#a61774c377cce1be80117b174ac61eef2" target="_top" xlink:title="adiff">
<polygon fill="white" stroke="black" points="65,-47.5 65,-66.5 100,-66.5 100,-47.5 65,-47.5"/>
<text text-anchor="middle" x="82.5" y="-54.5" font-family="Helvetica,sans-Serif" font-size="10.00">adiff</text>
</a>
</g>
</g>
<!-- Node1&#45;&gt;Node2 -->
<g id="edge1" class="edge"><title>Node1&#45;&gt;Node2</title>
<path fill="none" stroke="midnightblue" d="M39.4386,-57C47.7616,-57 56.9182,-57 64.5569,-57"/>
<polygon fill="midnightblue" stroke="midnightblue" points="39.1753,-53.5001 29.1752,-57 39.1752,-60.5001 39.1753,-53.5001"/>
</g>
<!-- Node3 -->
<g id="node3" class="node"><title>Node3</title>
<g id="a_node3"><a xlink:href="../../d2/d31/itm_8cpp.html#a32289828f24201e9dde6140e27708d73" target="_top" xlink:title="lrprop">
<polygon fill="white" stroke="black" points="136,-47.5 136,-66.5 177,-66.5 177,-47.5 136,-47.5"/>
<text text-anchor="middle" x="156.5" y="-54.5" font-family="Helvetica,sans-Serif" font-size="10.00">lrprop</text>
</a>
</g>
</g>
<!-- Node2&#45;&gt;Node3 -->
<g id="edge2" class="edge"><title>Node2&#45;&gt;Node3</title>
<path fill="none" stroke="midnightblue" d="M110.361,-57C118.808,-57 127.974,-57 135.826,-57"/>
<polygon fill="midnightblue" stroke="midnightblue" points="110.199,-53.5001 100.199,-57 110.199,-60.5001 110.199,-53.5001"/>
</g>
<!-- Node4 -->
<g id="node4" class="node"><title>Node4</title>
<g id="a_node4"><a xlink:href="../../d2/d31/itm_8cpp.html#ae682440b4eaee05406c08f8ae48e60d8" target="_top" xlink:title="qlrpfl">
<polygon fill="white" stroke="black" points="213,-76.5 213,-95.5 251,-95.5 251,-76.5 213,-76.5"/>
<text text-anchor="middle" x="232" y="-83.5" font-family="Helvetica,sans-Serif" font-size="10.00">qlrpfl</text>
</a>
</g>
</g>
<!-- Node3&#45;&gt;Node4 -->
<g id="edge3" class="edge"><title>Node3&#45;&gt;Node4</title>
<path fill="none" stroke="midnightblue" d="M186.746,-68.5393C195.529,-72.0048 204.91,-75.706 212.764,-78.8047"/>
<polygon fill="midnightblue" stroke="midnightblue" points="187.783,-65.186 177.197,-64.7715 185.214,-71.6975 187.783,-65.186"/>
</g>
<!-- Node10 -->
<g id="node10" class="node"><title>Node10</title>
<g id="a_node10"><a xlink:href="../../d2/d31/itm_8cpp.html#aac99abe6fa8a284a3e964aa7f45a8deb" target="_top" xlink:title="area">
<polygon fill="white" stroke="black" points="214.5,-19.5 214.5,-38.5 249.5,-38.5 249.5,-19.5 214.5,-19.5"/>
<text text-anchor="middle" x="232" y="-26.5" font-family="Helvetica,sans-Serif" font-size="10.00">area</text>
</a>
</g>
</g>
<!-- Node3&#45;&gt;Node10 -->
<g id="edge9" class="edge"><title>Node3&#45;&gt;Node10</title>
<path fill="none" stroke="midnightblue" d="M186.611,-45.9101C195.991,-42.3369 206.065,-38.4991 214.241,-35.3843"/>
<polygon fill="midnightblue" stroke="midnightblue" points="185.296,-42.6658 177.197,-49.4965 187.788,-49.2072 185.296,-42.6658"/>
</g>
<!-- Node5 -->
<g id="node5" class="node"><title>Node5</title>
<g id="a_node5"><a xlink:href="../../d3/d37/itm_8h.html#aad6a3ed1b693ddfc2884c909e39d3989" target="_top" xlink:title="point_to_point">
<polygon fill="white" stroke="black" points="299,-152.5 299,-171.5 376,-171.5 376,-152.5 299,-152.5"/>
<text text-anchor="middle" x="337.5" y="-159.5" font-family="Helvetica,sans-Serif" font-size="10.00">point_to_point</text>
</a>
</g>
</g>
<!-- Node4&#45;&gt;Node5 -->
<g id="edge4" class="edge"><title>Node4&#45;&gt;Node5</title>
<path fill="none" stroke="midnightblue" d="M246.439,-103.965C256.471,-116.335 271.135,-132.39 287,-143 292.586,-146.736 299.011,-149.886 305.343,-152.48"/>
<polygon fill="midnightblue" stroke="midnightblue" points="248.922,-101.458 240.003,-95.7396 243.409,-105.772 248.922,-101.458"/>
</g>
<!-- Node6 -->
<g id="node6" class="node"><title>Node6</title>
<g id="a_node6"><a xlink:href="../../d3/d37/itm_8h.html#acca1a0cc60cc78b1f95772c7dc981182" target="_top" xlink:title="point_to_point_rels">
<polygon fill="white" stroke="black" points="288.5,-114.5 288.5,-133.5 386.5,-133.5 386.5,-114.5 288.5,-114.5"/>
<text text-anchor="middle" x="337.5" y="-121.5" font-family="Helvetica,sans-Serif" font-size="10.00">point_to_point_rels</text>
</a>
</g>
</g>
<!-- Node4&#45;&gt;Node6 -->
<g id="edge5" class="edge"><title>Node4&#45;&gt;Node6</title>
<path fill="none" stroke="midnightblue" d="M260.594,-96.131C276.089,-101.82 295.31,-108.877 310.533,-114.466"/>
<polygon fill="midnightblue" stroke="midnightblue" points="261.622,-92.7801 251.028,-92.6191 259.209,-99.3513 261.622,-92.7801"/>
</g>
<!-- Node8 -->
<g id="node8" class="node"><title>Node8</title>
<g id="a_node8"><a xlink:href="../../d3/d37/itm_8h.html#a606b3a527141eef67be36272940cb1ee" target="_top" xlink:title="point_to_pointMDH">
<polygon fill="white" stroke="black" points="287,-76.5 287,-95.5 388,-95.5 388,-76.5 287,-76.5"/>
<text text-anchor="middle" x="337.5" y="-83.5" font-family="Helvetica,sans-Serif" font-size="10.00">point_to_pointMDH</text>
</a>
</g>
</g>
<!-- Node4&#45;&gt;Node8 -->
<g id="edge7" class="edge"><title>Node4&#45;&gt;Node8</title>
<path fill="none" stroke="midnightblue" d="M261.138,-86C269.046,-86 277.892,-86 286.664,-86"/>
<polygon fill="midnightblue" stroke="midnightblue" points="261.028,-82.5001 251.028,-86 261.028,-89.5001 261.028,-82.5001"/>
</g>
<!-- Node9 -->
<g id="node9" class="node"><title>Node9</title>
<g id="a_node9"><a xlink:href="../../d3/d37/itm_8h.html#a3d6220d50384cf3904089e8320ff6617" target="_top" xlink:title="point_to_pointDH">
<polygon fill="white" stroke="black" points="291.5,-38.5 291.5,-57.5 383.5,-57.5 383.5,-38.5 291.5,-38.5"/>
<text text-anchor="middle" x="337.5" y="-45.5" font-family="Helvetica,sans-Serif" font-size="10.00">point_to_pointDH</text>
</a>
</g>
</g>
<!-- Node4&#45;&gt;Node9 -->
<g id="edge8" class="edge"><title>Node4&#45;&gt;Node9</title>
<path fill="none" stroke="midnightblue" d="M260.594,-75.869C276.089,-70.1798 295.31,-63.1229 310.533,-57.5338"/>
<polygon fill="midnightblue" stroke="midnightblue" points="259.209,-72.6487 251.028,-79.3809 261.622,-79.2199 259.209,-72.6487"/>
</g>
<!-- Node7 -->
<g id="node7" class="node"><title>Node7</title>
<g id="a_node7"><a xlink:href="../../d3/dcc/itm__its__py_8cpp.html#ab9bd9d469dbd1234f77f39093f765453" target="_top" xlink:title="itm_point_to_point_rels">
<polygon fill="white" stroke="black" points="424,-114.5 424,-133.5 541,-133.5 541,-114.5 424,-114.5"/>
<text text-anchor="middle" x="482.5" y="-121.5" font-family="Helvetica,sans-Serif" font-size="10.00">itm_point_to_point_rels</text>
</a>
</g>
</g>
<!-- Node6&#45;&gt;Node7 -->
<g id="edge6" class="edge"><title>Node6&#45;&gt;Node7</title>
<path fill="none" stroke="midnightblue" d="M396.556,-124C405.591,-124 414.922,-124 423.945,-124"/>
<polygon fill="midnightblue" stroke="midnightblue" points="396.515,-120.5 386.515,-124 396.515,-127.5 396.515,-120.5"/>
</g>
<!-- Node11 -->
<g id="node11" class="node"><title>Node11</title>
<g id="a_node11"><a xlink:href="../../d3/d37/itm_8h.html#a5e3421c4e7d0133df57f985ed4eacbfd" target="_top" xlink:title="ITMAreadBLoss">
<polygon fill="white" stroke="black" points="294,-0.5 294,-19.5 381,-19.5 381,-0.5 294,-0.5"/>
<text text-anchor="middle" x="337.5" y="-7.5" font-family="Helvetica,sans-Serif" font-size="10.00">ITMAreadBLoss</text>
</a>
</g>
</g>
<!-- Node10&#45;&gt;Node11 -->
<g id="edge10" class="edge"><title>Node10&#45;&gt;Node11</title>
<path fill="none" stroke="midnightblue" d="M259.656,-24.1066C269.984,-22.2106 282.072,-19.9917 293.562,-17.8823"/>
<polygon fill="midnightblue" stroke="midnightblue" points="258.833,-20.6992 249.629,-25.9473 260.097,-27.5841 258.833,-20.6992"/>
</g>
</g>
</svg>
