<?xml version="1.0" encoding="UTF-8" standalone="no"?>
<!DOCTYPE svg PUBLIC "-//W3C//DTD SVG 1.1//EN"
 "http://www.w3.org/Graphics/SVG/1.1/DTD/svg11.dtd">
<!-- Generated by graphviz version 2.38.0 (20140413.2041)
 -->
<!-- Title: src.harness.reference_models.antenna.antenna.GetRadarNormalizedAntennaGains Pages: 1 -->
<svg width="345pt" height="50pt"
 viewBox="0.00 0.00 345.00 50.00" xmlns="http://www.w3.org/2000/svg" xmlns:xlink="http://www.w3.org/1999/xlink">
<g id="graph0" class="graph" transform="scale(1 1) rotate(0) translate(4 46)">
<title>src.harness.reference_models.antenna.antenna.GetRadarNormalizedAntennaGains</title>
<polygon fill="white" stroke="none" points="-4,4 -4,-46 341,-46 341,4 -4,4"/>
<!-- Node1 -->
<g id="node1" class="node"><title>Node1</title>
<polygon fill="#bfbfbf" stroke="black" points="0,-0.5 0,-41.5 154,-41.5 154,-0.5 0,-0.5"/>
<text text-anchor="start" x="8" y="-29.5" font-family="Helvetica,sans-Serif" font-size="10.00">src.harness.reference</text>
<text text-anchor="start" x="8" y="-18.5" font-family="Helvetica,sans-Serif" font-size="10.00">_models.antenna.antenna.Get</text>
<text text-anchor="middle" x="77" y="-7.5" font-family="Helvetica,sans-Serif" font-size="10.00">RadarNormalizedAntennaGains</text>
</g>
<!-- Node2 -->
<g id="node2" class="node"><title>Node2</title>
<g id="a_node2"><a xlink:href="../../d7/dae/namespacesrc_1_1harness_1_1reference__models_1_1antenna_1_1antenna.html#ad289cbc486f3a17a9dd61799960fd580" target="_top" xlink:title="src.harness.reference\l_models.antenna.antenna.Get\lStandardAntennaGains">
<polygon fill="white" stroke="black" points="190,-0.5 190,-41.5 337,-41.5 337,-0.5 190,-0.5"/>
<text text-anchor="start" x="198" y="-29.5" font-family="Helvetica,sans-Serif" font-size="10.00">src.harness.reference</text>
<text text-anchor="start" x="198" y="-18.5" font-family="Helvetica,sans-Serif" font-size="10.00">_models.antenna.antenna.Get</text>
<text text-anchor="middle" x="263.5" y="-7.5" font-family="Helvetica,sans-Serif" font-size="10.00">StandardAntennaGains</text>
</a>
</g>
</g>
<!-- Node1&#45;&gt;Node2 -->
<g id="edge1" class="edge"><title>Node1&#45;&gt;Node2</title>
<path fill="none" stroke="midnightblue" d="M164.144,-21C172.735,-21 181.398,-21 189.831,-21"/>
<polygon fill="midnightblue" stroke="midnightblue" points="164.108,-17.5001 154.108,-21 164.108,-24.5001 164.108,-17.5001"/>
</g>
</g>
</svg>
