<?xml version="1.0" encoding="UTF-8" standalone="no"?>
<!DOCTYPE svg PUBLIC "-//W3C//DTD SVG 1.1//EN"
 "http://www.w3.org/Graphics/SVG/1.1/DTD/svg11.dtd">
<!-- Generated by graphviz version 2.38.0 (20140413.2041)
 -->
<!-- Title: src.harness.reference_models.antenna.antenna._GetGsoGains Pages: 1 -->
<svg width="695pt" height="50pt"
 viewBox="0.00 0.00 695.00 50.00" xmlns="http://www.w3.org/2000/svg" xmlns:xlink="http://www.w3.org/1999/xlink">
<g id="graph0" class="graph" transform="scale(1 1) rotate(0) translate(4 46)">
<title>src.harness.reference_models.antenna.antenna._GetGsoGains</title>
<polygon fill="white" stroke="none" points="-4,4 -4,-46 691,-46 691,4 -4,4"/>
<!-- Node1 -->
<g id="node1" class="node"><title>Node1</title>
<polygon fill="#bfbfbf" stroke="black" points="0,-0.5 0,-41.5 131,-41.5 131,-0.5 0,-0.5"/>
<text text-anchor="start" x="8" y="-29.5" font-family="Helvetica,sans-Serif" font-size="10.00">src.harness.reference</text>
<text text-anchor="start" x="8" y="-18.5" font-family="Helvetica,sans-Serif" font-size="10.00">_models.antenna.antenna.</text>
<text text-anchor="middle" x="65.5" y="-7.5" font-family="Helvetica,sans-Serif" font-size="10.00">_GetGsoGains</text>
</g>
<!-- Node2 -->
<g id="node2" class="node"><title>Node2</title>
<g id="a_node2"><a xlink:href="../../d7/dae/namespacesrc_1_1harness_1_1reference__models_1_1antenna_1_1antenna.html#a28b72a8a899c7724b3d377cbcd2131dc" target="_top" xlink:title="src.harness.reference\l_models.antenna.antenna.Get\lFssAntennaGains">
<polygon fill="white" stroke="black" points="167,-0.5 167,-41.5 314,-41.5 314,-0.5 167,-0.5"/>
<text text-anchor="start" x="175" y="-29.5" font-family="Helvetica,sans-Serif" font-size="10.00">src.harness.reference</text>
<text text-anchor="start" x="175" y="-18.5" font-family="Helvetica,sans-Serif" font-size="10.00">_models.antenna.antenna.Get</text>
<text text-anchor="middle" x="240.5" y="-7.5" font-family="Helvetica,sans-Serif" font-size="10.00">FssAntennaGains</text>
</a>
</g>
</g>
<!-- Node1&#45;&gt;Node2 -->
<g id="edge1" class="edge"><title>Node1&#45;&gt;Node2</title>
<path fill="none" stroke="midnightblue" d="M141.588,-21C150.009,-21 158.577,-21 166.966,-21"/>
<polygon fill="midnightblue" stroke="midnightblue" points="141.411,-17.5001 131.411,-21 141.411,-24.5001 141.411,-17.5001"/>
</g>
<!-- Node3 -->
<g id="node3" class="node"><title>Node3</title>
<g id="a_node3"><a xlink:href="../../d7/dae/namespacesrc_1_1harness_1_1reference__models_1_1antenna_1_1antenna.html#a7440a52b44ac1ff2cd89fc51ea4f1475" target="_top" xlink:title="src.harness.reference\l_models.antenna.antenna.Get\lRadarNormalizedAntennaGains">
<polygon fill="white" stroke="black" points="350,-0.5 350,-41.5 504,-41.5 504,-0.5 350,-0.5"/>
<text text-anchor="start" x="358" y="-29.5" font-family="Helvetica,sans-Serif" font-size="10.00">src.harness.reference</text>
<text text-anchor="start" x="358" y="-18.5" font-family="Helvetica,sans-Serif" font-size="10.00">_models.antenna.antenna.Get</text>
<text text-anchor="middle" x="427" y="-7.5" font-family="Helvetica,sans-Serif" font-size="10.00">RadarNormalizedAntennaGains</text>
</a>
</g>
</g>
<!-- Node2&#45;&gt;Node3 -->
<g id="edge2" class="edge"><title>Node2&#45;&gt;Node3</title>
<path fill="none" stroke="midnightblue" d="M324.389,-21C332.839,-21 341.395,-21 349.769,-21"/>
<polygon fill="midnightblue" stroke="midnightblue" points="324.154,-17.5001 314.154,-21 324.154,-24.5001 324.154,-17.5001"/>
</g>
<!-- Node4 -->
<g id="node4" class="node"><title>Node4</title>
<g id="a_node4"><a xlink:href="../../d7/dae/namespacesrc_1_1harness_1_1reference__models_1_1antenna_1_1antenna.html#ad289cbc486f3a17a9dd61799960fd580" target="_top" xlink:title="src.harness.reference\l_models.antenna.antenna.Get\lStandardAntennaGains">
<polygon fill="white" stroke="black" points="540,-0.5 540,-41.5 687,-41.5 687,-0.5 540,-0.5"/>
<text text-anchor="start" x="548" y="-29.5" font-family="Helvetica,sans-Serif" font-size="10.00">src.harness.reference</text>
<text text-anchor="start" x="548" y="-18.5" font-family="Helvetica,sans-Serif" font-size="10.00">_models.antenna.antenna.Get</text>
<text text-anchor="middle" x="613.5" y="-7.5" font-family="Helvetica,sans-Serif" font-size="10.00">StandardAntennaGains</text>
</a>
</g>
</g>
<!-- Node3&#45;&gt;Node4 -->
<g id="edge3" class="edge"><title>Node3&#45;&gt;Node4</title>
<path fill="none" stroke="midnightblue" d="M514.144,-21C522.735,-21 531.398,-21 539.831,-21"/>
<polygon fill="midnightblue" stroke="midnightblue" points="514.108,-17.5001 504.108,-21 514.108,-24.5001 514.108,-17.5001"/>
</g>
</g>
</svg>
