<?xml version="1.0" encoding="UTF-8" standalone="no"?>
<!DOCTYPE svg PUBLIC "-//W3C//DTD SVG 1.1//EN"
 "http://www.w3.org/Graphics/SVG/1.1/DTD/svg11.dtd">
<!-- Generated by graphviz version 2.38.0 (20140413.2041)
 -->
<!-- Title: src.harness.reference_models.antenna.antenna.GetStandardAntennaGains Pages: 1 -->
<svg width="695pt" height="50pt"
 viewBox="0.00 0.00 695.00 50.00" xmlns="http://www.w3.org/2000/svg" xmlns:xlink="http://www.w3.org/1999/xlink">
<g id="graph0" class="graph" transform="scale(1 1) rotate(0) translate(4 46)">
<title>src.harness.reference_models.antenna.antenna.GetStandardAntennaGains</title>
<polygon fill="white" stroke="none" points="-4,4 -4,-46 691,-46 691,4 -4,4"/>
<!-- Node1 -->
<g id="node1" class="node"><title>Node1</title>
<polygon fill="#bfbfbf" stroke="black" points="0,-0.5 0,-41.5 147,-41.5 147,-0.5 0,-0.5"/>
<text text-anchor="start" x="8" y="-29.5" font-family="Helvetica,sans-Serif" font-size="10.00">src.harness.reference</text>
<text text-anchor="start" x="8" y="-18.5" font-family="Helvetica,sans-Serif" font-size="10.00">_models.antenna.antenna.Get</text>
<text text-anchor="middle" x="73.5" y="-7.5" font-family="Helvetica,sans-Serif" font-size="10.00">StandardAntennaGains</text>
</g>
<!-- Node2 -->
<g id="node2" class="node"><title>Node2</title>
<g id="a_node2"><a xlink:href="../../d7/dae/namespacesrc_1_1harness_1_1reference__models_1_1antenna_1_1antenna.html#a7440a52b44ac1ff2cd89fc51ea4f1475" target="_top" xlink:title="src.harness.reference\l_models.antenna.antenna.Get\lRadarNormalizedAntennaGains">
<polygon fill="white" stroke="black" points="183,-0.5 183,-41.5 337,-41.5 337,-0.5 183,-0.5"/>
<text text-anchor="start" x="191" y="-29.5" font-family="Helvetica,sans-Serif" font-size="10.00">src.harness.reference</text>
<text text-anchor="start" x="191" y="-18.5" font-family="Helvetica,sans-Serif" font-size="10.00">_models.antenna.antenna.Get</text>
<text text-anchor="middle" x="260" y="-7.5" font-family="Helvetica,sans-Serif" font-size="10.00">RadarNormalizedAntennaGains</text>
</a>
</g>
</g>
<!-- Node1&#45;&gt;Node2 -->
<g id="edge1" class="edge"><title>Node1&#45;&gt;Node2</title>
<path fill="none" stroke="midnightblue" d="M147.154,-21C155.562,-21 164.197,-21 172.763,-21"/>
<polygon fill="midnightblue" stroke="midnightblue" points="172.769,-24.5001 182.769,-21 172.769,-17.5001 172.769,-24.5001"/>
</g>
<!-- Node3 -->
<g id="node3" class="node"><title>Node3</title>
<g id="a_node3"><a xlink:href="../../d7/dae/namespacesrc_1_1harness_1_1reference__models_1_1antenna_1_1antenna.html#a28b72a8a899c7724b3d377cbcd2131dc" target="_top" xlink:title="src.harness.reference\l_models.antenna.antenna.Get\lFssAntennaGains">
<polygon fill="white" stroke="black" points="373,-0.5 373,-41.5 520,-41.5 520,-0.5 373,-0.5"/>
<text text-anchor="start" x="381" y="-29.5" font-family="Helvetica,sans-Serif" font-size="10.00">src.harness.reference</text>
<text text-anchor="start" x="381" y="-18.5" font-family="Helvetica,sans-Serif" font-size="10.00">_models.antenna.antenna.Get</text>
<text text-anchor="middle" x="446.5" y="-7.5" font-family="Helvetica,sans-Serif" font-size="10.00">FssAntennaGains</text>
</a>
</g>
</g>
<!-- Node2&#45;&gt;Node3 -->
<g id="edge2" class="edge"><title>Node2&#45;&gt;Node3</title>
<path fill="none" stroke="midnightblue" d="M337.108,-21C345.506,-21 354.088,-21 362.564,-21"/>
<polygon fill="midnightblue" stroke="midnightblue" points="362.831,-24.5001 372.831,-21 362.831,-17.5001 362.831,-24.5001"/>
</g>
<!-- Node4 -->
<g id="node4" class="node"><title>Node4</title>
<g id="a_node4"><a xlink:href="../../d7/dae/namespacesrc_1_1harness_1_1reference__models_1_1antenna_1_1antenna.html#aef93ccb27a57bf91f4b70fc0701c45e9" target="_top" xlink:title="src.harness.reference\l_models.antenna.antenna.\l_GetGsoGains">
<polygon fill="white" stroke="black" points="556,-0.5 556,-41.5 687,-41.5 687,-0.5 556,-0.5"/>
<text text-anchor="start" x="564" y="-29.5" font-family="Helvetica,sans-Serif" font-size="10.00">src.harness.reference</text>
<text text-anchor="start" x="564" y="-18.5" font-family="Helvetica,sans-Serif" font-size="10.00">_models.antenna.antenna.</text>
<text text-anchor="middle" x="621.5" y="-7.5" font-family="Helvetica,sans-Serif" font-size="10.00">_GetGsoGains</text>
</a>
</g>
</g>
<!-- Node3&#45;&gt;Node4 -->
<g id="edge3" class="edge"><title>Node3&#45;&gt;Node4</title>
<path fill="none" stroke="midnightblue" d="M520.116,-21C528.53,-21 537.125,-21 545.569,-21"/>
<polygon fill="midnightblue" stroke="midnightblue" points="545.774,-24.5001 555.774,-21 545.774,-17.5001 545.774,-24.5001"/>
</g>
</g>
</svg>
