<?xml version="1.0" encoding="UTF-8" standalone="no"?>
<!DOCTYPE svg PUBLIC "-//W3C//DTD SVG 1.1//EN"
 "http://www.w3.org/Graphics/SVG/1.1/DTD/svg11.dtd">
<!-- Generated by graphviz version 2.38.0 (20140413.2041)
 -->
<!-- Title: src.harness.reference_models.antenna.antenna.GetFssAntennaGains Pages: 1 -->
<svg width="322pt" height="50pt"
 viewBox="0.00 0.00 322.00 50.00" xmlns="http://www.w3.org/2000/svg" xmlns:xlink="http://www.w3.org/1999/xlink">
<g id="graph0" class="graph" transform="scale(1 1) rotate(0) translate(4 46)">
<title>src.harness.reference_models.antenna.antenna.GetFssAntennaGains</title>
<polygon fill="white" stroke="none" points="-4,4 -4,-46 318,-46 318,4 -4,4"/>
<!-- Node1 -->
<g id="node1" class="node"><title>Node1</title>
<polygon fill="#bfbfbf" stroke="black" points="0,-0.5 0,-41.5 147,-41.5 147,-0.5 0,-0.5"/>
<text text-anchor="start" x="8" y="-29.5" font-family="Helvetica,sans-Serif" font-size="10.00">src.harness.reference</text>
<text text-anchor="start" x="8" y="-18.5" font-family="Helvetica,sans-Serif" font-size="10.00">_models.antenna.antenna.Get</text>
<text text-anchor="middle" x="73.5" y="-7.5" font-family="Helvetica,sans-Serif" font-size="10.00">FssAntennaGains</text>
</g>
<!-- Node2 -->
<g id="node2" class="node"><title>Node2</title>
<g id="a_node2"><a xlink:href="../../d7/dae/namespacesrc_1_1harness_1_1reference__models_1_1antenna_1_1antenna.html#aef93ccb27a57bf91f4b70fc0701c45e9" target="_top" xlink:title="src.harness.reference\l_models.antenna.antenna.\l_GetGsoGains">
<polygon fill="white" stroke="black" points="183,-0.5 183,-41.5 314,-41.5 314,-0.5 183,-0.5"/>
<text text-anchor="start" x="191" y="-29.5" font-family="Helvetica,sans-Serif" font-size="10.00">src.harness.reference</text>
<text text-anchor="start" x="191" y="-18.5" font-family="Helvetica,sans-Serif" font-size="10.00">_models.antenna.antenna.</text>
<text text-anchor="middle" x="248.5" y="-7.5" font-family="Helvetica,sans-Serif" font-size="10.00">_GetGsoGains</text>
</a>
</g>
</g>
<!-- Node1&#45;&gt;Node2 -->
<g id="edge1" class="edge"><title>Node1&#45;&gt;Node2</title>
<path fill="none" stroke="midnightblue" d="M147.116,-21C155.53,-21 164.125,-21 172.569,-21"/>
<polygon fill="midnightblue" stroke="midnightblue" points="172.774,-24.5001 182.774,-21 172.774,-17.5001 172.774,-24.5001"/>
</g>
</g>
</svg>
