<?xml version="1.0" encoding="UTF-8" standalone="no"?>
<!DOCTYPE svg PUBLIC "-//W3C//DTD SVG 1.1//EN"
 "http://www.w3.org/Graphics/SVG/1.1/DTD/svg11.dtd">
<!-- Generated by graphviz version 2.38.0 (20140413.2041)
 -->
<!-- Title: src.harness.reference_models.antenna.antenna.GetRadarNormalizedAntennaGains Pages: 1 -->
<svg width="512pt" height="50pt"
 viewBox="0.00 0.00 512.00 50.00" xmlns="http://www.w3.org/2000/svg" xmlns:xlink="http://www.w3.org/1999/xlink">
<g id="graph0" class="graph" transform="scale(1 1) rotate(0) translate(4 46)">
<title>src.harness.reference_models.antenna.antenna.GetRadarNormalizedAntennaGains</title>
<polygon fill="white" stroke="none" points="-4,4 -4,-46 508,-46 508,4 -4,4"/>
<!-- Node1 -->
<g id="node1" class="node"><title>Node1</title>
<polygon fill="#bfbfbf" stroke="black" points="0,-0.5 0,-41.5 154,-41.5 154,-0.5 0,-0.5"/>
<text text-anchor="start" x="8" y="-29.5" font-family="Helvetica,sans-Serif" font-size="10.00">src.harness.reference</text>
<text text-anchor="start" x="8" y="-18.5" font-family="Helvetica,sans-Serif" font-size="10.00">_models.antenna.antenna.Get</text>
<text text-anchor="middle" x="77" y="-7.5" font-family="Helvetica,sans-Serif" font-size="10.00">RadarNormalizedAntennaGains</text>
</g>
<!-- Node2 -->
<g id="node2" class="node"><title>Node2</title>
<g id="a_node2"><a xlink:href="../../d7/dae/namespacesrc_1_1harness_1_1reference__models_1_1antenna_1_1antenna.html#a28b72a8a899c7724b3d377cbcd2131dc" target="_top" xlink:title="src.harness.reference\l_models.antenna.antenna.Get\lFssAntennaGains">
<polygon fill="white" stroke="black" points="190,-0.5 190,-41.5 337,-41.5 337,-0.5 190,-0.5"/>
<text text-anchor="start" x="198" y="-29.5" font-family="Helvetica,sans-Serif" font-size="10.00">src.harness.reference</text>
<text text-anchor="start" x="198" y="-18.5" font-family="Helvetica,sans-Serif" font-size="10.00">_models.antenna.antenna.Get</text>
<text text-anchor="middle" x="263.5" y="-7.5" font-family="Helvetica,sans-Serif" font-size="10.00">FssAntennaGains</text>
</a>
</g>
</g>
<!-- Node1&#45;&gt;Node2 -->
<g id="edge1" class="edge"><title>Node1&#45;&gt;Node2</title>
<path fill="none" stroke="midnightblue" d="M154.108,-21C162.506,-21 171.088,-21 179.564,-21"/>
<polygon fill="midnightblue" stroke="midnightblue" points="179.831,-24.5001 189.831,-21 179.831,-17.5001 179.831,-24.5001"/>
</g>
<!-- Node3 -->
<g id="node3" class="node"><title>Node3</title>
<g id="a_node3"><a xlink:href="../../d7/dae/namespacesrc_1_1harness_1_1reference__models_1_1antenna_1_1antenna.html#aef93ccb27a57bf91f4b70fc0701c45e9" target="_top" xlink:title="src.harness.reference\l_models.antenna.antenna.\l_GetGsoGains">
<polygon fill="white" stroke="black" points="373,-0.5 373,-41.5 504,-41.5 504,-0.5 373,-0.5"/>
<text text-anchor="start" x="381" y="-29.5" font-family="Helvetica,sans-Serif" font-size="10.00">src.harness.reference</text>
<text text-anchor="start" x="381" y="-18.5" font-family="Helvetica,sans-Serif" font-size="10.00">_models.antenna.antenna.</text>
<text text-anchor="middle" x="438.5" y="-7.5" font-family="Helvetica,sans-Serif" font-size="10.00">_GetGsoGains</text>
</a>
</g>
</g>
<!-- Node2&#45;&gt;Node3 -->
<g id="edge2" class="edge"><title>Node2&#45;&gt;Node3</title>
<path fill="none" stroke="midnightblue" d="M337.116,-21C345.53,-21 354.125,-21 362.569,-21"/>
<polygon fill="midnightblue" stroke="midnightblue" points="362.774,-24.5001 372.774,-21 362.774,-17.5001 362.774,-24.5001"/>
</g>
</g>
</svg>
