<?xml version="1.0" encoding="UTF-8" standalone="no"?>
<!DOCTYPE svg PUBLIC "-//W3C//DTD SVG 1.1//EN"
 "http://www.w3.org/Graphics/SVG/1.1/DTD/svg11.dtd">
<!-- Generated by graphviz version 2.38.0 (20140413.2041)
 -->
<!-- Title: /home/nirajan/NetBeansProjects/sas&#45;winnforum/Spectrum&#45;Access&#45;System/Spectrum&#45;Access&#45;System&#45;master/src/harness/reference_models/propagation/ehata/its/ExtendedHata.cpp Pages: 1 -->
<svg width="202pt" height="128pt"
 viewBox="0.00 0.00 202.00 128.00" xmlns="http://www.w3.org/2000/svg" xmlns:xlink="http://www.w3.org/1999/xlink">
<g id="graph0" class="graph" transform="scale(1 1) rotate(0) translate(4 124)">
<title>/home/nirajan/NetBeansProjects/sas&#45;winnforum/Spectrum&#45;Access&#45;System/Spectrum&#45;Access&#45;System&#45;master/src/harness/reference_models/propagation/ehata/its/ExtendedHata.cpp</title>
<polygon fill="white" stroke="none" points="-4,4 -4,-124 198,-124 198,4 -4,4"/>
<!-- Node1 -->
<g id="node1" class="node"><title>Node1</title>
<polygon fill="#bfbfbf" stroke="black" points="-1.42109e-14,-56.5 -1.42109e-14,-119.5 194,-119.5 194,-56.5 -1.42109e-14,-56.5"/>
<text text-anchor="start" x="8" y="-107.5" font-family="Helvetica,sans-Serif" font-size="10.00">/home/nirajan/NetBeansProjects</text>
<text text-anchor="start" x="8" y="-96.5" font-family="Helvetica,sans-Serif" font-size="10.00">/sas&#45;winnforum/Spectrum&#45;Access</text>
<text text-anchor="start" x="8" y="-85.5" font-family="Helvetica,sans-Serif" font-size="10.00">&#45;System/Spectrum&#45;Access&#45;System</text>
<text text-anchor="start" x="8" y="-74.5" font-family="Helvetica,sans-Serif" font-size="10.00">&#45;master/src/harness/reference_models</text>
<text text-anchor="middle" x="97" y="-63.5" font-family="Helvetica,sans-Serif" font-size="10.00">/propagation/ehata/its/ExtendedHata.cpp</text>
</g>
<!-- Node2 -->
<g id="node2" class="node"><title>Node2</title>
<polygon fill="white" stroke="#bfbfbf" points="11,-0.5 11,-19.5 57,-19.5 57,-0.5 11,-0.5"/>
<text text-anchor="middle" x="34" y="-7.5" font-family="Helvetica,sans-Serif" font-size="10.00">stdio.h</text>
</g>
<!-- Node1&#45;&gt;Node2 -->
<g id="edge1" class="edge"><title>Node1&#45;&gt;Node2</title>
<path fill="none" stroke="midnightblue" d="M71.3755,-56.0879C63.2848,-46.3277 54.6579,-35.9206 47.7332,-27.567"/>
<polygon fill="midnightblue" stroke="midnightblue" points="50.3034,-25.1833 41.2269,-19.7182 44.9142,-29.6507 50.3034,-25.1833"/>
</g>
<!-- Node3 -->
<g id="node3" class="node"><title>Node3</title>
<polygon fill="white" stroke="#bfbfbf" points="75,-0.5 75,-19.5 119,-19.5 119,-0.5 75,-0.5"/>
<text text-anchor="middle" x="97" y="-7.5" font-family="Helvetica,sans-Serif" font-size="10.00">cmath</text>
</g>
<!-- Node1&#45;&gt;Node3 -->
<g id="edge2" class="edge"><title>Node1&#45;&gt;Node3</title>
<path fill="none" stroke="midnightblue" d="M97,-56.0879C97,-47.1496 97,-37.6688 97,-29.7195"/>
<polygon fill="midnightblue" stroke="midnightblue" points="100.5,-29.7181 97,-19.7182 93.5001,-29.7182 100.5,-29.7181"/>
</g>
<!-- Node4 -->
<g id="node4" class="node"><title>Node4</title>
<g id="a_node4"><a xlink:href="../../d3/d10/ehata_8h.html" target="_top" xlink:title="ehata.h">
<polygon fill="white" stroke="black" points="137.5,-0.5 137.5,-19.5 186.5,-19.5 186.5,-0.5 137.5,-0.5"/>
<text text-anchor="middle" x="162" y="-7.5" font-family="Helvetica,sans-Serif" font-size="10.00">ehata.h</text>
</a>
</g>
</g>
<!-- Node1&#45;&gt;Node4 -->
<g id="edge3" class="edge"><title>Node1&#45;&gt;Node4</title>
<path fill="none" stroke="midnightblue" d="M123.438,-56.0879C131.786,-46.3277 140.686,-35.9206 147.831,-27.567"/>
<polygon fill="midnightblue" stroke="midnightblue" points="150.704,-29.5927 154.544,-19.7182 145.384,-25.0429 150.704,-29.5927"/>
</g>
</g>
</svg>
