<?xml version="1.0" encoding="UTF-8" standalone="no"?>
<!DOCTYPE svg PUBLIC "-//W3C//DTD SVG 1.1//EN"
 "http://www.w3.org/Graphics/SVG/1.1/DTD/svg11.dtd">
<!-- Generated by graphviz version 2.38.0 (20140413.2041)
 -->
<!-- Title: src.harness.sas_testcase.SasTestCase Pages: 1 -->
<svg width="218pt" height="162pt"
 viewBox="0.00 0.00 217.50 162.00" xmlns="http://www.w3.org/2000/svg" xmlns:xlink="http://www.w3.org/1999/xlink">
<g id="graph0" class="graph" transform="scale(1 1) rotate(0) translate(4 158)">
<title>src.harness.sas_testcase.SasTestCase</title>
<polygon fill="white" stroke="none" points="-4,4 -4,-158 213.5,-158 213.5,4 -4,4"/>
<!-- Node1 -->
<g id="node1" class="node"><title>Node1</title>
<polygon fill="#bfbfbf" stroke="black" points="57,-0.5 57,-30.5 189,-30.5 189,-0.5 57,-0.5"/>
<text text-anchor="start" x="65" y="-18.5" font-family="Helvetica,sans-Serif" font-size="10.00">src.harness.sas_testcase.</text>
<text text-anchor="middle" x="123" y="-7.5" font-family="Helvetica,sans-Serif" font-size="10.00">SasTestCase</text>
</g>
<!-- Node2 -->
<g id="node2" class="node"><title>Node2</title>
<g id="a_node2"><a xlink:href="../../df/ded/classsrc_1_1harness_1_1sas__interface_1_1SasTestcaseInterface.html" target="_top" xlink:title="src.harness.sas_interface.\lSasTestcaseInterface">
<polygon fill="white" stroke="black" points="0,-67.5 0,-97.5 132,-97.5 132,-67.5 0,-67.5"/>
<text text-anchor="start" x="8" y="-85.5" font-family="Helvetica,sans-Serif" font-size="10.00">src.harness.sas_interface.</text>
<text text-anchor="middle" x="66" y="-74.5" font-family="Helvetica,sans-Serif" font-size="10.00">SasTestcaseInterface</text>
</a>
</g>
</g>
<!-- Node2&#45;&gt;Node1 -->
<g id="edge1" class="edge"><title>Node2&#45;&gt;Node1</title>
<path fill="none" stroke="midnightblue" d="M85.0852,-59.7362C93.5187,-50.119 103.191,-39.0888 110.656,-30.5765"/>
<polygon fill="midnightblue" stroke="midnightblue" points="82.3299,-57.5697 78.3682,-67.396 87.5929,-62.185 82.3299,-57.5697"/>
</g>
<!-- Node3 -->
<g id="node3" class="node"><title>Node3</title>
<polygon fill="white" stroke="#bfbfbf" points="44.5,-134.5 44.5,-153.5 87.5,-153.5 87.5,-134.5 44.5,-134.5"/>
<text text-anchor="middle" x="66" y="-141.5" font-family="Helvetica,sans-Serif" font-size="10.00">object</text>
</g>
<!-- Node3&#45;&gt;Node2 -->
<g id="edge2" class="edge"><title>Node3&#45;&gt;Node2</title>
<path fill="none" stroke="midnightblue" d="M66,-124.235C66,-115.586 66,-105.497 66,-97.523"/>
<polygon fill="midnightblue" stroke="midnightblue" points="62.5001,-124.475 66,-134.475 69.5001,-124.475 62.5001,-124.475"/>
</g>
<!-- Node4 -->
<g id="node4" class="node"><title>Node4</title>
<polygon fill="white" stroke="#bfbfbf" points="150.5,-73 150.5,-92 209.5,-92 209.5,-73 150.5,-73"/>
<text text-anchor="middle" x="180" y="-80" font-family="Helvetica,sans-Serif" font-size="10.00">TestCase</text>
</g>
<!-- Node4&#45;&gt;Node1 -->
<g id="edge3" class="edge"><title>Node4&#45;&gt;Node1</title>
<path fill="none" stroke="midnightblue" d="M165.521,-64.9894C156.204,-54.364 144.223,-40.702 135.355,-30.589"/>
<polygon fill="midnightblue" stroke="midnightblue" points="163.088,-67.5228 172.313,-72.7338 168.351,-62.9075 163.088,-67.5228"/>
</g>
</g>
</svg>
