<?xml version="1.0" encoding="UTF-8" standalone="no"?>
<!DOCTYPE svg PUBLIC "-//W3C//DTD SVG 1.1//EN"
 "http://www.w3.org/Graphics/SVG/1.1/DTD/svg11.dtd">
<!-- Generated by graphviz version 2.38.0 (20140413.2041)
 -->
<!-- Title: LeastSquares Pages: 1 -->
<svg width="630pt" height="28pt"
 viewBox="0.00 0.00 630.00 28.00" xmlns="http://www.w3.org/2000/svg" xmlns:xlink="http://www.w3.org/1999/xlink">
<g id="graph0" class="graph" transform="scale(1 1) rotate(0) translate(4 24)">
<title>LeastSquares</title>
<polygon fill="white" stroke="none" points="-4,4 -4,-24 626,-24 626,4 -4,4"/>
<!-- Node1 -->
<g id="node1" class="node"><title>Node1</title>
<polygon fill="#bfbfbf" stroke="black" points="0,-0.5 0,-19.5 77,-19.5 77,-0.5 0,-0.5"/>
<text text-anchor="middle" x="38.5" y="-7.5" font-family="Helvetica,sans-Serif" font-size="10.00">LeastSquares</text>
</g>
<!-- Node2 -->
<g id="node2" class="node"><title>Node2</title>
<g id="a_node2"><a xlink:href="../../d9/dbb/PreprocessTerrainPath_8cpp.html#a6763c3438128142d15da82c3ce7d5ebb" target="_top" xlink:title="MobileTerrainSlope">
<polygon fill="white" stroke="black" points="113,-0.5 113,-19.5 213,-19.5 213,-0.5 113,-0.5"/>
<text text-anchor="middle" x="163" y="-7.5" font-family="Helvetica,sans-Serif" font-size="10.00">MobileTerrainSlope</text>
</a>
</g>
</g>
<!-- Node1&#45;&gt;Node2 -->
<g id="edge1" class="edge"><title>Node1&#45;&gt;Node2</title>
<path fill="none" stroke="midnightblue" d="M87.2747,-10C95.6719,-10 104.425,-10 112.858,-10"/>
<polygon fill="midnightblue" stroke="midnightblue" points="87.2536,-6.5001 77.2536,-10 87.2536,-13.5001 87.2536,-6.5001"/>
</g>
<!-- Node3 -->
<g id="node3" class="node"><title>Node3</title>
<g id="a_node3"><a xlink:href="../../d9/dbb/PreprocessTerrainPath_8cpp.html#a89ca684c84b78b8528505abc29419fa7" target="_top" xlink:title="PreprocessTerrainPath">
<polygon fill="white" stroke="black" points="249,-0.5 249,-19.5 365,-19.5 365,-0.5 249,-0.5"/>
<text text-anchor="middle" x="307" y="-7.5" font-family="Helvetica,sans-Serif" font-size="10.00">PreprocessTerrainPath</text>
</a>
</g>
</g>
<!-- Node2&#45;&gt;Node3 -->
<g id="edge2" class="edge"><title>Node2&#45;&gt;Node3</title>
<path fill="none" stroke="midnightblue" d="M223.304,-10C231.651,-10 240.218,-10 248.529,-10"/>
<polygon fill="midnightblue" stroke="midnightblue" points="223.266,-6.5001 213.266,-10 223.266,-13.5001 223.266,-6.5001"/>
</g>
<!-- Node4 -->
<g id="node4" class="node"><title>Node4</title>
<g id="a_node4"><a xlink:href="../../d9/daf/ExtendedHata_8cpp.html#a11232c905b4b2d54ca008791dad7ecf3" target="_top" xlink:title="ExtendedHata_DBG">
<polygon fill="white" stroke="black" points="401,-0.5 401,-19.5 507,-19.5 507,-0.5 401,-0.5"/>
<text text-anchor="middle" x="454" y="-7.5" font-family="Helvetica,sans-Serif" font-size="10.00">ExtendedHata_DBG</text>
</a>
</g>
</g>
<!-- Node3&#45;&gt;Node4 -->
<g id="edge3" class="edge"><title>Node3&#45;&gt;Node4</title>
<path fill="none" stroke="midnightblue" d="M375.575,-10C384.055,-10 392.625,-10 400.818,-10"/>
<polygon fill="midnightblue" stroke="midnightblue" points="375.308,-6.5001 365.308,-10 375.308,-13.5001 375.308,-6.5001"/>
</g>
<!-- Node5 -->
<g id="node5" class="node"><title>Node5</title>
<g id="a_node5"><a xlink:href="../../d6/d96/ehata__its__py_8cpp.html#a327cf674a964d85fc7d2d68c89a52d09" target="_top" xlink:title="ExtendedHata">
<polygon fill="white" stroke="black" points="543,-0.5 543,-19.5 622,-19.5 622,-0.5 543,-0.5"/>
<text text-anchor="middle" x="582.5" y="-7.5" font-family="Helvetica,sans-Serif" font-size="10.00">ExtendedHata</text>
</a>
</g>
</g>
<!-- Node4&#45;&gt;Node5 -->
<g id="edge4" class="edge"><title>Node4&#45;&gt;Node5</title>
<path fill="none" stroke="midnightblue" d="M517.379,-10C526.108,-10 534.858,-10 542.966,-10"/>
<polygon fill="midnightblue" stroke="midnightblue" points="517.183,-6.5001 507.183,-10 517.183,-13.5001 517.183,-6.5001"/>
</g>
</g>
</svg>
