<?xml version="1.0" encoding="UTF-8" standalone="no"?>
<!DOCTYPE svg PUBLIC "-//W3C//DTD SVG 1.1//EN"
 "http://www.w3.org/Graphics/SVG/1.1/DTD/svg11.dtd">
<!-- Generated by graphviz version 2.38.0 (20140413.2041)
 -->
<!-- Title: src.harness.sas.SasImpl._GetDefaultSasSSLKeyPath Pages: 1 -->
<svg width="499pt" height="88pt"
 viewBox="0.00 0.00 499.00 88.00" xmlns="http://www.w3.org/2000/svg" xmlns:xlink="http://www.w3.org/1999/xlink">
<g id="graph0" class="graph" transform="scale(1 1) rotate(0) translate(4 84)">
<title>src.harness.sas.SasImpl._GetDefaultSasSSLKeyPath</title>
<polygon fill="white" stroke="none" points="-4,4 -4,-84 495,-84 495,4 -4,4"/>
<!-- Node1 -->
<g id="node1" class="node"><title>Node1</title>
<polygon fill="#bfbfbf" stroke="black" points="0,-24.5 0,-54.5 143,-54.5 143,-24.5 0,-24.5"/>
<text text-anchor="start" x="8" y="-42.5" font-family="Helvetica,sans-Serif" font-size="10.00">src.harness.sas.SasImpl.</text>
<text text-anchor="middle" x="71.5" y="-31.5" font-family="Helvetica,sans-Serif" font-size="10.00">_GetDefaultSasSSLKeyPath</text>
</g>
<!-- Node2 -->
<g id="node2" class="node"><title>Node2</title>
<g id="a_node2"><a xlink:href="../../db/dbc/classsrc_1_1harness_1_1sas_1_1SasImpl.html#a1c38612363298068e5b0caf677dbcb8d" target="_top" xlink:title="src.harness.sas.SasImpl.\l_SasRequest">
<polygon fill="white" stroke="black" points="179,-24.5 179,-54.5 307,-54.5 307,-24.5 179,-24.5"/>
<text text-anchor="start" x="187" y="-42.5" font-family="Helvetica,sans-Serif" font-size="10.00">src.harness.sas.SasImpl.</text>
<text text-anchor="middle" x="243" y="-31.5" font-family="Helvetica,sans-Serif" font-size="10.00">_SasRequest</text>
</a>
</g>
</g>
<!-- Node1&#45;&gt;Node2 -->
<g id="edge1" class="edge"><title>Node1&#45;&gt;Node2</title>
<path fill="none" stroke="midnightblue" d="M153.418,-39.5C161.989,-39.5 170.613,-39.5 178.937,-39.5"/>
<polygon fill="midnightblue" stroke="midnightblue" points="153.401,-36.0001 143.401,-39.5 153.401,-43.0001 153.401,-36.0001"/>
</g>
<!-- Node3 -->
<g id="node3" class="node"><title>Node3</title>
<g id="a_node3"><a xlink:href="../../db/dbc/classsrc_1_1harness_1_1sas_1_1SasImpl.html#ab3fb32dfe360a9a72dab950c9b5912ea" target="_top" xlink:title="src.harness.sas.SasImpl.\lGetSasImplementationRecord">
<polygon fill="white" stroke="black" points="343,-49.5 343,-79.5 491,-79.5 491,-49.5 343,-49.5"/>
<text text-anchor="start" x="351" y="-67.5" font-family="Helvetica,sans-Serif" font-size="10.00">src.harness.sas.SasImpl.</text>
<text text-anchor="middle" x="417" y="-56.5" font-family="Helvetica,sans-Serif" font-size="10.00">GetSasImplementationRecord</text>
</a>
</g>
</g>
<!-- Node2&#45;&gt;Node3 -->
<g id="edge2" class="edge"><title>Node2&#45;&gt;Node3</title>
<path fill="none" stroke="midnightblue" d="M316.98,-50.1076C325.508,-51.3471 334.211,-52.6121 342.743,-53.8522"/>
<polygon fill="midnightblue" stroke="midnightblue" points="317.469,-46.642 307.07,-48.6671 316.462,-53.5692 317.469,-46.642"/>
</g>
<!-- Node4 -->
<g id="node4" class="node"><title>Node4</title>
<g id="a_node4"><a xlink:href="../../db/dbc/classsrc_1_1harness_1_1sas_1_1SasImpl.html#aef3a52027aee2c00bdf0214391111df9" target="_top" xlink:title="src.harness.sas.SasImpl.\lGetEscSensorRecord">
<polygon fill="white" stroke="black" points="353,-0.5 353,-30.5 481,-30.5 481,-0.5 353,-0.5"/>
<text text-anchor="start" x="361" y="-18.5" font-family="Helvetica,sans-Serif" font-size="10.00">src.harness.sas.SasImpl.</text>
<text text-anchor="middle" x="417" y="-7.5" font-family="Helvetica,sans-Serif" font-size="10.00">GetEscSensorRecord</text>
</a>
</g>
</g>
<!-- Node2&#45;&gt;Node4 -->
<g id="edge3" class="edge"><title>Node2&#45;&gt;Node4</title>
<path fill="none" stroke="midnightblue" d="M317.008,-29.3129C328.959,-27.6453 341.253,-25.9298 352.938,-24.2994"/>
<polygon fill="midnightblue" stroke="midnightblue" points="316.49,-25.8511 307.07,-30.6996 317.458,-32.7839 316.49,-25.8511"/>
</g>
</g>
</svg>
