<?xml version="1.0" encoding="UTF-8" standalone="no"?>
<!DOCTYPE svg PUBLIC "-//W3C//DTD SVG 1.1//EN"
 "http://www.w3.org/Graphics/SVG/1.1/DTD/svg11.dtd">
<!-- Generated by graphviz version 2.38.0 (20140413.2041)
 -->
<!-- Title: src.harness.sas.SasImpl._CbsdRequest Pages: 1 -->
<svg width="324pt" height="127pt"
 viewBox="0.00 0.00 324.00 126.50" xmlns="http://www.w3.org/2000/svg" xmlns:xlink="http://www.w3.org/1999/xlink">
<g id="graph0" class="graph" transform="scale(1 1) rotate(0) translate(4 122.5)">
<title>src.harness.sas.SasImpl._CbsdRequest</title>
<polygon fill="white" stroke="none" points="-4,4 -4,-122.5 320,-122.5 320,4 -4,4"/>
<!-- Node1 -->
<g id="node1" class="node"><title>Node1</title>
<polygon fill="#bfbfbf" stroke="black" points="0,-49.5 0,-79.5 128,-79.5 128,-49.5 0,-49.5"/>
<text text-anchor="start" x="8" y="-67.5" font-family="Helvetica,sans-Serif" font-size="10.00">src.harness.sas.SasImpl.</text>
<text text-anchor="middle" x="64" y="-56.5" font-family="Helvetica,sans-Serif" font-size="10.00">_CbsdRequest</text>
</g>
<!-- Node2 -->
<g id="node2" class="node"><title>Node2</title>
<g id="a_node2"><a xlink:href="../../d4/d97/namespacesrc_1_1harness_1_1sas.html#a3fa87f39d6ac675cc79718db6e45aabe" target="_top" xlink:title="src.harness.sas._RequestPost">
<polygon fill="white" stroke="black" points="164,-99 164,-118 316,-118 316,-99 164,-99"/>
<text text-anchor="middle" x="240" y="-106" font-family="Helvetica,sans-Serif" font-size="10.00">src.harness.sas._RequestPost</text>
</a>
</g>
</g>
<!-- Node1&#45;&gt;Node2 -->
<g id="edge1" class="edge"><title>Node1&#45;&gt;Node2</title>
<path fill="none" stroke="midnightblue" d="M124.394,-79.5192C146.307,-85.0604 170.827,-91.2607 191.545,-96.4999"/>
<polygon fill="midnightblue" stroke="midnightblue" points="190.83,-99.9291 201.383,-98.9876 192.546,-93.1427 190.83,-99.9291"/>
</g>
<!-- Node3 -->
<g id="node3" class="node"><title>Node3</title>
<g id="a_node3"><a xlink:href="../../db/dbc/classsrc_1_1harness_1_1sas_1_1SasImpl.html#a6cb26f7efd8c5abc04770c1f87649f76" target="_top" xlink:title="src.harness.sas.SasImpl.\l_GetDefaultCbsdSSLCertPath">
<polygon fill="white" stroke="black" points="165,-49.5 165,-79.5 315,-79.5 315,-49.5 165,-49.5"/>
<text text-anchor="start" x="173" y="-67.5" font-family="Helvetica,sans-Serif" font-size="10.00">src.harness.sas.SasImpl.</text>
<text text-anchor="middle" x="240" y="-56.5" font-family="Helvetica,sans-Serif" font-size="10.00">_GetDefaultCbsdSSLCertPath</text>
</a>
</g>
</g>
<!-- Node1&#45;&gt;Node3 -->
<g id="edge2" class="edge"><title>Node1&#45;&gt;Node3</title>
<path fill="none" stroke="midnightblue" d="M128.31,-64.5C136.923,-64.5 145.872,-64.5 154.781,-64.5"/>
<polygon fill="midnightblue" stroke="midnightblue" points="154.804,-68.0001 164.804,-64.5 154.804,-61.0001 154.804,-68.0001"/>
</g>
<!-- Node4 -->
<g id="node4" class="node"><title>Node4</title>
<g id="a_node4"><a xlink:href="../../db/dbc/classsrc_1_1harness_1_1sas_1_1SasImpl.html#a26d36dd6bd6d1fcf31d01b4798e13c90" target="_top" xlink:title="src.harness.sas.SasImpl.\l_GetDefaultCbsdSSLKeyPath">
<polygon fill="white" stroke="black" points="165.5,-0.5 165.5,-30.5 314.5,-30.5 314.5,-0.5 165.5,-0.5"/>
<text text-anchor="start" x="173.5" y="-18.5" font-family="Helvetica,sans-Serif" font-size="10.00">src.harness.sas.SasImpl.</text>
<text text-anchor="middle" x="240" y="-7.5" font-family="Helvetica,sans-Serif" font-size="10.00">_GetDefaultCbsdSSLKeyPath</text>
</a>
</g>
</g>
<!-- Node1&#45;&gt;Node4 -->
<g id="edge3" class="edge"><title>Node1&#45;&gt;Node4</title>
<path fill="none" stroke="midnightblue" d="M118.626,-49.3986C136.737,-44.2981 157.124,-38.5571 175.9,-33.2695"/>
<polygon fill="midnightblue" stroke="midnightblue" points="176.875,-36.6313 185.552,-30.5516 174.977,-29.8933 176.875,-36.6313"/>
</g>
</g>
</svg>
