<?xml version="1.0" encoding="UTF-8" standalone="no"?>
<!DOCTYPE svg PUBLIC "-//W3C//DTD SVG 1.1//EN"
 "http://www.w3.org/Graphics/SVG/1.1/DTD/svg11.dtd">
<!-- Generated by graphviz version 2.38.0 (20140413.2041)
 -->
<!-- Title: src.harness.sas.SasImpl._GetDefaultCbsdSSLCertPath Pages: 1 -->
<svg width="486pt" height="284pt"
 viewBox="0.00 0.00 486.00 284.00" xmlns="http://www.w3.org/2000/svg" xmlns:xlink="http://www.w3.org/1999/xlink">
<g id="graph0" class="graph" transform="scale(1 1) rotate(0) translate(4 280)">
<title>src.harness.sas.SasImpl._GetDefaultCbsdSSLCertPath</title>
<polygon fill="white" stroke="none" points="-4,4 -4,-280 482,-280 482,4 -4,4"/>
<!-- Node1 -->
<g id="node1" class="node"><title>Node1</title>
<polygon fill="#bfbfbf" stroke="black" points="0,-122.5 0,-152.5 150,-152.5 150,-122.5 0,-122.5"/>
<text text-anchor="start" x="8" y="-140.5" font-family="Helvetica,sans-Serif" font-size="10.00">src.harness.sas.SasImpl.</text>
<text text-anchor="middle" x="75" y="-129.5" font-family="Helvetica,sans-Serif" font-size="10.00">_GetDefaultCbsdSSLCertPath</text>
</g>
<!-- Node2 -->
<g id="node2" class="node"><title>Node2</title>
<g id="a_node2"><a xlink:href="../../db/dbc/classsrc_1_1harness_1_1sas_1_1SasImpl.html#addd4707f64601a3e08d7aa2e0a35760c" target="_top" xlink:title="src.harness.sas.SasImpl.\l_CbsdRequest">
<polygon fill="white" stroke="black" points="186,-122.5 186,-152.5 314,-152.5 314,-122.5 186,-122.5"/>
<text text-anchor="start" x="194" y="-140.5" font-family="Helvetica,sans-Serif" font-size="10.00">src.harness.sas.SasImpl.</text>
<text text-anchor="middle" x="250" y="-129.5" font-family="Helvetica,sans-Serif" font-size="10.00">_CbsdRequest</text>
</a>
</g>
</g>
<!-- Node1&#45;&gt;Node2 -->
<g id="edge1" class="edge"><title>Node1&#45;&gt;Node2</title>
<path fill="none" stroke="midnightblue" d="M160.235,-137.5C168.881,-137.5 177.557,-137.5 185.917,-137.5"/>
<polygon fill="midnightblue" stroke="midnightblue" points="160.12,-134 150.12,-137.5 160.12,-141 160.12,-134"/>
</g>
<!-- Node3 -->
<g id="node3" class="node"><title>Node3</title>
<g id="a_node3"><a xlink:href="../../db/dbc/classsrc_1_1harness_1_1sas_1_1SasImpl.html#ae7c23f8712102b374e9ad313202456d5" target="_top" xlink:title="src.harness.sas.SasImpl.\lRegistration">
<polygon fill="white" stroke="black" points="350,-245.5 350,-275.5 478,-275.5 478,-245.5 350,-245.5"/>
<text text-anchor="start" x="358" y="-263.5" font-family="Helvetica,sans-Serif" font-size="10.00">src.harness.sas.SasImpl.</text>
<text text-anchor="middle" x="414" y="-252.5" font-family="Helvetica,sans-Serif" font-size="10.00">Registration</text>
</a>
</g>
</g>
<!-- Node2&#45;&gt;Node3 -->
<g id="edge2" class="edge"><title>Node2&#45;&gt;Node3</title>
<path fill="none" stroke="midnightblue" d="M268.993,-160.436C287.333,-182.505 317.617,-215.529 350,-236.5 355.109,-239.808 360.741,-242.763 366.474,-245.371"/>
<polygon fill="midnightblue" stroke="midnightblue" points="271.603,-158.099 262.57,-152.563 266.179,-162.524 271.603,-158.099"/>
</g>
<!-- Node4 -->
<g id="node4" class="node"><title>Node4</title>
<g id="a_node4"><a xlink:href="../../db/dbc/classsrc_1_1harness_1_1sas_1_1SasImpl.html#a21113e5ba5aa03d6b5e1167028fd5658" target="_top" xlink:title="src.harness.sas.SasImpl.\lSpectrumInquiry">
<polygon fill="white" stroke="black" points="350,-196.5 350,-226.5 478,-226.5 478,-196.5 350,-196.5"/>
<text text-anchor="start" x="358" y="-214.5" font-family="Helvetica,sans-Serif" font-size="10.00">src.harness.sas.SasImpl.</text>
<text text-anchor="middle" x="414" y="-203.5" font-family="Helvetica,sans-Serif" font-size="10.00">SpectrumInquiry</text>
</a>
</g>
</g>
<!-- Node2&#45;&gt;Node4 -->
<g id="edge3" class="edge"><title>Node2&#45;&gt;Node4</title>
<path fill="none" stroke="midnightblue" d="M287.745,-157.202C306.208,-166.807 329.055,-178.251 350,-187.5 356.959,-190.573 364.446,-193.633 371.744,-196.488"/>
<polygon fill="midnightblue" stroke="midnightblue" points="289.275,-154.052 278.792,-152.51 286.025,-160.252 289.275,-154.052"/>
</g>
<!-- Node5 -->
<g id="node5" class="node"><title>Node5</title>
<g id="a_node5"><a xlink:href="../../db/dbc/classsrc_1_1harness_1_1sas_1_1SasImpl.html#abb86d5442fd13eaa7f8940d916d1414e" target="_top" xlink:title="src.harness.sas.SasImpl.\lGrant">
<polygon fill="white" stroke="black" points="350,-147.5 350,-177.5 478,-177.5 478,-147.5 350,-147.5"/>
<text text-anchor="start" x="358" y="-165.5" font-family="Helvetica,sans-Serif" font-size="10.00">src.harness.sas.SasImpl.</text>
<text text-anchor="middle" x="414" y="-154.5" font-family="Helvetica,sans-Serif" font-size="10.00">Grant</text>
</a>
</g>
</g>
<!-- Node2&#45;&gt;Node5 -->
<g id="edge4" class="edge"><title>Node2&#45;&gt;Node5</title>
<path fill="none" stroke="midnightblue" d="M324.094,-148.78C332.676,-150.104 341.378,-151.447 349.808,-152.748"/>
<polygon fill="midnightblue" stroke="midnightblue" points="324.514,-145.303 314.097,-147.237 323.446,-152.222 324.514,-145.303"/>
</g>
<!-- Node6 -->
<g id="node6" class="node"><title>Node6</title>
<g id="a_node6"><a xlink:href="../../db/dbc/classsrc_1_1harness_1_1sas_1_1SasImpl.html#a1b8ebaf683a96b8c56615dfd121cc48f" target="_top" xlink:title="src.harness.sas.SasImpl.\lHeartbeat">
<polygon fill="white" stroke="black" points="350,-98.5 350,-128.5 478,-128.5 478,-98.5 350,-98.5"/>
<text text-anchor="start" x="358" y="-116.5" font-family="Helvetica,sans-Serif" font-size="10.00">src.harness.sas.SasImpl.</text>
<text text-anchor="middle" x="414" y="-105.5" font-family="Helvetica,sans-Serif" font-size="10.00">Heartbeat</text>
</a>
</g>
</g>
<!-- Node2&#45;&gt;Node6 -->
<g id="edge5" class="edge"><title>Node2&#45;&gt;Node6</title>
<path fill="none" stroke="midnightblue" d="M324.094,-126.671C332.676,-125.4 341.378,-124.111 349.808,-122.862"/>
<polygon fill="midnightblue" stroke="midnightblue" points="323.476,-123.224 314.097,-128.152 324.502,-130.149 323.476,-123.224"/>
</g>
<!-- Node7 -->
<g id="node7" class="node"><title>Node7</title>
<g id="a_node7"><a xlink:href="../../db/dbc/classsrc_1_1harness_1_1sas_1_1SasImpl.html#a9878f3a79d5614f89c502996ff888ce9" target="_top" xlink:title="src.harness.sas.SasImpl.\lRelinquishment">
<polygon fill="white" stroke="black" points="350,-49.5 350,-79.5 478,-79.5 478,-49.5 350,-49.5"/>
<text text-anchor="start" x="358" y="-67.5" font-family="Helvetica,sans-Serif" font-size="10.00">src.harness.sas.SasImpl.</text>
<text text-anchor="middle" x="414" y="-56.5" font-family="Helvetica,sans-Serif" font-size="10.00">Relinquishment</text>
</a>
</g>
</g>
<!-- Node2&#45;&gt;Node7 -->
<g id="edge6" class="edge"><title>Node2&#45;&gt;Node7</title>
<path fill="none" stroke="midnightblue" d="M289.736,-117.9C307.89,-108.927 329.902,-98.3458 350,-89.5 357.647,-86.1344 365.898,-82.7127 373.83,-79.5249"/>
<polygon fill="midnightblue" stroke="midnightblue" points="288.022,-114.844 280.625,-122.429 291.138,-121.112 288.022,-114.844"/>
</g>
<!-- Node8 -->
<g id="node8" class="node"><title>Node8</title>
<g id="a_node8"><a xlink:href="../../db/dbc/classsrc_1_1harness_1_1sas_1_1SasImpl.html#ae87a8b22797c3136301c1d825881d80f" target="_top" xlink:title="src.harness.sas.SasImpl.\lDeregistration">
<polygon fill="white" stroke="black" points="350,-0.5 350,-30.5 478,-30.5 478,-0.5 350,-0.5"/>
<text text-anchor="start" x="358" y="-18.5" font-family="Helvetica,sans-Serif" font-size="10.00">src.harness.sas.SasImpl.</text>
<text text-anchor="middle" x="414" y="-7.5" font-family="Helvetica,sans-Serif" font-size="10.00">Deregistration</text>
</a>
</g>
</g>
<!-- Node2&#45;&gt;Node8 -->
<g id="edge7" class="edge"><title>Node2&#45;&gt;Node8</title>
<path fill="none" stroke="midnightblue" d="M269.461,-114.782C287.948,-93.2488 318.159,-61.2016 350,-40.5 355.722,-36.7799 362.085,-33.4622 368.505,-30.5555"/>
<polygon fill="midnightblue" stroke="midnightblue" points="266.744,-112.575 262.97,-122.475 272.094,-117.089 266.744,-112.575"/>
</g>
</g>
</svg>
