<?xml version="1.0" encoding="UTF-8" standalone="no"?>
<!DOCTYPE svg PUBLIC "-//W3C//DTD SVG 1.1//EN"
 "http://www.w3.org/Graphics/SVG/1.1/DTD/svg11.dtd">
<!-- Generated by graphviz version 2.38.0 (20140413.2041)
 -->
<!-- Title: src.harness.sas.SasImpl.GetEscSensorRecord Pages: 1 -->
<svg width="483pt" height="127pt"
 viewBox="0.00 0.00 483.00 126.50" xmlns="http://www.w3.org/2000/svg" xmlns:xlink="http://www.w3.org/1999/xlink">
<g id="graph0" class="graph" transform="scale(1 1) rotate(0) translate(4 122.5)">
<title>src.harness.sas.SasImpl.GetEscSensorRecord</title>
<polygon fill="white" stroke="none" points="-4,4 -4,-122.5 479,-122.5 479,4 -4,4"/>
<!-- Node1 -->
<g id="node1" class="node"><title>Node1</title>
<polygon fill="#bfbfbf" stroke="black" points="0,-49.5 0,-79.5 128,-79.5 128,-49.5 0,-49.5"/>
<text text-anchor="start" x="8" y="-67.5" font-family="Helvetica,sans-Serif" font-size="10.00">src.harness.sas.SasImpl.</text>
<text text-anchor="middle" x="64" y="-56.5" font-family="Helvetica,sans-Serif" font-size="10.00">GetEscSensorRecord</text>
</g>
<!-- Node2 -->
<g id="node2" class="node"><title>Node2</title>
<g id="a_node2"><a xlink:href="../../db/dbc/classsrc_1_1harness_1_1sas_1_1SasImpl.html#a1c38612363298068e5b0caf677dbcb8d" target="_top" xlink:title="src.harness.sas.SasImpl.\l_SasRequest">
<polygon fill="white" stroke="black" points="164,-49.5 164,-79.5 292,-79.5 292,-49.5 164,-49.5"/>
<text text-anchor="start" x="172" y="-67.5" font-family="Helvetica,sans-Serif" font-size="10.00">src.harness.sas.SasImpl.</text>
<text text-anchor="middle" x="228" y="-56.5" font-family="Helvetica,sans-Serif" font-size="10.00">_SasRequest</text>
</a>
</g>
</g>
<!-- Node1&#45;&gt;Node2 -->
<g id="edge1" class="edge"><title>Node1&#45;&gt;Node2</title>
<path fill="none" stroke="midnightblue" d="M128.097,-64.5C136.435,-64.5 145.038,-64.5 153.53,-64.5"/>
<polygon fill="midnightblue" stroke="midnightblue" points="153.808,-68.0001 163.808,-64.5 153.808,-61.0001 153.808,-68.0001"/>
</g>
<!-- Node3 -->
<g id="node3" class="node"><title>Node3</title>
<g id="a_node3"><a xlink:href="../../d4/d97/namespacesrc_1_1harness_1_1sas.html#a1e797e620e2d634cd06583ab3eb1ae60" target="_top" xlink:title="src.harness.sas._RequestGet">
<polygon fill="white" stroke="black" points="328,-99 328,-118 475,-118 475,-99 328,-99"/>
<text text-anchor="middle" x="401.5" y="-106" font-family="Helvetica,sans-Serif" font-size="10.00">src.harness.sas._RequestGet</text>
</a>
</g>
</g>
<!-- Node2&#45;&gt;Node3 -->
<g id="edge2" class="edge"><title>Node2&#45;&gt;Node3</title>
<path fill="none" stroke="midnightblue" d="M287.541,-79.5192C309.139,-85.0604 333.306,-91.2607 353.727,-96.4999"/>
<polygon fill="midnightblue" stroke="midnightblue" points="352.867,-99.8926 363.423,-98.9876 354.607,-93.1122 352.867,-99.8926"/>
</g>
<!-- Node4 -->
<g id="node4" class="node"><title>Node4</title>
<g id="a_node4"><a xlink:href="../../db/dbc/classsrc_1_1harness_1_1sas_1_1SasImpl.html#acdf9704300a0a20c81c439d6fed7375b" target="_top" xlink:title="src.harness.sas.SasImpl.\l_GetDefaultSasSSLCertPath">
<polygon fill="white" stroke="black" points="329.5,-49.5 329.5,-79.5 473.5,-79.5 473.5,-49.5 329.5,-49.5"/>
<text text-anchor="start" x="337.5" y="-67.5" font-family="Helvetica,sans-Serif" font-size="10.00">src.harness.sas.SasImpl.</text>
<text text-anchor="middle" x="401.5" y="-56.5" font-family="Helvetica,sans-Serif" font-size="10.00">_GetDefaultSasSSLCertPath</text>
</a>
</g>
</g>
<!-- Node2&#45;&gt;Node4 -->
<g id="edge3" class="edge"><title>Node2&#45;&gt;Node4</title>
<path fill="none" stroke="midnightblue" d="M292.373,-64.5C301.108,-64.5 310.177,-64.5 319.18,-64.5"/>
<polygon fill="midnightblue" stroke="midnightblue" points="319.295,-68.0001 329.295,-64.5 319.295,-61.0001 319.295,-68.0001"/>
</g>
<!-- Node5 -->
<g id="node5" class="node"><title>Node5</title>
<g id="a_node5"><a xlink:href="../../db/dbc/classsrc_1_1harness_1_1sas_1_1SasImpl.html#a1ba7f3ce68f54b195e4ebfa523c9230e" target="_top" xlink:title="src.harness.sas.SasImpl.\l_GetDefaultSasSSLKeyPath">
<polygon fill="white" stroke="black" points="330,-0.5 330,-30.5 473,-30.5 473,-0.5 330,-0.5"/>
<text text-anchor="start" x="338" y="-18.5" font-family="Helvetica,sans-Serif" font-size="10.00">src.harness.sas.SasImpl.</text>
<text text-anchor="middle" x="401.5" y="-7.5" font-family="Helvetica,sans-Serif" font-size="10.00">_GetDefaultSasSSLKeyPath</text>
</a>
</g>
</g>
<!-- Node2&#45;&gt;Node5 -->
<g id="edge4" class="edge"><title>Node2&#45;&gt;Node5</title>
<path fill="none" stroke="midnightblue" d="M281.855,-49.3986C299.625,-44.3215 319.616,-38.6098 338.052,-33.3423"/>
<polygon fill="midnightblue" stroke="midnightblue" points="339.166,-36.6642 347.819,-30.5516 337.243,-29.9335 339.166,-36.6642"/>
</g>
</g>
</svg>
