<?xml version="1.0" encoding="UTF-8" standalone="no"?>
<!DOCTYPE svg PUBLIC "-//W3C//DTD SVG 1.1//EN"
 "http://www.w3.org/Graphics/SVG/1.1/DTD/svg11.dtd">
<!-- Generated by graphviz version 2.38.0 (20140413.2041)
 -->
<!-- Title: src.harness.sas.SasImpl._GetDefaultCbsdSSLKeyPath Pages: 1 -->
<svg width="485pt" height="284pt"
 viewBox="0.00 0.00 485.00 284.00" xmlns="http://www.w3.org/2000/svg" xmlns:xlink="http://www.w3.org/1999/xlink">
<g id="graph0" class="graph" transform="scale(1 1) rotate(0) translate(4 280)">
<title>src.harness.sas.SasImpl._GetDefaultCbsdSSLKeyPath</title>
<polygon fill="white" stroke="none" points="-4,4 -4,-280 481,-280 481,4 -4,4"/>
<!-- Node1 -->
<g id="node1" class="node"><title>Node1</title>
<polygon fill="#bfbfbf" stroke="black" points="0,-122.5 0,-152.5 149,-152.5 149,-122.5 0,-122.5"/>
<text text-anchor="start" x="8" y="-140.5" font-family="Helvetica,sans-Serif" font-size="10.00">src.harness.sas.SasImpl.</text>
<text text-anchor="middle" x="74.5" y="-129.5" font-family="Helvetica,sans-Serif" font-size="10.00">_GetDefaultCbsdSSLKeyPath</text>
</g>
<!-- Node2 -->
<g id="node2" class="node"><title>Node2</title>
<g id="a_node2"><a xlink:href="../../db/dbc/classsrc_1_1harness_1_1sas_1_1SasImpl.html#addd4707f64601a3e08d7aa2e0a35760c" target="_top" xlink:title="src.harness.sas.SasImpl.\l_CbsdRequest">
<polygon fill="white" stroke="black" points="185,-122.5 185,-152.5 313,-152.5 313,-122.5 185,-122.5"/>
<text text-anchor="start" x="193" y="-140.5" font-family="Helvetica,sans-Serif" font-size="10.00">src.harness.sas.SasImpl.</text>
<text text-anchor="middle" x="249" y="-129.5" font-family="Helvetica,sans-Serif" font-size="10.00">_CbsdRequest</text>
</a>
</g>
</g>
<!-- Node1&#45;&gt;Node2 -->
<g id="edge1" class="edge"><title>Node1&#45;&gt;Node2</title>
<path fill="none" stroke="midnightblue" d="M159.257,-137.5C167.893,-137.5 176.561,-137.5 184.917,-137.5"/>
<polygon fill="midnightblue" stroke="midnightblue" points="159.156,-134 149.156,-137.5 159.156,-141 159.156,-134"/>
</g>
<!-- Node3 -->
<g id="node3" class="node"><title>Node3</title>
<g id="a_node3"><a xlink:href="../../db/dbc/classsrc_1_1harness_1_1sas_1_1SasImpl.html#ae7c23f8712102b374e9ad313202456d5" target="_top" xlink:title="src.harness.sas.SasImpl.\lRegistration">
<polygon fill="white" stroke="black" points="349,-245.5 349,-275.5 477,-275.5 477,-245.5 349,-245.5"/>
<text text-anchor="start" x="357" y="-263.5" font-family="Helvetica,sans-Serif" font-size="10.00">src.harness.sas.SasImpl.</text>
<text text-anchor="middle" x="413" y="-252.5" font-family="Helvetica,sans-Serif" font-size="10.00">Registration</text>
</a>
</g>
</g>
<!-- Node2&#45;&gt;Node3 -->
<g id="edge2" class="edge"><title>Node2&#45;&gt;Node3</title>
<path fill="none" stroke="midnightblue" d="M267.993,-160.436C286.333,-182.505 316.617,-215.529 349,-236.5 354.109,-239.808 359.741,-242.763 365.474,-245.371"/>
<polygon fill="midnightblue" stroke="midnightblue" points="270.603,-158.099 261.57,-152.563 265.179,-162.524 270.603,-158.099"/>
</g>
<!-- Node4 -->
<g id="node4" class="node"><title>Node4</title>
<g id="a_node4"><a xlink:href="../../db/dbc/classsrc_1_1harness_1_1sas_1_1SasImpl.html#a21113e5ba5aa03d6b5e1167028fd5658" target="_top" xlink:title="src.harness.sas.SasImpl.\lSpectrumInquiry">
<polygon fill="white" stroke="black" points="349,-196.5 349,-226.5 477,-226.5 477,-196.5 349,-196.5"/>
<text text-anchor="start" x="357" y="-214.5" font-family="Helvetica,sans-Serif" font-size="10.00">src.harness.sas.SasImpl.</text>
<text text-anchor="middle" x="413" y="-203.5" font-family="Helvetica,sans-Serif" font-size="10.00">SpectrumInquiry</text>
</a>
</g>
</g>
<!-- Node2&#45;&gt;Node4 -->
<g id="edge3" class="edge"><title>Node2&#45;&gt;Node4</title>
<path fill="none" stroke="midnightblue" d="M286.745,-157.202C305.208,-166.807 328.055,-178.251 349,-187.5 355.959,-190.573 363.446,-193.633 370.744,-196.488"/>
<polygon fill="midnightblue" stroke="midnightblue" points="288.275,-154.052 277.792,-152.51 285.025,-160.252 288.275,-154.052"/>
</g>
<!-- Node5 -->
<g id="node5" class="node"><title>Node5</title>
<g id="a_node5"><a xlink:href="../../db/dbc/classsrc_1_1harness_1_1sas_1_1SasImpl.html#abb86d5442fd13eaa7f8940d916d1414e" target="_top" xlink:title="src.harness.sas.SasImpl.\lGrant">
<polygon fill="white" stroke="black" points="349,-147.5 349,-177.5 477,-177.5 477,-147.5 349,-147.5"/>
<text text-anchor="start" x="357" y="-165.5" font-family="Helvetica,sans-Serif" font-size="10.00">src.harness.sas.SasImpl.</text>
<text text-anchor="middle" x="413" y="-154.5" font-family="Helvetica,sans-Serif" font-size="10.00">Grant</text>
</a>
</g>
</g>
<!-- Node2&#45;&gt;Node5 -->
<g id="edge4" class="edge"><title>Node2&#45;&gt;Node5</title>
<path fill="none" stroke="midnightblue" d="M323.094,-148.78C331.676,-150.104 340.378,-151.447 348.808,-152.748"/>
<polygon fill="midnightblue" stroke="midnightblue" points="323.514,-145.303 313.097,-147.237 322.446,-152.222 323.514,-145.303"/>
</g>
<!-- Node6 -->
<g id="node6" class="node"><title>Node6</title>
<g id="a_node6"><a xlink:href="../../db/dbc/classsrc_1_1harness_1_1sas_1_1SasImpl.html#a1b8ebaf683a96b8c56615dfd121cc48f" target="_top" xlink:title="src.harness.sas.SasImpl.\lHeartbeat">
<polygon fill="white" stroke="black" points="349,-98.5 349,-128.5 477,-128.5 477,-98.5 349,-98.5"/>
<text text-anchor="start" x="357" y="-116.5" font-family="Helvetica,sans-Serif" font-size="10.00">src.harness.sas.SasImpl.</text>
<text text-anchor="middle" x="413" y="-105.5" font-family="Helvetica,sans-Serif" font-size="10.00">Heartbeat</text>
</a>
</g>
</g>
<!-- Node2&#45;&gt;Node6 -->
<g id="edge5" class="edge"><title>Node2&#45;&gt;Node6</title>
<path fill="none" stroke="midnightblue" d="M323.094,-126.671C331.676,-125.4 340.378,-124.111 348.808,-122.862"/>
<polygon fill="midnightblue" stroke="midnightblue" points="322.476,-123.224 313.097,-128.152 323.502,-130.149 322.476,-123.224"/>
</g>
<!-- Node7 -->
<g id="node7" class="node"><title>Node7</title>
<g id="a_node7"><a xlink:href="../../db/dbc/classsrc_1_1harness_1_1sas_1_1SasImpl.html#a9878f3a79d5614f89c502996ff888ce9" target="_top" xlink:title="src.harness.sas.SasImpl.\lRelinquishment">
<polygon fill="white" stroke="black" points="349,-49.5 349,-79.5 477,-79.5 477,-49.5 349,-49.5"/>
<text text-anchor="start" x="357" y="-67.5" font-family="Helvetica,sans-Serif" font-size="10.00">src.harness.sas.SasImpl.</text>
<text text-anchor="middle" x="413" y="-56.5" font-family="Helvetica,sans-Serif" font-size="10.00">Relinquishment</text>
</a>
</g>
</g>
<!-- Node2&#45;&gt;Node7 -->
<g id="edge6" class="edge"><title>Node2&#45;&gt;Node7</title>
<path fill="none" stroke="midnightblue" d="M288.736,-117.9C306.89,-108.927 328.902,-98.3458 349,-89.5 356.647,-86.1344 364.898,-82.7127 372.83,-79.5249"/>
<polygon fill="midnightblue" stroke="midnightblue" points="287.022,-114.844 279.625,-122.429 290.138,-121.112 287.022,-114.844"/>
</g>
<!-- Node8 -->
<g id="node8" class="node"><title>Node8</title>
<g id="a_node8"><a xlink:href="../../db/dbc/classsrc_1_1harness_1_1sas_1_1SasImpl.html#ae87a8b22797c3136301c1d825881d80f" target="_top" xlink:title="src.harness.sas.SasImpl.\lDeregistration">
<polygon fill="white" stroke="black" points="349,-0.5 349,-30.5 477,-30.5 477,-0.5 349,-0.5"/>
<text text-anchor="start" x="357" y="-18.5" font-family="Helvetica,sans-Serif" font-size="10.00">src.harness.sas.SasImpl.</text>
<text text-anchor="middle" x="413" y="-7.5" font-family="Helvetica,sans-Serif" font-size="10.00">Deregistration</text>
</a>
</g>
</g>
<!-- Node2&#45;&gt;Node8 -->
<g id="edge7" class="edge"><title>Node2&#45;&gt;Node8</title>
<path fill="none" stroke="midnightblue" d="M268.461,-114.782C286.948,-93.2488 317.159,-61.2016 349,-40.5 354.722,-36.7799 361.085,-33.4622 367.505,-30.5555"/>
<polygon fill="midnightblue" stroke="midnightblue" points="265.744,-112.575 261.97,-122.475 271.094,-117.089 265.744,-112.575"/>
</g>
</g>
</svg>
