<?xml version="1.0" encoding="UTF-8" standalone="no"?>
<!DOCTYPE svg PUBLIC "-//W3C//DTD SVG 1.1//EN"
 "http://www.w3.org/Graphics/SVG/1.1/DTD/svg11.dtd">
<!-- Generated by graphviz version 2.38.0 (20140413.2041)
 -->
<!-- Title: src.harness.sas.SasImpl.Deregistration Pages: 1 -->
<svg width="488pt" height="127pt"
 viewBox="0.00 0.00 488.00 126.50" xmlns="http://www.w3.org/2000/svg" xmlns:xlink="http://www.w3.org/1999/xlink">
<g id="graph0" class="graph" transform="scale(1 1) rotate(0) translate(4 122.5)">
<title>src.harness.sas.SasImpl.Deregistration</title>
<polygon fill="white" stroke="none" points="-4,4 -4,-122.5 484,-122.5 484,4 -4,4"/>
<!-- Node1 -->
<g id="node1" class="node"><title>Node1</title>
<polygon fill="#bfbfbf" stroke="black" points="0,-49.5 0,-79.5 128,-79.5 128,-49.5 0,-49.5"/>
<text text-anchor="start" x="8" y="-67.5" font-family="Helvetica,sans-Serif" font-size="10.00">src.harness.sas.SasImpl.</text>
<text text-anchor="middle" x="64" y="-56.5" font-family="Helvetica,sans-Serif" font-size="10.00">Deregistration</text>
</g>
<!-- Node2 -->
<g id="node2" class="node"><title>Node2</title>
<g id="a_node2"><a xlink:href="../../db/dbc/classsrc_1_1harness_1_1sas_1_1SasImpl.html#addd4707f64601a3e08d7aa2e0a35760c" target="_top" xlink:title="src.harness.sas.SasImpl.\l_CbsdRequest">
<polygon fill="white" stroke="black" points="164,-49.5 164,-79.5 292,-79.5 292,-49.5 164,-49.5"/>
<text text-anchor="start" x="172" y="-67.5" font-family="Helvetica,sans-Serif" font-size="10.00">src.harness.sas.SasImpl.</text>
<text text-anchor="middle" x="228" y="-56.5" font-family="Helvetica,sans-Serif" font-size="10.00">_CbsdRequest</text>
</a>
</g>
</g>
<!-- Node1&#45;&gt;Node2 -->
<g id="edge1" class="edge"><title>Node1&#45;&gt;Node2</title>
<path fill="none" stroke="midnightblue" d="M128.097,-64.5C136.435,-64.5 145.038,-64.5 153.53,-64.5"/>
<polygon fill="midnightblue" stroke="midnightblue" points="153.808,-68.0001 163.808,-64.5 153.808,-61.0001 153.808,-68.0001"/>
</g>
<!-- Node3 -->
<g id="node3" class="node"><title>Node3</title>
<g id="a_node3"><a xlink:href="../../d4/d97/namespacesrc_1_1harness_1_1sas.html#a3fa87f39d6ac675cc79718db6e45aabe" target="_top" xlink:title="src.harness.sas._RequestPost">
<polygon fill="white" stroke="black" points="328,-99 328,-118 480,-118 480,-99 328,-99"/>
<text text-anchor="middle" x="404" y="-106" font-family="Helvetica,sans-Serif" font-size="10.00">src.harness.sas._RequestPost</text>
</a>
</g>
</g>
<!-- Node2&#45;&gt;Node3 -->
<g id="edge2" class="edge"><title>Node2&#45;&gt;Node3</title>
<path fill="none" stroke="midnightblue" d="M288.394,-79.5192C310.307,-85.0604 334.827,-91.2607 355.545,-96.4999"/>
<polygon fill="midnightblue" stroke="midnightblue" points="354.83,-99.9291 365.383,-98.9876 356.546,-93.1427 354.83,-99.9291"/>
</g>
<!-- Node4 -->
<g id="node4" class="node"><title>Node4</title>
<g id="a_node4"><a xlink:href="../../db/dbc/classsrc_1_1harness_1_1sas_1_1SasImpl.html#a6cb26f7efd8c5abc04770c1f87649f76" target="_top" xlink:title="src.harness.sas.SasImpl.\l_GetDefaultCbsdSSLCertPath">
<polygon fill="white" stroke="black" points="329,-49.5 329,-79.5 479,-79.5 479,-49.5 329,-49.5"/>
<text text-anchor="start" x="337" y="-67.5" font-family="Helvetica,sans-Serif" font-size="10.00">src.harness.sas.SasImpl.</text>
<text text-anchor="middle" x="404" y="-56.5" font-family="Helvetica,sans-Serif" font-size="10.00">_GetDefaultCbsdSSLCertPath</text>
</a>
</g>
</g>
<!-- Node2&#45;&gt;Node4 -->
<g id="edge3" class="edge"><title>Node2&#45;&gt;Node4</title>
<path fill="none" stroke="midnightblue" d="M292.31,-64.5C300.923,-64.5 309.872,-64.5 318.781,-64.5"/>
<polygon fill="midnightblue" stroke="midnightblue" points="318.804,-68.0001 328.804,-64.5 318.804,-61.0001 318.804,-68.0001"/>
</g>
<!-- Node5 -->
<g id="node5" class="node"><title>Node5</title>
<g id="a_node5"><a xlink:href="../../db/dbc/classsrc_1_1harness_1_1sas_1_1SasImpl.html#a26d36dd6bd6d1fcf31d01b4798e13c90" target="_top" xlink:title="src.harness.sas.SasImpl.\l_GetDefaultCbsdSSLKeyPath">
<polygon fill="white" stroke="black" points="329.5,-0.5 329.5,-30.5 478.5,-30.5 478.5,-0.5 329.5,-0.5"/>
<text text-anchor="start" x="337.5" y="-18.5" font-family="Helvetica,sans-Serif" font-size="10.00">src.harness.sas.SasImpl.</text>
<text text-anchor="middle" x="404" y="-7.5" font-family="Helvetica,sans-Serif" font-size="10.00">_GetDefaultCbsdSSLKeyPath</text>
</a>
</g>
</g>
<!-- Node2&#45;&gt;Node5 -->
<g id="edge4" class="edge"><title>Node2&#45;&gt;Node5</title>
<path fill="none" stroke="midnightblue" d="M282.626,-49.3986C300.737,-44.2981 321.124,-38.5571 339.9,-33.2695"/>
<polygon fill="midnightblue" stroke="midnightblue" points="340.875,-36.6313 349.552,-30.5516 338.977,-29.8933 340.875,-36.6313"/>
</g>
</g>
</svg>
