<?xml version="1.0" encoding="UTF-8" standalone="no"?>
<!DOCTYPE svg PUBLIC "-//W3C//DTD SVG 1.1//EN"
 "http://www.w3.org/Graphics/SVG/1.1/DTD/svg11.dtd">
<!-- Generated by graphviz version 2.38.0 (20140413.2041)
 -->
<!-- Title: src.harness.sas.SasImpl.GetSasImplementationRecord Pages: 1 -->
<svg width="503pt" height="127pt"
 viewBox="0.00 0.00 503.00 126.50" xmlns="http://www.w3.org/2000/svg" xmlns:xlink="http://www.w3.org/1999/xlink">
<g id="graph0" class="graph" transform="scale(1 1) rotate(0) translate(4 122.5)">
<title>src.harness.sas.SasImpl.GetSasImplementationRecord</title>
<polygon fill="white" stroke="none" points="-4,4 -4,-122.5 499,-122.5 499,4 -4,4"/>
<!-- Node1 -->
<g id="node1" class="node"><title>Node1</title>
<polygon fill="#bfbfbf" stroke="black" points="0,-49.5 0,-79.5 148,-79.5 148,-49.5 0,-49.5"/>
<text text-anchor="start" x="8" y="-67.5" font-family="Helvetica,sans-Serif" font-size="10.00">src.harness.sas.SasImpl.</text>
<text text-anchor="middle" x="74" y="-56.5" font-family="Helvetica,sans-Serif" font-size="10.00">GetSasImplementationRecord</text>
</g>
<!-- Node2 -->
<g id="node2" class="node"><title>Node2</title>
<g id="a_node2"><a xlink:href="../../db/dbc/classsrc_1_1harness_1_1sas_1_1SasImpl.html#a1c38612363298068e5b0caf677dbcb8d" target="_top" xlink:title="src.harness.sas.SasImpl.\l_SasRequest">
<polygon fill="white" stroke="black" points="184,-49.5 184,-79.5 312,-79.5 312,-49.5 184,-49.5"/>
<text text-anchor="start" x="192" y="-67.5" font-family="Helvetica,sans-Serif" font-size="10.00">src.harness.sas.SasImpl.</text>
<text text-anchor="middle" x="248" y="-56.5" font-family="Helvetica,sans-Serif" font-size="10.00">_SasRequest</text>
</a>
</g>
</g>
<!-- Node1&#45;&gt;Node2 -->
<g id="edge1" class="edge"><title>Node1&#45;&gt;Node2</title>
<path fill="none" stroke="midnightblue" d="M148.442,-64.5C156.816,-64.5 165.352,-64.5 173.724,-64.5"/>
<polygon fill="midnightblue" stroke="midnightblue" points="173.832,-68.0001 183.832,-64.5 173.832,-61.0001 173.832,-68.0001"/>
</g>
<!-- Node3 -->
<g id="node3" class="node"><title>Node3</title>
<g id="a_node3"><a xlink:href="../../d4/d97/namespacesrc_1_1harness_1_1sas.html#a1e797e620e2d634cd06583ab3eb1ae60" target="_top" xlink:title="src.harness.sas._RequestGet">
<polygon fill="white" stroke="black" points="348,-99 348,-118 495,-118 495,-99 348,-99"/>
<text text-anchor="middle" x="421.5" y="-106" font-family="Helvetica,sans-Serif" font-size="10.00">src.harness.sas._RequestGet</text>
</a>
</g>
</g>
<!-- Node2&#45;&gt;Node3 -->
<g id="edge2" class="edge"><title>Node2&#45;&gt;Node3</title>
<path fill="none" stroke="midnightblue" d="M307.541,-79.5192C329.139,-85.0604 353.306,-91.2607 373.727,-96.4999"/>
<polygon fill="midnightblue" stroke="midnightblue" points="372.867,-99.8926 383.423,-98.9876 374.607,-93.1122 372.867,-99.8926"/>
</g>
<!-- Node4 -->
<g id="node4" class="node"><title>Node4</title>
<g id="a_node4"><a xlink:href="../../db/dbc/classsrc_1_1harness_1_1sas_1_1SasImpl.html#acdf9704300a0a20c81c439d6fed7375b" target="_top" xlink:title="src.harness.sas.SasImpl.\l_GetDefaultSasSSLCertPath">
<polygon fill="white" stroke="black" points="349.5,-49.5 349.5,-79.5 493.5,-79.5 493.5,-49.5 349.5,-49.5"/>
<text text-anchor="start" x="357.5" y="-67.5" font-family="Helvetica,sans-Serif" font-size="10.00">src.harness.sas.SasImpl.</text>
<text text-anchor="middle" x="421.5" y="-56.5" font-family="Helvetica,sans-Serif" font-size="10.00">_GetDefaultSasSSLCertPath</text>
</a>
</g>
</g>
<!-- Node2&#45;&gt;Node4 -->
<g id="edge3" class="edge"><title>Node2&#45;&gt;Node4</title>
<path fill="none" stroke="midnightblue" d="M312.373,-64.5C321.108,-64.5 330.177,-64.5 339.18,-64.5"/>
<polygon fill="midnightblue" stroke="midnightblue" points="339.295,-68.0001 349.295,-64.5 339.295,-61.0001 339.295,-68.0001"/>
</g>
<!-- Node5 -->
<g id="node5" class="node"><title>Node5</title>
<g id="a_node5"><a xlink:href="../../db/dbc/classsrc_1_1harness_1_1sas_1_1SasImpl.html#a1ba7f3ce68f54b195e4ebfa523c9230e" target="_top" xlink:title="src.harness.sas.SasImpl.\l_GetDefaultSasSSLKeyPath">
<polygon fill="white" stroke="black" points="350,-0.5 350,-30.5 493,-30.5 493,-0.5 350,-0.5"/>
<text text-anchor="start" x="358" y="-18.5" font-family="Helvetica,sans-Serif" font-size="10.00">src.harness.sas.SasImpl.</text>
<text text-anchor="middle" x="421.5" y="-7.5" font-family="Helvetica,sans-Serif" font-size="10.00">_GetDefaultSasSSLKeyPath</text>
</a>
</g>
</g>
<!-- Node2&#45;&gt;Node5 -->
<g id="edge4" class="edge"><title>Node2&#45;&gt;Node5</title>
<path fill="none" stroke="midnightblue" d="M301.855,-49.3986C319.625,-44.3215 339.616,-38.6098 358.052,-33.3423"/>
<polygon fill="midnightblue" stroke="midnightblue" points="359.166,-36.6642 367.819,-30.5516 357.243,-29.9335 359.166,-36.6642"/>
</g>
</g>
</svg>
