<?xml version="1.0" encoding="UTF-8" standalone="no"?>
<!DOCTYPE svg PUBLIC "-//W3C//DTD SVG 1.1//EN"
 "http://www.w3.org/Graphics/SVG/1.1/DTD/svg11.dtd">
<!-- Generated by graphviz version 2.38.0 (20140413.2041)
 -->
<!-- Title: src.harness.sas.SasImpl._GetDefaultSasSSLCertPath Pages: 1 -->
<svg width="500pt" height="88pt"
 viewBox="0.00 0.00 500.00 88.00" xmlns="http://www.w3.org/2000/svg" xmlns:xlink="http://www.w3.org/1999/xlink">
<g id="graph0" class="graph" transform="scale(1 1) rotate(0) translate(4 84)">
<title>src.harness.sas.SasImpl._GetDefaultSasSSLCertPath</title>
<polygon fill="white" stroke="none" points="-4,4 -4,-84 496,-84 496,4 -4,4"/>
<!-- Node1 -->
<g id="node1" class="node"><title>Node1</title>
<polygon fill="#bfbfbf" stroke="black" points="0,-24.5 0,-54.5 144,-54.5 144,-24.5 0,-24.5"/>
<text text-anchor="start" x="8" y="-42.5" font-family="Helvetica,sans-Serif" font-size="10.00">src.harness.sas.SasImpl.</text>
<text text-anchor="middle" x="72" y="-31.5" font-family="Helvetica,sans-Serif" font-size="10.00">_GetDefaultSasSSLCertPath</text>
</g>
<!-- Node2 -->
<g id="node2" class="node"><title>Node2</title>
<g id="a_node2"><a xlink:href="../../db/dbc/classsrc_1_1harness_1_1sas_1_1SasImpl.html#a1c38612363298068e5b0caf677dbcb8d" target="_top" xlink:title="src.harness.sas.SasImpl.\l_SasRequest">
<polygon fill="white" stroke="black" points="180,-24.5 180,-54.5 308,-54.5 308,-24.5 180,-24.5"/>
<text text-anchor="start" x="188" y="-42.5" font-family="Helvetica,sans-Serif" font-size="10.00">src.harness.sas.SasImpl.</text>
<text text-anchor="middle" x="244" y="-31.5" font-family="Helvetica,sans-Serif" font-size="10.00">_SasRequest</text>
</a>
</g>
</g>
<!-- Node1&#45;&gt;Node2 -->
<g id="edge1" class="edge"><title>Node1&#45;&gt;Node2</title>
<path fill="none" stroke="midnightblue" d="M154.157,-39.5C162.753,-39.5 171.402,-39.5 179.751,-39.5"/>
<polygon fill="midnightblue" stroke="midnightblue" points="154.11,-36.0001 144.11,-39.5 154.11,-43.0001 154.11,-36.0001"/>
</g>
<!-- Node3 -->
<g id="node3" class="node"><title>Node3</title>
<g id="a_node3"><a xlink:href="../../db/dbc/classsrc_1_1harness_1_1sas_1_1SasImpl.html#ab3fb32dfe360a9a72dab950c9b5912ea" target="_top" xlink:title="src.harness.sas.SasImpl.\lGetSasImplementationRecord">
<polygon fill="white" stroke="black" points="344,-49.5 344,-79.5 492,-79.5 492,-49.5 344,-49.5"/>
<text text-anchor="start" x="352" y="-67.5" font-family="Helvetica,sans-Serif" font-size="10.00">src.harness.sas.SasImpl.</text>
<text text-anchor="middle" x="418" y="-56.5" font-family="Helvetica,sans-Serif" font-size="10.00">GetSasImplementationRecord</text>
</a>
</g>
</g>
<!-- Node2&#45;&gt;Node3 -->
<g id="edge2" class="edge"><title>Node2&#45;&gt;Node3</title>
<path fill="none" stroke="midnightblue" d="M317.98,-50.1076C326.508,-51.3471 335.211,-52.6121 343.743,-53.8522"/>
<polygon fill="midnightblue" stroke="midnightblue" points="318.469,-46.642 308.07,-48.6671 317.462,-53.5692 318.469,-46.642"/>
</g>
<!-- Node4 -->
<g id="node4" class="node"><title>Node4</title>
<g id="a_node4"><a xlink:href="../../db/dbc/classsrc_1_1harness_1_1sas_1_1SasImpl.html#aef3a52027aee2c00bdf0214391111df9" target="_top" xlink:title="src.harness.sas.SasImpl.\lGetEscSensorRecord">
<polygon fill="white" stroke="black" points="354,-0.5 354,-30.5 482,-30.5 482,-0.5 354,-0.5"/>
<text text-anchor="start" x="362" y="-18.5" font-family="Helvetica,sans-Serif" font-size="10.00">src.harness.sas.SasImpl.</text>
<text text-anchor="middle" x="418" y="-7.5" font-family="Helvetica,sans-Serif" font-size="10.00">GetEscSensorRecord</text>
</a>
</g>
</g>
<!-- Node2&#45;&gt;Node4 -->
<g id="edge3" class="edge"><title>Node2&#45;&gt;Node4</title>
<path fill="none" stroke="midnightblue" d="M318.008,-29.3129C329.959,-27.6453 342.253,-25.9298 353.938,-24.2994"/>
<polygon fill="midnightblue" stroke="midnightblue" points="317.49,-25.8511 308.07,-30.6996 318.458,-32.7839 317.49,-25.8511"/>
</g>
</g>
</svg>
