<?xml version="1.0" encoding="UTF-8" standalone="no"?>
<!DOCTYPE svg PUBLIC "-//W3C//DTD SVG 1.1//EN"
 "http://www.w3.org/Graphics/SVG/1.1/DTD/svg11.dtd">
<!-- Generated by graphviz version 2.38.0 (20140413.2041)
 -->
<!-- Title: src.harness.sas.SasImpl._CbsdRequest Pages: 1 -->
<svg width="300pt" height="284pt"
 viewBox="0.00 0.00 300.00 284.00" xmlns="http://www.w3.org/2000/svg" xmlns:xlink="http://www.w3.org/1999/xlink">
<g id="graph0" class="graph" transform="scale(1 1) rotate(0) translate(4 280)">
<title>src.harness.sas.SasImpl._CbsdRequest</title>
<polygon fill="white" stroke="none" points="-4,4 -4,-280 296,-280 296,4 -4,4"/>
<!-- Node1 -->
<g id="node1" class="node"><title>Node1</title>
<polygon fill="#bfbfbf" stroke="black" points="0,-122.5 0,-152.5 128,-152.5 128,-122.5 0,-122.5"/>
<text text-anchor="start" x="8" y="-140.5" font-family="Helvetica,sans-Serif" font-size="10.00">src.harness.sas.SasImpl.</text>
<text text-anchor="middle" x="64" y="-129.5" font-family="Helvetica,sans-Serif" font-size="10.00">_CbsdRequest</text>
</g>
<!-- Node2 -->
<g id="node2" class="node"><title>Node2</title>
<g id="a_node2"><a xlink:href="../../db/dbc/classsrc_1_1harness_1_1sas_1_1SasImpl.html#ae7c23f8712102b374e9ad313202456d5" target="_top" xlink:title="src.harness.sas.SasImpl.\lRegistration">
<polygon fill="white" stroke="black" points="164,-245.5 164,-275.5 292,-275.5 292,-245.5 164,-245.5"/>
<text text-anchor="start" x="172" y="-263.5" font-family="Helvetica,sans-Serif" font-size="10.00">src.harness.sas.SasImpl.</text>
<text text-anchor="middle" x="228" y="-252.5" font-family="Helvetica,sans-Serif" font-size="10.00">Registration</text>
</a>
</g>
</g>
<!-- Node1&#45;&gt;Node2 -->
<g id="edge1" class="edge"><title>Node1&#45;&gt;Node2</title>
<path fill="none" stroke="midnightblue" d="M82.9932,-160.436C101.333,-182.505 131.617,-215.529 164,-236.5 169.109,-239.808 174.741,-242.763 180.474,-245.371"/>
<polygon fill="midnightblue" stroke="midnightblue" points="85.6031,-158.099 76.5697,-152.563 80.1791,-162.524 85.6031,-158.099"/>
</g>
<!-- Node3 -->
<g id="node3" class="node"><title>Node3</title>
<g id="a_node3"><a xlink:href="../../db/dbc/classsrc_1_1harness_1_1sas_1_1SasImpl.html#a21113e5ba5aa03d6b5e1167028fd5658" target="_top" xlink:title="src.harness.sas.SasImpl.\lSpectrumInquiry">
<polygon fill="white" stroke="black" points="164,-196.5 164,-226.5 292,-226.5 292,-196.5 164,-196.5"/>
<text text-anchor="start" x="172" y="-214.5" font-family="Helvetica,sans-Serif" font-size="10.00">src.harness.sas.SasImpl.</text>
<text text-anchor="middle" x="228" y="-203.5" font-family="Helvetica,sans-Serif" font-size="10.00">SpectrumInquiry</text>
</a>
</g>
</g>
<!-- Node1&#45;&gt;Node3 -->
<g id="edge2" class="edge"><title>Node1&#45;&gt;Node3</title>
<path fill="none" stroke="midnightblue" d="M101.745,-157.202C120.208,-166.807 143.055,-178.251 164,-187.5 170.959,-190.573 178.446,-193.633 185.744,-196.488"/>
<polygon fill="midnightblue" stroke="midnightblue" points="103.275,-154.052 92.7925,-152.51 100.025,-160.252 103.275,-154.052"/>
</g>
<!-- Node4 -->
<g id="node4" class="node"><title>Node4</title>
<g id="a_node4"><a xlink:href="../../db/dbc/classsrc_1_1harness_1_1sas_1_1SasImpl.html#abb86d5442fd13eaa7f8940d916d1414e" target="_top" xlink:title="src.harness.sas.SasImpl.\lGrant">
<polygon fill="white" stroke="black" points="164,-147.5 164,-177.5 292,-177.5 292,-147.5 164,-147.5"/>
<text text-anchor="start" x="172" y="-165.5" font-family="Helvetica,sans-Serif" font-size="10.00">src.harness.sas.SasImpl.</text>
<text text-anchor="middle" x="228" y="-154.5" font-family="Helvetica,sans-Serif" font-size="10.00">Grant</text>
</a>
</g>
</g>
<!-- Node1&#45;&gt;Node4 -->
<g id="edge3" class="edge"><title>Node1&#45;&gt;Node4</title>
<path fill="none" stroke="midnightblue" d="M138.094,-148.78C146.676,-150.104 155.378,-151.447 163.808,-152.748"/>
<polygon fill="midnightblue" stroke="midnightblue" points="138.514,-145.303 128.097,-147.237 137.446,-152.222 138.514,-145.303"/>
</g>
<!-- Node5 -->
<g id="node5" class="node"><title>Node5</title>
<g id="a_node5"><a xlink:href="../../db/dbc/classsrc_1_1harness_1_1sas_1_1SasImpl.html#a1b8ebaf683a96b8c56615dfd121cc48f" target="_top" xlink:title="src.harness.sas.SasImpl.\lHeartbeat">
<polygon fill="white" stroke="black" points="164,-98.5 164,-128.5 292,-128.5 292,-98.5 164,-98.5"/>
<text text-anchor="start" x="172" y="-116.5" font-family="Helvetica,sans-Serif" font-size="10.00">src.harness.sas.SasImpl.</text>
<text text-anchor="middle" x="228" y="-105.5" font-family="Helvetica,sans-Serif" font-size="10.00">Heartbeat</text>
</a>
</g>
</g>
<!-- Node1&#45;&gt;Node5 -->
<g id="edge4" class="edge"><title>Node1&#45;&gt;Node5</title>
<path fill="none" stroke="midnightblue" d="M138.094,-126.671C146.676,-125.4 155.378,-124.111 163.808,-122.862"/>
<polygon fill="midnightblue" stroke="midnightblue" points="137.476,-123.224 128.097,-128.152 138.502,-130.149 137.476,-123.224"/>
</g>
<!-- Node6 -->
<g id="node6" class="node"><title>Node6</title>
<g id="a_node6"><a xlink:href="../../db/dbc/classsrc_1_1harness_1_1sas_1_1SasImpl.html#a9878f3a79d5614f89c502996ff888ce9" target="_top" xlink:title="src.harness.sas.SasImpl.\lRelinquishment">
<polygon fill="white" stroke="black" points="164,-49.5 164,-79.5 292,-79.5 292,-49.5 164,-49.5"/>
<text text-anchor="start" x="172" y="-67.5" font-family="Helvetica,sans-Serif" font-size="10.00">src.harness.sas.SasImpl.</text>
<text text-anchor="middle" x="228" y="-56.5" font-family="Helvetica,sans-Serif" font-size="10.00">Relinquishment</text>
</a>
</g>
</g>
<!-- Node1&#45;&gt;Node6 -->
<g id="edge5" class="edge"><title>Node1&#45;&gt;Node6</title>
<path fill="none" stroke="midnightblue" d="M103.736,-117.9C121.89,-108.927 143.902,-98.3458 164,-89.5 171.647,-86.1344 179.898,-82.7127 187.83,-79.5249"/>
<polygon fill="midnightblue" stroke="midnightblue" points="102.022,-114.844 94.6253,-122.429 105.138,-121.112 102.022,-114.844"/>
</g>
<!-- Node7 -->
<g id="node7" class="node"><title>Node7</title>
<g id="a_node7"><a xlink:href="../../db/dbc/classsrc_1_1harness_1_1sas_1_1SasImpl.html#ae87a8b22797c3136301c1d825881d80f" target="_top" xlink:title="src.harness.sas.SasImpl.\lDeregistration">
<polygon fill="white" stroke="black" points="164,-0.5 164,-30.5 292,-30.5 292,-0.5 164,-0.5"/>
<text text-anchor="start" x="172" y="-18.5" font-family="Helvetica,sans-Serif" font-size="10.00">src.harness.sas.SasImpl.</text>
<text text-anchor="middle" x="228" y="-7.5" font-family="Helvetica,sans-Serif" font-size="10.00">Deregistration</text>
</a>
</g>
</g>
<!-- Node1&#45;&gt;Node7 -->
<g id="edge6" class="edge"><title>Node1&#45;&gt;Node7</title>
<path fill="none" stroke="midnightblue" d="M83.4608,-114.782C101.948,-93.2488 132.159,-61.2016 164,-40.5 169.722,-36.7799 176.085,-33.4622 182.505,-30.5555"/>
<polygon fill="midnightblue" stroke="midnightblue" points="80.744,-112.575 76.9705,-122.475 86.0942,-117.089 80.744,-112.575"/>
</g>
</g>
</svg>
