<?xml version="1.0" encoding="UTF-8" standalone="no"?>
<!DOCTYPE svg PUBLIC "-//W3C//DTD SVG 1.1//EN"
 "http://www.w3.org/Graphics/SVG/1.1/DTD/svg11.dtd">
<!-- Generated by graphviz version 2.38.0 (20140413.2041)
 -->
<!-- Title: src.harness.sas.SasImpl._SasRequest Pages: 1 -->
<svg width="319pt" height="127pt"
 viewBox="0.00 0.00 319.00 126.50" xmlns="http://www.w3.org/2000/svg" xmlns:xlink="http://www.w3.org/1999/xlink">
<g id="graph0" class="graph" transform="scale(1 1) rotate(0) translate(4 122.5)">
<title>src.harness.sas.SasImpl._SasRequest</title>
<polygon fill="white" stroke="none" points="-4,4 -4,-122.5 315,-122.5 315,4 -4,4"/>
<!-- Node1 -->
<g id="node1" class="node"><title>Node1</title>
<polygon fill="#bfbfbf" stroke="black" points="0,-49.5 0,-79.5 128,-79.5 128,-49.5 0,-49.5"/>
<text text-anchor="start" x="8" y="-67.5" font-family="Helvetica,sans-Serif" font-size="10.00">src.harness.sas.SasImpl.</text>
<text text-anchor="middle" x="64" y="-56.5" font-family="Helvetica,sans-Serif" font-size="10.00">_SasRequest</text>
</g>
<!-- Node2 -->
<g id="node2" class="node"><title>Node2</title>
<g id="a_node2"><a xlink:href="../../d4/d97/namespacesrc_1_1harness_1_1sas.html#a1e797e620e2d634cd06583ab3eb1ae60" target="_top" xlink:title="src.harness.sas._RequestGet">
<polygon fill="white" stroke="black" points="164,-99 164,-118 311,-118 311,-99 164,-99"/>
<text text-anchor="middle" x="237.5" y="-106" font-family="Helvetica,sans-Serif" font-size="10.00">src.harness.sas._RequestGet</text>
</a>
</g>
</g>
<!-- Node1&#45;&gt;Node2 -->
<g id="edge1" class="edge"><title>Node1&#45;&gt;Node2</title>
<path fill="none" stroke="midnightblue" d="M123.541,-79.5192C145.139,-85.0604 169.306,-91.2607 189.727,-96.4999"/>
<polygon fill="midnightblue" stroke="midnightblue" points="188.867,-99.8926 199.423,-98.9876 190.607,-93.1122 188.867,-99.8926"/>
</g>
<!-- Node3 -->
<g id="node3" class="node"><title>Node3</title>
<g id="a_node3"><a xlink:href="../../db/dbc/classsrc_1_1harness_1_1sas_1_1SasImpl.html#acdf9704300a0a20c81c439d6fed7375b" target="_top" xlink:title="src.harness.sas.SasImpl.\l_GetDefaultSasSSLCertPath">
<polygon fill="white" stroke="black" points="165.5,-49.5 165.5,-79.5 309.5,-79.5 309.5,-49.5 165.5,-49.5"/>
<text text-anchor="start" x="173.5" y="-67.5" font-family="Helvetica,sans-Serif" font-size="10.00">src.harness.sas.SasImpl.</text>
<text text-anchor="middle" x="237.5" y="-56.5" font-family="Helvetica,sans-Serif" font-size="10.00">_GetDefaultSasSSLCertPath</text>
</a>
</g>
</g>
<!-- Node1&#45;&gt;Node3 -->
<g id="edge2" class="edge"><title>Node1&#45;&gt;Node3</title>
<path fill="none" stroke="midnightblue" d="M128.373,-64.5C137.108,-64.5 146.177,-64.5 155.18,-64.5"/>
<polygon fill="midnightblue" stroke="midnightblue" points="155.295,-68.0001 165.295,-64.5 155.295,-61.0001 155.295,-68.0001"/>
</g>
<!-- Node4 -->
<g id="node4" class="node"><title>Node4</title>
<g id="a_node4"><a xlink:href="../../db/dbc/classsrc_1_1harness_1_1sas_1_1SasImpl.html#a1ba7f3ce68f54b195e4ebfa523c9230e" target="_top" xlink:title="src.harness.sas.SasImpl.\l_GetDefaultSasSSLKeyPath">
<polygon fill="white" stroke="black" points="166,-0.5 166,-30.5 309,-30.5 309,-0.5 166,-0.5"/>
<text text-anchor="start" x="174" y="-18.5" font-family="Helvetica,sans-Serif" font-size="10.00">src.harness.sas.SasImpl.</text>
<text text-anchor="middle" x="237.5" y="-7.5" font-family="Helvetica,sans-Serif" font-size="10.00">_GetDefaultSasSSLKeyPath</text>
</a>
</g>
</g>
<!-- Node1&#45;&gt;Node4 -->
<g id="edge3" class="edge"><title>Node1&#45;&gt;Node4</title>
<path fill="none" stroke="midnightblue" d="M117.855,-49.3986C135.625,-44.3215 155.616,-38.6098 174.052,-33.3423"/>
<polygon fill="midnightblue" stroke="midnightblue" points="175.166,-36.6642 183.819,-30.5516 173.243,-29.9335 175.166,-36.6642"/>
</g>
</g>
</svg>
