<?xml version="1.0" encoding="UTF-8" standalone="no"?>
<!DOCTYPE svg PUBLIC "-//W3C//DTD SVG 1.1//EN"
 "http://www.w3.org/Graphics/SVG/1.1/DTD/svg11.dtd">
<!-- Generated by graphviz version 2.38.0 (20140413.2041)
 -->
<!-- Title: src.harness.reference_models.geo.tropoclim.ClimateIndexer.__init__ Pages: 1 -->
<svg width="370pt" height="110pt"
 viewBox="0.00 0.00 370.00 110.00" xmlns="http://www.w3.org/2000/svg" xmlns:xlink="http://www.w3.org/1999/xlink">
<g id="graph0" class="graph" transform="scale(1 1) rotate(0) translate(4 106)">
<title>src.harness.reference_models.geo.tropoclim.ClimateIndexer.__init__</title>
<polygon fill="white" stroke="none" points="-4,4 -4,-106 366,-106 366,4 -4,4"/>
<!-- Node1 -->
<g id="node1" class="node"><title>Node1</title>
<polygon fill="#bfbfbf" stroke="black" points="0,-30.5 0,-71.5 152,-71.5 152,-30.5 0,-30.5"/>
<text text-anchor="start" x="8" y="-59.5" font-family="Helvetica,sans-Serif" font-size="10.00">src.harness.reference</text>
<text text-anchor="start" x="8" y="-48.5" font-family="Helvetica,sans-Serif" font-size="10.00">_models.geo.tropoclim.Climate</text>
<text text-anchor="middle" x="76" y="-37.5" font-family="Helvetica,sans-Serif" font-size="10.00">Indexer.__init__</text>
</g>
<!-- Node2 -->
<g id="node2" class="node"><title>Node2</title>
<g id="a_node2"><a xlink:href="../../d9/dea/classsrc_1_1harness_1_1reference__models_1_1geo_1_1refractivity_1_1RefractivityIndexer.html#a048d06b164f3730ce3c400d11eb56854" target="_top" xlink:title="src.harness.reference\l_models.geo.refractivity.Refractivity\lIndexer.ConfigureDataFile">
<polygon fill="white" stroke="black" points="188,-60.5 188,-101.5 362,-101.5 362,-60.5 188,-60.5"/>
<text text-anchor="start" x="196" y="-89.5" font-family="Helvetica,sans-Serif" font-size="10.00">src.harness.reference</text>
<text text-anchor="start" x="196" y="-78.5" font-family="Helvetica,sans-Serif" font-size="10.00">_models.geo.refractivity.Refractivity</text>
<text text-anchor="middle" x="275" y="-67.5" font-family="Helvetica,sans-Serif" font-size="10.00">Indexer.ConfigureDataFile</text>
</a>
</g>
</g>
<!-- Node1&#45;&gt;Node2 -->
<g id="edge1" class="edge"><title>Node1&#45;&gt;Node2</title>
<path fill="none" stroke="midnightblue" d="M152.039,-62.4273C160.48,-63.7127 169.164,-65.0352 177.825,-66.354"/>
<polygon fill="midnightblue" stroke="midnightblue" points="177.552,-69.8527 187.965,-67.8982 178.606,-62.9325 177.552,-69.8527"/>
</g>
<!-- Node3 -->
<g id="node3" class="node"><title>Node3</title>
<g id="a_node3"><a xlink:href="../../d8/d86/classsrc_1_1harness_1_1reference__models_1_1geo_1_1tropoclim_1_1ClimateIndexer.html#a871db25f4e809ea6fc9dd34c6f174342" target="_top" xlink:title="src.harness.reference\l_models.geo.tropoclim.Climate\lIndexer.ConfigureDataFile">
<polygon fill="white" stroke="black" points="199,-0.5 199,-41.5 351,-41.5 351,-0.5 199,-0.5"/>
<text text-anchor="start" x="207" y="-29.5" font-family="Helvetica,sans-Serif" font-size="10.00">src.harness.reference</text>
<text text-anchor="start" x="207" y="-18.5" font-family="Helvetica,sans-Serif" font-size="10.00">_models.geo.tropoclim.Climate</text>
<text text-anchor="middle" x="275" y="-7.5" font-family="Helvetica,sans-Serif" font-size="10.00">Indexer.ConfigureDataFile</text>
</a>
</g>
</g>
<!-- Node1&#45;&gt;Node3 -->
<g id="edge2" class="edge"><title>Node1&#45;&gt;Node3</title>
<path fill="none" stroke="midnightblue" d="M152.039,-39.5727C164.017,-37.7487 176.486,-35.8498 188.681,-33.9927"/>
<polygon fill="midnightblue" stroke="midnightblue" points="189.484,-37.4109 198.843,-32.4452 188.43,-30.4907 189.484,-37.4109"/>
</g>
</g>
</svg>
