<?xml version="1.0" encoding="UTF-8" standalone="no"?>
<!DOCTYPE svg PUBLIC "-//W3C//DTD SVG 1.1//EN"
 "http://www.w3.org/Graphics/SVG/1.1/DTD/svg11.dtd">
<!-- Generated by graphviz version 2.38.0 (20140413.2041)
 -->
<!-- Title: ascat Pages: 1 -->
<svg width="174pt" height="180pt"
 viewBox="0.00 0.00 174.00 180.00" xmlns="http://www.w3.org/2000/svg" xmlns:xlink="http://www.w3.org/1999/xlink">
<g id="graph0" class="graph" transform="scale(1 1) rotate(0) translate(4 176)">
<title>ascat</title>
<polygon fill="white" stroke="none" points="-4,4 -4,-176 170,-176 170,4 -4,4"/>
<!-- Node1 -->
<g id="node1" class="node"><title>Node1</title>
<polygon fill="#bfbfbf" stroke="black" points="0,-76.5 0,-95.5 41,-95.5 41,-76.5 0,-76.5"/>
<text text-anchor="middle" x="20.5" y="-83.5" font-family="Helvetica,sans-Serif" font-size="10.00">ascat</text>
</g>
<!-- Node2 -->
<g id="node2" class="node"><title>Node2</title>
<g id="a_node2"><a xlink:href="../../d3/dd0/ITMDLL_8cpp.html#aef74668a97df8c1c4614043e233d38fe" target="_top" xlink:title="mymax">
<polygon fill="white" stroke="black" points="97,-152.5 97,-171.5 146,-171.5 146,-152.5 97,-152.5"/>
<text text-anchor="middle" x="121.5" y="-159.5" font-family="Helvetica,sans-Serif" font-size="10.00">mymax</text>
</a>
</g>
</g>
<!-- Node1&#45;&gt;Node2 -->
<g id="edge1" class="edge"><title>Node1&#45;&gt;Node2</title>
<path fill="none" stroke="midnightblue" d="M28.8519,-95.5892C38.6995,-107.907 57.2367,-129.326 77,-143 80.2614,-145.257 83.8339,-147.336 87.4853,-149.226"/>
<polygon fill="midnightblue" stroke="midnightblue" points="86.0544,-152.421 96.5917,-153.523 89.0418,-146.09 86.0544,-152.421"/>
</g>
<!-- Node3 -->
<g id="node3" class="node"><title>Node3</title>
<g id="a_node3"><a xlink:href="../../d3/dd0/ITMDLL_8cpp.html#ae383616ab74473e2622ac352721e342f" target="_top" xlink:title="mymin">
<polygon fill="white" stroke="black" points="98.5,-114.5 98.5,-133.5 144.5,-133.5 144.5,-114.5 98.5,-114.5"/>
<text text-anchor="middle" x="121.5" y="-121.5" font-family="Helvetica,sans-Serif" font-size="10.00">mymin</text>
</a>
</g>
</g>
<!-- Node1&#45;&gt;Node3 -->
<g id="edge2" class="edge"><title>Node1&#45;&gt;Node3</title>
<path fill="none" stroke="midnightblue" d="M41.0592,-93.5076C54.6856,-98.7379 73.1606,-105.829 88.8649,-111.857"/>
<polygon fill="midnightblue" stroke="midnightblue" points="87.6268,-115.131 98.2169,-115.447 90.1353,-108.596 87.6268,-115.131"/>
</g>
<!-- Node4 -->
<g id="node4" class="node"><title>Node4</title>
<g id="a_node4"><a xlink:href="../../d3/dd0/ITMDLL_8cpp.html#a8e415ee823bbb4b0da13d5f81f042d7f" target="_top" xlink:title="h0f">
<polygon fill="white" stroke="black" points="106.5,-76.5 106.5,-95.5 136.5,-95.5 136.5,-76.5 106.5,-76.5"/>
<text text-anchor="middle" x="121.5" y="-83.5" font-family="Helvetica,sans-Serif" font-size="10.00">h0f</text>
</a>
</g>
</g>
<!-- Node1&#45;&gt;Node4 -->
<g id="edge3" class="edge"><title>Node1&#45;&gt;Node4</title>
<path fill="none" stroke="midnightblue" d="M41.0592,-86C56.8683,-86 79.2038,-86 96.1671,-86"/>
<polygon fill="midnightblue" stroke="midnightblue" points="96.416,-89.5001 106.416,-86 96.4159,-82.5001 96.416,-89.5001"/>
</g>
<!-- Node5 -->
<g id="node5" class="node"><title>Node5</title>
<g id="a_node5"><a xlink:href="../../d3/dd0/ITMDLL_8cpp.html#ae61eab5929102f86b606d9007f0cc139" target="_top" xlink:title="FORTRAN_DIM">
<polygon fill="white" stroke="black" points="77,-38.5 77,-57.5 166,-57.5 166,-38.5 77,-38.5"/>
<text text-anchor="middle" x="121.5" y="-45.5" font-family="Helvetica,sans-Serif" font-size="10.00">FORTRAN_DIM</text>
</a>
</g>
</g>
<!-- Node1&#45;&gt;Node5 -->
<g id="edge4" class="edge"><title>Node1&#45;&gt;Node5</title>
<path fill="none" stroke="midnightblue" d="M41.0592,-78.4924C53.9098,-73.5599 71.0729,-66.972 86.1574,-61.182"/>
<polygon fill="midnightblue" stroke="midnightblue" points="87.6221,-64.3689 95.7037,-57.5178 85.1136,-57.8337 87.6221,-64.3689"/>
</g>
<!-- Node6 -->
<g id="node6" class="node"><title>Node6</title>
<g id="a_node6"><a xlink:href="../../d3/dd0/ITMDLL_8cpp.html#a5cd3659f451452a38a465a50992b9e7c" target="_top" xlink:title="ahd">
<polygon fill="white" stroke="black" points="105.5,-0.5 105.5,-19.5 137.5,-19.5 137.5,-0.5 105.5,-0.5"/>
<text text-anchor="middle" x="121.5" y="-7.5" font-family="Helvetica,sans-Serif" font-size="10.00">ahd</text>
</a>
</g>
</g>
<!-- Node1&#45;&gt;Node6 -->
<g id="edge5" class="edge"><title>Node1&#45;&gt;Node6</title>
<path fill="none" stroke="midnightblue" d="M28.8519,-76.4108C38.6995,-64.0926 57.2367,-42.6742 77,-29 82.6927,-25.0612 89.333,-21.6616 95.6862,-18.8714"/>
<polygon fill="midnightblue" stroke="midnightblue" points="97.2993,-21.9944 105.256,-14.9985 94.6732,-15.5057 97.2993,-21.9944"/>
</g>
</g>
</svg>
