<?xml version="1.0" encoding="UTF-8" standalone="no"?>
<!DOCTYPE svg PUBLIC "-//W3C//DTD SVG 1.1//EN"
 "http://www.w3.org/Graphics/SVG/1.1/DTD/svg11.dtd">
<!-- Generated by graphviz version 2.38.0 (20140413.2041)
 -->
<!-- Title: d1thx Pages: 1 -->
<svg width="260pt" height="104pt"
 viewBox="0.00 0.00 260.00 104.00" xmlns="http://www.w3.org/2000/svg" xmlns:xlink="http://www.w3.org/1999/xlink">
<g id="graph0" class="graph" transform="scale(1 1) rotate(0) translate(4 100)">
<title>d1thx</title>
<polygon fill="white" stroke="none" points="-4,4 -4,-100 256,-100 256,4 -4,4"/>
<!-- Node1 -->
<g id="node1" class="node"><title>Node1</title>
<polygon fill="#bfbfbf" stroke="black" points="0,-38.5 0,-57.5 41,-57.5 41,-38.5 0,-38.5"/>
<text text-anchor="middle" x="20.5" y="-45.5" font-family="Helvetica,sans-Serif" font-size="10.00">d1thx</text>
</g>
<!-- Node2 -->
<g id="node2" class="node"><title>Node2</title>
<g id="a_node2"><a xlink:href="../../d3/dd0/ITMDLL_8cpp.html#a152ccc6442f590f588a376c23453eb59" target="_top" xlink:title="qlrpfl">
<polygon fill="white" stroke="black" points="77,-38.5 77,-57.5 115,-57.5 115,-38.5 77,-38.5"/>
<text text-anchor="middle" x="96" y="-45.5" font-family="Helvetica,sans-Serif" font-size="10.00">qlrpfl</text>
</a>
</g>
</g>
<!-- Node1&#45;&gt;Node2 -->
<g id="edge1" class="edge"><title>Node1&#45;&gt;Node2</title>
<path fill="none" stroke="midnightblue" d="M51.3136,-48C59.9322,-48 69.0788,-48 76.7636,-48"/>
<polygon fill="midnightblue" stroke="midnightblue" points="51.1967,-44.5001 41.1967,-48 51.1966,-51.5001 51.1967,-44.5001"/>
</g>
<!-- Node3 -->
<g id="node3" class="node"><title>Node3</title>
<g id="a_node3"><a xlink:href="../../d3/dd0/ITMDLL_8cpp.html#ac26ba1067f85b552c9fb7e26374f6ed5" target="_top" xlink:title="point_to_point">
<polygon fill="white" stroke="black" points="163,-76.5 163,-95.5 240,-95.5 240,-76.5 163,-76.5"/>
<text text-anchor="middle" x="201.5" y="-83.5" font-family="Helvetica,sans-Serif" font-size="10.00">point_to_point</text>
</a>
</g>
</g>
<!-- Node2&#45;&gt;Node3 -->
<g id="edge2" class="edge"><title>Node2&#45;&gt;Node3</title>
<path fill="none" stroke="midnightblue" d="M124.594,-58.131C140.089,-63.8202 159.31,-70.8771 174.533,-76.4662"/>
<polygon fill="midnightblue" stroke="midnightblue" points="125.622,-54.7801 115.028,-54.6191 123.209,-61.3513 125.622,-54.7801"/>
</g>
<!-- Node4 -->
<g id="node4" class="node"><title>Node4</title>
<g id="a_node4"><a xlink:href="../../d3/dd0/ITMDLL_8cpp.html#acbf64839f123247b9858d3c961d34558" target="_top" xlink:title="point_to_pointMDH">
<polygon fill="white" stroke="black" points="151,-38.5 151,-57.5 252,-57.5 252,-38.5 151,-38.5"/>
<text text-anchor="middle" x="201.5" y="-45.5" font-family="Helvetica,sans-Serif" font-size="10.00">point_to_pointMDH</text>
</a>
</g>
</g>
<!-- Node2&#45;&gt;Node4 -->
<g id="edge3" class="edge"><title>Node2&#45;&gt;Node4</title>
<path fill="none" stroke="midnightblue" d="M125.138,-48C133.046,-48 141.892,-48 150.664,-48"/>
<polygon fill="midnightblue" stroke="midnightblue" points="125.028,-44.5001 115.028,-48 125.028,-51.5001 125.028,-44.5001"/>
</g>
<!-- Node5 -->
<g id="node5" class="node"><title>Node5</title>
<g id="a_node5"><a xlink:href="../../d3/dd0/ITMDLL_8cpp.html#a15b1b23c9cf6076e277df8f9b1b4572d" target="_top" xlink:title="point_to_pointDH">
<polygon fill="white" stroke="black" points="155.5,-0.5 155.5,-19.5 247.5,-19.5 247.5,-0.5 155.5,-0.5"/>
<text text-anchor="middle" x="201.5" y="-7.5" font-family="Helvetica,sans-Serif" font-size="10.00">point_to_pointDH</text>
</a>
</g>
</g>
<!-- Node2&#45;&gt;Node5 -->
<g id="edge4" class="edge"><title>Node2&#45;&gt;Node5</title>
<path fill="none" stroke="midnightblue" d="M124.594,-37.869C140.089,-32.1798 159.31,-25.1229 174.533,-19.5338"/>
<polygon fill="midnightblue" stroke="midnightblue" points="123.209,-34.6487 115.028,-41.3809 125.622,-41.2199 123.209,-34.6487"/>
</g>
</g>
</svg>
