<?xml version="1.0" encoding="UTF-8" standalone="no"?>
<!DOCTYPE svg PUBLIC "-//W3C//DTD SVG 1.1//EN"
 "http://www.w3.org/Graphics/SVG/1.1/DTD/svg11.dtd">
<!-- Generated by graphviz version 2.38.0 (20140413.2041)
 -->
<!-- Title: fht Pages: 1 -->
<svg width="396pt" height="142pt"
 viewBox="0.00 0.00 396.00 142.00" xmlns="http://www.w3.org/2000/svg" xmlns:xlink="http://www.w3.org/1999/xlink">
<g id="graph0" class="graph" transform="scale(1 1) rotate(0) translate(4 138)">
<title>fht</title>
<polygon fill="white" stroke="none" points="-4,4 -4,-138 392,-138 392,4 -4,4"/>
<!-- Node1 -->
<g id="node1" class="node"><title>Node1</title>
<polygon fill="#bfbfbf" stroke="black" points="0,-42.5 0,-61.5 29,-61.5 29,-42.5 0,-42.5"/>
<text text-anchor="middle" x="14.5" y="-49.5" font-family="Helvetica,sans-Serif" font-size="10.00">fht</text>
</g>
<!-- Node2 -->
<g id="node2" class="node"><title>Node2</title>
<g id="a_node2"><a xlink:href="../../d3/dd0/ITMDLL_8cpp.html#a61774c377cce1be80117b174ac61eef2" target="_top" xlink:title="adiff">
<polygon fill="white" stroke="black" points="65,-42.5 65,-61.5 100,-61.5 100,-42.5 65,-42.5"/>
<text text-anchor="middle" x="82.5" y="-49.5" font-family="Helvetica,sans-Serif" font-size="10.00">adiff</text>
</a>
</g>
</g>
<!-- Node1&#45;&gt;Node2 -->
<g id="edge1" class="edge"><title>Node1&#45;&gt;Node2</title>
<path fill="none" stroke="midnightblue" d="M39.4386,-52C47.7616,-52 56.9182,-52 64.5569,-52"/>
<polygon fill="midnightblue" stroke="midnightblue" points="39.1753,-48.5001 29.1752,-52 39.1752,-55.5001 39.1753,-48.5001"/>
</g>
<!-- Node3 -->
<g id="node3" class="node"><title>Node3</title>
<g id="a_node3"><a xlink:href="../../d3/dd0/ITMDLL_8cpp.html#a2fed233a4588a559e7ff32f9e23f709b" target="_top" xlink:title="lrprop">
<polygon fill="white" stroke="black" points="136,-42.5 136,-61.5 177,-61.5 177,-42.5 136,-42.5"/>
<text text-anchor="middle" x="156.5" y="-49.5" font-family="Helvetica,sans-Serif" font-size="10.00">lrprop</text>
</a>
</g>
</g>
<!-- Node2&#45;&gt;Node3 -->
<g id="edge2" class="edge"><title>Node2&#45;&gt;Node3</title>
<path fill="none" stroke="midnightblue" d="M110.361,-52C118.808,-52 127.974,-52 135.826,-52"/>
<polygon fill="midnightblue" stroke="midnightblue" points="110.199,-48.5001 100.199,-52 110.199,-55.5001 110.199,-48.5001"/>
</g>
<!-- Node4 -->
<g id="node4" class="node"><title>Node4</title>
<g id="a_node4"><a xlink:href="../../d3/dd0/ITMDLL_8cpp.html#a152ccc6442f590f588a376c23453eb59" target="_top" xlink:title="qlrpfl">
<polygon fill="white" stroke="black" points="213,-66.5 213,-85.5 251,-85.5 251,-66.5 213,-66.5"/>
<text text-anchor="middle" x="232" y="-73.5" font-family="Helvetica,sans-Serif" font-size="10.00">qlrpfl</text>
</a>
</g>
</g>
<!-- Node3&#45;&gt;Node4 -->
<g id="edge3" class="edge"><title>Node3&#45;&gt;Node4</title>
<path fill="none" stroke="midnightblue" d="M186.746,-61.5498C195.529,-64.4178 204.91,-67.4808 212.764,-70.0453"/>
<polygon fill="midnightblue" stroke="midnightblue" points="187.789,-58.2085 177.197,-58.4316 185.616,-64.8628 187.789,-58.2085"/>
</g>
<!-- Node8 -->
<g id="node8" class="node"><title>Node8</title>
<g id="a_node8"><a xlink:href="../../d3/dd0/ITMDLL_8cpp.html#ae3537f4e89c5341305b58cf0bdde5a96" target="_top" xlink:title="area">
<polygon fill="white" stroke="black" points="214.5,-19.5 214.5,-38.5 249.5,-38.5 249.5,-19.5 214.5,-19.5"/>
<text text-anchor="middle" x="232" y="-26.5" font-family="Helvetica,sans-Serif" font-size="10.00">area</text>
</a>
</g>
</g>
<!-- Node3&#45;&gt;Node8 -->
<g id="edge7" class="edge"><title>Node3&#45;&gt;Node8</title>
<path fill="none" stroke="midnightblue" d="M186.908,-42.7976C196.203,-39.889 206.151,-36.7759 214.241,-34.2442"/>
<polygon fill="midnightblue" stroke="midnightblue" points="185.695,-39.5096 177.197,-45.8364 187.786,-46.1902 185.695,-39.5096"/>
</g>
<!-- Node5 -->
<g id="node5" class="node"><title>Node5</title>
<g id="a_node5"><a xlink:href="../../d3/dd0/ITMDLL_8cpp.html#ac26ba1067f85b552c9fb7e26374f6ed5" target="_top" xlink:title="point_to_point">
<polygon fill="white" stroke="black" points="299,-114.5 299,-133.5 376,-133.5 376,-114.5 299,-114.5"/>
<text text-anchor="middle" x="337.5" y="-121.5" font-family="Helvetica,sans-Serif" font-size="10.00">point_to_point</text>
</a>
</g>
</g>
<!-- Node4&#45;&gt;Node5 -->
<g id="edge4" class="edge"><title>Node4&#45;&gt;Node5</title>
<path fill="none" stroke="midnightblue" d="M258.774,-90.6978C267.604,-95.5019 277.622,-100.703 287,-105 294.28,-108.336 302.329,-111.599 309.784,-114.453"/>
<polygon fill="midnightblue" stroke="midnightblue" points="260.191,-87.4816 249.747,-85.702 256.802,-93.6064 260.191,-87.4816"/>
</g>
<!-- Node6 -->
<g id="node6" class="node"><title>Node6</title>
<g id="a_node6"><a xlink:href="../../d3/dd0/ITMDLL_8cpp.html#acbf64839f123247b9858d3c961d34558" target="_top" xlink:title="point_to_pointMDH">
<polygon fill="white" stroke="black" points="287,-76.5 287,-95.5 388,-95.5 388,-76.5 287,-76.5"/>
<text text-anchor="middle" x="337.5" y="-83.5" font-family="Helvetica,sans-Serif" font-size="10.00">point_to_pointMDH</text>
</a>
</g>
</g>
<!-- Node4&#45;&gt;Node6 -->
<g id="edge5" class="edge"><title>Node4&#45;&gt;Node6</title>
<path fill="none" stroke="midnightblue" d="M261.138,-78.7186C269.046,-79.4827 277.892,-80.3374 286.664,-81.1849"/>
<polygon fill="midnightblue" stroke="midnightblue" points="261.319,-75.2199 251.028,-77.7419 260.645,-82.1874 261.319,-75.2199"/>
</g>
<!-- Node7 -->
<g id="node7" class="node"><title>Node7</title>
<g id="a_node7"><a xlink:href="../../d3/dd0/ITMDLL_8cpp.html#a15b1b23c9cf6076e277df8f9b1b4572d" target="_top" xlink:title="point_to_pointDH">
<polygon fill="white" stroke="black" points="291.5,-38.5 291.5,-57.5 383.5,-57.5 383.5,-38.5 291.5,-38.5"/>
<text text-anchor="middle" x="337.5" y="-45.5" font-family="Helvetica,sans-Serif" font-size="10.00">point_to_pointDH</text>
</a>
</g>
</g>
<!-- Node4&#45;&gt;Node7 -->
<g id="edge6" class="edge"><title>Node4&#45;&gt;Node7</title>
<path fill="none" stroke="midnightblue" d="M260.8,-68.4793C273.193,-65.1265 287.938,-61.1376 301.107,-57.5748"/>
<polygon fill="midnightblue" stroke="midnightblue" points="259.767,-65.1327 251.028,-71.1228 261.595,-71.8898 259.767,-65.1327"/>
</g>
<!-- Node9 -->
<g id="node9" class="node"><title>Node9</title>
<g id="a_node9"><a xlink:href="../../d3/dd0/ITMDLL_8cpp.html#a47c92c2180a3df868488953eee50b603" target="_top" xlink:title="ITMAreadBLoss">
<polygon fill="white" stroke="black" points="294,-0.5 294,-19.5 381,-19.5 381,-0.5 294,-0.5"/>
<text text-anchor="middle" x="337.5" y="-7.5" font-family="Helvetica,sans-Serif" font-size="10.00">ITMAreadBLoss</text>
</a>
</g>
</g>
<!-- Node8&#45;&gt;Node9 -->
<g id="edge8" class="edge"><title>Node8&#45;&gt;Node9</title>
<path fill="none" stroke="midnightblue" d="M259.656,-24.1066C269.984,-22.2106 282.072,-19.9917 293.562,-17.8823"/>
<polygon fill="midnightblue" stroke="midnightblue" points="258.833,-20.6992 249.629,-25.9473 260.097,-27.5841 258.833,-20.6992"/>
</g>
</g>
</svg>
