<?xml version="1.0" encoding="UTF-8" standalone="no"?>
<!DOCTYPE svg PUBLIC "-//W3C//DTD SVG 1.1//EN"
 "http://www.w3.org/Graphics/SVG/1.1/DTD/svg11.dtd">
<!-- Generated by graphviz version 2.38.0 (20140413.2041)
 -->
<!-- Title: area Pages: 1 -->
<svg width="322pt" height="408pt"
 viewBox="0.00 0.00 322.00 408.00" xmlns="http://www.w3.org/2000/svg" xmlns:xlink="http://www.w3.org/1999/xlink">
<g id="graph0" class="graph" transform="scale(1 1) rotate(0) translate(4 404)">
<title>area</title>
<polygon fill="white" stroke="none" points="-4,4 -4,-404 318,-404 318,4 -4,4"/>
<!-- Node1 -->
<g id="node1" class="node"><title>Node1</title>
<polygon fill="#bfbfbf" stroke="black" points="0,-76.5 0,-95.5 35,-95.5 35,-76.5 0,-76.5"/>
<text text-anchor="middle" x="17.5" y="-83.5" font-family="Helvetica,sans-Serif" font-size="10.00">area</text>
</g>
<!-- Node2 -->
<g id="node2" class="node"><title>Node2</title>
<g id="a_node2"><a xlink:href="../../d3/dd0/ITMDLL_8cpp.html#ab2d14bf2630b6c36a667b9b3d715cf50" target="_top" xlink:title="qerfi">
<polygon fill="white" stroke="black" points="74,-76.5 74,-95.5 109,-95.5 109,-76.5 74,-76.5"/>
<text text-anchor="middle" x="91.5" y="-83.5" font-family="Helvetica,sans-Serif" font-size="10.00">qerfi</text>
</a>
</g>
</g>
<!-- Node1&#45;&gt;Node2 -->
<g id="edge1" class="edge"><title>Node1&#45;&gt;Node2</title>
<path fill="none" stroke="midnightblue" d="M35.1992,-86C43.6504,-86 54.1164,-86 63.6619,-86"/>
<polygon fill="midnightblue" stroke="midnightblue" points="63.8914,-89.5001 73.8913,-86 63.8913,-82.5001 63.8914,-89.5001"/>
</g>
<!-- Node4 -->
<g id="node4" class="node"><title>Node4</title>
<g id="a_node4"><a xlink:href="../../d3/dd0/ITMDLL_8cpp.html#a54f6dd43958712aff52dbda2a9463831" target="_top" xlink:title="qlrps">
<polygon fill="white" stroke="black" points="72.5,-0.5 72.5,-19.5 110.5,-19.5 110.5,-0.5 72.5,-0.5"/>
<text text-anchor="middle" x="91.5" y="-7.5" font-family="Helvetica,sans-Serif" font-size="10.00">qlrps</text>
</a>
</g>
</g>
<!-- Node1&#45;&gt;Node4 -->
<g id="edge3" class="edge"><title>Node1&#45;&gt;Node4</title>
<path fill="none" stroke="midnightblue" d="M27.2604,-76.1691C37.5577,-64.6888 55.2438,-45.2051 71,-29 71.7579,-28.2206 72.5369,-27.4278 73.3273,-26.6304"/>
<polygon fill="midnightblue" stroke="midnightblue" points="75.8254,-29.0824 80.4775,-19.5635 70.9047,-24.1037 75.8254,-29.0824"/>
</g>
<!-- Node5 -->
<g id="node5" class="node"><title>Node5</title>
<g id="a_node5"><a xlink:href="../../d3/dd0/ITMDLL_8cpp.html#afe95983a6a83beb62119da30182468df" target="_top" xlink:title="qlra">
<polygon fill="white" stroke="black" points="152.5,-114.5 152.5,-133.5 184.5,-133.5 184.5,-114.5 152.5,-114.5"/>
<text text-anchor="middle" x="168.5" y="-121.5" font-family="Helvetica,sans-Serif" font-size="10.00">qlra</text>
</a>
</g>
</g>
<!-- Node1&#45;&gt;Node5 -->
<g id="edge4" class="edge"><title>Node1&#45;&gt;Node5</title>
<path fill="none" stroke="midnightblue" d="M35.3108,-92.8274C45.5096,-96.782 58.8582,-101.629 71,-105 94.8771,-111.629 122.695,-116.848 142.312,-120.126"/>
<polygon fill="midnightblue" stroke="midnightblue" points="141.858,-123.598 152.289,-121.743 142.978,-116.688 141.858,-123.598"/>
</g>
<!-- Node7 -->
<g id="node7" class="node"><title>Node7</title>
<g id="a_node7"><a xlink:href="../../d3/dd0/ITMDLL_8cpp.html#a2fed233a4588a559e7ff32f9e23f709b" target="_top" xlink:title="lrprop">
<polygon fill="white" stroke="black" points="71,-228.5 71,-247.5 112,-247.5 112,-228.5 71,-228.5"/>
<text text-anchor="middle" x="91.5" y="-235.5" font-family="Helvetica,sans-Serif" font-size="10.00">lrprop</text>
</a>
</g>
</g>
<!-- Node1&#45;&gt;Node7 -->
<g id="edge7" class="edge"><title>Node1&#45;&gt;Node7</title>
<path fill="none" stroke="midnightblue" d="M23.0039,-95.5083C34.6714,-120.14 66.0475,-186.378 81.5628,-219.132"/>
<polygon fill="midnightblue" stroke="midnightblue" points="78.5538,-220.956 85.9978,-228.495 84.8799,-217.96 78.5538,-220.956"/>
</g>
<!-- Node17 -->
<g id="node17" class="node"><title>Node17</title>
<g id="a_node17"><a xlink:href="../../d3/dd0/ITMDLL_8cpp.html#a2db0f324567337090f258050400f6878" target="_top" xlink:title="avar">
<polygon fill="white" stroke="black" points="74,-38.5 74,-57.5 109,-57.5 109,-38.5 74,-38.5"/>
<text text-anchor="middle" x="91.5" y="-45.5" font-family="Helvetica,sans-Serif" font-size="10.00">avar</text>
</a>
</g>
</g>
<!-- Node1&#45;&gt;Node17 -->
<g id="edge25" class="edge"><title>Node1&#45;&gt;Node17</title>
<path fill="none" stroke="midnightblue" d="M35.1992,-77.1865C44.0139,-72.5343 55.0205,-66.7253 64.8882,-61.5173"/>
<polygon fill="midnightblue" stroke="midnightblue" points="66.6812,-64.5287 73.8913,-56.7657 63.4138,-58.338 66.6812,-64.5287"/>
</g>
<!-- Node3 -->
<g id="node3" class="node"><title>Node3</title>
<g id="a_node3"><a xlink:href="../../d3/dd0/ITMDLL_8cpp.html#aef74668a97df8c1c4614043e233d38fe" target="_top" xlink:title="mymax">
<polygon fill="white" stroke="black" points="245,-114.5 245,-133.5 294,-133.5 294,-114.5 245,-114.5"/>
<text text-anchor="middle" x="269.5" y="-121.5" font-family="Helvetica,sans-Serif" font-size="10.00">mymax</text>
</a>
</g>
</g>
<!-- Node2&#45;&gt;Node3 -->
<g id="edge2" class="edge"><title>Node2&#45;&gt;Node3</title>
<path fill="none" stroke="midnightblue" d="M109.278,-89.0917C128.561,-92.6941 161.138,-98.9303 189,-105 204.174,-108.306 220.903,-112.257 235.085,-115.698"/>
<polygon fill="midnightblue" stroke="midnightblue" points="234.357,-119.124 244.902,-118.097 236.019,-112.324 234.357,-119.124"/>
</g>
<!-- Node5&#45;&gt;Node3 -->
<g id="edge6" class="edge"><title>Node5&#45;&gt;Node3</title>
<path fill="none" stroke="midnightblue" d="M184.536,-124C197.795,-124 217.604,-124 234.652,-124"/>
<polygon fill="midnightblue" stroke="midnightblue" points="234.826,-127.5 244.826,-124 234.826,-120.5 234.826,-127.5"/>
</g>
<!-- Node6 -->
<g id="node6" class="node"><title>Node6</title>
<g id="a_node6"><a xlink:href="../../d3/dd0/ITMDLL_8cpp.html#ae383616ab74473e2622ac352721e342f" target="_top" xlink:title="mymin">
<polygon fill="white" stroke="black" points="246.5,-190.5 246.5,-209.5 292.5,-209.5 292.5,-190.5 246.5,-190.5"/>
<text text-anchor="middle" x="269.5" y="-197.5" font-family="Helvetica,sans-Serif" font-size="10.00">mymin</text>
</a>
</g>
</g>
<!-- Node5&#45;&gt;Node6 -->
<g id="edge5" class="edge"><title>Node5&#45;&gt;Node6</title>
<path fill="none" stroke="midnightblue" d="M176.852,-133.589C186.7,-145.907 205.237,-167.326 225,-181 228.761,-183.602 232.936,-185.969 237.169,-188.081"/>
<polygon fill="midnightblue" stroke="midnightblue" points="235.837,-191.32 246.388,-192.287 238.743,-184.952 235.837,-191.32"/>
</g>
<!-- Node7&#45;&gt;Node3 -->
<g id="edge8" class="edge"><title>Node7&#45;&gt;Node3</title>
<path fill="none" stroke="midnightblue" d="M100.298,-228.128C110.336,-215.898 128.784,-194.969 148,-181 178.868,-158.56 190.393,-159.086 225,-143 228.678,-141.29 232.55,-139.536 236.405,-137.817"/>
<polygon fill="midnightblue" stroke="midnightblue" points="238.093,-140.897 245.833,-133.662 235.271,-134.492 238.093,-140.897"/>
</g>
<!-- Node7&#45;&gt;Node6 -->
<g id="edge17" class="edge"><title>Node7&#45;&gt;Node6</title>
<path fill="none" stroke="midnightblue" d="M112.139,-234.373C131.672,-230.709 162.473,-224.779 189,-219 204.62,-215.597 221.889,-211.51 236.329,-207.999"/>
<polygon fill="midnightblue" stroke="midnightblue" points="237.4,-211.341 246.28,-205.563 235.735,-204.541 237.4,-211.341"/>
</g>
<!-- Node8 -->
<g id="node8" class="node"><title>Node8</title>
<g id="a_node8"><a xlink:href="../../d3/dd0/ITMDLL_8cpp.html#a61774c377cce1be80117b174ac61eef2" target="_top" xlink:title="adiff">
<polygon fill="white" stroke="black" points="151,-342.5 151,-361.5 186,-361.5 186,-342.5 151,-342.5"/>
<text text-anchor="middle" x="168.5" y="-349.5" font-family="Helvetica,sans-Serif" font-size="10.00">adiff</text>
</a>
</g>
</g>
<!-- Node7&#45;&gt;Node8 -->
<g id="edge9" class="edge"><title>Node7&#45;&gt;Node8</title>
<path fill="none" stroke="midnightblue" d="M97.9381,-247.721C107.454,-264.514 128.019,-299.861 148,-328 149.523,-330.145 151.177,-332.348 152.857,-334.508"/>
<polygon fill="midnightblue" stroke="midnightblue" points="150.233,-336.83 159.236,-342.415 155.681,-332.435 150.233,-336.83"/>
</g>
<!-- Node11 -->
<g id="node11" class="node"><title>Node11</title>
<g id="a_node11"><a xlink:href="../../d3/dd0/ITMDLL_8cpp.html#a404799cf89ce54ce7b92e13ad355ad85" target="_top" xlink:title="alos">
<polygon fill="white" stroke="black" points="151,-190.5 151,-209.5 186,-209.5 186,-190.5 151,-190.5"/>
<text text-anchor="middle" x="168.5" y="-197.5" font-family="Helvetica,sans-Serif" font-size="10.00">alos</text>
</a>
</g>
</g>
<!-- Node7&#45;&gt;Node11 -->
<g id="edge13" class="edge"><title>Node7&#45;&gt;Node11</title>
<path fill="none" stroke="midnightblue" d="M111.426,-228.411C120.633,-223.746 131.84,-218.068 141.807,-213.018"/>
<polygon fill="midnightblue" stroke="midnightblue" points="143.54,-216.063 150.878,-208.422 140.376,-209.819 143.54,-216.063"/>
</g>
<!-- Node13 -->
<g id="node13" class="node"><title>Node13</title>
<g id="a_node13"><a xlink:href="../../d3/dd0/ITMDLL_8cpp.html#ae61eab5929102f86b606d9007f0cc139" target="_top" xlink:title="FORTRAN_DIM">
<polygon fill="white" stroke="black" points="225,-304.5 225,-323.5 314,-323.5 314,-304.5 225,-304.5"/>
<text text-anchor="middle" x="269.5" y="-311.5" font-family="Helvetica,sans-Serif" font-size="10.00">FORTRAN_DIM</text>
</a>
</g>
</g>
<!-- Node7&#45;&gt;Node13 -->
<g id="edge18" class="edge"><title>Node7&#45;&gt;Node13</title>
<path fill="none" stroke="midnightblue" d="M98.7362,-247.503C107.863,-260.557 126.165,-283.7 148,-295 168.378,-305.546 193.09,-310.569 214.818,-312.854"/>
<polygon fill="midnightblue" stroke="midnightblue" points="214.618,-316.35 224.887,-313.745 215.235,-309.377 214.618,-316.35"/>
</g>
<!-- Node14 -->
<g id="node14" class="node"><title>Node14</title>
<g id="a_node14"><a xlink:href="../../d3/dd0/ITMDLL_8cpp.html#a74cbbcd996594f97dd6088dbbaff27c7" target="_top" xlink:title="ascat">
<polygon fill="white" stroke="black" points="148,-266.5 148,-285.5 189,-285.5 189,-266.5 148,-266.5"/>
<text text-anchor="middle" x="168.5" y="-273.5" font-family="Helvetica,sans-Serif" font-size="10.00">ascat</text>
</a>
</g>
</g>
<!-- Node7&#45;&gt;Node14 -->
<g id="edge19" class="edge"><title>Node7&#45;&gt;Node14</title>
<path fill="none" stroke="midnightblue" d="M111.426,-247.589C119.953,-251.909 130.194,-257.098 139.578,-261.853"/>
<polygon fill="midnightblue" stroke="midnightblue" points="138.078,-265.016 148.58,-266.414 141.242,-258.772 138.078,-265.016"/>
</g>
<!-- Node8&#45;&gt;Node6 -->
<g id="edge10" class="edge"><title>Node8&#45;&gt;Node6</title>
<path fill="none" stroke="midnightblue" d="M173.031,-342.402C183.742,-313.46 215.701,-228.454 225,-219 228.431,-215.512 232.611,-212.619 237.007,-210.234"/>
<polygon fill="midnightblue" stroke="midnightblue" points="238.542,-213.381 246.165,-206.022 235.617,-207.021 238.542,-213.381"/>
</g>
<!-- Node9 -->
<g id="node9" class="node"><title>Node9</title>
<g id="a_node9"><a xlink:href="../../d3/dd0/ITMDLL_8cpp.html#a58865d6a14f0fb4c0da66d610f830cdb" target="_top" xlink:title="fht">
<polygon fill="white" stroke="black" points="255,-342.5 255,-361.5 284,-361.5 284,-342.5 255,-342.5"/>
<text text-anchor="middle" x="269.5" y="-349.5" font-family="Helvetica,sans-Serif" font-size="10.00">fht</text>
</a>
</g>
</g>
<!-- Node8&#45;&gt;Node9 -->
<g id="edge11" class="edge"><title>Node8&#45;&gt;Node9</title>
<path fill="none" stroke="midnightblue" d="M186.294,-352C202.359,-352 226.743,-352 244.786,-352"/>
<polygon fill="midnightblue" stroke="midnightblue" points="244.817,-355.5 254.817,-352 244.817,-348.5 244.817,-355.5"/>
</g>
<!-- Node10 -->
<g id="node10" class="node"><title>Node10</title>
<g id="a_node10"><a xlink:href="../../d3/dd0/ITMDLL_8cpp.html#a133ac157c106bdbab35606739556ed65" target="_top" xlink:title="aknfe">
<polygon fill="white" stroke="black" points="249,-380.5 249,-399.5 290,-399.5 290,-380.5 249,-380.5"/>
<text text-anchor="middle" x="269.5" y="-387.5" font-family="Helvetica,sans-Serif" font-size="10.00">aknfe</text>
</a>
</g>
</g>
<!-- Node8&#45;&gt;Node10 -->
<g id="edge12" class="edge"><title>Node8&#45;&gt;Node10</title>
<path fill="none" stroke="midnightblue" d="M186.294,-358.446C200.774,-364.004 222.013,-372.157 239.275,-378.782"/>
<polygon fill="midnightblue" stroke="midnightblue" points="238.308,-382.16 248.898,-382.476 240.817,-375.625 238.308,-382.16"/>
</g>
<!-- Node11&#45;&gt;Node3 -->
<g id="edge14" class="edge"><title>Node11&#45;&gt;Node3</title>
<path fill="none" stroke="midnightblue" d="M176.852,-190.411C186.7,-178.093 205.237,-156.674 225,-143 228.261,-140.743 231.834,-138.664 235.485,-136.774"/>
<polygon fill="midnightblue" stroke="midnightblue" points="237.042,-139.91 244.592,-132.477 234.054,-133.579 237.042,-139.91"/>
</g>
<!-- Node11&#45;&gt;Node6 -->
<g id="edge15" class="edge"><title>Node11&#45;&gt;Node6</title>
<path fill="none" stroke="midnightblue" d="M186.294,-200C199.87,-200 219.387,-200 235.998,-200"/>
<polygon fill="midnightblue" stroke="midnightblue" points="236.402,-203.5 246.402,-200 236.402,-196.5 236.402,-203.5"/>
</g>
<!-- Node12 -->
<g id="node12" class="node"><title>Node12</title>
<g id="a_node12"><a xlink:href="../../d3/dd0/ITMDLL_8cpp.html#aea4c472ad2b67e25eefe72767a817667" target="_top" xlink:title="abq_alos">
<polygon fill="white" stroke="black" points="241.5,-152.5 241.5,-171.5 297.5,-171.5 297.5,-152.5 241.5,-152.5"/>
<text text-anchor="middle" x="269.5" y="-159.5" font-family="Helvetica,sans-Serif" font-size="10.00">abq_alos</text>
</a>
</g>
</g>
<!-- Node11&#45;&gt;Node12 -->
<g id="edge16" class="edge"><title>Node11&#45;&gt;Node12</title>
<path fill="none" stroke="midnightblue" d="M186.294,-193.554C199.268,-188.574 217.669,-181.511 233.773,-175.33"/>
<polygon fill="midnightblue" stroke="midnightblue" points="235.353,-178.472 243.434,-171.621 232.844,-171.937 235.353,-178.472"/>
</g>
<!-- Node14&#45;&gt;Node3 -->
<g id="edge20" class="edge"><title>Node14&#45;&gt;Node3</title>
<path fill="none" stroke="midnightblue" d="M173.031,-266.402C183.742,-237.46 215.701,-152.454 225,-143 228.056,-139.894 231.705,-137.26 235.572,-135.036"/>
<polygon fill="midnightblue" stroke="midnightblue" points="237.338,-138.069 244.814,-130.562 234.288,-131.769 237.338,-138.069"/>
</g>
<!-- Node14&#45;&gt;Node6 -->
<g id="edge21" class="edge"><title>Node14&#45;&gt;Node6</title>
<path fill="none" stroke="midnightblue" d="M176.852,-266.411C186.7,-254.093 205.237,-232.674 225,-219 228.761,-216.398 232.936,-214.031 237.169,-211.919"/>
<polygon fill="midnightblue" stroke="midnightblue" points="238.743,-215.048 246.388,-207.713 235.837,-208.68 238.743,-215.048"/>
</g>
<!-- Node14&#45;&gt;Node13 -->
<g id="edge23" class="edge"><title>Node14&#45;&gt;Node13</title>
<path fill="none" stroke="midnightblue" d="M189.059,-283.508C201.91,-288.44 219.073,-295.028 234.157,-300.818"/>
<polygon fill="midnightblue" stroke="midnightblue" points="233.114,-304.166 243.704,-304.482 235.622,-297.631 233.114,-304.166"/>
</g>
<!-- Node15 -->
<g id="node15" class="node"><title>Node15</title>
<g id="a_node15"><a xlink:href="../../d3/dd0/ITMDLL_8cpp.html#a8e415ee823bbb4b0da13d5f81f042d7f" target="_top" xlink:title="h0f">
<polygon fill="white" stroke="black" points="254.5,-266.5 254.5,-285.5 284.5,-285.5 284.5,-266.5 254.5,-266.5"/>
<text text-anchor="middle" x="269.5" y="-273.5" font-family="Helvetica,sans-Serif" font-size="10.00">h0f</text>
</a>
</g>
</g>
<!-- Node14&#45;&gt;Node15 -->
<g id="edge22" class="edge"><title>Node14&#45;&gt;Node15</title>
<path fill="none" stroke="midnightblue" d="M189.059,-276C204.868,-276 227.204,-276 244.167,-276"/>
<polygon fill="midnightblue" stroke="midnightblue" points="244.416,-279.5 254.416,-276 244.416,-272.5 244.416,-279.5"/>
</g>
<!-- Node16 -->
<g id="node16" class="node"><title>Node16</title>
<g id="a_node16"><a xlink:href="../../d3/dd0/ITMDLL_8cpp.html#a5cd3659f451452a38a465a50992b9e7c" target="_top" xlink:title="ahd">
<polygon fill="white" stroke="black" points="253.5,-228.5 253.5,-247.5 285.5,-247.5 285.5,-228.5 253.5,-228.5"/>
<text text-anchor="middle" x="269.5" y="-235.5" font-family="Helvetica,sans-Serif" font-size="10.00">ahd</text>
</a>
</g>
</g>
<!-- Node14&#45;&gt;Node16 -->
<g id="edge24" class="edge"><title>Node14&#45;&gt;Node16</title>
<path fill="none" stroke="midnightblue" d="M189.059,-268.492C204.646,-262.51 226.576,-254.092 243.447,-247.616"/>
<polygon fill="midnightblue" stroke="midnightblue" points="245.114,-250.725 253.196,-243.874 242.606,-244.19 245.114,-250.725"/>
</g>
<!-- Node17&#45;&gt;Node3 -->
<g id="edge26" class="edge"><title>Node17&#45;&gt;Node3</title>
<path fill="none" stroke="midnightblue" d="M109.301,-38.6768C129.174,-28.9794 162.855,-16.7872 189,-29 222.607,-44.6986 247.016,-82.3662 259.367,-105.274"/>
<polygon fill="midnightblue" stroke="midnightblue" points="256.355,-107.071 264.048,-114.356 262.577,-103.863 256.355,-107.071"/>
</g>
<!-- Node18 -->
<g id="node18" class="node"><title>Node18</title>
<g id="a_node18"><a xlink:href="../../d3/dd0/ITMDLL_8cpp.html#acc398b6d1b1334689f775af613edb43f" target="_top" xlink:title="curve">
<polygon fill="white" stroke="black" points="148,-38.5 148,-57.5 189,-57.5 189,-38.5 148,-38.5"/>
<text text-anchor="middle" x="168.5" y="-45.5" font-family="Helvetica,sans-Serif" font-size="10.00">curve</text>
</a>
</g>
</g>
<!-- Node17&#45;&gt;Node18 -->
<g id="edge27" class="edge"><title>Node17&#45;&gt;Node18</title>
<path fill="none" stroke="midnightblue" d="M109.145,-48C117.575,-48 128.067,-48 137.82,-48"/>
<polygon fill="midnightblue" stroke="midnightblue" points="137.981,-51.5001 147.981,-48 137.981,-44.5001 137.981,-51.5001"/>
</g>
</g>
</svg>
