<?xml version="1.0" encoding="UTF-8" standalone="no"?>
<!DOCTYPE svg PUBLIC "-//W3C//DTD SVG 1.1//EN"
 "http://www.w3.org/Graphics/SVG/1.1/DTD/svg11.dtd">
<!-- Generated by graphviz version 2.38.0 (20140413.2041)
 -->
<!-- Title: curve Pages: 1 -->
<svg width="380pt" height="142pt"
 viewBox="0.00 0.00 380.00 142.00" xmlns="http://www.w3.org/2000/svg" xmlns:xlink="http://www.w3.org/1999/xlink">
<g id="graph0" class="graph" transform="scale(1 1) rotate(0) translate(4 138)">
<title>curve</title>
<polygon fill="white" stroke="none" points="-4,4 -4,-138 376,-138 376,4 -4,4"/>
<!-- Node1 -->
<g id="node1" class="node"><title>Node1</title>
<polygon fill="#bfbfbf" stroke="black" points="0,-57.5 0,-76.5 41,-76.5 41,-57.5 0,-57.5"/>
<text text-anchor="middle" x="20.5" y="-64.5" font-family="Helvetica,sans-Serif" font-size="10.00">curve</text>
</g>
<!-- Node2 -->
<g id="node2" class="node"><title>Node2</title>
<g id="a_node2"><a xlink:href="../../d3/dd0/ITMDLL_8cpp.html#a2db0f324567337090f258050400f6878" target="_top" xlink:title="avar">
<polygon fill="white" stroke="black" points="77,-57.5 77,-76.5 112,-76.5 112,-57.5 77,-57.5"/>
<text text-anchor="middle" x="94.5" y="-64.5" font-family="Helvetica,sans-Serif" font-size="10.00">avar</text>
</a>
</g>
</g>
<!-- Node1&#45;&gt;Node2 -->
<g id="edge1" class="edge"><title>Node1&#45;&gt;Node2</title>
<path fill="none" stroke="midnightblue" d="M51.3754,-67C60.053,-67 69.2196,-67 76.7781,-67"/>
<polygon fill="midnightblue" stroke="midnightblue" points="51.1744,-63.5001 41.1743,-67 51.1743,-70.5001 51.1744,-63.5001"/>
</g>
<!-- Node3 -->
<g id="node3" class="node"><title>Node3</title>
<g id="a_node3"><a xlink:href="../../d3/dd0/ITMDLL_8cpp.html#ac26ba1067f85b552c9fb7e26374f6ed5" target="_top" xlink:title="point_to_point">
<polygon fill="white" stroke="black" points="160,-114.5 160,-133.5 237,-133.5 237,-114.5 160,-114.5"/>
<text text-anchor="middle" x="198.5" y="-121.5" font-family="Helvetica,sans-Serif" font-size="10.00">point_to_point</text>
</a>
</g>
</g>
<!-- Node2&#45;&gt;Node3 -->
<g id="edge2" class="edge"><title>Node2&#45;&gt;Node3</title>
<path fill="none" stroke="midnightblue" d="M115.042,-83.0148C124.592,-90.3432 136.487,-98.7625 148,-105 154.556,-108.552 161.919,-111.758 168.921,-114.482"/>
<polygon fill="midnightblue" stroke="midnightblue" points="117.029,-80.1249 107.008,-76.6852 112.697,-85.6233 117.029,-80.1249"/>
</g>
<!-- Node4 -->
<g id="node4" class="node"><title>Node4</title>
<g id="a_node4"><a xlink:href="../../d3/dd0/ITMDLL_8cpp.html#acbf64839f123247b9858d3c961d34558" target="_top" xlink:title="point_to_pointMDH">
<polygon fill="white" stroke="black" points="148,-76.5 148,-95.5 249,-95.5 249,-76.5 148,-76.5"/>
<text text-anchor="middle" x="198.5" y="-83.5" font-family="Helvetica,sans-Serif" font-size="10.00">point_to_pointMDH</text>
</a>
</g>
</g>
<!-- Node2&#45;&gt;Node4 -->
<g id="edge3" class="edge"><title>Node2&#45;&gt;Node4</title>
<path fill="none" stroke="midnightblue" d="M122.271,-71.9867C130.069,-73.4393 138.852,-75.0754 147.593,-76.7035"/>
<polygon fill="midnightblue" stroke="midnightblue" points="122.815,-68.528 112.343,-70.1375 121.533,-75.4096 122.815,-68.528"/>
</g>
<!-- Node5 -->
<g id="node5" class="node"><title>Node5</title>
<g id="a_node5"><a xlink:href="../../d3/dd0/ITMDLL_8cpp.html#a15b1b23c9cf6076e277df8f9b1b4572d" target="_top" xlink:title="point_to_pointDH">
<polygon fill="white" stroke="black" points="152.5,-38.5 152.5,-57.5 244.5,-57.5 244.5,-38.5 152.5,-38.5"/>
<text text-anchor="middle" x="198.5" y="-45.5" font-family="Helvetica,sans-Serif" font-size="10.00">point_to_pointDH</text>
</a>
</g>
</g>
<!-- Node2&#45;&gt;Node5 -->
<g id="edge4" class="edge"><title>Node2&#45;&gt;Node5</title>
<path fill="none" stroke="midnightblue" d="M122.432,-61.9833C131.643,-60.2674 142.214,-58.2983 152.46,-56.3898"/>
<polygon fill="midnightblue" stroke="midnightblue" points="121.533,-58.5904 112.343,-63.8625 122.815,-65.472 121.533,-58.5904"/>
</g>
<!-- Node6 -->
<g id="node6" class="node"><title>Node6</title>
<g id="a_node6"><a xlink:href="../../d3/dd0/ITMDLL_8cpp.html#ae3537f4e89c5341305b58cf0bdde5a96" target="_top" xlink:title="area">
<polygon fill="white" stroke="black" points="181,-0.5 181,-19.5 216,-19.5 216,-0.5 181,-0.5"/>
<text text-anchor="middle" x="198.5" y="-7.5" font-family="Helvetica,sans-Serif" font-size="10.00">area</text>
</a>
</g>
</g>
<!-- Node2&#45;&gt;Node6 -->
<g id="edge5" class="edge"><title>Node2&#45;&gt;Node6</title>
<path fill="none" stroke="midnightblue" d="M115.042,-50.9852C124.592,-43.6568 136.487,-35.2375 148,-29 158.522,-23.2996 171.122,-18.489 180.977,-15.1346"/>
<polygon fill="midnightblue" stroke="midnightblue" points="112.697,-48.3767 107.008,-57.3148 117.029,-53.8751 112.697,-48.3767"/>
</g>
<!-- Node7 -->
<g id="node7" class="node"><title>Node7</title>
<g id="a_node7"><a xlink:href="../../d3/dd0/ITMDLL_8cpp.html#a47c92c2180a3df868488953eee50b603" target="_top" xlink:title="ITMAreadBLoss">
<polygon fill="white" stroke="black" points="285,-0.5 285,-19.5 372,-19.5 372,-0.5 285,-0.5"/>
<text text-anchor="middle" x="328.5" y="-7.5" font-family="Helvetica,sans-Serif" font-size="10.00">ITMAreadBLoss</text>
</a>
</g>
</g>
<!-- Node6&#45;&gt;Node7 -->
<g id="edge6" class="edge"><title>Node6&#45;&gt;Node7</title>
<path fill="none" stroke="midnightblue" d="M226.514,-10C243.438,-10 265.617,-10 284.878,-10"/>
<polygon fill="midnightblue" stroke="midnightblue" points="226.234,-6.5001 216.234,-10 226.234,-13.5001 226.234,-6.5001"/>
</g>
</g>
</svg>
