<?xml version="1.0" encoding="UTF-8" standalone="no"?>
<!DOCTYPE svg PUBLIC "-//W3C//DTD SVG 1.1//EN"
 "http://www.w3.org/Graphics/SVG/1.1/DTD/svg11.dtd">
<!-- Generated by graphviz version 2.38.0 (20140413.2041)
 -->
<!-- Title: qlrps Pages: 1 -->
<svg width="306pt" height="142pt"
 viewBox="0.00 0.00 306.00 142.00" xmlns="http://www.w3.org/2000/svg" xmlns:xlink="http://www.w3.org/1999/xlink">
<g id="graph0" class="graph" transform="scale(1 1) rotate(0) translate(4 138)">
<title>qlrps</title>
<polygon fill="white" stroke="none" points="-4,4 -4,-138 302,-138 302,4 -4,4"/>
<!-- Node1 -->
<g id="node1" class="node"><title>Node1</title>
<polygon fill="#bfbfbf" stroke="black" points="0,-57.5 0,-76.5 38,-76.5 38,-57.5 0,-57.5"/>
<text text-anchor="middle" x="19" y="-64.5" font-family="Helvetica,sans-Serif" font-size="10.00">qlrps</text>
</g>
<!-- Node2 -->
<g id="node2" class="node"><title>Node2</title>
<g id="a_node2"><a xlink:href="../../d3/dd0/ITMDLL_8cpp.html#ac26ba1067f85b552c9fb7e26374f6ed5" target="_top" xlink:title="point_to_point">
<polygon fill="white" stroke="black" points="86,-114.5 86,-133.5 163,-133.5 163,-114.5 86,-114.5"/>
<text text-anchor="middle" x="124.5" y="-121.5" font-family="Helvetica,sans-Serif" font-size="10.00">point_to_point</text>
</a>
</g>
</g>
<!-- Node1&#45;&gt;Node2 -->
<g id="edge1" class="edge"><title>Node1&#45;&gt;Node2</title>
<path fill="none" stroke="midnightblue" d="M39.8623,-82.756C49.7501,-90.1283 62.108,-98.6592 74,-105 80.5793,-108.508 87.9507,-111.698 94.9543,-114.421"/>
<polygon fill="midnightblue" stroke="midnightblue" points="41.9538,-79.9494 31.8825,-76.6598 37.7042,-85.5119 41.9538,-79.9494"/>
</g>
<!-- Node3 -->
<g id="node3" class="node"><title>Node3</title>
<g id="a_node3"><a xlink:href="../../d3/dd0/ITMDLL_8cpp.html#acbf64839f123247b9858d3c961d34558" target="_top" xlink:title="point_to_pointMDH">
<polygon fill="white" stroke="black" points="74,-76.5 74,-95.5 175,-95.5 175,-76.5 74,-76.5"/>
<text text-anchor="middle" x="124.5" y="-83.5" font-family="Helvetica,sans-Serif" font-size="10.00">point_to_pointMDH</text>
</a>
</g>
</g>
<!-- Node1&#45;&gt;Node3 -->
<g id="edge2" class="edge"><title>Node1&#45;&gt;Node3</title>
<path fill="none" stroke="midnightblue" d="M47.8684,-72.1159C55.8454,-73.5803 64.7921,-75.2227 73.6637,-76.8513"/>
<polygon fill="midnightblue" stroke="midnightblue" points="48.496,-68.6727 38.0283,-70.3095 47.232,-75.5577 48.496,-68.6727"/>
</g>
<!-- Node4 -->
<g id="node4" class="node"><title>Node4</title>
<g id="a_node4"><a xlink:href="../../d3/dd0/ITMDLL_8cpp.html#a15b1b23c9cf6076e277df8f9b1b4572d" target="_top" xlink:title="point_to_pointDH">
<polygon fill="white" stroke="black" points="78.5,-38.5 78.5,-57.5 170.5,-57.5 170.5,-38.5 78.5,-38.5"/>
<text text-anchor="middle" x="124.5" y="-45.5" font-family="Helvetica,sans-Serif" font-size="10.00">point_to_pointDH</text>
</a>
</g>
</g>
<!-- Node1&#45;&gt;Node4 -->
<g id="edge3" class="edge"><title>Node1&#45;&gt;Node4</title>
<path fill="none" stroke="midnightblue" d="M47.8872,-61.8806C57.1937,-60.1722 67.8185,-58.2217 78.1034,-56.3337"/>
<polygon fill="midnightblue" stroke="midnightblue" points="47.232,-58.4423 38.0283,-63.6905 48.496,-65.3273 47.232,-58.4423"/>
</g>
<!-- Node5 -->
<g id="node5" class="node"><title>Node5</title>
<g id="a_node5"><a xlink:href="../../d3/dd0/ITMDLL_8cpp.html#ae3537f4e89c5341305b58cf0bdde5a96" target="_top" xlink:title="area">
<polygon fill="white" stroke="black" points="107,-0.5 107,-19.5 142,-19.5 142,-0.5 107,-0.5"/>
<text text-anchor="middle" x="124.5" y="-7.5" font-family="Helvetica,sans-Serif" font-size="10.00">area</text>
</a>
</g>
</g>
<!-- Node1&#45;&gt;Node5 -->
<g id="edge4" class="edge"><title>Node1&#45;&gt;Node5</title>
<path fill="none" stroke="midnightblue" d="M39.8623,-51.244C49.7501,-43.8717 62.108,-35.3408 74,-29 84.3969,-23.4564 96.7719,-18.7064 106.548,-15.3423"/>
<polygon fill="midnightblue" stroke="midnightblue" points="37.7042,-48.4881 31.8825,-57.3402 41.9538,-54.0506 37.7042,-48.4881"/>
</g>
<!-- Node6 -->
<g id="node6" class="node"><title>Node6</title>
<g id="a_node6"><a xlink:href="../../d3/dd0/ITMDLL_8cpp.html#a47c92c2180a3df868488953eee50b603" target="_top" xlink:title="ITMAreadBLoss">
<polygon fill="white" stroke="black" points="211,-0.5 211,-19.5 298,-19.5 298,-0.5 211,-0.5"/>
<text text-anchor="middle" x="254.5" y="-7.5" font-family="Helvetica,sans-Serif" font-size="10.00">ITMAreadBLoss</text>
</a>
</g>
</g>
<!-- Node5&#45;&gt;Node6 -->
<g id="edge5" class="edge"><title>Node5&#45;&gt;Node6</title>
<path fill="none" stroke="midnightblue" d="M152.514,-10C169.438,-10 191.617,-10 210.878,-10"/>
<polygon fill="midnightblue" stroke="midnightblue" points="152.234,-6.5001 142.234,-10 152.234,-13.5001 152.234,-6.5001"/>
</g>
</g>
</svg>
