<?xml version="1.0" encoding="UTF-8" standalone="no"?>
<!DOCTYPE svg PUBLIC "-//W3C//DTD SVG 1.1//EN"
 "http://www.w3.org/Graphics/SVG/1.1/DTD/svg11.dtd">
<!-- Generated by graphviz version 2.38.0 (20140413.2041)
 -->
<!-- Title: mymin Pages: 1 -->
<svg width="419pt" height="258pt"
 viewBox="0.00 0.00 419.00 257.96" xmlns="http://www.w3.org/2000/svg" xmlns:xlink="http://www.w3.org/1999/xlink">
<g id="graph0" class="graph" transform="scale(1 1) rotate(0) translate(4 253.956)">
<title>mymin</title>
<polygon fill="white" stroke="none" points="-4,4 -4,-253.956 415,-253.956 415,4 -4,4"/>
<!-- Node1 -->
<g id="node1" class="node"><title>Node1</title>
<polygon fill="#bfbfbf" stroke="black" points="0,-114.536 0,-133.536 46,-133.536 46,-114.536 0,-114.536"/>
<text text-anchor="middle" x="23" y="-121.536" font-family="Helvetica,sans-Serif" font-size="10.00">mymin</text>
</g>
<!-- Node2 -->
<g id="node2" class="node"><title>Node2</title>
<g id="a_node2"><a xlink:href="../../d3/dd0/ITMDLL_8cpp.html#a61774c377cce1be80117b174ac61eef2" target="_top" xlink:title="adiff">
<polygon fill="white" stroke="black" points="85,-95.5364 85,-114.536 120,-114.536 120,-95.5364 85,-95.5364"/>
<text text-anchor="middle" x="102.5" y="-102.536" font-family="Helvetica,sans-Serif" font-size="10.00">adiff</text>
</a>
</g>
</g>
<!-- Node1&#45;&gt;Node2 -->
<g id="edge1" class="edge"><title>Node1&#45;&gt;Node2</title>
<path fill="none" stroke="midnightblue" d="M56.0011,-116.191C65.9173,-113.76 76.4418,-111.18 84.8684,-109.114"/>
<polygon fill="midnightblue" stroke="midnightblue" points="54.8801,-112.862 46.0011,-118.643 56.5469,-119.661 54.8801,-112.862"/>
</g>
<!-- Node3 -->
<g id="node3" class="node"><title>Node3</title>
<g id="a_node3"><a xlink:href="../../d3/dd0/ITMDLL_8cpp.html#a2fed233a4588a559e7ff32f9e23f709b" target="_top" xlink:title="lrprop">
<polygon fill="white" stroke="black" points="159,-76.5364 159,-95.5364 200,-95.5364 200,-76.5364 159,-76.5364"/>
<text text-anchor="middle" x="179.5" y="-83.5364" font-family="Helvetica,sans-Serif" font-size="10.00">lrprop</text>
</a>
</g>
</g>
<!-- Node1&#45;&gt;Node3 -->
<g id="edge15" class="edge"><title>Node1&#45;&gt;Node3</title>
<path fill="none" stroke="midnightblue" d="M42.3713,-107.996C53.1311,-99.6838 67.4365,-90.3824 82,-86.0364 107.686,-78.3712 138.96,-80.2875 158.803,-82.8027"/>
<polygon fill="midnightblue" stroke="midnightblue" points="40.1206,-105.315 34.5651,-114.337 44.5339,-110.749 40.1206,-105.315"/>
</g>
<!-- Node4 -->
<g id="node4" class="node"><title>Node4</title>
<g id="a_node4"><a xlink:href="../../d3/dd0/ITMDLL_8cpp.html#a152ccc6442f590f588a376c23453eb59" target="_top" xlink:title="qlrpfl">
<polygon fill="white" stroke="black" points="236,-190.536 236,-209.536 274,-209.536 274,-190.536 236,-190.536"/>
<text text-anchor="middle" x="255" y="-197.536" font-family="Helvetica,sans-Serif" font-size="10.00">qlrpfl</text>
</a>
</g>
</g>
<!-- Node1&#45;&gt;Node4 -->
<g id="edge20" class="edge"><title>Node1&#45;&gt;Node4</title>
<path fill="none" stroke="midnightblue" d="M27.5253,-143.751C33.4888,-170.529 48.3752,-217.417 82,-238.036 133.879,-269.849 209.036,-229.241 239.932,-209.581"/>
<polygon fill="midnightblue" stroke="midnightblue" points="30.8946,-142.753 25.4873,-133.642 24.0326,-144.136 30.8946,-142.753"/>
</g>
<!-- Node10 -->
<g id="node10" class="node"><title>Node10</title>
<g id="a_node10"><a xlink:href="../../d3/dd0/ITMDLL_8cpp.html#a74cbbcd996594f97dd6088dbbaff27c7" target="_top" xlink:title="ascat">
<polygon fill="white" stroke="black" points="82,-19.5364 82,-38.5364 123,-38.5364 123,-19.5364 82,-19.5364"/>
<text text-anchor="middle" x="102.5" y="-26.5364" font-family="Helvetica,sans-Serif" font-size="10.00">ascat</text>
</a>
</g>
</g>
<!-- Node1&#45;&gt;Node10 -->
<g id="edge9" class="edge"><title>Node1&#45;&gt;Node10</title>
<path fill="none" stroke="midnightblue" d="M38.3299,-106.471C54.6428,-86.4743 80.7012,-54.5317 93.657,-38.6504"/>
<polygon fill="midnightblue" stroke="midnightblue" points="35.6112,-104.266 32.002,-114.228 41.0353,-108.691 35.6112,-104.266"/>
</g>
<!-- Node11 -->
<g id="node11" class="node"><title>Node11</title>
<g id="a_node11"><a xlink:href="../../d3/dd0/ITMDLL_8cpp.html#a404799cf89ce54ce7b92e13ad355ad85" target="_top" xlink:title="alos">
<polygon fill="white" stroke="black" points="85,-133.536 85,-152.536 120,-152.536 120,-133.536 85,-133.536"/>
<text text-anchor="middle" x="102.5" y="-140.536" font-family="Helvetica,sans-Serif" font-size="10.00">alos</text>
</a>
</g>
</g>
<!-- Node1&#45;&gt;Node11 -->
<g id="edge11" class="edge"><title>Node1&#45;&gt;Node11</title>
<path fill="none" stroke="midnightblue" d="M56.0011,-131.882C65.9173,-134.313 76.4418,-136.893 84.8684,-138.959"/>
<polygon fill="midnightblue" stroke="midnightblue" points="56.5469,-128.412 46.0011,-129.43 54.8801,-135.211 56.5469,-128.412"/>
</g>
<!-- Node12 -->
<g id="node12" class="node"><title>Node12</title>
<g id="a_node12"><a xlink:href="../../d3/dd0/ITMDLL_8cpp.html#afe95983a6a83beb62119da30182468df" target="_top" xlink:title="qlra">
<polygon fill="white" stroke="black" points="163.5,-0.536393 163.5,-19.5364 195.5,-19.5364 195.5,-0.536393 163.5,-0.536393"/>
<text text-anchor="middle" x="179.5" y="-7.53639" font-family="Helvetica,sans-Serif" font-size="10.00">qlra</text>
</a>
</g>
</g>
<!-- Node1&#45;&gt;Node12 -->
<g id="edge13" class="edge"><title>Node1&#45;&gt;Node12</title>
<path fill="none" stroke="midnightblue" d="M27.5253,-104.321C33.4888,-77.544 48.3752,-30.6555 82,-10.0364 107.136,5.37758 143.322,-0.40266 163.483,-5.52058"/>
<polygon fill="midnightblue" stroke="midnightblue" points="24.0326,-103.936 25.4873,-114.431 30.8946,-105.32 24.0326,-103.936"/>
</g>
<!-- Node13 -->
<g id="node13" class="node"><title>Node13</title>
<g id="a_node13"><a xlink:href="../../d3/dd0/ITMDLL_8cpp.html#a8ab54b7902d55b592e2d76dafdb93069" target="_top" xlink:title="qtile">
<polygon fill="white" stroke="black" points="85,-209.536 85,-228.536 120,-228.536 120,-209.536 85,-209.536"/>
<text text-anchor="middle" x="102.5" y="-216.536" font-family="Helvetica,sans-Serif" font-size="10.00">qtile</text>
</a>
</g>
</g>
<!-- Node1&#45;&gt;Node13 -->
<g id="edge16" class="edge"><title>Node1&#45;&gt;Node13</title>
<path fill="none" stroke="midnightblue" d="M38.3299,-141.602C54.6428,-161.599 80.7012,-193.541 93.657,-209.422"/>
<polygon fill="midnightblue" stroke="midnightblue" points="41.0353,-139.381 32.002,-133.845 35.6112,-143.806 41.0353,-139.381"/>
</g>
<!-- Node14 -->
<g id="node14" class="node"><title>Node14</title>
<g id="a_node14"><a xlink:href="../../d3/dd0/ITMDLL_8cpp.html#a45e678693240356cd41b59d8edb5bb12" target="_top" xlink:title="d1thx">
<polygon fill="white" stroke="black" points="159,-190.536 159,-209.536 200,-209.536 200,-190.536 159,-190.536"/>
<text text-anchor="middle" x="179.5" y="-197.536" font-family="Helvetica,sans-Serif" font-size="10.00">d1thx</text>
</a>
</g>
</g>
<!-- Node1&#45;&gt;Node14 -->
<g id="edge19" class="edge"><title>Node1&#45;&gt;Node14</title>
<path fill="none" stroke="midnightblue" d="M45.1902,-139.427C55.9066,-146.815 69.3041,-155.466 82,-162.036 107.586,-175.278 138.885,-186.811 158.761,-193.599"/>
<polygon fill="midnightblue" stroke="midnightblue" points="47.0864,-136.481 36.8933,-133.591 43.0594,-142.207 47.0864,-136.481"/>
</g>
<!-- Node2&#45;&gt;Node3 -->
<g id="edge2" class="edge"><title>Node2&#45;&gt;Node3</title>
<path fill="none" stroke="midnightblue" d="M129.969,-98.3309C139.525,-95.9102 150.129,-93.2238 158.981,-90.9811"/>
<polygon fill="midnightblue" stroke="midnightblue" points="128.979,-94.971 120.145,-100.82 130.698,-101.757 128.979,-94.971"/>
</g>
<!-- Node3&#45;&gt;Node4 -->
<g id="edge3" class="edge"><title>Node3&#45;&gt;Node4</title>
<path fill="none" stroke="midnightblue" d="M192.383,-104.467C208.174,-128.96 235.503,-171.348 247.749,-190.341"/>
<polygon fill="midnightblue" stroke="midnightblue" points="195.127,-102.264 186.767,-95.756 189.244,-106.057 195.127,-102.264"/>
</g>
<!-- Node8 -->
<g id="node8" class="node"><title>Node8</title>
<g id="a_node8"><a xlink:href="../../d3/dd0/ITMDLL_8cpp.html#ae3537f4e89c5341305b58cf0bdde5a96" target="_top" xlink:title="area">
<polygon fill="white" stroke="black" points="237.5,-38.5364 237.5,-57.5364 272.5,-57.5364 272.5,-38.5364 237.5,-38.5364"/>
<text text-anchor="middle" x="255" y="-45.5364" font-family="Helvetica,sans-Serif" font-size="10.00">area</text>
</a>
</g>
</g>
<!-- Node3&#45;&gt;Node8 -->
<g id="edge7" class="edge"><title>Node3&#45;&gt;Node8</title>
<path fill="none" stroke="midnightblue" d="M208.059,-71.7881C217.86,-66.721 228.593,-61.1721 237.218,-56.7127"/>
<polygon fill="midnightblue" stroke="midnightblue" points="206.323,-68.7457 199.047,-76.4474 209.538,-74.9638 206.323,-68.7457"/>
</g>
<!-- Node5 -->
<g id="node5" class="node"><title>Node5</title>
<g id="a_node5"><a xlink:href="../../d3/dd0/ITMDLL_8cpp.html#ac26ba1067f85b552c9fb7e26374f6ed5" target="_top" xlink:title="point_to_point">
<polygon fill="white" stroke="black" points="322,-190.536 322,-209.536 399,-209.536 399,-190.536 322,-190.536"/>
<text text-anchor="middle" x="360.5" y="-197.536" font-family="Helvetica,sans-Serif" font-size="10.00">point_to_point</text>
</a>
</g>
</g>
<!-- Node4&#45;&gt;Node5 -->
<g id="edge4" class="edge"><title>Node4&#45;&gt;Node5</title>
<path fill="none" stroke="midnightblue" d="M284.075,-200.036C295.743,-200.036 309.457,-200.036 321.969,-200.036"/>
<polygon fill="midnightblue" stroke="midnightblue" points="284.028,-196.536 274.028,-200.036 284.028,-203.536 284.028,-196.536"/>
</g>
<!-- Node6 -->
<g id="node6" class="node"><title>Node6</title>
<g id="a_node6"><a xlink:href="../../d3/dd0/ITMDLL_8cpp.html#acbf64839f123247b9858d3c961d34558" target="_top" xlink:title="point_to_pointMDH">
<polygon fill="white" stroke="black" points="310,-152.536 310,-171.536 411,-171.536 411,-152.536 310,-152.536"/>
<text text-anchor="middle" x="360.5" y="-159.536" font-family="Helvetica,sans-Serif" font-size="10.00">point_to_pointMDH</text>
</a>
</g>
</g>
<!-- Node4&#45;&gt;Node6 -->
<g id="edge5" class="edge"><title>Node4&#45;&gt;Node6</title>
<path fill="none" stroke="midnightblue" d="M283.594,-189.905C299.089,-184.216 318.31,-177.159 333.533,-171.57"/>
<polygon fill="midnightblue" stroke="midnightblue" points="282.209,-186.685 274.028,-193.417 284.622,-193.256 282.209,-186.685"/>
</g>
<!-- Node7 -->
<g id="node7" class="node"><title>Node7</title>
<g id="a_node7"><a xlink:href="../../d3/dd0/ITMDLL_8cpp.html#a15b1b23c9cf6076e277df8f9b1b4572d" target="_top" xlink:title="point_to_pointDH">
<polygon fill="white" stroke="black" points="314.5,-228.536 314.5,-247.536 406.5,-247.536 406.5,-228.536 314.5,-228.536"/>
<text text-anchor="middle" x="360.5" y="-235.536" font-family="Helvetica,sans-Serif" font-size="10.00">point_to_pointDH</text>
</a>
</g>
</g>
<!-- Node4&#45;&gt;Node7 -->
<g id="edge6" class="edge"><title>Node4&#45;&gt;Node7</title>
<path fill="none" stroke="midnightblue" d="M283.594,-210.167C299.089,-215.857 318.31,-222.913 333.533,-228.503"/>
<polygon fill="midnightblue" stroke="midnightblue" points="284.622,-206.817 274.028,-206.655 282.209,-213.388 284.622,-206.817"/>
</g>
<!-- Node9 -->
<g id="node9" class="node"><title>Node9</title>
<g id="a_node9"><a xlink:href="../../d3/dd0/ITMDLL_8cpp.html#a47c92c2180a3df868488953eee50b603" target="_top" xlink:title="ITMAreadBLoss">
<polygon fill="white" stroke="black" points="317,-38.5364 317,-57.5364 404,-57.5364 404,-38.5364 317,-38.5364"/>
<text text-anchor="middle" x="360.5" y="-45.5364" font-family="Helvetica,sans-Serif" font-size="10.00">ITMAreadBLoss</text>
</a>
</g>
</g>
<!-- Node8&#45;&gt;Node9 -->
<g id="edge8" class="edge"><title>Node8&#45;&gt;Node9</title>
<path fill="none" stroke="midnightblue" d="M282.656,-48.0364C292.984,-48.0364 305.072,-48.0364 316.562,-48.0364"/>
<polygon fill="midnightblue" stroke="midnightblue" points="282.629,-44.5365 272.629,-48.0364 282.629,-51.5365 282.629,-44.5365"/>
</g>
<!-- Node10&#45;&gt;Node3 -->
<g id="edge10" class="edge"><title>Node10&#45;&gt;Node3</title>
<path fill="none" stroke="midnightblue" d="M124.4,-44.9206C137.761,-55.0749 154.644,-67.9061 165.965,-76.5099"/>
<polygon fill="midnightblue" stroke="midnightblue" points="126.302,-41.97 116.223,-38.7057 122.067,-47.5431 126.302,-41.97"/>
</g>
<!-- Node11&#45;&gt;Node3 -->
<g id="edge12" class="edge"><title>Node11&#45;&gt;Node3</title>
<path fill="none" stroke="midnightblue" d="M124.4,-127.152C137.761,-116.998 154.644,-104.167 165.965,-95.5629"/>
<polygon fill="midnightblue" stroke="midnightblue" points="122.067,-124.53 116.223,-133.367 126.302,-130.103 122.067,-124.53"/>
</g>
<!-- Node12&#45;&gt;Node8 -->
<g id="edge14" class="edge"><title>Node12&#45;&gt;Node8</title>
<path fill="none" stroke="midnightblue" d="M204.918,-22.6608C215.528,-28.1463 227.69,-34.4339 237.253,-39.378"/>
<polygon fill="midnightblue" stroke="midnightblue" points="206.22,-19.3936 195.729,-17.91 203.005,-25.6117 206.22,-19.3936"/>
</g>
<!-- Node13&#45;&gt;Node14 -->
<g id="edge17" class="edge"><title>Node13&#45;&gt;Node14</title>
<path fill="none" stroke="midnightblue" d="M129.969,-212.331C139.525,-209.91 150.129,-207.224 158.981,-204.981"/>
<polygon fill="midnightblue" stroke="midnightblue" points="128.979,-208.971 120.145,-214.82 130.698,-215.757 128.979,-208.971"/>
</g>
<!-- Node14&#45;&gt;Node4 -->
<g id="edge18" class="edge"><title>Node14&#45;&gt;Node4</title>
<path fill="none" stroke="midnightblue" d="M210.314,-200.036C218.932,-200.036 228.079,-200.036 235.764,-200.036"/>
<polygon fill="midnightblue" stroke="midnightblue" points="210.197,-196.536 200.197,-200.036 210.197,-203.536 210.197,-196.536"/>
</g>
</g>
</svg>
