<?xml version="1.0" encoding="UTF-8" standalone="no"?>
<!DOCTYPE svg PUBLIC "-//W3C//DTD SVG 1.1//EN"
 "http://www.w3.org/Graphics/SVG/1.1/DTD/svg11.dtd">
<!-- Generated by graphviz version 2.38.0 (20140413.2041)
 -->
<!-- Title: alos Pages: 1 -->
<svg width="331pt" height="142pt"
 viewBox="0.00 0.00 331.00 142.00" xmlns="http://www.w3.org/2000/svg" xmlns:xlink="http://www.w3.org/1999/xlink">
<g id="graph0" class="graph" transform="scale(1 1) rotate(0) translate(4 138)">
<title>alos</title>
<polygon fill="white" stroke="none" points="-4,4 -4,-138 327,-138 327,4 -4,4"/>
<!-- Node1 -->
<g id="node1" class="node"><title>Node1</title>
<polygon fill="#bfbfbf" stroke="black" points="0,-42.5 0,-61.5 35,-61.5 35,-42.5 0,-42.5"/>
<text text-anchor="middle" x="17.5" y="-49.5" font-family="Helvetica,sans-Serif" font-size="10.00">alos</text>
</g>
<!-- Node2 -->
<g id="node2" class="node"><title>Node2</title>
<g id="a_node2"><a xlink:href="../../d3/dd0/ITMDLL_8cpp.html#a2fed233a4588a559e7ff32f9e23f709b" target="_top" xlink:title="lrprop">
<polygon fill="white" stroke="black" points="71,-42.5 71,-61.5 112,-61.5 112,-42.5 71,-42.5"/>
<text text-anchor="middle" x="91.5" y="-49.5" font-family="Helvetica,sans-Serif" font-size="10.00">lrprop</text>
</a>
</g>
</g>
<!-- Node1&#45;&gt;Node2 -->
<g id="edge1" class="edge"><title>Node1&#45;&gt;Node2</title>
<path fill="none" stroke="midnightblue" d="M45.3613,-52C53.8084,-52 62.9742,-52 70.8257,-52"/>
<polygon fill="midnightblue" stroke="midnightblue" points="45.1993,-48.5001 35.1992,-52 45.1992,-55.5001 45.1993,-48.5001"/>
</g>
<!-- Node3 -->
<g id="node3" class="node"><title>Node3</title>
<g id="a_node3"><a xlink:href="../../d3/dd0/ITMDLL_8cpp.html#a152ccc6442f590f588a376c23453eb59" target="_top" xlink:title="qlrpfl">
<polygon fill="white" stroke="black" points="148,-66.5 148,-85.5 186,-85.5 186,-66.5 148,-66.5"/>
<text text-anchor="middle" x="167" y="-73.5" font-family="Helvetica,sans-Serif" font-size="10.00">qlrpfl</text>
</a>
</g>
</g>
<!-- Node2&#45;&gt;Node3 -->
<g id="edge2" class="edge"><title>Node2&#45;&gt;Node3</title>
<path fill="none" stroke="midnightblue" d="M121.746,-61.5498C130.529,-64.4178 139.91,-67.4808 147.764,-70.0453"/>
<polygon fill="midnightblue" stroke="midnightblue" points="122.789,-58.2085 112.197,-58.4316 120.616,-64.8628 122.789,-58.2085"/>
</g>
<!-- Node7 -->
<g id="node7" class="node"><title>Node7</title>
<g id="a_node7"><a xlink:href="../../d3/dd0/ITMDLL_8cpp.html#ae3537f4e89c5341305b58cf0bdde5a96" target="_top" xlink:title="area">
<polygon fill="white" stroke="black" points="149.5,-19.5 149.5,-38.5 184.5,-38.5 184.5,-19.5 149.5,-19.5"/>
<text text-anchor="middle" x="167" y="-26.5" font-family="Helvetica,sans-Serif" font-size="10.00">area</text>
</a>
</g>
</g>
<!-- Node2&#45;&gt;Node7 -->
<g id="edge6" class="edge"><title>Node2&#45;&gt;Node7</title>
<path fill="none" stroke="midnightblue" d="M121.908,-42.7976C131.203,-39.889 141.151,-36.7759 149.241,-34.2442"/>
<polygon fill="midnightblue" stroke="midnightblue" points="120.695,-39.5096 112.197,-45.8364 122.786,-46.1902 120.695,-39.5096"/>
</g>
<!-- Node4 -->
<g id="node4" class="node"><title>Node4</title>
<g id="a_node4"><a xlink:href="../../d3/dd0/ITMDLL_8cpp.html#ac26ba1067f85b552c9fb7e26374f6ed5" target="_top" xlink:title="point_to_point">
<polygon fill="white" stroke="black" points="234,-114.5 234,-133.5 311,-133.5 311,-114.5 234,-114.5"/>
<text text-anchor="middle" x="272.5" y="-121.5" font-family="Helvetica,sans-Serif" font-size="10.00">point_to_point</text>
</a>
</g>
</g>
<!-- Node3&#45;&gt;Node4 -->
<g id="edge3" class="edge"><title>Node3&#45;&gt;Node4</title>
<path fill="none" stroke="midnightblue" d="M193.774,-90.6978C202.604,-95.5019 212.622,-100.703 222,-105 229.28,-108.336 237.329,-111.599 244.784,-114.453"/>
<polygon fill="midnightblue" stroke="midnightblue" points="195.191,-87.4816 184.747,-85.702 191.802,-93.6064 195.191,-87.4816"/>
</g>
<!-- Node5 -->
<g id="node5" class="node"><title>Node5</title>
<g id="a_node5"><a xlink:href="../../d3/dd0/ITMDLL_8cpp.html#acbf64839f123247b9858d3c961d34558" target="_top" xlink:title="point_to_pointMDH">
<polygon fill="white" stroke="black" points="222,-76.5 222,-95.5 323,-95.5 323,-76.5 222,-76.5"/>
<text text-anchor="middle" x="272.5" y="-83.5" font-family="Helvetica,sans-Serif" font-size="10.00">point_to_pointMDH</text>
</a>
</g>
</g>
<!-- Node3&#45;&gt;Node5 -->
<g id="edge4" class="edge"><title>Node3&#45;&gt;Node5</title>
<path fill="none" stroke="midnightblue" d="M196.138,-78.7186C204.046,-79.4827 212.892,-80.3374 221.664,-81.1849"/>
<polygon fill="midnightblue" stroke="midnightblue" points="196.319,-75.2199 186.028,-77.7419 195.645,-82.1874 196.319,-75.2199"/>
</g>
<!-- Node6 -->
<g id="node6" class="node"><title>Node6</title>
<g id="a_node6"><a xlink:href="../../d3/dd0/ITMDLL_8cpp.html#a15b1b23c9cf6076e277df8f9b1b4572d" target="_top" xlink:title="point_to_pointDH">
<polygon fill="white" stroke="black" points="226.5,-38.5 226.5,-57.5 318.5,-57.5 318.5,-38.5 226.5,-38.5"/>
<text text-anchor="middle" x="272.5" y="-45.5" font-family="Helvetica,sans-Serif" font-size="10.00">point_to_pointDH</text>
</a>
</g>
</g>
<!-- Node3&#45;&gt;Node6 -->
<g id="edge5" class="edge"><title>Node3&#45;&gt;Node6</title>
<path fill="none" stroke="midnightblue" d="M195.8,-68.4793C208.193,-65.1265 222.938,-61.1376 236.107,-57.5748"/>
<polygon fill="midnightblue" stroke="midnightblue" points="194.767,-65.1327 186.028,-71.1228 196.595,-71.8898 194.767,-65.1327"/>
</g>
<!-- Node8 -->
<g id="node8" class="node"><title>Node8</title>
<g id="a_node8"><a xlink:href="../../d3/dd0/ITMDLL_8cpp.html#a47c92c2180a3df868488953eee50b603" target="_top" xlink:title="ITMAreadBLoss">
<polygon fill="white" stroke="black" points="229,-0.5 229,-19.5 316,-19.5 316,-0.5 229,-0.5"/>
<text text-anchor="middle" x="272.5" y="-7.5" font-family="Helvetica,sans-Serif" font-size="10.00">ITMAreadBLoss</text>
</a>
</g>
</g>
<!-- Node7&#45;&gt;Node8 -->
<g id="edge7" class="edge"><title>Node7&#45;&gt;Node8</title>
<path fill="none" stroke="midnightblue" d="M194.656,-24.1066C204.984,-22.2106 217.072,-19.9917 228.562,-17.8823"/>
<polygon fill="midnightblue" stroke="midnightblue" points="193.833,-20.6992 184.629,-25.9473 195.097,-27.5841 193.833,-20.6992"/>
</g>
</g>
</svg>
