<?xml version="1.0" encoding="UTF-8" standalone="no"?>
<!DOCTYPE svg PUBLIC "-//W3C//DTD SVG 1.1//EN"
 "http://www.w3.org/Graphics/SVG/1.1/DTD/svg11.dtd">
<!-- Generated by graphviz version 2.38.0 (20140413.2041)
 -->
<!-- Title: ascat Pages: 1 -->
<svg width="337pt" height="142pt"
 viewBox="0.00 0.00 337.00 142.00" xmlns="http://www.w3.org/2000/svg" xmlns:xlink="http://www.w3.org/1999/xlink">
<g id="graph0" class="graph" transform="scale(1 1) rotate(0) translate(4 138)">
<title>ascat</title>
<polygon fill="white" stroke="none" points="-4,4 -4,-138 333,-138 333,4 -4,4"/>
<!-- Node1 -->
<g id="node1" class="node"><title>Node1</title>
<polygon fill="#bfbfbf" stroke="black" points="0,-42.5 0,-61.5 41,-61.5 41,-42.5 0,-42.5"/>
<text text-anchor="middle" x="20.5" y="-49.5" font-family="Helvetica,sans-Serif" font-size="10.00">ascat</text>
</g>
<!-- Node2 -->
<g id="node2" class="node"><title>Node2</title>
<g id="a_node2"><a xlink:href="../../d3/dd0/ITMDLL_8cpp.html#a2fed233a4588a559e7ff32f9e23f709b" target="_top" xlink:title="lrprop">
<polygon fill="white" stroke="black" points="77,-42.5 77,-61.5 118,-61.5 118,-42.5 77,-42.5"/>
<text text-anchor="middle" x="97.5" y="-49.5" font-family="Helvetica,sans-Serif" font-size="10.00">lrprop</text>
</a>
</g>
</g>
<!-- Node1&#45;&gt;Node2 -->
<g id="edge1" class="edge"><title>Node1&#45;&gt;Node2</title>
<path fill="none" stroke="midnightblue" d="M51.305,-52C59.9214,-52 69.1042,-52 76.9262,-52"/>
<polygon fill="midnightblue" stroke="midnightblue" points="51.2054,-48.5001 41.2054,-52 51.2053,-55.5001 51.2054,-48.5001"/>
</g>
<!-- Node3 -->
<g id="node3" class="node"><title>Node3</title>
<g id="a_node3"><a xlink:href="../../d3/dd0/ITMDLL_8cpp.html#a152ccc6442f590f588a376c23453eb59" target="_top" xlink:title="qlrpfl">
<polygon fill="white" stroke="black" points="154,-66.5 154,-85.5 192,-85.5 192,-66.5 154,-66.5"/>
<text text-anchor="middle" x="173" y="-73.5" font-family="Helvetica,sans-Serif" font-size="10.00">qlrpfl</text>
</a>
</g>
</g>
<!-- Node2&#45;&gt;Node3 -->
<g id="edge2" class="edge"><title>Node2&#45;&gt;Node3</title>
<path fill="none" stroke="midnightblue" d="M127.746,-61.5498C136.529,-64.4178 145.91,-67.4808 153.764,-70.0453"/>
<polygon fill="midnightblue" stroke="midnightblue" points="128.789,-58.2085 118.197,-58.4316 126.616,-64.8628 128.789,-58.2085"/>
</g>
<!-- Node7 -->
<g id="node7" class="node"><title>Node7</title>
<g id="a_node7"><a xlink:href="../../d3/dd0/ITMDLL_8cpp.html#ae3537f4e89c5341305b58cf0bdde5a96" target="_top" xlink:title="area">
<polygon fill="white" stroke="black" points="155.5,-19.5 155.5,-38.5 190.5,-38.5 190.5,-19.5 155.5,-19.5"/>
<text text-anchor="middle" x="173" y="-26.5" font-family="Helvetica,sans-Serif" font-size="10.00">area</text>
</a>
</g>
</g>
<!-- Node2&#45;&gt;Node7 -->
<g id="edge6" class="edge"><title>Node2&#45;&gt;Node7</title>
<path fill="none" stroke="midnightblue" d="M127.908,-42.7976C137.203,-39.889 147.151,-36.7759 155.241,-34.2442"/>
<polygon fill="midnightblue" stroke="midnightblue" points="126.695,-39.5096 118.197,-45.8364 128.786,-46.1902 126.695,-39.5096"/>
</g>
<!-- Node4 -->
<g id="node4" class="node"><title>Node4</title>
<g id="a_node4"><a xlink:href="../../d3/dd0/ITMDLL_8cpp.html#ac26ba1067f85b552c9fb7e26374f6ed5" target="_top" xlink:title="point_to_point">
<polygon fill="white" stroke="black" points="240,-114.5 240,-133.5 317,-133.5 317,-114.5 240,-114.5"/>
<text text-anchor="middle" x="278.5" y="-121.5" font-family="Helvetica,sans-Serif" font-size="10.00">point_to_point</text>
</a>
</g>
</g>
<!-- Node3&#45;&gt;Node4 -->
<g id="edge3" class="edge"><title>Node3&#45;&gt;Node4</title>
<path fill="none" stroke="midnightblue" d="M199.774,-90.6978C208.604,-95.5019 218.622,-100.703 228,-105 235.28,-108.336 243.329,-111.599 250.784,-114.453"/>
<polygon fill="midnightblue" stroke="midnightblue" points="201.191,-87.4816 190.747,-85.702 197.802,-93.6064 201.191,-87.4816"/>
</g>
<!-- Node5 -->
<g id="node5" class="node"><title>Node5</title>
<g id="a_node5"><a xlink:href="../../d3/dd0/ITMDLL_8cpp.html#acbf64839f123247b9858d3c961d34558" target="_top" xlink:title="point_to_pointMDH">
<polygon fill="white" stroke="black" points="228,-76.5 228,-95.5 329,-95.5 329,-76.5 228,-76.5"/>
<text text-anchor="middle" x="278.5" y="-83.5" font-family="Helvetica,sans-Serif" font-size="10.00">point_to_pointMDH</text>
</a>
</g>
</g>
<!-- Node3&#45;&gt;Node5 -->
<g id="edge4" class="edge"><title>Node3&#45;&gt;Node5</title>
<path fill="none" stroke="midnightblue" d="M202.138,-78.7186C210.046,-79.4827 218.892,-80.3374 227.664,-81.1849"/>
<polygon fill="midnightblue" stroke="midnightblue" points="202.319,-75.2199 192.028,-77.7419 201.645,-82.1874 202.319,-75.2199"/>
</g>
<!-- Node6 -->
<g id="node6" class="node"><title>Node6</title>
<g id="a_node6"><a xlink:href="../../d3/dd0/ITMDLL_8cpp.html#a15b1b23c9cf6076e277df8f9b1b4572d" target="_top" xlink:title="point_to_pointDH">
<polygon fill="white" stroke="black" points="232.5,-38.5 232.5,-57.5 324.5,-57.5 324.5,-38.5 232.5,-38.5"/>
<text text-anchor="middle" x="278.5" y="-45.5" font-family="Helvetica,sans-Serif" font-size="10.00">point_to_pointDH</text>
</a>
</g>
</g>
<!-- Node3&#45;&gt;Node6 -->
<g id="edge5" class="edge"><title>Node3&#45;&gt;Node6</title>
<path fill="none" stroke="midnightblue" d="M201.8,-68.4793C214.193,-65.1265 228.938,-61.1376 242.107,-57.5748"/>
<polygon fill="midnightblue" stroke="midnightblue" points="200.767,-65.1327 192.028,-71.1228 202.595,-71.8898 200.767,-65.1327"/>
</g>
<!-- Node8 -->
<g id="node8" class="node"><title>Node8</title>
<g id="a_node8"><a xlink:href="../../d3/dd0/ITMDLL_8cpp.html#a47c92c2180a3df868488953eee50b603" target="_top" xlink:title="ITMAreadBLoss">
<polygon fill="white" stroke="black" points="235,-0.5 235,-19.5 322,-19.5 322,-0.5 235,-0.5"/>
<text text-anchor="middle" x="278.5" y="-7.5" font-family="Helvetica,sans-Serif" font-size="10.00">ITMAreadBLoss</text>
</a>
</g>
</g>
<!-- Node7&#45;&gt;Node8 -->
<g id="edge7" class="edge"><title>Node7&#45;&gt;Node8</title>
<path fill="none" stroke="midnightblue" d="M200.656,-24.1066C210.984,-22.2106 223.072,-19.9917 234.562,-17.8823"/>
<polygon fill="midnightblue" stroke="midnightblue" points="199.833,-20.6992 190.629,-25.9473 201.097,-27.5841 199.833,-20.6992"/>
</g>
</g>
</svg>
