<?xml version="1.0" encoding="UTF-8" standalone="no"?>
<!DOCTYPE svg PUBLIC "-//W3C//DTD SVG 1.1//EN"
 "http://www.w3.org/Graphics/SVG/1.1/DTD/svg11.dtd">
<!-- Generated by graphviz version 2.38.0 (20140413.2041)
 -->
<!-- Title: qtile Pages: 1 -->
<svg width="331pt" height="104pt"
 viewBox="0.00 0.00 331.00 104.00" xmlns="http://www.w3.org/2000/svg" xmlns:xlink="http://www.w3.org/1999/xlink">
<g id="graph0" class="graph" transform="scale(1 1) rotate(0) translate(4 100)">
<title>qtile</title>
<polygon fill="white" stroke="none" points="-4,4 -4,-100 327,-100 327,4 -4,4"/>
<!-- Node1 -->
<g id="node1" class="node"><title>Node1</title>
<polygon fill="#bfbfbf" stroke="black" points="0,-38.5 0,-57.5 35,-57.5 35,-38.5 0,-38.5"/>
<text text-anchor="middle" x="17.5" y="-45.5" font-family="Helvetica,sans-Serif" font-size="10.00">qtile</text>
</g>
<!-- Node2 -->
<g id="node2" class="node"><title>Node2</title>
<g id="a_node2"><a xlink:href="../../d3/dd0/ITMDLL_8cpp.html#a45e678693240356cd41b59d8edb5bb12" target="_top" xlink:title="d1thx">
<polygon fill="white" stroke="black" points="71,-38.5 71,-57.5 112,-57.5 112,-38.5 71,-38.5"/>
<text text-anchor="middle" x="91.5" y="-45.5" font-family="Helvetica,sans-Serif" font-size="10.00">d1thx</text>
</a>
</g>
</g>
<!-- Node1&#45;&gt;Node2 -->
<g id="edge1" class="edge"><title>Node1&#45;&gt;Node2</title>
<path fill="none" stroke="midnightblue" d="M45.3613,-48C53.8084,-48 62.9742,-48 70.8257,-48"/>
<polygon fill="midnightblue" stroke="midnightblue" points="45.1993,-44.5001 35.1992,-48 45.1992,-51.5001 45.1993,-44.5001"/>
</g>
<!-- Node3 -->
<g id="node3" class="node"><title>Node3</title>
<g id="a_node3"><a xlink:href="../../d3/dd0/ITMDLL_8cpp.html#a152ccc6442f590f588a376c23453eb59" target="_top" xlink:title="qlrpfl">
<polygon fill="white" stroke="black" points="148,-38.5 148,-57.5 186,-57.5 186,-38.5 148,-38.5"/>
<text text-anchor="middle" x="167" y="-45.5" font-family="Helvetica,sans-Serif" font-size="10.00">qlrpfl</text>
</a>
</g>
</g>
<!-- Node2&#45;&gt;Node3 -->
<g id="edge2" class="edge"><title>Node2&#45;&gt;Node3</title>
<path fill="none" stroke="midnightblue" d="M122.314,-48C130.932,-48 140.079,-48 147.764,-48"/>
<polygon fill="midnightblue" stroke="midnightblue" points="122.197,-44.5001 112.197,-48 122.197,-51.5001 122.197,-44.5001"/>
</g>
<!-- Node4 -->
<g id="node4" class="node"><title>Node4</title>
<g id="a_node4"><a xlink:href="../../d3/dd0/ITMDLL_8cpp.html#ac26ba1067f85b552c9fb7e26374f6ed5" target="_top" xlink:title="point_to_point">
<polygon fill="white" stroke="black" points="234,-76.5 234,-95.5 311,-95.5 311,-76.5 234,-76.5"/>
<text text-anchor="middle" x="272.5" y="-83.5" font-family="Helvetica,sans-Serif" font-size="10.00">point_to_point</text>
</a>
</g>
</g>
<!-- Node3&#45;&gt;Node4 -->
<g id="edge3" class="edge"><title>Node3&#45;&gt;Node4</title>
<path fill="none" stroke="midnightblue" d="M195.594,-58.131C211.089,-63.8202 230.31,-70.8771 245.533,-76.4662"/>
<polygon fill="midnightblue" stroke="midnightblue" points="196.622,-54.7801 186.028,-54.6191 194.209,-61.3513 196.622,-54.7801"/>
</g>
<!-- Node5 -->
<g id="node5" class="node"><title>Node5</title>
<g id="a_node5"><a xlink:href="../../d3/dd0/ITMDLL_8cpp.html#acbf64839f123247b9858d3c961d34558" target="_top" xlink:title="point_to_pointMDH">
<polygon fill="white" stroke="black" points="222,-38.5 222,-57.5 323,-57.5 323,-38.5 222,-38.5"/>
<text text-anchor="middle" x="272.5" y="-45.5" font-family="Helvetica,sans-Serif" font-size="10.00">point_to_pointMDH</text>
</a>
</g>
</g>
<!-- Node3&#45;&gt;Node5 -->
<g id="edge4" class="edge"><title>Node3&#45;&gt;Node5</title>
<path fill="none" stroke="midnightblue" d="M196.138,-48C204.046,-48 212.892,-48 221.664,-48"/>
<polygon fill="midnightblue" stroke="midnightblue" points="196.028,-44.5001 186.028,-48 196.028,-51.5001 196.028,-44.5001"/>
</g>
<!-- Node6 -->
<g id="node6" class="node"><title>Node6</title>
<g id="a_node6"><a xlink:href="../../d3/dd0/ITMDLL_8cpp.html#a15b1b23c9cf6076e277df8f9b1b4572d" target="_top" xlink:title="point_to_pointDH">
<polygon fill="white" stroke="black" points="226.5,-0.5 226.5,-19.5 318.5,-19.5 318.5,-0.5 226.5,-0.5"/>
<text text-anchor="middle" x="272.5" y="-7.5" font-family="Helvetica,sans-Serif" font-size="10.00">point_to_pointDH</text>
</a>
</g>
</g>
<!-- Node3&#45;&gt;Node6 -->
<g id="edge5" class="edge"><title>Node3&#45;&gt;Node6</title>
<path fill="none" stroke="midnightblue" d="M195.594,-37.869C211.089,-32.1798 230.31,-25.1229 245.533,-19.5338"/>
<polygon fill="midnightblue" stroke="midnightblue" points="194.209,-34.6487 186.028,-41.3809 196.622,-41.2199 194.209,-34.6487"/>
</g>
</g>
</svg>
