<?xml version="1.0" encoding="UTF-8" standalone="no"?>
<!DOCTYPE svg PUBLIC "-//W3C//DTD SVG 1.1//EN"
 "http://www.w3.org/Graphics/SVG/1.1/DTD/svg11.dtd">
<!-- Generated by graphviz version 2.38.0 (20140413.2041)
 -->
<!-- Title: point_to_pointMDH Pages: 1 -->
<!--zoomable 593 -->
<svg id="main" version="1.1" xmlns="http://www.w3.org/2000/svg" xmlns:xlink="http://www.w3.org/1999/xlink" xml:space="preserve" onload="init(evt)">
<style type="text/css"><![CDATA[
.edge:hover path { stroke: red; }
.edge:hover polygon { stroke: red; fill: red; }
]]></style>
<script type="text/javascript"><![CDATA[
var edges = document.getElementsByTagName('g');
if (edges && edges.length) {
  for (var i=0;i<edges.length;i++) {
    if (edges[i].id.substr(0,4)=='edge') {
      edges[i].setAttribute('class','edge');
    }
  }
}
]]></script>
        <defs>
                <circle id="rim" cx="0" cy="0" r="7"/>
                <circle id="rim2" cx="0" cy="0" r="3.5"/>
                <g id="zoomPlus">
                        <use xlink:href="#rim" fill="#404040">
                                <set attributeName="fill" to="#808080" begin="zoomplus.mouseover" end="zoomplus.mouseout"/>
                        </use>
                        <path d="M-4,0h8M0,-4v8" fill="none" stroke="white" stroke-width="1.5" pointer-events="none"/>
                </g>
                <g id="zoomMin">
                        <use xlink:href="#rim" fill="#404040">
                                <set attributeName="fill" to="#808080" begin="zoomminus.mouseover" end="zoomminus.mouseout"/>
                        </use>
                        <path d="M-4,0h8" fill="none" stroke="white" stroke-width="1.5" pointer-events="none"/>
                </g>
                <g id="dirArrow">
                        <path fill="none" stroke="white" stroke-width="1.5" d="M0,-3.0v7 M-2.5,-0.5L0,-3.0L2.5,-0.5"/>
                </g>
               <g id="resetDef">
                       <use xlink:href="#rim2" fill="#404040">
                               <set attributeName="fill" to="#808080" begin="reset.mouseover" end="reset.mouseout"/>
                       </use>
               </g>
        </defs>

<script type="text/javascript">
var viewWidth = 464;
var viewHeight = 593;
var sectionId = 'dynsection-28';
</script>
<script xlink:href="../../svgpan.js"/>
<svg id="graph" class="graph">
<g id="viewport">
<title>point_to_pointMDH</title>
<polygon fill="white" stroke="none" points="-4,4 -4,-589 460,-589 460,4 -4,4"/>
<!-- Node1 -->
<g id="node1" class="node"><title>Node1</title>
<polygon fill="#bfbfbf" stroke="black" points="0,-95.5 0,-114.5 101,-114.5 101,-95.5 0,-95.5"/>
<text text-anchor="middle" x="50.5" y="-102.5" font-family="Helvetica,sans-Serif" font-size="10.00">point_to_pointMDH</text>
</g>
<!-- Node2 -->
<g id="node2" class="node"><title>Node2</title>
<g id="a_node2"><a xlink:href="../../d2/d31/itm_8cpp.html#ad0a12435e029210dab38fce002347a31" target="_top" xlink:title="qerfi">
<polygon fill="white" stroke="black" points="138.5,-76.5 138.5,-95.5 173.5,-95.5 173.5,-76.5 138.5,-76.5"/>
<text text-anchor="middle" x="156" y="-83.5" font-family="Helvetica,sans-Serif" font-size="10.00">qerfi</text>
</a>
</g>
</g>
<!-- Node1&#45;&gt;Node2 -->
<g id="edge1" class="edge"><title>Node1&#45;&gt;Node2</title>
<path fill="none" stroke="midnightblue" d="M101.128,-95.8896C110.612,-94.1485 120.192,-92.3899 128.589,-90.8483"/>
<polygon fill="midnightblue" stroke="midnightblue" points="129.295,-94.2774 138.498,-89.0293 128.031,-87.3925 129.295,-94.2774"/>
</g>
<!-- Node4 -->
<g id="node4" class="node"><title>Node4</title>
<g id="a_node4"><a xlink:href="../../d2/d31/itm_8cpp.html#a35bdc04d015dd4e8c83f0ff5ffb4966a" target="_top" xlink:title="qlrps">
<polygon fill="white" stroke="black" points="137,-114.5 137,-133.5 175,-133.5 175,-114.5 137,-114.5"/>
<text text-anchor="middle" x="156" y="-121.5" font-family="Helvetica,sans-Serif" font-size="10.00">qlrps</text>
</a>
</g>
</g>
<!-- Node1&#45;&gt;Node4 -->
<g id="edge3" class="edge"><title>Node1&#45;&gt;Node4</title>
<path fill="none" stroke="midnightblue" d="M101.128,-114.11C109.831,-115.708 118.614,-117.32 126.49,-118.766"/>
<polygon fill="midnightblue" stroke="midnightblue" points="126.109,-122.255 136.576,-120.618 127.373,-115.37 126.109,-122.255"/>
</g>
<!-- Node5 -->
<g id="node5" class="node"><title>Node5</title>
<g id="a_node5"><a xlink:href="../../d2/d31/itm_8cpp.html#ae682440b4eaee05406c08f8ae48e60d8" target="_top" xlink:title="qlrpfl">
<polygon fill="white" stroke="black" points="137,-247.5 137,-266.5 175,-266.5 175,-247.5 137,-247.5"/>
<text text-anchor="middle" x="156" y="-254.5" font-family="Helvetica,sans-Serif" font-size="10.00">qlrpfl</text>
</a>
</g>
</g>
<!-- Node1&#45;&gt;Node5 -->
<g id="edge4" class="edge"><title>Node1&#45;&gt;Node5</title>
<path fill="none" stroke="midnightblue" d="M57.9744,-114.508C74.8916,-139.353 120.633,-206.528 142.727,-238.976"/>
<polygon fill="midnightblue" stroke="midnightblue" points="140.007,-241.199 148.528,-247.495 145.793,-237.26 140.007,-241.199"/>
</g>
<!-- Node21 -->
<g id="node21" class="node"><title>Node21</title>
<g id="a_node21"><a xlink:href="../../d2/d31/itm_8cpp.html#af10b92806af5d5946a8332763321e2df" target="_top" xlink:title="avar">
<polygon fill="white" stroke="black" points="138.5,-38.5 138.5,-57.5 173.5,-57.5 173.5,-38.5 138.5,-38.5"/>
<text text-anchor="middle" x="156" y="-45.5" font-family="Helvetica,sans-Serif" font-size="10.00">avar</text>
</a>
</g>
</g>
<!-- Node1&#45;&gt;Node21 -->
<g id="edge36" class="edge"><title>Node1&#45;&gt;Node21</title>
<path fill="none" stroke="midnightblue" d="M69.0574,-95.3307C85.635,-86.201 110.686,-72.4049 129.471,-62.0592"/>
<polygon fill="midnightblue" stroke="midnightblue" points="131.314,-65.0401 138.385,-57.1501 127.937,-58.9084 131.314,-65.0401"/>
</g>
<!-- Node3 -->
<g id="node3" class="node"><title>Node3</title>
<g id="a_node3"><a xlink:href="../../d2/d31/itm_8cpp.html#aef74668a97df8c1c4614043e233d38fe" target="_top" xlink:title="mymax">
<polygon fill="white" stroke="black" points="387,-171.5 387,-190.5 436,-190.5 436,-171.5 387,-171.5"/>
<text text-anchor="middle" x="411.5" y="-178.5" font-family="Helvetica,sans-Serif" font-size="10.00">mymax</text>
</a>
</g>
</g>
<!-- Node2&#45;&gt;Node3 -->
<g id="edge2" class="edge"><title>Node2&#45;&gt;Node3</title>
<path fill="none" stroke="midnightblue" d="M173.633,-92.2332C214.8,-107.661 322.079,-147.864 377.016,-168.452"/>
<polygon fill="midnightblue" stroke="midnightblue" points="376.045,-171.825 386.637,-172.057 378.501,-165.271 376.045,-171.825"/>
</g>
<!-- Node5&#45;&gt;Node3 -->
<g id="edge17" class="edge"><title>Node5&#45;&gt;Node3</title>
<path fill="none" stroke="midnightblue" d="M160.856,-247.481C168.055,-231.018 185.187,-197.416 211,-181 261.489,-148.89 334.686,-160.118 376.951,-170.814"/>
<polygon fill="midnightblue" stroke="midnightblue" points="376.18,-174.231 386.744,-173.425 377.983,-167.467 376.18,-174.231"/>
</g>
<!-- Node6 -->
<g id="node6" class="node"><title>Node6</title>
<g id="a_node6"><a xlink:href="../../d2/d31/itm_8cpp.html#a33721834e531cc713891ff5da4ab5d1f" target="_top" xlink:title="hzns">
<polygon fill="white" stroke="black" points="212.5,-190.5 212.5,-209.5 250.5,-209.5 250.5,-190.5 212.5,-190.5"/>
<text text-anchor="middle" x="231.5" y="-197.5" font-family="Helvetica,sans-Serif" font-size="10.00">hzns</text>
</a>
</g>
</g>
<!-- Node5&#45;&gt;Node6 -->
<g id="edge5" class="edge"><title>Node5&#45;&gt;Node6</title>
<path fill="none" stroke="midnightblue" d="M169.468,-247.331C180.623,-238.68 197.179,-225.841 210.234,-215.716"/>
<polygon fill="midnightblue" stroke="midnightblue" points="212.459,-218.421 218.216,-209.526 208.169,-212.889 212.459,-218.421"/>
</g>
<!-- Node7 -->
<g id="node7" class="node"><title>Node7</title>
<g id="a_node7"><a xlink:href="../../d2/d31/itm_8cpp.html#ae383616ab74473e2622ac352721e342f" target="_top" xlink:title="mymin">
<polygon fill="white" stroke="black" points="388.5,-344.5 388.5,-363.5 434.5,-363.5 434.5,-344.5 388.5,-344.5"/>
<text text-anchor="middle" x="411.5" y="-351.5" font-family="Helvetica,sans-Serif" font-size="10.00">mymin</text>
</a>
</g>
</g>
<!-- Node5&#45;&gt;Node7 -->
<g id="edge6" class="edge"><title>Node5&#45;&gt;Node7</title>
<path fill="none" stroke="midnightblue" d="M175.231,-263.976C217.981,-280.334 325.11,-321.326 378.796,-341.868"/>
<polygon fill="midnightblue" stroke="midnightblue" points="377.58,-345.151 388.17,-345.456 380.081,-338.613 377.58,-345.151"/>
</g>
<!-- Node8 -->
<g id="node8" class="node"><title>Node8</title>
<g id="a_node8"><a xlink:href="../../d2/d31/itm_8cpp.html#a45e678693240356cd41b59d8edb5bb12" target="_top" xlink:title="d1thx">
<polygon fill="white" stroke="black" points="211,-228.5 211,-247.5 252,-247.5 252,-228.5 211,-228.5"/>
<text text-anchor="middle" x="231.5" y="-235.5" font-family="Helvetica,sans-Serif" font-size="10.00">d1thx</text>
</a>
</g>
</g>
<!-- Node5&#45;&gt;Node8 -->
<g id="edge7" class="edge"><title>Node5&#45;&gt;Node8</title>
<path fill="none" stroke="midnightblue" d="M175.169,-252.303C182.991,-250.281 192.337,-247.865 201.101,-245.6"/>
<polygon fill="midnightblue" stroke="midnightblue" points="202.191,-248.933 210.996,-243.042 200.439,-242.156 202.191,-248.933"/>
</g>
<!-- Node9 -->
<g id="node9" class="node"><title>Node9</title>
<g id="a_node9"><a xlink:href="../../d2/d31/itm_8cpp.html#a95a65538c0942d9e797bc3ea36ab7f08" target="_top" xlink:title="z1sq1">
<polygon fill="white" stroke="black" points="288,-494.5 288,-513.5 331,-513.5 331,-494.5 288,-494.5"/>
<text text-anchor="middle" x="309.5" y="-501.5" font-family="Helvetica,sans-Serif" font-size="10.00">z1sq1</text>
</a>
</g>
</g>
<!-- Node5&#45;&gt;Node9 -->
<g id="edge15" class="edge"><title>Node5&#45;&gt;Node9</title>
<path fill="none" stroke="midnightblue" d="M158.813,-266.571C163.876,-291.603 179.875,-360.427 211,-409 231.712,-441.323 265.395,-470.875 287.249,-488.159"/>
<polygon fill="midnightblue" stroke="midnightblue" points="285.22,-491.015 295.269,-494.372 289.506,-485.481 285.22,-491.015"/>
</g>
<!-- Node10 -->
<g id="node10" class="node"><title>Node10</title>
<g id="a_node10"><a xlink:href="../../d2/d31/itm_8cpp.html#ae61eab5929102f86b606d9007f0cc139" target="_top" xlink:title="FORTRAN_DIM">
<polygon fill="white" stroke="black" points="367,-480.5 367,-499.5 456,-499.5 456,-480.5 367,-480.5"/>
<text text-anchor="middle" x="411.5" y="-487.5" font-family="Helvetica,sans-Serif" font-size="10.00">FORTRAN_DIM</text>
</a>
</g>
</g>
<!-- Node5&#45;&gt;Node10 -->
<g id="edge16" class="edge"><title>Node5&#45;&gt;Node10</title>
<path fill="none" stroke="midnightblue" d="M157.274,-266.625C159.15,-311.474 173.81,-500.331 288,-561 304.877,-569.967 313.684,-569.086 331,-561 353.583,-550.454 348.308,-534.488 367,-518 372.34,-513.29 378.544,-508.811 384.566,-504.873"/>
<polygon fill="midnightblue" stroke="midnightblue" points="386.504,-507.789 393.135,-499.526 382.798,-501.851 386.504,-507.789"/>
</g>
<!-- Node12 -->
<g id="node12" class="node"><title>Node12</title>
<g id="a_node12"><a xlink:href="../../d2/d31/itm_8cpp.html#a32289828f24201e9dde6140e27708d73" target="_top" xlink:title="lrprop">
<polygon fill="white" stroke="black" points="211,-380.5 211,-399.5 252,-399.5 252,-380.5 211,-380.5"/>
<text text-anchor="middle" x="231.5" y="-387.5" font-family="Helvetica,sans-Serif" font-size="10.00">lrprop</text>
</a>
</g>
</g>
<!-- Node5&#45;&gt;Node12 -->
<g id="edge18" class="edge"><title>Node5&#45;&gt;Node12</title>
<path fill="none" stroke="midnightblue" d="M162.286,-266.565C174.358,-288.41 204.137,-342.296 220.061,-371.11"/>
<polygon fill="midnightblue" stroke="midnightblue" points="217.163,-373.103 225.064,-380.163 223.29,-369.717 217.163,-373.103"/>
</g>
<!-- Node8&#45;&gt;Node3 -->
<g id="edge9" class="edge"><title>Node8&#45;&gt;Node3</title>
<path fill="none" stroke="midnightblue" d="M242.496,-228.41C245.57,-225.421 248.947,-222.096 252,-219 268.335,-202.435 266.629,-190.192 288,-181 316.16,-168.887 351.445,-170.415 376.904,-174.062"/>
<polygon fill="midnightblue" stroke="midnightblue" points="376.393,-177.525 386.823,-175.66 377.507,-170.614 376.393,-177.525"/>
</g>
<!-- Node8&#45;&gt;Node7 -->
<g id="edge8" class="edge"><title>Node8&#45;&gt;Node7</title>
<path fill="none" stroke="midnightblue" d="M252.01,-238.036C273.556,-239.058 308.205,-243.723 331,-262 359.224,-284.629 340.834,-310.02 367,-335 370.539,-338.379 374.777,-341.212 379.198,-343.572"/>
<polygon fill="midnightblue" stroke="midnightblue" points="377.818,-346.79 388.367,-347.772 380.733,-340.425 377.818,-346.79"/>
</g>
<!-- Node8&#45;&gt;Node9 -->
<g id="edge10" class="edge"><title>Node8&#45;&gt;Node9</title>
<path fill="none" stroke="midnightblue" d="M234.754,-247.666C241.791,-277.552 264.297,-371.022 288,-447 291.987,-459.781 297.079,-473.947 301.19,-484.959"/>
<polygon fill="midnightblue" stroke="midnightblue" points="297.951,-486.289 304.763,-494.403 304.498,-483.812 297.951,-486.289"/>
</g>
<!-- Node11 -->
<g id="node11" class="node"><title>Node11</title>
<g id="a_node11"><a xlink:href="../../d2/d31/itm_8cpp.html#a8ab54b7902d55b592e2d76dafdb93069" target="_top" xlink:title="qtile">
<polygon fill="white" stroke="black" points="292,-190.5 292,-209.5 327,-209.5 327,-190.5 292,-190.5"/>
<text text-anchor="middle" x="309.5" y="-197.5" font-family="Helvetica,sans-Serif" font-size="10.00">qtile</text>
</a>
</g>
</g>
<!-- Node8&#45;&gt;Node11 -->
<g id="edge12" class="edge"><title>Node8&#45;&gt;Node11</title>
<path fill="none" stroke="midnightblue" d="M251.678,-228.411C261.075,-223.712 272.527,-217.986 282.681,-212.909"/>
<polygon fill="midnightblue" stroke="midnightblue" points="284.531,-215.898 291.91,-208.295 281.4,-209.637 284.531,-215.898"/>
</g>
<!-- Node9&#45;&gt;Node10 -->
<g id="edge11" class="edge"><title>Node9&#45;&gt;Node10</title>
<path fill="none" stroke="midnightblue" d="M331.22,-501.099C338.702,-500.052 347.534,-498.815 356.539,-497.555"/>
<polygon fill="midnightblue" stroke="midnightblue" points="357.298,-500.983 366.716,-496.13 356.327,-494.05 357.298,-500.983"/>
</g>
<!-- Node11&#45;&gt;Node3 -->
<g id="edge14" class="edge"><title>Node11&#45;&gt;Node3</title>
<path fill="none" stroke="midnightblue" d="M327.013,-196.863C340.519,-194.296 360.059,-190.584 376.84,-187.395"/>
<polygon fill="midnightblue" stroke="midnightblue" points="377.682,-190.798 386.853,-185.493 376.375,-183.921 377.682,-190.798"/>
</g>
<!-- Node11&#45;&gt;Node7 -->
<g id="edge13" class="edge"><title>Node11&#45;&gt;Node7</title>
<path fill="none" stroke="midnightblue" d="M320.235,-209.611C324.009,-213.757 328.11,-218.836 331,-224 356.33,-269.257 332.171,-296.572 367,-335 370.352,-338.698 374.552,-341.71 379.012,-344.153"/>
<polygon fill="midnightblue" stroke="midnightblue" points="377.792,-347.443 388.343,-348.407 380.696,-341.074 377.792,-347.443"/>
</g>
<!-- Node12&#45;&gt;Node3 -->
<g id="edge19" class="edge"><title>Node12&#45;&gt;Node3</title>
<path fill="none" stroke="midnightblue" d="M240.611,-380.477C268.353,-347.903 359.72,-240.624 395.727,-198.346"/>
<polygon fill="midnightblue" stroke="midnightblue" points="398.522,-200.462 402.342,-190.579 393.193,-195.923 398.522,-200.462"/>
</g>
<!-- Node12&#45;&gt;Node7 -->
<g id="edge28" class="edge"><title>Node12&#45;&gt;Node7</title>
<path fill="none" stroke="midnightblue" d="M252.146,-386.331C272.043,-382.586 303.693,-376.553 331,-371 346.582,-367.832 363.845,-364.16 378.293,-361.041"/>
<polygon fill="midnightblue" stroke="midnightblue" points="379.219,-364.421 388.251,-358.883 377.736,-357.58 379.219,-364.421"/>
</g>
<!-- Node12&#45;&gt;Node10 -->
<g id="edge29" class="edge"><title>Node12&#45;&gt;Node10</title>
<path fill="none" stroke="midnightblue" d="M239.7,-399.818C249.383,-412.383 267.743,-434.068 288,-447 309.514,-460.734 335.965,-470.732 358.775,-477.611"/>
<polygon fill="midnightblue" stroke="midnightblue" points="358.056,-481.046 368.635,-480.462 360.001,-474.322 358.056,-481.046"/>
</g>
<!-- Node13 -->
<g id="node13" class="node"><title>Node13</title>
<g id="a_node13"><a xlink:href="../../d2/d31/itm_8cpp.html#a61774c377cce1be80117b174ac61eef2" target="_top" xlink:title="adiff">
<polygon fill="white" stroke="black" points="292,-532.5 292,-551.5 327,-551.5 327,-532.5 292,-532.5"/>
<text text-anchor="middle" x="309.5" y="-539.5" font-family="Helvetica,sans-Serif" font-size="10.00">adiff</text>
</a>
</g>
</g>
<!-- Node12&#45;&gt;Node13 -->
<g id="edge20" class="edge"><title>Node12&#45;&gt;Node13</title>
<path fill="none" stroke="midnightblue" d="M235.005,-399.725C241.242,-422.707 259.074,-481.555 288,-523 288.437,-523.627 288.899,-524.248 289.379,-524.863"/>
<polygon fill="midnightblue" stroke="midnightblue" points="286.953,-527.394 296.332,-532.321 292.073,-522.62 286.953,-527.394"/>
</g>
<!-- Node16 -->
<g id="node16" class="node"><title>Node16</title>
<g id="a_node16"><a xlink:href="../../d2/d31/itm_8cpp.html#a404799cf89ce54ce7b92e13ad355ad85" target="_top" xlink:title="alos">
<polygon fill="white" stroke="black" points="292,-342.5 292,-361.5 327,-361.5 327,-342.5 292,-342.5"/>
<text text-anchor="middle" x="309.5" y="-349.5" font-family="Helvetica,sans-Serif" font-size="10.00">alos</text>
</a>
</g>
</g>
<!-- Node12&#45;&gt;Node16 -->
<g id="edge24" class="edge"><title>Node12&#45;&gt;Node16</title>
<path fill="none" stroke="midnightblue" d="M251.678,-380.411C261.075,-375.712 272.527,-369.986 282.681,-364.909"/>
<polygon fill="midnightblue" stroke="midnightblue" points="284.531,-367.898 291.91,-360.295 281.4,-361.637 284.531,-367.898"/>
</g>
<!-- Node18 -->
<g id="node18" class="node"><title>Node18</title>
<g id="a_node18"><a xlink:href="../../d2/d31/itm_8cpp.html#a74cbbcd996594f97dd6088dbbaff27c7" target="_top" xlink:title="ascat">
<polygon fill="white" stroke="black" points="289,-418.5 289,-437.5 330,-437.5 330,-418.5 289,-418.5"/>
<text text-anchor="middle" x="309.5" y="-425.5" font-family="Helvetica,sans-Serif" font-size="10.00">ascat</text>
</a>
</g>
</g>
<!-- Node12&#45;&gt;Node18 -->
<g id="edge30" class="edge"><title>Node12&#45;&gt;Node18</title>
<path fill="none" stroke="midnightblue" d="M251.678,-399.589C260.319,-403.909 270.697,-409.098 280.205,-413.853"/>
<polygon fill="midnightblue" stroke="midnightblue" points="278.819,-417.072 289.328,-418.414 281.949,-410.811 278.819,-417.072"/>
</g>
<!-- Node13&#45;&gt;Node7 -->
<g id="edge21" class="edge"><title>Node13&#45;&gt;Node7</title>
<path fill="none" stroke="midnightblue" d="M323.454,-532.151C326.291,-529.456 329.032,-526.346 331,-523 365.106,-465.024 325.158,-428.666 367,-376 370.336,-371.801 374.687,-368.332 379.345,-365.49"/>
<polygon fill="midnightblue" stroke="midnightblue" points="381.213,-368.465 388.495,-360.769 378.003,-362.244 381.213,-368.465"/>
</g>
<!-- Node14 -->
<g id="node14" class="node"><title>Node14</title>
<g id="a_node14"><a xlink:href="../../d2/d31/itm_8cpp.html#a58865d6a14f0fb4c0da66d610f830cdb" target="_top" xlink:title="fht">
<polygon fill="white" stroke="black" points="397,-565.5 397,-584.5 426,-584.5 426,-565.5 397,-565.5"/>
<text text-anchor="middle" x="411.5" y="-572.5" font-family="Helvetica,sans-Serif" font-size="10.00">fht</text>
</a>
</g>
</g>
<!-- Node13&#45;&gt;Node14 -->
<g id="edge22" class="edge"><title>Node13&#45;&gt;Node14</title>
<path fill="none" stroke="midnightblue" d="M327.013,-547.449C343.413,-552.861 368.707,-561.208 387.158,-567.297"/>
<polygon fill="midnightblue" stroke="midnightblue" points="386.264,-570.688 396.857,-570.498 388.458,-564.04 386.264,-570.688"/>
</g>
<!-- Node15 -->
<g id="node15" class="node"><title>Node15</title>
<g id="a_node15"><a xlink:href="../../d2/d31/itm_8cpp.html#a133ac157c106bdbab35606739556ed65" target="_top" xlink:title="aknfe">
<polygon fill="white" stroke="black" points="391,-527.5 391,-546.5 432,-546.5 432,-527.5 391,-527.5"/>
<text text-anchor="middle" x="411.5" y="-534.5" font-family="Helvetica,sans-Serif" font-size="10.00">aknfe</text>
</a>
</g>
</g>
<!-- Node13&#45;&gt;Node15 -->
<g id="edge23" class="edge"><title>Node13&#45;&gt;Node15</title>
<path fill="none" stroke="midnightblue" d="M327.013,-541.174C341.53,-540.449 363.017,-539.374 380.557,-538.497"/>
<polygon fill="midnightblue" stroke="midnightblue" points="381.057,-541.977 390.87,-537.982 380.708,-534.985 381.057,-541.977"/>
</g>
<!-- Node16&#45;&gt;Node3 -->
<g id="edge25" class="edge"><title>Node16&#45;&gt;Node3</title>
<path fill="none" stroke="midnightblue" d="M319.776,-342.103C323.48,-337.914 327.652,-332.88 331,-328 360.823,-284.532 388.358,-228.721 401.831,-199.981"/>
<polygon fill="midnightblue" stroke="midnightblue" points="405.108,-201.235 406.137,-190.69 398.756,-198.292 405.108,-201.235"/>
</g>
<!-- Node16&#45;&gt;Node7 -->
<g id="edge26" class="edge"><title>Node16&#45;&gt;Node7</title>
<path fill="none" stroke="midnightblue" d="M327.013,-352.33C340.887,-352.608 361.127,-353.013 378.203,-353.354"/>
<polygon fill="midnightblue" stroke="midnightblue" points="378.274,-356.856 388.342,-353.557 378.414,-349.857 378.274,-356.856"/>
</g>
<!-- Node17 -->
<g id="node17" class="node"><title>Node17</title>
<g id="a_node17"><a xlink:href="../../d2/d31/itm_8cpp.html#aea4c472ad2b67e25eefe72767a817667" target="_top" xlink:title="abq_alos">
<polygon fill="white" stroke="black" points="383.5,-306.5 383.5,-325.5 439.5,-325.5 439.5,-306.5 383.5,-306.5"/>
<text text-anchor="middle" x="411.5" y="-313.5" font-family="Helvetica,sans-Serif" font-size="10.00">abq_alos</text>
</a>
</g>
</g>
<!-- Node16&#45;&gt;Node17 -->
<g id="edge27" class="edge"><title>Node16&#45;&gt;Node17</title>
<path fill="none" stroke="midnightblue" d="M327.013,-346.055C339.784,-341.458 357.95,-334.918 374.077,-329.112"/>
<polygon fill="midnightblue" stroke="midnightblue" points="375.565,-332.297 383.788,-325.616 373.194,-325.71 375.565,-332.297"/>
</g>
<!-- Node18&#45;&gt;Node3 -->
<g id="edge31" class="edge"><title>Node18&#45;&gt;Node3</title>
<path fill="none" stroke="midnightblue" d="M314.42,-418.317C329.324,-381.506 382.631,-249.838 402.744,-200.158"/>
<polygon fill="midnightblue" stroke="midnightblue" points="406.098,-201.198 406.607,-190.616 399.61,-198.571 406.098,-201.198"/>
</g>
<!-- Node18&#45;&gt;Node7 -->
<g id="edge32" class="edge"><title>Node18&#45;&gt;Node7</title>
<path fill="none" stroke="midnightblue" d="M319.414,-418.313C330.013,-407.166 348.593,-388.758 367,-376 370.965,-373.252 375.32,-370.637 379.696,-368.232"/>
<polygon fill="midnightblue" stroke="midnightblue" points="381.326,-371.33 388.589,-363.615 378.101,-365.117 381.326,-371.33"/>
</g>
<!-- Node18&#45;&gt;Node10 -->
<g id="edge34" class="edge"><title>Node18&#45;&gt;Node10</title>
<path fill="none" stroke="midnightblue" d="M326.125,-437.688C342.27,-447.697 367.682,-463.453 386.402,-475.059"/>
<polygon fill="midnightblue" stroke="midnightblue" points="384.641,-478.086 394.985,-480.381 388.33,-472.136 384.641,-478.086"/>
</g>
<!-- Node19 -->
<g id="node19" class="node"><title>Node19</title>
<g id="a_node19"><a xlink:href="../../d2/d31/itm_8cpp.html#a8e415ee823bbb4b0da13d5f81f042d7f" target="_top" xlink:title="h0f">
<polygon fill="white" stroke="black" points="396.5,-423.5 396.5,-442.5 426.5,-442.5 426.5,-423.5 396.5,-423.5"/>
<text text-anchor="middle" x="411.5" y="-430.5" font-family="Helvetica,sans-Serif" font-size="10.00">h0f</text>
</a>
</g>
</g>
<!-- Node18&#45;&gt;Node19 -->
<g id="edge33" class="edge"><title>Node18&#45;&gt;Node19</title>
<path fill="none" stroke="midnightblue" d="M330.257,-428.988C346.226,-429.786 368.787,-430.914 385.921,-431.771"/>
<polygon fill="midnightblue" stroke="midnightblue" points="386.111,-435.285 396.274,-432.289 386.461,-428.294 386.111,-435.285"/>
</g>
<!-- Node20 -->
<g id="node20" class="node"><title>Node20</title>
<g id="a_node20"><a xlink:href="../../d2/d31/itm_8cpp.html#a5cd3659f451452a38a465a50992b9e7c" target="_top" xlink:title="ahd">
<polygon fill="white" stroke="black" points="395.5,-385.5 395.5,-404.5 427.5,-404.5 427.5,-385.5 395.5,-385.5"/>
<text text-anchor="middle" x="411.5" y="-392.5" font-family="Helvetica,sans-Serif" font-size="10.00">ahd</text>
</a>
</g>
</g>
<!-- Node18&#45;&gt;Node20 -->
<g id="edge35" class="edge"><title>Node18&#45;&gt;Node20</title>
<path fill="none" stroke="midnightblue" d="M330.257,-421.48C346.095,-416.254 368.418,-408.887 385.499,-403.25"/>
<polygon fill="midnightblue" stroke="midnightblue" points="386.953,-406.456 395.353,-399.999 384.76,-399.809 386.953,-406.456"/>
</g>
<!-- Node21&#45;&gt;Node3 -->
<g id="edge37" class="edge"><title>Node21&#45;&gt;Node3</title>
<path fill="none" stroke="midnightblue" d="M173.632,-55.1578C204.978,-68.8167 274.706,-100.008 331,-131 350.701,-141.846 372.251,-155.519 387.938,-165.825"/>
<polygon fill="midnightblue" stroke="midnightblue" points="386.17,-168.851 396.439,-171.456 390.036,-163.016 386.17,-168.851"/>
</g>
<!-- Node22 -->
<g id="node22" class="node"><title>Node22</title>
<g id="a_node22"><a xlink:href="../../d2/d31/itm_8cpp.html#acc398b6d1b1334689f775af613edb43f" target="_top" xlink:title="curve">
<polygon fill="white" stroke="black" points="211,-0.5 211,-19.5 252,-19.5 252,-0.5 211,-0.5"/>
<text text-anchor="middle" x="231.5" y="-7.5" font-family="Helvetica,sans-Serif" font-size="10.00">curve</text>
</a>
</g>
</g>
<!-- Node21&#45;&gt;Node22 -->
<g id="edge38" class="edge"><title>Node21&#45;&gt;Node22</title>
<path fill="none" stroke="midnightblue" d="M173.678,-39.3772C182.344,-34.8967 193.159,-29.3057 203.02,-24.2073"/>
<polygon fill="midnightblue" stroke="midnightblue" points="204.806,-27.224 212.082,-19.5223 201.591,-21.0059 204.806,-27.224"/>
</g>
</g>
</svg>
        <g id="navigator" transform="translate(0 0)" fill="#404254">
                <rect fill="#f2f5e9" fill-opacity="0.5" stroke="#606060" stroke-width=".5" x="0" y="0" width="60" height="60"/>
                <use id="zoomplus" xlink:href="#zoomPlus" x="17" y="9" onmousedown="handleZoom(evt,'in')"/>
                <use id="zoomminus" xlink:href="#zoomMin" x="42" y="9" onmousedown="handleZoom(evt,'out')"/>
                <use id="reset" xlink:href="#resetDef" x="30" y="36" onmousedown="handleReset()"/>
                <g id="arrowUp" xlink:href="#dirArrow" transform="translate(30 24)" onmousedown="handlePan(0,-1)">
                  <use xlink:href="#rim" fill="#404040">
                        <set attributeName="fill" to="#808080" begin="arrowUp.mouseover" end="arrowUp.mouseout"/>
                  </use>
                  <path fill="none" stroke="white" stroke-width="1.5" d="M0,-3.0v7 M-2.5,-0.5L0,-3.0L2.5,-0.5"/>
                </g>
                <g id="arrowRight" xlink:href="#dirArrow" transform="rotate(90) translate(36 -43)" onmousedown="handlePan(1,0)">
                  <use xlink:href="#rim" fill="#404040">
                        <set attributeName="fill" to="#808080" begin="arrowRight.mouseover" end="arrowRight.mouseout"/>
                  </use>
                  <path fill="none" stroke="white" stroke-width="1.5" d="M0,-3.0v7 M-2.5,-0.5L0,-3.0L2.5,-0.5"/>
                </g>
                <g id="arrowDown" xlink:href="#dirArrow" transform="rotate(180) translate(-30 -48)" onmousedown="handlePan(0,1)">
                  <use xlink:href="#rim" fill="#404040">
                        <set attributeName="fill" to="#808080" begin="arrowDown.mouseover" end="arrowDown.mouseout"/>
                  </use>
                  <path fill="none" stroke="white" stroke-width="1.5" d="M0,-3.0v7 M-2.5,-0.5L0,-3.0L2.5,-0.5"/>
                </g>
                <g id="arrowLeft" xlink:href="#dirArrow" transform="rotate(270) translate(-36 17)" onmousedown="handlePan(-1,0)">
                  <use xlink:href="#rim" fill="#404040">
                        <set attributeName="fill" to="#808080" begin="arrowLeft.mouseover" end="arrowLeft.mouseout"/>
                  </use>
                  <path fill="none" stroke="white" stroke-width="1.5" d="M0,-3.0v7 M-2.5,-0.5L0,-3.0L2.5,-0.5"/>
                </g>
        </g>
        <svg viewBox="0 0 15 15" width="100%" height="30px" preserveAspectRatio="xMaxYMin meet">
         <g id="arrow_out" transform="scale(0.3 0.3)">
          <a xlink:href="ITMDLL_8cpp_acbf64839f123247b9858d3c961d34558_cgraph_org.svg" target="_base">
           <rect id="button" ry="5" rx="5" y="6" x="6" height="38" width="38"
                fill="#f2f5e9" fill-opacity="0.5" stroke="#606060" stroke-width="1.0"/>
           <path id="arrow"
             d="M 11.500037,31.436501 C 11.940474,20.09759 22.043105,11.32322 32.158766,21.979434 L 37.068811,17.246167 C 37.068811,17.246167 37.088388,32 37.088388,32 L 22.160133,31.978069 C 22.160133,31.978069 26.997745,27.140456 26.997745,27.140456 C 18.528582,18.264221 13.291696,25.230495 11.500037,31.436501 z"
             style="fill:#404040;"/>
          </a>
         </g>
        </svg>
</svg>
