<?xml version="1.0" encoding="UTF-8" standalone="no"?>
<!DOCTYPE svg PUBLIC "-//W3C//DTD SVG 1.1//EN"
 "http://www.w3.org/Graphics/SVG/1.1/DTD/svg11.dtd">
<!-- Generated by graphviz version 2.38.0 (20140413.2041)
 -->
<!-- Title: FORTRAN_DIM Pages: 1 -->
<svg width="464pt" height="180pt"
 viewBox="0.00 0.00 464.00 180.00" xmlns="http://www.w3.org/2000/svg" xmlns:xlink="http://www.w3.org/1999/xlink">
<g id="graph0" class="graph" transform="scale(1 1) rotate(0) translate(4 176)">
<title>FORTRAN_DIM</title>
<polygon fill="white" stroke="none" points="-4,4 -4,-176 460,-176 460,4 -4,4"/>
<!-- Node1 -->
<g id="node1" class="node"><title>Node1</title>
<polygon fill="#bfbfbf" stroke="black" points="0,-95.5 0,-114.5 89,-114.5 89,-95.5 0,-95.5"/>
<text text-anchor="middle" x="44.5" y="-102.5" font-family="Helvetica,sans-Serif" font-size="10.00">FORTRAN_DIM</text>
</g>
<!-- Node2 -->
<g id="node2" class="node"><title>Node2</title>
<g id="a_node2"><a xlink:href="../../d3/dd0/ITMDLL_8cpp.html#a74cbbcd996594f97dd6088dbbaff27c7" target="_top" xlink:title="ascat">
<polygon fill="white" stroke="black" points="126,-152.5 126,-171.5 167,-171.5 167,-152.5 126,-152.5"/>
<text text-anchor="middle" x="146.5" y="-159.5" font-family="Helvetica,sans-Serif" font-size="10.00">ascat</text>
</a>
</g>
</g>
<!-- Node1&#45;&gt;Node2 -->
<g id="edge1" class="edge"><title>Node1&#45;&gt;Node2</title>
<path fill="none" stroke="midnightblue" d="M71.3522,-119.736C89.4557,-130.055 113.117,-143.542 128.787,-152.474"/>
<polygon fill="midnightblue" stroke="midnightblue" points="72.8847,-116.581 62.4636,-114.669 69.4182,-122.662 72.8847,-116.581"/>
</g>
<!-- Node3 -->
<g id="node3" class="node"><title>Node3</title>
<g id="a_node3"><a xlink:href="../../d3/dd0/ITMDLL_8cpp.html#a2fed233a4588a559e7ff32f9e23f709b" target="_top" xlink:title="lrprop">
<polygon fill="white" stroke="black" points="204,-114.5 204,-133.5 245,-133.5 245,-114.5 204,-114.5"/>
<text text-anchor="middle" x="224.5" y="-121.5" font-family="Helvetica,sans-Serif" font-size="10.00">lrprop</text>
</a>
</g>
</g>
<!-- Node1&#45;&gt;Node3 -->
<g id="edge9" class="edge"><title>Node1&#45;&gt;Node3</title>
<path fill="none" stroke="midnightblue" d="M99.2327,-110.736C134.606,-114.511 178.845,-119.234 203.864,-121.904"/>
<polygon fill="midnightblue" stroke="midnightblue" points="99.3587,-107.229 89.0437,-109.648 98.6157,-114.19 99.3587,-107.229"/>
</g>
<!-- Node4 -->
<g id="node4" class="node"><title>Node4</title>
<g id="a_node4"><a xlink:href="../../d3/dd0/ITMDLL_8cpp.html#a152ccc6442f590f588a376c23453eb59" target="_top" xlink:title="qlrpfl">
<polygon fill="white" stroke="black" points="281,-38.5 281,-57.5 319,-57.5 319,-38.5 281,-38.5"/>
<text text-anchor="middle" x="300" y="-45.5" font-family="Helvetica,sans-Serif" font-size="10.00">qlrpfl</text>
</a>
</g>
</g>
<!-- Node1&#45;&gt;Node4 -->
<g id="edge14" class="edge"><title>Node1&#45;&gt;Node4</title>
<path fill="none" stroke="midnightblue" d="M99.0734,-94.0804C139.317,-85.7257 195.741,-73.6889 245,-62 256.873,-59.1826 270.14,-55.7471 280.553,-52.9844"/>
<polygon fill="midnightblue" stroke="midnightblue" points="98.288,-90.6687 89.2048,-96.1227 99.7066,-97.5234 98.288,-90.6687"/>
</g>
<!-- Node10 -->
<g id="node10" class="node"><title>Node10</title>
<g id="a_node10"><a xlink:href="../../d3/dd0/ITMDLL_8cpp.html#a95a65538c0942d9e797bc3ea36ab7f08" target="_top" xlink:title="z1sq1">
<polygon fill="white" stroke="black" points="125,-38.5 125,-57.5 168,-57.5 168,-38.5 125,-38.5"/>
<text text-anchor="middle" x="146.5" y="-45.5" font-family="Helvetica,sans-Serif" font-size="10.00">z1sq1</text>
</a>
</g>
</g>
<!-- Node1&#45;&gt;Node10 -->
<g id="edge10" class="edge"><title>Node1&#45;&gt;Node10</title>
<path fill="none" stroke="midnightblue" d="M71.3522,-90.2642C89.4557,-79.9452 113.117,-66.4581 128.787,-57.5265"/>
<polygon fill="midnightblue" stroke="midnightblue" points="69.4182,-87.3379 62.4636,-95.3307 72.8847,-93.4194 69.4182,-87.3379"/>
</g>
<!-- Node2&#45;&gt;Node3 -->
<g id="edge2" class="edge"><title>Node2&#45;&gt;Node3</title>
<path fill="none" stroke="midnightblue" d="M175.801,-147.849C185.311,-143.095 195.688,-137.906 204.328,-133.586"/>
<polygon fill="midnightblue" stroke="midnightblue" points="174.057,-144.808 166.678,-152.411 177.188,-151.069 174.057,-144.808"/>
</g>
<!-- Node3&#45;&gt;Node4 -->
<g id="edge3" class="edge"><title>Node3&#45;&gt;Node4</title>
<path fill="none" stroke="midnightblue" d="M241.812,-107.133C256.468,-91.9785 277.483,-70.2491 289.535,-57.7874"/>
<polygon fill="midnightblue" stroke="midnightblue" points="239.245,-104.753 234.809,-114.375 244.277,-109.619 239.245,-104.753"/>
</g>
<!-- Node8 -->
<g id="node8" class="node"><title>Node8</title>
<g id="a_node8"><a xlink:href="../../d3/dd0/ITMDLL_8cpp.html#ae3537f4e89c5341305b58cf0bdde5a96" target="_top" xlink:title="area">
<polygon fill="white" stroke="black" points="282.5,-114.5 282.5,-133.5 317.5,-133.5 317.5,-114.5 282.5,-114.5"/>
<text text-anchor="middle" x="300" y="-121.5" font-family="Helvetica,sans-Serif" font-size="10.00">area</text>
</a>
</g>
</g>
<!-- Node3&#45;&gt;Node8 -->
<g id="edge7" class="edge"><title>Node3&#45;&gt;Node8</title>
<path fill="none" stroke="midnightblue" d="M255.204,-124C264.414,-124 274.237,-124 282.241,-124"/>
<polygon fill="midnightblue" stroke="midnightblue" points="255.197,-120.5 245.197,-124 255.197,-127.5 255.197,-120.5"/>
</g>
<!-- Node5 -->
<g id="node5" class="node"><title>Node5</title>
<g id="a_node5"><a xlink:href="../../d3/dd0/ITMDLL_8cpp.html#ac26ba1067f85b552c9fb7e26374f6ed5" target="_top" xlink:title="point_to_point">
<polygon fill="white" stroke="black" points="367,-76.5 367,-95.5 444,-95.5 444,-76.5 367,-76.5"/>
<text text-anchor="middle" x="405.5" y="-83.5" font-family="Helvetica,sans-Serif" font-size="10.00">point_to_point</text>
</a>
</g>
</g>
<!-- Node4&#45;&gt;Node5 -->
<g id="edge4" class="edge"><title>Node4&#45;&gt;Node5</title>
<path fill="none" stroke="midnightblue" d="M328.594,-58.131C344.089,-63.8202 363.31,-70.8771 378.533,-76.4662"/>
<polygon fill="midnightblue" stroke="midnightblue" points="329.622,-54.7801 319.028,-54.6191 327.209,-61.3513 329.622,-54.7801"/>
</g>
<!-- Node6 -->
<g id="node6" class="node"><title>Node6</title>
<g id="a_node6"><a xlink:href="../../d3/dd0/ITMDLL_8cpp.html#acbf64839f123247b9858d3c961d34558" target="_top" xlink:title="point_to_pointMDH">
<polygon fill="white" stroke="black" points="355,-38.5 355,-57.5 456,-57.5 456,-38.5 355,-38.5"/>
<text text-anchor="middle" x="405.5" y="-45.5" font-family="Helvetica,sans-Serif" font-size="10.00">point_to_pointMDH</text>
</a>
</g>
</g>
<!-- Node4&#45;&gt;Node6 -->
<g id="edge5" class="edge"><title>Node4&#45;&gt;Node6</title>
<path fill="none" stroke="midnightblue" d="M329.138,-48C337.046,-48 345.892,-48 354.664,-48"/>
<polygon fill="midnightblue" stroke="midnightblue" points="329.028,-44.5001 319.028,-48 329.028,-51.5001 329.028,-44.5001"/>
</g>
<!-- Node7 -->
<g id="node7" class="node"><title>Node7</title>
<g id="a_node7"><a xlink:href="../../d3/dd0/ITMDLL_8cpp.html#a15b1b23c9cf6076e277df8f9b1b4572d" target="_top" xlink:title="point_to_pointDH">
<polygon fill="white" stroke="black" points="359.5,-0.5 359.5,-19.5 451.5,-19.5 451.5,-0.5 359.5,-0.5"/>
<text text-anchor="middle" x="405.5" y="-7.5" font-family="Helvetica,sans-Serif" font-size="10.00">point_to_pointDH</text>
</a>
</g>
</g>
<!-- Node4&#45;&gt;Node7 -->
<g id="edge6" class="edge"><title>Node4&#45;&gt;Node7</title>
<path fill="none" stroke="midnightblue" d="M328.594,-37.869C344.089,-32.1798 363.31,-25.1229 378.533,-19.5338"/>
<polygon fill="midnightblue" stroke="midnightblue" points="327.209,-34.6487 319.028,-41.3809 329.622,-41.2199 327.209,-34.6487"/>
</g>
<!-- Node9 -->
<g id="node9" class="node"><title>Node9</title>
<g id="a_node9"><a xlink:href="../../d3/dd0/ITMDLL_8cpp.html#a47c92c2180a3df868488953eee50b603" target="_top" xlink:title="ITMAreadBLoss">
<polygon fill="white" stroke="black" points="362,-114.5 362,-133.5 449,-133.5 449,-114.5 362,-114.5"/>
<text text-anchor="middle" x="405.5" y="-121.5" font-family="Helvetica,sans-Serif" font-size="10.00">ITMAreadBLoss</text>
</a>
</g>
</g>
<!-- Node8&#45;&gt;Node9 -->
<g id="edge8" class="edge"><title>Node8&#45;&gt;Node9</title>
<path fill="none" stroke="midnightblue" d="M327.656,-124C337.984,-124 350.072,-124 361.562,-124"/>
<polygon fill="midnightblue" stroke="midnightblue" points="327.629,-120.5 317.629,-124 327.629,-127.5 327.629,-120.5"/>
</g>
<!-- Node10&#45;&gt;Node4 -->
<g id="edge13" class="edge"><title>Node10&#45;&gt;Node4</title>
<path fill="none" stroke="midnightblue" d="M178.448,-48C209.275,-48 255.554,-48 280.867,-48"/>
<polygon fill="midnightblue" stroke="midnightblue" points="178.248,-44.5001 168.248,-48 178.248,-51.5001 178.248,-44.5001"/>
</g>
<!-- Node11 -->
<g id="node11" class="node"><title>Node11</title>
<g id="a_node11"><a xlink:href="../../d3/dd0/ITMDLL_8cpp.html#a45e678693240356cd41b59d8edb5bb12" target="_top" xlink:title="d1thx">
<polygon fill="white" stroke="black" points="204,-0.5 204,-19.5 245,-19.5 245,-0.5 204,-0.5"/>
<text text-anchor="middle" x="224.5" y="-7.5" font-family="Helvetica,sans-Serif" font-size="10.00">d1thx</text>
</a>
</g>
</g>
<!-- Node10&#45;&gt;Node11 -->
<g id="edge11" class="edge"><title>Node10&#45;&gt;Node11</title>
<path fill="none" stroke="midnightblue" d="M175.801,-33.8494C185.311,-29.0947 195.688,-23.9059 204.328,-19.5859"/>
<polygon fill="midnightblue" stroke="midnightblue" points="174.057,-30.8083 166.678,-38.411 177.188,-37.0693 174.057,-30.8083"/>
</g>
<!-- Node11&#45;&gt;Node4 -->
<g id="edge12" class="edge"><title>Node11&#45;&gt;Node4</title>
<path fill="none" stroke="midnightblue" d="M253.011,-24.2233C262.356,-29.0549 272.554,-34.3273 280.967,-38.6768"/>
<polygon fill="midnightblue" stroke="midnightblue" points="254.538,-21.0726 244.047,-19.589 251.323,-27.2907 254.538,-21.0726"/>
</g>
</g>
</svg>
