<?xml version="1.0" encoding="UTF-8" standalone="no"?>
<!DOCTYPE svg PUBLIC "-//W3C//DTD SVG 1.1//EN"
 "http://www.w3.org/Graphics/SVG/1.1/DTD/svg11.dtd">
<!-- Generated by graphviz version 2.38.0 (20140413.2041)
 -->
<!-- Title: lrprop Pages: 1 -->
<svg width="251pt" height="294pt"
 viewBox="0.00 0.00 251.00 294.00" xmlns="http://www.w3.org/2000/svg" xmlns:xlink="http://www.w3.org/1999/xlink">
<g id="graph0" class="graph" transform="scale(1 1) rotate(0) translate(4 290)">
<title>lrprop</title>
<polygon fill="white" stroke="none" points="-4,4 -4,-290 247,-290 247,4 -4,4"/>
<!-- Node1 -->
<g id="node1" class="node"><title>Node1</title>
<polygon fill="#bfbfbf" stroke="black" points="0,-133.5 0,-152.5 41,-152.5 41,-133.5 0,-133.5"/>
<text text-anchor="middle" x="20.5" y="-140.5" font-family="Helvetica,sans-Serif" font-size="10.00">lrprop</text>
</g>
<!-- Node2 -->
<g id="node2" class="node"><title>Node2</title>
<g id="a_node2"><a xlink:href="../../d3/dd0/ITMDLL_8cpp.html#aef74668a97df8c1c4614043e233d38fe" target="_top" xlink:title="mymax">
<polygon fill="white" stroke="black" points="174,-114.5 174,-133.5 223,-133.5 223,-114.5 174,-114.5"/>
<text text-anchor="middle" x="198.5" y="-121.5" font-family="Helvetica,sans-Serif" font-size="10.00">mymax</text>
</a>
</g>
</g>
<!-- Node1&#45;&gt;Node2 -->
<g id="edge1" class="edge"><title>Node1&#45;&gt;Node2</title>
<path fill="none" stroke="midnightblue" d="M41.0075,-140.894C70.6585,-137.693 127.459,-131.561 163.86,-127.632"/>
<polygon fill="midnightblue" stroke="midnightblue" points="164.431,-131.09 173.998,-126.537 163.68,-124.131 164.431,-131.09"/>
</g>
<!-- Node3 -->
<g id="node3" class="node"><title>Node3</title>
<g id="a_node3"><a xlink:href="../../d3/dd0/ITMDLL_8cpp.html#a61774c377cce1be80117b174ac61eef2" target="_top" xlink:title="adiff">
<polygon fill="white" stroke="black" points="80,-228.5 80,-247.5 115,-247.5 115,-228.5 80,-228.5"/>
<text text-anchor="middle" x="97.5" y="-235.5" font-family="Helvetica,sans-Serif" font-size="10.00">adiff</text>
</a>
</g>
</g>
<!-- Node1&#45;&gt;Node3 -->
<g id="edge2" class="edge"><title>Node1&#45;&gt;Node3</title>
<path fill="none" stroke="midnightblue" d="M28.9833,-152.692C39.5911,-166.403 59.643,-192.222 77,-214 78.6395,-216.057 80.3659,-218.206 82.0857,-220.336"/>
<polygon fill="midnightblue" stroke="midnightblue" points="79.4691,-222.666 88.4886,-228.225 84.9041,-218.255 79.4691,-222.666"/>
</g>
<!-- Node4 -->
<g id="node4" class="node"><title>Node4</title>
<g id="a_node4"><a xlink:href="../../d3/dd0/ITMDLL_8cpp.html#ae383616ab74473e2622ac352721e342f" target="_top" xlink:title="mymin">
<polygon fill="white" stroke="black" points="175.5,-190.5 175.5,-209.5 221.5,-209.5 221.5,-190.5 175.5,-190.5"/>
<text text-anchor="middle" x="198.5" y="-197.5" font-family="Helvetica,sans-Serif" font-size="10.00">mymin</text>
</a>
</g>
</g>
<!-- Node1&#45;&gt;Node4 -->
<g id="edge10" class="edge"><title>Node1&#45;&gt;Node4</title>
<path fill="none" stroke="midnightblue" d="M32.5406,-152.784C43.1655,-161.632 60.0717,-174.27 77,-181 105.586,-192.364 140.525,-196.949 165.406,-198.789"/>
<polygon fill="midnightblue" stroke="midnightblue" points="165.204,-202.283 175.405,-199.422 165.646,-195.297 165.204,-202.283"/>
</g>
<!-- Node7 -->
<g id="node7" class="node"><title>Node7</title>
<g id="a_node7"><a xlink:href="../../d3/dd0/ITMDLL_8cpp.html#a404799cf89ce54ce7b92e13ad355ad85" target="_top" xlink:title="alos">
<polygon fill="white" stroke="black" points="80,-152.5 80,-171.5 115,-171.5 115,-152.5 80,-152.5"/>
<text text-anchor="middle" x="97.5" y="-159.5" font-family="Helvetica,sans-Serif" font-size="10.00">alos</text>
</a>
</g>
</g>
<!-- Node1&#45;&gt;Node7 -->
<g id="edge6" class="edge"><title>Node1&#45;&gt;Node7</title>
<path fill="none" stroke="midnightblue" d="M41.2054,-147.992C50.0022,-150.221 60.4997,-152.88 69.9728,-155.28"/>
<polygon fill="midnightblue" stroke="midnightblue" points="69.1677,-158.686 79.7211,-157.749 70.8868,-151.901 69.1677,-158.686"/>
</g>
<!-- Node9 -->
<g id="node9" class="node"><title>Node9</title>
<g id="a_node9"><a xlink:href="../../d3/dd0/ITMDLL_8cpp.html#ae61eab5929102f86b606d9007f0cc139" target="_top" xlink:title="FORTRAN_DIM">
<polygon fill="white" stroke="black" points="154,-0.5 154,-19.5 243,-19.5 243,-0.5 154,-0.5"/>
<text text-anchor="middle" x="198.5" y="-7.5" font-family="Helvetica,sans-Serif" font-size="10.00">FORTRAN_DIM</text>
</a>
</g>
</g>
<!-- Node1&#45;&gt;Node9 -->
<g id="edge11" class="edge"><title>Node1&#45;&gt;Node9</title>
<path fill="none" stroke="midnightblue" d="M26.4628,-133.448C34.983,-117.816 53.7425,-86.5595 77,-67 100.611,-47.1436 132.306,-32.511 157.264,-23.0458"/>
<polygon fill="midnightblue" stroke="midnightblue" points="158.625,-26.2747 166.812,-19.5496 156.218,-19.7015 158.625,-26.2747"/>
</g>
<!-- Node10 -->
<g id="node10" class="node"><title>Node10</title>
<g id="a_node10"><a xlink:href="../../d3/dd0/ITMDLL_8cpp.html#a74cbbcd996594f97dd6088dbbaff27c7" target="_top" xlink:title="ascat">
<polygon fill="white" stroke="black" points="77,-76.5 77,-95.5 118,-95.5 118,-76.5 77,-76.5"/>
<text text-anchor="middle" x="97.5" y="-83.5" font-family="Helvetica,sans-Serif" font-size="10.00">ascat</text>
</a>
</g>
</g>
<!-- Node1&#45;&gt;Node10 -->
<g id="edge12" class="edge"><title>Node1&#45;&gt;Node10</title>
<path fill="none" stroke="midnightblue" d="M34.2227,-133.331C45.6047,-124.68 62.4988,-111.841 75.8206,-101.716"/>
<polygon fill="midnightblue" stroke="midnightblue" points="78.1213,-104.364 83.9652,-95.5265 73.8857,-98.7908 78.1213,-104.364"/>
</g>
<!-- Node3&#45;&gt;Node4 -->
<g id="edge3" class="edge"><title>Node3&#45;&gt;Node4</title>
<path fill="none" stroke="midnightblue" d="M115.294,-231.554C129.129,-226.244 149.133,-218.565 165.944,-212.113"/>
<polygon fill="midnightblue" stroke="midnightblue" points="167.32,-215.333 175.402,-208.482 164.812,-208.798 167.32,-215.333"/>
</g>
<!-- Node5 -->
<g id="node5" class="node"><title>Node5</title>
<g id="a_node5"><a xlink:href="../../d3/dd0/ITMDLL_8cpp.html#a58865d6a14f0fb4c0da66d610f830cdb" target="_top" xlink:title="fht">
<polygon fill="white" stroke="black" points="184,-266.5 184,-285.5 213,-285.5 213,-266.5 184,-266.5"/>
<text text-anchor="middle" x="198.5" y="-273.5" font-family="Helvetica,sans-Serif" font-size="10.00">fht</text>
</a>
</g>
</g>
<!-- Node3&#45;&gt;Node5 -->
<g id="edge4" class="edge"><title>Node3&#45;&gt;Node5</title>
<path fill="none" stroke="midnightblue" d="M115.294,-244.446C131.51,-250.67 156.202,-260.148 174.292,-267.092"/>
<polygon fill="midnightblue" stroke="midnightblue" points="173.227,-270.432 183.817,-270.748 175.736,-263.897 173.227,-270.432"/>
</g>
<!-- Node6 -->
<g id="node6" class="node"><title>Node6</title>
<g id="a_node6"><a xlink:href="../../d3/dd0/ITMDLL_8cpp.html#a133ac157c106bdbab35606739556ed65" target="_top" xlink:title="aknfe">
<polygon fill="white" stroke="black" points="178,-228.5 178,-247.5 219,-247.5 219,-228.5 178,-228.5"/>
<text text-anchor="middle" x="198.5" y="-235.5" font-family="Helvetica,sans-Serif" font-size="10.00">aknfe</text>
</a>
</g>
</g>
<!-- Node3&#45;&gt;Node6 -->
<g id="edge5" class="edge"><title>Node3&#45;&gt;Node6</title>
<path fill="none" stroke="midnightblue" d="M115.294,-238C129.639,-238 150.617,-238 167.79,-238"/>
<polygon fill="midnightblue" stroke="midnightblue" points="167.898,-241.5 177.898,-238 167.898,-234.5 167.898,-241.5"/>
</g>
<!-- Node7&#45;&gt;Node2 -->
<g id="edge7" class="edge"><title>Node7&#45;&gt;Node2</title>
<path fill="none" stroke="midnightblue" d="M115.294,-155.554C128.76,-150.385 148.07,-142.973 164.592,-136.631"/>
<polygon fill="midnightblue" stroke="midnightblue" points="165.851,-139.897 173.932,-133.046 163.342,-133.362 165.851,-139.897"/>
</g>
<!-- Node7&#45;&gt;Node4 -->
<g id="edge8" class="edge"><title>Node7&#45;&gt;Node4</title>
<path fill="none" stroke="midnightblue" d="M115.294,-168.446C129.129,-173.756 149.133,-181.435 165.944,-187.887"/>
<polygon fill="midnightblue" stroke="midnightblue" points="164.812,-191.202 175.402,-191.518 167.32,-184.667 164.812,-191.202"/>
</g>
<!-- Node8 -->
<g id="node8" class="node"><title>Node8</title>
<g id="a_node8"><a xlink:href="../../d3/dd0/ITMDLL_8cpp.html#aea4c472ad2b67e25eefe72767a817667" target="_top" xlink:title="abq_alos">
<polygon fill="white" stroke="black" points="170.5,-152.5 170.5,-171.5 226.5,-171.5 226.5,-152.5 170.5,-152.5"/>
<text text-anchor="middle" x="198.5" y="-159.5" font-family="Helvetica,sans-Serif" font-size="10.00">abq_alos</text>
</a>
</g>
</g>
<!-- Node7&#45;&gt;Node8 -->
<g id="edge9" class="edge"><title>Node7&#45;&gt;Node8</title>
<path fill="none" stroke="midnightblue" d="M115.294,-162C127.486,-162 144.469,-162 159.835,-162"/>
<polygon fill="midnightblue" stroke="midnightblue" points="160.137,-165.5 170.137,-162 160.136,-158.5 160.137,-165.5"/>
</g>
<!-- Node10&#45;&gt;Node2 -->
<g id="edge13" class="edge"><title>Node10&#45;&gt;Node2</title>
<path fill="none" stroke="midnightblue" d="M118.059,-93.5076C131.187,-98.5466 148.816,-105.313 164.131,-111.192"/>
<polygon fill="midnightblue" stroke="midnightblue" points="163.201,-114.584 173.791,-114.9 165.709,-108.048 163.201,-114.584"/>
</g>
<!-- Node10&#45;&gt;Node4 -->
<g id="edge14" class="edge"><title>Node10&#45;&gt;Node4</title>
<path fill="none" stroke="midnightblue" d="M101.817,-95.6841C108.716,-114.515 126.311,-156.373 154,-181 157.489,-184.103 161.564,-186.763 165.795,-189.024"/>
<polygon fill="midnightblue" stroke="midnightblue" points="164.595,-192.326 175.14,-193.355 167.538,-185.975 164.595,-192.326"/>
</g>
<!-- Node10&#45;&gt;Node9 -->
<g id="edge16" class="edge"><title>Node10&#45;&gt;Node9</title>
<path fill="none" stroke="midnightblue" d="M105.852,-76.4108C115.7,-64.0926 134.237,-42.6742 154,-29 156.414,-27.3295 158.999,-25.7561 161.66,-24.2849"/>
<polygon fill="midnightblue" stroke="midnightblue" points="163.484,-27.2863 170.864,-19.6851 160.354,-21.0247 163.484,-27.2863"/>
</g>
<!-- Node11 -->
<g id="node11" class="node"><title>Node11</title>
<g id="a_node11"><a xlink:href="../../d3/dd0/ITMDLL_8cpp.html#a8e415ee823bbb4b0da13d5f81f042d7f" target="_top" xlink:title="h0f">
<polygon fill="white" stroke="black" points="183.5,-76.5 183.5,-95.5 213.5,-95.5 213.5,-76.5 183.5,-76.5"/>
<text text-anchor="middle" x="198.5" y="-83.5" font-family="Helvetica,sans-Serif" font-size="10.00">h0f</text>
</a>
</g>
</g>
<!-- Node10&#45;&gt;Node11 -->
<g id="edge15" class="edge"><title>Node10&#45;&gt;Node11</title>
<path fill="none" stroke="midnightblue" d="M118.059,-86C133.868,-86 156.204,-86 173.167,-86"/>
<polygon fill="midnightblue" stroke="midnightblue" points="173.416,-89.5001 183.416,-86 173.416,-82.5001 173.416,-89.5001"/>
</g>
<!-- Node12 -->
<g id="node12" class="node"><title>Node12</title>
<g id="a_node12"><a xlink:href="../../d3/dd0/ITMDLL_8cpp.html#a5cd3659f451452a38a465a50992b9e7c" target="_top" xlink:title="ahd">
<polygon fill="white" stroke="black" points="182.5,-38.5 182.5,-57.5 214.5,-57.5 214.5,-38.5 182.5,-38.5"/>
<text text-anchor="middle" x="198.5" y="-45.5" font-family="Helvetica,sans-Serif" font-size="10.00">ahd</text>
</a>
</g>
</g>
<!-- Node10&#45;&gt;Node12 -->
<g id="edge17" class="edge"><title>Node10&#45;&gt;Node12</title>
<path fill="none" stroke="midnightblue" d="M118.059,-78.4924C133.646,-72.5098 155.576,-64.0922 172.447,-57.6164"/>
<polygon fill="midnightblue" stroke="midnightblue" points="174.114,-60.7254 182.196,-53.8744 171.606,-54.1903 174.114,-60.7254"/>
</g>
</g>
</svg>
