<?xml version="1.0" encoding="UTF-8" standalone="no"?>
<!DOCTYPE svg PUBLIC "-//W3C//DTD SVG 1.1//EN"
 "http://www.w3.org/Graphics/SVG/1.1/DTD/svg11.dtd">
<!-- Generated by graphviz version 2.38.0 (20140413.2041)
 -->
<!-- Title: h0f Pages: 1 -->
<svg width="403pt" height="142pt"
 viewBox="0.00 0.00 403.00 142.00" xmlns="http://www.w3.org/2000/svg" xmlns:xlink="http://www.w3.org/1999/xlink">
<g id="graph0" class="graph" transform="scale(1 1) rotate(0) translate(4 138)">
<title>h0f</title>
<polygon fill="white" stroke="none" points="-4,4 -4,-138 399,-138 399,4 -4,4"/>
<!-- Node1 -->
<g id="node1" class="node"><title>Node1</title>
<polygon fill="#bfbfbf" stroke="black" points="0,-42.5 0,-61.5 30,-61.5 30,-42.5 0,-42.5"/>
<text text-anchor="middle" x="15" y="-49.5" font-family="Helvetica,sans-Serif" font-size="10.00">h0f</text>
</g>
<!-- Node2 -->
<g id="node2" class="node"><title>Node2</title>
<g id="a_node2"><a xlink:href="../../d3/dd0/ITMDLL_8cpp.html#a74cbbcd996594f97dd6088dbbaff27c7" target="_top" xlink:title="ascat">
<polygon fill="white" stroke="black" points="66,-42.5 66,-61.5 107,-61.5 107,-42.5 66,-42.5"/>
<text text-anchor="middle" x="86.5" y="-49.5" font-family="Helvetica,sans-Serif" font-size="10.00">ascat</text>
</a>
</g>
</g>
<!-- Node1&#45;&gt;Node2 -->
<g id="edge1" class="edge"><title>Node1&#45;&gt;Node2</title>
<path fill="none" stroke="midnightblue" d="M40.0884,-52C48.5296,-52 57.9002,-52 65.9265,-52"/>
<polygon fill="midnightblue" stroke="midnightblue" points="40.0644,-48.5001 30.0644,-52 40.0643,-55.5001 40.0644,-48.5001"/>
</g>
<!-- Node3 -->
<g id="node3" class="node"><title>Node3</title>
<g id="a_node3"><a xlink:href="../../d3/dd0/ITMDLL_8cpp.html#a2fed233a4588a559e7ff32f9e23f709b" target="_top" xlink:title="lrprop">
<polygon fill="white" stroke="black" points="143,-42.5 143,-61.5 184,-61.5 184,-42.5 143,-42.5"/>
<text text-anchor="middle" x="163.5" y="-49.5" font-family="Helvetica,sans-Serif" font-size="10.00">lrprop</text>
</a>
</g>
</g>
<!-- Node2&#45;&gt;Node3 -->
<g id="edge2" class="edge"><title>Node2&#45;&gt;Node3</title>
<path fill="none" stroke="midnightblue" d="M117.305,-52C125.921,-52 135.104,-52 142.926,-52"/>
<polygon fill="midnightblue" stroke="midnightblue" points="117.205,-48.5001 107.205,-52 117.205,-55.5001 117.205,-48.5001"/>
</g>
<!-- Node4 -->
<g id="node4" class="node"><title>Node4</title>
<g id="a_node4"><a xlink:href="../../d3/dd0/ITMDLL_8cpp.html#a152ccc6442f590f588a376c23453eb59" target="_top" xlink:title="qlrpfl">
<polygon fill="white" stroke="black" points="220,-66.5 220,-85.5 258,-85.5 258,-66.5 220,-66.5"/>
<text text-anchor="middle" x="239" y="-73.5" font-family="Helvetica,sans-Serif" font-size="10.00">qlrpfl</text>
</a>
</g>
</g>
<!-- Node3&#45;&gt;Node4 -->
<g id="edge3" class="edge"><title>Node3&#45;&gt;Node4</title>
<path fill="none" stroke="midnightblue" d="M193.746,-61.5498C202.529,-64.4178 211.91,-67.4808 219.764,-70.0453"/>
<polygon fill="midnightblue" stroke="midnightblue" points="194.789,-58.2085 184.197,-58.4316 192.616,-64.8628 194.789,-58.2085"/>
</g>
<!-- Node8 -->
<g id="node8" class="node"><title>Node8</title>
<g id="a_node8"><a xlink:href="../../d3/dd0/ITMDLL_8cpp.html#ae3537f4e89c5341305b58cf0bdde5a96" target="_top" xlink:title="area">
<polygon fill="white" stroke="black" points="221.5,-19.5 221.5,-38.5 256.5,-38.5 256.5,-19.5 221.5,-19.5"/>
<text text-anchor="middle" x="239" y="-26.5" font-family="Helvetica,sans-Serif" font-size="10.00">area</text>
</a>
</g>
</g>
<!-- Node3&#45;&gt;Node8 -->
<g id="edge7" class="edge"><title>Node3&#45;&gt;Node8</title>
<path fill="none" stroke="midnightblue" d="M193.908,-42.7976C203.203,-39.889 213.151,-36.7759 221.241,-34.2442"/>
<polygon fill="midnightblue" stroke="midnightblue" points="192.695,-39.5096 184.197,-45.8364 194.786,-46.1902 192.695,-39.5096"/>
</g>
<!-- Node5 -->
<g id="node5" class="node"><title>Node5</title>
<g id="a_node5"><a xlink:href="../../d3/dd0/ITMDLL_8cpp.html#ac26ba1067f85b552c9fb7e26374f6ed5" target="_top" xlink:title="point_to_point">
<polygon fill="white" stroke="black" points="306,-114.5 306,-133.5 383,-133.5 383,-114.5 306,-114.5"/>
<text text-anchor="middle" x="344.5" y="-121.5" font-family="Helvetica,sans-Serif" font-size="10.00">point_to_point</text>
</a>
</g>
</g>
<!-- Node4&#45;&gt;Node5 -->
<g id="edge4" class="edge"><title>Node4&#45;&gt;Node5</title>
<path fill="none" stroke="midnightblue" d="M265.774,-90.6978C274.604,-95.5019 284.622,-100.703 294,-105 301.28,-108.336 309.329,-111.599 316.784,-114.453"/>
<polygon fill="midnightblue" stroke="midnightblue" points="267.191,-87.4816 256.747,-85.702 263.802,-93.6064 267.191,-87.4816"/>
</g>
<!-- Node6 -->
<g id="node6" class="node"><title>Node6</title>
<g id="a_node6"><a xlink:href="../../d3/dd0/ITMDLL_8cpp.html#acbf64839f123247b9858d3c961d34558" target="_top" xlink:title="point_to_pointMDH">
<polygon fill="white" stroke="black" points="294,-76.5 294,-95.5 395,-95.5 395,-76.5 294,-76.5"/>
<text text-anchor="middle" x="344.5" y="-83.5" font-family="Helvetica,sans-Serif" font-size="10.00">point_to_pointMDH</text>
</a>
</g>
</g>
<!-- Node4&#45;&gt;Node6 -->
<g id="edge5" class="edge"><title>Node4&#45;&gt;Node6</title>
<path fill="none" stroke="midnightblue" d="M268.138,-78.7186C276.046,-79.4827 284.892,-80.3374 293.664,-81.1849"/>
<polygon fill="midnightblue" stroke="midnightblue" points="268.319,-75.2199 258.028,-77.7419 267.645,-82.1874 268.319,-75.2199"/>
</g>
<!-- Node7 -->
<g id="node7" class="node"><title>Node7</title>
<g id="a_node7"><a xlink:href="../../d3/dd0/ITMDLL_8cpp.html#a15b1b23c9cf6076e277df8f9b1b4572d" target="_top" xlink:title="point_to_pointDH">
<polygon fill="white" stroke="black" points="298.5,-38.5 298.5,-57.5 390.5,-57.5 390.5,-38.5 298.5,-38.5"/>
<text text-anchor="middle" x="344.5" y="-45.5" font-family="Helvetica,sans-Serif" font-size="10.00">point_to_pointDH</text>
</a>
</g>
</g>
<!-- Node4&#45;&gt;Node7 -->
<g id="edge6" class="edge"><title>Node4&#45;&gt;Node7</title>
<path fill="none" stroke="midnightblue" d="M267.8,-68.4793C280.193,-65.1265 294.938,-61.1376 308.107,-57.5748"/>
<polygon fill="midnightblue" stroke="midnightblue" points="266.767,-65.1327 258.028,-71.1228 268.595,-71.8898 266.767,-65.1327"/>
</g>
<!-- Node9 -->
<g id="node9" class="node"><title>Node9</title>
<g id="a_node9"><a xlink:href="../../d3/dd0/ITMDLL_8cpp.html#a47c92c2180a3df868488953eee50b603" target="_top" xlink:title="ITMAreadBLoss">
<polygon fill="white" stroke="black" points="301,-0.5 301,-19.5 388,-19.5 388,-0.5 301,-0.5"/>
<text text-anchor="middle" x="344.5" y="-7.5" font-family="Helvetica,sans-Serif" font-size="10.00">ITMAreadBLoss</text>
</a>
</g>
</g>
<!-- Node8&#45;&gt;Node9 -->
<g id="edge8" class="edge"><title>Node8&#45;&gt;Node9</title>
<path fill="none" stroke="midnightblue" d="M266.656,-24.1066C276.984,-22.2106 289.072,-19.9917 300.562,-17.8823"/>
<polygon fill="midnightblue" stroke="midnightblue" points="265.833,-20.6992 256.629,-25.9473 267.097,-27.5841 265.833,-20.6992"/>
</g>
</g>
</svg>
