<?xml version="1.0" encoding="UTF-8" standalone="no"?>
<!DOCTYPE svg PUBLIC "-//W3C//DTD SVG 1.1//EN"
 "http://www.w3.org/Graphics/SVG/1.1/DTD/svg11.dtd">
<!-- Generated by graphviz version 2.38.0 (20140413.2041)
 -->
<!-- Title: avar Pages: 1 -->
<svg width="303pt" height="142pt"
 viewBox="0.00 0.00 303.00 142.00" xmlns="http://www.w3.org/2000/svg" xmlns:xlink="http://www.w3.org/1999/xlink">
<g id="graph0" class="graph" transform="scale(1 1) rotate(0) translate(4 138)">
<title>avar</title>
<polygon fill="white" stroke="none" points="-4,4 -4,-138 299,-138 299,4 -4,4"/>
<!-- Node1 -->
<g id="node1" class="node"><title>Node1</title>
<polygon fill="#bfbfbf" stroke="black" points="0,-57.5 0,-76.5 35,-76.5 35,-57.5 0,-57.5"/>
<text text-anchor="middle" x="17.5" y="-64.5" font-family="Helvetica,sans-Serif" font-size="10.00">avar</text>
</g>
<!-- Node2 -->
<g id="node2" class="node"><title>Node2</title>
<g id="a_node2"><a xlink:href="../../d3/dd0/ITMDLL_8cpp.html#ac26ba1067f85b552c9fb7e26374f6ed5" target="_top" xlink:title="point_to_point">
<polygon fill="white" stroke="black" points="83,-114.5 83,-133.5 160,-133.5 160,-114.5 83,-114.5"/>
<text text-anchor="middle" x="121.5" y="-121.5" font-family="Helvetica,sans-Serif" font-size="10.00">point_to_point</text>
</a>
</g>
</g>
<!-- Node1&#45;&gt;Node2 -->
<g id="edge1" class="edge"><title>Node1&#45;&gt;Node2</title>
<path fill="none" stroke="midnightblue" d="M38.0419,-83.0148C47.5922,-90.3432 59.487,-98.7625 71,-105 77.5558,-108.552 84.9186,-111.758 91.9214,-114.482"/>
<polygon fill="midnightblue" stroke="midnightblue" points="40.0294,-80.1249 30.0085,-76.6852 35.6971,-85.6233 40.0294,-80.1249"/>
</g>
<!-- Node3 -->
<g id="node3" class="node"><title>Node3</title>
<g id="a_node3"><a xlink:href="../../d3/dd0/ITMDLL_8cpp.html#acbf64839f123247b9858d3c961d34558" target="_top" xlink:title="point_to_pointMDH">
<polygon fill="white" stroke="black" points="71,-76.5 71,-95.5 172,-95.5 172,-76.5 71,-76.5"/>
<text text-anchor="middle" x="121.5" y="-83.5" font-family="Helvetica,sans-Serif" font-size="10.00">point_to_pointMDH</text>
</a>
</g>
</g>
<!-- Node1&#45;&gt;Node3 -->
<g id="edge2" class="edge"><title>Node1&#45;&gt;Node3</title>
<path fill="none" stroke="midnightblue" d="M45.2707,-71.9867C53.0691,-73.4393 61.8522,-75.0754 70.5925,-76.7035"/>
<polygon fill="midnightblue" stroke="midnightblue" points="45.8151,-68.528 35.3432,-70.1375 44.5332,-75.4096 45.8151,-68.528"/>
</g>
<!-- Node4 -->
<g id="node4" class="node"><title>Node4</title>
<g id="a_node4"><a xlink:href="../../d3/dd0/ITMDLL_8cpp.html#a15b1b23c9cf6076e277df8f9b1b4572d" target="_top" xlink:title="point_to_pointDH">
<polygon fill="white" stroke="black" points="75.5,-38.5 75.5,-57.5 167.5,-57.5 167.5,-38.5 75.5,-38.5"/>
<text text-anchor="middle" x="121.5" y="-45.5" font-family="Helvetica,sans-Serif" font-size="10.00">point_to_pointDH</text>
</a>
</g>
</g>
<!-- Node1&#45;&gt;Node4 -->
<g id="edge3" class="edge"><title>Node1&#45;&gt;Node4</title>
<path fill="none" stroke="midnightblue" d="M45.4315,-61.9833C54.6432,-60.2674 65.2141,-58.2983 75.4598,-56.3898"/>
<polygon fill="midnightblue" stroke="midnightblue" points="44.5332,-58.5904 35.3432,-63.8625 45.8151,-65.472 44.5332,-58.5904"/>
</g>
<!-- Node5 -->
<g id="node5" class="node"><title>Node5</title>
<g id="a_node5"><a xlink:href="../../d3/dd0/ITMDLL_8cpp.html#ae3537f4e89c5341305b58cf0bdde5a96" target="_top" xlink:title="area">
<polygon fill="white" stroke="black" points="104,-0.5 104,-19.5 139,-19.5 139,-0.5 104,-0.5"/>
<text text-anchor="middle" x="121.5" y="-7.5" font-family="Helvetica,sans-Serif" font-size="10.00">area</text>
</a>
</g>
</g>
<!-- Node1&#45;&gt;Node5 -->
<g id="edge4" class="edge"><title>Node1&#45;&gt;Node5</title>
<path fill="none" stroke="midnightblue" d="M38.0419,-50.9852C47.5922,-43.6568 59.487,-35.2375 71,-29 81.5216,-23.2996 94.122,-18.489 103.977,-15.1346"/>
<polygon fill="midnightblue" stroke="midnightblue" points="35.6971,-48.3767 30.0085,-57.3148 40.0294,-53.8751 35.6971,-48.3767"/>
</g>
<!-- Node6 -->
<g id="node6" class="node"><title>Node6</title>
<g id="a_node6"><a xlink:href="../../d3/dd0/ITMDLL_8cpp.html#a47c92c2180a3df868488953eee50b603" target="_top" xlink:title="ITMAreadBLoss">
<polygon fill="white" stroke="black" points="208,-0.5 208,-19.5 295,-19.5 295,-0.5 208,-0.5"/>
<text text-anchor="middle" x="251.5" y="-7.5" font-family="Helvetica,sans-Serif" font-size="10.00">ITMAreadBLoss</text>
</a>
</g>
</g>
<!-- Node5&#45;&gt;Node6 -->
<g id="edge5" class="edge"><title>Node5&#45;&gt;Node6</title>
<path fill="none" stroke="midnightblue" d="M149.514,-10C166.438,-10 188.617,-10 207.878,-10"/>
<polygon fill="midnightblue" stroke="midnightblue" points="149.234,-6.5001 139.234,-10 149.234,-13.5001 149.234,-6.5001"/>
</g>
</g>
</svg>
