<?xml version="1.0" encoding="UTF-8" standalone="no"?>
<!DOCTYPE svg PUBLIC "-//W3C//DTD SVG 1.1//EN"
 "http://www.w3.org/Graphics/SVG/1.1/DTD/svg11.dtd">
<!-- Generated by graphviz version 2.38.0 (20140413.2041)
 -->
<!-- Title: aknfe Pages: 1 -->
<svg width="408pt" height="142pt"
 viewBox="0.00 0.00 408.00 142.00" xmlns="http://www.w3.org/2000/svg" xmlns:xlink="http://www.w3.org/1999/xlink">
<g id="graph0" class="graph" transform="scale(1 1) rotate(0) translate(4 138)">
<title>aknfe</title>
<polygon fill="white" stroke="none" points="-4,4 -4,-138 404,-138 404,4 -4,4"/>
<!-- Node1 -->
<g id="node1" class="node"><title>Node1</title>
<polygon fill="#bfbfbf" stroke="black" points="0,-42.5 0,-61.5 41,-61.5 41,-42.5 0,-42.5"/>
<text text-anchor="middle" x="20.5" y="-49.5" font-family="Helvetica,sans-Serif" font-size="10.00">aknfe</text>
</g>
<!-- Node2 -->
<g id="node2" class="node"><title>Node2</title>
<g id="a_node2"><a xlink:href="../../d3/dd0/ITMDLL_8cpp.html#a61774c377cce1be80117b174ac61eef2" target="_top" xlink:title="adiff">
<polygon fill="white" stroke="black" points="77,-42.5 77,-61.5 112,-61.5 112,-42.5 77,-42.5"/>
<text text-anchor="middle" x="94.5" y="-49.5" font-family="Helvetica,sans-Serif" font-size="10.00">adiff</text>
</a>
</g>
</g>
<!-- Node1&#45;&gt;Node2 -->
<g id="edge1" class="edge"><title>Node1&#45;&gt;Node2</title>
<path fill="none" stroke="midnightblue" d="M51.3754,-52C60.053,-52 69.2196,-52 76.7781,-52"/>
<polygon fill="midnightblue" stroke="midnightblue" points="51.1744,-48.5001 41.1743,-52 51.1743,-55.5001 51.1744,-48.5001"/>
</g>
<!-- Node3 -->
<g id="node3" class="node"><title>Node3</title>
<g id="a_node3"><a xlink:href="../../d3/dd0/ITMDLL_8cpp.html#a2fed233a4588a559e7ff32f9e23f709b" target="_top" xlink:title="lrprop">
<polygon fill="white" stroke="black" points="148,-42.5 148,-61.5 189,-61.5 189,-42.5 148,-42.5"/>
<text text-anchor="middle" x="168.5" y="-49.5" font-family="Helvetica,sans-Serif" font-size="10.00">lrprop</text>
</a>
</g>
</g>
<!-- Node2&#45;&gt;Node3 -->
<g id="edge2" class="edge"><title>Node2&#45;&gt;Node3</title>
<path fill="none" stroke="midnightblue" d="M122.361,-52C130.808,-52 139.974,-52 147.826,-52"/>
<polygon fill="midnightblue" stroke="midnightblue" points="122.199,-48.5001 112.199,-52 122.199,-55.5001 122.199,-48.5001"/>
</g>
<!-- Node4 -->
<g id="node4" class="node"><title>Node4</title>
<g id="a_node4"><a xlink:href="../../d3/dd0/ITMDLL_8cpp.html#a152ccc6442f590f588a376c23453eb59" target="_top" xlink:title="qlrpfl">
<polygon fill="white" stroke="black" points="225,-66.5 225,-85.5 263,-85.5 263,-66.5 225,-66.5"/>
<text text-anchor="middle" x="244" y="-73.5" font-family="Helvetica,sans-Serif" font-size="10.00">qlrpfl</text>
</a>
</g>
</g>
<!-- Node3&#45;&gt;Node4 -->
<g id="edge3" class="edge"><title>Node3&#45;&gt;Node4</title>
<path fill="none" stroke="midnightblue" d="M198.746,-61.5498C207.529,-64.4178 216.91,-67.4808 224.764,-70.0453"/>
<polygon fill="midnightblue" stroke="midnightblue" points="199.789,-58.2085 189.197,-58.4316 197.616,-64.8628 199.789,-58.2085"/>
</g>
<!-- Node8 -->
<g id="node8" class="node"><title>Node8</title>
<g id="a_node8"><a xlink:href="../../d3/dd0/ITMDLL_8cpp.html#ae3537f4e89c5341305b58cf0bdde5a96" target="_top" xlink:title="area">
<polygon fill="white" stroke="black" points="226.5,-19.5 226.5,-38.5 261.5,-38.5 261.5,-19.5 226.5,-19.5"/>
<text text-anchor="middle" x="244" y="-26.5" font-family="Helvetica,sans-Serif" font-size="10.00">area</text>
</a>
</g>
</g>
<!-- Node3&#45;&gt;Node8 -->
<g id="edge7" class="edge"><title>Node3&#45;&gt;Node8</title>
<path fill="none" stroke="midnightblue" d="M198.908,-42.7976C208.203,-39.889 218.151,-36.7759 226.241,-34.2442"/>
<polygon fill="midnightblue" stroke="midnightblue" points="197.695,-39.5096 189.197,-45.8364 199.786,-46.1902 197.695,-39.5096"/>
</g>
<!-- Node5 -->
<g id="node5" class="node"><title>Node5</title>
<g id="a_node5"><a xlink:href="../../d3/dd0/ITMDLL_8cpp.html#ac26ba1067f85b552c9fb7e26374f6ed5" target="_top" xlink:title="point_to_point">
<polygon fill="white" stroke="black" points="311,-114.5 311,-133.5 388,-133.5 388,-114.5 311,-114.5"/>
<text text-anchor="middle" x="349.5" y="-121.5" font-family="Helvetica,sans-Serif" font-size="10.00">point_to_point</text>
</a>
</g>
</g>
<!-- Node4&#45;&gt;Node5 -->
<g id="edge4" class="edge"><title>Node4&#45;&gt;Node5</title>
<path fill="none" stroke="midnightblue" d="M270.774,-90.6978C279.604,-95.5019 289.622,-100.703 299,-105 306.28,-108.336 314.329,-111.599 321.784,-114.453"/>
<polygon fill="midnightblue" stroke="midnightblue" points="272.191,-87.4816 261.747,-85.702 268.802,-93.6064 272.191,-87.4816"/>
</g>
<!-- Node6 -->
<g id="node6" class="node"><title>Node6</title>
<g id="a_node6"><a xlink:href="../../d3/dd0/ITMDLL_8cpp.html#acbf64839f123247b9858d3c961d34558" target="_top" xlink:title="point_to_pointMDH">
<polygon fill="white" stroke="black" points="299,-76.5 299,-95.5 400,-95.5 400,-76.5 299,-76.5"/>
<text text-anchor="middle" x="349.5" y="-83.5" font-family="Helvetica,sans-Serif" font-size="10.00">point_to_pointMDH</text>
</a>
</g>
</g>
<!-- Node4&#45;&gt;Node6 -->
<g id="edge5" class="edge"><title>Node4&#45;&gt;Node6</title>
<path fill="none" stroke="midnightblue" d="M273.138,-78.7186C281.046,-79.4827 289.892,-80.3374 298.664,-81.1849"/>
<polygon fill="midnightblue" stroke="midnightblue" points="273.319,-75.2199 263.028,-77.7419 272.645,-82.1874 273.319,-75.2199"/>
</g>
<!-- Node7 -->
<g id="node7" class="node"><title>Node7</title>
<g id="a_node7"><a xlink:href="../../d3/dd0/ITMDLL_8cpp.html#a15b1b23c9cf6076e277df8f9b1b4572d" target="_top" xlink:title="point_to_pointDH">
<polygon fill="white" stroke="black" points="303.5,-38.5 303.5,-57.5 395.5,-57.5 395.5,-38.5 303.5,-38.5"/>
<text text-anchor="middle" x="349.5" y="-45.5" font-family="Helvetica,sans-Serif" font-size="10.00">point_to_pointDH</text>
</a>
</g>
</g>
<!-- Node4&#45;&gt;Node7 -->
<g id="edge6" class="edge"><title>Node4&#45;&gt;Node7</title>
<path fill="none" stroke="midnightblue" d="M272.8,-68.4793C285.193,-65.1265 299.938,-61.1376 313.107,-57.5748"/>
<polygon fill="midnightblue" stroke="midnightblue" points="271.767,-65.1327 263.028,-71.1228 273.595,-71.8898 271.767,-65.1327"/>
</g>
<!-- Node9 -->
<g id="node9" class="node"><title>Node9</title>
<g id="a_node9"><a xlink:href="../../d3/dd0/ITMDLL_8cpp.html#a47c92c2180a3df868488953eee50b603" target="_top" xlink:title="ITMAreadBLoss">
<polygon fill="white" stroke="black" points="306,-0.5 306,-19.5 393,-19.5 393,-0.5 306,-0.5"/>
<text text-anchor="middle" x="349.5" y="-7.5" font-family="Helvetica,sans-Serif" font-size="10.00">ITMAreadBLoss</text>
</a>
</g>
</g>
<!-- Node8&#45;&gt;Node9 -->
<g id="edge8" class="edge"><title>Node8&#45;&gt;Node9</title>
<path fill="none" stroke="midnightblue" d="M271.656,-24.1066C281.984,-22.2106 294.072,-19.9917 305.562,-17.8823"/>
<polygon fill="midnightblue" stroke="midnightblue" points="270.833,-20.6992 261.629,-25.9473 272.097,-27.5841 270.833,-20.6992"/>
</g>
</g>
</svg>
