<?xml version="1.0" encoding="UTF-8" standalone="no"?>
<!DOCTYPE svg PUBLIC "-//W3C//DTD SVG 1.1//EN"
 "http://www.w3.org/Graphics/SVG/1.1/DTD/svg11.dtd">
<!-- Generated by graphviz version 2.38.0 (20140413.2041)
 -->
<!-- Title: lrprop Pages: 1 -->
<svg width="260pt" height="142pt"
 viewBox="0.00 0.00 260.00 142.00" xmlns="http://www.w3.org/2000/svg" xmlns:xlink="http://www.w3.org/1999/xlink">
<g id="graph0" class="graph" transform="scale(1 1) rotate(0) translate(4 138)">
<title>lrprop</title>
<polygon fill="white" stroke="none" points="-4,4 -4,-138 256,-138 256,4 -4,4"/>
<!-- Node1 -->
<g id="node1" class="node"><title>Node1</title>
<polygon fill="#bfbfbf" stroke="black" points="0,-42.5 0,-61.5 41,-61.5 41,-42.5 0,-42.5"/>
<text text-anchor="middle" x="20.5" y="-49.5" font-family="Helvetica,sans-Serif" font-size="10.00">lrprop</text>
</g>
<!-- Node2 -->
<g id="node2" class="node"><title>Node2</title>
<g id="a_node2"><a xlink:href="../../d3/dd0/ITMDLL_8cpp.html#a152ccc6442f590f588a376c23453eb59" target="_top" xlink:title="qlrpfl">
<polygon fill="white" stroke="black" points="77,-66.5 77,-85.5 115,-85.5 115,-66.5 77,-66.5"/>
<text text-anchor="middle" x="96" y="-73.5" font-family="Helvetica,sans-Serif" font-size="10.00">qlrpfl</text>
</a>
</g>
</g>
<!-- Node1&#45;&gt;Node2 -->
<g id="edge1" class="edge"><title>Node1&#45;&gt;Node2</title>
<path fill="none" stroke="midnightblue" d="M50.7462,-61.5498C59.5294,-64.4178 68.9099,-67.4808 76.7636,-70.0453"/>
<polygon fill="midnightblue" stroke="midnightblue" points="51.7891,-58.2085 41.1967,-58.4316 49.6163,-64.8628 51.7891,-58.2085"/>
</g>
<!-- Node6 -->
<g id="node6" class="node"><title>Node6</title>
<g id="a_node6"><a xlink:href="../../d3/dd0/ITMDLL_8cpp.html#ae3537f4e89c5341305b58cf0bdde5a96" target="_top" xlink:title="area">
<polygon fill="white" stroke="black" points="78.5,-19.5 78.5,-38.5 113.5,-38.5 113.5,-19.5 78.5,-19.5"/>
<text text-anchor="middle" x="96" y="-26.5" font-family="Helvetica,sans-Serif" font-size="10.00">area</text>
</a>
</g>
</g>
<!-- Node1&#45;&gt;Node6 -->
<g id="edge5" class="edge"><title>Node1&#45;&gt;Node6</title>
<path fill="none" stroke="midnightblue" d="M50.9075,-42.7976C60.2026,-39.889 70.1509,-36.7759 78.2412,-34.2442"/>
<polygon fill="midnightblue" stroke="midnightblue" points="49.695,-39.5096 41.1967,-45.8364 51.7856,-46.1902 49.695,-39.5096"/>
</g>
<!-- Node3 -->
<g id="node3" class="node"><title>Node3</title>
<g id="a_node3"><a xlink:href="../../d3/dd0/ITMDLL_8cpp.html#ac26ba1067f85b552c9fb7e26374f6ed5" target="_top" xlink:title="point_to_point">
<polygon fill="white" stroke="black" points="163,-114.5 163,-133.5 240,-133.5 240,-114.5 163,-114.5"/>
<text text-anchor="middle" x="201.5" y="-121.5" font-family="Helvetica,sans-Serif" font-size="10.00">point_to_point</text>
</a>
</g>
</g>
<!-- Node2&#45;&gt;Node3 -->
<g id="edge2" class="edge"><title>Node2&#45;&gt;Node3</title>
<path fill="none" stroke="midnightblue" d="M122.774,-90.6978C131.604,-95.5019 141.622,-100.703 151,-105 158.28,-108.336 166.329,-111.599 173.784,-114.453"/>
<polygon fill="midnightblue" stroke="midnightblue" points="124.191,-87.4816 113.747,-85.702 120.802,-93.6064 124.191,-87.4816"/>
</g>
<!-- Node4 -->
<g id="node4" class="node"><title>Node4</title>
<g id="a_node4"><a xlink:href="../../d3/dd0/ITMDLL_8cpp.html#acbf64839f123247b9858d3c961d34558" target="_top" xlink:title="point_to_pointMDH">
<polygon fill="white" stroke="black" points="151,-76.5 151,-95.5 252,-95.5 252,-76.5 151,-76.5"/>
<text text-anchor="middle" x="201.5" y="-83.5" font-family="Helvetica,sans-Serif" font-size="10.00">point_to_pointMDH</text>
</a>
</g>
</g>
<!-- Node2&#45;&gt;Node4 -->
<g id="edge3" class="edge"><title>Node2&#45;&gt;Node4</title>
<path fill="none" stroke="midnightblue" d="M125.138,-78.7186C133.046,-79.4827 141.892,-80.3374 150.664,-81.1849"/>
<polygon fill="midnightblue" stroke="midnightblue" points="125.319,-75.2199 115.028,-77.7419 124.645,-82.1874 125.319,-75.2199"/>
</g>
<!-- Node5 -->
<g id="node5" class="node"><title>Node5</title>
<g id="a_node5"><a xlink:href="../../d3/dd0/ITMDLL_8cpp.html#a15b1b23c9cf6076e277df8f9b1b4572d" target="_top" xlink:title="point_to_pointDH">
<polygon fill="white" stroke="black" points="155.5,-38.5 155.5,-57.5 247.5,-57.5 247.5,-38.5 155.5,-38.5"/>
<text text-anchor="middle" x="201.5" y="-45.5" font-family="Helvetica,sans-Serif" font-size="10.00">point_to_pointDH</text>
</a>
</g>
</g>
<!-- Node2&#45;&gt;Node5 -->
<g id="edge4" class="edge"><title>Node2&#45;&gt;Node5</title>
<path fill="none" stroke="midnightblue" d="M124.8,-68.4793C137.193,-65.1265 151.938,-61.1376 165.107,-57.5748"/>
<polygon fill="midnightblue" stroke="midnightblue" points="123.767,-65.1327 115.028,-71.1228 125.595,-71.8898 123.767,-65.1327"/>
</g>
<!-- Node7 -->
<g id="node7" class="node"><title>Node7</title>
<g id="a_node7"><a xlink:href="../../d3/dd0/ITMDLL_8cpp.html#a47c92c2180a3df868488953eee50b603" target="_top" xlink:title="ITMAreadBLoss">
<polygon fill="white" stroke="black" points="158,-0.5 158,-19.5 245,-19.5 245,-0.5 158,-0.5"/>
<text text-anchor="middle" x="201.5" y="-7.5" font-family="Helvetica,sans-Serif" font-size="10.00">ITMAreadBLoss</text>
</a>
</g>
</g>
<!-- Node6&#45;&gt;Node7 -->
<g id="edge6" class="edge"><title>Node6&#45;&gt;Node7</title>
<path fill="none" stroke="midnightblue" d="M123.656,-24.1066C133.984,-22.2106 146.072,-19.9917 157.562,-17.8823"/>
<polygon fill="midnightblue" stroke="midnightblue" points="122.833,-20.6992 113.629,-25.9473 124.097,-27.5841 122.833,-20.6992"/>
</g>
</g>
</svg>
