<?xml version="1.0" encoding="UTF-8" standalone="no"?>
<!DOCTYPE svg PUBLIC "-//W3C//DTD SVG 1.1//EN"
 "http://www.w3.org/Graphics/SVG/1.1/DTD/svg11.dtd">
<!-- Generated by graphviz version 2.38.0 (20140413.2041)
 -->
<!-- Title: ahd Pages: 1 -->
<svg width="405pt" height="142pt"
 viewBox="0.00 0.00 405.00 142.00" xmlns="http://www.w3.org/2000/svg" xmlns:xlink="http://www.w3.org/1999/xlink">
<g id="graph0" class="graph" transform="scale(1 1) rotate(0) translate(4 138)">
<title>ahd</title>
<polygon fill="white" stroke="none" points="-4,4 -4,-138 401,-138 401,4 -4,4"/>
<!-- Node1 -->
<g id="node1" class="node"><title>Node1</title>
<polygon fill="#bfbfbf" stroke="black" points="0,-42.5 0,-61.5 32,-61.5 32,-42.5 0,-42.5"/>
<text text-anchor="middle" x="16" y="-49.5" font-family="Helvetica,sans-Serif" font-size="10.00">ahd</text>
</g>
<!-- Node2 -->
<g id="node2" class="node"><title>Node2</title>
<g id="a_node2"><a xlink:href="../../d3/dd0/ITMDLL_8cpp.html#a74cbbcd996594f97dd6088dbbaff27c7" target="_top" xlink:title="ascat">
<polygon fill="white" stroke="black" points="68,-42.5 68,-61.5 109,-61.5 109,-42.5 68,-42.5"/>
<text text-anchor="middle" x="88.5" y="-49.5" font-family="Helvetica,sans-Serif" font-size="10.00">ascat</text>
</a>
</g>
</g>
<!-- Node1&#45;&gt;Node2 -->
<g id="edge1" class="edge"><title>Node1&#45;&gt;Node2</title>
<path fill="none" stroke="midnightblue" d="M42.3636,-52C50.7837,-52 60.0226,-52 67.9364,-52"/>
<polygon fill="midnightblue" stroke="midnightblue" points="42.2975,-48.5001 32.2975,-52 42.2974,-55.5001 42.2975,-48.5001"/>
</g>
<!-- Node3 -->
<g id="node3" class="node"><title>Node3</title>
<g id="a_node3"><a xlink:href="../../d3/dd0/ITMDLL_8cpp.html#a2fed233a4588a559e7ff32f9e23f709b" target="_top" xlink:title="lrprop">
<polygon fill="white" stroke="black" points="145,-42.5 145,-61.5 186,-61.5 186,-42.5 145,-42.5"/>
<text text-anchor="middle" x="165.5" y="-49.5" font-family="Helvetica,sans-Serif" font-size="10.00">lrprop</text>
</a>
</g>
</g>
<!-- Node2&#45;&gt;Node3 -->
<g id="edge2" class="edge"><title>Node2&#45;&gt;Node3</title>
<path fill="none" stroke="midnightblue" d="M119.305,-52C127.921,-52 137.104,-52 144.926,-52"/>
<polygon fill="midnightblue" stroke="midnightblue" points="119.205,-48.5001 109.205,-52 119.205,-55.5001 119.205,-48.5001"/>
</g>
<!-- Node4 -->
<g id="node4" class="node"><title>Node4</title>
<g id="a_node4"><a xlink:href="../../d3/dd0/ITMDLL_8cpp.html#a152ccc6442f590f588a376c23453eb59" target="_top" xlink:title="qlrpfl">
<polygon fill="white" stroke="black" points="222,-66.5 222,-85.5 260,-85.5 260,-66.5 222,-66.5"/>
<text text-anchor="middle" x="241" y="-73.5" font-family="Helvetica,sans-Serif" font-size="10.00">qlrpfl</text>
</a>
</g>
</g>
<!-- Node3&#45;&gt;Node4 -->
<g id="edge3" class="edge"><title>Node3&#45;&gt;Node4</title>
<path fill="none" stroke="midnightblue" d="M195.746,-61.5498C204.529,-64.4178 213.91,-67.4808 221.764,-70.0453"/>
<polygon fill="midnightblue" stroke="midnightblue" points="196.789,-58.2085 186.197,-58.4316 194.616,-64.8628 196.789,-58.2085"/>
</g>
<!-- Node8 -->
<g id="node8" class="node"><title>Node8</title>
<g id="a_node8"><a xlink:href="../../d3/dd0/ITMDLL_8cpp.html#ae3537f4e89c5341305b58cf0bdde5a96" target="_top" xlink:title="area">
<polygon fill="white" stroke="black" points="223.5,-19.5 223.5,-38.5 258.5,-38.5 258.5,-19.5 223.5,-19.5"/>
<text text-anchor="middle" x="241" y="-26.5" font-family="Helvetica,sans-Serif" font-size="10.00">area</text>
</a>
</g>
</g>
<!-- Node3&#45;&gt;Node8 -->
<g id="edge7" class="edge"><title>Node3&#45;&gt;Node8</title>
<path fill="none" stroke="midnightblue" d="M195.908,-42.7976C205.203,-39.889 215.151,-36.7759 223.241,-34.2442"/>
<polygon fill="midnightblue" stroke="midnightblue" points="194.695,-39.5096 186.197,-45.8364 196.786,-46.1902 194.695,-39.5096"/>
</g>
<!-- Node5 -->
<g id="node5" class="node"><title>Node5</title>
<g id="a_node5"><a xlink:href="../../d3/dd0/ITMDLL_8cpp.html#ac26ba1067f85b552c9fb7e26374f6ed5" target="_top" xlink:title="point_to_point">
<polygon fill="white" stroke="black" points="308,-114.5 308,-133.5 385,-133.5 385,-114.5 308,-114.5"/>
<text text-anchor="middle" x="346.5" y="-121.5" font-family="Helvetica,sans-Serif" font-size="10.00">point_to_point</text>
</a>
</g>
</g>
<!-- Node4&#45;&gt;Node5 -->
<g id="edge4" class="edge"><title>Node4&#45;&gt;Node5</title>
<path fill="none" stroke="midnightblue" d="M267.774,-90.6978C276.604,-95.5019 286.622,-100.703 296,-105 303.28,-108.336 311.329,-111.599 318.784,-114.453"/>
<polygon fill="midnightblue" stroke="midnightblue" points="269.191,-87.4816 258.747,-85.702 265.802,-93.6064 269.191,-87.4816"/>
</g>
<!-- Node6 -->
<g id="node6" class="node"><title>Node6</title>
<g id="a_node6"><a xlink:href="../../d3/dd0/ITMDLL_8cpp.html#acbf64839f123247b9858d3c961d34558" target="_top" xlink:title="point_to_pointMDH">
<polygon fill="white" stroke="black" points="296,-76.5 296,-95.5 397,-95.5 397,-76.5 296,-76.5"/>
<text text-anchor="middle" x="346.5" y="-83.5" font-family="Helvetica,sans-Serif" font-size="10.00">point_to_pointMDH</text>
</a>
</g>
</g>
<!-- Node4&#45;&gt;Node6 -->
<g id="edge5" class="edge"><title>Node4&#45;&gt;Node6</title>
<path fill="none" stroke="midnightblue" d="M270.138,-78.7186C278.046,-79.4827 286.892,-80.3374 295.664,-81.1849"/>
<polygon fill="midnightblue" stroke="midnightblue" points="270.319,-75.2199 260.028,-77.7419 269.645,-82.1874 270.319,-75.2199"/>
</g>
<!-- Node7 -->
<g id="node7" class="node"><title>Node7</title>
<g id="a_node7"><a xlink:href="../../d3/dd0/ITMDLL_8cpp.html#a15b1b23c9cf6076e277df8f9b1b4572d" target="_top" xlink:title="point_to_pointDH">
<polygon fill="white" stroke="black" points="300.5,-38.5 300.5,-57.5 392.5,-57.5 392.5,-38.5 300.5,-38.5"/>
<text text-anchor="middle" x="346.5" y="-45.5" font-family="Helvetica,sans-Serif" font-size="10.00">point_to_pointDH</text>
</a>
</g>
</g>
<!-- Node4&#45;&gt;Node7 -->
<g id="edge6" class="edge"><title>Node4&#45;&gt;Node7</title>
<path fill="none" stroke="midnightblue" d="M269.8,-68.4793C282.193,-65.1265 296.938,-61.1376 310.107,-57.5748"/>
<polygon fill="midnightblue" stroke="midnightblue" points="268.767,-65.1327 260.028,-71.1228 270.595,-71.8898 268.767,-65.1327"/>
</g>
<!-- Node9 -->
<g id="node9" class="node"><title>Node9</title>
<g id="a_node9"><a xlink:href="../../d3/dd0/ITMDLL_8cpp.html#a47c92c2180a3df868488953eee50b603" target="_top" xlink:title="ITMAreadBLoss">
<polygon fill="white" stroke="black" points="303,-0.5 303,-19.5 390,-19.5 390,-0.5 303,-0.5"/>
<text text-anchor="middle" x="346.5" y="-7.5" font-family="Helvetica,sans-Serif" font-size="10.00">ITMAreadBLoss</text>
</a>
</g>
</g>
<!-- Node8&#45;&gt;Node9 -->
<g id="edge8" class="edge"><title>Node8&#45;&gt;Node9</title>
<path fill="none" stroke="midnightblue" d="M268.656,-24.1066C278.984,-22.2106 291.072,-19.9917 302.562,-17.8823"/>
<polygon fill="midnightblue" stroke="midnightblue" points="267.833,-20.6992 258.629,-25.9473 269.097,-27.5841 267.833,-20.6992"/>
</g>
</g>
</svg>
