<?xml version="1.0" encoding="UTF-8" standalone="no"?>
<!DOCTYPE svg PUBLIC "-//W3C//DTD SVG 1.1//EN"
 "http://www.w3.org/Graphics/SVG/1.1/DTD/svg11.dtd">
<!-- Generated by graphviz version 2.38.0 (20140413.2041)
 -->
<!-- Title: /home/nirajan/NetBeansProjects/sas&#45;winnforum/Spectrum&#45;Access&#45;System/Spectrum&#45;Access&#45;System&#45;master/src/harness/reference_models/propagation/itm/its/original/ITMDLL.cpp Pages: 1 -->
<svg width="475pt" height="128pt"
 viewBox="0.00 0.00 475.00 128.00" xmlns="http://www.w3.org/2000/svg" xmlns:xlink="http://www.w3.org/1999/xlink">
<g id="graph0" class="graph" transform="scale(1 1) rotate(0) translate(4 124)">
<title>/home/nirajan/NetBeansProjects/sas&#45;winnforum/Spectrum&#45;Access&#45;System/Spectrum&#45;Access&#45;System&#45;master/src/harness/reference_models/propagation/itm/its/original/ITMDLL.cpp</title>
<polygon fill="white" stroke="none" points="-4,4 -4,-124 471,-124 471,4 -4,4"/>
<!-- Node1 -->
<g id="node1" class="node"><title>Node1</title>
<polygon fill="#bfbfbf" stroke="black" points="129,-56.5 129,-119.5 320,-119.5 320,-56.5 129,-56.5"/>
<text text-anchor="start" x="137" y="-107.5" font-family="Helvetica,sans-Serif" font-size="10.00">/home/nirajan/NetBeansProjects</text>
<text text-anchor="start" x="137" y="-96.5" font-family="Helvetica,sans-Serif" font-size="10.00">/sas&#45;winnforum/Spectrum&#45;Access</text>
<text text-anchor="start" x="137" y="-85.5" font-family="Helvetica,sans-Serif" font-size="10.00">&#45;System/Spectrum&#45;Access&#45;System</text>
<text text-anchor="start" x="137" y="-74.5" font-family="Helvetica,sans-Serif" font-size="10.00">&#45;master/src/harness/reference_models</text>
<text text-anchor="middle" x="224.5" y="-63.5" font-family="Helvetica,sans-Serif" font-size="10.00">/propagation/itm/its/original/ITMDLL.cpp</text>
</g>
<!-- Node2 -->
<g id="node2" class="node"><title>Node2</title>
<polygon fill="white" stroke="#bfbfbf" points="0,-0.5 0,-19.5 47,-19.5 47,-0.5 0,-0.5"/>
<text text-anchor="middle" x="23.5" y="-7.5" font-family="Helvetica,sans-Serif" font-size="10.00">math.h</text>
</g>
<!-- Node1&#45;&gt;Node2 -->
<g id="edge1" class="edge"><title>Node1&#45;&gt;Node2</title>
<path fill="none" stroke="midnightblue" d="M143.614,-56.4164C112.879,-44.7951 79.5974,-32.2109 55.879,-23.2428"/>
<polygon fill="midnightblue" stroke="midnightblue" points="56.9264,-19.8971 46.3349,-19.6341 54.4507,-26.4447 56.9264,-19.8971"/>
</g>
<!-- Node3 -->
<g id="node3" class="node"><title>Node3</title>
<polygon fill="white" stroke="#bfbfbf" points="65,-0.5 65,-19.5 118,-19.5 118,-0.5 65,-0.5"/>
<text text-anchor="middle" x="91.5" y="-7.5" font-family="Helvetica,sans-Serif" font-size="10.00">complex</text>
</g>
<!-- Node1&#45;&gt;Node3 -->
<g id="edge2" class="edge"><title>Node1&#45;&gt;Node3</title>
<path fill="none" stroke="midnightblue" d="M170.787,-56.307C151.563,-45.3216 130.857,-33.4895 115.427,-24.6724"/>
<polygon fill="midnightblue" stroke="midnightblue" points="116.981,-21.5293 106.562,-19.6067 113.508,-27.607 116.981,-21.5293"/>
</g>
<!-- Node4 -->
<g id="node4" class="node"><title>Node4</title>
<polygon fill="white" stroke="#bfbfbf" points="136.5,-0.5 136.5,-19.5 182.5,-19.5 182.5,-0.5 136.5,-0.5"/>
<text text-anchor="middle" x="159.5" y="-7.5" font-family="Helvetica,sans-Serif" font-size="10.00">stdio.h</text>
</g>
<!-- Node1&#45;&gt;Node4 -->
<g id="edge3" class="edge"><title>Node1&#45;&gt;Node4</title>
<path fill="none" stroke="midnightblue" d="M198.062,-56.0879C189.714,-46.3277 180.814,-35.9206 173.669,-27.567"/>
<polygon fill="midnightblue" stroke="midnightblue" points="176.116,-25.0429 166.956,-19.7182 170.796,-29.5927 176.116,-25.0429"/>
</g>
<!-- Node5 -->
<g id="node5" class="node"><title>Node5</title>
<polygon fill="white" stroke="#bfbfbf" points="200.5,-0.5 200.5,-19.5 248.5,-19.5 248.5,-0.5 200.5,-0.5"/>
<text text-anchor="middle" x="224.5" y="-7.5" font-family="Helvetica,sans-Serif" font-size="10.00">stdlib.h</text>
</g>
<!-- Node1&#45;&gt;Node5 -->
<g id="edge4" class="edge"><title>Node1&#45;&gt;Node5</title>
<path fill="none" stroke="midnightblue" d="M224.5,-56.0879C224.5,-47.1496 224.5,-37.6688 224.5,-29.7195"/>
<polygon fill="midnightblue" stroke="midnightblue" points="228,-29.7181 224.5,-19.7182 221,-29.7182 228,-29.7181"/>
</g>
<!-- Node6 -->
<g id="node6" class="node"><title>Node6</title>
<polygon fill="white" stroke="#bfbfbf" points="266.5,-0.5 266.5,-19.5 318.5,-19.5 318.5,-0.5 266.5,-0.5"/>
<text text-anchor="middle" x="292.5" y="-7.5" font-family="Helvetica,sans-Serif" font-size="10.00">assert.h</text>
</g>
<!-- Node1&#45;&gt;Node6 -->
<g id="edge5" class="edge"><title>Node1&#45;&gt;Node6</title>
<path fill="none" stroke="midnightblue" d="M252.158,-56.0879C260.983,-46.2249 270.399,-35.7015 277.912,-27.3039"/>
<polygon fill="midnightblue" stroke="midnightblue" points="280.64,-29.5044 284.7,-19.7182 275.423,-24.8368 280.64,-29.5044"/>
</g>
<!-- Node7 -->
<g id="node7" class="node"><title>Node7</title>
<polygon fill="white" stroke="#bfbfbf" points="337,-0.5 337,-19.5 386,-19.5 386,-0.5 337,-0.5"/>
<text text-anchor="middle" x="361.5" y="-7.5" font-family="Helvetica,sans-Serif" font-size="10.00">string.h</text>
</g>
<!-- Node1&#45;&gt;Node7 -->
<g id="edge6" class="edge"><title>Node1&#45;&gt;Node7</title>
<path fill="none" stroke="midnightblue" d="M279.828,-56.307C299.631,-45.3216 320.96,-33.4895 336.854,-24.6724"/>
<polygon fill="midnightblue" stroke="midnightblue" points="338.939,-27.5184 345.985,-19.6067 335.543,-21.3971 338.939,-27.5184"/>
</g>
<!-- Node8 -->
<g id="node8" class="node"><title>Node8</title>
<polygon fill="white" stroke="#bfbfbf" points="404,-0.5 404,-19.5 467,-19.5 467,-0.5 404,-0.5"/>
<text text-anchor="middle" x="435.5" y="-7.5" font-family="Helvetica,sans-Serif" font-size="10.00">windows.h</text>
</g>
<!-- Node1&#45;&gt;Node8 -->
<g id="edge7" class="edge"><title>Node1&#45;&gt;Node8</title>
<path fill="none" stroke="midnightblue" d="M309.41,-56.4164C341.818,-44.7432 376.924,-32.0986 401.843,-23.1229"/>
<polygon fill="midnightblue" stroke="midnightblue" points="403.307,-26.3158 411.529,-19.6341 400.935,-19.73 403.307,-26.3158"/>
</g>
</g>
</svg>
