<?xml version="1.0" encoding="UTF-8" standalone="no"?>
<!DOCTYPE svg PUBLIC "-//W3C//DTD SVG 1.1//EN"
 "http://www.w3.org/Graphics/SVG/1.1/DTD/svg11.dtd">
<!-- Generated by graphviz version 2.38.0 (20140413.2041)
 -->
<!-- Title: src.harness.sas._RequestGet Pages: 1 -->
<svg width="503pt" height="88pt"
 viewBox="0.00 0.00 503.00 88.00" xmlns="http://www.w3.org/2000/svg" xmlns:xlink="http://www.w3.org/1999/xlink">
<g id="graph0" class="graph" transform="scale(1 1) rotate(0) translate(4 84)">
<title>src.harness.sas._RequestGet</title>
<polygon fill="white" stroke="none" points="-4,4 -4,-84 499,-84 499,4 -4,4"/>
<!-- Node1 -->
<g id="node1" class="node"><title>Node1</title>
<polygon fill="#bfbfbf" stroke="black" points="0,-30 0,-49 147,-49 147,-30 0,-30"/>
<text text-anchor="middle" x="73.5" y="-37" font-family="Helvetica,sans-Serif" font-size="10.00">src.harness.sas._RequestGet</text>
</g>
<!-- Node2 -->
<g id="node2" class="node"><title>Node2</title>
<g id="a_node2"><a xlink:href="../../db/dbc/classsrc_1_1harness_1_1sas_1_1SasImpl.html#a1c38612363298068e5b0caf677dbcb8d" target="_top" xlink:title="src.harness.sas.SasImpl.\l_SasRequest">
<polygon fill="white" stroke="black" points="183,-24.5 183,-54.5 311,-54.5 311,-24.5 183,-24.5"/>
<text text-anchor="start" x="191" y="-42.5" font-family="Helvetica,sans-Serif" font-size="10.00">src.harness.sas.SasImpl.</text>
<text text-anchor="middle" x="247" y="-31.5" font-family="Helvetica,sans-Serif" font-size="10.00">_SasRequest</text>
</a>
</g>
</g>
<!-- Node1&#45;&gt;Node2 -->
<g id="edge1" class="edge"><title>Node1&#45;&gt;Node2</title>
<path fill="none" stroke="midnightblue" d="M157.305,-39.5C165.92,-39.5 174.574,-39.5 182.92,-39.5"/>
<polygon fill="midnightblue" stroke="midnightblue" points="157.231,-36.0001 147.231,-39.5 157.231,-43.0001 157.231,-36.0001"/>
</g>
<!-- Node3 -->
<g id="node3" class="node"><title>Node3</title>
<g id="a_node3"><a xlink:href="../../db/dbc/classsrc_1_1harness_1_1sas_1_1SasImpl.html#ab3fb32dfe360a9a72dab950c9b5912ea" target="_top" xlink:title="src.harness.sas.SasImpl.\lGetSasImplementationRecord">
<polygon fill="white" stroke="black" points="347,-49.5 347,-79.5 495,-79.5 495,-49.5 347,-49.5"/>
<text text-anchor="start" x="355" y="-67.5" font-family="Helvetica,sans-Serif" font-size="10.00">src.harness.sas.SasImpl.</text>
<text text-anchor="middle" x="421" y="-56.5" font-family="Helvetica,sans-Serif" font-size="10.00">GetSasImplementationRecord</text>
</a>
</g>
</g>
<!-- Node2&#45;&gt;Node3 -->
<g id="edge2" class="edge"><title>Node2&#45;&gt;Node3</title>
<path fill="none" stroke="midnightblue" d="M320.98,-50.1076C329.508,-51.3471 338.211,-52.6121 346.743,-53.8522"/>
<polygon fill="midnightblue" stroke="midnightblue" points="321.469,-46.642 311.07,-48.6671 320.462,-53.5692 321.469,-46.642"/>
</g>
<!-- Node4 -->
<g id="node4" class="node"><title>Node4</title>
<g id="a_node4"><a xlink:href="../../db/dbc/classsrc_1_1harness_1_1sas_1_1SasImpl.html#aef3a52027aee2c00bdf0214391111df9" target="_top" xlink:title="src.harness.sas.SasImpl.\lGetEscSensorRecord">
<polygon fill="white" stroke="black" points="357,-0.5 357,-30.5 485,-30.5 485,-0.5 357,-0.5"/>
<text text-anchor="start" x="365" y="-18.5" font-family="Helvetica,sans-Serif" font-size="10.00">src.harness.sas.SasImpl.</text>
<text text-anchor="middle" x="421" y="-7.5" font-family="Helvetica,sans-Serif" font-size="10.00">GetEscSensorRecord</text>
</a>
</g>
</g>
<!-- Node2&#45;&gt;Node4 -->
<g id="edge3" class="edge"><title>Node2&#45;&gt;Node4</title>
<path fill="none" stroke="midnightblue" d="M321.008,-29.3129C332.959,-27.6453 345.253,-25.9298 356.938,-24.2994"/>
<polygon fill="midnightblue" stroke="midnightblue" points="320.49,-25.8511 311.07,-30.6996 321.458,-32.7839 320.49,-25.8511"/>
</g>
</g>
</svg>
