<?xml version="1.0" encoding="UTF-8" standalone="no"?>
<!DOCTYPE svg PUBLIC "-//W3C//DTD SVG 1.1//EN"
 "http://www.w3.org/Graphics/SVG/1.1/DTD/svg11.dtd">
<!-- Generated by graphviz version 2.38.0 (20140413.2041)
 -->
<!-- Title: src.harness.sas._RequestPost Pages: 1 -->
<svg width="545pt" height="1526pt"
 viewBox="0.00 0.00 545.00 1526.00" xmlns="http://www.w3.org/2000/svg" xmlns:xlink="http://www.w3.org/1999/xlink">
<g id="graph0" class="graph" transform="scale(1 1) rotate(0) translate(4 1522)">
<title>src.harness.sas._RequestPost</title>
<polygon fill="white" stroke="none" points="-4,4 -4,-1522 541,-1522 541,4 -4,4"/>
<!-- Node1 -->
<g id="node1" class="node"><title>Node1</title>
<polygon fill="#bfbfbf" stroke="black" points="0,-699 0,-718 152,-718 152,-699 0,-699"/>
<text text-anchor="middle" x="76" y="-706" font-family="Helvetica,sans-Serif" font-size="10.00">src.harness.sas._RequestPost</text>
</g>
<!-- Node2 -->
<g id="node2" class="node"><title>Node2</title>
<g id="a_node2"><a xlink:href="../../db/dbc/classsrc_1_1harness_1_1sas_1_1SasImpl.html#addd4707f64601a3e08d7aa2e0a35760c" target="_top" xlink:title="src.harness.sas.SasImpl.\l_CbsdRequest">
<polygon fill="white" stroke="black" points="216.5,-1365.5 216.5,-1395.5 344.5,-1395.5 344.5,-1365.5 216.5,-1365.5"/>
<text text-anchor="start" x="224.5" y="-1383.5" font-family="Helvetica,sans-Serif" font-size="10.00">src.harness.sas.SasImpl.</text>
<text text-anchor="middle" x="280.5" y="-1372.5" font-family="Helvetica,sans-Serif" font-size="10.00">_CbsdRequest</text>
</a>
</g>
</g>
<!-- Node1&#45;&gt;Node2 -->
<g id="edge1" class="edge"><title>Node1&#45;&gt;Node2</title>
<path fill="none" stroke="midnightblue" d="M77.6012,-728.495C80.9719,-827.161 100.641,-1261.2 188,-1356.5 195.546,-1364.73 205.54,-1370.28 216.147,-1374"/>
<polygon fill="midnightblue" stroke="midnightblue" points="81.096,-728.276 77.2743,-718.395 74.0997,-728.503 81.096,-728.276"/>
</g>
<!-- Node9 -->
<g id="node9" class="node"><title>Node9</title>
<g id="a_node9"><a xlink:href="../../d5/da5/classsrc_1_1harness_1_1sas_1_1SasAdminImpl.html#a6a6440c28802b7bf3093830e3b73feb5" target="_top" xlink:title="src.harness.sas.SasAdmin\lImpl.Reset">
<polygon fill="white" stroke="black" points="213.5,-1316.5 213.5,-1346.5 347.5,-1346.5 347.5,-1316.5 213.5,-1316.5"/>
<text text-anchor="start" x="221.5" y="-1334.5" font-family="Helvetica,sans-Serif" font-size="10.00">src.harness.sas.SasAdmin</text>
<text text-anchor="middle" x="280.5" y="-1323.5" font-family="Helvetica,sans-Serif" font-size="10.00">Impl.Reset</text>
</a>
</g>
</g>
<!-- Node1&#45;&gt;Node9 -->
<g id="edge8" class="edge"><title>Node1&#45;&gt;Node9</title>
<path fill="none" stroke="midnightblue" d="M77.889,-728.149C82.5114,-821.592 106.792,-1220.11 188,-1307.5 194.931,-1314.96 203.872,-1320.21 213.443,-1323.89"/>
<polygon fill="midnightblue" stroke="midnightblue" points="81.382,-727.916 77.4105,-718.093 74.3899,-728.248 81.382,-727.916"/>
</g>
<!-- Node10 -->
<g id="node10" class="node"><title>Node10</title>
<g id="a_node10"><a xlink:href="../../d5/da5/classsrc_1_1harness_1_1sas_1_1SasAdminImpl.html#adf8cdc3b950f9b6acbcd0e1ba5d3de69" target="_top" xlink:title="src.harness.sas.SasAdmin\lImpl.InjectFccId">
<polygon fill="white" stroke="black" points="213.5,-1267.5 213.5,-1297.5 347.5,-1297.5 347.5,-1267.5 213.5,-1267.5"/>
<text text-anchor="start" x="221.5" y="-1285.5" font-family="Helvetica,sans-Serif" font-size="10.00">src.harness.sas.SasAdmin</text>
<text text-anchor="middle" x="280.5" y="-1274.5" font-family="Helvetica,sans-Serif" font-size="10.00">Impl.InjectFccId</text>
</a>
</g>
</g>
<!-- Node1&#45;&gt;Node10 -->
<g id="edge9" class="edge"><title>Node1&#45;&gt;Node10</title>
<path fill="none" stroke="midnightblue" d="M78.2445,-728.207C84.2456,-817.013 113.041,-1179.11 188,-1258.5 194.878,-1265.78 203.673,-1270.96 213.081,-1274.62"/>
<polygon fill="midnightblue" stroke="midnightblue" points="81.732,-727.901 77.5848,-718.152 74.7471,-728.359 81.732,-727.901"/>
</g>
<!-- Node11 -->
<g id="node11" class="node"><title>Node11</title>
<g id="a_node11"><a xlink:href="../../d5/da5/classsrc_1_1harness_1_1sas_1_1SasAdminImpl.html#ac6f5d15f1607ed7d5d9bd3dd78ff0ca4" target="_top" xlink:title="src.harness.sas.SasAdmin\lImpl.InjectUserId">
<polygon fill="white" stroke="black" points="213.5,-1218.5 213.5,-1248.5 347.5,-1248.5 347.5,-1218.5 213.5,-1218.5"/>
<text text-anchor="start" x="221.5" y="-1236.5" font-family="Helvetica,sans-Serif" font-size="10.00">src.harness.sas.SasAdmin</text>
<text text-anchor="middle" x="280.5" y="-1225.5" font-family="Helvetica,sans-Serif" font-size="10.00">Impl.InjectUserId</text>
</a>
</g>
</g>
<!-- Node1&#45;&gt;Node11 -->
<g id="edge10" class="edge"><title>Node1&#45;&gt;Node11</title>
<path fill="none" stroke="midnightblue" d="M78.6712,-728.286C86.1546,-812.253 119.269,-1138.07 188,-1209.5 194.946,-1216.72 203.777,-1221.86 213.2,-1225.5"/>
<polygon fill="midnightblue" stroke="midnightblue" points="82.1382,-727.753 77.7843,-718.094 75.1645,-728.36 82.1382,-727.753"/>
</g>
<!-- Node12 -->
<g id="node12" class="node"><title>Node12</title>
<g id="a_node12"><a xlink:href="../../d5/da5/classsrc_1_1harness_1_1sas_1_1SasAdminImpl.html#a1796e3cf2750366e7f26c7cdee737ca9" target="_top" xlink:title="src.harness.sas.SasAdmin\lImpl.InjectEscZone">
<polygon fill="white" stroke="black" points="213.5,-1169.5 213.5,-1199.5 347.5,-1199.5 347.5,-1169.5 213.5,-1169.5"/>
<text text-anchor="start" x="221.5" y="-1187.5" font-family="Helvetica,sans-Serif" font-size="10.00">src.harness.sas.SasAdmin</text>
<text text-anchor="middle" x="280.5" y="-1176.5" font-family="Helvetica,sans-Serif" font-size="10.00">Impl.InjectEscZone</text>
</a>
</g>
</g>
<!-- Node1&#45;&gt;Node12 -->
<g id="edge11" class="edge"><title>Node1&#45;&gt;Node12</title>
<path fill="none" stroke="midnightblue" d="M79.1878,-728.343C88.2675,-807.17 125.461,-1096.97 188,-1160.5 195.028,-1167.64 203.902,-1172.74 213.343,-1176.37"/>
<polygon fill="midnightblue" stroke="midnightblue" points="82.6532,-727.84 78.0525,-718.296 75.6975,-728.626 82.6532,-727.84"/>
</g>
<!-- Node13 -->
<g id="node13" class="node"><title>Node13</title>
<g id="a_node13"><a xlink:href="../../d5/da5/classsrc_1_1harness_1_1sas_1_1SasAdminImpl.html#ad6c872ba440835944a097aea3f6b47aa" target="_top" xlink:title="src.harness.sas.SasAdmin\lImpl.InjectZoneData">
<polygon fill="white" stroke="black" points="213.5,-1120.5 213.5,-1150.5 347.5,-1150.5 347.5,-1120.5 213.5,-1120.5"/>
<text text-anchor="start" x="221.5" y="-1138.5" font-family="Helvetica,sans-Serif" font-size="10.00">src.harness.sas.SasAdmin</text>
<text text-anchor="middle" x="280.5" y="-1127.5" font-family="Helvetica,sans-Serif" font-size="10.00">Impl.InjectZoneData</text>
</a>
</g>
</g>
<!-- Node1&#45;&gt;Node13 -->
<g id="edge12" class="edge"><title>Node1&#45;&gt;Node13</title>
<path fill="none" stroke="midnightblue" d="M79.8434,-728.503C90.6804,-802.013 131.642,-1055.83 188,-1111.5 195.01,-1118.42 203.761,-1123.42 213.05,-1127.01"/>
<polygon fill="midnightblue" stroke="midnightblue" points="83.2644,-727.705 78.365,-718.311 76.3369,-728.71 83.2644,-727.705"/>
</g>
<!-- Node14 -->
<g id="node14" class="node"><title>Node14</title>
<g id="a_node14"><a xlink:href="../../d5/da5/classsrc_1_1harness_1_1sas_1_1SasAdminImpl.html#a47c4a00491dbe171226e8769890ce1ba" target="_top" xlink:title="src.harness.sas.SasAdmin\lImpl.InjectPalDatabaseRecord">
<polygon fill="white" stroke="black" points="205.5,-1071.5 205.5,-1101.5 355.5,-1101.5 355.5,-1071.5 205.5,-1071.5"/>
<text text-anchor="start" x="213.5" y="-1089.5" font-family="Helvetica,sans-Serif" font-size="10.00">src.harness.sas.SasAdmin</text>
<text text-anchor="middle" x="280.5" y="-1078.5" font-family="Helvetica,sans-Serif" font-size="10.00">Impl.InjectPalDatabaseRecord</text>
</a>
</g>
</g>
<!-- Node1&#45;&gt;Node14 -->
<g id="edge13" class="edge"><title>Node1&#45;&gt;Node14</title>
<path fill="none" stroke="midnightblue" d="M76.9614,-728.428C77.9748,-788.347 89.4659,-968.523 188,-1062.5 193.11,-1067.37 199.085,-1071.29 205.49,-1074.43"/>
<polygon fill="midnightblue" stroke="midnightblue" points="80.4587,-728.079 76.8757,-718.109 73.4589,-728.137 80.4587,-728.079"/>
</g>
<!-- Node15 -->
<g id="node15" class="node"><title>Node15</title>
<g id="a_node15"><a xlink:href="../../d5/da5/classsrc_1_1harness_1_1sas_1_1SasAdminImpl.html#a97a51af344e2fed98ab8ad65b8b3cf31" target="_top" xlink:title="src.harness.sas.SasAdmin\lImpl.InjectClusterList">
<polygon fill="white" stroke="black" points="213.5,-1022.5 213.5,-1052.5 347.5,-1052.5 347.5,-1022.5 213.5,-1022.5"/>
<text text-anchor="start" x="221.5" y="-1040.5" font-family="Helvetica,sans-Serif" font-size="10.00">src.harness.sas.SasAdmin</text>
<text text-anchor="middle" x="280.5" y="-1029.5" font-family="Helvetica,sans-Serif" font-size="10.00">Impl.InjectClusterList</text>
</a>
</g>
</g>
<!-- Node1&#45;&gt;Node15 -->
<g id="edge14" class="edge"><title>Node1&#45;&gt;Node15</title>
<path fill="none" stroke="midnightblue" d="M78.0965,-728.17C82.2046,-782.264 101.299,-934.471 188,-1013.5 195.161,-1020.03 203.881,-1024.82 213.062,-1028.33"/>
<polygon fill="midnightblue" stroke="midnightblue" points="81.5878,-727.922 77.4284,-718.178 74.6034,-728.389 81.5878,-727.922"/>
</g>
<!-- Node16 -->
<g id="node16" class="node"><title>Node16</title>
<g id="a_node16"><a xlink:href="../../d5/da5/classsrc_1_1harness_1_1sas_1_1SasAdminImpl.html#a422a9b9f29240e16388bb71dbd17e4a8" target="_top" xlink:title="src.harness.sas.SasAdmin\lImpl.BlacklistByFccId">
<polygon fill="white" stroke="black" points="213.5,-973.5 213.5,-1003.5 347.5,-1003.5 347.5,-973.5 213.5,-973.5"/>
<text text-anchor="start" x="221.5" y="-991.5" font-family="Helvetica,sans-Serif" font-size="10.00">src.harness.sas.SasAdmin</text>
<text text-anchor="middle" x="280.5" y="-980.5" font-family="Helvetica,sans-Serif" font-size="10.00">Impl.BlacklistByFccId</text>
</a>
</g>
</g>
<!-- Node1&#45;&gt;Node16 -->
<g id="edge15" class="edge"><title>Node1&#45;&gt;Node16</title>
<path fill="none" stroke="midnightblue" d="M79.6314,-728.163C87.1281,-776.196 113.119,-900.256 188,-964.5 195.354,-970.809 204.178,-975.485 213.404,-978.945"/>
<polygon fill="midnightblue" stroke="midnightblue" points="83.0771,-727.536 78.1693,-718.147 76.1505,-728.547 83.0771,-727.536"/>
</g>
<!-- Node17 -->
<g id="node17" class="node"><title>Node17</title>
<g id="a_node17"><a xlink:href="../../d5/da5/classsrc_1_1harness_1_1sas_1_1SasAdminImpl.html#a0039490003d2cb639e4aee7908d270a9" target="_top" xlink:title="src.harness.sas.SasAdmin\lImpl.BlacklistByFccIdAndSerial\lNumber">
<polygon fill="white" stroke="black" points="203,-914 203,-955 358,-955 358,-914 203,-914"/>
<text text-anchor="start" x="211" y="-943" font-family="Helvetica,sans-Serif" font-size="10.00">src.harness.sas.SasAdmin</text>
<text text-anchor="start" x="211" y="-932" font-family="Helvetica,sans-Serif" font-size="10.00">Impl.BlacklistByFccIdAndSerial</text>
<text text-anchor="middle" x="280.5" y="-921" font-family="Helvetica,sans-Serif" font-size="10.00">Number</text>
</a>
</g>
</g>
<!-- Node1&#45;&gt;Node17 -->
<g id="edge16" class="edge"><title>Node1&#45;&gt;Node17</title>
<path fill="none" stroke="midnightblue" d="M82.667,-728.132C95.0743,-767.636 128.402,-857.077 188,-905.5 192.527,-909.178 197.526,-912.392 202.784,-915.201"/>
<polygon fill="midnightblue" stroke="midnightblue" points="85.9651,-726.947 79.7178,-718.39 79.2654,-728.975 85.9651,-726.947"/>
</g>
<!-- Node18 -->
<g id="node18" class="node"><title>Node18</title>
<g id="a_node18"><a xlink:href="../../d5/da5/classsrc_1_1harness_1_1sas_1_1SasAdminImpl.html#afefd45865071425dc317c7f7aa79f33d" target="_top" xlink:title="src.harness.sas.SasAdmin\lImpl.TriggerEscZone">
<polygon fill="white" stroke="black" points="213.5,-865.5 213.5,-895.5 347.5,-895.5 347.5,-865.5 213.5,-865.5"/>
<text text-anchor="start" x="221.5" y="-883.5" font-family="Helvetica,sans-Serif" font-size="10.00">src.harness.sas.SasAdmin</text>
<text text-anchor="middle" x="280.5" y="-872.5" font-family="Helvetica,sans-Serif" font-size="10.00">Impl.TriggerEscZone</text>
</a>
</g>
</g>
<!-- Node1&#45;&gt;Node18 -->
<g id="edge17" class="edge"><title>Node1&#45;&gt;Node18</title>
<path fill="none" stroke="midnightblue" d="M85.8069,-727.307C101.637,-758.998 137.974,-822.866 188,-856.5 195.632,-861.631 204.304,-865.666 213.195,-868.839"/>
<polygon fill="midnightblue" stroke="midnightblue" points="88.9141,-725.693 81.3964,-718.227 82.6176,-728.751 88.9141,-725.693"/>
</g>
<!-- Node19 -->
<g id="node19" class="node"><title>Node19</title>
<g id="a_node19"><a xlink:href="../../d5/da5/classsrc_1_1harness_1_1sas_1_1SasAdminImpl.html#a869e596075e98a2643222edc42a9ff8b" target="_top" xlink:title="src.harness.sas.SasAdmin\lImpl.ResetEscZone">
<polygon fill="white" stroke="black" points="213.5,-816.5 213.5,-846.5 347.5,-846.5 347.5,-816.5 213.5,-816.5"/>
<text text-anchor="start" x="221.5" y="-834.5" font-family="Helvetica,sans-Serif" font-size="10.00">src.harness.sas.SasAdmin</text>
<text text-anchor="middle" x="280.5" y="-823.5" font-family="Helvetica,sans-Serif" font-size="10.00">Impl.ResetEscZone</text>
</a>
</g>
</g>
<!-- Node1&#45;&gt;Node19 -->
<g id="edge18" class="edge"><title>Node1&#45;&gt;Node19</title>
<path fill="none" stroke="midnightblue" d="M91.4524,-725.666C111.066,-747.857 148.252,-786.175 188,-807.5 195.815,-811.693 204.404,-815.184 213.093,-818.084"/>
<polygon fill="midnightblue" stroke="midnightblue" points="94.0207,-723.285 84.8271,-718.019 88.7304,-727.869 94.0207,-723.285"/>
</g>
<!-- Node20 -->
<g id="node20" class="node"><title>Node20</title>
<g id="a_node20"><a xlink:href="../../d5/da5/classsrc_1_1harness_1_1sas_1_1SasAdminImpl.html#a6b3e526041f29ed1cce622303af671de" target="_top" xlink:title="src.harness.sas.SasAdmin\lImpl.PreloadRegistrationData">
<polygon fill="white" stroke="black" points="208,-767.5 208,-797.5 353,-797.5 353,-767.5 208,-767.5"/>
<text text-anchor="start" x="216" y="-785.5" font-family="Helvetica,sans-Serif" font-size="10.00">src.harness.sas.SasAdmin</text>
<text text-anchor="middle" x="280.5" y="-774.5" font-family="Helvetica,sans-Serif" font-size="10.00">Impl.PreloadRegistrationData</text>
</a>
</g>
</g>
<!-- Node1&#45;&gt;Node20 -->
<g id="edge19" class="edge"><title>Node1&#45;&gt;Node20</title>
<path fill="none" stroke="midnightblue" d="M104.996,-722.681C127.126,-733.504 159.012,-748.25 188,-758.5 197.135,-761.73 206.92,-764.746 216.569,-767.475"/>
<polygon fill="midnightblue" stroke="midnightblue" points="106.369,-719.455 95.8534,-718.161 103.267,-725.73 106.369,-719.455"/>
</g>
<!-- Node21 -->
<g id="node21" class="node"><title>Node21</title>
<g id="a_node21"><a xlink:href="../../d5/da5/classsrc_1_1harness_1_1sas_1_1SasAdminImpl.html#a98ab8480be905cf11ec2294e8ea4261f" target="_top" xlink:title="src.harness.sas.SasAdmin\lImpl.InjectFss">
<polygon fill="white" stroke="black" points="213.5,-718.5 213.5,-748.5 347.5,-748.5 347.5,-718.5 213.5,-718.5"/>
<text text-anchor="start" x="221.5" y="-736.5" font-family="Helvetica,sans-Serif" font-size="10.00">src.harness.sas.SasAdmin</text>
<text text-anchor="middle" x="280.5" y="-725.5" font-family="Helvetica,sans-Serif" font-size="10.00">Impl.InjectFss</text>
</a>
</g>
</g>
<!-- Node1&#45;&gt;Node21 -->
<g id="edge20" class="edge"><title>Node1&#45;&gt;Node21</title>
<path fill="none" stroke="midnightblue" d="M162.08,-719.004C179.153,-721.111 196.855,-723.297 213.177,-725.312"/>
<polygon fill="midnightblue" stroke="midnightblue" points="162.469,-715.525 152.116,-717.774 161.612,-722.473 162.469,-715.525"/>
</g>
<!-- Node22 -->
<g id="node22" class="node"><title>Node22</title>
<g id="a_node22"><a xlink:href="../../d5/da5/classsrc_1_1harness_1_1sas_1_1SasAdminImpl.html#a0b8ca6ee99e3e3d8c24be2bfbc82c6b0" target="_top" xlink:title="src.harness.sas.SasAdmin\lImpl.InjectWisp">
<polygon fill="white" stroke="black" points="213.5,-669.5 213.5,-699.5 347.5,-699.5 347.5,-669.5 213.5,-669.5"/>
<text text-anchor="start" x="221.5" y="-687.5" font-family="Helvetica,sans-Serif" font-size="10.00">src.harness.sas.SasAdmin</text>
<text text-anchor="middle" x="280.5" y="-676.5" font-family="Helvetica,sans-Serif" font-size="10.00">Impl.InjectWisp</text>
</a>
</g>
</g>
<!-- Node1&#45;&gt;Node22 -->
<g id="edge21" class="edge"><title>Node1&#45;&gt;Node22</title>
<path fill="none" stroke="midnightblue" d="M162.08,-698.416C179.153,-696.393 196.855,-694.295 213.177,-692.36"/>
<polygon fill="midnightblue" stroke="midnightblue" points="161.634,-694.945 152.116,-699.597 162.458,-701.896 161.634,-694.945"/>
</g>
<!-- Node23 -->
<g id="node23" class="node"><title>Node23</title>
<g id="a_node23"><a xlink:href="../../d5/da5/classsrc_1_1harness_1_1sas_1_1SasAdminImpl.html#a366969c27aff167aa74c1c3ccc052665" target="_top" xlink:title="src.harness.sas.SasAdmin\lImpl.InjectSasAdministratorRecord">
<polygon fill="white" stroke="black" points="196,-620.5 196,-650.5 365,-650.5 365,-620.5 196,-620.5"/>
<text text-anchor="start" x="204" y="-638.5" font-family="Helvetica,sans-Serif" font-size="10.00">src.harness.sas.SasAdmin</text>
<text text-anchor="middle" x="280.5" y="-627.5" font-family="Helvetica,sans-Serif" font-size="10.00">Impl.InjectSasAdministratorRecord</text>
</a>
</g>
</g>
<!-- Node1&#45;&gt;Node23 -->
<g id="edge22" class="edge"><title>Node1&#45;&gt;Node23</title>
<path fill="none" stroke="midnightblue" d="M105.891,-694.666C128.035,-684.393 159.525,-670.491 188,-660.5 198.1,-656.956 208.971,-653.6 219.568,-650.565"/>
<polygon fill="midnightblue" stroke="midnightblue" points="104.286,-691.553 96.7143,-698.964 107.255,-697.892 104.286,-691.553"/>
</g>
<!-- Node24 -->
<g id="node24" class="node"><title>Node24</title>
<g id="a_node24"><a xlink:href="../../d5/da5/classsrc_1_1harness_1_1sas_1_1SasAdminImpl.html#ada7c740d056b33b1effa016a93ceed88" target="_top" xlink:title="src.harness.sas.SasAdmin\lImpl.TriggerMeasurementReport\lRegistration">
<polygon fill="white" stroke="black" points="202,-561 202,-602 359,-602 359,-561 202,-561"/>
<text text-anchor="start" x="210" y="-590" font-family="Helvetica,sans-Serif" font-size="10.00">src.harness.sas.SasAdmin</text>
<text text-anchor="start" x="210" y="-579" font-family="Helvetica,sans-Serif" font-size="10.00">Impl.TriggerMeasurementReport</text>
<text text-anchor="middle" x="280.5" y="-568" font-family="Helvetica,sans-Serif" font-size="10.00">Registration</text>
</a>
</g>
</g>
<!-- Node1&#45;&gt;Node24 -->
<g id="edge23" class="edge"><title>Node1&#45;&gt;Node24</title>
<path fill="none" stroke="midnightblue" d="M92.3356,-691.396C112.397,-669.963 149.543,-633.392 188,-611.5 194.102,-608.026 200.665,-604.885 207.372,-602.061"/>
<polygon fill="midnightblue" stroke="midnightblue" points="89.7118,-689.079 85.5162,-698.808 94.863,-693.819 89.7118,-689.079"/>
</g>
<!-- Node25 -->
<g id="node25" class="node"><title>Node25</title>
<g id="a_node25"><a xlink:href="../../d5/da5/classsrc_1_1harness_1_1sas_1_1SasAdminImpl.html#a3dc26f1c665fb11daf4592f6d2c38a36" target="_top" xlink:title="src.harness.sas.SasAdmin\lImpl.TriggerMeasurementReport\lHeartbeat">
<polygon fill="white" stroke="black" points="202,-501 202,-542 359,-542 359,-501 202,-501"/>
<text text-anchor="start" x="210" y="-530" font-family="Helvetica,sans-Serif" font-size="10.00">src.harness.sas.SasAdmin</text>
<text text-anchor="start" x="210" y="-519" font-family="Helvetica,sans-Serif" font-size="10.00">Impl.TriggerMeasurementReport</text>
<text text-anchor="middle" x="280.5" y="-508" font-family="Helvetica,sans-Serif" font-size="10.00">Heartbeat</text>
</a>
</g>
</g>
<!-- Node1&#45;&gt;Node25 -->
<g id="edge24" class="edge"><title>Node1&#45;&gt;Node25</title>
<path fill="none" stroke="midnightblue" d="M85.5022,-689.354C101.091,-656.399 137.359,-588.899 188,-551.5 192.707,-548.024 197.837,-544.938 203.186,-542.2"/>
<polygon fill="midnightblue" stroke="midnightblue" points="82.1757,-688.211 81.1755,-698.758 88.5349,-691.137 82.1757,-688.211"/>
</g>
<!-- Node26 -->
<g id="node26" class="node"><title>Node26</title>
<g id="a_node26"><a xlink:href="../../d5/da5/classsrc_1_1harness_1_1sas_1_1SasAdminImpl.html#ad323db3c18434a693fe0227aba1334bf" target="_top" xlink:title="src.harness.sas.SasAdmin\lImpl.InjectSasImplementation\lRecord">
<polygon fill="white" stroke="black" points="207.5,-441 207.5,-482 353.5,-482 353.5,-441 207.5,-441"/>
<text text-anchor="start" x="215.5" y="-470" font-family="Helvetica,sans-Serif" font-size="10.00">src.harness.sas.SasAdmin</text>
<text text-anchor="start" x="215.5" y="-459" font-family="Helvetica,sans-Serif" font-size="10.00">Impl.InjectSasImplementation</text>
<text text-anchor="middle" x="280.5" y="-448" font-family="Helvetica,sans-Serif" font-size="10.00">Record</text>
</a>
</g>
</g>
<!-- Node1&#45;&gt;Node26 -->
<g id="edge25" class="edge"><title>Node1&#45;&gt;Node26</title>
<path fill="none" stroke="midnightblue" d="M81.6579,-688.697C92.6536,-646.267 124.227,-546.027 188,-491.5 193.718,-486.611 200.253,-482.514 207.141,-479.082"/>
<polygon fill="midnightblue" stroke="midnightblue" points="78.2088,-688.064 79.1948,-698.613 85.0024,-689.751 78.2088,-688.064"/>
</g>
<!-- Node27 -->
<g id="node27" class="node"><title>Node27</title>
<g id="a_node27"><a xlink:href="../../d5/da5/classsrc_1_1harness_1_1sas_1_1SasAdminImpl.html#aaba489d9a4323388336af458f60209ab" target="_top" xlink:title="src.harness.sas.SasAdmin\lImpl.InjectEscSensorDataRecord">
<polygon fill="white" stroke="black" points="199,-392.5 199,-422.5 362,-422.5 362,-392.5 199,-392.5"/>
<text text-anchor="start" x="207" y="-410.5" font-family="Helvetica,sans-Serif" font-size="10.00">src.harness.sas.SasAdmin</text>
<text text-anchor="middle" x="280.5" y="-399.5" font-family="Helvetica,sans-Serif" font-size="10.00">Impl.InjectEscSensorDataRecord</text>
</a>
</g>
</g>
<!-- Node1&#45;&gt;Node27 -->
<g id="edge26" class="edge"><title>Node1&#45;&gt;Node27</title>
<path fill="none" stroke="midnightblue" d="M78.8981,-688.955C84.8848,-638.351 108.011,-502.094 188,-431.5 191.817,-428.131 196.051,-425.226 200.546,-422.723"/>
<polygon fill="midnightblue" stroke="midnightblue" points="75.4182,-688.581 77.8167,-698.901 82.3772,-689.338 75.4182,-688.581"/>
</g>
<!-- Node28 -->
<g id="node28" class="node"><title>Node28</title>
<g id="a_node28"><a xlink:href="../../d5/da5/classsrc_1_1harness_1_1sas_1_1SasAdminImpl.html#a2265c003bcfcb1db2da2f02c8a579b77" target="_top" xlink:title="src.harness.sas.SasAdmin\lImpl.TriggerPpaCreation">
<polygon fill="white" stroke="black" points="213.5,-343.5 213.5,-373.5 347.5,-373.5 347.5,-343.5 213.5,-343.5"/>
<text text-anchor="start" x="221.5" y="-361.5" font-family="Helvetica,sans-Serif" font-size="10.00">src.harness.sas.SasAdmin</text>
<text text-anchor="middle" x="280.5" y="-350.5" font-family="Helvetica,sans-Serif" font-size="10.00">Impl.TriggerPpaCreation</text>
</a>
</g>
</g>
<!-- Node1&#45;&gt;Node28 -->
<g id="edge27" class="edge"><title>Node1&#45;&gt;Node28</title>
<path fill="none" stroke="midnightblue" d="M77.6427,-688.743C80.5797,-632.324 96.9345,-469.053 188,-383.5 195.201,-376.735 204.053,-371.767 213.386,-368.127"/>
<polygon fill="midnightblue" stroke="midnightblue" points="74.1423,-688.68 77.2067,-698.822 81.1358,-688.982 74.1423,-688.68"/>
</g>
<!-- Node29 -->
<g id="node29" class="node"><title>Node29</title>
<g id="a_node29"><a xlink:href="../../d5/da5/classsrc_1_1harness_1_1sas_1_1SasAdminImpl.html#ad42f4d947d52bafa1d9830177d5079f3" target="_top" xlink:title="src.harness.sas.SasAdmin\lImpl.TriggerDailyActivitiesImmediately">
<polygon fill="white" stroke="black" points="188,-294.5 188,-324.5 373,-324.5 373,-294.5 188,-294.5"/>
<text text-anchor="start" x="196" y="-312.5" font-family="Helvetica,sans-Serif" font-size="10.00">src.harness.sas.SasAdmin</text>
<text text-anchor="middle" x="280.5" y="-301.5" font-family="Helvetica,sans-Serif" font-size="10.00">Impl.TriggerDailyActivitiesImmediately</text>
</a>
</g>
</g>
<!-- Node1&#45;&gt;Node29 -->
<g id="edge28" class="edge"><title>Node1&#45;&gt;Node29</title>
<path fill="none" stroke="midnightblue" d="M76.6145,-688.331C76.5714,-626.074 85.2147,-435.069 188,-334.5 191.884,-330.699 196.288,-327.463 201.012,-324.709"/>
<polygon fill="midnightblue" stroke="midnightblue" points="73.118,-688.738 76.7082,-698.706 80.1177,-688.675 73.118,-688.738"/>
</g>
<!-- Node30 -->
<g id="node30" class="node"><title>Node30</title>
<g id="a_node30"><a xlink:href="../../d5/da5/classsrc_1_1harness_1_1sas_1_1SasAdminImpl.html#a0ffd16953bdd6d6c395d634fc2811b10" target="_top" xlink:title="src.harness.sas.SasAdmin\lImpl.GetDailyActivitiesStatus">
<polygon fill="white" stroke="black" points="207.5,-245.5 207.5,-275.5 353.5,-275.5 353.5,-245.5 207.5,-245.5"/>
<text text-anchor="start" x="215.5" y="-263.5" font-family="Helvetica,sans-Serif" font-size="10.00">src.harness.sas.SasAdmin</text>
<text text-anchor="middle" x="280.5" y="-252.5" font-family="Helvetica,sans-Serif" font-size="10.00">Impl.GetDailyActivitiesStatus</text>
</a>
</g>
</g>
<!-- Node1&#45;&gt;Node30 -->
<g id="edge29" class="edge"><title>Node1&#45;&gt;Node30</title>
<path fill="none" stroke="midnightblue" d="M79.5204,-688.993C89.5994,-613.904 129.318,-344.777 188,-285.5 193.561,-279.883 200.254,-275.493 207.458,-272.068"/>
<polygon fill="midnightblue" stroke="midnightblue" points="76.0424,-688.597 78.2039,-698.969 82.9823,-689.513 76.0424,-688.597"/>
</g>
<!-- Node31 -->
<g id="node31" class="node"><title>Node31</title>
<g id="a_node31"><a xlink:href="../../d5/da5/classsrc_1_1harness_1_1sas_1_1SasAdminImpl.html#acdeacce20789bfc79c2658f1469d3d05" target="_top" xlink:title="src.harness.sas.SasAdmin\lImpl.InjectCpiUser">
<polygon fill="white" stroke="black" points="213.5,-196.5 213.5,-226.5 347.5,-226.5 347.5,-196.5 213.5,-196.5"/>
<text text-anchor="start" x="221.5" y="-214.5" font-family="Helvetica,sans-Serif" font-size="10.00">src.harness.sas.SasAdmin</text>
<text text-anchor="middle" x="280.5" y="-203.5" font-family="Helvetica,sans-Serif" font-size="10.00">Impl.InjectCpiUser</text>
</a>
</g>
</g>
<!-- Node1&#45;&gt;Node31 -->
<g id="edge30" class="edge"><title>Node1&#45;&gt;Node31</title>
<path fill="none" stroke="midnightblue" d="M79.0207,-688.337C87.5754,-606.907 123.375,-303.477 188,-236.5 194.975,-229.271 203.821,-224.068 213.251,-220.335"/>
<polygon fill="midnightblue" stroke="midnightblue" points="75.4979,-688.38 77.9561,-698.685 82.4611,-689.096 75.4979,-688.38"/>
</g>
<!-- Node32 -->
<g id="node32" class="node"><title>Node32</title>
<g id="a_node32"><a xlink:href="../../d5/da5/classsrc_1_1harness_1_1sas_1_1SasAdminImpl.html#abaeff8cf502b2a68eb234f3066549ddd" target="_top" xlink:title="src.harness.sas.SasAdmin\lImpl.TriggerLoadDpas">
<polygon fill="white" stroke="black" points="213.5,-147.5 213.5,-177.5 347.5,-177.5 347.5,-147.5 213.5,-147.5"/>
<text text-anchor="start" x="221.5" y="-165.5" font-family="Helvetica,sans-Serif" font-size="10.00">src.harness.sas.SasAdmin</text>
<text text-anchor="middle" x="280.5" y="-154.5" font-family="Helvetica,sans-Serif" font-size="10.00">Impl.TriggerLoadDpas</text>
</a>
</g>
</g>
<!-- Node1&#45;&gt;Node32 -->
<g id="edge31" class="edge"><title>Node1&#45;&gt;Node32</title>
<path fill="none" stroke="midnightblue" d="M78.5054,-688.773C85.448,-602.889 117.11,-262.536 188,-187.5 194.899,-180.198 203.705,-174.957 213.118,-171.208"/>
<polygon fill="midnightblue" stroke="midnightblue" points="74.9997,-688.708 77.7033,-698.952 81.9781,-689.258 74.9997,-688.708"/>
</g>
<!-- Node33 -->
<g id="node33" class="node"><title>Node33</title>
<g id="a_node33"><a xlink:href="../../d5/da5/classsrc_1_1harness_1_1sas_1_1SasAdminImpl.html#a759e066267cc1de551684f87a5521fa7" target="_top" xlink:title="src.harness.sas.SasAdmin\lImpl.TriggerBulkDpaActivation">
<polygon fill="white" stroke="black" points="206,-98.5 206,-128.5 355,-128.5 355,-98.5 206,-98.5"/>
<text text-anchor="start" x="214" y="-116.5" font-family="Helvetica,sans-Serif" font-size="10.00">src.harness.sas.SasAdmin</text>
<text text-anchor="middle" x="280.5" y="-105.5" font-family="Helvetica,sans-Serif" font-size="10.00">Impl.TriggerBulkDpaActivation</text>
</a>
</g>
</g>
<!-- Node1&#45;&gt;Node33 -->
<g id="edge32" class="edge"><title>Node1&#45;&gt;Node33</title>
<path fill="none" stroke="midnightblue" d="M78.103,-688.964C83.5961,-598.547 110.878,-221.583 188,-138.5 193.042,-133.069 199.138,-128.775 205.762,-125.385"/>
<polygon fill="midnightblue" stroke="midnightblue" points="74.6091,-688.759 77.5156,-698.947 81.597,-689.17 74.6091,-688.759"/>
</g>
<!-- Node34 -->
<g id="node34" class="node"><title>Node34</title>
<g id="a_node34"><a xlink:href="../../d5/da5/classsrc_1_1harness_1_1sas_1_1SasAdminImpl.html#aa4ad3b854ec6b67fb957dcd0e6046edb" target="_top" xlink:title="src.harness.sas.SasAdmin\lImpl.TriggerDpaActivation">
<polygon fill="white" stroke="black" points="213.5,-49.5 213.5,-79.5 347.5,-79.5 347.5,-49.5 213.5,-49.5"/>
<text text-anchor="start" x="221.5" y="-67.5" font-family="Helvetica,sans-Serif" font-size="10.00">src.harness.sas.SasAdmin</text>
<text text-anchor="middle" x="280.5" y="-56.5" font-family="Helvetica,sans-Serif" font-size="10.00">Impl.TriggerDpaActivation</text>
</a>
</g>
</g>
<!-- Node1&#45;&gt;Node34 -->
<g id="edge33" class="edge"><title>Node1&#45;&gt;Node34</title>
<path fill="none" stroke="midnightblue" d="M77.7715,-688.463C81.877,-592.319 104.227,-179.199 188,-88.5 194.909,-81.0202 203.838,-75.7557 213.403,-72.0722"/>
<polygon fill="midnightblue" stroke="midnightblue" points="74.2696,-688.439 77.3584,-698.574 81.2638,-688.725 74.2696,-688.439"/>
</g>
<!-- Node35 -->
<g id="node35" class="node"><title>Node35</title>
<g id="a_node35"><a xlink:href="../../d5/da5/classsrc_1_1harness_1_1sas_1_1SasAdminImpl.html#a8fdf1ee22e8629acd55646e2febf067b" target="_top" xlink:title="src.harness.sas.SasAdmin\lImpl.TriggerDpaDeactivation">
<polygon fill="white" stroke="black" points="210,-0.5 210,-30.5 351,-30.5 351,-0.5 210,-0.5"/>
<text text-anchor="start" x="218" y="-18.5" font-family="Helvetica,sans-Serif" font-size="10.00">src.harness.sas.SasAdmin</text>
<text text-anchor="middle" x="280.5" y="-7.5" font-family="Helvetica,sans-Serif" font-size="10.00">Impl.TriggerDpaDeactivation</text>
</a>
</g>
</g>
<!-- Node1&#45;&gt;Node35 -->
<g id="edge34" class="edge"><title>Node1&#45;&gt;Node35</title>
<path fill="none" stroke="midnightblue" d="M77.4838,-688.507C80.3226,-587.932 97.9559,-138.243 188,-39.5 193.976,-32.9472 201.501,-28.0909 209.658,-24.5071"/>
<polygon fill="midnightblue" stroke="midnightblue" points="73.9781,-688.679 77.2126,-698.768 80.9757,-688.864 73.9781,-688.679"/>
</g>
<!-- Node3 -->
<g id="node3" class="node"><title>Node3</title>
<g id="a_node3"><a xlink:href="../../db/dbc/classsrc_1_1harness_1_1sas_1_1SasImpl.html#ae7c23f8712102b374e9ad313202456d5" target="_top" xlink:title="src.harness.sas.SasImpl.\lRegistration">
<polygon fill="white" stroke="black" points="409,-1487.5 409,-1517.5 537,-1517.5 537,-1487.5 409,-1487.5"/>
<text text-anchor="start" x="417" y="-1505.5" font-family="Helvetica,sans-Serif" font-size="10.00">src.harness.sas.SasImpl.</text>
<text text-anchor="middle" x="473" y="-1494.5" font-family="Helvetica,sans-Serif" font-size="10.00">Registration</text>
</a>
</g>
</g>
<!-- Node2&#45;&gt;Node3 -->
<g id="edge2" class="edge"><title>Node2&#45;&gt;Node3</title>
<path fill="none" stroke="midnightblue" d="M305.843,-1402.71C330.44,-1424.27 370.245,-1456.84 409,-1478.5 414.824,-1481.75 421.177,-1484.75 427.536,-1487.44"/>
<polygon fill="midnightblue" stroke="midnightblue" points="307.912,-1399.87 298.108,-1395.85 303.268,-1405.1 307.912,-1399.87"/>
</g>
<!-- Node4 -->
<g id="node4" class="node"><title>Node4</title>
<g id="a_node4"><a xlink:href="../../db/dbc/classsrc_1_1harness_1_1sas_1_1SasImpl.html#a21113e5ba5aa03d6b5e1167028fd5658" target="_top" xlink:title="src.harness.sas.SasImpl.\lSpectrumInquiry">
<polygon fill="white" stroke="black" points="409,-1438.5 409,-1468.5 537,-1468.5 537,-1438.5 409,-1438.5"/>
<text text-anchor="start" x="417" y="-1456.5" font-family="Helvetica,sans-Serif" font-size="10.00">src.harness.sas.SasImpl.</text>
<text text-anchor="middle" x="473" y="-1445.5" font-family="Helvetica,sans-Serif" font-size="10.00">SpectrumInquiry</text>
</a>
</g>
</g>
<!-- Node2&#45;&gt;Node4 -->
<g id="edge3" class="edge"><title>Node2&#45;&gt;Node4</title>
<path fill="none" stroke="midnightblue" d="M330.06,-1399.2C353.847,-1408.35 382.916,-1419.52 409,-1429.5 416.543,-1432.39 424.596,-1435.46 432.337,-1438.41"/>
<polygon fill="midnightblue" stroke="midnightblue" points="331.14,-1395.87 320.55,-1395.54 328.626,-1402.4 331.14,-1395.87"/>
</g>
<!-- Node5 -->
<g id="node5" class="node"><title>Node5</title>
<g id="a_node5"><a xlink:href="../../db/dbc/classsrc_1_1harness_1_1sas_1_1SasImpl.html#abb86d5442fd13eaa7f8940d916d1414e" target="_top" xlink:title="src.harness.sas.SasImpl.\lGrant">
<polygon fill="white" stroke="black" points="409,-1389.5 409,-1419.5 537,-1419.5 537,-1389.5 409,-1389.5"/>
<text text-anchor="start" x="417" y="-1407.5" font-family="Helvetica,sans-Serif" font-size="10.00">src.harness.sas.SasImpl.</text>
<text text-anchor="middle" x="473" y="-1396.5" font-family="Helvetica,sans-Serif" font-size="10.00">Grant</text>
</a>
</g>
</g>
<!-- Node2&#45;&gt;Node5 -->
<g id="edge4" class="edge"><title>Node2&#45;&gt;Node5</title>
<path fill="none" stroke="midnightblue" d="M354.96,-1389.75C372.681,-1391.99 391.465,-1394.35 408.677,-1396.52"/>
<polygon fill="midnightblue" stroke="midnightblue" points="355.028,-1386.24 344.669,-1388.46 354.153,-1393.18 355.028,-1386.24"/>
</g>
<!-- Node6 -->
<g id="node6" class="node"><title>Node6</title>
<g id="a_node6"><a xlink:href="../../db/dbc/classsrc_1_1harness_1_1sas_1_1SasImpl.html#a1b8ebaf683a96b8c56615dfd121cc48f" target="_top" xlink:title="src.harness.sas.SasImpl.\lHeartbeat">
<polygon fill="white" stroke="black" points="409,-1340.5 409,-1370.5 537,-1370.5 537,-1340.5 409,-1340.5"/>
<text text-anchor="start" x="417" y="-1358.5" font-family="Helvetica,sans-Serif" font-size="10.00">src.harness.sas.SasImpl.</text>
<text text-anchor="middle" x="473" y="-1347.5" font-family="Helvetica,sans-Serif" font-size="10.00">Heartbeat</text>
</a>
</g>
</g>
<!-- Node2&#45;&gt;Node6 -->
<g id="edge5" class="edge"><title>Node2&#45;&gt;Node6</title>
<path fill="none" stroke="midnightblue" d="M354.96,-1370.86C372.681,-1368.53 391.465,-1366.07 408.677,-1363.81"/>
<polygon fill="midnightblue" stroke="midnightblue" points="354.129,-1367.44 344.669,-1372.21 355.04,-1374.38 354.129,-1367.44"/>
</g>
<!-- Node7 -->
<g id="node7" class="node"><title>Node7</title>
<g id="a_node7"><a xlink:href="../../db/dbc/classsrc_1_1harness_1_1sas_1_1SasImpl.html#a9878f3a79d5614f89c502996ff888ce9" target="_top" xlink:title="src.harness.sas.SasImpl.\lRelinquishment">
<polygon fill="white" stroke="black" points="409,-1291.5 409,-1321.5 537,-1321.5 537,-1291.5 409,-1291.5"/>
<text text-anchor="start" x="417" y="-1309.5" font-family="Helvetica,sans-Serif" font-size="10.00">src.harness.sas.SasImpl.</text>
<text text-anchor="middle" x="473" y="-1298.5" font-family="Helvetica,sans-Serif" font-size="10.00">Relinquishment</text>
</a>
</g>
</g>
<!-- Node2&#45;&gt;Node7 -->
<g id="edge6" class="edge"><title>Node2&#45;&gt;Node7</title>
<path fill="none" stroke="midnightblue" d="M354.103,-1364C360.599,-1361.76 366.987,-1359.27 373,-1356.5 390.692,-1348.35 391.834,-1340.71 409,-1331.5 415.636,-1327.94 422.892,-1324.6 430.043,-1321.59"/>
<polygon fill="midnightblue" stroke="midnightblue" points="352.979,-1360.68 344.539,-1367.09 355.131,-1367.34 352.979,-1360.68"/>
</g>
<!-- Node8 -->
<g id="node8" class="node"><title>Node8</title>
<g id="a_node8"><a xlink:href="../../db/dbc/classsrc_1_1harness_1_1sas_1_1SasImpl.html#ae87a8b22797c3136301c1d825881d80f" target="_top" xlink:title="src.harness.sas.SasImpl.\lDeregistration">
<polygon fill="white" stroke="black" points="409,-1242.5 409,-1272.5 537,-1272.5 537,-1242.5 409,-1242.5"/>
<text text-anchor="start" x="417" y="-1260.5" font-family="Helvetica,sans-Serif" font-size="10.00">src.harness.sas.SasImpl.</text>
<text text-anchor="middle" x="473" y="-1249.5" font-family="Helvetica,sans-Serif" font-size="10.00">Deregistration</text>
</a>
</g>
</g>
<!-- Node2&#45;&gt;Node8 -->
<g id="edge7" class="edge"><title>Node2&#45;&gt;Node8</title>
<path fill="none" stroke="midnightblue" d="M354.013,-1367.96C360.847,-1364.92 367.327,-1361.16 373,-1356.5 401.271,-1333.3 382.187,-1307.37 409,-1282.5 413.141,-1278.66 417.944,-1275.38 423.015,-1272.59"/>
<polygon fill="midnightblue" stroke="midnightblue" points="352.56,-1364.77 344.519,-1371.67 355.107,-1371.29 352.56,-1364.77"/>
</g>
</g>
</svg>
