<?xml version="1.0" encoding="UTF-8" standalone="no"?>
<!DOCTYPE svg PUBLIC "-//W3C//DTD SVG 1.1//EN"
 "http://www.w3.org/Graphics/SVG/1.1/DTD/svg11.dtd">
<!-- Generated by graphviz version 2.38.0 (20140413.2041)
 -->
<!-- Title: src.harness.security_testcase.SecurityTestCase Pages: 1 -->
<svg width="218pt" height="229pt"
 viewBox="0.00 0.00 217.50 229.00" xmlns="http://www.w3.org/2000/svg" xmlns:xlink="http://www.w3.org/1999/xlink">
<g id="graph0" class="graph" transform="scale(1 1) rotate(0) translate(4 225)">
<title>src.harness.security_testcase.SecurityTestCase</title>
<polygon fill="white" stroke="none" points="-4,4 -4,-225 213.5,-225 213.5,4 -4,4"/>
<!-- Node1 -->
<g id="node1" class="node"><title>Node1</title>
<polygon fill="#bfbfbf" stroke="black" points="52.5,-0.5 52.5,-30.5 193.5,-30.5 193.5,-0.5 52.5,-0.5"/>
<text text-anchor="start" x="60.5" y="-18.5" font-family="Helvetica,sans-Serif" font-size="10.00">src.harness.security</text>
<text text-anchor="middle" x="123" y="-7.5" font-family="Helvetica,sans-Serif" font-size="10.00">_testcase.SecurityTestCase</text>
</g>
<!-- Node2 -->
<g id="node2" class="node"><title>Node2</title>
<g id="a_node2"><a xlink:href="../../df/dc5/classsrc_1_1harness_1_1sas__testcase_1_1SasTestCase.html" target="_top" xlink:title="src.harness.sas_testcase.\lSasTestCase">
<polygon fill="white" stroke="black" points="57,-67.5 57,-97.5 189,-97.5 189,-67.5 57,-67.5"/>
<text text-anchor="start" x="65" y="-85.5" font-family="Helvetica,sans-Serif" font-size="10.00">src.harness.sas_testcase.</text>
<text text-anchor="middle" x="123" y="-74.5" font-family="Helvetica,sans-Serif" font-size="10.00">SasTestCase</text>
</a>
</g>
</g>
<!-- Node2&#45;&gt;Node1 -->
<g id="edge1" class="edge"><title>Node2&#45;&gt;Node1</title>
<path fill="none" stroke="midnightblue" d="M123,-57.1081C123,-48.1539 123,-38.3227 123,-30.5765"/>
<polygon fill="midnightblue" stroke="midnightblue" points="119.5,-57.3959 123,-67.396 126.5,-57.396 119.5,-57.3959"/>
</g>
<!-- Node3 -->
<g id="node3" class="node"><title>Node3</title>
<g id="a_node3"><a xlink:href="../../df/ded/classsrc_1_1harness_1_1sas__interface_1_1SasTestcaseInterface.html" target="_top" xlink:title="src.harness.sas_interface.\lSasTestcaseInterface">
<polygon fill="white" stroke="black" points="0,-134.5 0,-164.5 132,-164.5 132,-134.5 0,-134.5"/>
<text text-anchor="start" x="8" y="-152.5" font-family="Helvetica,sans-Serif" font-size="10.00">src.harness.sas_interface.</text>
<text text-anchor="middle" x="66" y="-141.5" font-family="Helvetica,sans-Serif" font-size="10.00">SasTestcaseInterface</text>
</a>
</g>
</g>
<!-- Node3&#45;&gt;Node2 -->
<g id="edge2" class="edge"><title>Node3&#45;&gt;Node2</title>
<path fill="none" stroke="midnightblue" d="M85.0852,-126.736C93.5187,-117.119 103.191,-106.089 110.656,-97.5765"/>
<polygon fill="midnightblue" stroke="midnightblue" points="82.3299,-124.57 78.3682,-134.396 87.5929,-129.185 82.3299,-124.57"/>
</g>
<!-- Node4 -->
<g id="node4" class="node"><title>Node4</title>
<polygon fill="white" stroke="#bfbfbf" points="44.5,-201.5 44.5,-220.5 87.5,-220.5 87.5,-201.5 44.5,-201.5"/>
<text text-anchor="middle" x="66" y="-208.5" font-family="Helvetica,sans-Serif" font-size="10.00">object</text>
</g>
<!-- Node4&#45;&gt;Node3 -->
<g id="edge3" class="edge"><title>Node4&#45;&gt;Node3</title>
<path fill="none" stroke="midnightblue" d="M66,-191.235C66,-182.586 66,-172.497 66,-164.523"/>
<polygon fill="midnightblue" stroke="midnightblue" points="62.5001,-191.475 66,-201.475 69.5001,-191.475 62.5001,-191.475"/>
</g>
<!-- Node5 -->
<g id="node5" class="node"><title>Node5</title>
<polygon fill="white" stroke="#bfbfbf" points="150.5,-140 150.5,-159 209.5,-159 209.5,-140 150.5,-140"/>
<text text-anchor="middle" x="180" y="-147" font-family="Helvetica,sans-Serif" font-size="10.00">TestCase</text>
</g>
<!-- Node5&#45;&gt;Node2 -->
<g id="edge4" class="edge"><title>Node5&#45;&gt;Node2</title>
<path fill="none" stroke="midnightblue" d="M165.521,-131.989C156.204,-121.364 144.223,-107.702 135.355,-97.589"/>
<polygon fill="midnightblue" stroke="midnightblue" points="163.088,-134.523 172.313,-139.734 168.351,-129.908 163.088,-134.523"/>
</g>
</g>
</svg>
