<?xml version="1.0" encoding="UTF-8" standalone="no"?>
<!DOCTYPE svg PUBLIC "-//W3C//DTD SVG 1.1//EN"
 "http://www.w3.org/Graphics/SVG/1.1/DTD/svg11.dtd">
<!-- Generated by graphviz version 2.38.0 (20140413.2041)
 -->
<!-- Title: extract_ibfs.NormalizeLines Pages: 1 -->
<svg width="498pt" height="39pt"
 viewBox="0.00 0.00 498.00 39.00" xmlns="http://www.w3.org/2000/svg" xmlns:xlink="http://www.w3.org/1999/xlink">
<g id="graph0" class="graph" transform="scale(1 1) rotate(0) translate(4 35)">
<title>extract_ibfs.NormalizeLines</title>
<polygon fill="white" stroke="none" points="-4,4 -4,-35 494,-35 494,4 -4,4"/>
<!-- Node1 -->
<g id="node1" class="node"><title>Node1</title>
<polygon fill="#bfbfbf" stroke="black" points="0,-6 0,-25 138,-25 138,-6 0,-6"/>
<text text-anchor="middle" x="69" y="-13" font-family="Helvetica,sans-Serif" font-size="10.00">extract_ibfs.NormalizeLines</text>
</g>
<!-- Node2 -->
<g id="node2" class="node"><title>Node2</title>
<g id="a_node2"><a xlink:href="../../dc/d73/namespaceextract__ibfs.html#a119f685a69113d3dd92df56dd4e0a081" target="_top" xlink:title="extract_ibfs.ReadULSData\lRecords">
<polygon fill="white" stroke="black" points="174,-0.5 174,-30.5 308,-30.5 308,-0.5 174,-0.5"/>
<text text-anchor="start" x="182" y="-18.5" font-family="Helvetica,sans-Serif" font-size="10.00">extract_ibfs.ReadULSData</text>
<text text-anchor="middle" x="241" y="-7.5" font-family="Helvetica,sans-Serif" font-size="10.00">Records</text>
</a>
</g>
</g>
<!-- Node1&#45;&gt;Node2 -->
<g id="edge1" class="edge"><title>Node1&#45;&gt;Node2</title>
<path fill="none" stroke="midnightblue" d="M148.428,-15.5C156.896,-15.5 165.451,-15.5 173.754,-15.5"/>
<polygon fill="midnightblue" stroke="midnightblue" points="148.166,-12.0001 138.166,-15.5 148.166,-19.0001 148.166,-12.0001"/>
</g>
<!-- Node3 -->
<g id="node3" class="node"><title>Node3</title>
<g id="a_node3"><a xlink:href="../../dc/d73/namespaceextract__ibfs.html#afb6b9ec5be545f46a98a71c22832439e" target="_top" xlink:title="extract_ibfs.ExtractIBFSData">
<polygon fill="white" stroke="black" points="344,-6 344,-25 490,-25 490,-6 344,-6"/>
<text text-anchor="middle" x="417" y="-13" font-family="Helvetica,sans-Serif" font-size="10.00">extract_ibfs.ExtractIBFSData</text>
</a>
</g>
</g>
<!-- Node2&#45;&gt;Node3 -->
<g id="edge2" class="edge"><title>Node2&#45;&gt;Node3</title>
<path fill="none" stroke="midnightblue" d="M318.465,-15.5C326.889,-15.5 335.446,-15.5 343.815,-15.5"/>
<polygon fill="midnightblue" stroke="midnightblue" points="318.278,-12.0001 308.278,-15.5 318.278,-19.0001 318.278,-12.0001"/>
</g>
</g>
</svg>
