<?xml version="1.0" encoding="UTF-8" standalone="no"?>
<!DOCTYPE svg PUBLIC "-//W3C//DTD SVG 1.1//EN"
 "http://www.w3.org/Graphics/SVG/1.1/DTD/svg11.dtd">
<!-- Generated by graphviz version 2.38.0 (20140413.2041)
 -->
<!-- Title: extract_ibfs.ExtractIBFSData Pages: 1 -->
<svg width="528pt" height="263pt"
 viewBox="0.00 0.00 528.00 263.00" xmlns="http://www.w3.org/2000/svg" xmlns:xlink="http://www.w3.org/1999/xlink">
<g id="graph0" class="graph" transform="scale(1 1) rotate(0) translate(4 259)">
<title>extract_ibfs.ExtractIBFSData</title>
<polygon fill="white" stroke="none" points="-4,4 -4,-259 524,-259 524,4 -4,4"/>
<!-- Node1 -->
<g id="node1" class="node"><title>Node1</title>
<polygon fill="#bfbfbf" stroke="black" points="0,-117.5 0,-136.5 146,-136.5 146,-117.5 0,-117.5"/>
<text text-anchor="middle" x="73" y="-124.5" font-family="Helvetica,sans-Serif" font-size="10.00">extract_ibfs.ExtractIBFSData</text>
</g>
<!-- Node2 -->
<g id="node2" class="node"><title>Node2</title>
<g id="a_node2"><a xlink:href="../../dc/d73/namespaceextract__ibfs.html#a965a154dae10c9c574070599a11da7d3" target="_top" xlink:title="extract_ibfs.LoadIBFSSchema">
<polygon fill="white" stroke="black" points="189,-235.5 189,-254.5 339,-254.5 339,-235.5 189,-235.5"/>
<text text-anchor="middle" x="264" y="-242.5" font-family="Helvetica,sans-Serif" font-size="10.00">extract_ibfs.LoadIBFSSchema</text>
</a>
</g>
</g>
<!-- Node1&#45;&gt;Node2 -->
<g id="edge1" class="edge"><title>Node1&#45;&gt;Node2</title>
<path fill="none" stroke="midnightblue" d="M81.5059,-136.621C97.6243,-156.582 137.698,-202.587 182,-226 186.322,-228.284 190.917,-230.296 195.637,-232.069"/>
<polygon fill="midnightblue" stroke="midnightblue" points="194.86,-235.5 205.454,-235.38 197.097,-228.868 194.86,-235.5"/>
</g>
<!-- Node3 -->
<g id="node3" class="node"><title>Node3</title>
<g id="a_node3"><a xlink:href="../../dc/d73/namespaceextract__ibfs.html#a4be6c168b8eea33dbdaecef5aaa099e2" target="_top" xlink:title="extract_ibfs.UnzipNeeded\lFiles">
<polygon fill="white" stroke="black" points="199,-186 199,-216 329,-216 329,-186 199,-186"/>
<text text-anchor="start" x="207" y="-204" font-family="Helvetica,sans-Serif" font-size="10.00">extract_ibfs.UnzipNeeded</text>
<text text-anchor="middle" x="264" y="-193" font-family="Helvetica,sans-Serif" font-size="10.00">Files</text>
</a>
</g>
</g>
<!-- Node1&#45;&gt;Node3 -->
<g id="edge2" class="edge"><title>Node1&#45;&gt;Node3</title>
<path fill="none" stroke="midnightblue" d="M92.3782,-136.511C113.593,-147.252 149.716,-164.818 182,-177 187.362,-179.023 192.975,-180.988 198.637,-182.866"/>
<polygon fill="midnightblue" stroke="midnightblue" points="197.584,-186.203 208.176,-185.937 199.729,-179.54 197.584,-186.203"/>
</g>
<!-- Node4 -->
<g id="node4" class="node"><title>Node4</title>
<g id="a_node4"><a xlink:href="../../dc/d73/namespaceextract__ibfs.html#a119f685a69113d3dd92df56dd4e0a081" target="_top" xlink:title="extract_ibfs.ReadULSData\lRecords">
<polygon fill="white" stroke="black" points="197,-137 197,-167 331,-167 331,-137 197,-137"/>
<text text-anchor="start" x="205" y="-155" font-family="Helvetica,sans-Serif" font-size="10.00">extract_ibfs.ReadULSData</text>
<text text-anchor="middle" x="264" y="-144" font-family="Helvetica,sans-Serif" font-size="10.00">Records</text>
</a>
</g>
</g>
<!-- Node1&#45;&gt;Node4 -->
<g id="edge3" class="edge"><title>Node1&#45;&gt;Node4</title>
<path fill="none" stroke="midnightblue" d="M145.992,-136.523C159.293,-138.282 173.225,-140.125 186.649,-141.901"/>
<polygon fill="midnightblue" stroke="midnightblue" points="186.425,-145.401 196.797,-143.243 187.343,-138.462 186.425,-145.401"/>
</g>
<!-- Node7 -->
<g id="node7" class="node"><title>Node7</title>
<g id="a_node7"><a xlink:href="../../dc/d73/namespaceextract__ibfs.html#a50e44f5d2770ba3a26e9b7b60d80b308" target="_top" xlink:title="extract_ibfs.WriteHeader\lRecord">
<polygon fill="white" stroke="black" points="201.5,-88 201.5,-118 326.5,-118 326.5,-88 201.5,-88"/>
<text text-anchor="start" x="209.5" y="-106" font-family="Helvetica,sans-Serif" font-size="10.00">extract_ibfs.WriteHeader</text>
<text text-anchor="middle" x="264" y="-95" font-family="Helvetica,sans-Serif" font-size="10.00">Record</text>
</a>
</g>
</g>
<!-- Node1&#45;&gt;Node7 -->
<g id="edge6" class="edge"><title>Node1&#45;&gt;Node7</title>
<path fill="none" stroke="midnightblue" d="M146.262,-117.824C160.994,-115.953 176.492,-113.985 191.208,-112.116"/>
<polygon fill="midnightblue" stroke="midnightblue" points="191.773,-115.573 201.252,-110.841 190.891,-108.629 191.773,-115.573"/>
</g>
<!-- Node8 -->
<g id="node8" class="node"><title>Node8</title>
<g id="a_node8"><a xlink:href="../../dc/d73/namespaceextract__ibfs.html#afb5b181a5077035e495eaf1f80875590" target="_top" xlink:title="extract_ibfs.CollapseCoordination\lRecords">
<polygon fill="white" stroke="black" points="182,-39 182,-69 346,-69 346,-39 182,-39"/>
<text text-anchor="start" x="190" y="-57" font-family="Helvetica,sans-Serif" font-size="10.00">extract_ibfs.CollapseCoordination</text>
<text text-anchor="middle" x="264" y="-46" font-family="Helvetica,sans-Serif" font-size="10.00">Records</text>
</a>
</g>
</g>
<!-- Node1&#45;&gt;Node8 -->
<g id="edge7" class="edge"><title>Node1&#45;&gt;Node8</title>
<path fill="none" stroke="midnightblue" d="M93.6118,-117.436C115.031,-107.192 150.493,-90.8162 182,-79 188.203,-76.6737 194.729,-74.3924 201.273,-72.2124"/>
<polygon fill="midnightblue" stroke="midnightblue" points="202.413,-75.5222 210.837,-69.0974 200.245,-68.8663 202.413,-75.5222"/>
</g>
<!-- Node9 -->
<g id="node9" class="node"><title>Node9</title>
<g id="a_node9"><a xlink:href="../../dc/d73/namespaceextract__ibfs.html#a4e943dca987b3a757988f3c098159f2b" target="_top" xlink:title="extract_ibfs.WriteRecord">
<polygon fill="white" stroke="black" points="201.5,-0.5 201.5,-19.5 326.5,-19.5 326.5,-0.5 201.5,-0.5"/>
<text text-anchor="middle" x="264" y="-7.5" font-family="Helvetica,sans-Serif" font-size="10.00">extract_ibfs.WriteRecord</text>
</a>
</g>
</g>
<!-- Node1&#45;&gt;Node9 -->
<g id="edge8" class="edge"><title>Node1&#45;&gt;Node9</title>
<path fill="none" stroke="midnightblue" d="M81.8228,-117.322C98.2289,-97.694 138.345,-53.1135 182,-30 187.249,-27.2211 192.894,-24.8194 198.673,-22.7452"/>
<polygon fill="midnightblue" stroke="midnightblue" points="200.055,-25.9766 208.482,-19.5551 197.889,-19.3198 200.055,-25.9766"/>
</g>
<!-- Node5 -->
<g id="node5" class="node"><title>Node5</title>
<g id="a_node5"><a xlink:href="../../dc/d73/namespaceextract__ibfs.html#af7fef204919c657dc1dda9e5184d1bf1" target="_top" xlink:title="extract_ibfs.NormalizeLines">
<polygon fill="white" stroke="black" points="382,-161.5 382,-180.5 520,-180.5 520,-161.5 382,-161.5"/>
<text text-anchor="middle" x="451" y="-168.5" font-family="Helvetica,sans-Serif" font-size="10.00">extract_ibfs.NormalizeLines</text>
</a>
</g>
</g>
<!-- Node4&#45;&gt;Node5 -->
<g id="edge4" class="edge"><title>Node4&#45;&gt;Node5</title>
<path fill="none" stroke="midnightblue" d="M331.006,-158.779C344.153,-160.129 358.081,-161.56 371.598,-162.948"/>
<polygon fill="midnightblue" stroke="midnightblue" points="371.529,-166.459 381.834,-163.999 372.244,-159.496 371.529,-166.459"/>
</g>
<!-- Node6 -->
<g id="node6" class="node"><title>Node6</title>
<g id="a_node6"><a xlink:href="../../dc/d73/namespaceextract__ibfs.html#a3161f3815f5dd49e8be8fdcf9a9a3542" target="_top" xlink:title="extract_ibfs.RowToRecord">
<polygon fill="white" stroke="black" points="384,-123.5 384,-142.5 518,-142.5 518,-123.5 384,-123.5"/>
<text text-anchor="middle" x="451" y="-130.5" font-family="Helvetica,sans-Serif" font-size="10.00">extract_ibfs.RowToRecord</text>
</a>
</g>
</g>
<!-- Node4&#45;&gt;Node6 -->
<g id="edge5" class="edge"><title>Node4&#45;&gt;Node6</title>
<path fill="none" stroke="midnightblue" d="M331.006,-145.221C344.783,-143.806 359.418,-142.303 373.537,-140.853"/>
<polygon fill="midnightblue" stroke="midnightblue" points="374.118,-144.312 383.708,-139.808 373.403,-137.348 374.118,-144.312"/>
</g>
</g>
</svg>
