<?xml version="1.0" encoding="UTF-8" standalone="no"?>
<!DOCTYPE svg PUBLIC "-//W3C//DTD SVG 1.1//EN"
 "http://www.w3.org/Graphics/SVG/1.1/DTD/svg11.dtd">
<!-- Generated by graphviz version 2.38.0 (20140413.2041)
 -->
<!-- Title: extract_ibfs.RowToRecord Pages: 1 -->
<svg width="494pt" height="39pt"
 viewBox="0.00 0.00 494.00 39.00" xmlns="http://www.w3.org/2000/svg" xmlns:xlink="http://www.w3.org/1999/xlink">
<g id="graph0" class="graph" transform="scale(1 1) rotate(0) translate(4 35)">
<title>extract_ibfs.RowToRecord</title>
<polygon fill="white" stroke="none" points="-4,4 -4,-35 490,-35 490,4 -4,4"/>
<!-- Node1 -->
<g id="node1" class="node"><title>Node1</title>
<polygon fill="#bfbfbf" stroke="black" points="0,-6 0,-25 134,-25 134,-6 0,-6"/>
<text text-anchor="middle" x="67" y="-13" font-family="Helvetica,sans-Serif" font-size="10.00">extract_ibfs.RowToRecord</text>
</g>
<!-- Node2 -->
<g id="node2" class="node"><title>Node2</title>
<g id="a_node2"><a xlink:href="../../dc/d73/namespaceextract__ibfs.html#a119f685a69113d3dd92df56dd4e0a081" target="_top" xlink:title="extract_ibfs.ReadULSData\lRecords">
<polygon fill="white" stroke="black" points="170,-0.5 170,-30.5 304,-30.5 304,-0.5 170,-0.5"/>
<text text-anchor="start" x="178" y="-18.5" font-family="Helvetica,sans-Serif" font-size="10.00">extract_ibfs.ReadULSData</text>
<text text-anchor="middle" x="237" y="-7.5" font-family="Helvetica,sans-Serif" font-size="10.00">Records</text>
</a>
</g>
</g>
<!-- Node1&#45;&gt;Node2 -->
<g id="edge1" class="edge"><title>Node1&#45;&gt;Node2</title>
<path fill="none" stroke="midnightblue" d="M144.595,-15.5C153.013,-15.5 161.532,-15.5 169.809,-15.5"/>
<polygon fill="midnightblue" stroke="midnightblue" points="144.398,-12.0001 134.398,-15.5 144.398,-19.0001 144.398,-12.0001"/>
</g>
<!-- Node3 -->
<g id="node3" class="node"><title>Node3</title>
<g id="a_node3"><a xlink:href="../../dc/d73/namespaceextract__ibfs.html#afb6b9ec5be545f46a98a71c22832439e" target="_top" xlink:title="extract_ibfs.ExtractIBFSData">
<polygon fill="white" stroke="black" points="340,-6 340,-25 486,-25 486,-6 340,-6"/>
<text text-anchor="middle" x="413" y="-13" font-family="Helvetica,sans-Serif" font-size="10.00">extract_ibfs.ExtractIBFSData</text>
</a>
</g>
</g>
<!-- Node2&#45;&gt;Node3 -->
<g id="edge2" class="edge"><title>Node2&#45;&gt;Node3</title>
<path fill="none" stroke="midnightblue" d="M314.465,-15.5C322.889,-15.5 331.446,-15.5 339.815,-15.5"/>
<polygon fill="midnightblue" stroke="midnightblue" points="314.278,-12.0001 304.278,-15.5 314.278,-19.0001 314.278,-12.0001"/>
</g>
</g>
</svg>
