<?xml version="1.0" encoding="UTF-8" standalone="no"?>
<!DOCTYPE svg PUBLIC "-//W3C//DTD SVG 1.1//EN"
 "http://www.w3.org/Graphics/SVG/1.1/DTD/svg11.dtd">
<!-- Generated by graphviz version 2.38.0 (20140413.2041)
 -->
<!-- Title: extract_ibfs.ReadULSDataRecords Pages: 1 -->
<svg width="316pt" height="66pt"
 viewBox="0.00 0.00 316.00 66.00" xmlns="http://www.w3.org/2000/svg" xmlns:xlink="http://www.w3.org/1999/xlink">
<g id="graph0" class="graph" transform="scale(1 1) rotate(0) translate(4 62)">
<title>extract_ibfs.ReadULSDataRecords</title>
<polygon fill="white" stroke="none" points="-4,4 -4,-62 312,-62 312,4 -4,4"/>
<!-- Node1 -->
<g id="node1" class="node"><title>Node1</title>
<polygon fill="#bfbfbf" stroke="black" points="0,-14 0,-44 134,-44 134,-14 0,-14"/>
<text text-anchor="start" x="8" y="-32" font-family="Helvetica,sans-Serif" font-size="10.00">extract_ibfs.ReadULSData</text>
<text text-anchor="middle" x="67" y="-21" font-family="Helvetica,sans-Serif" font-size="10.00">Records</text>
</g>
<!-- Node2 -->
<g id="node2" class="node"><title>Node2</title>
<g id="a_node2"><a xlink:href="../../dc/d73/namespaceextract__ibfs.html#af7fef204919c657dc1dda9e5184d1bf1" target="_top" xlink:title="extract_ibfs.NormalizeLines">
<polygon fill="white" stroke="black" points="170,-38.5 170,-57.5 308,-57.5 308,-38.5 170,-38.5"/>
<text text-anchor="middle" x="239" y="-45.5" font-family="Helvetica,sans-Serif" font-size="10.00">extract_ibfs.NormalizeLines</text>
</a>
</g>
</g>
<!-- Node1&#45;&gt;Node2 -->
<g id="edge1" class="edge"><title>Node1&#45;&gt;Node2</title>
<path fill="none" stroke="midnightblue" d="M134.213,-36.4003C142.589,-37.3364 151.221,-38.3012 159.762,-39.2558"/>
<polygon fill="midnightblue" stroke="midnightblue" points="159.398,-42.7368 169.725,-40.3693 160.176,-35.7801 159.398,-42.7368"/>
</g>
<!-- Node3 -->
<g id="node3" class="node"><title>Node3</title>
<g id="a_node3"><a xlink:href="../../dc/d73/namespaceextract__ibfs.html#a3161f3815f5dd49e8be8fdcf9a9a3542" target="_top" xlink:title="extract_ibfs.RowToRecord">
<polygon fill="white" stroke="black" points="172,-0.5 172,-19.5 306,-19.5 306,-0.5 172,-0.5"/>
<text text-anchor="middle" x="239" y="-7.5" font-family="Helvetica,sans-Serif" font-size="10.00">extract_ibfs.RowToRecord</text>
</a>
</g>
</g>
<!-- Node1&#45;&gt;Node3 -->
<g id="edge2" class="edge"><title>Node1&#45;&gt;Node3</title>
<path fill="none" stroke="midnightblue" d="M134.213,-21.5997C143.319,-20.582 152.728,-19.5304 161.992,-18.495"/>
<polygon fill="midnightblue" stroke="midnightblue" points="162.418,-21.9693 171.967,-17.3801 161.641,-15.0126 162.418,-21.9693"/>
</g>
</g>
</svg>
