<?xml version="1.0" encoding="UTF-8" standalone="no"?>
<!DOCTYPE svg PUBLIC "-//W3C//DTD SVG 1.1//EN"
 "http://www.w3.org/Graphics/SVG/1.1/DTD/svg11.dtd">
<!-- Generated by graphviz version 2.38.0 (20140413.2041)
 -->
<!-- Title: src.harness.reference_models.antenna.fss_pointing._GsoExtent Pages: 1 -->
<svg width="527pt" height="110pt"
 viewBox="0.00 0.00 527.00 110.00" xmlns="http://www.w3.org/2000/svg" xmlns:xlink="http://www.w3.org/1999/xlink">
<g id="graph0" class="graph" transform="scale(1 1) rotate(0) translate(4 106)">
<title>src.harness.reference_models.antenna.fss_pointing._GsoExtent</title>
<polygon fill="white" stroke="none" points="-4,4 -4,-106 523,-106 523,4 -4,4"/>
<!-- Node1 -->
<g id="node1" class="node"><title>Node1</title>
<polygon fill="#bfbfbf" stroke="black" points="0,-30.5 0,-71.5 149,-71.5 149,-30.5 0,-30.5"/>
<text text-anchor="start" x="8" y="-59.5" font-family="Helvetica,sans-Serif" font-size="10.00">src.harness.reference</text>
<text text-anchor="start" x="8" y="-48.5" font-family="Helvetica,sans-Serif" font-size="10.00">_models.antenna.fss_pointing.</text>
<text text-anchor="middle" x="74.5" y="-37.5" font-family="Helvetica,sans-Serif" font-size="10.00">_GsoExtent</text>
</g>
<!-- Node2 -->
<g id="node2" class="node"><title>Node2</title>
<g id="a_node2"><a xlink:href="../../d1/de3/namespacesrc_1_1harness_1_1reference__models_1_1antenna_1_1fss__pointing.html#ae44d3620d5cd74c57c7b1c9ce6cb76b1" target="_top" xlink:title="src.harness.reference\l_models.antenna.fss_pointing.\lGsoPossiblePointings">
<polygon fill="white" stroke="black" points="185,-30.5 185,-71.5 334,-71.5 334,-30.5 185,-30.5"/>
<text text-anchor="start" x="193" y="-59.5" font-family="Helvetica,sans-Serif" font-size="10.00">src.harness.reference</text>
<text text-anchor="start" x="193" y="-48.5" font-family="Helvetica,sans-Serif" font-size="10.00">_models.antenna.fss_pointing.</text>
<text text-anchor="middle" x="259.5" y="-37.5" font-family="Helvetica,sans-Serif" font-size="10.00">GsoPossiblePointings</text>
</a>
</g>
</g>
<!-- Node1&#45;&gt;Node2 -->
<g id="edge1" class="edge"><title>Node1&#45;&gt;Node2</title>
<path fill="none" stroke="midnightblue" d="M149.142,-51C157.474,-51 166.011,-51 174.463,-51"/>
<polygon fill="midnightblue" stroke="midnightblue" points="174.711,-54.5001 184.711,-51 174.711,-47.5001 174.711,-54.5001"/>
</g>
<!-- Node3 -->
<g id="node3" class="node"><title>Node3</title>
<g id="a_node3"><a xlink:href="../../d1/de3/namespacesrc_1_1harness_1_1reference__models_1_1antenna_1_1fss__pointing.html#a37fc14cd54cf3bc2043cb8c5c4dba792" target="_top" xlink:title="src.harness.reference\l_models.antenna.fss_pointing.\lGsoElevation">
<polygon fill="white" stroke="black" points="370,-60.5 370,-101.5 519,-101.5 519,-60.5 370,-60.5"/>
<text text-anchor="start" x="378" y="-89.5" font-family="Helvetica,sans-Serif" font-size="10.00">src.harness.reference</text>
<text text-anchor="start" x="378" y="-78.5" font-family="Helvetica,sans-Serif" font-size="10.00">_models.antenna.fss_pointing.</text>
<text text-anchor="middle" x="444.5" y="-67.5" font-family="Helvetica,sans-Serif" font-size="10.00">GsoElevation</text>
</a>
</g>
</g>
<!-- Node2&#45;&gt;Node3 -->
<g id="edge2" class="edge"><title>Node2&#45;&gt;Node3</title>
<path fill="none" stroke="midnightblue" d="M334.142,-63.0725C342.565,-64.4534 351.199,-65.8687 359.742,-67.2692"/>
<polygon fill="midnightblue" stroke="midnightblue" points="359.276,-70.7395 369.711,-68.9034 360.409,-63.8317 359.276,-70.7395"/>
</g>
<!-- Node4 -->
<g id="node4" class="node"><title>Node4</title>
<g id="a_node4"><a xlink:href="../../d1/de3/namespacesrc_1_1harness_1_1reference__models_1_1antenna_1_1fss__pointing.html#a64a396f781f81497eff84aafe8f8429b" target="_top" xlink:title="src.harness.reference\l_models.antenna.fss_pointing.\lGsoAzimuth">
<polygon fill="white" stroke="black" points="370,-0.5 370,-41.5 519,-41.5 519,-0.5 370,-0.5"/>
<text text-anchor="start" x="378" y="-29.5" font-family="Helvetica,sans-Serif" font-size="10.00">src.harness.reference</text>
<text text-anchor="start" x="378" y="-18.5" font-family="Helvetica,sans-Serif" font-size="10.00">_models.antenna.fss_pointing.</text>
<text text-anchor="middle" x="444.5" y="-7.5" font-family="Helvetica,sans-Serif" font-size="10.00">GsoAzimuth</text>
</a>
</g>
</g>
<!-- Node2&#45;&gt;Node4 -->
<g id="edge3" class="edge"><title>Node2&#45;&gt;Node4</title>
<path fill="none" stroke="midnightblue" d="M334.142,-38.9275C342.565,-37.5466 351.199,-36.1313 359.742,-34.7308"/>
<polygon fill="midnightblue" stroke="midnightblue" points="360.409,-38.1683 369.711,-33.0966 359.276,-31.2605 360.409,-38.1683"/>
</g>
</g>
</svg>
