<?xml version="1.0" encoding="UTF-8" standalone="no"?>
<!DOCTYPE svg PUBLIC "-//W3C//DTD SVG 1.1//EN"
 "http://www.w3.org/Graphics/SVG/1.1/DTD/svg11.dtd">
<!-- Generated by graphviz version 2.38.0 (20140413.2041)
 -->
<!-- Title: src.harness.reference_models.antenna.fss_pointing.GsoAzimuth Pages: 1 -->
<svg width="527pt" height="50pt"
 viewBox="0.00 0.00 527.00 50.00" xmlns="http://www.w3.org/2000/svg" xmlns:xlink="http://www.w3.org/1999/xlink">
<g id="graph0" class="graph" transform="scale(1 1) rotate(0) translate(4 46)">
<title>src.harness.reference_models.antenna.fss_pointing.GsoAzimuth</title>
<polygon fill="white" stroke="none" points="-4,4 -4,-46 523,-46 523,4 -4,4"/>
<!-- Node1 -->
<g id="node1" class="node"><title>Node1</title>
<polygon fill="#bfbfbf" stroke="black" points="0,-0.5 0,-41.5 149,-41.5 149,-0.5 0,-0.5"/>
<text text-anchor="start" x="8" y="-29.5" font-family="Helvetica,sans-Serif" font-size="10.00">src.harness.reference</text>
<text text-anchor="start" x="8" y="-18.5" font-family="Helvetica,sans-Serif" font-size="10.00">_models.antenna.fss_pointing.</text>
<text text-anchor="middle" x="74.5" y="-7.5" font-family="Helvetica,sans-Serif" font-size="10.00">GsoAzimuth</text>
</g>
<!-- Node2 -->
<g id="node2" class="node"><title>Node2</title>
<g id="a_node2"><a xlink:href="../../d1/de3/namespacesrc_1_1harness_1_1reference__models_1_1antenna_1_1fss__pointing.html#ae44d3620d5cd74c57c7b1c9ce6cb76b1" target="_top" xlink:title="src.harness.reference\l_models.antenna.fss_pointing.\lGsoPossiblePointings">
<polygon fill="white" stroke="black" points="185,-0.5 185,-41.5 334,-41.5 334,-0.5 185,-0.5"/>
<text text-anchor="start" x="193" y="-29.5" font-family="Helvetica,sans-Serif" font-size="10.00">src.harness.reference</text>
<text text-anchor="start" x="193" y="-18.5" font-family="Helvetica,sans-Serif" font-size="10.00">_models.antenna.fss_pointing.</text>
<text text-anchor="middle" x="259.5" y="-7.5" font-family="Helvetica,sans-Serif" font-size="10.00">GsoPossiblePointings</text>
</a>
</g>
</g>
<!-- Node1&#45;&gt;Node2 -->
<g id="edge1" class="edge"><title>Node1&#45;&gt;Node2</title>
<path fill="none" stroke="midnightblue" d="M159.387,-21C167.838,-21 176.376,-21 184.711,-21"/>
<polygon fill="midnightblue" stroke="midnightblue" points="159.142,-17.5001 149.142,-21 159.142,-24.5001 159.142,-17.5001"/>
</g>
<!-- Node3 -->
<g id="node3" class="node"><title>Node3</title>
<g id="a_node3"><a xlink:href="../../d1/de3/namespacesrc_1_1harness_1_1reference__models_1_1antenna_1_1fss__pointing.html#a4524cf79e700b1eab776bdfdfd76f361" target="_top" xlink:title="src.harness.reference\l_models.antenna.fss_pointing.\l_GsoExtent">
<polygon fill="white" stroke="black" points="370,-0.5 370,-41.5 519,-41.5 519,-0.5 370,-0.5"/>
<text text-anchor="start" x="378" y="-29.5" font-family="Helvetica,sans-Serif" font-size="10.00">src.harness.reference</text>
<text text-anchor="start" x="378" y="-18.5" font-family="Helvetica,sans-Serif" font-size="10.00">_models.antenna.fss_pointing.</text>
<text text-anchor="middle" x="444.5" y="-7.5" font-family="Helvetica,sans-Serif" font-size="10.00">_GsoExtent</text>
</a>
</g>
</g>
<!-- Node2&#45;&gt;Node3 -->
<g id="edge2" class="edge"><title>Node2&#45;&gt;Node3</title>
<path fill="none" stroke="midnightblue" d="M344.387,-21C352.838,-21 361.376,-21 369.711,-21"/>
<polygon fill="midnightblue" stroke="midnightblue" points="344.142,-17.5001 334.142,-21 344.142,-24.5001 344.142,-17.5001"/>
</g>
</g>
</svg>
