<?xml version="1.0" encoding="UTF-8" standalone="no"?>
<!DOCTYPE svg PUBLIC "-//W3C//DTD SVG 1.1//EN"
 "http://www.w3.org/Graphics/SVG/1.1/DTD/svg11.dtd">
<!-- Generated by graphviz version 2.38.0 (20140413.2041)
 -->
<!-- Title: Graphical Class Hierarchy Pages: 1 -->
<svg width="959pt" height="1326pt"
 viewBox="0.00 0.00 959.00 1325.50" xmlns="http://www.w3.org/2000/svg" xmlns:xlink="http://www.w3.org/1999/xlink">
<g id="graph0" class="graph" transform="scale(1 1) rotate(0) translate(4 1321.5)">
<title>Graphical Class Hierarchy</title>
<polygon fill="white" stroke="none" points="-4,4 -4,-1321.5 955,-1321.5 955,4 -4,4"/>
<!-- Node1 -->
<g id="node1" class="node"><title>Node1</title>
<polygon fill="white" stroke="#bfbfbf" points="0,-1127 0,-1146 43,-1146 43,-1127 0,-1127"/>
<text text-anchor="middle" x="21.5" y="-1134" font-family="Helvetica,sans-Serif" font-size="10.00">object</text>
</g>
<!-- Node2 -->
<g id="node2" class="node"><title>Node2</title>
<g id="a_node2"><a xlink:href="d6/d2e/classnlcd__origin_1_1NlcdOriginDriver.html" target="_top" xlink:title="nlcd_origin.NlcdOriginDriver">
<polygon fill="white" stroke="black" points="79,-1259 79,-1278 217,-1278 217,-1259 79,-1259"/>
<text text-anchor="middle" x="148" y="-1266" font-family="Helvetica,sans-Serif" font-size="10.00">nlcd_origin.NlcdOriginDriver</text>
</a>
</g>
</g>
<!-- Node1&#45;&gt;Node2 -->
<g id="edge1" class="edge"><title>Node1&#45;&gt;Node2</title>
<path fill="none" stroke="midnightblue" d="M27.1907,-1156.05C34.2108,-1181.11 49.8539,-1224.21 79,-1248.5 84.199,-1252.83 90.3028,-1256.23 96.6827,-1258.89"/>
<polygon fill="midnightblue" stroke="midnightblue" points="30.5393,-1155.02 24.6248,-1146.23 23.7667,-1156.79 30.5393,-1155.02"/>
</g>
<!-- Node3 -->
<g id="node3" class="node"><title>Node3</title>
<g id="a_node3"><a xlink:href="da/d88/classsrc_1_1harness_1_1reference__models_1_1geo_1_1tiles_1_1TileStats.html" target="_top" xlink:title="src.harness.reference\l_models.geo.tiles.TileStats">
<polygon fill="white" stroke="black" points="80.5,-1209.5 80.5,-1239.5 215.5,-1239.5 215.5,-1209.5 80.5,-1209.5"/>
<text text-anchor="start" x="88.5" y="-1227.5" font-family="Helvetica,sans-Serif" font-size="10.00">src.harness.reference</text>
<text text-anchor="middle" x="148" y="-1216.5" font-family="Helvetica,sans-Serif" font-size="10.00">_models.geo.tiles.TileStats</text>
</a>
</g>
</g>
<!-- Node1&#45;&gt;Node3 -->
<g id="edge2" class="edge"><title>Node1&#45;&gt;Node3</title>
<path fill="none" stroke="midnightblue" d="M34.9946,-1154.73C45.3645,-1168.66 61.2467,-1187.46 79,-1199.5 84.621,-1203.31 90.8963,-1206.63 97.2998,-1209.49"/>
<polygon fill="midnightblue" stroke="midnightblue" points="37.6874,-1152.47 29.0118,-1146.39 32.0014,-1156.56 37.6874,-1152.47"/>
</g>
<!-- Node4 -->
<g id="node4" class="node"><title>Node4</title>
<g id="a_node4"><a xlink:href="dd/d8d/classsrc_1_1harness_1_1sas_1_1TlsConfig.html" target="_top" xlink:title="src.harness.sas.TlsConfig">
<polygon fill="white" stroke="black" points="82.5,-1171 82.5,-1190 213.5,-1190 213.5,-1171 82.5,-1171"/>
<text text-anchor="middle" x="148" y="-1178" font-family="Helvetica,sans-Serif" font-size="10.00">src.harness.sas.TlsConfig</text>
</a>
</g>
</g>
<!-- Node1&#45;&gt;Node4 -->
<g id="edge3" class="edge"><title>Node1&#45;&gt;Node4</title>
<path fill="none" stroke="midnightblue" d="M52.3915,-1149.96C60.9093,-1153.58 70.2521,-1157.37 79,-1160.5 89.5425,-1164.28 101.182,-1167.89 111.807,-1170.99"/>
<polygon fill="midnightblue" stroke="midnightblue" points="53.7679,-1146.74 43.2009,-1145.97 50.9831,-1153.16 53.7679,-1146.74"/>
</g>
<!-- Node5 -->
<g id="node5" class="node"><title>Node5</title>
<g id="a_node5"><a xlink:href="d9/d94/classsrc_1_1harness_1_1sas__interface_1_1SasAdminInterface.html" target="_top" xlink:title="src.harness.sas_interface.\lSasAdminInterface">
<polygon fill="white" stroke="black" points="82,-1121.5 82,-1151.5 214,-1151.5 214,-1121.5 82,-1121.5"/>
<text text-anchor="start" x="90" y="-1139.5" font-family="Helvetica,sans-Serif" font-size="10.00">src.harness.sas_interface.</text>
<text text-anchor="middle" x="148" y="-1128.5" font-family="Helvetica,sans-Serif" font-size="10.00">SasAdminInterface</text>
</a>
</g>
</g>
<!-- Node1&#45;&gt;Node5 -->
<g id="edge4" class="edge"><title>Node1&#45;&gt;Node5</title>
<path fill="none" stroke="midnightblue" d="M53.1054,-1136.5C61.8616,-1136.5 71.7558,-1136.5 81.7533,-1136.5"/>
<polygon fill="midnightblue" stroke="midnightblue" points="53.0587,-1133 43.0586,-1136.5 53.0586,-1140 53.0587,-1133"/>
</g>
<!-- Node8 -->
<g id="node8" class="node"><title>Node8</title>
<g id="a_node8"><a xlink:href="dc/d15/classsrc_1_1harness_1_1sas__interface_1_1SasInterface.html" target="_top" xlink:title="src.harness.sas_interface.\lSasInterface">
<polygon fill="white" stroke="black" points="82,-1072.5 82,-1102.5 214,-1102.5 214,-1072.5 82,-1072.5"/>
<text text-anchor="start" x="90" y="-1090.5" font-family="Helvetica,sans-Serif" font-size="10.00">src.harness.sas_interface.</text>
<text text-anchor="middle" x="148" y="-1079.5" font-family="Helvetica,sans-Serif" font-size="10.00">SasInterface</text>
</a>
</g>
</g>
<!-- Node1&#45;&gt;Node8 -->
<g id="edge7" class="edge"><title>Node1&#45;&gt;Node8</title>
<path fill="none" stroke="midnightblue" d="M52.2515,-1122.82C60.8275,-1119.02 70.2355,-1114.98 79,-1111.5 86.5632,-1108.5 94.6696,-1105.47 102.556,-1102.63"/>
<polygon fill="midnightblue" stroke="midnightblue" points="50.6919,-1119.68 43.0013,-1126.97 53.5577,-1126.07 50.6919,-1119.68"/>
</g>
<!-- Node11 -->
<g id="node11" class="node"><title>Node11</title>
<g id="a_node11"><a xlink:href="df/ded/classsrc_1_1harness_1_1sas__interface_1_1SasTestcaseInterface.html" target="_top" xlink:title="src.harness.sas_interface.\lSasTestcaseInterface">
<polygon fill="white" stroke="black" points="82,-1023.5 82,-1053.5 214,-1053.5 214,-1023.5 82,-1023.5"/>
<text text-anchor="start" x="90" y="-1041.5" font-family="Helvetica,sans-Serif" font-size="10.00">src.harness.sas_interface.</text>
<text text-anchor="middle" x="148" y="-1030.5" font-family="Helvetica,sans-Serif" font-size="10.00">SasTestcaseInterface</text>
</a>
</g>
</g>
<!-- Node1&#45;&gt;Node11 -->
<g id="edge10" class="edge"><title>Node1&#45;&gt;Node11</title>
<path fill="none" stroke="midnightblue" d="M32.392,-1118.07C42.1992,-1101.41 58.6777,-1077.29 79,-1062.5 83.6567,-1059.11 88.8355,-1056.17 94.1983,-1053.61"/>
<polygon fill="midnightblue" stroke="midnightblue" points="29.2796,-1116.47 27.41,-1126.89 35.3749,-1119.91 29.2796,-1116.47"/>
</g>
<!-- Node25 -->
<g id="node25" class="node"><title>Node25</title>
<g id="a_node25"><a xlink:href="d0/d58/classsrc_1_1harness_1_1security__testcase_1_1CiphersOverload.html" target="_top" xlink:title="src.harness.security\l_testcase.CiphersOverload">
<polygon fill="white" stroke="black" points="80.5,-974.5 80.5,-1004.5 215.5,-1004.5 215.5,-974.5 80.5,-974.5"/>
<text text-anchor="start" x="88.5" y="-992.5" font-family="Helvetica,sans-Serif" font-size="10.00">src.harness.security</text>
<text text-anchor="middle" x="148" y="-981.5" font-family="Helvetica,sans-Serif" font-size="10.00">_testcase.CiphersOverload</text>
</a>
</g>
</g>
<!-- Node1&#45;&gt;Node25 -->
<g id="edge24" class="edge"><title>Node1&#45;&gt;Node25</title>
<path fill="none" stroke="midnightblue" d="M26.4845,-1116.85C32.9361,-1089.9 48.1835,-1041.62 79,-1013.5 82.7914,-1010.04 87.1125,-1007.07 91.6965,-1004.53"/>
<polygon fill="midnightblue" stroke="midnightblue" points="23.0559,-1116.14 24.301,-1126.66 29.8889,-1117.66 23.0559,-1116.14"/>
</g>
<!-- Node6 -->
<g id="node6" class="node"><title>Node6</title>
<g id="a_node6"><a xlink:href="d8/dfd/classsrc_1_1harness_1_1fake__sas_1_1FakeSasAdmin.html" target="_top" xlink:title="src.harness.fake_sas.Fake\lSasAdmin">
<polygon fill="white" stroke="black" points="297.5,-1165.5 297.5,-1195.5 432.5,-1195.5 432.5,-1165.5 297.5,-1165.5"/>
<text text-anchor="start" x="305.5" y="-1183.5" font-family="Helvetica,sans-Serif" font-size="10.00">src.harness.fake_sas.Fake</text>
<text text-anchor="middle" x="365" y="-1172.5" font-family="Helvetica,sans-Serif" font-size="10.00">SasAdmin</text>
</a>
</g>
</g>
<!-- Node5&#45;&gt;Node6 -->
<g id="edge5" class="edge"><title>Node5&#45;&gt;Node6</title>
<path fill="none" stroke="midnightblue" d="M224.137,-1151.88C247.947,-1156.75 274.094,-1162.1 297.272,-1166.84"/>
<polygon fill="midnightblue" stroke="midnightblue" points="224.589,-1148.4 214.091,-1149.82 223.186,-1155.25 224.589,-1148.4"/>
</g>
<!-- Node7 -->
<g id="node7" class="node"><title>Node7</title>
<g id="a_node7"><a xlink:href="d5/da5/classsrc_1_1harness_1_1sas_1_1SasAdminImpl.html" target="_top" xlink:title="src.harness.sas.SasAdminImpl">
<polygon fill="white" stroke="black" points="288.5,-1127 288.5,-1146 441.5,-1146 441.5,-1127 288.5,-1127"/>
<text text-anchor="middle" x="365" y="-1134" font-family="Helvetica,sans-Serif" font-size="10.00">src.harness.sas.SasAdminImpl</text>
</a>
</g>
</g>
<!-- Node5&#45;&gt;Node7 -->
<g id="edge6" class="edge"><title>Node5&#45;&gt;Node7</title>
<path fill="none" stroke="midnightblue" d="M224.119,-1136.5C244.868,-1136.5 267.393,-1136.5 288.181,-1136.5"/>
<polygon fill="midnightblue" stroke="midnightblue" points="224.091,-1133 214.091,-1136.5 224.091,-1140 224.091,-1133"/>
</g>
<!-- Node9 -->
<g id="node9" class="node"><title>Node9</title>
<g id="a_node9"><a xlink:href="d0/db1/classsrc_1_1harness_1_1fake__sas_1_1FakeSas.html" target="_top" xlink:title="src.harness.fake_sas.FakeSas">
<polygon fill="white" stroke="black" points="289,-1089 289,-1108 441,-1108 441,-1089 289,-1089"/>
<text text-anchor="middle" x="365" y="-1096" font-family="Helvetica,sans-Serif" font-size="10.00">src.harness.fake_sas.FakeSas</text>
</a>
</g>
</g>
<!-- Node8&#45;&gt;Node9 -->
<g id="edge8" class="edge"><title>Node8&#45;&gt;Node9</title>
<path fill="none" stroke="midnightblue" d="M224.226,-1091.35C245.202,-1092.42 267.983,-1093.59 288.948,-1094.66"/>
<polygon fill="midnightblue" stroke="midnightblue" points="224.256,-1087.85 214.091,-1090.83 223.899,-1094.84 224.256,-1087.85"/>
</g>
<!-- Node10 -->
<g id="node10" class="node"><title>Node10</title>
<g id="a_node10"><a xlink:href="db/dbc/classsrc_1_1harness_1_1sas_1_1SasImpl.html" target="_top" xlink:title="src.harness.sas.SasImpl">
<polygon fill="white" stroke="black" points="302.5,-1051 302.5,-1070 427.5,-1070 427.5,-1051 302.5,-1051"/>
<text text-anchor="middle" x="365" y="-1058" font-family="Helvetica,sans-Serif" font-size="10.00">src.harness.sas.SasImpl</text>
</a>
</g>
</g>
<!-- Node8&#45;&gt;Node10 -->
<g id="edge9" class="edge"><title>Node8&#45;&gt;Node10</title>
<path fill="none" stroke="midnightblue" d="M224.128,-1078.07C249.729,-1074.85 278.032,-1071.3 302.442,-1068.23"/>
<polygon fill="midnightblue" stroke="midnightblue" points="223.576,-1074.61 214.091,-1079.33 224.449,-1081.55 223.576,-1074.61"/>
</g>
<!-- Node12 -->
<g id="node12" class="node"><title>Node12</title>
<g id="a_node12"><a xlink:href="df/dc5/classsrc_1_1harness_1_1sas__testcase_1_1SasTestCase.html" target="_top" xlink:title="src.harness.sas_testcase.\lSasTestCase">
<polygon fill="white" stroke="black" points="299,-1001.5 299,-1031.5 431,-1031.5 431,-1001.5 299,-1001.5"/>
<text text-anchor="start" x="307" y="-1019.5" font-family="Helvetica,sans-Serif" font-size="10.00">src.harness.sas_testcase.</text>
<text text-anchor="middle" x="365" y="-1008.5" font-family="Helvetica,sans-Serif" font-size="10.00">SasTestCase</text>
</a>
</g>
</g>
<!-- Node11&#45;&gt;Node12 -->
<g id="edge11" class="edge"><title>Node11&#45;&gt;Node12</title>
<path fill="none" stroke="midnightblue" d="M224.328,-1030.79C248.599,-1028.31 275.279,-1025.58 298.76,-1023.18"/>
<polygon fill="midnightblue" stroke="midnightblue" points="223.682,-1027.34 214.091,-1031.84 224.395,-1034.3 223.682,-1027.34"/>
</g>
<!-- Node13 -->
<g id="node13" class="node"><title>Node13</title>
<g id="a_node13"><a xlink:href="db/df9/classsrc_1_1harness_1_1security__testcase_1_1SecurityTestCase.html" target="_top" xlink:title="src.harness.security\l_testcase.SecurityTestCase">
<polygon fill="white" stroke="black" points="546.5,-1251.5 546.5,-1281.5 687.5,-1281.5 687.5,-1251.5 546.5,-1251.5"/>
<text text-anchor="start" x="554.5" y="-1269.5" font-family="Helvetica,sans-Serif" font-size="10.00">src.harness.security</text>
<text text-anchor="middle" x="617" y="-1258.5" font-family="Helvetica,sans-Serif" font-size="10.00">_testcase.SecurityTestCase</text>
</a>
</g>
</g>
<!-- Node12&#45;&gt;Node13 -->
<g id="edge12" class="edge"><title>Node12&#45;&gt;Node13</title>
<path fill="none" stroke="midnightblue" d="M441.033,-1020.96C454.511,-1024.97 467.326,-1031.4 477,-1041.5 539.462,-1106.74 451.081,-1175.75 513,-1241.5 521.957,-1251.01 533.868,-1257.17 546.406,-1261.1"/>
<polygon fill="midnightblue" stroke="midnightblue" points="441.69,-1017.51 431.137,-1018.45 439.968,-1024.3 441.69,-1017.51"/>
</g>
<!-- Node16 -->
<g id="node16" class="node"><title>Node16</title>
<g id="a_node16"><a xlink:href="de/d99/classsrc_1_1harness_1_1testcases_1_1grant__testcase_1_1GrantTestcaseUsingOldIds.html" target="_top" xlink:title="src.harness.testcases.grant\l_testcase.GrantTestcaseUsingOldIds">
<polygon fill="white" stroke="black" points="526.5,-1202.5 526.5,-1232.5 707.5,-1232.5 707.5,-1202.5 526.5,-1202.5"/>
<text text-anchor="start" x="534.5" y="-1220.5" font-family="Helvetica,sans-Serif" font-size="10.00">src.harness.testcases.grant</text>
<text text-anchor="middle" x="617" y="-1209.5" font-family="Helvetica,sans-Serif" font-size="10.00">_testcase.GrantTestcaseUsingOldIds</text>
</a>
</g>
</g>
<!-- Node12&#45;&gt;Node16 -->
<g id="edge15" class="edge"><title>Node12&#45;&gt;Node16</title>
<path fill="none" stroke="midnightblue" d="M441.067,-1021.51C454.412,-1025.5 467.168,-1031.78 477,-1041.5 526.36,-1090.32 463.82,-1144.5 513,-1193.5 516.902,-1197.39 521.304,-1200.69 526.035,-1203.5"/>
<polygon fill="midnightblue" stroke="midnightblue" points="441.835,-1018.1 431.279,-1019 440.094,-1024.88 441.835,-1018.1"/>
</g>
<!-- Node17 -->
<g id="node17" class="node"><title>Node17</title>
<g id="a_node17"><a xlink:href="d8/d41/classsrc_1_1harness_1_1testcases_1_1helper__unit__testcase_1_1AssertChannelsContainFrequencyRangeTest.html" target="_top" xlink:title="src.harness.testcases.helper\l_unit_testcase.AssertChannelsContain\lFrequencyRangeTest">
<polygon fill="white" stroke="black" points="523.5,-1143 523.5,-1184 710.5,-1184 710.5,-1143 523.5,-1143"/>
<text text-anchor="start" x="531.5" y="-1172" font-family="Helvetica,sans-Serif" font-size="10.00">src.harness.testcases.helper</text>
<text text-anchor="start" x="531.5" y="-1161" font-family="Helvetica,sans-Serif" font-size="10.00">_unit_testcase.AssertChannelsContain</text>
<text text-anchor="middle" x="617" y="-1150" font-family="Helvetica,sans-Serif" font-size="10.00">FrequencyRangeTest</text>
</a>
</g>
</g>
<!-- Node12&#45;&gt;Node17 -->
<g id="edge16" class="edge"><title>Node12&#45;&gt;Node17</title>
<path fill="none" stroke="midnightblue" d="M441.103,-1022.96C454.153,-1026.86 466.791,-1032.73 477,-1041.5 510.308,-1070.11 480.594,-1103.87 513,-1133.5 516.849,-1137.02 521.088,-1140.13 525.586,-1142.87"/>
<polygon fill="midnightblue" stroke="midnightblue" points="441.636,-1019.48 431.077,-1020.35 439.873,-1026.26 441.636,-1019.48"/>
</g>
<!-- Node18 -->
<g id="node18" class="node"><title>Node18</title>
<g id="a_node18"><a xlink:href="d7/d0d/classsrc_1_1harness_1_1testcases_1_1spectrum__inquiry__testcase_1_1SpectrumInquiryTestcaseUsingOldIds.html" target="_top" xlink:title="src.harness.testcases.spectrum\l_inquiry_testcase.SpectrumInquiryTestcase\lUsingOldIds">
<polygon fill="white" stroke="black" points="513,-1083 513,-1124 721,-1124 721,-1083 513,-1083"/>
<text text-anchor="start" x="521" y="-1112" font-family="Helvetica,sans-Serif" font-size="10.00">src.harness.testcases.spectrum</text>
<text text-anchor="start" x="521" y="-1101" font-family="Helvetica,sans-Serif" font-size="10.00">_inquiry_testcase.SpectrumInquiryTestcase</text>
<text text-anchor="middle" x="617" y="-1090" font-family="Helvetica,sans-Serif" font-size="10.00">UsingOldIds</text>
</a>
</g>
</g>
<!-- Node12&#45;&gt;Node18 -->
<g id="edge17" class="edge"><title>Node12&#45;&gt;Node18</title>
<path fill="none" stroke="midnightblue" d="M440.957,-1027.93C453.379,-1031.35 465.836,-1035.77 477,-1041.5 496.046,-1051.27 494.265,-1063.14 513,-1073.5 519.357,-1077.01 526.167,-1080.15 533.146,-1082.95"/>
<polygon fill="midnightblue" stroke="midnightblue" points="441.583,-1024.48 431.028,-1025.4 439.855,-1031.26 441.583,-1024.48"/>
</g>
<!-- Node19 -->
<g id="node19" class="node"><title>Node19</title>
<g id="a_node19"><a xlink:href="d3/d24/classsrc_1_1harness_1_1testcases_1_1WINNF__FT__S__DRG__testcase_1_1DeregistrationTestcase.html" target="_top" xlink:title="src.harness.testcases.WINNF\l_FT_S_DRG_testcase.Deregistration\lTestcase">
<polygon fill="white" stroke="black" points="527,-1023 527,-1064 707,-1064 707,-1023 527,-1023"/>
<text text-anchor="start" x="535" y="-1052" font-family="Helvetica,sans-Serif" font-size="10.00">src.harness.testcases.WINNF</text>
<text text-anchor="start" x="535" y="-1041" font-family="Helvetica,sans-Serif" font-size="10.00">_FT_S_DRG_testcase.Deregistration</text>
<text text-anchor="middle" x="617" y="-1030" font-family="Helvetica,sans-Serif" font-size="10.00">Testcase</text>
</a>
</g>
</g>
<!-- Node12&#45;&gt;Node19 -->
<g id="edge18" class="edge"><title>Node12&#45;&gt;Node19</title>
<path fill="none" stroke="midnightblue" d="M441.171,-1024.62C468.133,-1027.53 498.794,-1030.84 526.828,-1033.87"/>
<polygon fill="midnightblue" stroke="midnightblue" points="441.35,-1021.12 431.032,-1023.52 440.598,-1028.08 441.35,-1021.12"/>
</g>
<!-- Node20 -->
<g id="node20" class="node"><title>Node20</title>
<g id="a_node20"><a xlink:href="d5/de0/classsrc_1_1harness_1_1testcases_1_1WINNF__FT__S__GRA__testcase_1_1GrantTestcase.html" target="_top" xlink:title="src.harness.testcases.WINNF\l_FT_S_GRA_testcase.GrantTestcase">
<polygon fill="white" stroke="black" points="525.5,-974.5 525.5,-1004.5 708.5,-1004.5 708.5,-974.5 525.5,-974.5"/>
<text text-anchor="start" x="533.5" y="-992.5" font-family="Helvetica,sans-Serif" font-size="10.00">src.harness.testcases.WINNF</text>
<text text-anchor="middle" x="617" y="-981.5" font-family="Helvetica,sans-Serif" font-size="10.00">_FT_S_GRA_testcase.GrantTestcase</text>
</a>
</g>
</g>
<!-- Node12&#45;&gt;Node20 -->
<g id="edge19" class="edge"><title>Node12&#45;&gt;Node20</title>
<path fill="none" stroke="midnightblue" d="M441.018,-1008.4C467.565,-1005.53 497.714,-1002.27 525.417,-999.283"/>
<polygon fill="midnightblue" stroke="midnightblue" points="440.598,-1004.92 431.032,-1009.48 441.35,-1011.88 440.598,-1004.92"/>
</g>
<!-- Node21 -->
<g id="node21" class="node"><title>Node21</title>
<g id="a_node21"><a xlink:href="d5/d7b/classsrc_1_1harness_1_1testcases_1_1WINNF__FT__S__HBT__testcase_1_1HeartbeatTestcase.html" target="_top" xlink:title="src.harness.testcases.WINNF\l_FT_S_HBT_testcase.HeartbeatTestcase">
<polygon fill="white" stroke="black" points="517,-925.5 517,-955.5 717,-955.5 717,-925.5 517,-925.5"/>
<text text-anchor="start" x="525" y="-943.5" font-family="Helvetica,sans-Serif" font-size="10.00">src.harness.testcases.WINNF</text>
<text text-anchor="middle" x="617" y="-932.5" font-family="Helvetica,sans-Serif" font-size="10.00">_FT_S_HBT_testcase.HeartbeatTestcase</text>
</a>
</g>
</g>
<!-- Node12&#45;&gt;Node21 -->
<g id="edge20" class="edge"><title>Node12&#45;&gt;Node21</title>
<path fill="none" stroke="midnightblue" d="M441.034,-1004.15C453.348,-1000.84 465.75,-996.694 477,-991.5 495.158,-983.117 494.873,-972.95 513,-964.5 520.406,-961.048 528.349,-958.071 536.419,-955.508"/>
<polygon fill="midnightblue" stroke="midnightblue" points="440.046,-1000.79 431.202,-1006.62 441.754,-1007.58 440.046,-1000.79"/>
</g>
<!-- Node22 -->
<g id="node22" class="node"><title>Node22</title>
<g id="a_node22"><a xlink:href="d3/da6/classsrc_1_1harness_1_1testcases_1_1WINNF__FT__S__REG__testcase_1_1RegistrationTestcase.html" target="_top" xlink:title="src.harness.testcases.WINNF\l_FT_S_REG_testcase.Registration\lTestcase">
<polygon fill="white" stroke="black" points="531.5,-866 531.5,-907 702.5,-907 702.5,-866 531.5,-866"/>
<text text-anchor="start" x="539.5" y="-895" font-family="Helvetica,sans-Serif" font-size="10.00">src.harness.testcases.WINNF</text>
<text text-anchor="start" x="539.5" y="-884" font-family="Helvetica,sans-Serif" font-size="10.00">_FT_S_REG_testcase.Registration</text>
<text text-anchor="middle" x="617" y="-873" font-family="Helvetica,sans-Serif" font-size="10.00">Testcase</text>
</a>
</g>
</g>
<!-- Node12&#45;&gt;Node22 -->
<g id="edge21" class="edge"><title>Node12&#45;&gt;Node22</title>
<path fill="none" stroke="midnightblue" d="M441.081,-1009.32C454.014,-1005.48 466.615,-999.812 477,-991.5 506.18,-968.145 484.448,-939.619 513,-915.5 518.535,-910.825 524.773,-906.901 531.373,-903.608"/>
<polygon fill="midnightblue" stroke="midnightblue" points="439.947,-1006 431.157,-1011.92 441.717,-1012.77 439.947,-1006"/>
</g>
<!-- Node23 -->
<g id="node23" class="node"><title>Node23</title>
<g id="a_node23"><a xlink:href="d7/de3/classsrc_1_1harness_1_1testcases_1_1WINNF__FT__S__RLQ__testcase_1_1RelinquishmentTestcase.html" target="_top" xlink:title="src.harness.testcases.WINNF\l_FT_S_RLQ_testcase.Relinquishment\lTestcase">
<polygon fill="white" stroke="black" points="524.5,-806 524.5,-847 709.5,-847 709.5,-806 524.5,-806"/>
<text text-anchor="start" x="532.5" y="-835" font-family="Helvetica,sans-Serif" font-size="10.00">src.harness.testcases.WINNF</text>
<text text-anchor="start" x="532.5" y="-824" font-family="Helvetica,sans-Serif" font-size="10.00">_FT_S_RLQ_testcase.Relinquishment</text>
<text text-anchor="middle" x="617" y="-813" font-family="Helvetica,sans-Serif" font-size="10.00">Testcase</text>
</a>
</g>
</g>
<!-- Node12&#45;&gt;Node23 -->
<g id="edge22" class="edge"><title>Node12&#45;&gt;Node23</title>
<path fill="none" stroke="midnightblue" d="M440.852,-1011.27C454.215,-1007.3 467.032,-1001.09 477,-991.5 521.758,-948.457 469.595,-900.907 513,-856.5 516.385,-853.037 520.145,-849.968 524.168,-847.249"/>
<polygon fill="midnightblue" stroke="midnightblue" points="439.878,-1007.9 431.059,-1013.77 441.615,-1014.68 439.878,-1007.9"/>
</g>
<!-- Node24 -->
<g id="node24" class="node"><title>Node24</title>
<g id="a_node24"><a xlink:href="dd/df3/classsrc_1_1harness_1_1testcases_1_1WINNF__FT__S__SIQ__testcase_1_1SpectrumInquiryTestcase.html" target="_top" xlink:title="src.harness.testcases.WINNF\l_FT_S_SIQ_testcase.SpectrumInquiry\lTestcase">
<polygon fill="white" stroke="black" points="524.5,-746 524.5,-787 709.5,-787 709.5,-746 524.5,-746"/>
<text text-anchor="start" x="532.5" y="-775" font-family="Helvetica,sans-Serif" font-size="10.00">src.harness.testcases.WINNF</text>
<text text-anchor="start" x="532.5" y="-764" font-family="Helvetica,sans-Serif" font-size="10.00">_FT_S_SIQ_testcase.SpectrumInquiry</text>
<text text-anchor="middle" x="617" y="-753" font-family="Helvetica,sans-Serif" font-size="10.00">Testcase</text>
</a>
</g>
</g>
<!-- Node12&#45;&gt;Node24 -->
<g id="edge23" class="edge"><title>Node12&#45;&gt;Node24</title>
<path fill="none" stroke="midnightblue" d="M440.997,-1012.01C454.478,-1008 467.304,-1001.58 477,-991.5 538.092,-927.979 453.902,-861.88 513,-796.5 516.372,-792.769 520.179,-789.492 524.29,-786.614"/>
<polygon fill="midnightblue" stroke="midnightblue" points="439.932,-1008.67 431.1,-1014.52 441.654,-1015.45 439.932,-1008.67"/>
</g>
<!-- Node14 -->
<g id="node14" class="node"><title>Node14</title>
<g id="a_node14"><a xlink:href="da/d08/classsrc_1_1harness_1_1testcases_1_1WINNF__FT__S__SCS__testcase_1_1SasCbsdSecurityTestcase.html" target="_top" xlink:title="src.harness.testcases.WINNF\l_FT_S_SCS_testcase.SasCbsdSecurity\lTestcase">
<polygon fill="white" stroke="black" points="757,-1276 757,-1317 951,-1317 951,-1276 757,-1276"/>
<text text-anchor="start" x="765" y="-1305" font-family="Helvetica,sans-Serif" font-size="10.00">src.harness.testcases.WINNF</text>
<text text-anchor="start" x="765" y="-1294" font-family="Helvetica,sans-Serif" font-size="10.00">_FT_S_SCS_testcase.SasCbsdSecurity</text>
<text text-anchor="middle" x="854" y="-1283" font-family="Helvetica,sans-Serif" font-size="10.00">Testcase</text>
</a>
</g>
</g>
<!-- Node13&#45;&gt;Node14 -->
<g id="edge13" class="edge"><title>Node13&#45;&gt;Node14</title>
<path fill="none" stroke="midnightblue" d="M697.62,-1276.66C716.58,-1279.08 737.012,-1281.69 756.632,-1284.2"/>
<polygon fill="midnightblue" stroke="midnightblue" points="697.917,-1273.17 687.554,-1275.38 697.03,-1280.12 697.917,-1273.17"/>
</g>
<!-- Node15 -->
<g id="node15" class="node"><title>Node15</title>
<g id="a_node15"><a xlink:href="d5/daa/classsrc_1_1harness_1_1testcases_1_1WINNF__FT__S__SDS__testcase_1_1SasDomainProxySecurityTestcase.html" target="_top" xlink:title="src.harness.testcases.WINNF\l_FT_S_SDS_testcase.SasDomainProxy\lSecurityTestcase">
<polygon fill="white" stroke="black" points="757,-1216 757,-1257 951,-1257 951,-1216 757,-1216"/>
<text text-anchor="start" x="765" y="-1245" font-family="Helvetica,sans-Serif" font-size="10.00">src.harness.testcases.WINNF</text>
<text text-anchor="start" x="765" y="-1234" font-family="Helvetica,sans-Serif" font-size="10.00">_FT_S_SDS_testcase.SasDomainProxy</text>
<text text-anchor="middle" x="854" y="-1223" font-family="Helvetica,sans-Serif" font-size="10.00">SecurityTestcase</text>
</a>
</g>
</g>
<!-- Node13&#45;&gt;Node15 -->
<g id="edge14" class="edge"><title>Node13&#45;&gt;Node15</title>
<path fill="none" stroke="midnightblue" d="M697.62,-1256.34C716.58,-1253.92 737.012,-1251.31 756.632,-1248.8"/>
<polygon fill="midnightblue" stroke="midnightblue" points="697.03,-1252.88 687.554,-1257.62 697.917,-1259.83 697.03,-1252.88"/>
</g>
<!-- Node26 -->
<g id="node26" class="node"><title>Node26</title>
<polygon fill="white" stroke="#bfbfbf" points="118.5,-496 118.5,-515 177.5,-515 177.5,-496 118.5,-496"/>
<text text-anchor="middle" x="148" y="-503" font-family="Helvetica,sans-Serif" font-size="10.00">TestCase</text>
</g>
<!-- Node26&#45;&gt;Node12 -->
<g id="edge38" class="edge"><title>Node26&#45;&gt;Node12</title>
<path fill="none" stroke="midnightblue" d="M150.447,-525.276C156.883,-607.777 185.623,-923.397 253,-991.5 265.156,-1003.79 281.97,-1010.6 298.838,-1014.23"/>
<polygon fill="midnightblue" stroke="midnightblue" points="153.931,-524.938 149.685,-515.232 146.951,-525.468 153.931,-524.938"/>
</g>
<!-- Node27 -->
<g id="node27" class="node"><title>Node27</title>
<g id="a_node27"><a xlink:href="d3/db7/classnlcd__origin__test_1_1TestNlcdOrigin.html" target="_top" xlink:title="nlcd_origin_test.TestNlcd\lOrigin">
<polygon fill="white" stroke="black" points="301,-952.5 301,-982.5 429,-982.5 429,-952.5 301,-952.5"/>
<text text-anchor="start" x="309" y="-970.5" font-family="Helvetica,sans-Serif" font-size="10.00">nlcd_origin_test.TestNlcd</text>
<text text-anchor="middle" x="365" y="-959.5" font-family="Helvetica,sans-Serif" font-size="10.00">Origin</text>
</a>
</g>
</g>
<!-- Node26&#45;&gt;Node27 -->
<g id="edge25" class="edge"><title>Node26&#45;&gt;Node27</title>
<path fill="none" stroke="midnightblue" d="M150.927,-525.272C158.866,-602.602 191.544,-883.272 253,-943.5 265.744,-955.989 283.349,-962.647 300.787,-966.036"/>
<polygon fill="midnightblue" stroke="midnightblue" points="154.381,-524.628 149.9,-515.027 147.416,-525.327 154.381,-524.628"/>
</g>
<!-- Node28 -->
<g id="node28" class="node"><title>Node28</title>
<g id="a_node28"><a xlink:href="d1/da1/classsrc_1_1harness_1_1reference__models_1_1antenna_1_1antenna__test_1_1TestAntenna.html" target="_top" xlink:title="src.harness.reference\l_models.antenna.antenna\l_test.TestAntenna">
<polygon fill="white" stroke="black" points="301,-893 301,-934 429,-934 429,-893 301,-893"/>
<text text-anchor="start" x="309" y="-922" font-family="Helvetica,sans-Serif" font-size="10.00">src.harness.reference</text>
<text text-anchor="start" x="309" y="-911" font-family="Helvetica,sans-Serif" font-size="10.00">_models.antenna.antenna</text>
<text text-anchor="middle" x="365" y="-900" font-family="Helvetica,sans-Serif" font-size="10.00">_test.TestAntenna</text>
</a>
</g>
</g>
<!-- Node26&#45;&gt;Node28 -->
<g id="edge26" class="edge"><title>Node26&#45;&gt;Node28</title>
<path fill="none" stroke="midnightblue" d="M151.804,-525.132C162.187,-595.162 200.567,-831.304 253,-883.5 265.803,-896.246 283.426,-903.729 300.861,-908.077"/>
<polygon fill="midnightblue" stroke="midnightblue" points="155.239,-524.432 150.333,-515.041 148.313,-525.442 155.239,-524.432"/>
</g>
<!-- Node29 -->
<g id="node29" class="node"><title>Node29</title>
<g id="a_node29"><a xlink:href="d0/d1e/classsrc_1_1harness_1_1reference__models_1_1antenna_1_1fss__pointing__test_1_1TestAntenna.html" target="_top" xlink:title="src.harness.reference\l_models.antenna.fss_pointing\l_test.TestAntenna">
<polygon fill="white" stroke="black" points="292,-833 292,-874 438,-874 438,-833 292,-833"/>
<text text-anchor="start" x="300" y="-862" font-family="Helvetica,sans-Serif" font-size="10.00">src.harness.reference</text>
<text text-anchor="start" x="300" y="-851" font-family="Helvetica,sans-Serif" font-size="10.00">_models.antenna.fss_pointing</text>
<text text-anchor="middle" x="365" y="-840" font-family="Helvetica,sans-Serif" font-size="10.00">_test.TestAntenna</text>
</a>
</g>
</g>
<!-- Node26&#45;&gt;Node29 -->
<g id="edge27" class="edge"><title>Node26&#45;&gt;Node29</title>
<path fill="none" stroke="midnightblue" d="M149.336,-525.543C151.396,-581.379 165.094,-740.06 253,-823.5 263.786,-833.738 277.695,-840.558 291.996,-845.083"/>
<polygon fill="midnightblue" stroke="midnightblue" points="152.826,-525.152 149.05,-515.253 145.829,-525.346 152.826,-525.152"/>
</g>
<!-- Node30 -->
<g id="node30" class="node"><title>Node30</title>
<g id="a_node30"><a xlink:href="d3/d40/classsrc_1_1harness_1_1reference__models_1_1geo_1_1nlcd__test_1_1TestNlcd.html" target="_top" xlink:title="src.harness.reference\l_models.geo.nlcd_test.TestNlcd">
<polygon fill="white" stroke="black" points="286,-784.5 286,-814.5 444,-814.5 444,-784.5 286,-784.5"/>
<text text-anchor="start" x="294" y="-802.5" font-family="Helvetica,sans-Serif" font-size="10.00">src.harness.reference</text>
<text text-anchor="middle" x="365" y="-791.5" font-family="Helvetica,sans-Serif" font-size="10.00">_models.geo.nlcd_test.TestNlcd</text>
</a>
</g>
</g>
<!-- Node26&#45;&gt;Node30 -->
<g id="edge28" class="edge"><title>Node26&#45;&gt;Node30</title>
<path fill="none" stroke="midnightblue" d="M150.422,-525.383C155.137,-575.641 174.764,-708.521 253,-775.5 262.436,-783.578 273.95,-789.134 285.947,-792.919"/>
<polygon fill="midnightblue" stroke="midnightblue" points="153.893,-524.885 149.571,-515.212 146.917,-525.469 153.893,-524.885"/>
</g>
<!-- Node31 -->
<g id="node31" class="node"><title>Node31</title>
<g id="a_node31"><a xlink:href="da/d90/classsrc_1_1harness_1_1reference__models_1_1geo_1_1refractivity__test_1_1TestRefractivity.html" target="_top" xlink:title="src.harness.reference\l_models.geo.refractivity\l_test.TestRefractivity">
<polygon fill="white" stroke="black" points="304.5,-725 304.5,-766 425.5,-766 425.5,-725 304.5,-725"/>
<text text-anchor="start" x="312.5" y="-754" font-family="Helvetica,sans-Serif" font-size="10.00">src.harness.reference</text>
<text text-anchor="start" x="312.5" y="-743" font-family="Helvetica,sans-Serif" font-size="10.00">_models.geo.refractivity</text>
<text text-anchor="middle" x="365" y="-732" font-family="Helvetica,sans-Serif" font-size="10.00">_test.TestRefractivity</text>
</a>
</g>
</g>
<!-- Node26&#45;&gt;Node31 -->
<g id="edge29" class="edge"><title>Node26&#45;&gt;Node31</title>
<path fill="none" stroke="midnightblue" d="M153.029,-525.171C162.616,-566.852 190.787,-664.418 253,-715.5 267.502,-727.408 286.32,-734.615 304.329,-738.969"/>
<polygon fill="midnightblue" stroke="midnightblue" points="156.404,-524.217 150.849,-515.194 149.565,-525.711 156.404,-524.217"/>
</g>
<!-- Node32 -->
<g id="node32" class="node"><title>Node32</title>
<g id="a_node32"><a xlink:href="de/d70/classsrc_1_1harness_1_1reference__models_1_1geo_1_1terrain__test_1_1TestTerrain.html" target="_top" xlink:title="src.harness.reference\l_models.geo.terrain_test.Test\lTerrain">
<polygon fill="white" stroke="black" points="292,-665 292,-706 438,-706 438,-665 292,-665"/>
<text text-anchor="start" x="300" y="-694" font-family="Helvetica,sans-Serif" font-size="10.00">src.harness.reference</text>
<text text-anchor="start" x="300" y="-683" font-family="Helvetica,sans-Serif" font-size="10.00">_models.geo.terrain_test.Test</text>
<text text-anchor="middle" x="365" y="-672" font-family="Helvetica,sans-Serif" font-size="10.00">Terrain</text>
</a>
</g>
</g>
<!-- Node26&#45;&gt;Node32 -->
<g id="edge30" class="edge"><title>Node26&#45;&gt;Node32</title>
<path fill="none" stroke="midnightblue" d="M156.882,-524.52C171.159,-556.578 204.397,-621.221 253,-655.5 264.501,-663.611 278.085,-669.53 291.734,-673.849"/>
<polygon fill="midnightblue" stroke="midnightblue" points="160.094,-523.13 152.917,-515.336 153.667,-525.904 160.094,-523.13"/>
</g>
<!-- Node33 -->
<g id="node33" class="node"><title>Node33</title>
<g id="a_node33"><a xlink:href="db/d2a/classsrc_1_1harness_1_1reference__models_1_1geo_1_1tropoclim__test_1_1TestTropoclim.html" target="_top" xlink:title="src.harness.reference\l_models.geo.tropoclim\l_test.TestTropoclim">
<polygon fill="white" stroke="black" points="307.5,-605 307.5,-646 422.5,-646 422.5,-605 307.5,-605"/>
<text text-anchor="start" x="315.5" y="-634" font-family="Helvetica,sans-Serif" font-size="10.00">src.harness.reference</text>
<text text-anchor="start" x="315.5" y="-623" font-family="Helvetica,sans-Serif" font-size="10.00">_models.geo.tropoclim</text>
<text text-anchor="middle" x="365" y="-612" font-family="Helvetica,sans-Serif" font-size="10.00">_test.TestTropoclim</text>
</a>
</g>
</g>
<!-- Node26&#45;&gt;Node33 -->
<g id="edge31" class="edge"><title>Node26&#45;&gt;Node33</title>
<path fill="none" stroke="midnightblue" d="M164.314,-522.828C183.206,-543.155 217.237,-576.486 253,-595.5 269.745,-604.403 289.347,-610.829 307.381,-615.391"/>
<polygon fill="midnightblue" stroke="midnightblue" points="166.723,-520.276 157.402,-515.238 161.548,-524.989 166.723,-520.276"/>
</g>
<!-- Node34 -->
<g id="node34" class="node"><title>Node34</title>
<g id="a_node34"><a xlink:href="db/db9/classsrc_1_1harness_1_1reference__models_1_1geo_1_1utils__test_1_1TestUtils.html" target="_top" xlink:title="src.harness.reference\l_models.geo.utils_test.Test\lUtils">
<polygon fill="white" stroke="black" points="296.5,-545 296.5,-586 433.5,-586 433.5,-545 296.5,-545"/>
<text text-anchor="start" x="304.5" y="-574" font-family="Helvetica,sans-Serif" font-size="10.00">src.harness.reference</text>
<text text-anchor="start" x="304.5" y="-563" font-family="Helvetica,sans-Serif" font-size="10.00">_models.geo.utils_test.Test</text>
<text text-anchor="middle" x="365" y="-552" font-family="Helvetica,sans-Serif" font-size="10.00">Utils</text>
</a>
</g>
</g>
<!-- Node26&#45;&gt;Node34 -->
<g id="edge32" class="edge"><title>Node26&#45;&gt;Node34</title>
<path fill="none" stroke="midnightblue" d="M187.445,-516.758C207.044,-522.454 231.269,-529.429 253,-535.5 267.035,-539.421 282.092,-543.545 296.446,-547.437"/>
<polygon fill="midnightblue" stroke="midnightblue" points="188.236,-513.342 177.656,-513.907 186.279,-520.063 188.236,-513.342"/>
</g>
<!-- Node35 -->
<g id="node35" class="node"><title>Node35</title>
<g id="a_node35"><a xlink:href="d2/d26/classsrc_1_1harness_1_1reference__models_1_1geo_1_1vincenty__test_1_1TestVincenty.html" target="_top" xlink:title="src.harness.reference\l_models.geo.vincenty\l_test.TestVincenty">
<polygon fill="white" stroke="black" points="309,-485 309,-526 421,-526 421,-485 309,-485"/>
<text text-anchor="start" x="317" y="-514" font-family="Helvetica,sans-Serif" font-size="10.00">src.harness.reference</text>
<text text-anchor="start" x="317" y="-503" font-family="Helvetica,sans-Serif" font-size="10.00">_models.geo.vincenty</text>
<text text-anchor="middle" x="365" y="-492" font-family="Helvetica,sans-Serif" font-size="10.00">_test.TestVincenty</text>
</a>
</g>
</g>
<!-- Node26&#45;&gt;Node35 -->
<g id="edge33" class="edge"><title>Node26&#45;&gt;Node35</title>
<path fill="none" stroke="midnightblue" d="M187.935,-505.5C221.699,-505.5 270.953,-505.5 308.785,-505.5"/>
<polygon fill="midnightblue" stroke="midnightblue" points="187.55,-502 177.55,-505.5 187.55,-509 187.55,-502"/>
</g>
<!-- Node36 -->
<g id="node36" class="node"><title>Node36</title>
<g id="a_node36"><a xlink:href="d1/d41/classsrc_1_1harness_1_1reference__models_1_1propagation_1_1ehata_1_1ehata__test_1_1TestEHata.html" target="_top" xlink:title="src.harness.reference\l_models.propagation.ehata.ehata\l_test.TestEHata">
<polygon fill="white" stroke="black" points="284.5,-425 284.5,-466 445.5,-466 445.5,-425 284.5,-425"/>
<text text-anchor="start" x="292.5" y="-454" font-family="Helvetica,sans-Serif" font-size="10.00">src.harness.reference</text>
<text text-anchor="start" x="292.5" y="-443" font-family="Helvetica,sans-Serif" font-size="10.00">_models.propagation.ehata.ehata</text>
<text text-anchor="middle" x="365" y="-432" font-family="Helvetica,sans-Serif" font-size="10.00">_test.TestEHata</text>
</a>
</g>
</g>
<!-- Node26&#45;&gt;Node36 -->
<g id="edge34" class="edge"><title>Node26&#45;&gt;Node36</title>
<path fill="none" stroke="midnightblue" d="M187.445,-494.242C207.044,-488.546 231.269,-481.571 253,-475.5 264.055,-472.412 275.744,-469.197 287.224,-466.069"/>
<polygon fill="midnightblue" stroke="midnightblue" points="186.279,-490.937 177.656,-497.093 188.236,-497.658 186.279,-490.937"/>
</g>
<!-- Node37 -->
<g id="node37" class="node"><title>Node37</title>
<g id="a_node37"><a xlink:href="d4/d27/classsrc_1_1harness_1_1reference__models_1_1propagation_1_1itm_1_1itm__test_1_1TestItm.html" target="_top" xlink:title="src.harness.reference\l_models.propagation.itm.itm\l_test.TestItm">
<polygon fill="white" stroke="black" points="295,-365 295,-406 435,-406 435,-365 295,-365"/>
<text text-anchor="start" x="303" y="-394" font-family="Helvetica,sans-Serif" font-size="10.00">src.harness.reference</text>
<text text-anchor="start" x="303" y="-383" font-family="Helvetica,sans-Serif" font-size="10.00">_models.propagation.itm.itm</text>
<text text-anchor="middle" x="365" y="-372" font-family="Helvetica,sans-Serif" font-size="10.00">_test.TestItm</text>
</a>
</g>
</g>
<!-- Node26&#45;&gt;Node37 -->
<g id="edge35" class="edge"><title>Node26&#45;&gt;Node37</title>
<path fill="none" stroke="midnightblue" d="M164.314,-488.172C183.206,-467.845 217.237,-434.514 253,-415.5 265.955,-408.612 280.621,-403.207 294.948,-399"/>
<polygon fill="midnightblue" stroke="midnightblue" points="161.548,-486.011 157.402,-495.762 166.723,-490.724 161.548,-486.011"/>
</g>
<!-- Node38 -->
<g id="node38" class="node"><title>Node38</title>
<g id="a_node38"><a xlink:href="d3/d30/classsrc_1_1harness_1_1reference__models_1_1propagation_1_1wf__hybrid__test_1_1TestWfHybrid.html" target="_top" xlink:title="src.harness.reference\l_models.propagation.wf\l_hybrid_test.TestWfHybrid">
<polygon fill="white" stroke="black" points="298,-305 298,-346 432,-346 432,-305 298,-305"/>
<text text-anchor="start" x="306" y="-334" font-family="Helvetica,sans-Serif" font-size="10.00">src.harness.reference</text>
<text text-anchor="start" x="306" y="-323" font-family="Helvetica,sans-Serif" font-size="10.00">_models.propagation.wf</text>
<text text-anchor="middle" x="365" y="-312" font-family="Helvetica,sans-Serif" font-size="10.00">_hybrid_test.TestWfHybrid</text>
</a>
</g>
</g>
<!-- Node26&#45;&gt;Node38 -->
<g id="edge36" class="edge"><title>Node26&#45;&gt;Node38</title>
<path fill="none" stroke="midnightblue" d="M156.882,-486.48C171.159,-454.422 204.397,-389.779 253,-355.5 266.214,-346.181 282.178,-339.755 297.83,-335.326"/>
<polygon fill="midnightblue" stroke="midnightblue" points="153.667,-485.096 152.917,-495.664 160.094,-487.87 153.667,-485.096"/>
</g>
<!-- Node39 -->
<g id="node39" class="node"><title>Node39</title>
<g id="a_node39"><a xlink:href="d8/dc4/classsrc_1_1harness_1_1reference__models_1_1propagation_1_1wf__itm__test_1_1TestWfItm.html" target="_top" xlink:title="src.harness.reference\l_models.propagation.wf\l_itm_test.TestWfItm">
<polygon fill="white" stroke="black" points="305,-245 305,-286 425,-286 425,-245 305,-245"/>
<text text-anchor="start" x="313" y="-274" font-family="Helvetica,sans-Serif" font-size="10.00">src.harness.reference</text>
<text text-anchor="start" x="313" y="-263" font-family="Helvetica,sans-Serif" font-size="10.00">_models.propagation.wf</text>
<text text-anchor="middle" x="365" y="-252" font-family="Helvetica,sans-Serif" font-size="10.00">_itm_test.TestWfItm</text>
</a>
</g>
</g>
<!-- Node26&#45;&gt;Node39 -->
<g id="edge37" class="edge"><title>Node26&#45;&gt;Node39</title>
<path fill="none" stroke="midnightblue" d="M153.029,-485.829C162.616,-444.148 190.787,-346.582 253,-295.5 267.657,-283.466 286.721,-276.232 304.904,-271.893"/>
<polygon fill="midnightblue" stroke="midnightblue" points="149.565,-485.289 150.849,-495.806 156.404,-486.783 149.565,-485.289"/>
</g>
<!-- Node40 -->
<g id="node40" class="node"><title>Node40</title>
<g id="a_node40"><a xlink:href="d6/df5/classsrc_1_1harness_1_1testcases_1_1deregistration__testcase_1_1DeregistrationTestcaseUsingOldIds.html" target="_top" xlink:title="src.harness.testcases.deregistration\l_testcase.DeregistrationTestcaseUsingOldIds">
<polygon fill="white" stroke="black" points="256,-196.5 256,-226.5 474,-226.5 474,-196.5 256,-196.5"/>
<text text-anchor="start" x="264" y="-214.5" font-family="Helvetica,sans-Serif" font-size="10.00">src.harness.testcases.deregistration</text>
<text text-anchor="middle" x="365" y="-203.5" font-family="Helvetica,sans-Serif" font-size="10.00">_testcase.DeregistrationTestcaseUsingOldIds</text>
</a>
</g>
</g>
<!-- Node26&#45;&gt;Node40 -->
<g id="edge39" class="edge"><title>Node26&#45;&gt;Node40</title>
<path fill="none" stroke="midnightblue" d="M150.422,-485.617C155.137,-435.359 174.764,-302.479 253,-235.5 256.969,-232.102 261.306,-229.151 265.891,-226.589"/>
<polygon fill="midnightblue" stroke="midnightblue" points="146.917,-485.531 149.571,-495.788 153.893,-486.115 146.917,-485.531"/>
</g>
<!-- Node41 -->
<g id="node41" class="node"><title>Node41</title>
<g id="a_node41"><a xlink:href="db/d3f/classsrc_1_1harness_1_1testcases_1_1heartbeat__testcase_1_1HeartbeatTestcaseUsingOldIds.html" target="_top" xlink:title="src.harness.testcases.heartbeat\l_testcase.HeartbeatTestcaseUsingOldIds">
<polygon fill="white" stroke="black" points="265,-147.5 265,-177.5 465,-177.5 465,-147.5 265,-147.5"/>
<text text-anchor="start" x="273" y="-165.5" font-family="Helvetica,sans-Serif" font-size="10.00">src.harness.testcases.heartbeat</text>
<text text-anchor="middle" x="365" y="-154.5" font-family="Helvetica,sans-Serif" font-size="10.00">_testcase.HeartbeatTestcaseUsingOldIds</text>
</a>
</g>
</g>
<!-- Node26&#45;&gt;Node41 -->
<g id="edge40" class="edge"><title>Node26&#45;&gt;Node41</title>
<path fill="none" stroke="midnightblue" d="M149.088,-485.541C150.484,-429.266 162.574,-268.125 253,-186.5 256.732,-183.131 260.822,-180.195 265.161,-177.64"/>
<polygon fill="midnightblue" stroke="midnightblue" points="145.584,-485.838 148.929,-495.891 152.583,-485.947 145.584,-485.838"/>
</g>
<!-- Node42 -->
<g id="node42" class="node"><title>Node42</title>
<g id="a_node42"><a xlink:href="d4/dbe/classsrc_1_1harness_1_1testcases_1_1registration__testcase_1_1RegistrationTestcaseUsingOldIds.html" target="_top" xlink:title="src.harness.testcases.registration\l_testcase.RegistrationTestcaseUsingOldIds">
<polygon fill="white" stroke="black" points="260.5,-98.5 260.5,-128.5 469.5,-128.5 469.5,-98.5 260.5,-98.5"/>
<text text-anchor="start" x="268.5" y="-116.5" font-family="Helvetica,sans-Serif" font-size="10.00">src.harness.testcases.registration</text>
<text text-anchor="middle" x="365" y="-105.5" font-family="Helvetica,sans-Serif" font-size="10.00">_testcase.RegistrationTestcaseUsingOldIds</text>
</a>
</g>
</g>
<!-- Node26&#45;&gt;Node42 -->
<g id="edge41" class="edge"><title>Node26&#45;&gt;Node42</title>
<path fill="none" stroke="midnightblue" d="M151.861,-485.841C162.304,-416.781 200.516,-186.803 253,-137.5 256.593,-134.125 260.542,-131.181 264.744,-128.615"/>
<polygon fill="midnightblue" stroke="midnightblue" points="148.386,-485.414 150.378,-495.82 155.31,-486.443 148.386,-485.414"/>
</g>
<!-- Node43 -->
<g id="node43" class="node"><title>Node43</title>
<g id="a_node43"><a xlink:href="d9/d25/classsrc_1_1harness_1_1testcases_1_1relinquishment__testcase_1_1RelinquishmentTestcaseUsingOldIds.html" target="_top" xlink:title="src.harness.testcases.relinquishment\l_testcase.RelinquishmentTestcaseUsingOldIds">
<polygon fill="white" stroke="black" points="253,-49.5 253,-79.5 477,-79.5 477,-49.5 253,-49.5"/>
<text text-anchor="start" x="261" y="-67.5" font-family="Helvetica,sans-Serif" font-size="10.00">src.harness.testcases.relinquishment</text>
<text text-anchor="middle" x="365" y="-56.5" font-family="Helvetica,sans-Serif" font-size="10.00">_testcase.RelinquishmentTestcaseUsingOldIds</text>
</a>
</g>
</g>
<!-- Node26&#45;&gt;Node43 -->
<g id="edge42" class="edge"><title>Node26&#45;&gt;Node43</title>
<path fill="none" stroke="midnightblue" d="M151.183,-485.701C159.853,-410.699 194.261,-145.419 253,-88.5 256.469,-85.1385 260.291,-82.2006 264.366,-79.6361"/>
<polygon fill="midnightblue" stroke="midnightblue" points="147.699,-485.363 150.052,-495.693 154.655,-486.15 147.699,-485.363"/>
</g>
<!-- Node44 -->
<g id="node44" class="node"><title>Node44</title>
<g id="a_node44"><a xlink:href="d8/d5e/classsrc_1_1harness_1_1testcases_1_1WINNF__FT__S__MES__testcase_1_1MeasurementTestcase.html" target="_top" xlink:title="src.harness.testcases.WINNF\l_FT_S_MES_testcase.MeasurementTestcase">
<polygon fill="white" stroke="black" points="256,-0.5 256,-30.5 474,-30.5 474,-0.5 256,-0.5"/>
<text text-anchor="start" x="264" y="-18.5" font-family="Helvetica,sans-Serif" font-size="10.00">src.harness.testcases.WINNF</text>
<text text-anchor="middle" x="365" y="-7.5" font-family="Helvetica,sans-Serif" font-size="10.00">_FT_S_MES_testcase.MeasurementTestcase</text>
</a>
</g>
</g>
<!-- Node26&#45;&gt;Node44 -->
<g id="edge43" class="edge"><title>Node26&#45;&gt;Node44</title>
<path fill="none" stroke="midnightblue" d="M150.644,-485.507C157.69,-404.78 187.98,-104.09 253,-39.5 256.357,-36.1652 260.06,-33.2447 264.015,-30.6902"/>
<polygon fill="midnightblue" stroke="midnightblue" points="147.132,-485.507 149.772,-495.768 154.107,-486.1 147.132,-485.507"/>
</g>
</g>
</svg>
