<?xml version="1.0" encoding="UTF-8" standalone="no"?>
<!DOCTYPE svg PUBLIC "-//W3C//DTD SVG 1.1//EN"
 "http://www.w3.org/Graphics/SVG/1.1/DTD/svg11.dtd">
<!-- Generated by graphviz version 2.38.0 (20140413.2041)
 -->
<!-- Title: src.harness.reference_models.geo.vincenty.GeodesicSampling Pages: 1 -->
<svg width="548pt" height="110pt"
 viewBox="0.00 0.00 548.00 110.00" xmlns="http://www.w3.org/2000/svg" xmlns:xlink="http://www.w3.org/1999/xlink">
<g id="graph0" class="graph" transform="scale(1 1) rotate(0) translate(4 106)">
<title>src.harness.reference_models.geo.vincenty.GeodesicSampling</title>
<polygon fill="white" stroke="none" points="-4,4 -4,-106 544,-106 544,4 -4,4"/>
<!-- Node1 -->
<g id="node1" class="node"><title>Node1</title>
<polygon fill="#bfbfbf" stroke="black" points="0,-30.5 0,-71.5 156,-71.5 156,-30.5 0,-30.5"/>
<text text-anchor="start" x="8" y="-59.5" font-family="Helvetica,sans-Serif" font-size="10.00">src.harness.reference</text>
<text text-anchor="start" x="8" y="-48.5" font-family="Helvetica,sans-Serif" font-size="10.00">_models.geo.vincenty.Geodesic</text>
<text text-anchor="middle" x="78" y="-37.5" font-family="Helvetica,sans-Serif" font-size="10.00">Sampling</text>
</g>
<!-- Node2 -->
<g id="node2" class="node"><title>Node2</title>
<g id="a_node2"><a xlink:href="../../de/d62/namespacesrc_1_1harness_1_1reference__models_1_1geo_1_1vincenty.html#a0c50b5af96bab680088e2dd1d8f91894" target="_top" xlink:title="src.harness.reference\l_models.geo.vincenty.Geodesic\lDistanceBearing">
<polygon fill="white" stroke="black" points="192,-60.5 192,-101.5 348,-101.5 348,-60.5 192,-60.5"/>
<text text-anchor="start" x="200" y="-89.5" font-family="Helvetica,sans-Serif" font-size="10.00">src.harness.reference</text>
<text text-anchor="start" x="200" y="-78.5" font-family="Helvetica,sans-Serif" font-size="10.00">_models.geo.vincenty.Geodesic</text>
<text text-anchor="middle" x="270" y="-67.5" font-family="Helvetica,sans-Serif" font-size="10.00">DistanceBearing</text>
</a>
</g>
</g>
<!-- Node1&#45;&gt;Node2 -->
<g id="edge1" class="edge"><title>Node1&#45;&gt;Node2</title>
<path fill="none" stroke="midnightblue" d="M156.006,-63.1589C164.509,-64.5014 173.211,-65.8754 181.827,-67.2358"/>
<polygon fill="midnightblue" stroke="midnightblue" points="181.46,-70.7212 191.884,-68.8238 182.552,-63.8069 181.46,-70.7212"/>
</g>
<!-- Node3 -->
<g id="node3" class="node"><title>Node3</title>
<g id="a_node3"><a xlink:href="../../de/d62/namespacesrc_1_1harness_1_1reference__models_1_1geo_1_1vincenty.html#acbf04a7bebe0be398192d9639f40039b" target="_top" xlink:title="src.harness.reference\l_models.geo.vincenty.Geodesic\lPoints">
<polygon fill="white" stroke="black" points="192,-0.5 192,-41.5 348,-41.5 348,-0.5 192,-0.5"/>
<text text-anchor="start" x="200" y="-29.5" font-family="Helvetica,sans-Serif" font-size="10.00">src.harness.reference</text>
<text text-anchor="start" x="200" y="-18.5" font-family="Helvetica,sans-Serif" font-size="10.00">_models.geo.vincenty.Geodesic</text>
<text text-anchor="middle" x="270" y="-7.5" font-family="Helvetica,sans-Serif" font-size="10.00">Points</text>
</a>
</g>
</g>
<!-- Node1&#45;&gt;Node3 -->
<g id="edge2" class="edge"><title>Node1&#45;&gt;Node3</title>
<path fill="none" stroke="midnightblue" d="M156.006,-38.8411C164.509,-37.4986 173.211,-36.1246 181.827,-34.7642"/>
<polygon fill="midnightblue" stroke="midnightblue" points="182.552,-38.1931 191.884,-33.1762 181.46,-31.2788 182.552,-38.1931"/>
</g>
<!-- Node4 -->
<g id="node4" class="node"><title>Node4</title>
<g id="a_node4"><a xlink:href="../../de/d62/namespacesrc_1_1harness_1_1reference__models_1_1geo_1_1vincenty.html#a0e1fa19b462566e406c53e7535cbd48d" target="_top" xlink:title="src.harness.reference\l_models.geo.vincenty.Geodesic\lPoint">
<polygon fill="white" stroke="black" points="384,-0.5 384,-41.5 540,-41.5 540,-0.5 384,-0.5"/>
<text text-anchor="start" x="392" y="-29.5" font-family="Helvetica,sans-Serif" font-size="10.00">src.harness.reference</text>
<text text-anchor="start" x="392" y="-18.5" font-family="Helvetica,sans-Serif" font-size="10.00">_models.geo.vincenty.Geodesic</text>
<text text-anchor="middle" x="462" y="-7.5" font-family="Helvetica,sans-Serif" font-size="10.00">Point</text>
</a>
</g>
</g>
<!-- Node3&#45;&gt;Node4 -->
<g id="edge3" class="edge"><title>Node3&#45;&gt;Node4</title>
<path fill="none" stroke="midnightblue" d="M348.006,-21C356.509,-21 365.211,-21 373.827,-21"/>
<polygon fill="midnightblue" stroke="midnightblue" points="373.884,-24.5001 383.884,-21 373.884,-17.5001 373.884,-24.5001"/>
</g>
</g>
</svg>
