<?xml version="1.0" encoding="UTF-8" standalone="no"?>
<!DOCTYPE svg PUBLIC "-//W3C//DTD SVG 1.1//EN"
 "http://www.w3.org/Graphics/SVG/1.1/DTD/svg11.dtd">
<!-- Generated by graphviz version 2.38.0 (20140413.2041)
 -->
<!-- Title: src.harness.reference_models.geo.vincenty.GeodesicPoints Pages: 1 -->
<svg width="356pt" height="50pt"
 viewBox="0.00 0.00 356.00 50.00" xmlns="http://www.w3.org/2000/svg" xmlns:xlink="http://www.w3.org/1999/xlink">
<g id="graph0" class="graph" transform="scale(1 1) rotate(0) translate(4 46)">
<title>src.harness.reference_models.geo.vincenty.GeodesicPoints</title>
<polygon fill="white" stroke="none" points="-4,4 -4,-46 352,-46 352,4 -4,4"/>
<!-- Node1 -->
<g id="node1" class="node"><title>Node1</title>
<polygon fill="#bfbfbf" stroke="black" points="0,-0.5 0,-41.5 156,-41.5 156,-0.5 0,-0.5"/>
<text text-anchor="start" x="8" y="-29.5" font-family="Helvetica,sans-Serif" font-size="10.00">src.harness.reference</text>
<text text-anchor="start" x="8" y="-18.5" font-family="Helvetica,sans-Serif" font-size="10.00">_models.geo.vincenty.Geodesic</text>
<text text-anchor="middle" x="78" y="-7.5" font-family="Helvetica,sans-Serif" font-size="10.00">Points</text>
</g>
<!-- Node2 -->
<g id="node2" class="node"><title>Node2</title>
<g id="a_node2"><a xlink:href="../../de/d62/namespacesrc_1_1harness_1_1reference__models_1_1geo_1_1vincenty.html#a0abf6edb80fdd15959bd61a1d9c9e8b6" target="_top" xlink:title="src.harness.reference\l_models.geo.vincenty.Geodesic\lSampling">
<polygon fill="white" stroke="black" points="192,-0.5 192,-41.5 348,-41.5 348,-0.5 192,-0.5"/>
<text text-anchor="start" x="200" y="-29.5" font-family="Helvetica,sans-Serif" font-size="10.00">src.harness.reference</text>
<text text-anchor="start" x="200" y="-18.5" font-family="Helvetica,sans-Serif" font-size="10.00">_models.geo.vincenty.Geodesic</text>
<text text-anchor="middle" x="270" y="-7.5" font-family="Helvetica,sans-Serif" font-size="10.00">Sampling</text>
</a>
</g>
</g>
<!-- Node1&#45;&gt;Node2 -->
<g id="edge1" class="edge"><title>Node1&#45;&gt;Node2</title>
<path fill="none" stroke="midnightblue" d="M166.062,-21C174.677,-21 183.38,-21 191.884,-21"/>
<polygon fill="midnightblue" stroke="midnightblue" points="166.006,-17.5001 156.006,-21 166.006,-24.5001 166.006,-17.5001"/>
</g>
</g>
</svg>
