<?xml version="1.0" encoding="UTF-8" standalone="no"?>
<!DOCTYPE svg PUBLIC "-//W3C//DTD SVG 1.1//EN"
 "http://www.w3.org/Graphics/SVG/1.1/DTD/svg11.dtd">
<!-- Generated by graphviz version 2.38.0 (20140413.2041)
 -->
<!-- Title: src.harness.testcases.WINNF_FT_S_SCS_testcase.SasCbsdSecurityTestcase.test_WINNF_FT_S_SCS_4 Pages: 1 -->
<svg width="845pt" height="164pt"
 viewBox="0.00 0.00 845.00 164.00" xmlns="http://www.w3.org/2000/svg" xmlns:xlink="http://www.w3.org/1999/xlink">
<g id="graph0" class="graph" transform="scale(1 1) rotate(0) translate(4 160)">
<title>src.harness.testcases.WINNF_FT_S_SCS_testcase.SasCbsdSecurityTestcase.test_WINNF_FT_S_SCS_4</title>
<polygon fill="white" stroke="none" points="-4,4 -4,-160 841,-160 841,4 -4,4"/>
<!-- Node1 -->
<g id="node1" class="node"><title>Node1</title>
<polygon fill="#bfbfbf" stroke="black" points="0,-54.5 0,-95.5 194,-95.5 194,-54.5 0,-54.5"/>
<text text-anchor="start" x="8" y="-83.5" font-family="Helvetica,sans-Serif" font-size="10.00">src.harness.testcases.WINNF</text>
<text text-anchor="start" x="8" y="-72.5" font-family="Helvetica,sans-Serif" font-size="10.00">_FT_S_SCS_testcase.SasCbsdSecurity</text>
<text text-anchor="middle" x="97" y="-61.5" font-family="Helvetica,sans-Serif" font-size="10.00">Testcase.test_WINNF_FT_S_SCS_4</text>
</g>
<!-- Node2 -->
<g id="node2" class="node"><title>Node2</title>
<g id="a_node2"><a xlink:href="../../db/df9/classsrc_1_1harness_1_1security__testcase_1_1SecurityTestCase.html#ae4503f0701e9fa5758f44cd21f8160f5" target="_top" xlink:title="src.harness.security\l_testcase.SecurityTestCase.do\lTestCipher">
<polygon fill="white" stroke="black" points="230,-54.5 230,-95.5 385,-95.5 385,-54.5 230,-54.5"/>
<text text-anchor="start" x="238" y="-83.5" font-family="Helvetica,sans-Serif" font-size="10.00">src.harness.security</text>
<text text-anchor="start" x="238" y="-72.5" font-family="Helvetica,sans-Serif" font-size="10.00">_testcase.SecurityTestCase.do</text>
<text text-anchor="middle" x="307.5" y="-61.5" font-family="Helvetica,sans-Serif" font-size="10.00">TestCipher</text>
</a>
</g>
</g>
<!-- Node1&#45;&gt;Node2 -->
<g id="edge1" class="edge"><title>Node1&#45;&gt;Node2</title>
<path fill="none" stroke="midnightblue" d="M194.011,-75C202.521,-75 211.105,-75 219.534,-75"/>
<polygon fill="midnightblue" stroke="midnightblue" points="219.723,-78.5001 229.723,-75 219.723,-71.5001 219.723,-78.5001"/>
</g>
<!-- Node3 -->
<g id="node3" class="node"><title>Node3</title>
<g id="a_node3"><a xlink:href="../../db/df9/classsrc_1_1harness_1_1security__testcase_1_1SecurityTestCase.html#a39567813af1d6b1ad22f3e06301f1d8d" target="_top" xlink:title="src.harness.security\l_testcase.SecurityTestCase.assert\lTlsHandshakeSucceed">
<polygon fill="white" stroke="black" points="430.5,-114.5 430.5,-155.5 601.5,-155.5 601.5,-114.5 430.5,-114.5"/>
<text text-anchor="start" x="438.5" y="-143.5" font-family="Helvetica,sans-Serif" font-size="10.00">src.harness.security</text>
<text text-anchor="start" x="438.5" y="-132.5" font-family="Helvetica,sans-Serif" font-size="10.00">_testcase.SecurityTestCase.assert</text>
<text text-anchor="middle" x="516" y="-121.5" font-family="Helvetica,sans-Serif" font-size="10.00">TlsHandshakeSucceed</text>
</a>
</g>
</g>
<!-- Node2&#45;&gt;Node3 -->
<g id="edge2" class="edge"><title>Node2&#45;&gt;Node3</title>
<path fill="none" stroke="midnightblue" d="M379.277,-95.5647C397.091,-100.741 416.34,-106.334 434.588,-111.636"/>
<polygon fill="midnightblue" stroke="midnightblue" points="433.736,-115.033 444.316,-114.462 435.69,-108.311 433.736,-115.033"/>
</g>
<!-- Node4 -->
<g id="node4" class="node"><title>Node4</title>
<g id="a_node4"><a xlink:href="../../db/df9/classsrc_1_1harness_1_1security__testcase_1_1SecurityTestCase.html#af1e403d01b8ebf0efdb941907e9f4375" target="_top" xlink:title="src.harness.security\l_testcase.SecurityTestCase.\lSasReset">
<polygon fill="white" stroke="black" points="444,-54.5 444,-95.5 588,-95.5 588,-54.5 444,-54.5"/>
<text text-anchor="start" x="452" y="-83.5" font-family="Helvetica,sans-Serif" font-size="10.00">src.harness.security</text>
<text text-anchor="start" x="452" y="-72.5" font-family="Helvetica,sans-Serif" font-size="10.00">_testcase.SecurityTestCase.</text>
<text text-anchor="middle" x="516" y="-61.5" font-family="Helvetica,sans-Serif" font-size="10.00">SasReset</text>
</a>
</g>
</g>
<!-- Node2&#45;&gt;Node4 -->
<g id="edge3" class="edge"><title>Node2&#45;&gt;Node4</title>
<path fill="none" stroke="midnightblue" d="M385.1,-75C400.918,-75 417.632,-75 433.613,-75"/>
<polygon fill="midnightblue" stroke="midnightblue" points="433.993,-78.5001 443.993,-75 433.993,-71.5001 433.993,-78.5001"/>
</g>
<!-- Node5 -->
<g id="node5" class="node"><title>Node5</title>
<g id="a_node5"><a xlink:href="../../df/ded/classsrc_1_1harness_1_1sas__interface_1_1SasTestcaseInterface.html#ae5fdeb19b3235937e0fe9b447297f7ec" target="_top" xlink:title="src.harness.sas_interface.\lSasTestcaseInterface.assertRegistered">
<polygon fill="white" stroke="black" points="421,-6 421,-36 611,-36 611,-6 421,-6"/>
<text text-anchor="start" x="429" y="-24" font-family="Helvetica,sans-Serif" font-size="10.00">src.harness.sas_interface.</text>
<text text-anchor="middle" x="516" y="-13" font-family="Helvetica,sans-Serif" font-size="10.00">SasTestcaseInterface.assertRegistered</text>
</a>
</g>
</g>
<!-- Node2&#45;&gt;Node5 -->
<g id="edge4" class="edge"><title>Node2&#45;&gt;Node5</title>
<path fill="none" stroke="midnightblue" d="M385.024,-54.4768C397.058,-51.2832 409.363,-48.0372 421,-45 429.082,-42.8906 437.561,-40.6978 445.979,-38.5331"/>
<polygon fill="midnightblue" stroke="midnightblue" points="446.99,-41.8872 455.806,-36.0114 445.25,-35.1069 446.99,-41.8872"/>
</g>
<!-- Node6 -->
<g id="node6" class="node"><title>Node6</title>
<g id="a_node6"><a xlink:href="../../df/ded/classsrc_1_1harness_1_1sas__interface_1_1SasTestcaseInterface.html#a36b0593c135c9f69cba9eb4b359bdfa2" target="_top" xlink:title="src.harness.sas_interface.\lSasTestcaseInterface.assertRegistered\lAndGranted">
<polygon fill="white" stroke="black" points="647,-0.5 647,-41.5 837,-41.5 837,-0.5 647,-0.5"/>
<text text-anchor="start" x="655" y="-29.5" font-family="Helvetica,sans-Serif" font-size="10.00">src.harness.sas_interface.</text>
<text text-anchor="start" x="655" y="-18.5" font-family="Helvetica,sans-Serif" font-size="10.00">SasTestcaseInterface.assertRegistered</text>
<text text-anchor="middle" x="742" y="-7.5" font-family="Helvetica,sans-Serif" font-size="10.00">AndGranted</text>
</a>
</g>
</g>
<!-- Node5&#45;&gt;Node6 -->
<g id="edge5" class="edge"><title>Node5&#45;&gt;Node6</title>
<path fill="none" stroke="midnightblue" d="M611.023,-21C619.542,-21 628.204,-21 636.804,-21"/>
<polygon fill="midnightblue" stroke="midnightblue" points="636.859,-24.5001 646.859,-21 636.859,-17.5001 636.859,-24.5001"/>
</g>
</g>
</svg>
