<?xml version="1.0" encoding="UTF-8" standalone="no"?>
<!DOCTYPE svg PUBLIC "-//W3C//DTD SVG 1.1//EN"
 "http://www.w3.org/Graphics/SVG/1.1/DTD/svg11.dtd">
<!-- Generated by graphviz version 2.38.0 (20140413.2041)
 -->
<!-- Title: src.harness.security_testcase.SecurityTestCase Pages: 1 -->
<svg width="794pt" height="110pt"
 viewBox="0.00 0.00 794.00 110.00" xmlns="http://www.w3.org/2000/svg" xmlns:xlink="http://www.w3.org/1999/xlink">
<g id="graph0" class="graph" transform="scale(1 1) rotate(0) translate(4 106)">
<title>src.harness.security_testcase.SecurityTestCase</title>
<polygon fill="white" stroke="none" points="-4,4 -4,-106 790,-106 790,4 -4,4"/>
<!-- Node1 -->
<g id="node1" class="node"><title>Node1</title>
<polygon fill="#bfbfbf" stroke="black" points="415,-36 415,-66 556,-66 556,-36 415,-36"/>
<text text-anchor="start" x="423" y="-54" font-family="Helvetica,sans-Serif" font-size="10.00">src.harness.security</text>
<text text-anchor="middle" x="485.5" y="-43" font-family="Helvetica,sans-Serif" font-size="10.00">_testcase.SecurityTestCase</text>
</g>
<!-- Node6 -->
<g id="node6" class="node"><title>Node6</title>
<g id="a_node6"><a xlink:href="../../da/d08/classsrc_1_1harness_1_1testcases_1_1WINNF__FT__S__SCS__testcase_1_1SasCbsdSecurityTestcase.html" target="_top" xlink:title="src.harness.testcases.WINNF\l_FT_S_SCS_testcase.SasCbsdSecurity\lTestcase">
<polygon fill="white" stroke="black" points="592,-60.5 592,-101.5 786,-101.5 786,-60.5 592,-60.5"/>
<text text-anchor="start" x="600" y="-89.5" font-family="Helvetica,sans-Serif" font-size="10.00">src.harness.testcases.WINNF</text>
<text text-anchor="start" x="600" y="-78.5" font-family="Helvetica,sans-Serif" font-size="10.00">_FT_S_SCS_testcase.SasCbsdSecurity</text>
<text text-anchor="middle" x="689" y="-67.5" font-family="Helvetica,sans-Serif" font-size="10.00">Testcase</text>
</a>
</g>
</g>
<!-- Node1&#45;&gt;Node6 -->
<g id="edge5" class="edge"><title>Node1&#45;&gt;Node6</title>
<path fill="none" stroke="midnightblue" d="M566.224,-62.8696C574.598,-64.1163 583.174,-65.3932 591.708,-66.6637"/>
<polygon fill="midnightblue" stroke="midnightblue" points="566.533,-59.3771 556.127,-61.3663 565.503,-66.3008 566.533,-59.3771"/>
</g>
<!-- Node7 -->
<g id="node7" class="node"><title>Node7</title>
<g id="a_node7"><a xlink:href="../../d5/daa/classsrc_1_1harness_1_1testcases_1_1WINNF__FT__S__SDS__testcase_1_1SasDomainProxySecurityTestcase.html" target="_top" xlink:title="src.harness.testcases.WINNF\l_FT_S_SDS_testcase.SasDomainProxy\lSecurityTestcase">
<polygon fill="white" stroke="black" points="592,-0.5 592,-41.5 786,-41.5 786,-0.5 592,-0.5"/>
<text text-anchor="start" x="600" y="-29.5" font-family="Helvetica,sans-Serif" font-size="10.00">src.harness.testcases.WINNF</text>
<text text-anchor="start" x="600" y="-18.5" font-family="Helvetica,sans-Serif" font-size="10.00">_FT_S_SDS_testcase.SasDomainProxy</text>
<text text-anchor="middle" x="689" y="-7.5" font-family="Helvetica,sans-Serif" font-size="10.00">SecurityTestcase</text>
</a>
</g>
</g>
<!-- Node1&#45;&gt;Node7 -->
<g id="edge6" class="edge"><title>Node1&#45;&gt;Node7</title>
<path fill="none" stroke="midnightblue" d="M566.224,-39.1304C574.598,-37.8837 583.174,-36.6068 591.708,-35.3363"/>
<polygon fill="midnightblue" stroke="midnightblue" points="565.503,-35.6992 556.127,-40.6337 566.533,-42.6229 565.503,-35.6992"/>
</g>
<!-- Node2 -->
<g id="node2" class="node"><title>Node2</title>
<g id="a_node2"><a xlink:href="../../df/dc5/classsrc_1_1harness_1_1sas__testcase_1_1SasTestCase.html" target="_top" xlink:title="src.harness.sas_testcase.\lSasTestCase">
<polygon fill="white" stroke="black" points="247,-36 247,-66 379,-66 379,-36 247,-36"/>
<text text-anchor="start" x="255" y="-54" font-family="Helvetica,sans-Serif" font-size="10.00">src.harness.sas_testcase.</text>
<text text-anchor="middle" x="313" y="-43" font-family="Helvetica,sans-Serif" font-size="10.00">SasTestCase</text>
</a>
</g>
</g>
<!-- Node2&#45;&gt;Node1 -->
<g id="edge1" class="edge"><title>Node2&#45;&gt;Node1</title>
<path fill="none" stroke="midnightblue" d="M389.639,-51C398.077,-51 406.642,-51 414.997,-51"/>
<polygon fill="midnightblue" stroke="midnightblue" points="389.432,-47.5001 379.432,-51 389.432,-54.5001 389.432,-47.5001"/>
</g>
<!-- Node3 -->
<g id="node3" class="node"><title>Node3</title>
<g id="a_node3"><a xlink:href="../../df/ded/classsrc_1_1harness_1_1sas__interface_1_1SasTestcaseInterface.html" target="_top" xlink:title="src.harness.sas_interface.\lSasTestcaseInterface">
<polygon fill="white" stroke="black" points="79,-58 79,-88 211,-88 211,-58 79,-58"/>
<text text-anchor="start" x="87" y="-76" font-family="Helvetica,sans-Serif" font-size="10.00">src.harness.sas_interface.</text>
<text text-anchor="middle" x="145" y="-65" font-family="Helvetica,sans-Serif" font-size="10.00">SasTestcaseInterface</text>
</a>
</g>
</g>
<!-- Node3&#45;&gt;Node2 -->
<g id="edge2" class="edge"><title>Node3&#45;&gt;Node2</title>
<path fill="none" stroke="midnightblue" d="M221.114,-63.0452C229.681,-61.9098 238.361,-60.7594 246.784,-59.6431"/>
<polygon fill="midnightblue" stroke="midnightblue" points="220.585,-59.5846 211.131,-64.3682 221.504,-66.5239 220.585,-59.5846"/>
</g>
<!-- Node4 -->
<g id="node4" class="node"><title>Node4</title>
<polygon fill="white" stroke="#bfbfbf" points="0,-63.5 0,-82.5 43,-82.5 43,-63.5 0,-63.5"/>
<text text-anchor="middle" x="21.5" y="-70.5" font-family="Helvetica,sans-Serif" font-size="10.00">object</text>
</g>
<!-- Node4&#45;&gt;Node3 -->
<g id="edge3" class="edge"><title>Node4&#45;&gt;Node3</title>
<path fill="none" stroke="midnightblue" d="M53.2777,-73C61.1999,-73 70.0293,-73 78.983,-73"/>
<polygon fill="midnightblue" stroke="midnightblue" points="53.1109,-69.5001 43.1108,-73 53.1108,-76.5001 53.1109,-69.5001"/>
</g>
<!-- Node5 -->
<g id="node5" class="node"><title>Node5</title>
<polygon fill="white" stroke="#bfbfbf" points="115.5,-19.5 115.5,-38.5 174.5,-38.5 174.5,-19.5 115.5,-19.5"/>
<text text-anchor="middle" x="145" y="-26.5" font-family="Helvetica,sans-Serif" font-size="10.00">TestCase</text>
</g>
<!-- Node5&#45;&gt;Node2 -->
<g id="edge4" class="edge"><title>Node5&#45;&gt;Node2</title>
<path fill="none" stroke="midnightblue" d="M184.6,-34.1156C203.051,-36.561 225.651,-39.5561 246.666,-42.3413"/>
<polygon fill="midnightblue" stroke="midnightblue" points="184.91,-30.6262 174.536,-32.7819 183.99,-37.5655 184.91,-30.6262"/>
</g>
</g>
</svg>
