<?xml version="1.0" encoding="UTF-8" standalone="no"?>
<!DOCTYPE svg PUBLIC "-//W3C//DTD SVG 1.1//EN"
 "http://www.w3.org/Graphics/SVG/1.1/DTD/svg11.dtd">
<!-- Generated by graphviz version 2.38.0 (20140413.2041)
 -->
<!-- Title: src.harness.reference_models.propagation.wf_hybrid.CalcHybridPropagationLoss Pages: 1 -->
<!--zoomable 134 -->
<svg id="main" version="1.1" xmlns="http://www.w3.org/2000/svg" xmlns:xlink="http://www.w3.org/1999/xlink" xml:space="preserve" onload="init(evt)">
<style type="text/css"><![CDATA[
.edge:hover path { stroke: red; }
.edge:hover polygon { stroke: red; fill: red; }
]]></style>
<script type="text/javascript"><![CDATA[
var edges = document.getElementsByTagName('g');
if (edges && edges.length) {
  for (var i=0;i<edges.length;i++) {
    if (edges[i].id.substr(0,4)=='edge') {
      edges[i].setAttribute('class','edge');
    }
  }
}
]]></script>
        <defs>
                <circle id="rim" cx="0" cy="0" r="7"/>
                <circle id="rim2" cx="0" cy="0" r="3.5"/>
                <g id="zoomPlus">
                        <use xlink:href="#rim" fill="#404040">
                                <set attributeName="fill" to="#808080" begin="zoomplus.mouseover" end="zoomplus.mouseout"/>
                        </use>
                        <path d="M-4,0h8M0,-4v8" fill="none" stroke="white" stroke-width="1.5" pointer-events="none"/>
                </g>
                <g id="zoomMin">
                        <use xlink:href="#rim" fill="#404040">
                                <set attributeName="fill" to="#808080" begin="zoomminus.mouseover" end="zoomminus.mouseout"/>
                        </use>
                        <path d="M-4,0h8" fill="none" stroke="white" stroke-width="1.5" pointer-events="none"/>
                </g>
                <g id="dirArrow">
                        <path fill="none" stroke="white" stroke-width="1.5" d="M0,-3.0v7 M-2.5,-0.5L0,-3.0L2.5,-0.5"/>
                </g>
               <g id="resetDef">
                       <use xlink:href="#rim2" fill="#404040">
                               <set attributeName="fill" to="#808080" begin="reset.mouseover" end="reset.mouseout"/>
                       </use>
               </g>
        </defs>

<script type="text/javascript">
var viewWidth = 607;
var viewHeight = 134;
var sectionId = 'dynsection-5';
</script>
<script xlink:href="../../svgpan.js"/>
<svg id="graph" class="graph">
<g id="viewport">
<title>src.harness.reference_models.propagation.wf_hybrid.CalcHybridPropagationLoss</title>
<polygon fill="white" stroke="none" points="-4,4 -4,-130 603,-130 603,4 -4,4"/>
<!-- Node1 -->
<g id="node1" class="node"><title>Node1</title>
<polygon fill="#bfbfbf" stroke="black" points="0,-60.5 0,-101.5 173,-101.5 173,-60.5 0,-60.5"/>
<text text-anchor="start" x="8" y="-89.5" font-family="Helvetica,sans-Serif" font-size="10.00">src.harness.reference</text>
<text text-anchor="start" x="8" y="-78.5" font-family="Helvetica,sans-Serif" font-size="10.00">_models.propagation.wf</text>
<text text-anchor="middle" x="86.5" y="-67.5" font-family="Helvetica,sans-Serif" font-size="10.00">_hybrid.CalcHybridPropagationLoss</text>
</g>
<!-- Node2 -->
<g id="node2" class="node"><title>Node2</title>
<g id="a_node2"><a xlink:href="../../d0/d2a/namespacesrc_1_1harness_1_1reference__models_1_1propagation_1_1wf__hybrid.html#a1af50495f7eff4abe690b49ab4fd9471" target="_top" xlink:title="src.harness.reference\l_models.propagation.wf\l_hybrid._BuildOutput">
<polygon fill="white" stroke="black" points="451.5,-84.5 451.5,-125.5 571.5,-125.5 571.5,-84.5 451.5,-84.5"/>
<text text-anchor="start" x="459.5" y="-113.5" font-family="Helvetica,sans-Serif" font-size="10.00">src.harness.reference</text>
<text text-anchor="start" x="459.5" y="-102.5" font-family="Helvetica,sans-Serif" font-size="10.00">_models.propagation.wf</text>
<text text-anchor="middle" x="511.5" y="-91.5" font-family="Helvetica,sans-Serif" font-size="10.00">_hybrid._BuildOutput</text>
</a>
</g>
</g>
<!-- Node1&#45;&gt;Node2 -->
<g id="edge1" class="edge"><title>Node1&#45;&gt;Node2</title>
<path fill="none" stroke="midnightblue" d="M158.278,-101.528C174.783,-105.461 192.392,-108.98 209,-111 288.098,-120.621 379.71,-116.681 441,-111.905"/>
<polygon fill="midnightblue" stroke="midnightblue" points="441.639,-115.365 451.324,-111.07 441.075,-108.388 441.639,-115.365"/>
</g>
<!-- Node3 -->
<g id="node3" class="node"><title>Node3</title>
<g id="a_node3"><a xlink:href="../../d0/d2a/namespacesrc_1_1harness_1_1reference__models_1_1propagation_1_1wf__hybrid.html#aacb9208411c991403d46a8ce20ede4c4" target="_top" xlink:title="src.harness.reference\l_models.propagation.wf\l_hybrid._GetMedianToMeanOffsetDb">
<polygon fill="white" stroke="black" points="209,-0.5 209,-41.5 388,-41.5 388,-0.5 209,-0.5"/>
<text text-anchor="start" x="217" y="-29.5" font-family="Helvetica,sans-Serif" font-size="10.00">src.harness.reference</text>
<text text-anchor="start" x="217" y="-18.5" font-family="Helvetica,sans-Serif" font-size="10.00">_models.propagation.wf</text>
<text text-anchor="middle" x="298.5" y="-7.5" font-family="Helvetica,sans-Serif" font-size="10.00">_hybrid._GetMedianToMeanOffsetDb</text>
</a>
</g>
</g>
<!-- Node1&#45;&gt;Node3 -->
<g id="edge2" class="edge"><title>Node1&#45;&gt;Node3</title>
<path fill="none" stroke="midnightblue" d="M159.476,-60.4353C177.676,-55.2355 197.349,-49.6147 215.982,-44.2909"/>
<polygon fill="midnightblue" stroke="midnightblue" points="216.964,-47.6504 225.618,-41.5378 215.041,-40.9197 216.964,-47.6504"/>
</g>
<!-- Node5 -->
<g id="node5" class="node"><title>Node5</title>
<g id="a_node5"><a xlink:href="../../d0/d2a/namespacesrc_1_1harness_1_1reference__models_1_1propagation_1_1wf__hybrid.html#aade312066f43309a2630490f5e1b2d7e" target="_top" xlink:title="src.harness.reference\l_models.propagation.wf\l_hybrid.CalcFreeSpaceLoss">
<polygon fill="white" stroke="black" points="228.5,-60.5 228.5,-101.5 368.5,-101.5 368.5,-60.5 228.5,-60.5"/>
<text text-anchor="start" x="236.5" y="-89.5" font-family="Helvetica,sans-Serif" font-size="10.00">src.harness.reference</text>
<text text-anchor="start" x="236.5" y="-78.5" font-family="Helvetica,sans-Serif" font-size="10.00">_models.propagation.wf</text>
<text text-anchor="middle" x="298.5" y="-67.5" font-family="Helvetica,sans-Serif" font-size="10.00">_hybrid.CalcFreeSpaceLoss</text>
</a>
</g>
</g>
<!-- Node1&#45;&gt;Node5 -->
<g id="edge4" class="edge"><title>Node1&#45;&gt;Node5</title>
<path fill="none" stroke="midnightblue" d="M173.218,-81C188.146,-81 203.612,-81 218.354,-81"/>
<polygon fill="midnightblue" stroke="midnightblue" points="218.428,-84.5001 228.428,-81 218.428,-77.5001 218.428,-84.5001"/>
</g>
<!-- Node4 -->
<g id="node4" class="node"><title>Node4</title>
<g id="a_node4"><a xlink:href="../../d0/d2a/namespacesrc_1_1harness_1_1reference__models_1_1propagation_1_1wf__hybrid.html#a707fca91e41a04886c6d95bcab3d48cd" target="_top" xlink:title="src.harness.reference\l_models.propagation.wf\l_hybrid.GetEHataStandardDeviation">
<polygon fill="white" stroke="black" points="424,-0.5 424,-41.5 599,-41.5 599,-0.5 424,-0.5"/>
<text text-anchor="start" x="432" y="-29.5" font-family="Helvetica,sans-Serif" font-size="10.00">src.harness.reference</text>
<text text-anchor="start" x="432" y="-18.5" font-family="Helvetica,sans-Serif" font-size="10.00">_models.propagation.wf</text>
<text text-anchor="middle" x="511.5" y="-7.5" font-family="Helvetica,sans-Serif" font-size="10.00">_hybrid.GetEHataStandardDeviation</text>
</a>
</g>
</g>
<!-- Node3&#45;&gt;Node4 -->
<g id="edge3" class="edge"><title>Node3&#45;&gt;Node4</title>
<path fill="none" stroke="midnightblue" d="M388.066,-21C396.577,-21 405.239,-21 413.823,-21"/>
<polygon fill="midnightblue" stroke="midnightblue" points="413.85,-24.5001 423.85,-21 413.85,-17.5001 413.85,-24.5001"/>
</g>
<!-- Node5&#45;&gt;Node2 -->
<g id="edge5" class="edge"><title>Node5&#45;&gt;Node2</title>
<path fill="none" stroke="midnightblue" d="M368.589,-88.8585C391.832,-91.5022 417.761,-94.4515 441.033,-97.0985"/>
<polygon fill="midnightblue" stroke="midnightblue" points="440.84,-100.599 451.172,-98.2518 441.632,-93.644 440.84,-100.599"/>
</g>
</g>
</svg>
        <g id="navigator" transform="translate(0 0)" fill="#404254">
                <rect fill="#f2f5e9" fill-opacity="0.5" stroke="#606060" stroke-width=".5" x="0" y="0" width="60" height="60"/>
                <use id="zoomplus" xlink:href="#zoomPlus" x="17" y="9" onmousedown="handleZoom(evt,'in')"/>
                <use id="zoomminus" xlink:href="#zoomMin" x="42" y="9" onmousedown="handleZoom(evt,'out')"/>
                <use id="reset" xlink:href="#resetDef" x="30" y="36" onmousedown="handleReset()"/>
                <g id="arrowUp" xlink:href="#dirArrow" transform="translate(30 24)" onmousedown="handlePan(0,-1)">
                  <use xlink:href="#rim" fill="#404040">
                        <set attributeName="fill" to="#808080" begin="arrowUp.mouseover" end="arrowUp.mouseout"/>
                  </use>
                  <path fill="none" stroke="white" stroke-width="1.5" d="M0,-3.0v7 M-2.5,-0.5L0,-3.0L2.5,-0.5"/>
                </g>
                <g id="arrowRight" xlink:href="#dirArrow" transform="rotate(90) translate(36 -43)" onmousedown="handlePan(1,0)">
                  <use xlink:href="#rim" fill="#404040">
                        <set attributeName="fill" to="#808080" begin="arrowRight.mouseover" end="arrowRight.mouseout"/>
                  </use>
                  <path fill="none" stroke="white" stroke-width="1.5" d="M0,-3.0v7 M-2.5,-0.5L0,-3.0L2.5,-0.5"/>
                </g>
                <g id="arrowDown" xlink:href="#dirArrow" transform="rotate(180) translate(-30 -48)" onmousedown="handlePan(0,1)">
                  <use xlink:href="#rim" fill="#404040">
                        <set attributeName="fill" to="#808080" begin="arrowDown.mouseover" end="arrowDown.mouseout"/>
                  </use>
                  <path fill="none" stroke="white" stroke-width="1.5" d="M0,-3.0v7 M-2.5,-0.5L0,-3.0L2.5,-0.5"/>
                </g>
                <g id="arrowLeft" xlink:href="#dirArrow" transform="rotate(270) translate(-36 17)" onmousedown="handlePan(-1,0)">
                  <use xlink:href="#rim" fill="#404040">
                        <set attributeName="fill" to="#808080" begin="arrowLeft.mouseover" end="arrowLeft.mouseout"/>
                  </use>
                  <path fill="none" stroke="white" stroke-width="1.5" d="M0,-3.0v7 M-2.5,-0.5L0,-3.0L2.5,-0.5"/>
                </g>
        </g>
        <svg viewBox="0 0 15 15" width="100%" height="30px" preserveAspectRatio="xMaxYMin meet">
         <g id="arrow_out" transform="scale(0.3 0.3)">
          <a xlink:href="namespacesrc_1_1harness_1_1reference__models_1_1propagation_1_1wf__hybrid_ae57c7cc8e2c27bd8aa8fe33461d984de_cgraph_org.svg" target="_base">
           <rect id="button" ry="5" rx="5" y="6" x="6" height="38" width="38"
                fill="#f2f5e9" fill-opacity="0.5" stroke="#606060" stroke-width="1.0"/>
           <path id="arrow"
             d="M 11.500037,31.436501 C 11.940474,20.09759 22.043105,11.32322 32.158766,21.979434 L 37.068811,17.246167 C 37.068811,17.246167 37.088388,32 37.088388,32 L 22.160133,31.978069 C 22.160133,31.978069 26.997745,27.140456 26.997745,27.140456 C 18.528582,18.264221 13.291696,25.230495 11.500037,31.436501 z"
             style="fill:#404040;"/>
          </a>
         </g>
        </svg>
</svg>
