<?xml version="1.0" encoding="UTF-8" standalone="no"?>
<!DOCTYPE svg PUBLIC "-//W3C//DTD SVG 1.1//EN"
 "http://www.w3.org/Graphics/SVG/1.1/DTD/svg11.dtd">
<!-- Generated by graphviz version 2.38.0 (20140413.2041)
 -->
<!-- Title: src.harness.reference_models.propagation.wf_hybrid.GetEHataStandardDeviation Pages: 1 -->
<svg width="607pt" height="50pt"
 viewBox="0.00 0.00 607.00 50.00" xmlns="http://www.w3.org/2000/svg" xmlns:xlink="http://www.w3.org/1999/xlink">
<g id="graph0" class="graph" transform="scale(1 1) rotate(0) translate(4 46)">
<title>src.harness.reference_models.propagation.wf_hybrid.GetEHataStandardDeviation</title>
<polygon fill="white" stroke="none" points="-4,4 -4,-46 603,-46 603,4 -4,4"/>
<!-- Node1 -->
<g id="node1" class="node"><title>Node1</title>
<polygon fill="#bfbfbf" stroke="black" points="0,-0.5 0,-41.5 175,-41.5 175,-0.5 0,-0.5"/>
<text text-anchor="start" x="8" y="-29.5" font-family="Helvetica,sans-Serif" font-size="10.00">src.harness.reference</text>
<text text-anchor="start" x="8" y="-18.5" font-family="Helvetica,sans-Serif" font-size="10.00">_models.propagation.wf</text>
<text text-anchor="middle" x="87.5" y="-7.5" font-family="Helvetica,sans-Serif" font-size="10.00">_hybrid.GetEHataStandardDeviation</text>
</g>
<!-- Node2 -->
<g id="node2" class="node"><title>Node2</title>
<g id="a_node2"><a xlink:href="../../d0/d2a/namespacesrc_1_1harness_1_1reference__models_1_1propagation_1_1wf__hybrid.html#aacb9208411c991403d46a8ce20ede4c4" target="_top" xlink:title="src.harness.reference\l_models.propagation.wf\l_hybrid._GetMedianToMeanOffsetDb">
<polygon fill="white" stroke="black" points="211,-0.5 211,-41.5 390,-41.5 390,-0.5 211,-0.5"/>
<text text-anchor="start" x="219" y="-29.5" font-family="Helvetica,sans-Serif" font-size="10.00">src.harness.reference</text>
<text text-anchor="start" x="219" y="-18.5" font-family="Helvetica,sans-Serif" font-size="10.00">_models.propagation.wf</text>
<text text-anchor="middle" x="300.5" y="-7.5" font-family="Helvetica,sans-Serif" font-size="10.00">_hybrid._GetMedianToMeanOffsetDb</text>
</a>
</g>
</g>
<!-- Node1&#45;&gt;Node2 -->
<g id="edge1" class="edge"><title>Node1&#45;&gt;Node2</title>
<path fill="none" stroke="midnightblue" d="M185.453,-21C193.872,-21 202.363,-21 210.712,-21"/>
<polygon fill="midnightblue" stroke="midnightblue" points="185.235,-17.5001 175.235,-21 185.235,-24.5001 185.235,-17.5001"/>
</g>
<!-- Node3 -->
<g id="node3" class="node"><title>Node3</title>
<g id="a_node3"><a xlink:href="../../d0/d2a/namespacesrc_1_1harness_1_1reference__models_1_1propagation_1_1wf__hybrid.html#ae57c7cc8e2c27bd8aa8fe33461d984de" target="_top" xlink:title="src.harness.reference\l_models.propagation.wf\l_hybrid.CalcHybridPropagationLoss">
<polygon fill="white" stroke="black" points="426,-0.5 426,-41.5 599,-41.5 599,-0.5 426,-0.5"/>
<text text-anchor="start" x="434" y="-29.5" font-family="Helvetica,sans-Serif" font-size="10.00">src.harness.reference</text>
<text text-anchor="start" x="434" y="-18.5" font-family="Helvetica,sans-Serif" font-size="10.00">_models.propagation.wf</text>
<text text-anchor="middle" x="512.5" y="-7.5" font-family="Helvetica,sans-Serif" font-size="10.00">_hybrid.CalcHybridPropagationLoss</text>
</a>
</g>
</g>
<!-- Node2&#45;&gt;Node3 -->
<g id="edge2" class="edge"><title>Node2&#45;&gt;Node3</title>
<path fill="none" stroke="midnightblue" d="M400.502,-21C408.937,-21 417.423,-21 425.742,-21"/>
<polygon fill="midnightblue" stroke="midnightblue" points="400.255,-17.5001 390.255,-21 400.254,-24.5001 400.255,-17.5001"/>
</g>
</g>
</svg>
