<?xml version="1.0" encoding="UTF-8" standalone="no"?>
<!DOCTYPE svg PUBLIC "-//W3C//DTD SVG 1.1//EN"
 "http://www.w3.org/Graphics/SVG/1.1/DTD/svg11.dtd">
<!-- Generated by graphviz version 2.38.0 (20140413.2041)
 -->
<!-- Title: src.harness.reference_models.propagation.wf_hybrid._BuildOutput Pages: 1 -->
<svg width="513pt" height="74pt"
 viewBox="0.00 0.00 513.00 74.00" xmlns="http://www.w3.org/2000/svg" xmlns:xlink="http://www.w3.org/1999/xlink">
<g id="graph0" class="graph" transform="scale(1 1) rotate(0) translate(4 70)">
<title>src.harness.reference_models.propagation.wf_hybrid._BuildOutput</title>
<polygon fill="white" stroke="none" points="-4,4 -4,-70 509,-70 509,4 -4,4"/>
<!-- Node1 -->
<g id="node1" class="node"><title>Node1</title>
<polygon fill="#bfbfbf" stroke="black" points="0,-24.5 0,-65.5 120,-65.5 120,-24.5 0,-24.5"/>
<text text-anchor="start" x="8" y="-53.5" font-family="Helvetica,sans-Serif" font-size="10.00">src.harness.reference</text>
<text text-anchor="start" x="8" y="-42.5" font-family="Helvetica,sans-Serif" font-size="10.00">_models.propagation.wf</text>
<text text-anchor="middle" x="60" y="-31.5" font-family="Helvetica,sans-Serif" font-size="10.00">_hybrid._BuildOutput</text>
</g>
<!-- Node2 -->
<g id="node2" class="node"><title>Node2</title>
<g id="a_node2"><a xlink:href="../../d0/d2a/namespacesrc_1_1harness_1_1reference__models_1_1propagation_1_1wf__hybrid.html#ae57c7cc8e2c27bd8aa8fe33461d984de" target="_top" xlink:title="src.harness.reference\l_models.propagation.wf\l_hybrid.CalcHybridPropagationLoss">
<polygon fill="white" stroke="black" points="332,-24.5 332,-65.5 505,-65.5 505,-24.5 332,-24.5"/>
<text text-anchor="start" x="340" y="-53.5" font-family="Helvetica,sans-Serif" font-size="10.00">src.harness.reference</text>
<text text-anchor="start" x="340" y="-42.5" font-family="Helvetica,sans-Serif" font-size="10.00">_models.propagation.wf</text>
<text text-anchor="middle" x="418.5" y="-31.5" font-family="Helvetica,sans-Serif" font-size="10.00">_hybrid.CalcHybridPropagationLoss</text>
</a>
</g>
</g>
<!-- Node1&#45;&gt;Node2 -->
<g id="edge1" class="edge"><title>Node1&#45;&gt;Node2</title>
<path fill="none" stroke="midnightblue" d="M130.154,-49.8782C138.852,-50.3414 147.63,-50.736 156,-51 218.191,-52.962 233.797,-52.5349 296,-51 307.612,-50.7135 319.843,-50.2731 331.89,-49.7582"/>
<polygon fill="midnightblue" stroke="midnightblue" points="130.192,-46.3749 120.011,-49.3068 129.798,-53.3638 130.192,-46.3749"/>
</g>
<!-- Node3 -->
<g id="node3" class="node"><title>Node3</title>
<g id="a_node3"><a xlink:href="../../d0/d2a/namespacesrc_1_1harness_1_1reference__models_1_1propagation_1_1wf__hybrid.html#aade312066f43309a2630490f5e1b2d7e" target="_top" xlink:title="src.harness.reference\l_models.propagation.wf\l_hybrid.CalcFreeSpaceLoss">
<polygon fill="white" stroke="black" points="156,-0.5 156,-41.5 296,-41.5 296,-0.5 156,-0.5"/>
<text text-anchor="start" x="164" y="-29.5" font-family="Helvetica,sans-Serif" font-size="10.00">src.harness.reference</text>
<text text-anchor="start" x="164" y="-18.5" font-family="Helvetica,sans-Serif" font-size="10.00">_models.propagation.wf</text>
<text text-anchor="middle" x="226" y="-7.5" font-family="Helvetica,sans-Serif" font-size="10.00">_hybrid.CalcFreeSpaceLoss</text>
</a>
</g>
</g>
<!-- Node1&#45;&gt;Node3 -->
<g id="edge2" class="edge"><title>Node1&#45;&gt;Node3</title>
<path fill="none" stroke="midnightblue" d="M130.373,-34.8479C138.801,-33.6146 147.411,-32.3545 155.835,-31.1216"/>
<polygon fill="midnightblue" stroke="midnightblue" points="129.596,-31.4243 120.208,-36.3354 130.609,-38.3505 129.596,-31.4243"/>
</g>
<!-- Node3&#45;&gt;Node2 -->
<g id="edge3" class="edge"><title>Node3&#45;&gt;Node2</title>
<path fill="none" stroke="midnightblue" d="M306.232,-30.9819C314.669,-32.0449 323.279,-33.1296 331.786,-34.2014"/>
<polygon fill="midnightblue" stroke="midnightblue" points="306.403,-27.476 296.044,-29.6985 305.528,-34.4211 306.403,-27.476"/>
</g>
</g>
</svg>
