<?xml version="1.0" encoding="UTF-8" standalone="no"?>
<!DOCTYPE svg PUBLIC "-//W3C//DTD SVG 1.1//EN"
 "http://www.w3.org/Graphics/SVG/1.1/DTD/svg11.dtd">
<!-- Generated by graphviz version 2.38.0 (20140413.2041)
 -->
<!-- Title: src.harness.reference_models.propagation.wf_hybrid.CalcHybridPropagationLoss Pages: 1 -->
<svg width="607pt" height="134pt"
 viewBox="0.00 0.00 607.00 134.00" xmlns="http://www.w3.org/2000/svg" xmlns:xlink="http://www.w3.org/1999/xlink">
<g id="graph0" class="graph" transform="scale(1 1) rotate(0) translate(4 130)">
<title>src.harness.reference_models.propagation.wf_hybrid.CalcHybridPropagationLoss</title>
<polygon fill="white" stroke="none" points="-4,4 -4,-130 603,-130 603,4 -4,4"/>
<!-- Node1 -->
<g id="node1" class="node"><title>Node1</title>
<polygon fill="#bfbfbf" stroke="black" points="0,-60.5 0,-101.5 173,-101.5 173,-60.5 0,-60.5"/>
<text text-anchor="start" x="8" y="-89.5" font-family="Helvetica,sans-Serif" font-size="10.00">src.harness.reference</text>
<text text-anchor="start" x="8" y="-78.5" font-family="Helvetica,sans-Serif" font-size="10.00">_models.propagation.wf</text>
<text text-anchor="middle" x="86.5" y="-67.5" font-family="Helvetica,sans-Serif" font-size="10.00">_hybrid.CalcHybridPropagationLoss</text>
</g>
<!-- Node2 -->
<g id="node2" class="node"><title>Node2</title>
<g id="a_node2"><a xlink:href="../../d0/d2a/namespacesrc_1_1harness_1_1reference__models_1_1propagation_1_1wf__hybrid.html#a1af50495f7eff4abe690b49ab4fd9471" target="_top" xlink:title="src.harness.reference\l_models.propagation.wf\l_hybrid._BuildOutput">
<polygon fill="white" stroke="black" points="451.5,-84.5 451.5,-125.5 571.5,-125.5 571.5,-84.5 451.5,-84.5"/>
<text text-anchor="start" x="459.5" y="-113.5" font-family="Helvetica,sans-Serif" font-size="10.00">src.harness.reference</text>
<text text-anchor="start" x="459.5" y="-102.5" font-family="Helvetica,sans-Serif" font-size="10.00">_models.propagation.wf</text>
<text text-anchor="middle" x="511.5" y="-91.5" font-family="Helvetica,sans-Serif" font-size="10.00">_hybrid._BuildOutput</text>
</a>
</g>
</g>
<!-- Node1&#45;&gt;Node2 -->
<g id="edge1" class="edge"><title>Node1&#45;&gt;Node2</title>
<path fill="none" stroke="midnightblue" d="M158.278,-101.528C174.783,-105.461 192.392,-108.98 209,-111 288.098,-120.621 379.71,-116.681 441,-111.905"/>
<polygon fill="midnightblue" stroke="midnightblue" points="441.639,-115.365 451.324,-111.07 441.075,-108.388 441.639,-115.365"/>
</g>
<!-- Node3 -->
<g id="node3" class="node"><title>Node3</title>
<g id="a_node3"><a xlink:href="../../d0/d2a/namespacesrc_1_1harness_1_1reference__models_1_1propagation_1_1wf__hybrid.html#aacb9208411c991403d46a8ce20ede4c4" target="_top" xlink:title="src.harness.reference\l_models.propagation.wf\l_hybrid._GetMedianToMeanOffsetDb">
<polygon fill="white" stroke="black" points="209,-0.5 209,-41.5 388,-41.5 388,-0.5 209,-0.5"/>
<text text-anchor="start" x="217" y="-29.5" font-family="Helvetica,sans-Serif" font-size="10.00">src.harness.reference</text>
<text text-anchor="start" x="217" y="-18.5" font-family="Helvetica,sans-Serif" font-size="10.00">_models.propagation.wf</text>
<text text-anchor="middle" x="298.5" y="-7.5" font-family="Helvetica,sans-Serif" font-size="10.00">_hybrid._GetMedianToMeanOffsetDb</text>
</a>
</g>
</g>
<!-- Node1&#45;&gt;Node3 -->
<g id="edge2" class="edge"><title>Node1&#45;&gt;Node3</title>
<path fill="none" stroke="midnightblue" d="M159.476,-60.4353C177.676,-55.2355 197.349,-49.6147 215.982,-44.2909"/>
<polygon fill="midnightblue" stroke="midnightblue" points="216.964,-47.6504 225.618,-41.5378 215.041,-40.9197 216.964,-47.6504"/>
</g>
<!-- Node5 -->
<g id="node5" class="node"><title>Node5</title>
<g id="a_node5"><a xlink:href="../../d0/d2a/namespacesrc_1_1harness_1_1reference__models_1_1propagation_1_1wf__hybrid.html#aade312066f43309a2630490f5e1b2d7e" target="_top" xlink:title="src.harness.reference\l_models.propagation.wf\l_hybrid.CalcFreeSpaceLoss">
<polygon fill="white" stroke="black" points="228.5,-60.5 228.5,-101.5 368.5,-101.5 368.5,-60.5 228.5,-60.5"/>
<text text-anchor="start" x="236.5" y="-89.5" font-family="Helvetica,sans-Serif" font-size="10.00">src.harness.reference</text>
<text text-anchor="start" x="236.5" y="-78.5" font-family="Helvetica,sans-Serif" font-size="10.00">_models.propagation.wf</text>
<text text-anchor="middle" x="298.5" y="-67.5" font-family="Helvetica,sans-Serif" font-size="10.00">_hybrid.CalcFreeSpaceLoss</text>
</a>
</g>
</g>
<!-- Node1&#45;&gt;Node5 -->
<g id="edge4" class="edge"><title>Node1&#45;&gt;Node5</title>
<path fill="none" stroke="midnightblue" d="M173.218,-81C188.146,-81 203.612,-81 218.354,-81"/>
<polygon fill="midnightblue" stroke="midnightblue" points="218.428,-84.5001 228.428,-81 218.428,-77.5001 218.428,-84.5001"/>
</g>
<!-- Node4 -->
<g id="node4" class="node"><title>Node4</title>
<g id="a_node4"><a xlink:href="../../d0/d2a/namespacesrc_1_1harness_1_1reference__models_1_1propagation_1_1wf__hybrid.html#a707fca91e41a04886c6d95bcab3d48cd" target="_top" xlink:title="src.harness.reference\l_models.propagation.wf\l_hybrid.GetEHataStandardDeviation">
<polygon fill="white" stroke="black" points="424,-0.5 424,-41.5 599,-41.5 599,-0.5 424,-0.5"/>
<text text-anchor="start" x="432" y="-29.5" font-family="Helvetica,sans-Serif" font-size="10.00">src.harness.reference</text>
<text text-anchor="start" x="432" y="-18.5" font-family="Helvetica,sans-Serif" font-size="10.00">_models.propagation.wf</text>
<text text-anchor="middle" x="511.5" y="-7.5" font-family="Helvetica,sans-Serif" font-size="10.00">_hybrid.GetEHataStandardDeviation</text>
</a>
</g>
</g>
<!-- Node3&#45;&gt;Node4 -->
<g id="edge3" class="edge"><title>Node3&#45;&gt;Node4</title>
<path fill="none" stroke="midnightblue" d="M388.066,-21C396.577,-21 405.239,-21 413.823,-21"/>
<polygon fill="midnightblue" stroke="midnightblue" points="413.85,-24.5001 423.85,-21 413.85,-17.5001 413.85,-24.5001"/>
</g>
<!-- Node5&#45;&gt;Node2 -->
<g id="edge5" class="edge"><title>Node5&#45;&gt;Node2</title>
<path fill="none" stroke="midnightblue" d="M368.589,-88.8585C391.832,-91.5022 417.761,-94.4515 441.033,-97.0985"/>
<polygon fill="midnightblue" stroke="midnightblue" points="440.84,-100.599 451.172,-98.2518 441.632,-93.644 440.84,-100.599"/>
</g>
</g>
</svg>
