<?xml version="1.0" encoding="UTF-8" standalone="no"?>
<!DOCTYPE svg PUBLIC "-//W3C//DTD SVG 1.1//EN"
 "http://www.w3.org/Graphics/SVG/1.1/DTD/svg11.dtd">
<!-- Generated by graphviz version 2.38.0 (20140413.2041)
 -->
<!-- Title: src.harness.reference_models.propagation.wf_hybrid._GetMedianToMeanOffsetDb Pages: 1 -->
<svg width="398pt" height="50pt"
 viewBox="0.00 0.00 398.00 50.00" xmlns="http://www.w3.org/2000/svg" xmlns:xlink="http://www.w3.org/1999/xlink">
<g id="graph0" class="graph" transform="scale(1 1) rotate(0) translate(4 46)">
<title>src.harness.reference_models.propagation.wf_hybrid._GetMedianToMeanOffsetDb</title>
<polygon fill="white" stroke="none" points="-4,4 -4,-46 394,-46 394,4 -4,4"/>
<!-- Node1 -->
<g id="node1" class="node"><title>Node1</title>
<polygon fill="#bfbfbf" stroke="black" points="0,-0.5 0,-41.5 179,-41.5 179,-0.5 0,-0.5"/>
<text text-anchor="start" x="8" y="-29.5" font-family="Helvetica,sans-Serif" font-size="10.00">src.harness.reference</text>
<text text-anchor="start" x="8" y="-18.5" font-family="Helvetica,sans-Serif" font-size="10.00">_models.propagation.wf</text>
<text text-anchor="middle" x="89.5" y="-7.5" font-family="Helvetica,sans-Serif" font-size="10.00">_hybrid._GetMedianToMeanOffsetDb</text>
</g>
<!-- Node2 -->
<g id="node2" class="node"><title>Node2</title>
<g id="a_node2"><a xlink:href="../../d0/d2a/namespacesrc_1_1harness_1_1reference__models_1_1propagation_1_1wf__hybrid.html#a707fca91e41a04886c6d95bcab3d48cd" target="_top" xlink:title="src.harness.reference\l_models.propagation.wf\l_hybrid.GetEHataStandardDeviation">
<polygon fill="white" stroke="black" points="215,-0.5 215,-41.5 390,-41.5 390,-0.5 215,-0.5"/>
<text text-anchor="start" x="223" y="-29.5" font-family="Helvetica,sans-Serif" font-size="10.00">src.harness.reference</text>
<text text-anchor="start" x="223" y="-18.5" font-family="Helvetica,sans-Serif" font-size="10.00">_models.propagation.wf</text>
<text text-anchor="middle" x="302.5" y="-7.5" font-family="Helvetica,sans-Serif" font-size="10.00">_hybrid.GetEHataStandardDeviation</text>
</a>
</g>
</g>
<!-- Node1&#45;&gt;Node2 -->
<g id="edge1" class="edge"><title>Node1&#45;&gt;Node2</title>
<path fill="none" stroke="midnightblue" d="M179.066,-21C187.577,-21 196.239,-21 204.823,-21"/>
<polygon fill="midnightblue" stroke="midnightblue" points="204.85,-24.5001 214.85,-21 204.85,-17.5001 204.85,-24.5001"/>
</g>
</g>
</svg>
