<?xml version="1.0" encoding="UTF-8" standalone="no"?>
<!DOCTYPE svg PUBLIC "-//W3C//DTD SVG 1.1//EN"
 "http://www.w3.org/Graphics/SVG/1.1/DTD/svg11.dtd">
<!-- Generated by graphviz version 2.38.0 (20140413.2041)
 -->
<!-- Title: verify_schema.loadJson Pages: 1 -->
<svg width="323pt" height="78pt"
 viewBox="0.00 0.00 323.00 77.50" xmlns="http://www.w3.org/2000/svg" xmlns:xlink="http://www.w3.org/1999/xlink">
<g id="graph0" class="graph" transform="scale(1 1) rotate(0) translate(4 73.5)">
<title>verify_schema.loadJson</title>
<polygon fill="white" stroke="none" points="-4,4 -4,-73.5 319,-73.5 319,4 -4,4"/>
<!-- Node1 -->
<g id="node1" class="node"><title>Node1</title>
<polygon fill="#bfbfbf" stroke="black" points="0,-28 0,-47 122,-47 122,-28 0,-28"/>
<text text-anchor="middle" x="61" y="-35" font-family="Helvetica,sans-Serif" font-size="10.00">verify_schema.loadJson</text>
</g>
<!-- Node2 -->
<g id="node2" class="node"><title>Node2</title>
<g id="a_node2"><a xlink:href="../../df/d78/namespaceverify__schema.html#ad1e692044cd67467b898153b145ef7ca" target="_top" xlink:title="verify_schema.testJsonSchema">
<polygon fill="white" stroke="black" points="158,-50 158,-69 315,-69 315,-50 158,-50"/>
<text text-anchor="middle" x="236.5" y="-57" font-family="Helvetica,sans-Serif" font-size="10.00">verify_schema.testJsonSchema</text>
</a>
</g>
</g>
<!-- Node1&#45;&gt;Node2 -->
<g id="edge1" class="edge"><title>Node1&#45;&gt;Node2</title>
<path fill="none" stroke="midnightblue" d="M132.168,-46.3974C141.475,-47.5775 151.046,-48.7911 160.431,-49.9812"/>
<polygon fill="midnightblue" stroke="midnightblue" points="132.556,-42.9186 122.195,-45.1328 131.675,-49.863 132.556,-42.9186"/>
</g>
<!-- Node3 -->
<g id="node3" class="node"><title>Node3</title>
<g id="a_node3"><a xlink:href="../../df/d78/namespaceverify__schema.html#a377c7554bb570b41d396098ad315aac4" target="_top" xlink:title="verify_schema.testJsonSchema\lObject">
<polygon fill="white" stroke="black" points="158,-0.5 158,-30.5 315,-30.5 315,-0.5 158,-0.5"/>
<text text-anchor="start" x="166" y="-18.5" font-family="Helvetica,sans-Serif" font-size="10.00">verify_schema.testJsonSchema</text>
<text text-anchor="middle" x="236.5" y="-7.5" font-family="Helvetica,sans-Serif" font-size="10.00">Object</text>
</a>
</g>
</g>
<!-- Node1&#45;&gt;Node3 -->
<g id="edge2" class="edge"><title>Node1&#45;&gt;Node3</title>
<path fill="none" stroke="midnightblue" d="M132.362,-28.578C140.803,-27.5077 149.458,-26.4102 157.993,-25.328"/>
<polygon fill="midnightblue" stroke="midnightblue" points="131.675,-25.137 122.195,-29.8672 132.556,-32.0814 131.675,-25.137"/>
</g>
</g>
</svg>
