<?xml version="1.0" encoding="UTF-8" standalone="no"?>
<!DOCTYPE svg PUBLIC "-//W3C//DTD SVG 1.1//EN"
 "http://www.w3.org/Graphics/SVG/1.1/DTD/svg11.dtd">
<!-- Generated by graphviz version 2.38.0 (20140413.2041)
 -->
<!-- Title: verify_schema.testJsonSchema Pages: 1 -->
<svg width="338pt" height="66pt"
 viewBox="0.00 0.00 338.00 66.00" xmlns="http://www.w3.org/2000/svg" xmlns:xlink="http://www.w3.org/1999/xlink">
<g id="graph0" class="graph" transform="scale(1 1) rotate(0) translate(4 62)">
<title>verify_schema.testJsonSchema</title>
<polygon fill="white" stroke="none" points="-4,4 -4,-62 334,-62 334,4 -4,4"/>
<!-- Node1 -->
<g id="node1" class="node"><title>Node1</title>
<polygon fill="#bfbfbf" stroke="black" points="0,-19.5 0,-38.5 157,-38.5 157,-19.5 0,-19.5"/>
<text text-anchor="middle" x="78.5" y="-26.5" font-family="Helvetica,sans-Serif" font-size="10.00">verify_schema.testJsonSchema</text>
</g>
<!-- Node2 -->
<g id="node2" class="node"><title>Node2</title>
<g id="a_node2"><a xlink:href="../../df/d78/namespaceverify__schema.html#af5b53b13f3db8adf1b6e89d52858a061" target="_top" xlink:title="verify_schema.loadSchema">
<polygon fill="white" stroke="black" points="193,-38.5 193,-57.5 330,-57.5 330,-38.5 193,-38.5"/>
<text text-anchor="middle" x="261.5" y="-45.5" font-family="Helvetica,sans-Serif" font-size="10.00">verify_schema.loadSchema</text>
</a>
</g>
</g>
<!-- Node1&#45;&gt;Node2 -->
<g id="edge1" class="edge"><title>Node1&#45;&gt;Node2</title>
<path fill="none" stroke="midnightblue" d="M157.048,-37.1404C165.6,-38.0381 174.309,-38.9523 182.861,-39.8501"/>
<polygon fill="midnightblue" stroke="midnightblue" points="182.5,-43.3313 192.811,-40.8945 183.231,-36.3695 182.5,-43.3313"/>
</g>
<!-- Node3 -->
<g id="node3" class="node"><title>Node3</title>
<g id="a_node3"><a xlink:href="../../df/d78/namespaceverify__schema.html#a1218d2450ec6f69213399ff0a511e499" target="_top" xlink:title="verify_schema.loadJson">
<polygon fill="white" stroke="black" points="200.5,-0.5 200.5,-19.5 322.5,-19.5 322.5,-0.5 200.5,-0.5"/>
<text text-anchor="middle" x="261.5" y="-7.5" font-family="Helvetica,sans-Serif" font-size="10.00">verify_schema.loadJson</text>
</a>
</g>
</g>
<!-- Node1&#45;&gt;Node3 -->
<g id="edge2" class="edge"><title>Node1&#45;&gt;Node3</title>
<path fill="none" stroke="midnightblue" d="M157.048,-20.8596C168.028,-19.7071 179.267,-18.5272 190.101,-17.3899"/>
<polygon fill="midnightblue" stroke="midnightblue" points="190.763,-20.8398 200.343,-16.3148 190.032,-13.878 190.763,-20.8398"/>
</g>
</g>
</svg>
