<?xml version="1.0" encoding="UTF-8" standalone="no"?>
<!DOCTYPE svg PUBLIC "-//W3C//DTD SVG 1.1//EN"
 "http://www.w3.org/Graphics/SVG/1.1/DTD/svg11.dtd">
<!-- Generated by graphviz version 2.38.0 (20140413.2041)
 -->
<!-- Title: verify_schema.loadSchema Pages: 1 -->
<svg width="338pt" height="78pt"
 viewBox="0.00 0.00 338.00 77.50" xmlns="http://www.w3.org/2000/svg" xmlns:xlink="http://www.w3.org/1999/xlink">
<g id="graph0" class="graph" transform="scale(1 1) rotate(0) translate(4 73.5)">
<title>verify_schema.loadSchema</title>
<polygon fill="white" stroke="none" points="-4,4 -4,-73.5 334,-73.5 334,4 -4,4"/>
<!-- Node1 -->
<g id="node1" class="node"><title>Node1</title>
<polygon fill="#bfbfbf" stroke="black" points="0,-28 0,-47 137,-47 137,-28 0,-28"/>
<text text-anchor="middle" x="68.5" y="-35" font-family="Helvetica,sans-Serif" font-size="10.00">verify_schema.loadSchema</text>
</g>
<!-- Node2 -->
<g id="node2" class="node"><title>Node2</title>
<g id="a_node2"><a xlink:href="../../df/d78/namespaceverify__schema.html#ad1e692044cd67467b898153b145ef7ca" target="_top" xlink:title="verify_schema.testJsonSchema">
<polygon fill="white" stroke="black" points="173,-50 173,-69 330,-69 330,-50 173,-50"/>
<text text-anchor="middle" x="251.5" y="-57" font-family="Helvetica,sans-Serif" font-size="10.00">verify_schema.testJsonSchema</text>
</a>
</g>
</g>
<!-- Node1&#45;&gt;Node2 -->
<g id="edge1" class="edge"><title>Node1&#45;&gt;Node2</title>
<path fill="none" stroke="midnightblue" d="M147.092,-46.9311C155.635,-47.9694 164.333,-49.0267 172.876,-50.065"/>
<polygon fill="midnightblue" stroke="midnightblue" points="147.504,-43.4555 137.155,-45.7233 146.66,-50.4044 147.504,-43.4555"/>
</g>
<!-- Node3 -->
<g id="node3" class="node"><title>Node3</title>
<g id="a_node3"><a xlink:href="../../df/d78/namespaceverify__schema.html#a377c7554bb570b41d396098ad315aac4" target="_top" xlink:title="verify_schema.testJsonSchema\lObject">
<polygon fill="white" stroke="black" points="173,-0.5 173,-30.5 330,-30.5 330,-0.5 173,-0.5"/>
<text text-anchor="start" x="181" y="-18.5" font-family="Helvetica,sans-Serif" font-size="10.00">verify_schema.testJsonSchema</text>
<text text-anchor="middle" x="251.5" y="-7.5" font-family="Helvetica,sans-Serif" font-size="10.00">Object</text>
</a>
</g>
</g>
<!-- Node1&#45;&gt;Node3 -->
<g id="edge2" class="edge"><title>Node1&#45;&gt;Node3</title>
<path fill="none" stroke="midnightblue" d="M147.092,-28.0689C155.635,-27.0306 164.333,-25.9733 172.876,-24.935"/>
<polygon fill="midnightblue" stroke="midnightblue" points="146.66,-24.5956 137.155,-29.2767 147.504,-31.5445 146.66,-24.5956"/>
</g>
</g>
</svg>
