<?xml version="1.0" encoding="UTF-8" standalone="no"?>
<!DOCTYPE svg PUBLIC "-//W3C//DTD SVG 1.1//EN"
 "http://www.w3.org/Graphics/SVG/1.1/DTD/svg11.dtd">
<!-- Generated by graphviz version 2.38.0 (20140413.2041)
 -->
<!-- Title: src.harness.security_testcase.SecurityTestCase.SasReset Pages: 1 -->
<svg width="597pt" height="590pt"
 viewBox="0.00 0.00 597.00 590.00" xmlns="http://www.w3.org/2000/svg" xmlns:xlink="http://www.w3.org/1999/xlink">
<g id="graph0" class="graph" transform="scale(1 1) rotate(0) translate(4 586)">
<title>src.harness.security_testcase.SecurityTestCase.SasReset</title>
<polygon fill="white" stroke="none" points="-4,4 -4,-586 593,-586 593,4 -4,4"/>
<!-- Node1 -->
<g id="node1" class="node"><title>Node1</title>
<polygon fill="#bfbfbf" stroke="black" points="0,-270.5 0,-311.5 144,-311.5 144,-270.5 0,-270.5"/>
<text text-anchor="start" x="8" y="-299.5" font-family="Helvetica,sans-Serif" font-size="10.00">src.harness.security</text>
<text text-anchor="start" x="8" y="-288.5" font-family="Helvetica,sans-Serif" font-size="10.00">_testcase.SecurityTestCase.</text>
<text text-anchor="middle" x="72" y="-277.5" font-family="Helvetica,sans-Serif" font-size="10.00">SasReset</text>
</g>
<!-- Node2 -->
<g id="node2" class="node"><title>Node2</title>
<g id="a_node2"><a xlink:href="../../db/df9/classsrc_1_1harness_1_1security__testcase_1_1SecurityTestCase.html#ae4503f0701e9fa5758f44cd21f8160f5" target="_top" xlink:title="src.harness.security\l_testcase.SecurityTestCase.do\lTestCipher">
<polygon fill="white" stroke="black" points="180,-270.5 180,-311.5 335,-311.5 335,-270.5 180,-270.5"/>
<text text-anchor="start" x="188" y="-299.5" font-family="Helvetica,sans-Serif" font-size="10.00">src.harness.security</text>
<text text-anchor="start" x="188" y="-288.5" font-family="Helvetica,sans-Serif" font-size="10.00">_testcase.SecurityTestCase.do</text>
<text text-anchor="middle" x="257.5" y="-277.5" font-family="Helvetica,sans-Serif" font-size="10.00">TestCipher</text>
</a>
</g>
</g>
<!-- Node1&#45;&gt;Node2 -->
<g id="edge1" class="edge"><title>Node1&#45;&gt;Node2</title>
<path fill="none" stroke="midnightblue" d="M154.441,-291C162.893,-291 171.464,-291 179.861,-291"/>
<polygon fill="midnightblue" stroke="midnightblue" points="154.209,-287.5 144.209,-291 154.208,-294.5 154.209,-287.5"/>
</g>
<!-- Node3 -->
<g id="node3" class="node"><title>Node3</title>
<g id="a_node3"><a xlink:href="../../da/d08/classsrc_1_1harness_1_1testcases_1_1WINNF__FT__S__SCS__testcase_1_1SasCbsdSecurityTestcase.html#a9be08abb1cd25ad40d9deecdb05dcede" target="_top" xlink:title="src.harness.testcases.WINNF\l_FT_S_SCS_testcase.SasCbsdSecurity\lTestcase.test_WINNF_FT_S_SCS_1">
<polygon fill="white" stroke="black" points="383,-540.5 383,-581.5 577,-581.5 577,-540.5 383,-540.5"/>
<text text-anchor="start" x="391" y="-569.5" font-family="Helvetica,sans-Serif" font-size="10.00">src.harness.testcases.WINNF</text>
<text text-anchor="start" x="391" y="-558.5" font-family="Helvetica,sans-Serif" font-size="10.00">_FT_S_SCS_testcase.SasCbsdSecurity</text>
<text text-anchor="middle" x="480" y="-547.5" font-family="Helvetica,sans-Serif" font-size="10.00">Testcase.test_WINNF_FT_S_SCS_1</text>
</a>
</g>
</g>
<!-- Node2&#45;&gt;Node3 -->
<g id="edge2" class="edge"><title>Node2&#45;&gt;Node3</title>
<path fill="none" stroke="midnightblue" d="M264.256,-321.649C275.485,-372.792 305.213,-475.397 371,-531 375.161,-534.517 379.705,-537.624 384.496,-540.368"/>
<polygon fill="midnightblue" stroke="midnightblue" points="267.616,-320.618 262.134,-311.552 260.765,-322.058 267.616,-320.618"/>
</g>
<!-- Node4 -->
<g id="node4" class="node"><title>Node4</title>
<g id="a_node4"><a xlink:href="../../da/d08/classsrc_1_1harness_1_1testcases_1_1WINNF__FT__S__SCS__testcase_1_1SasCbsdSecurityTestcase.html#a9a24b10eaed496d910bc1e75539823cc" target="_top" xlink:title="src.harness.testcases.WINNF\l_FT_S_SCS_testcase.SasCbsdSecurity\lTestcase.test_WINNF_FT_S_SCS_2">
<polygon fill="white" stroke="black" points="383,-480.5 383,-521.5 577,-521.5 577,-480.5 383,-480.5"/>
<text text-anchor="start" x="391" y="-509.5" font-family="Helvetica,sans-Serif" font-size="10.00">src.harness.testcases.WINNF</text>
<text text-anchor="start" x="391" y="-498.5" font-family="Helvetica,sans-Serif" font-size="10.00">_FT_S_SCS_testcase.SasCbsdSecurity</text>
<text text-anchor="middle" x="480" y="-487.5" font-family="Helvetica,sans-Serif" font-size="10.00">Testcase.test_WINNF_FT_S_SCS_2</text>
</a>
</g>
</g>
<!-- Node2&#45;&gt;Node4 -->
<g id="edge3" class="edge"><title>Node2&#45;&gt;Node4</title>
<path fill="none" stroke="midnightblue" d="M269.348,-321.323C285.32,-361.6 319.015,-432.168 371,-471 375.755,-474.552 380.91,-477.683 386.302,-480.444"/>
<polygon fill="midnightblue" stroke="midnightblue" points="272.53,-319.846 265.669,-311.773 265.998,-322.363 272.53,-319.846"/>
</g>
<!-- Node5 -->
<g id="node5" class="node"><title>Node5</title>
<g id="a_node5"><a xlink:href="../../da/d08/classsrc_1_1harness_1_1testcases_1_1WINNF__FT__S__SCS__testcase_1_1SasCbsdSecurityTestcase.html#ac71116f6a9b86f82473e4deb4a95ea06" target="_top" xlink:title="src.harness.testcases.WINNF\l_FT_S_SCS_testcase.SasCbsdSecurity\lTestcase.test_WINNF_FT_S_SCS_3">
<polygon fill="white" stroke="black" points="383,-420.5 383,-461.5 577,-461.5 577,-420.5 383,-420.5"/>
<text text-anchor="start" x="391" y="-449.5" font-family="Helvetica,sans-Serif" font-size="10.00">src.harness.testcases.WINNF</text>
<text text-anchor="start" x="391" y="-438.5" font-family="Helvetica,sans-Serif" font-size="10.00">_FT_S_SCS_testcase.SasCbsdSecurity</text>
<text text-anchor="middle" x="480" y="-427.5" font-family="Helvetica,sans-Serif" font-size="10.00">Testcase.test_WINNF_FT_S_SCS_3</text>
</a>
</g>
</g>
<!-- Node2&#45;&gt;Node5 -->
<g id="edge4" class="edge"><title>Node2&#45;&gt;Node5</title>
<path fill="none" stroke="midnightblue" d="M278.401,-320.068C298.632,-347.447 332.422,-387.649 371,-411 376.827,-414.527 383.079,-417.65 389.531,-420.414"/>
<polygon fill="midnightblue" stroke="midnightblue" points="281.019,-317.715 272.321,-311.666 275.349,-321.819 281.019,-317.715"/>
</g>
<!-- Node6 -->
<g id="node6" class="node"><title>Node6</title>
<g id="a_node6"><a xlink:href="../../da/d08/classsrc_1_1harness_1_1testcases_1_1WINNF__FT__S__SCS__testcase_1_1SasCbsdSecurityTestcase.html#ac6c3476e4632ab71aac6aae3ba7e29b4" target="_top" xlink:title="src.harness.testcases.WINNF\l_FT_S_SCS_testcase.SasCbsdSecurity\lTestcase.test_WINNF_FT_S_SCS_4">
<polygon fill="white" stroke="black" points="383,-360.5 383,-401.5 577,-401.5 577,-360.5 383,-360.5"/>
<text text-anchor="start" x="391" y="-389.5" font-family="Helvetica,sans-Serif" font-size="10.00">src.harness.testcases.WINNF</text>
<text text-anchor="start" x="391" y="-378.5" font-family="Helvetica,sans-Serif" font-size="10.00">_FT_S_SCS_testcase.SasCbsdSecurity</text>
<text text-anchor="middle" x="480" y="-367.5" font-family="Helvetica,sans-Serif" font-size="10.00">Testcase.test_WINNF_FT_S_SCS_4</text>
</a>
</g>
</g>
<!-- Node2&#45;&gt;Node6 -->
<g id="edge5" class="edge"><title>Node2&#45;&gt;Node6</title>
<path fill="none" stroke="midnightblue" d="M301.323,-316.695C321.888,-328.285 347.189,-341.477 371,-351 379.492,-354.396 388.506,-357.557 397.565,-360.453"/>
<polygon fill="midnightblue" stroke="midnightblue" points="302.945,-313.59 292.525,-311.672 299.474,-319.669 302.945,-313.59"/>
</g>
<!-- Node7 -->
<g id="node7" class="node"><title>Node7</title>
<g id="a_node7"><a xlink:href="../../da/d08/classsrc_1_1harness_1_1testcases_1_1WINNF__FT__S__SCS__testcase_1_1SasCbsdSecurityTestcase.html#a056c5b611a63d4c3a90816e893c152b8" target="_top" xlink:title="src.harness.testcases.WINNF\l_FT_S_SCS_testcase.SasCbsdSecurity\lTestcase.test_WINNF_FT_S_SCS_5">
<polygon fill="white" stroke="black" points="383,-300.5 383,-341.5 577,-341.5 577,-300.5 383,-300.5"/>
<text text-anchor="start" x="391" y="-329.5" font-family="Helvetica,sans-Serif" font-size="10.00">src.harness.testcases.WINNF</text>
<text text-anchor="start" x="391" y="-318.5" font-family="Helvetica,sans-Serif" font-size="10.00">_FT_S_SCS_testcase.SasCbsdSecurity</text>
<text text-anchor="middle" x="480" y="-307.5" font-family="Helvetica,sans-Serif" font-size="10.00">Testcase.test_WINNF_FT_S_SCS_5</text>
</a>
</g>
</g>
<!-- Node2&#45;&gt;Node7 -->
<g id="edge6" class="edge"><title>Node2&#45;&gt;Node7</title>
<path fill="none" stroke="midnightblue" d="M345.249,-302.803C357.581,-304.48 370.324,-306.214 382.822,-307.915"/>
<polygon fill="midnightblue" stroke="midnightblue" points="345.382,-299.289 335.001,-301.408 344.438,-306.225 345.382,-299.289"/>
</g>
<!-- Node8 -->
<g id="node8" class="node"><title>Node8</title>
<g id="a_node8"><a xlink:href="../../d5/daa/classsrc_1_1harness_1_1testcases_1_1WINNF__FT__S__SDS__testcase_1_1SasDomainProxySecurityTestcase.html#aeb94e52f79acf12df9d5bce15edfabe1" target="_top" xlink:title="src.harness.testcases.WINNF\l_FT_S_SDS_testcase.SasDomainProxy\lSecurityTestcase.test_WINNF_FT_S_SDS_1">
<polygon fill="white" stroke="black" points="371,-240.5 371,-281.5 589,-281.5 589,-240.5 371,-240.5"/>
<text text-anchor="start" x="379" y="-269.5" font-family="Helvetica,sans-Serif" font-size="10.00">src.harness.testcases.WINNF</text>
<text text-anchor="start" x="379" y="-258.5" font-family="Helvetica,sans-Serif" font-size="10.00">_FT_S_SDS_testcase.SasDomainProxy</text>
<text text-anchor="middle" x="480" y="-247.5" font-family="Helvetica,sans-Serif" font-size="10.00">SecurityTestcase.test_WINNF_FT_S_SDS_1</text>
</a>
</g>
</g>
<!-- Node2&#45;&gt;Node8 -->
<g id="edge7" class="edge"><title>Node2&#45;&gt;Node8</title>
<path fill="none" stroke="midnightblue" d="M345.156,-279.21C353.571,-278.065 362.179,-276.894 370.77,-275.725"/>
<polygon fill="midnightblue" stroke="midnightblue" points="344.438,-275.775 335.001,-280.592 345.382,-282.711 344.438,-275.775"/>
</g>
<!-- Node9 -->
<g id="node9" class="node"><title>Node9</title>
<g id="a_node9"><a xlink:href="../../d5/daa/classsrc_1_1harness_1_1testcases_1_1WINNF__FT__S__SDS__testcase_1_1SasDomainProxySecurityTestcase.html#ab12185b93c8848ad3b533faa7b0e3384" target="_top" xlink:title="src.harness.testcases.WINNF\l_FT_S_SDS_testcase.SasDomainProxy\lSecurityTestcase.test_WINNF_FT_S_SDS_2">
<polygon fill="white" stroke="black" points="371,-180.5 371,-221.5 589,-221.5 589,-180.5 371,-180.5"/>
<text text-anchor="start" x="379" y="-209.5" font-family="Helvetica,sans-Serif" font-size="10.00">src.harness.testcases.WINNF</text>
<text text-anchor="start" x="379" y="-198.5" font-family="Helvetica,sans-Serif" font-size="10.00">_FT_S_SDS_testcase.SasDomainProxy</text>
<text text-anchor="middle" x="480" y="-187.5" font-family="Helvetica,sans-Serif" font-size="10.00">SecurityTestcase.test_WINNF_FT_S_SDS_2</text>
</a>
</g>
</g>
<!-- Node2&#45;&gt;Node9 -->
<g id="edge8" class="edge"><title>Node2&#45;&gt;Node9</title>
<path fill="none" stroke="midnightblue" d="M301.323,-265.305C321.888,-253.715 347.189,-240.523 371,-231 379.492,-227.604 388.506,-224.443 397.565,-221.547"/>
<polygon fill="midnightblue" stroke="midnightblue" points="299.474,-262.331 292.525,-270.328 302.945,-268.41 299.474,-262.331"/>
</g>
<!-- Node10 -->
<g id="node10" class="node"><title>Node10</title>
<g id="a_node10"><a xlink:href="../../d5/daa/classsrc_1_1harness_1_1testcases_1_1WINNF__FT__S__SDS__testcase_1_1SasDomainProxySecurityTestcase.html#afb3254f37aefa5cdd6c41cb825c597d8" target="_top" xlink:title="src.harness.testcases.WINNF\l_FT_S_SDS_testcase.SasDomainProxy\lSecurityTestcase.test_WINNF_FT_S_SDS_3">
<polygon fill="white" stroke="black" points="371,-120.5 371,-161.5 589,-161.5 589,-120.5 371,-120.5"/>
<text text-anchor="start" x="379" y="-149.5" font-family="Helvetica,sans-Serif" font-size="10.00">src.harness.testcases.WINNF</text>
<text text-anchor="start" x="379" y="-138.5" font-family="Helvetica,sans-Serif" font-size="10.00">_FT_S_SDS_testcase.SasDomainProxy</text>
<text text-anchor="middle" x="480" y="-127.5" font-family="Helvetica,sans-Serif" font-size="10.00">SecurityTestcase.test_WINNF_FT_S_SDS_3</text>
</a>
</g>
</g>
<!-- Node2&#45;&gt;Node10 -->
<g id="edge9" class="edge"><title>Node2&#45;&gt;Node10</title>
<path fill="none" stroke="midnightblue" d="M278.401,-261.932C298.632,-234.553 332.422,-194.351 371,-171 376.827,-167.473 383.079,-164.35 389.531,-161.586"/>
<polygon fill="midnightblue" stroke="midnightblue" points="275.349,-260.181 272.321,-270.334 281.019,-264.285 275.349,-260.181"/>
</g>
<!-- Node11 -->
<g id="node11" class="node"><title>Node11</title>
<g id="a_node11"><a xlink:href="../../d5/daa/classsrc_1_1harness_1_1testcases_1_1WINNF__FT__S__SDS__testcase_1_1SasDomainProxySecurityTestcase.html#aa6ca4d198dd5378006c9b8297e41c510" target="_top" xlink:title="src.harness.testcases.WINNF\l_FT_S_SDS_testcase.SasDomainProxy\lSecurityTestcase.test_WINNF_FT_S_SDS_4">
<polygon fill="white" stroke="black" points="371,-60.5 371,-101.5 589,-101.5 589,-60.5 371,-60.5"/>
<text text-anchor="start" x="379" y="-89.5" font-family="Helvetica,sans-Serif" font-size="10.00">src.harness.testcases.WINNF</text>
<text text-anchor="start" x="379" y="-78.5" font-family="Helvetica,sans-Serif" font-size="10.00">_FT_S_SDS_testcase.SasDomainProxy</text>
<text text-anchor="middle" x="480" y="-67.5" font-family="Helvetica,sans-Serif" font-size="10.00">SecurityTestcase.test_WINNF_FT_S_SDS_4</text>
</a>
</g>
</g>
<!-- Node2&#45;&gt;Node11 -->
<g id="edge10" class="edge"><title>Node2&#45;&gt;Node11</title>
<path fill="none" stroke="midnightblue" d="M269.348,-260.677C285.32,-220.4 319.015,-149.832 371,-111 375.755,-107.448 380.91,-104.317 386.302,-101.556"/>
<polygon fill="midnightblue" stroke="midnightblue" points="265.998,-259.637 265.669,-270.227 272.53,-262.154 265.998,-259.637"/>
</g>
<!-- Node12 -->
<g id="node12" class="node"><title>Node12</title>
<g id="a_node12"><a xlink:href="../../d5/daa/classsrc_1_1harness_1_1testcases_1_1WINNF__FT__S__SDS__testcase_1_1SasDomainProxySecurityTestcase.html#a6f4d7fe04de9d6796d6f3ce0d7f67f89" target="_top" xlink:title="src.harness.testcases.WINNF\l_FT_S_SDS_testcase.SasDomainProxy\lSecurityTestcase.test_WINNF_FT_S_SDS_5">
<polygon fill="white" stroke="black" points="371,-0.5 371,-41.5 589,-41.5 589,-0.5 371,-0.5"/>
<text text-anchor="start" x="379" y="-29.5" font-family="Helvetica,sans-Serif" font-size="10.00">src.harness.testcases.WINNF</text>
<text text-anchor="start" x="379" y="-18.5" font-family="Helvetica,sans-Serif" font-size="10.00">_FT_S_SDS_testcase.SasDomainProxy</text>
<text text-anchor="middle" x="480" y="-7.5" font-family="Helvetica,sans-Serif" font-size="10.00">SecurityTestcase.test_WINNF_FT_S_SDS_5</text>
</a>
</g>
</g>
<!-- Node2&#45;&gt;Node12 -->
<g id="edge11" class="edge"><title>Node2&#45;&gt;Node12</title>
<path fill="none" stroke="midnightblue" d="M264.256,-260.351C275.485,-209.208 305.213,-106.603 371,-51 375.161,-47.4827 379.705,-44.3759 384.496,-41.632"/>
<polygon fill="midnightblue" stroke="midnightblue" points="260.765,-259.942 262.134,-270.448 267.616,-261.382 260.765,-259.942"/>
</g>
</g>
</svg>
