<?xml version="1.0" encoding="UTF-8" standalone="no"?>
<!DOCTYPE svg PUBLIC "-//W3C//DTD SVG 1.1//EN"
 "http://www.w3.org/Graphics/SVG/1.1/DTD/svg11.dtd">
<!-- Generated by graphviz version 2.38.0 (20140413.2041)
 -->
<!-- Title: src.harness.security_testcase.SecurityTestCase.doTestCipher Pages: 1 -->
<svg width="615pt" height="164pt"
 viewBox="0.00 0.00 615.00 164.00" xmlns="http://www.w3.org/2000/svg" xmlns:xlink="http://www.w3.org/1999/xlink">
<g id="graph0" class="graph" transform="scale(1 1) rotate(0) translate(4 160)">
<title>src.harness.security_testcase.SecurityTestCase.doTestCipher</title>
<polygon fill="white" stroke="none" points="-4,4 -4,-160 611,-160 611,4 -4,4"/>
<!-- Node1 -->
<g id="node1" class="node"><title>Node1</title>
<polygon fill="#bfbfbf" stroke="black" points="0,-54.5 0,-95.5 155,-95.5 155,-54.5 0,-54.5"/>
<text text-anchor="start" x="8" y="-83.5" font-family="Helvetica,sans-Serif" font-size="10.00">src.harness.security</text>
<text text-anchor="start" x="8" y="-72.5" font-family="Helvetica,sans-Serif" font-size="10.00">_testcase.SecurityTestCase.do</text>
<text text-anchor="middle" x="77.5" y="-61.5" font-family="Helvetica,sans-Serif" font-size="10.00">TestCipher</text>
</g>
<!-- Node2 -->
<g id="node2" class="node"><title>Node2</title>
<g id="a_node2"><a xlink:href="../../db/df9/classsrc_1_1harness_1_1security__testcase_1_1SecurityTestCase.html#a39567813af1d6b1ad22f3e06301f1d8d" target="_top" xlink:title="src.harness.security\l_testcase.SecurityTestCase.assert\lTlsHandshakeSucceed">
<polygon fill="white" stroke="black" points="200.5,-114.5 200.5,-155.5 371.5,-155.5 371.5,-114.5 200.5,-114.5"/>
<text text-anchor="start" x="208.5" y="-143.5" font-family="Helvetica,sans-Serif" font-size="10.00">src.harness.security</text>
<text text-anchor="start" x="208.5" y="-132.5" font-family="Helvetica,sans-Serif" font-size="10.00">_testcase.SecurityTestCase.assert</text>
<text text-anchor="middle" x="286" y="-121.5" font-family="Helvetica,sans-Serif" font-size="10.00">TlsHandshakeSucceed</text>
</a>
</g>
</g>
<!-- Node1&#45;&gt;Node2 -->
<g id="edge1" class="edge"><title>Node1&#45;&gt;Node2</title>
<path fill="none" stroke="midnightblue" d="M149.277,-95.5647C167.091,-100.741 186.34,-106.334 204.588,-111.636"/>
<polygon fill="midnightblue" stroke="midnightblue" points="203.736,-115.033 214.316,-114.462 205.69,-108.311 203.736,-115.033"/>
</g>
<!-- Node3 -->
<g id="node3" class="node"><title>Node3</title>
<g id="a_node3"><a xlink:href="../../db/df9/classsrc_1_1harness_1_1security__testcase_1_1SecurityTestCase.html#af1e403d01b8ebf0efdb941907e9f4375" target="_top" xlink:title="src.harness.security\l_testcase.SecurityTestCase.\lSasReset">
<polygon fill="white" stroke="black" points="214,-54.5 214,-95.5 358,-95.5 358,-54.5 214,-54.5"/>
<text text-anchor="start" x="222" y="-83.5" font-family="Helvetica,sans-Serif" font-size="10.00">src.harness.security</text>
<text text-anchor="start" x="222" y="-72.5" font-family="Helvetica,sans-Serif" font-size="10.00">_testcase.SecurityTestCase.</text>
<text text-anchor="middle" x="286" y="-61.5" font-family="Helvetica,sans-Serif" font-size="10.00">SasReset</text>
</a>
</g>
</g>
<!-- Node1&#45;&gt;Node3 -->
<g id="edge2" class="edge"><title>Node1&#45;&gt;Node3</title>
<path fill="none" stroke="midnightblue" d="M155.1,-75C170.918,-75 187.632,-75 203.613,-75"/>
<polygon fill="midnightblue" stroke="midnightblue" points="203.993,-78.5001 213.993,-75 203.993,-71.5001 203.993,-78.5001"/>
</g>
<!-- Node4 -->
<g id="node4" class="node"><title>Node4</title>
<g id="a_node4"><a xlink:href="../../df/ded/classsrc_1_1harness_1_1sas__interface_1_1SasTestcaseInterface.html#ae5fdeb19b3235937e0fe9b447297f7ec" target="_top" xlink:title="src.harness.sas_interface.\lSasTestcaseInterface.assertRegistered">
<polygon fill="white" stroke="black" points="191,-6 191,-36 381,-36 381,-6 191,-6"/>
<text text-anchor="start" x="199" y="-24" font-family="Helvetica,sans-Serif" font-size="10.00">src.harness.sas_interface.</text>
<text text-anchor="middle" x="286" y="-13" font-family="Helvetica,sans-Serif" font-size="10.00">SasTestcaseInterface.assertRegistered</text>
</a>
</g>
</g>
<!-- Node1&#45;&gt;Node4 -->
<g id="edge3" class="edge"><title>Node1&#45;&gt;Node4</title>
<path fill="none" stroke="midnightblue" d="M155.024,-54.4768C167.058,-51.2832 179.363,-48.0372 191,-45 199.082,-42.8906 207.561,-40.6978 215.979,-38.5331"/>
<polygon fill="midnightblue" stroke="midnightblue" points="216.99,-41.8872 225.806,-36.0114 215.25,-35.1069 216.99,-41.8872"/>
</g>
<!-- Node5 -->
<g id="node5" class="node"><title>Node5</title>
<g id="a_node5"><a xlink:href="../../df/ded/classsrc_1_1harness_1_1sas__interface_1_1SasTestcaseInterface.html#a36b0593c135c9f69cba9eb4b359bdfa2" target="_top" xlink:title="src.harness.sas_interface.\lSasTestcaseInterface.assertRegistered\lAndGranted">
<polygon fill="white" stroke="black" points="417,-0.5 417,-41.5 607,-41.5 607,-0.5 417,-0.5"/>
<text text-anchor="start" x="425" y="-29.5" font-family="Helvetica,sans-Serif" font-size="10.00">src.harness.sas_interface.</text>
<text text-anchor="start" x="425" y="-18.5" font-family="Helvetica,sans-Serif" font-size="10.00">SasTestcaseInterface.assertRegistered</text>
<text text-anchor="middle" x="512" y="-7.5" font-family="Helvetica,sans-Serif" font-size="10.00">AndGranted</text>
</a>
</g>
</g>
<!-- Node4&#45;&gt;Node5 -->
<g id="edge4" class="edge"><title>Node4&#45;&gt;Node5</title>
<path fill="none" stroke="midnightblue" d="M381.023,-21C389.542,-21 398.204,-21 406.804,-21"/>
<polygon fill="midnightblue" stroke="midnightblue" points="406.859,-24.5001 416.859,-21 406.859,-17.5001 406.859,-24.5001"/>
</g>
</g>
</svg>
