<?xml version="1.0" encoding="UTF-8" standalone="no"?>
<!DOCTYPE svg PUBLIC "-//W3C//DTD SVG 1.1//EN"
 "http://www.w3.org/Graphics/SVG/1.1/DTD/svg11.dtd">
<!-- Generated by graphviz version 2.38.0 (20140413.2041)
 -->
<!-- Title: src.harness.security_testcase.SecurityTestCase.assertTlsHandshakeSucceed Pages: 1 -->
<svg width="624pt" height="590pt"
 viewBox="0.00 0.00 624.00 590.00" xmlns="http://www.w3.org/2000/svg" xmlns:xlink="http://www.w3.org/1999/xlink">
<g id="graph0" class="graph" transform="scale(1 1) rotate(0) translate(4 586)">
<title>src.harness.security_testcase.SecurityTestCase.assertTlsHandshakeSucceed</title>
<polygon fill="white" stroke="none" points="-4,4 -4,-586 620,-586 620,4 -4,4"/>
<!-- Node1 -->
<g id="node1" class="node"><title>Node1</title>
<polygon fill="#bfbfbf" stroke="black" points="0,-270.5 0,-311.5 171,-311.5 171,-270.5 0,-270.5"/>
<text text-anchor="start" x="8" y="-299.5" font-family="Helvetica,sans-Serif" font-size="10.00">src.harness.security</text>
<text text-anchor="start" x="8" y="-288.5" font-family="Helvetica,sans-Serif" font-size="10.00">_testcase.SecurityTestCase.assert</text>
<text text-anchor="middle" x="85.5" y="-277.5" font-family="Helvetica,sans-Serif" font-size="10.00">TlsHandshakeSucceed</text>
</g>
<!-- Node2 -->
<g id="node2" class="node"><title>Node2</title>
<g id="a_node2"><a xlink:href="../../db/df9/classsrc_1_1harness_1_1security__testcase_1_1SecurityTestCase.html#ae4503f0701e9fa5758f44cd21f8160f5" target="_top" xlink:title="src.harness.security\l_testcase.SecurityTestCase.do\lTestCipher">
<polygon fill="white" stroke="black" points="207,-270.5 207,-311.5 362,-311.5 362,-270.5 207,-270.5"/>
<text text-anchor="start" x="215" y="-299.5" font-family="Helvetica,sans-Serif" font-size="10.00">src.harness.security</text>
<text text-anchor="start" x="215" y="-288.5" font-family="Helvetica,sans-Serif" font-size="10.00">_testcase.SecurityTestCase.do</text>
<text text-anchor="middle" x="284.5" y="-277.5" font-family="Helvetica,sans-Serif" font-size="10.00">TestCipher</text>
</a>
</g>
</g>
<!-- Node1&#45;&gt;Node2 -->
<g id="edge1" class="edge"><title>Node1&#45;&gt;Node2</title>
<path fill="none" stroke="midnightblue" d="M181.269,-291C189.884,-291 198.537,-291 206.965,-291"/>
<polygon fill="midnightblue" stroke="midnightblue" points="181.189,-287.5 171.189,-291 181.189,-294.5 181.189,-287.5"/>
</g>
<!-- Node3 -->
<g id="node3" class="node"><title>Node3</title>
<g id="a_node3"><a xlink:href="../../da/d08/classsrc_1_1harness_1_1testcases_1_1WINNF__FT__S__SCS__testcase_1_1SasCbsdSecurityTestcase.html#a9be08abb1cd25ad40d9deecdb05dcede" target="_top" xlink:title="src.harness.testcases.WINNF\l_FT_S_SCS_testcase.SasCbsdSecurity\lTestcase.test_WINNF_FT_S_SCS_1">
<polygon fill="white" stroke="black" points="410,-540.5 410,-581.5 604,-581.5 604,-540.5 410,-540.5"/>
<text text-anchor="start" x="418" y="-569.5" font-family="Helvetica,sans-Serif" font-size="10.00">src.harness.testcases.WINNF</text>
<text text-anchor="start" x="418" y="-558.5" font-family="Helvetica,sans-Serif" font-size="10.00">_FT_S_SCS_testcase.SasCbsdSecurity</text>
<text text-anchor="middle" x="507" y="-547.5" font-family="Helvetica,sans-Serif" font-size="10.00">Testcase.test_WINNF_FT_S_SCS_1</text>
</a>
</g>
</g>
<!-- Node2&#45;&gt;Node3 -->
<g id="edge2" class="edge"><title>Node2&#45;&gt;Node3</title>
<path fill="none" stroke="midnightblue" d="M291.256,-321.649C302.485,-372.792 332.213,-475.397 398,-531 402.161,-534.517 406.705,-537.624 411.496,-540.368"/>
<polygon fill="midnightblue" stroke="midnightblue" points="294.616,-320.618 289.134,-311.552 287.765,-322.058 294.616,-320.618"/>
</g>
<!-- Node4 -->
<g id="node4" class="node"><title>Node4</title>
<g id="a_node4"><a xlink:href="../../da/d08/classsrc_1_1harness_1_1testcases_1_1WINNF__FT__S__SCS__testcase_1_1SasCbsdSecurityTestcase.html#a9a24b10eaed496d910bc1e75539823cc" target="_top" xlink:title="src.harness.testcases.WINNF\l_FT_S_SCS_testcase.SasCbsdSecurity\lTestcase.test_WINNF_FT_S_SCS_2">
<polygon fill="white" stroke="black" points="410,-480.5 410,-521.5 604,-521.5 604,-480.5 410,-480.5"/>
<text text-anchor="start" x="418" y="-509.5" font-family="Helvetica,sans-Serif" font-size="10.00">src.harness.testcases.WINNF</text>
<text text-anchor="start" x="418" y="-498.5" font-family="Helvetica,sans-Serif" font-size="10.00">_FT_S_SCS_testcase.SasCbsdSecurity</text>
<text text-anchor="middle" x="507" y="-487.5" font-family="Helvetica,sans-Serif" font-size="10.00">Testcase.test_WINNF_FT_S_SCS_2</text>
</a>
</g>
</g>
<!-- Node2&#45;&gt;Node4 -->
<g id="edge3" class="edge"><title>Node2&#45;&gt;Node4</title>
<path fill="none" stroke="midnightblue" d="M296.348,-321.323C312.32,-361.6 346.015,-432.168 398,-471 402.755,-474.552 407.91,-477.683 413.302,-480.444"/>
<polygon fill="midnightblue" stroke="midnightblue" points="299.53,-319.846 292.669,-311.773 292.998,-322.363 299.53,-319.846"/>
</g>
<!-- Node5 -->
<g id="node5" class="node"><title>Node5</title>
<g id="a_node5"><a xlink:href="../../da/d08/classsrc_1_1harness_1_1testcases_1_1WINNF__FT__S__SCS__testcase_1_1SasCbsdSecurityTestcase.html#ac71116f6a9b86f82473e4deb4a95ea06" target="_top" xlink:title="src.harness.testcases.WINNF\l_FT_S_SCS_testcase.SasCbsdSecurity\lTestcase.test_WINNF_FT_S_SCS_3">
<polygon fill="white" stroke="black" points="410,-420.5 410,-461.5 604,-461.5 604,-420.5 410,-420.5"/>
<text text-anchor="start" x="418" y="-449.5" font-family="Helvetica,sans-Serif" font-size="10.00">src.harness.testcases.WINNF</text>
<text text-anchor="start" x="418" y="-438.5" font-family="Helvetica,sans-Serif" font-size="10.00">_FT_S_SCS_testcase.SasCbsdSecurity</text>
<text text-anchor="middle" x="507" y="-427.5" font-family="Helvetica,sans-Serif" font-size="10.00">Testcase.test_WINNF_FT_S_SCS_3</text>
</a>
</g>
</g>
<!-- Node2&#45;&gt;Node5 -->
<g id="edge4" class="edge"><title>Node2&#45;&gt;Node5</title>
<path fill="none" stroke="midnightblue" d="M305.401,-320.068C325.632,-347.447 359.422,-387.649 398,-411 403.827,-414.527 410.079,-417.65 416.531,-420.414"/>
<polygon fill="midnightblue" stroke="midnightblue" points="308.019,-317.715 299.321,-311.666 302.349,-321.819 308.019,-317.715"/>
</g>
<!-- Node6 -->
<g id="node6" class="node"><title>Node6</title>
<g id="a_node6"><a xlink:href="../../da/d08/classsrc_1_1harness_1_1testcases_1_1WINNF__FT__S__SCS__testcase_1_1SasCbsdSecurityTestcase.html#ac6c3476e4632ab71aac6aae3ba7e29b4" target="_top" xlink:title="src.harness.testcases.WINNF\l_FT_S_SCS_testcase.SasCbsdSecurity\lTestcase.test_WINNF_FT_S_SCS_4">
<polygon fill="white" stroke="black" points="410,-360.5 410,-401.5 604,-401.5 604,-360.5 410,-360.5"/>
<text text-anchor="start" x="418" y="-389.5" font-family="Helvetica,sans-Serif" font-size="10.00">src.harness.testcases.WINNF</text>
<text text-anchor="start" x="418" y="-378.5" font-family="Helvetica,sans-Serif" font-size="10.00">_FT_S_SCS_testcase.SasCbsdSecurity</text>
<text text-anchor="middle" x="507" y="-367.5" font-family="Helvetica,sans-Serif" font-size="10.00">Testcase.test_WINNF_FT_S_SCS_4</text>
</a>
</g>
</g>
<!-- Node2&#45;&gt;Node6 -->
<g id="edge5" class="edge"><title>Node2&#45;&gt;Node6</title>
<path fill="none" stroke="midnightblue" d="M328.323,-316.695C348.888,-328.285 374.189,-341.477 398,-351 406.492,-354.396 415.506,-357.557 424.565,-360.453"/>
<polygon fill="midnightblue" stroke="midnightblue" points="329.945,-313.59 319.525,-311.672 326.474,-319.669 329.945,-313.59"/>
</g>
<!-- Node7 -->
<g id="node7" class="node"><title>Node7</title>
<g id="a_node7"><a xlink:href="../../da/d08/classsrc_1_1harness_1_1testcases_1_1WINNF__FT__S__SCS__testcase_1_1SasCbsdSecurityTestcase.html#a056c5b611a63d4c3a90816e893c152b8" target="_top" xlink:title="src.harness.testcases.WINNF\l_FT_S_SCS_testcase.SasCbsdSecurity\lTestcase.test_WINNF_FT_S_SCS_5">
<polygon fill="white" stroke="black" points="410,-300.5 410,-341.5 604,-341.5 604,-300.5 410,-300.5"/>
<text text-anchor="start" x="418" y="-329.5" font-family="Helvetica,sans-Serif" font-size="10.00">src.harness.testcases.WINNF</text>
<text text-anchor="start" x="418" y="-318.5" font-family="Helvetica,sans-Serif" font-size="10.00">_FT_S_SCS_testcase.SasCbsdSecurity</text>
<text text-anchor="middle" x="507" y="-307.5" font-family="Helvetica,sans-Serif" font-size="10.00">Testcase.test_WINNF_FT_S_SCS_5</text>
</a>
</g>
</g>
<!-- Node2&#45;&gt;Node7 -->
<g id="edge6" class="edge"><title>Node2&#45;&gt;Node7</title>
<path fill="none" stroke="midnightblue" d="M372.249,-302.803C384.581,-304.48 397.324,-306.214 409.822,-307.915"/>
<polygon fill="midnightblue" stroke="midnightblue" points="372.382,-299.289 362.001,-301.408 371.438,-306.225 372.382,-299.289"/>
</g>
<!-- Node8 -->
<g id="node8" class="node"><title>Node8</title>
<g id="a_node8"><a xlink:href="../../d5/daa/classsrc_1_1harness_1_1testcases_1_1WINNF__FT__S__SDS__testcase_1_1SasDomainProxySecurityTestcase.html#aeb94e52f79acf12df9d5bce15edfabe1" target="_top" xlink:title="src.harness.testcases.WINNF\l_FT_S_SDS_testcase.SasDomainProxy\lSecurityTestcase.test_WINNF_FT_S_SDS_1">
<polygon fill="white" stroke="black" points="398,-240.5 398,-281.5 616,-281.5 616,-240.5 398,-240.5"/>
<text text-anchor="start" x="406" y="-269.5" font-family="Helvetica,sans-Serif" font-size="10.00">src.harness.testcases.WINNF</text>
<text text-anchor="start" x="406" y="-258.5" font-family="Helvetica,sans-Serif" font-size="10.00">_FT_S_SDS_testcase.SasDomainProxy</text>
<text text-anchor="middle" x="507" y="-247.5" font-family="Helvetica,sans-Serif" font-size="10.00">SecurityTestcase.test_WINNF_FT_S_SDS_1</text>
</a>
</g>
</g>
<!-- Node2&#45;&gt;Node8 -->
<g id="edge7" class="edge"><title>Node2&#45;&gt;Node8</title>
<path fill="none" stroke="midnightblue" d="M372.156,-279.21C380.571,-278.065 389.179,-276.894 397.77,-275.725"/>
<polygon fill="midnightblue" stroke="midnightblue" points="371.438,-275.775 362.001,-280.592 372.382,-282.711 371.438,-275.775"/>
</g>
<!-- Node9 -->
<g id="node9" class="node"><title>Node9</title>
<g id="a_node9"><a xlink:href="../../d5/daa/classsrc_1_1harness_1_1testcases_1_1WINNF__FT__S__SDS__testcase_1_1SasDomainProxySecurityTestcase.html#ab12185b93c8848ad3b533faa7b0e3384" target="_top" xlink:title="src.harness.testcases.WINNF\l_FT_S_SDS_testcase.SasDomainProxy\lSecurityTestcase.test_WINNF_FT_S_SDS_2">
<polygon fill="white" stroke="black" points="398,-180.5 398,-221.5 616,-221.5 616,-180.5 398,-180.5"/>
<text text-anchor="start" x="406" y="-209.5" font-family="Helvetica,sans-Serif" font-size="10.00">src.harness.testcases.WINNF</text>
<text text-anchor="start" x="406" y="-198.5" font-family="Helvetica,sans-Serif" font-size="10.00">_FT_S_SDS_testcase.SasDomainProxy</text>
<text text-anchor="middle" x="507" y="-187.5" font-family="Helvetica,sans-Serif" font-size="10.00">SecurityTestcase.test_WINNF_FT_S_SDS_2</text>
</a>
</g>
</g>
<!-- Node2&#45;&gt;Node9 -->
<g id="edge8" class="edge"><title>Node2&#45;&gt;Node9</title>
<path fill="none" stroke="midnightblue" d="M328.323,-265.305C348.888,-253.715 374.189,-240.523 398,-231 406.492,-227.604 415.506,-224.443 424.565,-221.547"/>
<polygon fill="midnightblue" stroke="midnightblue" points="326.474,-262.331 319.525,-270.328 329.945,-268.41 326.474,-262.331"/>
</g>
<!-- Node10 -->
<g id="node10" class="node"><title>Node10</title>
<g id="a_node10"><a xlink:href="../../d5/daa/classsrc_1_1harness_1_1testcases_1_1WINNF__FT__S__SDS__testcase_1_1SasDomainProxySecurityTestcase.html#afb3254f37aefa5cdd6c41cb825c597d8" target="_top" xlink:title="src.harness.testcases.WINNF\l_FT_S_SDS_testcase.SasDomainProxy\lSecurityTestcase.test_WINNF_FT_S_SDS_3">
<polygon fill="white" stroke="black" points="398,-120.5 398,-161.5 616,-161.5 616,-120.5 398,-120.5"/>
<text text-anchor="start" x="406" y="-149.5" font-family="Helvetica,sans-Serif" font-size="10.00">src.harness.testcases.WINNF</text>
<text text-anchor="start" x="406" y="-138.5" font-family="Helvetica,sans-Serif" font-size="10.00">_FT_S_SDS_testcase.SasDomainProxy</text>
<text text-anchor="middle" x="507" y="-127.5" font-family="Helvetica,sans-Serif" font-size="10.00">SecurityTestcase.test_WINNF_FT_S_SDS_3</text>
</a>
</g>
</g>
<!-- Node2&#45;&gt;Node10 -->
<g id="edge9" class="edge"><title>Node2&#45;&gt;Node10</title>
<path fill="none" stroke="midnightblue" d="M305.401,-261.932C325.632,-234.553 359.422,-194.351 398,-171 403.827,-167.473 410.079,-164.35 416.531,-161.586"/>
<polygon fill="midnightblue" stroke="midnightblue" points="302.349,-260.181 299.321,-270.334 308.019,-264.285 302.349,-260.181"/>
</g>
<!-- Node11 -->
<g id="node11" class="node"><title>Node11</title>
<g id="a_node11"><a xlink:href="../../d5/daa/classsrc_1_1harness_1_1testcases_1_1WINNF__FT__S__SDS__testcase_1_1SasDomainProxySecurityTestcase.html#aa6ca4d198dd5378006c9b8297e41c510" target="_top" xlink:title="src.harness.testcases.WINNF\l_FT_S_SDS_testcase.SasDomainProxy\lSecurityTestcase.test_WINNF_FT_S_SDS_4">
<polygon fill="white" stroke="black" points="398,-60.5 398,-101.5 616,-101.5 616,-60.5 398,-60.5"/>
<text text-anchor="start" x="406" y="-89.5" font-family="Helvetica,sans-Serif" font-size="10.00">src.harness.testcases.WINNF</text>
<text text-anchor="start" x="406" y="-78.5" font-family="Helvetica,sans-Serif" font-size="10.00">_FT_S_SDS_testcase.SasDomainProxy</text>
<text text-anchor="middle" x="507" y="-67.5" font-family="Helvetica,sans-Serif" font-size="10.00">SecurityTestcase.test_WINNF_FT_S_SDS_4</text>
</a>
</g>
</g>
<!-- Node2&#45;&gt;Node11 -->
<g id="edge10" class="edge"><title>Node2&#45;&gt;Node11</title>
<path fill="none" stroke="midnightblue" d="M296.348,-260.677C312.32,-220.4 346.015,-149.832 398,-111 402.755,-107.448 407.91,-104.317 413.302,-101.556"/>
<polygon fill="midnightblue" stroke="midnightblue" points="292.998,-259.637 292.669,-270.227 299.53,-262.154 292.998,-259.637"/>
</g>
<!-- Node12 -->
<g id="node12" class="node"><title>Node12</title>
<g id="a_node12"><a xlink:href="../../d5/daa/classsrc_1_1harness_1_1testcases_1_1WINNF__FT__S__SDS__testcase_1_1SasDomainProxySecurityTestcase.html#a6f4d7fe04de9d6796d6f3ce0d7f67f89" target="_top" xlink:title="src.harness.testcases.WINNF\l_FT_S_SDS_testcase.SasDomainProxy\lSecurityTestcase.test_WINNF_FT_S_SDS_5">
<polygon fill="white" stroke="black" points="398,-0.5 398,-41.5 616,-41.5 616,-0.5 398,-0.5"/>
<text text-anchor="start" x="406" y="-29.5" font-family="Helvetica,sans-Serif" font-size="10.00">src.harness.testcases.WINNF</text>
<text text-anchor="start" x="406" y="-18.5" font-family="Helvetica,sans-Serif" font-size="10.00">_FT_S_SDS_testcase.SasDomainProxy</text>
<text text-anchor="middle" x="507" y="-7.5" font-family="Helvetica,sans-Serif" font-size="10.00">SecurityTestcase.test_WINNF_FT_S_SDS_5</text>
</a>
</g>
</g>
<!-- Node2&#45;&gt;Node12 -->
<g id="edge11" class="edge"><title>Node2&#45;&gt;Node12</title>
<path fill="none" stroke="midnightblue" d="M291.256,-260.351C302.485,-209.208 332.213,-106.603 398,-51 402.161,-47.4827 406.705,-44.3759 411.496,-41.632"/>
<polygon fill="midnightblue" stroke="midnightblue" points="287.765,-259.942 289.134,-270.448 294.616,-261.382 287.765,-259.942"/>
</g>
</g>
</svg>
