<?xml version="1.0" encoding="UTF-8" standalone="no"?>
<!DOCTYPE svg PUBLIC "-//W3C//DTD SVG 1.1//EN"
 "http://www.w3.org/Graphics/SVG/1.1/DTD/svg11.dtd">
<!-- Generated by graphviz version 2.38.0 (20140413.2041)
 -->
<!-- Title: src.harness.security_testcase.SecurityTestCase.doTestCipher Pages: 1 -->
<svg width="417pt" height="590pt"
 viewBox="0.00 0.00 417.00 590.00" xmlns="http://www.w3.org/2000/svg" xmlns:xlink="http://www.w3.org/1999/xlink">
<g id="graph0" class="graph" transform="scale(1 1) rotate(0) translate(4 586)">
<title>src.harness.security_testcase.SecurityTestCase.doTestCipher</title>
<polygon fill="white" stroke="none" points="-4,4 -4,-586 413,-586 413,4 -4,4"/>
<!-- Node1 -->
<g id="node1" class="node"><title>Node1</title>
<polygon fill="#bfbfbf" stroke="black" points="0,-270.5 0,-311.5 155,-311.5 155,-270.5 0,-270.5"/>
<text text-anchor="start" x="8" y="-299.5" font-family="Helvetica,sans-Serif" font-size="10.00">src.harness.security</text>
<text text-anchor="start" x="8" y="-288.5" font-family="Helvetica,sans-Serif" font-size="10.00">_testcase.SecurityTestCase.do</text>
<text text-anchor="middle" x="77.5" y="-277.5" font-family="Helvetica,sans-Serif" font-size="10.00">TestCipher</text>
</g>
<!-- Node2 -->
<g id="node2" class="node"><title>Node2</title>
<g id="a_node2"><a xlink:href="../../da/d08/classsrc_1_1harness_1_1testcases_1_1WINNF__FT__S__SCS__testcase_1_1SasCbsdSecurityTestcase.html#a9be08abb1cd25ad40d9deecdb05dcede" target="_top" xlink:title="src.harness.testcases.WINNF\l_FT_S_SCS_testcase.SasCbsdSecurity\lTestcase.test_WINNF_FT_S_SCS_1">
<polygon fill="white" stroke="black" points="203,-540.5 203,-581.5 397,-581.5 397,-540.5 203,-540.5"/>
<text text-anchor="start" x="211" y="-569.5" font-family="Helvetica,sans-Serif" font-size="10.00">src.harness.testcases.WINNF</text>
<text text-anchor="start" x="211" y="-558.5" font-family="Helvetica,sans-Serif" font-size="10.00">_FT_S_SCS_testcase.SasCbsdSecurity</text>
<text text-anchor="middle" x="300" y="-547.5" font-family="Helvetica,sans-Serif" font-size="10.00">Testcase.test_WINNF_FT_S_SCS_1</text>
</a>
</g>
</g>
<!-- Node1&#45;&gt;Node2 -->
<g id="edge1" class="edge"><title>Node1&#45;&gt;Node2</title>
<path fill="none" stroke="midnightblue" d="M84.2558,-321.649C95.4846,-372.792 125.213,-475.397 191,-531 195.161,-534.517 199.705,-537.624 204.496,-540.368"/>
<polygon fill="midnightblue" stroke="midnightblue" points="87.6158,-320.618 82.1342,-311.552 80.7654,-322.058 87.6158,-320.618"/>
</g>
<!-- Node3 -->
<g id="node3" class="node"><title>Node3</title>
<g id="a_node3"><a xlink:href="../../da/d08/classsrc_1_1harness_1_1testcases_1_1WINNF__FT__S__SCS__testcase_1_1SasCbsdSecurityTestcase.html#a9a24b10eaed496d910bc1e75539823cc" target="_top" xlink:title="src.harness.testcases.WINNF\l_FT_S_SCS_testcase.SasCbsdSecurity\lTestcase.test_WINNF_FT_S_SCS_2">
<polygon fill="white" stroke="black" points="203,-480.5 203,-521.5 397,-521.5 397,-480.5 203,-480.5"/>
<text text-anchor="start" x="211" y="-509.5" font-family="Helvetica,sans-Serif" font-size="10.00">src.harness.testcases.WINNF</text>
<text text-anchor="start" x="211" y="-498.5" font-family="Helvetica,sans-Serif" font-size="10.00">_FT_S_SCS_testcase.SasCbsdSecurity</text>
<text text-anchor="middle" x="300" y="-487.5" font-family="Helvetica,sans-Serif" font-size="10.00">Testcase.test_WINNF_FT_S_SCS_2</text>
</a>
</g>
</g>
<!-- Node1&#45;&gt;Node3 -->
<g id="edge2" class="edge"><title>Node1&#45;&gt;Node3</title>
<path fill="none" stroke="midnightblue" d="M89.3481,-321.323C105.32,-361.6 139.015,-432.168 191,-471 195.755,-474.552 200.91,-477.683 206.302,-480.444"/>
<polygon fill="midnightblue" stroke="midnightblue" points="92.5301,-319.846 85.6689,-311.773 85.9981,-322.363 92.5301,-319.846"/>
</g>
<!-- Node4 -->
<g id="node4" class="node"><title>Node4</title>
<g id="a_node4"><a xlink:href="../../da/d08/classsrc_1_1harness_1_1testcases_1_1WINNF__FT__S__SCS__testcase_1_1SasCbsdSecurityTestcase.html#ac71116f6a9b86f82473e4deb4a95ea06" target="_top" xlink:title="src.harness.testcases.WINNF\l_FT_S_SCS_testcase.SasCbsdSecurity\lTestcase.test_WINNF_FT_S_SCS_3">
<polygon fill="white" stroke="black" points="203,-420.5 203,-461.5 397,-461.5 397,-420.5 203,-420.5"/>
<text text-anchor="start" x="211" y="-449.5" font-family="Helvetica,sans-Serif" font-size="10.00">src.harness.testcases.WINNF</text>
<text text-anchor="start" x="211" y="-438.5" font-family="Helvetica,sans-Serif" font-size="10.00">_FT_S_SCS_testcase.SasCbsdSecurity</text>
<text text-anchor="middle" x="300" y="-427.5" font-family="Helvetica,sans-Serif" font-size="10.00">Testcase.test_WINNF_FT_S_SCS_3</text>
</a>
</g>
</g>
<!-- Node1&#45;&gt;Node4 -->
<g id="edge3" class="edge"><title>Node1&#45;&gt;Node4</title>
<path fill="none" stroke="midnightblue" d="M98.4014,-320.068C118.632,-347.447 152.422,-387.649 191,-411 196.827,-414.527 203.079,-417.65 209.531,-420.414"/>
<polygon fill="midnightblue" stroke="midnightblue" points="101.019,-317.715 92.3206,-311.666 95.3486,-321.819 101.019,-317.715"/>
</g>
<!-- Node5 -->
<g id="node5" class="node"><title>Node5</title>
<g id="a_node5"><a xlink:href="../../da/d08/classsrc_1_1harness_1_1testcases_1_1WINNF__FT__S__SCS__testcase_1_1SasCbsdSecurityTestcase.html#ac6c3476e4632ab71aac6aae3ba7e29b4" target="_top" xlink:title="src.harness.testcases.WINNF\l_FT_S_SCS_testcase.SasCbsdSecurity\lTestcase.test_WINNF_FT_S_SCS_4">
<polygon fill="white" stroke="black" points="203,-360.5 203,-401.5 397,-401.5 397,-360.5 203,-360.5"/>
<text text-anchor="start" x="211" y="-389.5" font-family="Helvetica,sans-Serif" font-size="10.00">src.harness.testcases.WINNF</text>
<text text-anchor="start" x="211" y="-378.5" font-family="Helvetica,sans-Serif" font-size="10.00">_FT_S_SCS_testcase.SasCbsdSecurity</text>
<text text-anchor="middle" x="300" y="-367.5" font-family="Helvetica,sans-Serif" font-size="10.00">Testcase.test_WINNF_FT_S_SCS_4</text>
</a>
</g>
</g>
<!-- Node1&#45;&gt;Node5 -->
<g id="edge4" class="edge"><title>Node1&#45;&gt;Node5</title>
<path fill="none" stroke="midnightblue" d="M121.323,-316.695C141.888,-328.285 167.189,-341.477 191,-351 199.492,-354.396 208.506,-357.557 217.565,-360.453"/>
<polygon fill="midnightblue" stroke="midnightblue" points="122.945,-313.59 112.525,-311.672 119.474,-319.669 122.945,-313.59"/>
</g>
<!-- Node6 -->
<g id="node6" class="node"><title>Node6</title>
<g id="a_node6"><a xlink:href="../../da/d08/classsrc_1_1harness_1_1testcases_1_1WINNF__FT__S__SCS__testcase_1_1SasCbsdSecurityTestcase.html#a056c5b611a63d4c3a90816e893c152b8" target="_top" xlink:title="src.harness.testcases.WINNF\l_FT_S_SCS_testcase.SasCbsdSecurity\lTestcase.test_WINNF_FT_S_SCS_5">
<polygon fill="white" stroke="black" points="203,-300.5 203,-341.5 397,-341.5 397,-300.5 203,-300.5"/>
<text text-anchor="start" x="211" y="-329.5" font-family="Helvetica,sans-Serif" font-size="10.00">src.harness.testcases.WINNF</text>
<text text-anchor="start" x="211" y="-318.5" font-family="Helvetica,sans-Serif" font-size="10.00">_FT_S_SCS_testcase.SasCbsdSecurity</text>
<text text-anchor="middle" x="300" y="-307.5" font-family="Helvetica,sans-Serif" font-size="10.00">Testcase.test_WINNF_FT_S_SCS_5</text>
</a>
</g>
</g>
<!-- Node1&#45;&gt;Node6 -->
<g id="edge5" class="edge"><title>Node1&#45;&gt;Node6</title>
<path fill="none" stroke="midnightblue" d="M165.249,-302.803C177.581,-304.48 190.324,-306.214 202.822,-307.915"/>
<polygon fill="midnightblue" stroke="midnightblue" points="165.382,-299.289 155.001,-301.408 164.438,-306.225 165.382,-299.289"/>
</g>
<!-- Node7 -->
<g id="node7" class="node"><title>Node7</title>
<g id="a_node7"><a xlink:href="../../d5/daa/classsrc_1_1harness_1_1testcases_1_1WINNF__FT__S__SDS__testcase_1_1SasDomainProxySecurityTestcase.html#aeb94e52f79acf12df9d5bce15edfabe1" target="_top" xlink:title="src.harness.testcases.WINNF\l_FT_S_SDS_testcase.SasDomainProxy\lSecurityTestcase.test_WINNF_FT_S_SDS_1">
<polygon fill="white" stroke="black" points="191,-240.5 191,-281.5 409,-281.5 409,-240.5 191,-240.5"/>
<text text-anchor="start" x="199" y="-269.5" font-family="Helvetica,sans-Serif" font-size="10.00">src.harness.testcases.WINNF</text>
<text text-anchor="start" x="199" y="-258.5" font-family="Helvetica,sans-Serif" font-size="10.00">_FT_S_SDS_testcase.SasDomainProxy</text>
<text text-anchor="middle" x="300" y="-247.5" font-family="Helvetica,sans-Serif" font-size="10.00">SecurityTestcase.test_WINNF_FT_S_SDS_1</text>
</a>
</g>
</g>
<!-- Node1&#45;&gt;Node7 -->
<g id="edge6" class="edge"><title>Node1&#45;&gt;Node7</title>
<path fill="none" stroke="midnightblue" d="M165.156,-279.21C173.571,-278.065 182.179,-276.894 190.77,-275.725"/>
<polygon fill="midnightblue" stroke="midnightblue" points="164.438,-275.775 155.001,-280.592 165.382,-282.711 164.438,-275.775"/>
</g>
<!-- Node8 -->
<g id="node8" class="node"><title>Node8</title>
<g id="a_node8"><a xlink:href="../../d5/daa/classsrc_1_1harness_1_1testcases_1_1WINNF__FT__S__SDS__testcase_1_1SasDomainProxySecurityTestcase.html#ab12185b93c8848ad3b533faa7b0e3384" target="_top" xlink:title="src.harness.testcases.WINNF\l_FT_S_SDS_testcase.SasDomainProxy\lSecurityTestcase.test_WINNF_FT_S_SDS_2">
<polygon fill="white" stroke="black" points="191,-180.5 191,-221.5 409,-221.5 409,-180.5 191,-180.5"/>
<text text-anchor="start" x="199" y="-209.5" font-family="Helvetica,sans-Serif" font-size="10.00">src.harness.testcases.WINNF</text>
<text text-anchor="start" x="199" y="-198.5" font-family="Helvetica,sans-Serif" font-size="10.00">_FT_S_SDS_testcase.SasDomainProxy</text>
<text text-anchor="middle" x="300" y="-187.5" font-family="Helvetica,sans-Serif" font-size="10.00">SecurityTestcase.test_WINNF_FT_S_SDS_2</text>
</a>
</g>
</g>
<!-- Node1&#45;&gt;Node8 -->
<g id="edge7" class="edge"><title>Node1&#45;&gt;Node8</title>
<path fill="none" stroke="midnightblue" d="M121.323,-265.305C141.888,-253.715 167.189,-240.523 191,-231 199.492,-227.604 208.506,-224.443 217.565,-221.547"/>
<polygon fill="midnightblue" stroke="midnightblue" points="119.474,-262.331 112.525,-270.328 122.945,-268.41 119.474,-262.331"/>
</g>
<!-- Node9 -->
<g id="node9" class="node"><title>Node9</title>
<g id="a_node9"><a xlink:href="../../d5/daa/classsrc_1_1harness_1_1testcases_1_1WINNF__FT__S__SDS__testcase_1_1SasDomainProxySecurityTestcase.html#afb3254f37aefa5cdd6c41cb825c597d8" target="_top" xlink:title="src.harness.testcases.WINNF\l_FT_S_SDS_testcase.SasDomainProxy\lSecurityTestcase.test_WINNF_FT_S_SDS_3">
<polygon fill="white" stroke="black" points="191,-120.5 191,-161.5 409,-161.5 409,-120.5 191,-120.5"/>
<text text-anchor="start" x="199" y="-149.5" font-family="Helvetica,sans-Serif" font-size="10.00">src.harness.testcases.WINNF</text>
<text text-anchor="start" x="199" y="-138.5" font-family="Helvetica,sans-Serif" font-size="10.00">_FT_S_SDS_testcase.SasDomainProxy</text>
<text text-anchor="middle" x="300" y="-127.5" font-family="Helvetica,sans-Serif" font-size="10.00">SecurityTestcase.test_WINNF_FT_S_SDS_3</text>
</a>
</g>
</g>
<!-- Node1&#45;&gt;Node9 -->
<g id="edge8" class="edge"><title>Node1&#45;&gt;Node9</title>
<path fill="none" stroke="midnightblue" d="M98.4014,-261.932C118.632,-234.553 152.422,-194.351 191,-171 196.827,-167.473 203.079,-164.35 209.531,-161.586"/>
<polygon fill="midnightblue" stroke="midnightblue" points="95.3486,-260.181 92.3206,-270.334 101.019,-264.285 95.3486,-260.181"/>
</g>
<!-- Node10 -->
<g id="node10" class="node"><title>Node10</title>
<g id="a_node10"><a xlink:href="../../d5/daa/classsrc_1_1harness_1_1testcases_1_1WINNF__FT__S__SDS__testcase_1_1SasDomainProxySecurityTestcase.html#aa6ca4d198dd5378006c9b8297e41c510" target="_top" xlink:title="src.harness.testcases.WINNF\l_FT_S_SDS_testcase.SasDomainProxy\lSecurityTestcase.test_WINNF_FT_S_SDS_4">
<polygon fill="white" stroke="black" points="191,-60.5 191,-101.5 409,-101.5 409,-60.5 191,-60.5"/>
<text text-anchor="start" x="199" y="-89.5" font-family="Helvetica,sans-Serif" font-size="10.00">src.harness.testcases.WINNF</text>
<text text-anchor="start" x="199" y="-78.5" font-family="Helvetica,sans-Serif" font-size="10.00">_FT_S_SDS_testcase.SasDomainProxy</text>
<text text-anchor="middle" x="300" y="-67.5" font-family="Helvetica,sans-Serif" font-size="10.00">SecurityTestcase.test_WINNF_FT_S_SDS_4</text>
</a>
</g>
</g>
<!-- Node1&#45;&gt;Node10 -->
<g id="edge9" class="edge"><title>Node1&#45;&gt;Node10</title>
<path fill="none" stroke="midnightblue" d="M89.3481,-260.677C105.32,-220.4 139.015,-149.832 191,-111 195.755,-107.448 200.91,-104.317 206.302,-101.556"/>
<polygon fill="midnightblue" stroke="midnightblue" points="85.9981,-259.637 85.6689,-270.227 92.5301,-262.154 85.9981,-259.637"/>
</g>
<!-- Node11 -->
<g id="node11" class="node"><title>Node11</title>
<g id="a_node11"><a xlink:href="../../d5/daa/classsrc_1_1harness_1_1testcases_1_1WINNF__FT__S__SDS__testcase_1_1SasDomainProxySecurityTestcase.html#a6f4d7fe04de9d6796d6f3ce0d7f67f89" target="_top" xlink:title="src.harness.testcases.WINNF\l_FT_S_SDS_testcase.SasDomainProxy\lSecurityTestcase.test_WINNF_FT_S_SDS_5">
<polygon fill="white" stroke="black" points="191,-0.5 191,-41.5 409,-41.5 409,-0.5 191,-0.5"/>
<text text-anchor="start" x="199" y="-29.5" font-family="Helvetica,sans-Serif" font-size="10.00">src.harness.testcases.WINNF</text>
<text text-anchor="start" x="199" y="-18.5" font-family="Helvetica,sans-Serif" font-size="10.00">_FT_S_SDS_testcase.SasDomainProxy</text>
<text text-anchor="middle" x="300" y="-7.5" font-family="Helvetica,sans-Serif" font-size="10.00">SecurityTestcase.test_WINNF_FT_S_SDS_5</text>
</a>
</g>
</g>
<!-- Node1&#45;&gt;Node11 -->
<g id="edge10" class="edge"><title>Node1&#45;&gt;Node11</title>
<path fill="none" stroke="midnightblue" d="M84.2558,-260.351C95.4846,-209.208 125.213,-106.603 191,-51 195.161,-47.4827 199.705,-44.3759 204.496,-41.632"/>
<polygon fill="midnightblue" stroke="midnightblue" points="80.7654,-259.942 82.1342,-270.448 87.6158,-261.382 80.7654,-259.942"/>
</g>
</g>
</svg>
