<?xml version="1.0" encoding="UTF-8" standalone="no"?>
<!DOCTYPE svg PUBLIC "-//W3C//DTD SVG 1.1//EN"
 "http://www.w3.org/Graphics/SVG/1.1/DTD/svg11.dtd">
<!-- Generated by graphviz version 2.38.0 (20140413.2041)
 -->
<!-- Title: point_to_pointDH Pages: 1 -->
<!--zoomable 593 -->
<svg id="main" version="1.1" xmlns="http://www.w3.org/2000/svg" xmlns:xlink="http://www.w3.org/1999/xlink" xml:space="preserve" onload="init(evt)">
<style type="text/css"><![CDATA[
.edge:hover path { stroke: red; }
.edge:hover polygon { stroke: red; fill: red; }
]]></style>
<script type="text/javascript"><![CDATA[
var edges = document.getElementsByTagName('g');
if (edges && edges.length) {
  for (var i=0;i<edges.length;i++) {
    if (edges[i].id.substr(0,4)=='edge') {
      edges[i].setAttribute('class','edge');
    }
  }
}
]]></script>
        <defs>
                <circle id="rim" cx="0" cy="0" r="7"/>
                <circle id="rim2" cx="0" cy="0" r="3.5"/>
                <g id="zoomPlus">
                        <use xlink:href="#rim" fill="#404040">
                                <set attributeName="fill" to="#808080" begin="zoomplus.mouseover" end="zoomplus.mouseout"/>
                        </use>
                        <path d="M-4,0h8M0,-4v8" fill="none" stroke="white" stroke-width="1.5" pointer-events="none"/>
                </g>
                <g id="zoomMin">
                        <use xlink:href="#rim" fill="#404040">
                                <set attributeName="fill" to="#808080" begin="zoomminus.mouseover" end="zoomminus.mouseout"/>
                        </use>
                        <path d="M-4,0h8" fill="none" stroke="white" stroke-width="1.5" pointer-events="none"/>
                </g>
                <g id="dirArrow">
                        <path fill="none" stroke="white" stroke-width="1.5" d="M0,-3.0v7 M-2.5,-0.5L0,-3.0L2.5,-0.5"/>
                </g>
               <g id="resetDef">
                       <use xlink:href="#rim2" fill="#404040">
                               <set attributeName="fill" to="#808080" begin="reset.mouseover" end="reset.mouseout"/>
                       </use>
               </g>
        </defs>

<script type="text/javascript">
var viewWidth = 455;
var viewHeight = 593;
var sectionId = 'dynsection-5';
</script>
<script xlink:href="../../svgpan.js"/>
<svg id="graph" class="graph">
<g id="viewport">
<title>point_to_pointDH</title>
<polygon fill="white" stroke="none" points="-4,4 -4,-589 451,-589 451,4 -4,4"/>
<!-- Node1 -->
<g id="node1" class="node"><title>Node1</title>
<polygon fill="#bfbfbf" stroke="black" points="0,-95.5 0,-114.5 92,-114.5 92,-95.5 0,-95.5"/>
<text text-anchor="middle" x="46" y="-102.5" font-family="Helvetica,sans-Serif" font-size="10.00">point_to_pointDH</text>
</g>
<!-- Node2 -->
<g id="node2" class="node"><title>Node2</title>
<g id="a_node2"><a xlink:href="../../d2/d31/itm_8cpp.html#ad0a12435e029210dab38fce002347a31" target="_top" xlink:title="qerfi">
<polygon fill="white" stroke="black" points="129.5,-76.5 129.5,-95.5 164.5,-95.5 164.5,-76.5 129.5,-76.5"/>
<text text-anchor="middle" x="147" y="-83.5" font-family="Helvetica,sans-Serif" font-size="10.00">qerfi</text>
</a>
</g>
</g>
<!-- Node1&#45;&gt;Node2 -->
<g id="edge1" class="edge"><title>Node1&#45;&gt;Node2</title>
<path fill="none" stroke="midnightblue" d="M92.1544,-96.334C101.477,-94.5448 111.007,-92.7158 119.408,-91.1035"/>
<polygon fill="midnightblue" stroke="midnightblue" points="120.183,-94.5187 129.344,-89.1966 118.864,-87.6442 120.183,-94.5187"/>
</g>
<!-- Node4 -->
<g id="node4" class="node"><title>Node4</title>
<g id="a_node4"><a xlink:href="../../d2/d31/itm_8cpp.html#a35bdc04d015dd4e8c83f0ff5ffb4966a" target="_top" xlink:title="qlrps">
<polygon fill="white" stroke="black" points="128,-114.5 128,-133.5 166,-133.5 166,-114.5 128,-114.5"/>
<text text-anchor="middle" x="147" y="-121.5" font-family="Helvetica,sans-Serif" font-size="10.00">qlrps</text>
</a>
</g>
</g>
<!-- Node1&#45;&gt;Node4 -->
<g id="edge3" class="edge"><title>Node1&#45;&gt;Node4</title>
<path fill="none" stroke="midnightblue" d="M92.1544,-113.666C100.948,-115.354 109.926,-117.077 117.967,-118.62"/>
<polygon fill="midnightblue" stroke="midnightblue" points="117.423,-122.079 127.903,-120.527 118.742,-115.205 117.423,-122.079"/>
</g>
<!-- Node5 -->
<g id="node5" class="node"><title>Node5</title>
<g id="a_node5"><a xlink:href="../../d2/d31/itm_8cpp.html#ae682440b4eaee05406c08f8ae48e60d8" target="_top" xlink:title="qlrpfl">
<polygon fill="white" stroke="black" points="128,-247.5 128,-266.5 166,-266.5 166,-247.5 128,-247.5"/>
<text text-anchor="middle" x="147" y="-254.5" font-family="Helvetica,sans-Serif" font-size="10.00">qlrpfl</text>
</a>
</g>
</g>
<!-- Node1&#45;&gt;Node5 -->
<g id="edge4" class="edge"><title>Node1&#45;&gt;Node5</title>
<path fill="none" stroke="midnightblue" d="M53.1929,-114.508C69.3746,-139.353 113.127,-206.528 134.26,-238.976"/>
<polygon fill="midnightblue" stroke="midnightblue" points="131.419,-241.026 139.809,-247.495 137.285,-237.206 131.419,-241.026"/>
</g>
<!-- Node21 -->
<g id="node21" class="node"><title>Node21</title>
<g id="a_node21"><a xlink:href="../../d2/d31/itm_8cpp.html#af10b92806af5d5946a8332763321e2df" target="_top" xlink:title="avar">
<polygon fill="white" stroke="black" points="129.5,-38.5 129.5,-57.5 164.5,-57.5 164.5,-38.5 129.5,-38.5"/>
<text text-anchor="middle" x="147" y="-45.5" font-family="Helvetica,sans-Serif" font-size="10.00">avar</text>
</a>
</g>
</g>
<!-- Node1&#45;&gt;Node21 -->
<g id="edge36" class="edge"><title>Node1&#45;&gt;Node21</title>
<path fill="none" stroke="midnightblue" d="M63.794,-95.3307C79.3905,-86.3509 102.828,-72.8566 120.692,-62.5715"/>
<polygon fill="midnightblue" stroke="midnightblue" points="122.534,-65.5494 129.454,-57.5265 119.041,-59.483 122.534,-65.5494"/>
</g>
<!-- Node3 -->
<g id="node3" class="node"><title>Node3</title>
<g id="a_node3"><a xlink:href="../../d2/d31/itm_8cpp.html#aef74668a97df8c1c4614043e233d38fe" target="_top" xlink:title="mymax">
<polygon fill="white" stroke="black" points="378,-171.5 378,-190.5 427,-190.5 427,-171.5 378,-171.5"/>
<text text-anchor="middle" x="402.5" y="-178.5" font-family="Helvetica,sans-Serif" font-size="10.00">mymax</text>
</a>
</g>
</g>
<!-- Node2&#45;&gt;Node3 -->
<g id="edge2" class="edge"><title>Node2&#45;&gt;Node3</title>
<path fill="none" stroke="midnightblue" d="M164.633,-92.2332C205.8,-107.661 313.079,-147.864 368.016,-168.452"/>
<polygon fill="midnightblue" stroke="midnightblue" points="367.045,-171.825 377.637,-172.057 369.501,-165.271 367.045,-171.825"/>
</g>
<!-- Node5&#45;&gt;Node3 -->
<g id="edge17" class="edge"><title>Node5&#45;&gt;Node3</title>
<path fill="none" stroke="midnightblue" d="M151.856,-247.481C159.055,-231.018 176.187,-197.416 202,-181 252.489,-148.89 325.686,-160.118 367.951,-170.814"/>
<polygon fill="midnightblue" stroke="midnightblue" points="367.18,-174.231 377.744,-173.425 368.983,-167.467 367.18,-174.231"/>
</g>
<!-- Node6 -->
<g id="node6" class="node"><title>Node6</title>
<g id="a_node6"><a xlink:href="../../d2/d31/itm_8cpp.html#a33721834e531cc713891ff5da4ab5d1f" target="_top" xlink:title="hzns">
<polygon fill="white" stroke="black" points="203.5,-190.5 203.5,-209.5 241.5,-209.5 241.5,-190.5 203.5,-190.5"/>
<text text-anchor="middle" x="222.5" y="-197.5" font-family="Helvetica,sans-Serif" font-size="10.00">hzns</text>
</a>
</g>
</g>
<!-- Node5&#45;&gt;Node6 -->
<g id="edge5" class="edge"><title>Node5&#45;&gt;Node6</title>
<path fill="none" stroke="midnightblue" d="M160.468,-247.331C171.623,-238.68 188.179,-225.841 201.234,-215.716"/>
<polygon fill="midnightblue" stroke="midnightblue" points="203.459,-218.421 209.216,-209.526 199.169,-212.889 203.459,-218.421"/>
</g>
<!-- Node7 -->
<g id="node7" class="node"><title>Node7</title>
<g id="a_node7"><a xlink:href="../../d2/d31/itm_8cpp.html#ae383616ab74473e2622ac352721e342f" target="_top" xlink:title="mymin">
<polygon fill="white" stroke="black" points="379.5,-344.5 379.5,-363.5 425.5,-363.5 425.5,-344.5 379.5,-344.5"/>
<text text-anchor="middle" x="402.5" y="-351.5" font-family="Helvetica,sans-Serif" font-size="10.00">mymin</text>
</a>
</g>
</g>
<!-- Node5&#45;&gt;Node7 -->
<g id="edge6" class="edge"><title>Node5&#45;&gt;Node7</title>
<path fill="none" stroke="midnightblue" d="M166.231,-263.976C208.981,-280.334 316.11,-321.326 369.796,-341.868"/>
<polygon fill="midnightblue" stroke="midnightblue" points="368.58,-345.151 379.17,-345.456 371.081,-338.613 368.58,-345.151"/>
</g>
<!-- Node8 -->
<g id="node8" class="node"><title>Node8</title>
<g id="a_node8"><a xlink:href="../../d2/d31/itm_8cpp.html#a45e678693240356cd41b59d8edb5bb12" target="_top" xlink:title="d1thx">
<polygon fill="white" stroke="black" points="202,-228.5 202,-247.5 243,-247.5 243,-228.5 202,-228.5"/>
<text text-anchor="middle" x="222.5" y="-235.5" font-family="Helvetica,sans-Serif" font-size="10.00">d1thx</text>
</a>
</g>
</g>
<!-- Node5&#45;&gt;Node8 -->
<g id="edge7" class="edge"><title>Node5&#45;&gt;Node8</title>
<path fill="none" stroke="midnightblue" d="M166.169,-252.303C173.991,-250.281 183.337,-247.865 192.101,-245.6"/>
<polygon fill="midnightblue" stroke="midnightblue" points="193.191,-248.933 201.996,-243.042 191.439,-242.156 193.191,-248.933"/>
</g>
<!-- Node9 -->
<g id="node9" class="node"><title>Node9</title>
<g id="a_node9"><a xlink:href="../../d2/d31/itm_8cpp.html#a95a65538c0942d9e797bc3ea36ab7f08" target="_top" xlink:title="z1sq1">
<polygon fill="white" stroke="black" points="279,-494.5 279,-513.5 322,-513.5 322,-494.5 279,-494.5"/>
<text text-anchor="middle" x="300.5" y="-501.5" font-family="Helvetica,sans-Serif" font-size="10.00">z1sq1</text>
</a>
</g>
</g>
<!-- Node5&#45;&gt;Node9 -->
<g id="edge15" class="edge"><title>Node5&#45;&gt;Node9</title>
<path fill="none" stroke="midnightblue" d="M149.813,-266.571C154.876,-291.603 170.875,-360.427 202,-409 222.712,-441.323 256.395,-470.875 278.249,-488.159"/>
<polygon fill="midnightblue" stroke="midnightblue" points="276.22,-491.015 286.269,-494.372 280.506,-485.481 276.22,-491.015"/>
</g>
<!-- Node10 -->
<g id="node10" class="node"><title>Node10</title>
<g id="a_node10"><a xlink:href="../../d2/d31/itm_8cpp.html#ae61eab5929102f86b606d9007f0cc139" target="_top" xlink:title="FORTRAN_DIM">
<polygon fill="white" stroke="black" points="358,-480.5 358,-499.5 447,-499.5 447,-480.5 358,-480.5"/>
<text text-anchor="middle" x="402.5" y="-487.5" font-family="Helvetica,sans-Serif" font-size="10.00">FORTRAN_DIM</text>
</a>
</g>
</g>
<!-- Node5&#45;&gt;Node10 -->
<g id="edge16" class="edge"><title>Node5&#45;&gt;Node10</title>
<path fill="none" stroke="midnightblue" d="M148.274,-266.625C150.15,-311.474 164.81,-500.331 279,-561 295.877,-569.967 304.684,-569.086 322,-561 344.583,-550.454 339.308,-534.488 358,-518 363.34,-513.29 369.544,-508.811 375.566,-504.873"/>
<polygon fill="midnightblue" stroke="midnightblue" points="377.504,-507.789 384.135,-499.526 373.798,-501.851 377.504,-507.789"/>
</g>
<!-- Node12 -->
<g id="node12" class="node"><title>Node12</title>
<g id="a_node12"><a xlink:href="../../d2/d31/itm_8cpp.html#a32289828f24201e9dde6140e27708d73" target="_top" xlink:title="lrprop">
<polygon fill="white" stroke="black" points="202,-380.5 202,-399.5 243,-399.5 243,-380.5 202,-380.5"/>
<text text-anchor="middle" x="222.5" y="-387.5" font-family="Helvetica,sans-Serif" font-size="10.00">lrprop</text>
</a>
</g>
</g>
<!-- Node5&#45;&gt;Node12 -->
<g id="edge18" class="edge"><title>Node5&#45;&gt;Node12</title>
<path fill="none" stroke="midnightblue" d="M153.286,-266.565C165.358,-288.41 195.137,-342.296 211.061,-371.11"/>
<polygon fill="midnightblue" stroke="midnightblue" points="208.163,-373.103 216.064,-380.163 214.29,-369.717 208.163,-373.103"/>
</g>
<!-- Node8&#45;&gt;Node3 -->
<g id="edge9" class="edge"><title>Node8&#45;&gt;Node3</title>
<path fill="none" stroke="midnightblue" d="M233.496,-228.41C236.57,-225.421 239.947,-222.096 243,-219 259.335,-202.435 257.629,-190.192 279,-181 307.16,-168.887 342.445,-170.415 367.904,-174.062"/>
<polygon fill="midnightblue" stroke="midnightblue" points="367.393,-177.525 377.823,-175.66 368.507,-170.614 367.393,-177.525"/>
</g>
<!-- Node8&#45;&gt;Node7 -->
<g id="edge8" class="edge"><title>Node8&#45;&gt;Node7</title>
<path fill="none" stroke="midnightblue" d="M243.01,-238.036C264.556,-239.058 299.205,-243.723 322,-262 350.224,-284.629 331.834,-310.02 358,-335 361.539,-338.379 365.777,-341.212 370.198,-343.572"/>
<polygon fill="midnightblue" stroke="midnightblue" points="368.818,-346.79 379.367,-347.772 371.733,-340.425 368.818,-346.79"/>
</g>
<!-- Node8&#45;&gt;Node9 -->
<g id="edge10" class="edge"><title>Node8&#45;&gt;Node9</title>
<path fill="none" stroke="midnightblue" d="M225.754,-247.666C232.791,-277.552 255.297,-371.022 279,-447 282.987,-459.781 288.079,-473.947 292.19,-484.959"/>
<polygon fill="midnightblue" stroke="midnightblue" points="288.951,-486.289 295.763,-494.403 295.498,-483.812 288.951,-486.289"/>
</g>
<!-- Node11 -->
<g id="node11" class="node"><title>Node11</title>
<g id="a_node11"><a xlink:href="../../d2/d31/itm_8cpp.html#a8ab54b7902d55b592e2d76dafdb93069" target="_top" xlink:title="qtile">
<polygon fill="white" stroke="black" points="283,-190.5 283,-209.5 318,-209.5 318,-190.5 283,-190.5"/>
<text text-anchor="middle" x="300.5" y="-197.5" font-family="Helvetica,sans-Serif" font-size="10.00">qtile</text>
</a>
</g>
</g>
<!-- Node8&#45;&gt;Node11 -->
<g id="edge12" class="edge"><title>Node8&#45;&gt;Node11</title>
<path fill="none" stroke="midnightblue" d="M242.678,-228.411C252.075,-223.712 263.527,-217.986 273.681,-212.909"/>
<polygon fill="midnightblue" stroke="midnightblue" points="275.531,-215.898 282.91,-208.295 272.4,-209.637 275.531,-215.898"/>
</g>
<!-- Node9&#45;&gt;Node10 -->
<g id="edge11" class="edge"><title>Node9&#45;&gt;Node10</title>
<path fill="none" stroke="midnightblue" d="M322.22,-501.099C329.702,-500.052 338.534,-498.815 347.539,-497.555"/>
<polygon fill="midnightblue" stroke="midnightblue" points="348.298,-500.983 357.716,-496.13 347.327,-494.05 348.298,-500.983"/>
</g>
<!-- Node11&#45;&gt;Node3 -->
<g id="edge14" class="edge"><title>Node11&#45;&gt;Node3</title>
<path fill="none" stroke="midnightblue" d="M318.013,-196.863C331.519,-194.296 351.059,-190.584 367.84,-187.395"/>
<polygon fill="midnightblue" stroke="midnightblue" points="368.682,-190.798 377.853,-185.493 367.375,-183.921 368.682,-190.798"/>
</g>
<!-- Node11&#45;&gt;Node7 -->
<g id="edge13" class="edge"><title>Node11&#45;&gt;Node7</title>
<path fill="none" stroke="midnightblue" d="M311.235,-209.611C315.009,-213.757 319.11,-218.836 322,-224 347.33,-269.257 323.171,-296.572 358,-335 361.352,-338.698 365.552,-341.71 370.012,-344.153"/>
<polygon fill="midnightblue" stroke="midnightblue" points="368.792,-347.443 379.343,-348.407 371.696,-341.074 368.792,-347.443"/>
</g>
<!-- Node12&#45;&gt;Node3 -->
<g id="edge19" class="edge"><title>Node12&#45;&gt;Node3</title>
<path fill="none" stroke="midnightblue" d="M231.611,-380.477C259.353,-347.903 350.72,-240.624 386.727,-198.346"/>
<polygon fill="midnightblue" stroke="midnightblue" points="389.522,-200.462 393.342,-190.579 384.193,-195.923 389.522,-200.462"/>
</g>
<!-- Node12&#45;&gt;Node7 -->
<g id="edge28" class="edge"><title>Node12&#45;&gt;Node7</title>
<path fill="none" stroke="midnightblue" d="M243.146,-386.331C263.043,-382.586 294.693,-376.553 322,-371 337.582,-367.832 354.845,-364.16 369.293,-361.041"/>
<polygon fill="midnightblue" stroke="midnightblue" points="370.219,-364.421 379.251,-358.883 368.736,-357.58 370.219,-364.421"/>
</g>
<!-- Node12&#45;&gt;Node10 -->
<g id="edge29" class="edge"><title>Node12&#45;&gt;Node10</title>
<path fill="none" stroke="midnightblue" d="M230.7,-399.818C240.383,-412.383 258.743,-434.068 279,-447 300.514,-460.734 326.965,-470.732 349.775,-477.611"/>
<polygon fill="midnightblue" stroke="midnightblue" points="349.056,-481.046 359.635,-480.462 351.001,-474.322 349.056,-481.046"/>
</g>
<!-- Node13 -->
<g id="node13" class="node"><title>Node13</title>
<g id="a_node13"><a xlink:href="../../d2/d31/itm_8cpp.html#a61774c377cce1be80117b174ac61eef2" target="_top" xlink:title="adiff">
<polygon fill="white" stroke="black" points="283,-532.5 283,-551.5 318,-551.5 318,-532.5 283,-532.5"/>
<text text-anchor="middle" x="300.5" y="-539.5" font-family="Helvetica,sans-Serif" font-size="10.00">adiff</text>
</a>
</g>
</g>
<!-- Node12&#45;&gt;Node13 -->
<g id="edge20" class="edge"><title>Node12&#45;&gt;Node13</title>
<path fill="none" stroke="midnightblue" d="M226.005,-399.725C232.242,-422.707 250.074,-481.555 279,-523 279.437,-523.627 279.899,-524.248 280.379,-524.863"/>
<polygon fill="midnightblue" stroke="midnightblue" points="277.953,-527.394 287.332,-532.321 283.073,-522.62 277.953,-527.394"/>
</g>
<!-- Node16 -->
<g id="node16" class="node"><title>Node16</title>
<g id="a_node16"><a xlink:href="../../d2/d31/itm_8cpp.html#a404799cf89ce54ce7b92e13ad355ad85" target="_top" xlink:title="alos">
<polygon fill="white" stroke="black" points="283,-342.5 283,-361.5 318,-361.5 318,-342.5 283,-342.5"/>
<text text-anchor="middle" x="300.5" y="-349.5" font-family="Helvetica,sans-Serif" font-size="10.00">alos</text>
</a>
</g>
</g>
<!-- Node12&#45;&gt;Node16 -->
<g id="edge24" class="edge"><title>Node12&#45;&gt;Node16</title>
<path fill="none" stroke="midnightblue" d="M242.678,-380.411C252.075,-375.712 263.527,-369.986 273.681,-364.909"/>
<polygon fill="midnightblue" stroke="midnightblue" points="275.531,-367.898 282.91,-360.295 272.4,-361.637 275.531,-367.898"/>
</g>
<!-- Node18 -->
<g id="node18" class="node"><title>Node18</title>
<g id="a_node18"><a xlink:href="../../d2/d31/itm_8cpp.html#a74cbbcd996594f97dd6088dbbaff27c7" target="_top" xlink:title="ascat">
<polygon fill="white" stroke="black" points="280,-418.5 280,-437.5 321,-437.5 321,-418.5 280,-418.5"/>
<text text-anchor="middle" x="300.5" y="-425.5" font-family="Helvetica,sans-Serif" font-size="10.00">ascat</text>
</a>
</g>
</g>
<!-- Node12&#45;&gt;Node18 -->
<g id="edge30" class="edge"><title>Node12&#45;&gt;Node18</title>
<path fill="none" stroke="midnightblue" d="M242.678,-399.589C251.319,-403.909 261.697,-409.098 271.205,-413.853"/>
<polygon fill="midnightblue" stroke="midnightblue" points="269.819,-417.072 280.328,-418.414 272.949,-410.811 269.819,-417.072"/>
</g>
<!-- Node13&#45;&gt;Node7 -->
<g id="edge21" class="edge"><title>Node13&#45;&gt;Node7</title>
<path fill="none" stroke="midnightblue" d="M314.454,-532.151C317.291,-529.456 320.032,-526.346 322,-523 356.106,-465.024 316.158,-428.666 358,-376 361.336,-371.801 365.687,-368.332 370.345,-365.49"/>
<polygon fill="midnightblue" stroke="midnightblue" points="372.213,-368.465 379.495,-360.769 369.003,-362.244 372.213,-368.465"/>
</g>
<!-- Node14 -->
<g id="node14" class="node"><title>Node14</title>
<g id="a_node14"><a xlink:href="../../d2/d31/itm_8cpp.html#a58865d6a14f0fb4c0da66d610f830cdb" target="_top" xlink:title="fht">
<polygon fill="white" stroke="black" points="388,-565.5 388,-584.5 417,-584.5 417,-565.5 388,-565.5"/>
<text text-anchor="middle" x="402.5" y="-572.5" font-family="Helvetica,sans-Serif" font-size="10.00">fht</text>
</a>
</g>
</g>
<!-- Node13&#45;&gt;Node14 -->
<g id="edge22" class="edge"><title>Node13&#45;&gt;Node14</title>
<path fill="none" stroke="midnightblue" d="M318.013,-547.449C334.413,-552.861 359.707,-561.208 378.158,-567.297"/>
<polygon fill="midnightblue" stroke="midnightblue" points="377.264,-570.688 387.857,-570.498 379.458,-564.04 377.264,-570.688"/>
</g>
<!-- Node15 -->
<g id="node15" class="node"><title>Node15</title>
<g id="a_node15"><a xlink:href="../../d2/d31/itm_8cpp.html#a133ac157c106bdbab35606739556ed65" target="_top" xlink:title="aknfe">
<polygon fill="white" stroke="black" points="382,-527.5 382,-546.5 423,-546.5 423,-527.5 382,-527.5"/>
<text text-anchor="middle" x="402.5" y="-534.5" font-family="Helvetica,sans-Serif" font-size="10.00">aknfe</text>
</a>
</g>
</g>
<!-- Node13&#45;&gt;Node15 -->
<g id="edge23" class="edge"><title>Node13&#45;&gt;Node15</title>
<path fill="none" stroke="midnightblue" d="M318.013,-541.174C332.53,-540.449 354.017,-539.374 371.557,-538.497"/>
<polygon fill="midnightblue" stroke="midnightblue" points="372.057,-541.977 381.87,-537.982 371.708,-534.985 372.057,-541.977"/>
</g>
<!-- Node16&#45;&gt;Node3 -->
<g id="edge25" class="edge"><title>Node16&#45;&gt;Node3</title>
<path fill="none" stroke="midnightblue" d="M310.776,-342.103C314.48,-337.914 318.652,-332.88 322,-328 351.823,-284.532 379.358,-228.721 392.831,-199.981"/>
<polygon fill="midnightblue" stroke="midnightblue" points="396.108,-201.235 397.137,-190.69 389.756,-198.292 396.108,-201.235"/>
</g>
<!-- Node16&#45;&gt;Node7 -->
<g id="edge26" class="edge"><title>Node16&#45;&gt;Node7</title>
<path fill="none" stroke="midnightblue" d="M318.013,-352.33C331.887,-352.608 352.127,-353.013 369.203,-353.354"/>
<polygon fill="midnightblue" stroke="midnightblue" points="369.274,-356.856 379.342,-353.557 369.414,-349.857 369.274,-356.856"/>
</g>
<!-- Node17 -->
<g id="node17" class="node"><title>Node17</title>
<g id="a_node17"><a xlink:href="../../d2/d31/itm_8cpp.html#aea4c472ad2b67e25eefe72767a817667" target="_top" xlink:title="abq_alos">
<polygon fill="white" stroke="black" points="374.5,-306.5 374.5,-325.5 430.5,-325.5 430.5,-306.5 374.5,-306.5"/>
<text text-anchor="middle" x="402.5" y="-313.5" font-family="Helvetica,sans-Serif" font-size="10.00">abq_alos</text>
</a>
</g>
</g>
<!-- Node16&#45;&gt;Node17 -->
<g id="edge27" class="edge"><title>Node16&#45;&gt;Node17</title>
<path fill="none" stroke="midnightblue" d="M318.013,-346.055C330.784,-341.458 348.95,-334.918 365.077,-329.112"/>
<polygon fill="midnightblue" stroke="midnightblue" points="366.565,-332.297 374.788,-325.616 364.194,-325.71 366.565,-332.297"/>
</g>
<!-- Node18&#45;&gt;Node3 -->
<g id="edge31" class="edge"><title>Node18&#45;&gt;Node3</title>
<path fill="none" stroke="midnightblue" d="M305.42,-418.317C320.324,-381.506 373.631,-249.838 393.744,-200.158"/>
<polygon fill="midnightblue" stroke="midnightblue" points="397.098,-201.198 397.607,-190.616 390.61,-198.571 397.098,-201.198"/>
</g>
<!-- Node18&#45;&gt;Node7 -->
<g id="edge32" class="edge"><title>Node18&#45;&gt;Node7</title>
<path fill="none" stroke="midnightblue" d="M310.414,-418.313C321.013,-407.166 339.593,-388.758 358,-376 361.965,-373.252 366.32,-370.637 370.696,-368.232"/>
<polygon fill="midnightblue" stroke="midnightblue" points="372.326,-371.33 379.589,-363.615 369.101,-365.117 372.326,-371.33"/>
</g>
<!-- Node18&#45;&gt;Node10 -->
<g id="edge34" class="edge"><title>Node18&#45;&gt;Node10</title>
<path fill="none" stroke="midnightblue" d="M317.125,-437.688C333.27,-447.697 358.682,-463.453 377.402,-475.059"/>
<polygon fill="midnightblue" stroke="midnightblue" points="375.641,-478.086 385.985,-480.381 379.33,-472.136 375.641,-478.086"/>
</g>
<!-- Node19 -->
<g id="node19" class="node"><title>Node19</title>
<g id="a_node19"><a xlink:href="../../d2/d31/itm_8cpp.html#a8e415ee823bbb4b0da13d5f81f042d7f" target="_top" xlink:title="h0f">
<polygon fill="white" stroke="black" points="387.5,-423.5 387.5,-442.5 417.5,-442.5 417.5,-423.5 387.5,-423.5"/>
<text text-anchor="middle" x="402.5" y="-430.5" font-family="Helvetica,sans-Serif" font-size="10.00">h0f</text>
</a>
</g>
</g>
<!-- Node18&#45;&gt;Node19 -->
<g id="edge33" class="edge"><title>Node18&#45;&gt;Node19</title>
<path fill="none" stroke="midnightblue" d="M321.257,-428.988C337.226,-429.786 359.787,-430.914 376.921,-431.771"/>
<polygon fill="midnightblue" stroke="midnightblue" points="377.111,-435.285 387.274,-432.289 377.461,-428.294 377.111,-435.285"/>
</g>
<!-- Node20 -->
<g id="node20" class="node"><title>Node20</title>
<g id="a_node20"><a xlink:href="../../d2/d31/itm_8cpp.html#a5cd3659f451452a38a465a50992b9e7c" target="_top" xlink:title="ahd">
<polygon fill="white" stroke="black" points="386.5,-385.5 386.5,-404.5 418.5,-404.5 418.5,-385.5 386.5,-385.5"/>
<text text-anchor="middle" x="402.5" y="-392.5" font-family="Helvetica,sans-Serif" font-size="10.00">ahd</text>
</a>
</g>
</g>
<!-- Node18&#45;&gt;Node20 -->
<g id="edge35" class="edge"><title>Node18&#45;&gt;Node20</title>
<path fill="none" stroke="midnightblue" d="M321.257,-421.48C337.095,-416.254 359.418,-408.887 376.499,-403.25"/>
<polygon fill="midnightblue" stroke="midnightblue" points="377.953,-406.456 386.353,-399.999 375.76,-399.809 377.953,-406.456"/>
</g>
<!-- Node21&#45;&gt;Node3 -->
<g id="edge37" class="edge"><title>Node21&#45;&gt;Node3</title>
<path fill="none" stroke="midnightblue" d="M164.632,-55.1578C195.978,-68.8167 265.706,-100.008 322,-131 341.701,-141.846 363.251,-155.519 378.938,-165.825"/>
<polygon fill="midnightblue" stroke="midnightblue" points="377.17,-168.851 387.439,-171.456 381.036,-163.016 377.17,-168.851"/>
</g>
<!-- Node22 -->
<g id="node22" class="node"><title>Node22</title>
<g id="a_node22"><a xlink:href="../../d2/d31/itm_8cpp.html#acc398b6d1b1334689f775af613edb43f" target="_top" xlink:title="curve">
<polygon fill="white" stroke="black" points="202,-0.5 202,-19.5 243,-19.5 243,-0.5 202,-0.5"/>
<text text-anchor="middle" x="222.5" y="-7.5" font-family="Helvetica,sans-Serif" font-size="10.00">curve</text>
</a>
</g>
</g>
<!-- Node21&#45;&gt;Node22 -->
<g id="edge38" class="edge"><title>Node21&#45;&gt;Node22</title>
<path fill="none" stroke="midnightblue" d="M164.678,-39.3772C173.344,-34.8967 184.159,-29.3057 194.02,-24.2073"/>
<polygon fill="midnightblue" stroke="midnightblue" points="195.806,-27.224 203.082,-19.5223 192.591,-21.0059 195.806,-27.224"/>
</g>
</g>
</svg>
        <g id="navigator" transform="translate(0 0)" fill="#404254">
                <rect fill="#f2f5e9" fill-opacity="0.5" stroke="#606060" stroke-width=".5" x="0" y="0" width="60" height="60"/>
                <use id="zoomplus" xlink:href="#zoomPlus" x="17" y="9" onmousedown="handleZoom(evt,'in')"/>
                <use id="zoomminus" xlink:href="#zoomMin" x="42" y="9" onmousedown="handleZoom(evt,'out')"/>
                <use id="reset" xlink:href="#resetDef" x="30" y="36" onmousedown="handleReset()"/>
                <g id="arrowUp" xlink:href="#dirArrow" transform="translate(30 24)" onmousedown="handlePan(0,-1)">
                  <use xlink:href="#rim" fill="#404040">
                        <set attributeName="fill" to="#808080" begin="arrowUp.mouseover" end="arrowUp.mouseout"/>
                  </use>
                  <path fill="none" stroke="white" stroke-width="1.5" d="M0,-3.0v7 M-2.5,-0.5L0,-3.0L2.5,-0.5"/>
                </g>
                <g id="arrowRight" xlink:href="#dirArrow" transform="rotate(90) translate(36 -43)" onmousedown="handlePan(1,0)">
                  <use xlink:href="#rim" fill="#404040">
                        <set attributeName="fill" to="#808080" begin="arrowRight.mouseover" end="arrowRight.mouseout"/>
                  </use>
                  <path fill="none" stroke="white" stroke-width="1.5" d="M0,-3.0v7 M-2.5,-0.5L0,-3.0L2.5,-0.5"/>
                </g>
                <g id="arrowDown" xlink:href="#dirArrow" transform="rotate(180) translate(-30 -48)" onmousedown="handlePan(0,1)">
                  <use xlink:href="#rim" fill="#404040">
                        <set attributeName="fill" to="#808080" begin="arrowDown.mouseover" end="arrowDown.mouseout"/>
                  </use>
                  <path fill="none" stroke="white" stroke-width="1.5" d="M0,-3.0v7 M-2.5,-0.5L0,-3.0L2.5,-0.5"/>
                </g>
                <g id="arrowLeft" xlink:href="#dirArrow" transform="rotate(270) translate(-36 17)" onmousedown="handlePan(-1,0)">
                  <use xlink:href="#rim" fill="#404040">
                        <set attributeName="fill" to="#808080" begin="arrowLeft.mouseover" end="arrowLeft.mouseout"/>
                  </use>
                  <path fill="none" stroke="white" stroke-width="1.5" d="M0,-3.0v7 M-2.5,-0.5L0,-3.0L2.5,-0.5"/>
                </g>
        </g>
        <svg viewBox="0 0 15 15" width="100%" height="30px" preserveAspectRatio="xMaxYMin meet">
         <g id="arrow_out" transform="scale(0.3 0.3)">
          <a xlink:href="itm_8h_a3d6220d50384cf3904089e8320ff6617_cgraph_org.svg" target="_base">
           <rect id="button" ry="5" rx="5" y="6" x="6" height="38" width="38"
                fill="#f2f5e9" fill-opacity="0.5" stroke="#606060" stroke-width="1.0"/>
           <path id="arrow"
             d="M 11.500037,31.436501 C 11.940474,20.09759 22.043105,11.32322 32.158766,21.979434 L 37.068811,17.246167 C 37.068811,17.246167 37.088388,32 37.088388,32 L 22.160133,31.978069 C 22.160133,31.978069 26.997745,27.140456 26.997745,27.140456 C 18.528582,18.264221 13.291696,25.230495 11.500037,31.436501 z"
             style="fill:#404040;"/>
          </a>
         </g>
        </svg>
</svg>
