<?xml version="1.0" encoding="UTF-8" standalone="no"?>
<!DOCTYPE svg PUBLIC "-//W3C//DTD SVG 1.1//EN"
 "http://www.w3.org/Graphics/SVG/1.1/DTD/svg11.dtd">
<!-- Generated by graphviz version 2.38.0 (20140413.2041)
 -->
<!-- Title: point_to_point Pages: 1 -->
<!--zoomable 593 -->
<svg id="main" version="1.1" xmlns="http://www.w3.org/2000/svg" xmlns:xlink="http://www.w3.org/1999/xlink" xml:space="preserve" onload="init(evt)">
<style type="text/css"><![CDATA[
.edge:hover path { stroke: red; }
.edge:hover polygon { stroke: red; fill: red; }
]]></style>
<script type="text/javascript"><![CDATA[
var edges = document.getElementsByTagName('g');
if (edges && edges.length) {
  for (var i=0;i<edges.length;i++) {
    if (edges[i].id.substr(0,4)=='edge') {
      edges[i].setAttribute('class','edge');
    }
  }
}
]]></script>
        <defs>
                <circle id="rim" cx="0" cy="0" r="7"/>
                <circle id="rim2" cx="0" cy="0" r="3.5"/>
                <g id="zoomPlus">
                        <use xlink:href="#rim" fill="#404040">
                                <set attributeName="fill" to="#808080" begin="zoomplus.mouseover" end="zoomplus.mouseout"/>
                        </use>
                        <path d="M-4,0h8M0,-4v8" fill="none" stroke="white" stroke-width="1.5" pointer-events="none"/>
                </g>
                <g id="zoomMin">
                        <use xlink:href="#rim" fill="#404040">
                                <set attributeName="fill" to="#808080" begin="zoomminus.mouseover" end="zoomminus.mouseout"/>
                        </use>
                        <path d="M-4,0h8" fill="none" stroke="white" stroke-width="1.5" pointer-events="none"/>
                </g>
                <g id="dirArrow">
                        <path fill="none" stroke="white" stroke-width="1.5" d="M0,-3.0v7 M-2.5,-0.5L0,-3.0L2.5,-0.5"/>
                </g>
               <g id="resetDef">
                       <use xlink:href="#rim2" fill="#404040">
                               <set attributeName="fill" to="#808080" begin="reset.mouseover" end="reset.mouseout"/>
                       </use>
               </g>
        </defs>

<script type="text/javascript">
var viewWidth = 440;
var viewHeight = 593;
var sectionId = 'dynsection-2';
</script>
<script xlink:href="../../svgpan.js"/>
<svg id="graph" class="graph">
<g id="viewport">
<title>point_to_point</title>
<polygon fill="white" stroke="none" points="-4,4 -4,-589 436,-589 436,4 -4,4"/>
<!-- Node1 -->
<g id="node1" class="node"><title>Node1</title>
<polygon fill="#bfbfbf" stroke="black" points="0,-95.5 0,-114.5 77,-114.5 77,-95.5 0,-95.5"/>
<text text-anchor="middle" x="38.5" y="-102.5" font-family="Helvetica,sans-Serif" font-size="10.00">point_to_point</text>
</g>
<!-- Node2 -->
<g id="node2" class="node"><title>Node2</title>
<g id="a_node2"><a xlink:href="../../d2/d31/itm_8cpp.html#ad0a12435e029210dab38fce002347a31" target="_top" xlink:title="qerfi">
<polygon fill="white" stroke="black" points="114.5,-76.5 114.5,-95.5 149.5,-95.5 149.5,-76.5 114.5,-76.5"/>
<text text-anchor="middle" x="132" y="-83.5" font-family="Helvetica,sans-Serif" font-size="10.00">qerfi</text>
</a>
</g>
</g>
<!-- Node1&#45;&gt;Node2 -->
<g id="edge1" class="edge"><title>Node1&#45;&gt;Node2</title>
<path fill="none" stroke="midnightblue" d="M77.2448,-97.1623C86.2443,-95.2935 95.6703,-93.3362 104.071,-91.5918"/>
<polygon fill="midnightblue" stroke="midnightblue" points="104.975,-94.9789 114.054,-89.5188 103.551,-88.1251 104.975,-94.9789"/>
</g>
<!-- Node4 -->
<g id="node4" class="node"><title>Node4</title>
<g id="a_node4"><a xlink:href="../../d2/d31/itm_8cpp.html#a35bdc04d015dd4e8c83f0ff5ffb4966a" target="_top" xlink:title="qlrps">
<polygon fill="white" stroke="black" points="113,-114.5 113,-133.5 151,-133.5 151,-114.5 113,-114.5"/>
<text text-anchor="middle" x="132" y="-121.5" font-family="Helvetica,sans-Serif" font-size="10.00">qlrps</text>
</a>
</g>
</g>
<!-- Node1&#45;&gt;Node4 -->
<g id="edge3" class="edge"><title>Node1&#45;&gt;Node4</title>
<path fill="none" stroke="midnightblue" d="M77.2448,-112.838C85.7336,-114.6 94.6018,-116.442 102.631,-118.109"/>
<polygon fill="midnightblue" stroke="midnightblue" points="102.098,-121.573 112.601,-120.179 103.521,-114.719 102.098,-121.573"/>
</g>
<!-- Node5 -->
<g id="node5" class="node"><title>Node5</title>
<g id="a_node5"><a xlink:href="../../d2/d31/itm_8cpp.html#ae682440b4eaee05406c08f8ae48e60d8" target="_top" xlink:title="qlrpfl">
<polygon fill="white" stroke="black" points="113,-247.5 113,-266.5 151,-266.5 151,-247.5 113,-247.5"/>
<text text-anchor="middle" x="132" y="-254.5" font-family="Helvetica,sans-Serif" font-size="10.00">qlrpfl</text>
</a>
</g>
</g>
<!-- Node1&#45;&gt;Node5 -->
<g id="edge4" class="edge"><title>Node1&#45;&gt;Node5</title>
<path fill="none" stroke="midnightblue" d="M45.2237,-114.508C60.1154,-139.246 100.271,-205.952 119.897,-238.556"/>
<polygon fill="midnightblue" stroke="midnightblue" points="117.122,-240.733 125.278,-247.495 123.12,-237.123 117.122,-240.733"/>
</g>
<!-- Node21 -->
<g id="node21" class="node"><title>Node21</title>
<g id="a_node21"><a xlink:href="../../d2/d31/itm_8cpp.html#af10b92806af5d5946a8332763321e2df" target="_top" xlink:title="avar">
<polygon fill="white" stroke="black" points="114.5,-38.5 114.5,-57.5 149.5,-57.5 149.5,-38.5 114.5,-38.5"/>
<text text-anchor="middle" x="132" y="-45.5" font-family="Helvetica,sans-Serif" font-size="10.00">avar</text>
</a>
</g>
</g>
<!-- Node1&#45;&gt;Node21 -->
<g id="edge36" class="edge"><title>Node1&#45;&gt;Node21</title>
<path fill="none" stroke="midnightblue" d="M55.0217,-95.3307C69.3045,-86.4333 90.7018,-73.1038 107.153,-62.8554"/>
<polygon fill="midnightblue" stroke="midnightblue" points="109.07,-65.7847 115.708,-57.5265 105.369,-59.8433 109.07,-65.7847"/>
</g>
<!-- Node3 -->
<g id="node3" class="node"><title>Node3</title>
<g id="a_node3"><a xlink:href="../../d2/d31/itm_8cpp.html#aef74668a97df8c1c4614043e233d38fe" target="_top" xlink:title="mymax">
<polygon fill="white" stroke="black" points="363,-171.5 363,-190.5 412,-190.5 412,-171.5 363,-171.5"/>
<text text-anchor="middle" x="387.5" y="-178.5" font-family="Helvetica,sans-Serif" font-size="10.00">mymax</text>
</a>
</g>
</g>
<!-- Node2&#45;&gt;Node3 -->
<g id="edge2" class="edge"><title>Node2&#45;&gt;Node3</title>
<path fill="none" stroke="midnightblue" d="M149.633,-92.2332C190.8,-107.661 298.079,-147.864 353.016,-168.452"/>
<polygon fill="midnightblue" stroke="midnightblue" points="352.045,-171.825 362.637,-172.057 354.501,-165.271 352.045,-171.825"/>
</g>
<!-- Node5&#45;&gt;Node3 -->
<g id="edge17" class="edge"><title>Node5&#45;&gt;Node3</title>
<path fill="none" stroke="midnightblue" d="M136.856,-247.481C144.055,-231.018 161.187,-197.416 187,-181 237.489,-148.89 310.686,-160.118 352.951,-170.814"/>
<polygon fill="midnightblue" stroke="midnightblue" points="352.18,-174.231 362.744,-173.425 353.983,-167.467 352.18,-174.231"/>
</g>
<!-- Node6 -->
<g id="node6" class="node"><title>Node6</title>
<g id="a_node6"><a xlink:href="../../d2/d31/itm_8cpp.html#a33721834e531cc713891ff5da4ab5d1f" target="_top" xlink:title="hzns">
<polygon fill="white" stroke="black" points="188.5,-190.5 188.5,-209.5 226.5,-209.5 226.5,-190.5 188.5,-190.5"/>
<text text-anchor="middle" x="207.5" y="-197.5" font-family="Helvetica,sans-Serif" font-size="10.00">hzns</text>
</a>
</g>
</g>
<!-- Node5&#45;&gt;Node6 -->
<g id="edge5" class="edge"><title>Node5&#45;&gt;Node6</title>
<path fill="none" stroke="midnightblue" d="M145.468,-247.331C156.623,-238.68 173.179,-225.841 186.234,-215.716"/>
<polygon fill="midnightblue" stroke="midnightblue" points="188.459,-218.421 194.216,-209.526 184.169,-212.889 188.459,-218.421"/>
</g>
<!-- Node7 -->
<g id="node7" class="node"><title>Node7</title>
<g id="a_node7"><a xlink:href="../../d2/d31/itm_8cpp.html#ae383616ab74473e2622ac352721e342f" target="_top" xlink:title="mymin">
<polygon fill="white" stroke="black" points="364.5,-344.5 364.5,-363.5 410.5,-363.5 410.5,-344.5 364.5,-344.5"/>
<text text-anchor="middle" x="387.5" y="-351.5" font-family="Helvetica,sans-Serif" font-size="10.00">mymin</text>
</a>
</g>
</g>
<!-- Node5&#45;&gt;Node7 -->
<g id="edge6" class="edge"><title>Node5&#45;&gt;Node7</title>
<path fill="none" stroke="midnightblue" d="M151.231,-263.976C193.981,-280.334 301.11,-321.326 354.796,-341.868"/>
<polygon fill="midnightblue" stroke="midnightblue" points="353.58,-345.151 364.17,-345.456 356.081,-338.613 353.58,-345.151"/>
</g>
<!-- Node8 -->
<g id="node8" class="node"><title>Node8</title>
<g id="a_node8"><a xlink:href="../../d2/d31/itm_8cpp.html#a45e678693240356cd41b59d8edb5bb12" target="_top" xlink:title="d1thx">
<polygon fill="white" stroke="black" points="187,-228.5 187,-247.5 228,-247.5 228,-228.5 187,-228.5"/>
<text text-anchor="middle" x="207.5" y="-235.5" font-family="Helvetica,sans-Serif" font-size="10.00">d1thx</text>
</a>
</g>
</g>
<!-- Node5&#45;&gt;Node8 -->
<g id="edge7" class="edge"><title>Node5&#45;&gt;Node8</title>
<path fill="none" stroke="midnightblue" d="M151.169,-252.303C158.991,-250.281 168.337,-247.865 177.101,-245.6"/>
<polygon fill="midnightblue" stroke="midnightblue" points="178.191,-248.933 186.996,-243.042 176.439,-242.156 178.191,-248.933"/>
</g>
<!-- Node9 -->
<g id="node9" class="node"><title>Node9</title>
<g id="a_node9"><a xlink:href="../../d2/d31/itm_8cpp.html#a95a65538c0942d9e797bc3ea36ab7f08" target="_top" xlink:title="z1sq1">
<polygon fill="white" stroke="black" points="264,-494.5 264,-513.5 307,-513.5 307,-494.5 264,-494.5"/>
<text text-anchor="middle" x="285.5" y="-501.5" font-family="Helvetica,sans-Serif" font-size="10.00">z1sq1</text>
</a>
</g>
</g>
<!-- Node5&#45;&gt;Node9 -->
<g id="edge15" class="edge"><title>Node5&#45;&gt;Node9</title>
<path fill="none" stroke="midnightblue" d="M134.813,-266.571C139.876,-291.603 155.875,-360.427 187,-409 207.712,-441.323 241.395,-470.875 263.249,-488.159"/>
<polygon fill="midnightblue" stroke="midnightblue" points="261.22,-491.015 271.269,-494.372 265.506,-485.481 261.22,-491.015"/>
</g>
<!-- Node10 -->
<g id="node10" class="node"><title>Node10</title>
<g id="a_node10"><a xlink:href="../../d2/d31/itm_8cpp.html#ae61eab5929102f86b606d9007f0cc139" target="_top" xlink:title="FORTRAN_DIM">
<polygon fill="white" stroke="black" points="343,-480.5 343,-499.5 432,-499.5 432,-480.5 343,-480.5"/>
<text text-anchor="middle" x="387.5" y="-487.5" font-family="Helvetica,sans-Serif" font-size="10.00">FORTRAN_DIM</text>
</a>
</g>
</g>
<!-- Node5&#45;&gt;Node10 -->
<g id="edge16" class="edge"><title>Node5&#45;&gt;Node10</title>
<path fill="none" stroke="midnightblue" d="M133.274,-266.625C135.15,-311.474 149.81,-500.331 264,-561 280.877,-569.967 289.684,-569.086 307,-561 329.583,-550.454 324.308,-534.488 343,-518 348.34,-513.29 354.544,-508.811 360.566,-504.873"/>
<polygon fill="midnightblue" stroke="midnightblue" points="362.504,-507.789 369.135,-499.526 358.798,-501.851 362.504,-507.789"/>
</g>
<!-- Node12 -->
<g id="node12" class="node"><title>Node12</title>
<g id="a_node12"><a xlink:href="../../d2/d31/itm_8cpp.html#a32289828f24201e9dde6140e27708d73" target="_top" xlink:title="lrprop">
<polygon fill="white" stroke="black" points="187,-380.5 187,-399.5 228,-399.5 228,-380.5 187,-380.5"/>
<text text-anchor="middle" x="207.5" y="-387.5" font-family="Helvetica,sans-Serif" font-size="10.00">lrprop</text>
</a>
</g>
</g>
<!-- Node5&#45;&gt;Node12 -->
<g id="edge18" class="edge"><title>Node5&#45;&gt;Node12</title>
<path fill="none" stroke="midnightblue" d="M138.286,-266.565C150.358,-288.41 180.137,-342.296 196.061,-371.11"/>
<polygon fill="midnightblue" stroke="midnightblue" points="193.163,-373.103 201.064,-380.163 199.29,-369.717 193.163,-373.103"/>
</g>
<!-- Node8&#45;&gt;Node3 -->
<g id="edge9" class="edge"><title>Node8&#45;&gt;Node3</title>
<path fill="none" stroke="midnightblue" d="M218.496,-228.41C221.57,-225.421 224.947,-222.096 228,-219 244.335,-202.435 242.629,-190.192 264,-181 292.16,-168.887 327.445,-170.415 352.904,-174.062"/>
<polygon fill="midnightblue" stroke="midnightblue" points="352.393,-177.525 362.823,-175.66 353.507,-170.614 352.393,-177.525"/>
</g>
<!-- Node8&#45;&gt;Node7 -->
<g id="edge8" class="edge"><title>Node8&#45;&gt;Node7</title>
<path fill="none" stroke="midnightblue" d="M228.01,-238.036C249.556,-239.058 284.205,-243.723 307,-262 335.224,-284.629 316.834,-310.02 343,-335 346.539,-338.379 350.777,-341.212 355.198,-343.572"/>
<polygon fill="midnightblue" stroke="midnightblue" points="353.818,-346.79 364.367,-347.772 356.733,-340.425 353.818,-346.79"/>
</g>
<!-- Node8&#45;&gt;Node9 -->
<g id="edge10" class="edge"><title>Node8&#45;&gt;Node9</title>
<path fill="none" stroke="midnightblue" d="M210.754,-247.666C217.791,-277.552 240.297,-371.022 264,-447 267.987,-459.781 273.079,-473.947 277.19,-484.959"/>
<polygon fill="midnightblue" stroke="midnightblue" points="273.951,-486.289 280.763,-494.403 280.498,-483.812 273.951,-486.289"/>
</g>
<!-- Node11 -->
<g id="node11" class="node"><title>Node11</title>
<g id="a_node11"><a xlink:href="../../d2/d31/itm_8cpp.html#a8ab54b7902d55b592e2d76dafdb93069" target="_top" xlink:title="qtile">
<polygon fill="white" stroke="black" points="268,-190.5 268,-209.5 303,-209.5 303,-190.5 268,-190.5"/>
<text text-anchor="middle" x="285.5" y="-197.5" font-family="Helvetica,sans-Serif" font-size="10.00">qtile</text>
</a>
</g>
</g>
<!-- Node8&#45;&gt;Node11 -->
<g id="edge12" class="edge"><title>Node8&#45;&gt;Node11</title>
<path fill="none" stroke="midnightblue" d="M227.678,-228.411C237.075,-223.712 248.527,-217.986 258.681,-212.909"/>
<polygon fill="midnightblue" stroke="midnightblue" points="260.531,-215.898 267.91,-208.295 257.4,-209.637 260.531,-215.898"/>
</g>
<!-- Node9&#45;&gt;Node10 -->
<g id="edge11" class="edge"><title>Node9&#45;&gt;Node10</title>
<path fill="none" stroke="midnightblue" d="M307.22,-501.099C314.702,-500.052 323.534,-498.815 332.539,-497.555"/>
<polygon fill="midnightblue" stroke="midnightblue" points="333.298,-500.983 342.716,-496.13 332.327,-494.05 333.298,-500.983"/>
</g>
<!-- Node11&#45;&gt;Node3 -->
<g id="edge14" class="edge"><title>Node11&#45;&gt;Node3</title>
<path fill="none" stroke="midnightblue" d="M303.013,-196.863C316.519,-194.296 336.059,-190.584 352.84,-187.395"/>
<polygon fill="midnightblue" stroke="midnightblue" points="353.682,-190.798 362.853,-185.493 352.375,-183.921 353.682,-190.798"/>
</g>
<!-- Node11&#45;&gt;Node7 -->
<g id="edge13" class="edge"><title>Node11&#45;&gt;Node7</title>
<path fill="none" stroke="midnightblue" d="M296.235,-209.611C300.009,-213.757 304.11,-218.836 307,-224 332.33,-269.257 308.171,-296.572 343,-335 346.352,-338.698 350.552,-341.71 355.012,-344.153"/>
<polygon fill="midnightblue" stroke="midnightblue" points="353.792,-347.443 364.343,-348.407 356.696,-341.074 353.792,-347.443"/>
</g>
<!-- Node12&#45;&gt;Node3 -->
<g id="edge19" class="edge"><title>Node12&#45;&gt;Node3</title>
<path fill="none" stroke="midnightblue" d="M216.611,-380.477C244.353,-347.903 335.72,-240.624 371.727,-198.346"/>
<polygon fill="midnightblue" stroke="midnightblue" points="374.522,-200.462 378.342,-190.579 369.193,-195.923 374.522,-200.462"/>
</g>
<!-- Node12&#45;&gt;Node7 -->
<g id="edge28" class="edge"><title>Node12&#45;&gt;Node7</title>
<path fill="none" stroke="midnightblue" d="M228.146,-386.331C248.043,-382.586 279.693,-376.553 307,-371 322.582,-367.832 339.845,-364.16 354.293,-361.041"/>
<polygon fill="midnightblue" stroke="midnightblue" points="355.219,-364.421 364.251,-358.883 353.736,-357.58 355.219,-364.421"/>
</g>
<!-- Node12&#45;&gt;Node10 -->
<g id="edge29" class="edge"><title>Node12&#45;&gt;Node10</title>
<path fill="none" stroke="midnightblue" d="M215.7,-399.818C225.383,-412.383 243.743,-434.068 264,-447 285.514,-460.734 311.965,-470.732 334.775,-477.611"/>
<polygon fill="midnightblue" stroke="midnightblue" points="334.056,-481.046 344.635,-480.462 336.001,-474.322 334.056,-481.046"/>
</g>
<!-- Node13 -->
<g id="node13" class="node"><title>Node13</title>
<g id="a_node13"><a xlink:href="../../d2/d31/itm_8cpp.html#a61774c377cce1be80117b174ac61eef2" target="_top" xlink:title="adiff">
<polygon fill="white" stroke="black" points="268,-532.5 268,-551.5 303,-551.5 303,-532.5 268,-532.5"/>
<text text-anchor="middle" x="285.5" y="-539.5" font-family="Helvetica,sans-Serif" font-size="10.00">adiff</text>
</a>
</g>
</g>
<!-- Node12&#45;&gt;Node13 -->
<g id="edge20" class="edge"><title>Node12&#45;&gt;Node13</title>
<path fill="none" stroke="midnightblue" d="M211.005,-399.725C217.242,-422.707 235.074,-481.555 264,-523 264.437,-523.627 264.899,-524.248 265.379,-524.863"/>
<polygon fill="midnightblue" stroke="midnightblue" points="262.953,-527.394 272.332,-532.321 268.073,-522.62 262.953,-527.394"/>
</g>
<!-- Node16 -->
<g id="node16" class="node"><title>Node16</title>
<g id="a_node16"><a xlink:href="../../d2/d31/itm_8cpp.html#a404799cf89ce54ce7b92e13ad355ad85" target="_top" xlink:title="alos">
<polygon fill="white" stroke="black" points="268,-342.5 268,-361.5 303,-361.5 303,-342.5 268,-342.5"/>
<text text-anchor="middle" x="285.5" y="-349.5" font-family="Helvetica,sans-Serif" font-size="10.00">alos</text>
</a>
</g>
</g>
<!-- Node12&#45;&gt;Node16 -->
<g id="edge24" class="edge"><title>Node12&#45;&gt;Node16</title>
<path fill="none" stroke="midnightblue" d="M227.678,-380.411C237.075,-375.712 248.527,-369.986 258.681,-364.909"/>
<polygon fill="midnightblue" stroke="midnightblue" points="260.531,-367.898 267.91,-360.295 257.4,-361.637 260.531,-367.898"/>
</g>
<!-- Node18 -->
<g id="node18" class="node"><title>Node18</title>
<g id="a_node18"><a xlink:href="../../d2/d31/itm_8cpp.html#a74cbbcd996594f97dd6088dbbaff27c7" target="_top" xlink:title="ascat">
<polygon fill="white" stroke="black" points="265,-418.5 265,-437.5 306,-437.5 306,-418.5 265,-418.5"/>
<text text-anchor="middle" x="285.5" y="-425.5" font-family="Helvetica,sans-Serif" font-size="10.00">ascat</text>
</a>
</g>
</g>
<!-- Node12&#45;&gt;Node18 -->
<g id="edge30" class="edge"><title>Node12&#45;&gt;Node18</title>
<path fill="none" stroke="midnightblue" d="M227.678,-399.589C236.319,-403.909 246.697,-409.098 256.205,-413.853"/>
<polygon fill="midnightblue" stroke="midnightblue" points="254.819,-417.072 265.328,-418.414 257.949,-410.811 254.819,-417.072"/>
</g>
<!-- Node13&#45;&gt;Node7 -->
<g id="edge21" class="edge"><title>Node13&#45;&gt;Node7</title>
<path fill="none" stroke="midnightblue" d="M299.454,-532.151C302.291,-529.456 305.032,-526.346 307,-523 341.106,-465.024 301.158,-428.666 343,-376 346.336,-371.801 350.687,-368.332 355.345,-365.49"/>
<polygon fill="midnightblue" stroke="midnightblue" points="357.213,-368.465 364.495,-360.769 354.003,-362.244 357.213,-368.465"/>
</g>
<!-- Node14 -->
<g id="node14" class="node"><title>Node14</title>
<g id="a_node14"><a xlink:href="../../d2/d31/itm_8cpp.html#a58865d6a14f0fb4c0da66d610f830cdb" target="_top" xlink:title="fht">
<polygon fill="white" stroke="black" points="373,-565.5 373,-584.5 402,-584.5 402,-565.5 373,-565.5"/>
<text text-anchor="middle" x="387.5" y="-572.5" font-family="Helvetica,sans-Serif" font-size="10.00">fht</text>
</a>
</g>
</g>
<!-- Node13&#45;&gt;Node14 -->
<g id="edge22" class="edge"><title>Node13&#45;&gt;Node14</title>
<path fill="none" stroke="midnightblue" d="M303.013,-547.449C319.413,-552.861 344.707,-561.208 363.158,-567.297"/>
<polygon fill="midnightblue" stroke="midnightblue" points="362.264,-570.688 372.857,-570.498 364.458,-564.04 362.264,-570.688"/>
</g>
<!-- Node15 -->
<g id="node15" class="node"><title>Node15</title>
<g id="a_node15"><a xlink:href="../../d2/d31/itm_8cpp.html#a133ac157c106bdbab35606739556ed65" target="_top" xlink:title="aknfe">
<polygon fill="white" stroke="black" points="367,-527.5 367,-546.5 408,-546.5 408,-527.5 367,-527.5"/>
<text text-anchor="middle" x="387.5" y="-534.5" font-family="Helvetica,sans-Serif" font-size="10.00">aknfe</text>
</a>
</g>
</g>
<!-- Node13&#45;&gt;Node15 -->
<g id="edge23" class="edge"><title>Node13&#45;&gt;Node15</title>
<path fill="none" stroke="midnightblue" d="M303.013,-541.174C317.53,-540.449 339.017,-539.374 356.557,-538.497"/>
<polygon fill="midnightblue" stroke="midnightblue" points="357.057,-541.977 366.87,-537.982 356.708,-534.985 357.057,-541.977"/>
</g>
<!-- Node16&#45;&gt;Node3 -->
<g id="edge25" class="edge"><title>Node16&#45;&gt;Node3</title>
<path fill="none" stroke="midnightblue" d="M295.776,-342.103C299.48,-337.914 303.652,-332.88 307,-328 336.823,-284.532 364.358,-228.721 377.831,-199.981"/>
<polygon fill="midnightblue" stroke="midnightblue" points="381.108,-201.235 382.137,-190.69 374.756,-198.292 381.108,-201.235"/>
</g>
<!-- Node16&#45;&gt;Node7 -->
<g id="edge26" class="edge"><title>Node16&#45;&gt;Node7</title>
<path fill="none" stroke="midnightblue" d="M303.013,-352.33C316.887,-352.608 337.127,-353.013 354.203,-353.354"/>
<polygon fill="midnightblue" stroke="midnightblue" points="354.274,-356.856 364.342,-353.557 354.414,-349.857 354.274,-356.856"/>
</g>
<!-- Node17 -->
<g id="node17" class="node"><title>Node17</title>
<g id="a_node17"><a xlink:href="../../d2/d31/itm_8cpp.html#aea4c472ad2b67e25eefe72767a817667" target="_top" xlink:title="abq_alos">
<polygon fill="white" stroke="black" points="359.5,-306.5 359.5,-325.5 415.5,-325.5 415.5,-306.5 359.5,-306.5"/>
<text text-anchor="middle" x="387.5" y="-313.5" font-family="Helvetica,sans-Serif" font-size="10.00">abq_alos</text>
</a>
</g>
</g>
<!-- Node16&#45;&gt;Node17 -->
<g id="edge27" class="edge"><title>Node16&#45;&gt;Node17</title>
<path fill="none" stroke="midnightblue" d="M303.013,-346.055C315.784,-341.458 333.95,-334.918 350.077,-329.112"/>
<polygon fill="midnightblue" stroke="midnightblue" points="351.565,-332.297 359.788,-325.616 349.194,-325.71 351.565,-332.297"/>
</g>
<!-- Node18&#45;&gt;Node3 -->
<g id="edge31" class="edge"><title>Node18&#45;&gt;Node3</title>
<path fill="none" stroke="midnightblue" d="M290.42,-418.317C305.324,-381.506 358.631,-249.838 378.744,-200.158"/>
<polygon fill="midnightblue" stroke="midnightblue" points="382.098,-201.198 382.607,-190.616 375.61,-198.571 382.098,-201.198"/>
</g>
<!-- Node18&#45;&gt;Node7 -->
<g id="edge32" class="edge"><title>Node18&#45;&gt;Node7</title>
<path fill="none" stroke="midnightblue" d="M295.414,-418.313C306.013,-407.166 324.593,-388.758 343,-376 346.965,-373.252 351.32,-370.637 355.696,-368.232"/>
<polygon fill="midnightblue" stroke="midnightblue" points="357.326,-371.33 364.589,-363.615 354.101,-365.117 357.326,-371.33"/>
</g>
<!-- Node18&#45;&gt;Node10 -->
<g id="edge34" class="edge"><title>Node18&#45;&gt;Node10</title>
<path fill="none" stroke="midnightblue" d="M302.125,-437.688C318.27,-447.697 343.682,-463.453 362.402,-475.059"/>
<polygon fill="midnightblue" stroke="midnightblue" points="360.641,-478.086 370.985,-480.381 364.33,-472.136 360.641,-478.086"/>
</g>
<!-- Node19 -->
<g id="node19" class="node"><title>Node19</title>
<g id="a_node19"><a xlink:href="../../d2/d31/itm_8cpp.html#a8e415ee823bbb4b0da13d5f81f042d7f" target="_top" xlink:title="h0f">
<polygon fill="white" stroke="black" points="372.5,-423.5 372.5,-442.5 402.5,-442.5 402.5,-423.5 372.5,-423.5"/>
<text text-anchor="middle" x="387.5" y="-430.5" font-family="Helvetica,sans-Serif" font-size="10.00">h0f</text>
</a>
</g>
</g>
<!-- Node18&#45;&gt;Node19 -->
<g id="edge33" class="edge"><title>Node18&#45;&gt;Node19</title>
<path fill="none" stroke="midnightblue" d="M306.257,-428.988C322.226,-429.786 344.787,-430.914 361.921,-431.771"/>
<polygon fill="midnightblue" stroke="midnightblue" points="362.111,-435.285 372.274,-432.289 362.461,-428.294 362.111,-435.285"/>
</g>
<!-- Node20 -->
<g id="node20" class="node"><title>Node20</title>
<g id="a_node20"><a xlink:href="../../d2/d31/itm_8cpp.html#a5cd3659f451452a38a465a50992b9e7c" target="_top" xlink:title="ahd">
<polygon fill="white" stroke="black" points="371.5,-385.5 371.5,-404.5 403.5,-404.5 403.5,-385.5 371.5,-385.5"/>
<text text-anchor="middle" x="387.5" y="-392.5" font-family="Helvetica,sans-Serif" font-size="10.00">ahd</text>
</a>
</g>
</g>
<!-- Node18&#45;&gt;Node20 -->
<g id="edge35" class="edge"><title>Node18&#45;&gt;Node20</title>
<path fill="none" stroke="midnightblue" d="M306.257,-421.48C322.095,-416.254 344.418,-408.887 361.499,-403.25"/>
<polygon fill="midnightblue" stroke="midnightblue" points="362.953,-406.456 371.353,-399.999 360.76,-399.809 362.953,-406.456"/>
</g>
<!-- Node21&#45;&gt;Node3 -->
<g id="edge37" class="edge"><title>Node21&#45;&gt;Node3</title>
<path fill="none" stroke="midnightblue" d="M149.632,-55.1578C180.978,-68.8167 250.706,-100.008 307,-131 326.701,-141.846 348.251,-155.519 363.938,-165.825"/>
<polygon fill="midnightblue" stroke="midnightblue" points="362.17,-168.851 372.439,-171.456 366.036,-163.016 362.17,-168.851"/>
</g>
<!-- Node22 -->
<g id="node22" class="node"><title>Node22</title>
<g id="a_node22"><a xlink:href="../../d2/d31/itm_8cpp.html#acc398b6d1b1334689f775af613edb43f" target="_top" xlink:title="curve">
<polygon fill="white" stroke="black" points="187,-0.5 187,-19.5 228,-19.5 228,-0.5 187,-0.5"/>
<text text-anchor="middle" x="207.5" y="-7.5" font-family="Helvetica,sans-Serif" font-size="10.00">curve</text>
</a>
</g>
</g>
<!-- Node21&#45;&gt;Node22 -->
<g id="edge38" class="edge"><title>Node21&#45;&gt;Node22</title>
<path fill="none" stroke="midnightblue" d="M149.678,-39.3772C158.344,-34.8967 169.159,-29.3057 179.02,-24.2073"/>
<polygon fill="midnightblue" stroke="midnightblue" points="180.806,-27.224 188.082,-19.5223 177.591,-21.0059 180.806,-27.224"/>
</g>
</g>
</svg>
        <g id="navigator" transform="translate(0 0)" fill="#404254">
                <rect fill="#f2f5e9" fill-opacity="0.5" stroke="#606060" stroke-width=".5" x="0" y="0" width="60" height="60"/>
                <use id="zoomplus" xlink:href="#zoomPlus" x="17" y="9" onmousedown="handleZoom(evt,'in')"/>
                <use id="zoomminus" xlink:href="#zoomMin" x="42" y="9" onmousedown="handleZoom(evt,'out')"/>
                <use id="reset" xlink:href="#resetDef" x="30" y="36" onmousedown="handleReset()"/>
                <g id="arrowUp" xlink:href="#dirArrow" transform="translate(30 24)" onmousedown="handlePan(0,-1)">
                  <use xlink:href="#rim" fill="#404040">
                        <set attributeName="fill" to="#808080" begin="arrowUp.mouseover" end="arrowUp.mouseout"/>
                  </use>
                  <path fill="none" stroke="white" stroke-width="1.5" d="M0,-3.0v7 M-2.5,-0.5L0,-3.0L2.5,-0.5"/>
                </g>
                <g id="arrowRight" xlink:href="#dirArrow" transform="rotate(90) translate(36 -43)" onmousedown="handlePan(1,0)">
                  <use xlink:href="#rim" fill="#404040">
                        <set attributeName="fill" to="#808080" begin="arrowRight.mouseover" end="arrowRight.mouseout"/>
                  </use>
                  <path fill="none" stroke="white" stroke-width="1.5" d="M0,-3.0v7 M-2.5,-0.5L0,-3.0L2.5,-0.5"/>
                </g>
                <g id="arrowDown" xlink:href="#dirArrow" transform="rotate(180) translate(-30 -48)" onmousedown="handlePan(0,1)">
                  <use xlink:href="#rim" fill="#404040">
                        <set attributeName="fill" to="#808080" begin="arrowDown.mouseover" end="arrowDown.mouseout"/>
                  </use>
                  <path fill="none" stroke="white" stroke-width="1.5" d="M0,-3.0v7 M-2.5,-0.5L0,-3.0L2.5,-0.5"/>
                </g>
                <g id="arrowLeft" xlink:href="#dirArrow" transform="rotate(270) translate(-36 17)" onmousedown="handlePan(-1,0)">
                  <use xlink:href="#rim" fill="#404040">
                        <set attributeName="fill" to="#808080" begin="arrowLeft.mouseover" end="arrowLeft.mouseout"/>
                  </use>
                  <path fill="none" stroke="white" stroke-width="1.5" d="M0,-3.0v7 M-2.5,-0.5L0,-3.0L2.5,-0.5"/>
                </g>
        </g>
        <svg viewBox="0 0 15 15" width="100%" height="30px" preserveAspectRatio="xMaxYMin meet">
         <g id="arrow_out" transform="scale(0.3 0.3)">
          <a xlink:href="itm_8h_aad6a3ed1b693ddfc2884c909e39d3989_cgraph_org.svg" target="_base">
           <rect id="button" ry="5" rx="5" y="6" x="6" height="38" width="38"
                fill="#f2f5e9" fill-opacity="0.5" stroke="#606060" stroke-width="1.0"/>
           <path id="arrow"
             d="M 11.500037,31.436501 C 11.940474,20.09759 22.043105,11.32322 32.158766,21.979434 L 37.068811,17.246167 C 37.068811,17.246167 37.088388,32 37.088388,32 L 22.160133,31.978069 C 22.160133,31.978069 26.997745,27.140456 26.997745,27.140456 C 18.528582,18.264221 13.291696,25.230495 11.500037,31.436501 z"
             style="fill:#404040;"/>
          </a>
         </g>
        </svg>
</svg>
