<?xml version="1.0" encoding="UTF-8" standalone="no"?>
<!DOCTYPE svg PUBLIC "-//W3C//DTD SVG 1.1//EN"
 "http://www.w3.org/Graphics/SVG/1.1/DTD/svg11.dtd">
<!-- Generated by graphviz version 2.38.0 (20140413.2041)
 -->
<!-- Title: ITMAreadBLoss Pages: 1 -->
<svg width="445pt" height="408pt"
 viewBox="0.00 0.00 445.00 408.00" xmlns="http://www.w3.org/2000/svg" xmlns:xlink="http://www.w3.org/1999/xlink">
<g id="graph0" class="graph" transform="scale(1 1) rotate(0) translate(4 404)">
<title>ITMAreadBLoss</title>
<polygon fill="white" stroke="none" points="-4,4 -4,-404 441,-404 441,4 -4,4"/>
<!-- Node1 -->
<g id="node1" class="node"><title>Node1</title>
<polygon fill="#bfbfbf" stroke="black" points="0,-76.5 0,-95.5 87,-95.5 87,-76.5 0,-76.5"/>
<text text-anchor="middle" x="43.5" y="-83.5" font-family="Helvetica,sans-Serif" font-size="10.00">ITMAreadBLoss</text>
</g>
<!-- Node2 -->
<g id="node2" class="node"><title>Node2</title>
<g id="a_node2"><a xlink:href="../../d2/d31/itm_8cpp.html#aac99abe6fa8a284a3e964aa7f45a8deb" target="_top" xlink:title="area">
<polygon fill="white" stroke="black" points="123,-76.5 123,-95.5 158,-95.5 158,-76.5 123,-76.5"/>
<text text-anchor="middle" x="140.5" y="-83.5" font-family="Helvetica,sans-Serif" font-size="10.00">area</text>
</a>
</g>
</g>
<!-- Node1&#45;&gt;Node2 -->
<g id="edge1" class="edge"><title>Node1&#45;&gt;Node2</title>
<path fill="none" stroke="midnightblue" d="M87.2755,-86C95.9433,-86 104.823,-86 112.745,-86"/>
<polygon fill="midnightblue" stroke="midnightblue" points="112.844,-89.5001 122.844,-86 112.844,-82.5001 112.844,-89.5001"/>
</g>
<!-- Node3 -->
<g id="node3" class="node"><title>Node3</title>
<g id="a_node3"><a xlink:href="../../d2/d31/itm_8cpp.html#ad0a12435e029210dab38fce002347a31" target="_top" xlink:title="qerfi">
<polygon fill="white" stroke="black" points="197,-76.5 197,-95.5 232,-95.5 232,-76.5 197,-76.5"/>
<text text-anchor="middle" x="214.5" y="-83.5" font-family="Helvetica,sans-Serif" font-size="10.00">qerfi</text>
</a>
</g>
</g>
<!-- Node2&#45;&gt;Node3 -->
<g id="edge2" class="edge"><title>Node2&#45;&gt;Node3</title>
<path fill="none" stroke="midnightblue" d="M158.199,-86C166.65,-86 177.116,-86 186.662,-86"/>
<polygon fill="midnightblue" stroke="midnightblue" points="186.891,-89.5001 196.891,-86 186.891,-82.5001 186.891,-89.5001"/>
</g>
<!-- Node5 -->
<g id="node5" class="node"><title>Node5</title>
<g id="a_node5"><a xlink:href="../../d2/d31/itm_8cpp.html#a35bdc04d015dd4e8c83f0ff5ffb4966a" target="_top" xlink:title="qlrps">
<polygon fill="white" stroke="black" points="195.5,-0.5 195.5,-19.5 233.5,-19.5 233.5,-0.5 195.5,-0.5"/>
<text text-anchor="middle" x="214.5" y="-7.5" font-family="Helvetica,sans-Serif" font-size="10.00">qlrps</text>
</a>
</g>
</g>
<!-- Node2&#45;&gt;Node5 -->
<g id="edge4" class="edge"><title>Node2&#45;&gt;Node5</title>
<path fill="none" stroke="midnightblue" d="M150.26,-76.1691C160.558,-64.6888 178.244,-45.2051 194,-29 194.758,-28.2206 195.537,-27.4278 196.327,-26.6304"/>
<polygon fill="midnightblue" stroke="midnightblue" points="198.825,-29.0824 203.477,-19.5635 193.905,-24.1037 198.825,-29.0824"/>
</g>
<!-- Node6 -->
<g id="node6" class="node"><title>Node6</title>
<g id="a_node6"><a xlink:href="../../d2/d31/itm_8cpp.html#ae3afa2621c52a60ad6ad9cbeb815bea0" target="_top" xlink:title="qlra">
<polygon fill="white" stroke="black" points="275.5,-114.5 275.5,-133.5 307.5,-133.5 307.5,-114.5 275.5,-114.5"/>
<text text-anchor="middle" x="291.5" y="-121.5" font-family="Helvetica,sans-Serif" font-size="10.00">qlra</text>
</a>
</g>
</g>
<!-- Node2&#45;&gt;Node6 -->
<g id="edge5" class="edge"><title>Node2&#45;&gt;Node6</title>
<path fill="none" stroke="midnightblue" d="M158.311,-92.8274C168.51,-96.782 181.858,-101.629 194,-105 217.877,-111.629 245.695,-116.848 265.312,-120.126"/>
<polygon fill="midnightblue" stroke="midnightblue" points="264.858,-123.598 275.289,-121.743 265.978,-116.688 264.858,-123.598"/>
</g>
<!-- Node8 -->
<g id="node8" class="node"><title>Node8</title>
<g id="a_node8"><a xlink:href="../../d2/d31/itm_8cpp.html#a32289828f24201e9dde6140e27708d73" target="_top" xlink:title="lrprop">
<polygon fill="white" stroke="black" points="194,-228.5 194,-247.5 235,-247.5 235,-228.5 194,-228.5"/>
<text text-anchor="middle" x="214.5" y="-235.5" font-family="Helvetica,sans-Serif" font-size="10.00">lrprop</text>
</a>
</g>
</g>
<!-- Node2&#45;&gt;Node8 -->
<g id="edge8" class="edge"><title>Node2&#45;&gt;Node8</title>
<path fill="none" stroke="midnightblue" d="M146.004,-95.5083C157.671,-120.14 189.047,-186.378 204.563,-219.132"/>
<polygon fill="midnightblue" stroke="midnightblue" points="201.554,-220.956 208.998,-228.495 207.88,-217.96 201.554,-220.956"/>
</g>
<!-- Node18 -->
<g id="node18" class="node"><title>Node18</title>
<g id="a_node18"><a xlink:href="../../d2/d31/itm_8cpp.html#af10b92806af5d5946a8332763321e2df" target="_top" xlink:title="avar">
<polygon fill="white" stroke="black" points="197,-38.5 197,-57.5 232,-57.5 232,-38.5 197,-38.5"/>
<text text-anchor="middle" x="214.5" y="-45.5" font-family="Helvetica,sans-Serif" font-size="10.00">avar</text>
</a>
</g>
</g>
<!-- Node2&#45;&gt;Node18 -->
<g id="edge26" class="edge"><title>Node2&#45;&gt;Node18</title>
<path fill="none" stroke="midnightblue" d="M158.199,-77.1865C167.014,-72.5343 178.02,-66.7253 187.888,-61.5173"/>
<polygon fill="midnightblue" stroke="midnightblue" points="189.681,-64.5287 196.891,-56.7657 186.414,-58.338 189.681,-64.5287"/>
</g>
<!-- Node4 -->
<g id="node4" class="node"><title>Node4</title>
<g id="a_node4"><a xlink:href="../../d2/d31/itm_8cpp.html#aef74668a97df8c1c4614043e233d38fe" target="_top" xlink:title="mymax">
<polygon fill="white" stroke="black" points="368,-114.5 368,-133.5 417,-133.5 417,-114.5 368,-114.5"/>
<text text-anchor="middle" x="392.5" y="-121.5" font-family="Helvetica,sans-Serif" font-size="10.00">mymax</text>
</a>
</g>
</g>
<!-- Node3&#45;&gt;Node4 -->
<g id="edge3" class="edge"><title>Node3&#45;&gt;Node4</title>
<path fill="none" stroke="midnightblue" d="M232.278,-89.0917C251.561,-92.6941 284.138,-98.9303 312,-105 327.174,-108.306 343.903,-112.257 358.085,-115.698"/>
<polygon fill="midnightblue" stroke="midnightblue" points="357.357,-119.124 367.902,-118.097 359.019,-112.324 357.357,-119.124"/>
</g>
<!-- Node6&#45;&gt;Node4 -->
<g id="edge7" class="edge"><title>Node6&#45;&gt;Node4</title>
<path fill="none" stroke="midnightblue" d="M307.536,-124C320.795,-124 340.604,-124 357.652,-124"/>
<polygon fill="midnightblue" stroke="midnightblue" points="357.826,-127.5 367.826,-124 357.826,-120.5 357.826,-127.5"/>
</g>
<!-- Node7 -->
<g id="node7" class="node"><title>Node7</title>
<g id="a_node7"><a xlink:href="../../d2/d31/itm_8cpp.html#ae383616ab74473e2622ac352721e342f" target="_top" xlink:title="mymin">
<polygon fill="white" stroke="black" points="369.5,-190.5 369.5,-209.5 415.5,-209.5 415.5,-190.5 369.5,-190.5"/>
<text text-anchor="middle" x="392.5" y="-197.5" font-family="Helvetica,sans-Serif" font-size="10.00">mymin</text>
</a>
</g>
</g>
<!-- Node6&#45;&gt;Node7 -->
<g id="edge6" class="edge"><title>Node6&#45;&gt;Node7</title>
<path fill="none" stroke="midnightblue" d="M299.852,-133.589C309.7,-145.907 328.237,-167.326 348,-181 351.761,-183.602 355.936,-185.969 360.169,-188.081"/>
<polygon fill="midnightblue" stroke="midnightblue" points="358.837,-191.32 369.388,-192.287 361.743,-184.952 358.837,-191.32"/>
</g>
<!-- Node8&#45;&gt;Node4 -->
<g id="edge9" class="edge"><title>Node8&#45;&gt;Node4</title>
<path fill="none" stroke="midnightblue" d="M223.298,-228.128C233.336,-215.898 251.784,-194.969 271,-181 301.868,-158.56 313.393,-159.086 348,-143 351.678,-141.29 355.55,-139.536 359.405,-137.817"/>
<polygon fill="midnightblue" stroke="midnightblue" points="361.093,-140.897 368.833,-133.662 358.271,-134.492 361.093,-140.897"/>
</g>
<!-- Node8&#45;&gt;Node7 -->
<g id="edge18" class="edge"><title>Node8&#45;&gt;Node7</title>
<path fill="none" stroke="midnightblue" d="M235.139,-234.373C254.672,-230.709 285.473,-224.779 312,-219 327.62,-215.597 344.889,-211.51 359.329,-207.999"/>
<polygon fill="midnightblue" stroke="midnightblue" points="360.4,-211.341 369.28,-205.563 358.735,-204.541 360.4,-211.341"/>
</g>
<!-- Node9 -->
<g id="node9" class="node"><title>Node9</title>
<g id="a_node9"><a xlink:href="../../d2/d31/itm_8cpp.html#a61774c377cce1be80117b174ac61eef2" target="_top" xlink:title="adiff">
<polygon fill="white" stroke="black" points="274,-342.5 274,-361.5 309,-361.5 309,-342.5 274,-342.5"/>
<text text-anchor="middle" x="291.5" y="-349.5" font-family="Helvetica,sans-Serif" font-size="10.00">adiff</text>
</a>
</g>
</g>
<!-- Node8&#45;&gt;Node9 -->
<g id="edge10" class="edge"><title>Node8&#45;&gt;Node9</title>
<path fill="none" stroke="midnightblue" d="M220.938,-247.721C230.454,-264.514 251.019,-299.861 271,-328 272.523,-330.145 274.177,-332.348 275.857,-334.508"/>
<polygon fill="midnightblue" stroke="midnightblue" points="273.233,-336.83 282.236,-342.415 278.681,-332.435 273.233,-336.83"/>
</g>
<!-- Node12 -->
<g id="node12" class="node"><title>Node12</title>
<g id="a_node12"><a xlink:href="../../d2/d31/itm_8cpp.html#a404799cf89ce54ce7b92e13ad355ad85" target="_top" xlink:title="alos">
<polygon fill="white" stroke="black" points="274,-190.5 274,-209.5 309,-209.5 309,-190.5 274,-190.5"/>
<text text-anchor="middle" x="291.5" y="-197.5" font-family="Helvetica,sans-Serif" font-size="10.00">alos</text>
</a>
</g>
</g>
<!-- Node8&#45;&gt;Node12 -->
<g id="edge14" class="edge"><title>Node8&#45;&gt;Node12</title>
<path fill="none" stroke="midnightblue" d="M234.426,-228.411C243.633,-223.746 254.84,-218.068 264.807,-213.018"/>
<polygon fill="midnightblue" stroke="midnightblue" points="266.54,-216.063 273.878,-208.422 263.376,-209.819 266.54,-216.063"/>
</g>
<!-- Node14 -->
<g id="node14" class="node"><title>Node14</title>
<g id="a_node14"><a xlink:href="../../d2/d31/itm_8cpp.html#ae61eab5929102f86b606d9007f0cc139" target="_top" xlink:title="FORTRAN_DIM">
<polygon fill="white" stroke="black" points="348,-304.5 348,-323.5 437,-323.5 437,-304.5 348,-304.5"/>
<text text-anchor="middle" x="392.5" y="-311.5" font-family="Helvetica,sans-Serif" font-size="10.00">FORTRAN_DIM</text>
</a>
</g>
</g>
<!-- Node8&#45;&gt;Node14 -->
<g id="edge19" class="edge"><title>Node8&#45;&gt;Node14</title>
<path fill="none" stroke="midnightblue" d="M221.736,-247.503C230.863,-260.557 249.165,-283.7 271,-295 291.378,-305.546 316.09,-310.569 337.818,-312.854"/>
<polygon fill="midnightblue" stroke="midnightblue" points="337.618,-316.35 347.887,-313.745 338.235,-309.377 337.618,-316.35"/>
</g>
<!-- Node15 -->
<g id="node15" class="node"><title>Node15</title>
<g id="a_node15"><a xlink:href="../../d2/d31/itm_8cpp.html#a74cbbcd996594f97dd6088dbbaff27c7" target="_top" xlink:title="ascat">
<polygon fill="white" stroke="black" points="271,-266.5 271,-285.5 312,-285.5 312,-266.5 271,-266.5"/>
<text text-anchor="middle" x="291.5" y="-273.5" font-family="Helvetica,sans-Serif" font-size="10.00">ascat</text>
</a>
</g>
</g>
<!-- Node8&#45;&gt;Node15 -->
<g id="edge20" class="edge"><title>Node8&#45;&gt;Node15</title>
<path fill="none" stroke="midnightblue" d="M234.426,-247.589C242.953,-251.909 253.194,-257.098 262.578,-261.853"/>
<polygon fill="midnightblue" stroke="midnightblue" points="261.078,-265.016 271.58,-266.414 264.242,-258.772 261.078,-265.016"/>
</g>
<!-- Node9&#45;&gt;Node7 -->
<g id="edge11" class="edge"><title>Node9&#45;&gt;Node7</title>
<path fill="none" stroke="midnightblue" d="M296.031,-342.402C306.742,-313.46 338.701,-228.454 348,-219 351.431,-215.512 355.611,-212.619 360.007,-210.234"/>
<polygon fill="midnightblue" stroke="midnightblue" points="361.542,-213.381 369.165,-206.022 358.617,-207.021 361.542,-213.381"/>
</g>
<!-- Node10 -->
<g id="node10" class="node"><title>Node10</title>
<g id="a_node10"><a xlink:href="../../d2/d31/itm_8cpp.html#a58865d6a14f0fb4c0da66d610f830cdb" target="_top" xlink:title="fht">
<polygon fill="white" stroke="black" points="378,-342.5 378,-361.5 407,-361.5 407,-342.5 378,-342.5"/>
<text text-anchor="middle" x="392.5" y="-349.5" font-family="Helvetica,sans-Serif" font-size="10.00">fht</text>
</a>
</g>
</g>
<!-- Node9&#45;&gt;Node10 -->
<g id="edge12" class="edge"><title>Node9&#45;&gt;Node10</title>
<path fill="none" stroke="midnightblue" d="M309.294,-352C325.359,-352 349.743,-352 367.786,-352"/>
<polygon fill="midnightblue" stroke="midnightblue" points="367.817,-355.5 377.817,-352 367.817,-348.5 367.817,-355.5"/>
</g>
<!-- Node11 -->
<g id="node11" class="node"><title>Node11</title>
<g id="a_node11"><a xlink:href="../../d2/d31/itm_8cpp.html#a133ac157c106bdbab35606739556ed65" target="_top" xlink:title="aknfe">
<polygon fill="white" stroke="black" points="372,-380.5 372,-399.5 413,-399.5 413,-380.5 372,-380.5"/>
<text text-anchor="middle" x="392.5" y="-387.5" font-family="Helvetica,sans-Serif" font-size="10.00">aknfe</text>
</a>
</g>
</g>
<!-- Node9&#45;&gt;Node11 -->
<g id="edge13" class="edge"><title>Node9&#45;&gt;Node11</title>
<path fill="none" stroke="midnightblue" d="M309.294,-358.446C323.774,-364.004 345.013,-372.157 362.275,-378.782"/>
<polygon fill="midnightblue" stroke="midnightblue" points="361.308,-382.16 371.898,-382.476 363.817,-375.625 361.308,-382.16"/>
</g>
<!-- Node12&#45;&gt;Node4 -->
<g id="edge15" class="edge"><title>Node12&#45;&gt;Node4</title>
<path fill="none" stroke="midnightblue" d="M299.852,-190.411C309.7,-178.093 328.237,-156.674 348,-143 351.261,-140.743 354.834,-138.664 358.485,-136.774"/>
<polygon fill="midnightblue" stroke="midnightblue" points="360.042,-139.91 367.592,-132.477 357.054,-133.579 360.042,-139.91"/>
</g>
<!-- Node12&#45;&gt;Node7 -->
<g id="edge16" class="edge"><title>Node12&#45;&gt;Node7</title>
<path fill="none" stroke="midnightblue" d="M309.294,-200C322.87,-200 342.387,-200 358.998,-200"/>
<polygon fill="midnightblue" stroke="midnightblue" points="359.402,-203.5 369.402,-200 359.402,-196.5 359.402,-203.5"/>
</g>
<!-- Node13 -->
<g id="node13" class="node"><title>Node13</title>
<g id="a_node13"><a xlink:href="../../d2/d31/itm_8cpp.html#aea4c472ad2b67e25eefe72767a817667" target="_top" xlink:title="abq_alos">
<polygon fill="white" stroke="black" points="364.5,-152.5 364.5,-171.5 420.5,-171.5 420.5,-152.5 364.5,-152.5"/>
<text text-anchor="middle" x="392.5" y="-159.5" font-family="Helvetica,sans-Serif" font-size="10.00">abq_alos</text>
</a>
</g>
</g>
<!-- Node12&#45;&gt;Node13 -->
<g id="edge17" class="edge"><title>Node12&#45;&gt;Node13</title>
<path fill="none" stroke="midnightblue" d="M309.294,-193.554C322.268,-188.574 340.669,-181.511 356.773,-175.33"/>
<polygon fill="midnightblue" stroke="midnightblue" points="358.353,-178.472 366.434,-171.621 355.844,-171.937 358.353,-178.472"/>
</g>
<!-- Node15&#45;&gt;Node4 -->
<g id="edge21" class="edge"><title>Node15&#45;&gt;Node4</title>
<path fill="none" stroke="midnightblue" d="M296.031,-266.402C306.742,-237.46 338.701,-152.454 348,-143 351.056,-139.894 354.705,-137.26 358.572,-135.036"/>
<polygon fill="midnightblue" stroke="midnightblue" points="360.338,-138.069 367.814,-130.562 357.288,-131.769 360.338,-138.069"/>
</g>
<!-- Node15&#45;&gt;Node7 -->
<g id="edge22" class="edge"><title>Node15&#45;&gt;Node7</title>
<path fill="none" stroke="midnightblue" d="M299.852,-266.411C309.7,-254.093 328.237,-232.674 348,-219 351.761,-216.398 355.936,-214.031 360.169,-211.919"/>
<polygon fill="midnightblue" stroke="midnightblue" points="361.743,-215.048 369.388,-207.713 358.837,-208.68 361.743,-215.048"/>
</g>
<!-- Node15&#45;&gt;Node14 -->
<g id="edge24" class="edge"><title>Node15&#45;&gt;Node14</title>
<path fill="none" stroke="midnightblue" d="M312.059,-283.508C324.91,-288.44 342.073,-295.028 357.157,-300.818"/>
<polygon fill="midnightblue" stroke="midnightblue" points="356.114,-304.166 366.704,-304.482 358.622,-297.631 356.114,-304.166"/>
</g>
<!-- Node16 -->
<g id="node16" class="node"><title>Node16</title>
<g id="a_node16"><a xlink:href="../../d2/d31/itm_8cpp.html#a8e415ee823bbb4b0da13d5f81f042d7f" target="_top" xlink:title="h0f">
<polygon fill="white" stroke="black" points="377.5,-266.5 377.5,-285.5 407.5,-285.5 407.5,-266.5 377.5,-266.5"/>
<text text-anchor="middle" x="392.5" y="-273.5" font-family="Helvetica,sans-Serif" font-size="10.00">h0f</text>
</a>
</g>
</g>
<!-- Node15&#45;&gt;Node16 -->
<g id="edge23" class="edge"><title>Node15&#45;&gt;Node16</title>
<path fill="none" stroke="midnightblue" d="M312.059,-276C327.868,-276 350.204,-276 367.167,-276"/>
<polygon fill="midnightblue" stroke="midnightblue" points="367.416,-279.5 377.416,-276 367.416,-272.5 367.416,-279.5"/>
</g>
<!-- Node17 -->
<g id="node17" class="node"><title>Node17</title>
<g id="a_node17"><a xlink:href="../../d2/d31/itm_8cpp.html#a5cd3659f451452a38a465a50992b9e7c" target="_top" xlink:title="ahd">
<polygon fill="white" stroke="black" points="376.5,-228.5 376.5,-247.5 408.5,-247.5 408.5,-228.5 376.5,-228.5"/>
<text text-anchor="middle" x="392.5" y="-235.5" font-family="Helvetica,sans-Serif" font-size="10.00">ahd</text>
</a>
</g>
</g>
<!-- Node15&#45;&gt;Node17 -->
<g id="edge25" class="edge"><title>Node15&#45;&gt;Node17</title>
<path fill="none" stroke="midnightblue" d="M312.059,-268.492C327.646,-262.51 349.576,-254.092 366.447,-247.616"/>
<polygon fill="midnightblue" stroke="midnightblue" points="368.114,-250.725 376.196,-243.874 365.606,-244.19 368.114,-250.725"/>
</g>
<!-- Node18&#45;&gt;Node4 -->
<g id="edge27" class="edge"><title>Node18&#45;&gt;Node4</title>
<path fill="none" stroke="midnightblue" d="M232.301,-38.6768C252.174,-28.9794 285.855,-16.7872 312,-29 345.607,-44.6986 370.016,-82.3662 382.367,-105.274"/>
<polygon fill="midnightblue" stroke="midnightblue" points="379.355,-107.071 387.048,-114.356 385.577,-103.863 379.355,-107.071"/>
</g>
<!-- Node19 -->
<g id="node19" class="node"><title>Node19</title>
<g id="a_node19"><a xlink:href="../../d2/d31/itm_8cpp.html#acc398b6d1b1334689f775af613edb43f" target="_top" xlink:title="curve">
<polygon fill="white" stroke="black" points="271,-38.5 271,-57.5 312,-57.5 312,-38.5 271,-38.5"/>
<text text-anchor="middle" x="291.5" y="-45.5" font-family="Helvetica,sans-Serif" font-size="10.00">curve</text>
</a>
</g>
</g>
<!-- Node18&#45;&gt;Node19 -->
<g id="edge28" class="edge"><title>Node18&#45;&gt;Node19</title>
<path fill="none" stroke="midnightblue" d="M232.145,-48C240.575,-48 251.067,-48 260.82,-48"/>
<polygon fill="midnightblue" stroke="midnightblue" points="260.981,-51.5001 270.981,-48 260.981,-44.5001 260.981,-51.5001"/>
</g>
</g>
</svg>
