<?xml version="1.0" encoding="UTF-8" standalone="no"?>
<!DOCTYPE svg PUBLIC "-//W3C//DTD SVG 1.1//EN"
 "http://www.w3.org/Graphics/SVG/1.1/DTD/svg11.dtd">
<!-- Generated by graphviz version 2.38.0 (20140413.2041)
 -->
<!-- Title: src.harness.sas_interface.SasTestcaseInterface Pages: 1 -->
<!--zoomable 580 -->
<svg id="main" version="1.1" xmlns="http://www.w3.org/2000/svg" xmlns:xlink="http://www.w3.org/1999/xlink" xml:space="preserve" onload="init(evt)">
<style type="text/css"><![CDATA[
.edge:hover path { stroke: red; }
.edge:hover polygon { stroke: red; fill: red; }
]]></style>
<script type="text/javascript"><![CDATA[
var edges = document.getElementsByTagName('g');
if (edges && edges.length) {
  for (var i=0;i<edges.length;i++) {
    if (edges[i].id.substr(0,4)=='edge') {
      edges[i].setAttribute('class','edge');
    }
  }
}
]]></script>
        <defs>
                <circle id="rim" cx="0" cy="0" r="7"/>
                <circle id="rim2" cx="0" cy="0" r="3.5"/>
                <g id="zoomPlus">
                        <use xlink:href="#rim" fill="#404040">
                                <set attributeName="fill" to="#808080" begin="zoomplus.mouseover" end="zoomplus.mouseout"/>
                        </use>
                        <path d="M-4,0h8M0,-4v8" fill="none" stroke="white" stroke-width="1.5" pointer-events="none"/>
                </g>
                <g id="zoomMin">
                        <use xlink:href="#rim" fill="#404040">
                                <set attributeName="fill" to="#808080" begin="zoomminus.mouseover" end="zoomminus.mouseout"/>
                        </use>
                        <path d="M-4,0h8" fill="none" stroke="white" stroke-width="1.5" pointer-events="none"/>
                </g>
                <g id="dirArrow">
                        <path fill="none" stroke="white" stroke-width="1.5" d="M0,-3.0v7 M-2.5,-0.5L0,-3.0L2.5,-0.5"/>
                </g>
               <g id="resetDef">
                       <use xlink:href="#rim2" fill="#404040">
                               <set attributeName="fill" to="#808080" begin="reset.mouseover" end="reset.mouseout"/>
                       </use>
               </g>
        </defs>

<script type="text/javascript">
var viewWidth = 861;
var viewHeight = 580;
var sectionId = 'dynsection-0';
</script>
<script xlink:href="../../svgpan.js"/>
<svg id="graph" class="graph">
<g id="viewport">
<title>src.harness.sas_interface.SasTestcaseInterface</title>
<polygon fill="white" stroke="none" points="-4,4 -4,-576 857,-576 857,4 -4,4"/>
<!-- Node1 -->
<g id="node1" class="node"><title>Node1</title>
<polygon fill="#bfbfbf" stroke="black" points="79,-256 79,-286 211,-286 211,-256 79,-256"/>
<text text-anchor="start" x="87" y="-274" font-family="Helvetica,sans-Serif" font-size="10.00">src.harness.sas_interface.</text>
<text text-anchor="middle" x="145" y="-263" font-family="Helvetica,sans-Serif" font-size="10.00">SasTestcaseInterface</text>
</g>
<!-- Node3 -->
<g id="node3" class="node"><title>Node3</title>
<g id="a_node3"><a xlink:href="../../df/dc5/classsrc_1_1harness_1_1sas__testcase_1_1SasTestCase.html" target="_top" xlink:title="src.harness.sas_testcase.\lSasTestCase">
<polygon fill="white" stroke="black" points="247,-256 247,-286 379,-286 379,-256 247,-256"/>
<text text-anchor="start" x="255" y="-274" font-family="Helvetica,sans-Serif" font-size="10.00">src.harness.sas_testcase.</text>
<text text-anchor="middle" x="313" y="-263" font-family="Helvetica,sans-Serif" font-size="10.00">SasTestCase</text>
</a>
</g>
</g>
<!-- Node1&#45;&gt;Node3 -->
<g id="edge2" class="edge"><title>Node1&#45;&gt;Node3</title>
<path fill="none" stroke="midnightblue" d="M221.393,-271C229.869,-271 238.452,-271 246.784,-271"/>
<polygon fill="midnightblue" stroke="midnightblue" points="221.131,-267.5 211.131,-271 221.131,-274.5 221.131,-267.5"/>
</g>
<!-- Node2 -->
<g id="node2" class="node"><title>Node2</title>
<polygon fill="white" stroke="#bfbfbf" points="0,-261.5 0,-280.5 43,-280.5 43,-261.5 0,-261.5"/>
<text text-anchor="middle" x="21.5" y="-268.5" font-family="Helvetica,sans-Serif" font-size="10.00">object</text>
</g>
<!-- Node2&#45;&gt;Node1 -->
<g id="edge1" class="edge"><title>Node2&#45;&gt;Node1</title>
<path fill="none" stroke="midnightblue" d="M53.2777,-271C61.1999,-271 70.0293,-271 78.983,-271"/>
<polygon fill="midnightblue" stroke="midnightblue" points="53.1109,-267.5 43.1108,-271 53.1108,-274.5 53.1109,-267.5"/>
</g>
<!-- Node4 -->
<g id="node4" class="node"><title>Node4</title>
<g id="a_node4"><a xlink:href="../../db/df9/classsrc_1_1harness_1_1security__testcase_1_1SecurityTestCase.html" target="_top" xlink:title="src.harness.security\l_testcase.SecurityTestCase">
<polygon fill="white" stroke="black" points="448.5,-506 448.5,-536 589.5,-536 589.5,-506 448.5,-506"/>
<text text-anchor="start" x="456.5" y="-524" font-family="Helvetica,sans-Serif" font-size="10.00">src.harness.security</text>
<text text-anchor="middle" x="519" y="-513" font-family="Helvetica,sans-Serif" font-size="10.00">_testcase.SecurityTestCase</text>
</a>
</g>
</g>
<!-- Node3&#45;&gt;Node4 -->
<g id="edge3" class="edge"><title>Node3&#45;&gt;Node4</title>
<path fill="none" stroke="midnightblue" d="M317.859,-295.934C326.445,-342.634 351.613,-443.311 415,-496 424.552,-503.94 436.227,-509.43 448.243,-513.212"/>
<polygon fill="midnightblue" stroke="midnightblue" points="321.303,-295.307 316.145,-286.052 314.406,-296.503 321.303,-295.307"/>
</g>
<!-- Node7 -->
<g id="node7" class="node"><title>Node7</title>
<g id="a_node7"><a xlink:href="../../de/d99/classsrc_1_1harness_1_1testcases_1_1grant__testcase_1_1GrantTestcaseUsingOldIds.html" target="_top" xlink:title="src.harness.testcases.grant\l_testcase.GrantTestcaseUsingOldIds">
<polygon fill="white" stroke="black" points="428.5,-457 428.5,-487 609.5,-487 609.5,-457 428.5,-457"/>
<text text-anchor="start" x="436.5" y="-475" font-family="Helvetica,sans-Serif" font-size="10.00">src.harness.testcases.grant</text>
<text text-anchor="middle" x="519" y="-464" font-family="Helvetica,sans-Serif" font-size="10.00">_testcase.GrantTestcaseUsingOldIds</text>
</a>
</g>
</g>
<!-- Node3&#45;&gt;Node7 -->
<g id="edge6" class="edge"><title>Node3&#45;&gt;Node7</title>
<path fill="none" stroke="midnightblue" d="M321.143,-296.067C333.552,-334.897 362.885,-409.15 415,-448 419.637,-451.457 424.692,-454.426 429.993,-456.976"/>
<polygon fill="midnightblue" stroke="midnightblue" points="324.368,-294.646 318.088,-286.114 317.677,-296.701 324.368,-294.646"/>
</g>
<!-- Node8 -->
<g id="node8" class="node"><title>Node8</title>
<g id="a_node8"><a xlink:href="../../d8/d41/classsrc_1_1harness_1_1testcases_1_1helper__unit__testcase_1_1AssertChannelsContainFrequencyRangeTest.html" target="_top" xlink:title="src.harness.testcases.helper\l_unit_testcase.AssertChannelsContain\lFrequencyRangeTest">
<polygon fill="white" stroke="black" points="425.5,-397.5 425.5,-438.5 612.5,-438.5 612.5,-397.5 425.5,-397.5"/>
<text text-anchor="start" x="433.5" y="-426.5" font-family="Helvetica,sans-Serif" font-size="10.00">src.harness.testcases.helper</text>
<text text-anchor="start" x="433.5" y="-415.5" font-family="Helvetica,sans-Serif" font-size="10.00">_unit_testcase.AssertChannelsContain</text>
<text text-anchor="middle" x="519" y="-404.5" font-family="Helvetica,sans-Serif" font-size="10.00">FrequencyRangeTest</text>
</a>
</g>
</g>
<!-- Node3&#45;&gt;Node8 -->
<g id="edge7" class="edge"><title>Node3&#45;&gt;Node8</title>
<path fill="none" stroke="midnightblue" d="M328.377,-294.676C345.699,-321.228 377.235,-363.738 415,-388 420.484,-391.523 426.395,-394.644 432.511,-397.407"/>
<polygon fill="midnightblue" stroke="midnightblue" points="331.18,-292.561 322.856,-286.006 325.275,-296.321 331.18,-292.561"/>
</g>
<!-- Node9 -->
<g id="node9" class="node"><title>Node9</title>
<g id="a_node9"><a xlink:href="../../d7/d0d/classsrc_1_1harness_1_1testcases_1_1spectrum__inquiry__testcase_1_1SpectrumInquiryTestcaseUsingOldIds.html" target="_top" xlink:title="src.harness.testcases.spectrum\l_inquiry_testcase.SpectrumInquiryTestcase\lUsingOldIds">
<polygon fill="white" stroke="black" points="415,-337.5 415,-378.5 623,-378.5 623,-337.5 415,-337.5"/>
<text text-anchor="start" x="423" y="-366.5" font-family="Helvetica,sans-Serif" font-size="10.00">src.harness.testcases.spectrum</text>
<text text-anchor="start" x="423" y="-355.5" font-family="Helvetica,sans-Serif" font-size="10.00">_inquiry_testcase.SpectrumInquiryTestcase</text>
<text text-anchor="middle" x="519" y="-344.5" font-family="Helvetica,sans-Serif" font-size="10.00">UsingOldIds</text>
</a>
</g>
</g>
<!-- Node3&#45;&gt;Node9 -->
<g id="edge8" class="edge"><title>Node3&#45;&gt;Node9</title>
<path fill="none" stroke="midnightblue" d="M346.013,-291.588C365.41,-303.414 390.972,-317.88 415,-328 423.067,-331.398 431.644,-334.559 440.272,-337.456"/>
<polygon fill="midnightblue" stroke="midnightblue" points="347.639,-288.478 337.293,-286.195 343.957,-294.431 347.639,-288.478"/>
</g>
<!-- Node10 -->
<g id="node10" class="node"><title>Node10</title>
<g id="a_node10"><a xlink:href="../../d3/d24/classsrc_1_1harness_1_1testcases_1_1WINNF__FT__S__DRG__testcase_1_1DeregistrationTestcase.html" target="_top" xlink:title="src.harness.testcases.WINNF\l_FT_S_DRG_testcase.Deregistration\lTestcase">
<polygon fill="white" stroke="black" points="429,-277.5 429,-318.5 609,-318.5 609,-277.5 429,-277.5"/>
<text text-anchor="start" x="437" y="-306.5" font-family="Helvetica,sans-Serif" font-size="10.00">src.harness.testcases.WINNF</text>
<text text-anchor="start" x="437" y="-295.5" font-family="Helvetica,sans-Serif" font-size="10.00">_FT_S_DRG_testcase.Deregistration</text>
<text text-anchor="middle" x="519" y="-284.5" font-family="Helvetica,sans-Serif" font-size="10.00">Testcase</text>
</a>
</g>
</g>
<!-- Node3&#45;&gt;Node10 -->
<g id="edge9" class="edge"><title>Node3&#45;&gt;Node10</title>
<path fill="none" stroke="midnightblue" d="M389.309,-280.967C402.215,-282.676 415.735,-284.465 428.958,-286.215"/>
<polygon fill="midnightblue" stroke="midnightblue" points="389.481,-277.46 379.108,-279.617 388.562,-284.399 389.481,-277.46"/>
</g>
<!-- Node11 -->
<g id="node11" class="node"><title>Node11</title>
<g id="a_node11"><a xlink:href="../../d5/de0/classsrc_1_1harness_1_1testcases_1_1WINNF__FT__S__GRA__testcase_1_1GrantTestcase.html" target="_top" xlink:title="src.harness.testcases.WINNF\l_FT_S_GRA_testcase.GrantTestcase">
<polygon fill="white" stroke="black" points="427.5,-229 427.5,-259 610.5,-259 610.5,-229 427.5,-229"/>
<text text-anchor="start" x="435.5" y="-247" font-family="Helvetica,sans-Serif" font-size="10.00">src.harness.testcases.WINNF</text>
<text text-anchor="middle" x="519" y="-236" font-family="Helvetica,sans-Serif" font-size="10.00">_FT_S_GRA_testcase.GrantTestcase</text>
</a>
</g>
</g>
<!-- Node3&#45;&gt;Node11 -->
<g id="edge10" class="edge"><title>Node3&#45;&gt;Node11</title>
<path fill="none" stroke="midnightblue" d="M389.377,-261.024C401.781,-259.382 414.751,-257.665 427.479,-255.981"/>
<polygon fill="midnightblue" stroke="midnightblue" points="388.562,-257.601 379.108,-262.383 389.481,-264.54 388.562,-257.601"/>
</g>
<!-- Node12 -->
<g id="node12" class="node"><title>Node12</title>
<g id="a_node12"><a xlink:href="../../d5/d7b/classsrc_1_1harness_1_1testcases_1_1WINNF__FT__S__HBT__testcase_1_1HeartbeatTestcase.html" target="_top" xlink:title="src.harness.testcases.WINNF\l_FT_S_HBT_testcase.HeartbeatTestcase">
<polygon fill="white" stroke="black" points="419,-180 419,-210 619,-210 619,-180 419,-180"/>
<text text-anchor="start" x="427" y="-198" font-family="Helvetica,sans-Serif" font-size="10.00">src.harness.testcases.WINNF</text>
<text text-anchor="middle" x="519" y="-187" font-family="Helvetica,sans-Serif" font-size="10.00">_FT_S_HBT_testcase.HeartbeatTestcase</text>
</a>
</g>
</g>
<!-- Node3&#45;&gt;Node12 -->
<g id="edge11" class="edge"><title>Node3&#45;&gt;Node12</title>
<path fill="none" stroke="midnightblue" d="M347.882,-250.887C367.053,-240.196 391.774,-227.536 415,-219 424.134,-215.643 433.901,-212.648 443.647,-210.007"/>
<polygon fill="midnightblue" stroke="midnightblue" points="345.922,-247.974 338.948,-255.95 349.373,-254.064 345.922,-247.974"/>
</g>
<!-- Node13 -->
<g id="node13" class="node"><title>Node13</title>
<g id="a_node13"><a xlink:href="../../d3/da6/classsrc_1_1harness_1_1testcases_1_1WINNF__FT__S__REG__testcase_1_1RegistrationTestcase.html" target="_top" xlink:title="src.harness.testcases.WINNF\l_FT_S_REG_testcase.Registration\lTestcase">
<polygon fill="white" stroke="black" points="433.5,-120.5 433.5,-161.5 604.5,-161.5 604.5,-120.5 433.5,-120.5"/>
<text text-anchor="start" x="441.5" y="-149.5" font-family="Helvetica,sans-Serif" font-size="10.00">src.harness.testcases.WINNF</text>
<text text-anchor="start" x="441.5" y="-138.5" font-family="Helvetica,sans-Serif" font-size="10.00">_FT_S_REG_testcase.Registration</text>
<text text-anchor="middle" x="519" y="-127.5" font-family="Helvetica,sans-Serif" font-size="10.00">Testcase</text>
</a>
</g>
</g>
<!-- Node3&#45;&gt;Node13 -->
<g id="edge12" class="edge"><title>Node3&#45;&gt;Node13</title>
<path fill="none" stroke="midnightblue" d="M331.102,-248.021C349.406,-225.013 380.508,-190.206 415,-170 420.771,-166.62 426.955,-163.616 433.323,-160.951"/>
<polygon fill="midnightblue" stroke="midnightblue" points="328.338,-245.874 324.955,-255.915 333.861,-250.175 328.338,-245.874"/>
</g>
<!-- Node14 -->
<g id="node14" class="node"><title>Node14</title>
<g id="a_node14"><a xlink:href="../../d7/de3/classsrc_1_1harness_1_1testcases_1_1WINNF__FT__S__RLQ__testcase_1_1RelinquishmentTestcase.html" target="_top" xlink:title="src.harness.testcases.WINNF\l_FT_S_RLQ_testcase.Relinquishment\lTestcase">
<polygon fill="white" stroke="black" points="426.5,-60.5 426.5,-101.5 611.5,-101.5 611.5,-60.5 426.5,-60.5"/>
<text text-anchor="start" x="434.5" y="-89.5" font-family="Helvetica,sans-Serif" font-size="10.00">src.harness.testcases.WINNF</text>
<text text-anchor="start" x="434.5" y="-78.5" font-family="Helvetica,sans-Serif" font-size="10.00">_FT_S_RLQ_testcase.Relinquishment</text>
<text text-anchor="middle" x="519" y="-67.5" font-family="Helvetica,sans-Serif" font-size="10.00">Testcase</text>
</a>
</g>
</g>
<!-- Node3&#45;&gt;Node14 -->
<g id="edge13" class="edge"><title>Node3&#45;&gt;Node14</title>
<path fill="none" stroke="midnightblue" d="M323.097,-246.062C337.264,-210.722 367.954,-146.437 415,-111 419.686,-107.47 424.779,-104.355 430.106,-101.605"/>
<polygon fill="midnightblue" stroke="midnightblue" points="319.74,-245.037 319.385,-255.626 326.266,-247.57 319.74,-245.037"/>
</g>
<!-- Node15 -->
<g id="node15" class="node"><title>Node15</title>
<g id="a_node15"><a xlink:href="../../dd/df3/classsrc_1_1harness_1_1testcases_1_1WINNF__FT__S__SIQ__testcase_1_1SpectrumInquiryTestcase.html" target="_top" xlink:title="src.harness.testcases.WINNF\l_FT_S_SIQ_testcase.SpectrumInquiry\lTestcase">
<polygon fill="white" stroke="black" points="426.5,-0.5 426.5,-41.5 611.5,-41.5 611.5,-0.5 426.5,-0.5"/>
<text text-anchor="start" x="434.5" y="-29.5" font-family="Helvetica,sans-Serif" font-size="10.00">src.harness.testcases.WINNF</text>
<text text-anchor="start" x="434.5" y="-18.5" font-family="Helvetica,sans-Serif" font-size="10.00">_FT_S_SIQ_testcase.SpectrumInquiry</text>
<text text-anchor="middle" x="519" y="-7.5" font-family="Helvetica,sans-Serif" font-size="10.00">Testcase</text>
</a>
</g>
</g>
<!-- Node3&#45;&gt;Node15 -->
<g id="edge14" class="edge"><title>Node3&#45;&gt;Node15</title>
<path fill="none" stroke="midnightblue" d="M318.447,-245.92C327.868,-200.27 354.17,-103.488 415,-51 419.089,-47.4714 423.574,-44.3574 428.312,-41.6091"/>
<polygon fill="midnightblue" stroke="midnightblue" points="314.987,-245.378 316.498,-255.864 321.857,-246.724 314.987,-245.378"/>
</g>
<!-- Node5 -->
<g id="node5" class="node"><title>Node5</title>
<g id="a_node5"><a xlink:href="../../da/d08/classsrc_1_1harness_1_1testcases_1_1WINNF__FT__S__SCS__testcase_1_1SasCbsdSecurityTestcase.html" target="_top" xlink:title="src.harness.testcases.WINNF\l_FT_S_SCS_testcase.SasCbsdSecurity\lTestcase">
<polygon fill="white" stroke="black" points="659,-530.5 659,-571.5 853,-571.5 853,-530.5 659,-530.5"/>
<text text-anchor="start" x="667" y="-559.5" font-family="Helvetica,sans-Serif" font-size="10.00">src.harness.testcases.WINNF</text>
<text text-anchor="start" x="667" y="-548.5" font-family="Helvetica,sans-Serif" font-size="10.00">_FT_S_SCS_testcase.SasCbsdSecurity</text>
<text text-anchor="middle" x="756" y="-537.5" font-family="Helvetica,sans-Serif" font-size="10.00">Testcase</text>
</a>
</g>
</g>
<!-- Node4&#45;&gt;Node5 -->
<g id="edge4" class="edge"><title>Node4&#45;&gt;Node5</title>
<path fill="none" stroke="midnightblue" d="M599.62,-531.164C618.58,-533.585 639.012,-536.193 658.632,-538.698"/>
<polygon fill="midnightblue" stroke="midnightblue" points="599.917,-527.674 589.554,-529.879 599.03,-534.617 599.917,-527.674"/>
</g>
<!-- Node6 -->
<g id="node6" class="node"><title>Node6</title>
<g id="a_node6"><a xlink:href="../../d5/daa/classsrc_1_1harness_1_1testcases_1_1WINNF__FT__S__SDS__testcase_1_1SasDomainProxySecurityTestcase.html" target="_top" xlink:title="src.harness.testcases.WINNF\l_FT_S_SDS_testcase.SasDomainProxy\lSecurityTestcase">
<polygon fill="white" stroke="black" points="659,-470.5 659,-511.5 853,-511.5 853,-470.5 659,-470.5"/>
<text text-anchor="start" x="667" y="-499.5" font-family="Helvetica,sans-Serif" font-size="10.00">src.harness.testcases.WINNF</text>
<text text-anchor="start" x="667" y="-488.5" font-family="Helvetica,sans-Serif" font-size="10.00">_FT_S_SDS_testcase.SasDomainProxy</text>
<text text-anchor="middle" x="756" y="-477.5" font-family="Helvetica,sans-Serif" font-size="10.00">SecurityTestcase</text>
</a>
</g>
</g>
<!-- Node4&#45;&gt;Node6 -->
<g id="edge5" class="edge"><title>Node4&#45;&gt;Node6</title>
<path fill="none" stroke="midnightblue" d="M599.62,-510.836C618.58,-508.415 639.012,-505.807 658.632,-503.302"/>
<polygon fill="midnightblue" stroke="midnightblue" points="599.03,-507.383 589.554,-512.121 599.917,-514.326 599.03,-507.383"/>
</g>
</g>
</svg>
        <g id="navigator" transform="translate(0 0)" fill="#404254">
                <rect fill="#f2f5e9" fill-opacity="0.5" stroke="#606060" stroke-width=".5" x="0" y="0" width="60" height="60"/>
                <use id="zoomplus" xlink:href="#zoomPlus" x="17" y="9" onmousedown="handleZoom(evt,'in')"/>
                <use id="zoomminus" xlink:href="#zoomMin" x="42" y="9" onmousedown="handleZoom(evt,'out')"/>
                <use id="reset" xlink:href="#resetDef" x="30" y="36" onmousedown="handleReset()"/>
                <g id="arrowUp" xlink:href="#dirArrow" transform="translate(30 24)" onmousedown="handlePan(0,-1)">
                  <use xlink:href="#rim" fill="#404040">
                        <set attributeName="fill" to="#808080" begin="arrowUp.mouseover" end="arrowUp.mouseout"/>
                  </use>
                  <path fill="none" stroke="white" stroke-width="1.5" d="M0,-3.0v7 M-2.5,-0.5L0,-3.0L2.5,-0.5"/>
                </g>
                <g id="arrowRight" xlink:href="#dirArrow" transform="rotate(90) translate(36 -43)" onmousedown="handlePan(1,0)">
                  <use xlink:href="#rim" fill="#404040">
                        <set attributeName="fill" to="#808080" begin="arrowRight.mouseover" end="arrowRight.mouseout"/>
                  </use>
                  <path fill="none" stroke="white" stroke-width="1.5" d="M0,-3.0v7 M-2.5,-0.5L0,-3.0L2.5,-0.5"/>
                </g>
                <g id="arrowDown" xlink:href="#dirArrow" transform="rotate(180) translate(-30 -48)" onmousedown="handlePan(0,1)">
                  <use xlink:href="#rim" fill="#404040">
                        <set attributeName="fill" to="#808080" begin="arrowDown.mouseover" end="arrowDown.mouseout"/>
                  </use>
                  <path fill="none" stroke="white" stroke-width="1.5" d="M0,-3.0v7 M-2.5,-0.5L0,-3.0L2.5,-0.5"/>
                </g>
                <g id="arrowLeft" xlink:href="#dirArrow" transform="rotate(270) translate(-36 17)" onmousedown="handlePan(-1,0)">
                  <use xlink:href="#rim" fill="#404040">
                        <set attributeName="fill" to="#808080" begin="arrowLeft.mouseover" end="arrowLeft.mouseout"/>
                  </use>
                  <path fill="none" stroke="white" stroke-width="1.5" d="M0,-3.0v7 M-2.5,-0.5L0,-3.0L2.5,-0.5"/>
                </g>
        </g>
        <svg viewBox="0 0 15 15" width="100%" height="30px" preserveAspectRatio="xMaxYMin meet">
         <g id="arrow_out" transform="scale(0.3 0.3)">
          <a xlink:href="classsrc_1_1harness_1_1sas__interface_1_1SasTestcaseInterface__inherit__graph_org.svg" target="_base">
           <rect id="button" ry="5" rx="5" y="6" x="6" height="38" width="38"
                fill="#f2f5e9" fill-opacity="0.5" stroke="#606060" stroke-width="1.0"/>
           <path id="arrow"
             d="M 11.500037,31.436501 C 11.940474,20.09759 22.043105,11.32322 32.158766,21.979434 L 37.068811,17.246167 C 37.068811,17.246167 37.088388,32 37.088388,32 L 22.160133,31.978069 C 22.160133,31.978069 26.997745,27.140456 26.997745,27.140456 C 18.528582,18.264221 13.291696,25.230495 11.500037,31.436501 z"
             style="fill:#404040;"/>
          </a>
         </g>
        </svg>
</svg>
