<?xml version="1.0" encoding="UTF-8" standalone="no"?>
<!DOCTYPE svg PUBLIC "-//W3C//DTD SVG 1.1//EN"
 "http://www.w3.org/Graphics/SVG/1.1/DTD/svg11.dtd">
<!-- Generated by graphviz version 2.38.0 (20140413.2041)
 -->
<!-- Title: src.harness.reference_models.propagation.ehata.ehata.MedianBasicPropLoss Pages: 1 -->
<svg width="429pt" height="50pt"
 viewBox="0.00 0.00 429.00 50.00" xmlns="http://www.w3.org/2000/svg" xmlns:xlink="http://www.w3.org/1999/xlink">
<g id="graph0" class="graph" transform="scale(1 1) rotate(0) translate(4 46)">
<title>src.harness.reference_models.propagation.ehata.ehata.MedianBasicPropLoss</title>
<polygon fill="white" stroke="none" points="-4,4 -4,-46 425,-46 425,4 -4,4"/>
<!-- Node1 -->
<g id="node1" class="node"><title>Node1</title>
<polygon fill="#bfbfbf" stroke="black" points="0,-0.5 0,-41.5 164,-41.5 164,-0.5 0,-0.5"/>
<text text-anchor="start" x="8" y="-29.5" font-family="Helvetica,sans-Serif" font-size="10.00">src.harness.reference</text>
<text text-anchor="start" x="8" y="-18.5" font-family="Helvetica,sans-Serif" font-size="10.00">_models.propagation.ehata.ehata.</text>
<text text-anchor="middle" x="82" y="-7.5" font-family="Helvetica,sans-Serif" font-size="10.00">MedianBasicPropLoss</text>
</g>
<!-- Node2 -->
<g id="node2" class="node"><title>Node2</title>
<g id="a_node2"><a xlink:href="../../d9/daf/ExtendedHata_8cpp.html#a11232c905b4b2d54ca008791dad7ecf3" target="_top" xlink:title="ExtendedHata_DBG">
<polygon fill="white" stroke="black" points="200,-11.5 200,-30.5 306,-30.5 306,-11.5 200,-11.5"/>
<text text-anchor="middle" x="253" y="-18.5" font-family="Helvetica,sans-Serif" font-size="10.00">ExtendedHata_DBG</text>
</a>
</g>
</g>
<!-- Node1&#45;&gt;Node2 -->
<g id="edge1" class="edge"><title>Node1&#45;&gt;Node2</title>
<path fill="none" stroke="midnightblue" d="M174.043,-21C182.889,-21 191.638,-21 199.901,-21"/>
<polygon fill="midnightblue" stroke="midnightblue" points="174.035,-17.5001 164.035,-21 174.035,-24.5001 174.035,-17.5001"/>
</g>
<!-- Node3 -->
<g id="node3" class="node"><title>Node3</title>
<g id="a_node3"><a xlink:href="../../d6/d96/ehata__its__py_8cpp.html#a327cf674a964d85fc7d2d68c89a52d09" target="_top" xlink:title="ExtendedHata">
<polygon fill="white" stroke="black" points="342,-11.5 342,-30.5 421,-30.5 421,-11.5 342,-11.5"/>
<text text-anchor="middle" x="381.5" y="-18.5" font-family="Helvetica,sans-Serif" font-size="10.00">ExtendedHata</text>
</a>
</g>
</g>
<!-- Node2&#45;&gt;Node3 -->
<g id="edge2" class="edge"><title>Node2&#45;&gt;Node3</title>
<path fill="none" stroke="midnightblue" d="M316.379,-21C325.108,-21 333.858,-21 341.966,-21"/>
<polygon fill="midnightblue" stroke="midnightblue" points="316.183,-17.5001 306.183,-21 316.183,-24.5001 316.183,-17.5001"/>
</g>
</g>
</svg>
