<?xml version="1.0" encoding="UTF-8" standalone="no"?>
<!DOCTYPE svg PUBLIC "-//W3C//DTD SVG 1.1//EN"
 "http://www.w3.org/Graphics/SVG/1.1/DTD/svg11.dtd">
<!-- Generated by graphviz version 2.38.0 (20140413.2041)
 -->
<!-- Title: src.harness.testcases.spectrum_inquiry_testcase.SpectrumInquiryTestcaseUsingOldIds.test_WINNF_FT_S_SIQ_18 Pages: 1 -->
<svg width="630pt" height="121pt"
 viewBox="0.00 0.00 630.00 120.50" xmlns="http://www.w3.org/2000/svg" xmlns:xlink="http://www.w3.org/1999/xlink">
<g id="graph0" class="graph" transform="scale(1 1) rotate(0) translate(4 116.5)">
<title>src.harness.testcases.spectrum_inquiry_testcase.SpectrumInquiryTestcaseUsingOldIds.test_WINNF_FT_S_SIQ_18</title>
<polygon fill="white" stroke="none" points="-4,4 -4,-116.5 626,-116.5 626,4 -4,4"/>
<!-- Node1 -->
<g id="node1" class="node"><title>Node1</title>
<polygon fill="#bfbfbf" stroke="black" points="0,-54.5 0,-95.5 208,-95.5 208,-54.5 0,-54.5"/>
<text text-anchor="start" x="8" y="-83.5" font-family="Helvetica,sans-Serif" font-size="10.00">src.harness.testcases.spectrum</text>
<text text-anchor="start" x="8" y="-72.5" font-family="Helvetica,sans-Serif" font-size="10.00">_inquiry_testcase.SpectrumInquiryTestcase</text>
<text text-anchor="middle" x="104" y="-61.5" font-family="Helvetica,sans-Serif" font-size="10.00">UsingOldIds.test_WINNF_FT_S_SIQ_18</text>
</g>
<!-- Node2 -->
<g id="node2" class="node"><title>Node2</title>
<g id="a_node2"><a xlink:href="../../d8/d6c/namespacesrc_1_1harness_1_1util.html#ad781031fc0a08430a583769551ac9b40" target="_top" xlink:title="src.harness.util.makePpa\lAndPalRecordsConsistent">
<polygon fill="white" stroke="black" points="490,-82 490,-112 622,-112 622,-82 490,-82"/>
<text text-anchor="start" x="498" y="-100" font-family="Helvetica,sans-Serif" font-size="10.00">src.harness.util.makePpa</text>
<text text-anchor="middle" x="556" y="-89" font-family="Helvetica,sans-Serif" font-size="10.00">AndPalRecordsConsistent</text>
</a>
</g>
</g>
<!-- Node1&#45;&gt;Node2 -->
<g id="edge1" class="edge"><title>Node1&#45;&gt;Node2</title>
<path fill="none" stroke="midnightblue" d="M207.199,-95.5088C219.555,-97.3576 232.033,-98.9324 244,-100 336.964,-108.294 360.677,-101.386 454,-100 462.321,-99.8765 471.026,-99.6957 479.687,-99.4831"/>
<polygon fill="midnightblue" stroke="midnightblue" points="479.903,-102.979 489.809,-99.2206 479.722,-95.9812 479.903,-102.979"/>
</g>
<!-- Node3 -->
<g id="node3" class="node"><title>Node3</title>
<g id="a_node3"><a xlink:href="../../d8/d6c/namespacesrc_1_1harness_1_1util.html#a105dd692e0d0640cc251860113ff5a97" target="_top" xlink:title="src.harness.util.getRandom\lLatLongInPolygon">
<polygon fill="white" stroke="black" points="280.5,-60 280.5,-90 417.5,-90 417.5,-60 280.5,-60"/>
<text text-anchor="start" x="288.5" y="-78" font-family="Helvetica,sans-Serif" font-size="10.00">src.harness.util.getRandom</text>
<text text-anchor="middle" x="349" y="-67" font-family="Helvetica,sans-Serif" font-size="10.00">LatLongInPolygon</text>
</a>
</g>
</g>
<!-- Node1&#45;&gt;Node3 -->
<g id="edge2" class="edge"><title>Node1&#45;&gt;Node3</title>
<path fill="none" stroke="midnightblue" d="M208.054,-75C228.873,-75 250.432,-75 270.208,-75"/>
<polygon fill="midnightblue" stroke="midnightblue" points="270.374,-78.5001 280.374,-75 270.374,-71.5001 270.374,-78.5001"/>
</g>
<!-- Node4 -->
<g id="node4" class="node"><title>Node4</title>
<g id="a_node4"><a xlink:href="../../df/ded/classsrc_1_1harness_1_1sas__interface_1_1SasTestcaseInterface.html#a39812d93a172aad20d1ec3006ade06bb" target="_top" xlink:title="src.harness.sas_interface.\lSasTestcaseInterface.TriggerDaily\lActivitiesImmediatelyAndWaitUntilComplete">
<polygon fill="white" stroke="black" points="244,-0.5 244,-41.5 454,-41.5 454,-0.5 244,-0.5"/>
<text text-anchor="start" x="252" y="-29.5" font-family="Helvetica,sans-Serif" font-size="10.00">src.harness.sas_interface.</text>
<text text-anchor="start" x="252" y="-18.5" font-family="Helvetica,sans-Serif" font-size="10.00">SasTestcaseInterface.TriggerDaily</text>
<text text-anchor="middle" x="349" y="-7.5" font-family="Helvetica,sans-Serif" font-size="10.00">ActivitiesImmediatelyAndWaitUntilComplete</text>
</a>
</g>
</g>
<!-- Node1&#45;&gt;Node4 -->
<g id="edge4" class="edge"><title>Node1&#45;&gt;Node4</title>
<path fill="none" stroke="midnightblue" d="M197.561,-54.4309C213.333,-50.9259 229.796,-47.2675 245.801,-43.7109"/>
<polygon fill="midnightblue" stroke="midnightblue" points="246.694,-47.098 255.696,-41.5119 245.175,-40.2647 246.694,-47.098"/>
</g>
<!-- Node3&#45;&gt;Node2 -->
<g id="edge3" class="edge"><title>Node3&#45;&gt;Node2</title>
<path fill="none" stroke="midnightblue" d="M417.693,-82.2646C437.547,-84.3953 459.378,-86.7381 479.676,-88.9165"/>
<polygon fill="midnightblue" stroke="midnightblue" points="479.5,-92.4176 489.817,-90.0047 480.247,-85.4575 479.5,-92.4176"/>
</g>
</g>
</svg>
