<?xml version="1.0" encoding="UTF-8" standalone="no"?>
<!DOCTYPE svg PUBLIC "-//W3C//DTD SVG 1.1//EN"
 "http://www.w3.org/Graphics/SVG/1.1/DTD/svg11.dtd">
<!-- Generated by graphviz version 2.38.0 (20140413.2041)
 -->
<!-- Title: census_tracts_kml.ConvertShapeToPlacemark Pages: 1 -->
<svg width="498pt" height="39pt"
 viewBox="0.00 0.00 498.00 39.00" xmlns="http://www.w3.org/2000/svg" xmlns:xlink="http://www.w3.org/1999/xlink">
<g id="graph0" class="graph" transform="scale(1 1) rotate(0) translate(4 35)">
<title>census_tracts_kml.ConvertShapeToPlacemark</title>
<polygon fill="white" stroke="none" points="-4,4 -4,-35 494,-35 494,4 -4,4"/>
<!-- Node1 -->
<g id="node1" class="node"><title>Node1</title>
<polygon fill="#bfbfbf" stroke="black" points="0,-0.5 0,-30.5 137,-30.5 137,-0.5 0,-0.5"/>
<text text-anchor="start" x="8" y="-18.5" font-family="Helvetica,sans-Serif" font-size="10.00">census_tracts_kml.Convert</text>
<text text-anchor="middle" x="68.5" y="-7.5" font-family="Helvetica,sans-Serif" font-size="10.00">ShapeToPlacemark</text>
</g>
<!-- Node2 -->
<g id="node2" class="node"><title>Node2</title>
<g id="a_node2"><a xlink:href="../../d8/dd7/namespacecensus__tracts__kml.html#a8709d587439d71c1da79090e219dea79" target="_top" xlink:title="census_tracts_kml.Process\lShpFile">
<polygon fill="white" stroke="black" points="173,-0.5 173,-30.5 311,-30.5 311,-0.5 173,-0.5"/>
<text text-anchor="start" x="181" y="-18.5" font-family="Helvetica,sans-Serif" font-size="10.00">census_tracts_kml.Process</text>
<text text-anchor="middle" x="242" y="-7.5" font-family="Helvetica,sans-Serif" font-size="10.00">ShpFile</text>
</a>
</g>
</g>
<!-- Node1&#45;&gt;Node2 -->
<g id="edge1" class="edge"><title>Node1&#45;&gt;Node2</title>
<path fill="none" stroke="midnightblue" d="M147.525,-15.5C155.983,-15.5 164.541,-15.5 172.868,-15.5"/>
<polygon fill="midnightblue" stroke="midnightblue" points="147.281,-12.0001 137.281,-15.5 147.281,-19.0001 147.281,-12.0001"/>
</g>
<!-- Node3 -->
<g id="node3" class="node"><title>Node3</title>
<g id="a_node3"><a xlink:href="../../d8/dd7/namespacecensus__tracts__kml.html#a88148d12bd32d43ea881c461485cbcee" target="_top" xlink:title="census_tracts_kml.Translate\lShpFileToKML">
<polygon fill="white" stroke="black" points="347,-0.5 347,-30.5 490,-30.5 490,-0.5 347,-0.5"/>
<text text-anchor="start" x="355" y="-18.5" font-family="Helvetica,sans-Serif" font-size="10.00">census_tracts_kml.Translate</text>
<text text-anchor="middle" x="418.5" y="-7.5" font-family="Helvetica,sans-Serif" font-size="10.00">ShpFileToKML</text>
</a>
</g>
</g>
<!-- Node2&#45;&gt;Node3 -->
<g id="edge2" class="edge"><title>Node2&#45;&gt;Node3</title>
<path fill="none" stroke="midnightblue" d="M321.427,-15.5C329.861,-15.5 338.407,-15.5 346.743,-15.5"/>
<polygon fill="midnightblue" stroke="midnightblue" points="321.216,-12.0001 311.216,-15.5 321.216,-19.0001 321.216,-12.0001"/>
</g>
</g>
</svg>
