<?xml version="1.0" encoding="UTF-8" standalone="no"?>
<!DOCTYPE svg PUBLIC "-//W3C//DTD SVG 1.1//EN"
 "http://www.w3.org/Graphics/SVG/1.1/DTD/svg11.dtd">
<!-- Generated by graphviz version 2.38.0 (20140413.2041)
 -->
<!-- Title: census_tracts_kml.TranslateShpFileToKML Pages: 1 -->
<svg width="498pt" height="39pt"
 viewBox="0.00 0.00 498.00 39.00" xmlns="http://www.w3.org/2000/svg" xmlns:xlink="http://www.w3.org/1999/xlink">
<g id="graph0" class="graph" transform="scale(1 1) rotate(0) translate(4 35)">
<title>census_tracts_kml.TranslateShpFileToKML</title>
<polygon fill="white" stroke="none" points="-4,4 -4,-35 494,-35 494,4 -4,4"/>
<!-- Node1 -->
<g id="node1" class="node"><title>Node1</title>
<polygon fill="#bfbfbf" stroke="black" points="0,-0.5 0,-30.5 143,-30.5 143,-0.5 0,-0.5"/>
<text text-anchor="start" x="8" y="-18.5" font-family="Helvetica,sans-Serif" font-size="10.00">census_tracts_kml.Translate</text>
<text text-anchor="middle" x="71.5" y="-7.5" font-family="Helvetica,sans-Serif" font-size="10.00">ShpFileToKML</text>
</g>
<!-- Node2 -->
<g id="node2" class="node"><title>Node2</title>
<g id="a_node2"><a xlink:href="../../d8/dd7/namespacecensus__tracts__kml.html#a8709d587439d71c1da79090e219dea79" target="_top" xlink:title="census_tracts_kml.Process\lShpFile">
<polygon fill="white" stroke="black" points="179,-0.5 179,-30.5 317,-30.5 317,-0.5 179,-0.5"/>
<text text-anchor="start" x="187" y="-18.5" font-family="Helvetica,sans-Serif" font-size="10.00">census_tracts_kml.Process</text>
<text text-anchor="middle" x="248" y="-7.5" font-family="Helvetica,sans-Serif" font-size="10.00">ShpFile</text>
</a>
</g>
</g>
<!-- Node1&#45;&gt;Node2 -->
<g id="edge1" class="edge"><title>Node1&#45;&gt;Node2</title>
<path fill="none" stroke="midnightblue" d="M143.224,-15.5C151.553,-15.5 160.09,-15.5 168.517,-15.5"/>
<polygon fill="midnightblue" stroke="midnightblue" points="168.72,-19.0001 178.72,-15.5 168.719,-12.0001 168.72,-19.0001"/>
</g>
<!-- Node3 -->
<g id="node3" class="node"><title>Node3</title>
<g id="a_node3"><a xlink:href="../../d8/dd7/namespacecensus__tracts__kml.html#a3b50d237dec4e6f1d2f1379420dc5eb3" target="_top" xlink:title="census_tracts_kml.Convert\lShapeToPlacemark">
<polygon fill="white" stroke="black" points="353,-0.5 353,-30.5 490,-30.5 490,-0.5 353,-0.5"/>
<text text-anchor="start" x="361" y="-18.5" font-family="Helvetica,sans-Serif" font-size="10.00">census_tracts_kml.Convert</text>
<text text-anchor="middle" x="421.5" y="-7.5" font-family="Helvetica,sans-Serif" font-size="10.00">ShapeToPlacemark</text>
</a>
</g>
</g>
<!-- Node2&#45;&gt;Node3 -->
<g id="edge2" class="edge"><title>Node2&#45;&gt;Node3</title>
<path fill="none" stroke="midnightblue" d="M317.274,-15.5C325.575,-15.5 334.104,-15.5 342.533,-15.5"/>
<polygon fill="midnightblue" stroke="midnightblue" points="342.741,-19.0001 352.741,-15.5 342.741,-12.0001 342.741,-19.0001"/>
</g>
</g>
</svg>
