<?xml version="1.0" encoding="UTF-8" standalone="no"?>
<!DOCTYPE svg PUBLIC "-//W3C//DTD SVG 1.1//EN"
 "http://www.w3.org/Graphics/SVG/1.1/DTD/svg11.dtd">
<!-- Generated by graphviz version 2.38.0 (20140413.2041)
 -->
<!-- Title: census_tracts_kml.ProcessShpFile Pages: 1 -->
<svg width="325pt" height="39pt"
 viewBox="0.00 0.00 325.00 39.00" xmlns="http://www.w3.org/2000/svg" xmlns:xlink="http://www.w3.org/1999/xlink">
<g id="graph0" class="graph" transform="scale(1 1) rotate(0) translate(4 35)">
<title>census_tracts_kml.ProcessShpFile</title>
<polygon fill="white" stroke="none" points="-4,4 -4,-35 321,-35 321,4 -4,4"/>
<!-- Node1 -->
<g id="node1" class="node"><title>Node1</title>
<polygon fill="#bfbfbf" stroke="black" points="0,-0.5 0,-30.5 138,-30.5 138,-0.5 0,-0.5"/>
<text text-anchor="start" x="8" y="-18.5" font-family="Helvetica,sans-Serif" font-size="10.00">census_tracts_kml.Process</text>
<text text-anchor="middle" x="69" y="-7.5" font-family="Helvetica,sans-Serif" font-size="10.00">ShpFile</text>
</g>
<!-- Node2 -->
<g id="node2" class="node"><title>Node2</title>
<g id="a_node2"><a xlink:href="../../d8/dd7/namespacecensus__tracts__kml.html#a88148d12bd32d43ea881c461485cbcee" target="_top" xlink:title="census_tracts_kml.Translate\lShpFileToKML">
<polygon fill="white" stroke="black" points="174,-0.5 174,-30.5 317,-30.5 317,-0.5 174,-0.5"/>
<text text-anchor="start" x="182" y="-18.5" font-family="Helvetica,sans-Serif" font-size="10.00">census_tracts_kml.Translate</text>
<text text-anchor="middle" x="245.5" y="-7.5" font-family="Helvetica,sans-Serif" font-size="10.00">ShpFileToKML</text>
</a>
</g>
</g>
<!-- Node1&#45;&gt;Node2 -->
<g id="edge1" class="edge"><title>Node1&#45;&gt;Node2</title>
<path fill="none" stroke="midnightblue" d="M148.427,-15.5C156.861,-15.5 165.407,-15.5 173.743,-15.5"/>
<polygon fill="midnightblue" stroke="midnightblue" points="148.216,-12.0001 138.216,-15.5 148.216,-19.0001 148.216,-12.0001"/>
</g>
</g>
</svg>
