<?xml version="1.0" encoding="UTF-8" standalone="no"?>
<!DOCTYPE svg PUBLIC "-//W3C//DTD SVG 1.1//EN"
 "http://www.w3.org/Graphics/SVG/1.1/DTD/svg11.dtd">
<!-- Generated by graphviz version 2.38.0 (20140413.2041)
 -->
<!-- Title: src.harness.util.generateCpiRsaKeys Pages: 1 -->
<svg width="350pt" height="110pt"
 viewBox="0.00 0.00 350.00 110.00" xmlns="http://www.w3.org/2000/svg" xmlns:xlink="http://www.w3.org/1999/xlink">
<g id="graph0" class="graph" transform="scale(1 1) rotate(0) translate(4 106)">
<title>src.harness.util.generateCpiRsaKeys</title>
<polygon fill="white" stroke="none" points="-4,4 -4,-106 346,-106 346,4 -4,4"/>
<!-- Node1 -->
<g id="node1" class="node"><title>Node1</title>
<polygon fill="#bfbfbf" stroke="black" points="0,-36 0,-66 124,-66 124,-36 0,-36"/>
<text text-anchor="start" x="8" y="-54" font-family="Helvetica,sans-Serif" font-size="10.00">src.harness.util.generate</text>
<text text-anchor="middle" x="62" y="-43" font-family="Helvetica,sans-Serif" font-size="10.00">CpiRsaKeys</text>
</g>
<!-- Node2 -->
<g id="node2" class="node"><title>Node2</title>
<g id="a_node2"><a xlink:href="../../d3/da6/classsrc_1_1harness_1_1testcases_1_1WINNF__FT__S__REG__testcase_1_1RegistrationTestcase.html#a251e74715c4f8ed95d52dc3d30c517bd" target="_top" xlink:title="src.harness.testcases.WINNF\l_FT_S_REG_testcase.Registration\lTestcase.test_WINNF_FT_S_REG_3">
<polygon fill="white" stroke="black" points="160,-60.5 160,-101.5 342,-101.5 342,-60.5 160,-60.5"/>
<text text-anchor="start" x="168" y="-89.5" font-family="Helvetica,sans-Serif" font-size="10.00">src.harness.testcases.WINNF</text>
<text text-anchor="start" x="168" y="-78.5" font-family="Helvetica,sans-Serif" font-size="10.00">_FT_S_REG_testcase.Registration</text>
<text text-anchor="middle" x="251" y="-67.5" font-family="Helvetica,sans-Serif" font-size="10.00">Testcase.test_WINNF_FT_S_REG_3</text>
</a>
</g>
</g>
<!-- Node1&#45;&gt;Node2 -->
<g id="edge1" class="edge"><title>Node1&#45;&gt;Node2</title>
<path fill="none" stroke="midnightblue" d="M134.278,-62.435C142.633,-63.7753 151.239,-65.156 159.808,-66.5307"/>
<polygon fill="midnightblue" stroke="midnightblue" points="134.659,-58.9514 124.231,-60.8231 133.55,-65.863 134.659,-58.9514"/>
</g>
<!-- Node3 -->
<g id="node3" class="node"><title>Node3</title>
<g id="a_node3"><a xlink:href="../../d3/da6/classsrc_1_1harness_1_1testcases_1_1WINNF__FT__S__REG__testcase_1_1RegistrationTestcase.html#a116655c7c779fc6873842b4a53a4ce4c" target="_top" xlink:title="src.harness.testcases.WINNF\l_FT_S_REG_testcase.Registration\lTestcase.test_WINNF_FT_S_REG_4">
<polygon fill="white" stroke="black" points="160,-0.5 160,-41.5 342,-41.5 342,-0.5 160,-0.5"/>
<text text-anchor="start" x="168" y="-29.5" font-family="Helvetica,sans-Serif" font-size="10.00">src.harness.testcases.WINNF</text>
<text text-anchor="start" x="168" y="-18.5" font-family="Helvetica,sans-Serif" font-size="10.00">_FT_S_REG_testcase.Registration</text>
<text text-anchor="middle" x="251" y="-7.5" font-family="Helvetica,sans-Serif" font-size="10.00">Testcase.test_WINNF_FT_S_REG_4</text>
</a>
</g>
</g>
<!-- Node1&#45;&gt;Node3 -->
<g id="edge2" class="edge"><title>Node1&#45;&gt;Node3</title>
<path fill="none" stroke="midnightblue" d="M134.278,-39.565C142.633,-38.2247 151.239,-36.844 159.808,-35.4693"/>
<polygon fill="midnightblue" stroke="midnightblue" points="133.55,-36.137 124.231,-41.1769 134.659,-43.0486 133.55,-36.137"/>
</g>
</g>
</svg>
