<?xml version="1.0" encoding="UTF-8" standalone="no"?>
<!DOCTYPE svg PUBLIC "-//W3C//DTD SVG 1.1//EN"
 "http://www.w3.org/Graphics/SVG/1.1/DTD/svg11.dtd">
<!-- Generated by graphviz version 2.38.0 (20140413.2041)
 -->
<!-- Title: src.harness.util.convertRequestToRequestWithCpiSignature Pages: 1 -->
<svg width="622pt" height="233pt"
 viewBox="0.00 0.00 622.00 233.00" xmlns="http://www.w3.org/2000/svg" xmlns:xlink="http://www.w3.org/1999/xlink">
<g id="graph0" class="graph" transform="scale(1 1) rotate(0) translate(4 229)">
<title>src.harness.util.convertRequestToRequestWithCpiSignature</title>
<polygon fill="white" stroke="none" points="-4,4 -4,-229 618,-229 618,4 -4,4"/>
<!-- Node1 -->
<g id="node1" class="node"><title>Node1</title>
<polygon fill="#bfbfbf" stroke="black" points="0,-80 0,-110 178,-110 178,-80 0,-80"/>
<text text-anchor="start" x="8" y="-98" font-family="Helvetica,sans-Serif" font-size="10.00">src.harness.util.convert</text>
<text text-anchor="middle" x="89" y="-87" font-family="Helvetica,sans-Serif" font-size="10.00">RequestToRequestWithCpiSignature</text>
</g>
<!-- Node2 -->
<g id="node2" class="node"><title>Node2</title>
<g id="a_node2"><a xlink:href="../../d3/da6/classsrc_1_1harness_1_1testcases_1_1WINNF__FT__S__REG__testcase_1_1RegistrationTestcase.html#a251e74715c4f8ed95d52dc3d30c517bd" target="_top" xlink:title="src.harness.testcases.WINNF\l_FT_S_REG_testcase.Registration\lTestcase.test_WINNF_FT_S_REG_3">
<polygon fill="white" stroke="black" points="214,-183.5 214,-224.5 396,-224.5 396,-183.5 214,-183.5"/>
<text text-anchor="start" x="222" y="-212.5" font-family="Helvetica,sans-Serif" font-size="10.00">src.harness.testcases.WINNF</text>
<text text-anchor="start" x="222" y="-201.5" font-family="Helvetica,sans-Serif" font-size="10.00">_FT_S_REG_testcase.Registration</text>
<text text-anchor="middle" x="305" y="-190.5" font-family="Helvetica,sans-Serif" font-size="10.00">Testcase.test_WINNF_FT_S_REG_3</text>
</a>
</g>
</g>
<!-- Node1&#45;&gt;Node2 -->
<g id="edge1" class="edge"><title>Node1&#45;&gt;Node2</title>
<path fill="none" stroke="midnightblue" d="M118.577,-116.078C142.985,-133.364 179.519,-157.577 214,-174 220.989,-177.329 228.445,-180.446 235.961,-183.318"/>
<polygon fill="midnightblue" stroke="midnightblue" points="120.327,-113.027 110.159,-110.05 116.252,-118.718 120.327,-113.027"/>
</g>
<!-- Node3 -->
<g id="node3" class="node"><title>Node3</title>
<g id="a_node3"><a xlink:href="../../d3/da6/classsrc_1_1harness_1_1testcases_1_1WINNF__FT__S__REG__testcase_1_1RegistrationTestcase.html#a116655c7c779fc6873842b4a53a4ce4c" target="_top" xlink:title="src.harness.testcases.WINNF\l_FT_S_REG_testcase.Registration\lTestcase.test_WINNF_FT_S_REG_4">
<polygon fill="white" stroke="black" points="214,-123.5 214,-164.5 396,-164.5 396,-123.5 214,-123.5"/>
<text text-anchor="start" x="222" y="-152.5" font-family="Helvetica,sans-Serif" font-size="10.00">src.harness.testcases.WINNF</text>
<text text-anchor="start" x="222" y="-141.5" font-family="Helvetica,sans-Serif" font-size="10.00">_FT_S_REG_testcase.Registration</text>
<text text-anchor="middle" x="305" y="-130.5" font-family="Helvetica,sans-Serif" font-size="10.00">Testcase.test_WINNF_FT_S_REG_4</text>
</a>
</g>
</g>
<!-- Node1&#45;&gt;Node3 -->
<g id="edge2" class="edge"><title>Node1&#45;&gt;Node3</title>
<path fill="none" stroke="midnightblue" d="M165.836,-112.364C181.559,-115.964 198.266,-119.79 214.427,-123.49"/>
<polygon fill="midnightblue" stroke="midnightblue" points="166.19,-108.855 155.661,-110.035 164.628,-115.678 166.19,-108.855"/>
</g>
<!-- Node4 -->
<g id="node4" class="node"><title>Node4</title>
<g id="a_node4"><a xlink:href="../../d3/da6/classsrc_1_1harness_1_1testcases_1_1WINNF__FT__S__REG__testcase_1_1RegistrationTestcase.html#ab7f4566fffa34d0d5eeb30b5e8a8d0ed" target="_top" xlink:title="src.harness.testcases.WINNF\l_FT_S_REG_testcase.Registration\lTestcase.test_WINNF_FT_S_REG_5">
<polygon fill="white" stroke="black" points="432,-67.5 432,-108.5 614,-108.5 614,-67.5 432,-67.5"/>
<text text-anchor="start" x="440" y="-96.5" font-family="Helvetica,sans-Serif" font-size="10.00">src.harness.testcases.WINNF</text>
<text text-anchor="start" x="440" y="-85.5" font-family="Helvetica,sans-Serif" font-size="10.00">_FT_S_REG_testcase.Registration</text>
<text text-anchor="middle" x="523" y="-74.5" font-family="Helvetica,sans-Serif" font-size="10.00">Testcase.test_WINNF_FT_S_REG_5</text>
</a>
</g>
</g>
<!-- Node1&#45;&gt;Node4 -->
<g id="edge3" class="edge"><title>Node1&#45;&gt;Node4</title>
<path fill="none" stroke="midnightblue" d="M188.347,-93.4064C261.492,-92.2212 360.54,-90.6162 431.688,-89.4634"/>
<polygon fill="midnightblue" stroke="midnightblue" points="188.145,-89.9091 178.203,-93.5708 188.259,-96.9082 188.145,-89.9091"/>
</g>
<!-- Node5 -->
<g id="node5" class="node"><title>Node5</title>
<g id="a_node5"><a xlink:href="../../d3/da6/classsrc_1_1harness_1_1testcases_1_1WINNF__FT__S__REG__testcase_1_1RegistrationTestcase.html#a869aef9c311b30b1e73252853531c29c" target="_top" xlink:title="src.harness.testcases.WINNF\l_FT_S_REG_testcase.Registration\lTestcase.test_WINNF_FT_S_REG_6">
<polygon fill="white" stroke="black" points="432,-0.5 432,-41.5 614,-41.5 614,-0.5 432,-0.5"/>
<text text-anchor="start" x="440" y="-29.5" font-family="Helvetica,sans-Serif" font-size="10.00">src.harness.testcases.WINNF</text>
<text text-anchor="start" x="440" y="-18.5" font-family="Helvetica,sans-Serif" font-size="10.00">_FT_S_REG_testcase.Registration</text>
<text text-anchor="middle" x="523" y="-7.5" font-family="Helvetica,sans-Serif" font-size="10.00">Testcase.test_WINNF_FT_S_REG_6</text>
</a>
</g>
</g>
<!-- Node1&#45;&gt;Node5 -->
<g id="edge4" class="edge"><title>Node1&#45;&gt;Node5</title>
<path fill="none" stroke="midnightblue" d="M117.995,-74.1055C142.052,-57.5059 178.396,-35.548 214,-26 285.412,-6.84932 369.519,-6.92466 431.783,-11.0456"/>
<polygon fill="midnightblue" stroke="midnightblue" points="115.868,-71.3227 109.712,-79.9458 119.902,-77.0436 115.868,-71.3227"/>
</g>
<!-- Node6 -->
<g id="node6" class="node"><title>Node6</title>
<g id="a_node6"><a xlink:href="../../d8/d6c/namespacesrc_1_1harness_1_1util.html#a3aa1fdf560b61d353fc09eae701b084d" target="_top" xlink:title="src.harness.util.generate\lCpiEcKeys">
<polygon fill="white" stroke="black" points="243,-36 243,-66 367,-66 367,-36 243,-36"/>
<text text-anchor="start" x="251" y="-54" font-family="Helvetica,sans-Serif" font-size="10.00">src.harness.util.generate</text>
<text text-anchor="middle" x="305" y="-43" font-family="Helvetica,sans-Serif" font-size="10.00">CpiEcKeys</text>
</a>
</g>
</g>
<!-- Node1&#45;&gt;Node6 -->
<g id="edge5" class="edge"><title>Node1&#45;&gt;Node6</title>
<path fill="none" stroke="midnightblue" d="M172.89,-77.9572C196.115,-73.1819 220.939,-68.0779 242.669,-63.61"/>
<polygon fill="midnightblue" stroke="midnightblue" points="172.138,-74.5384 163.048,-79.9808 173.548,-81.395 172.138,-74.5384"/>
</g>
<!-- Node6&#45;&gt;Node4 -->
<g id="edge6" class="edge"><title>Node6&#45;&gt;Node4</title>
<path fill="none" stroke="midnightblue" d="M377.118,-63.1822C394.563,-66.1706 413.468,-69.4089 431.683,-72.529"/>
<polygon fill="midnightblue" stroke="midnightblue" points="377.478,-59.6931 367.031,-61.4544 376.296,-66.5926 377.478,-59.6931"/>
</g>
<!-- Node6&#45;&gt;Node5 -->
<g id="edge7" class="edge"><title>Node6&#45;&gt;Node5</title>
<path fill="none" stroke="midnightblue" d="M377.118,-41.1225C394.563,-38.6996 413.468,-36.0739 431.683,-33.544"/>
<polygon fill="midnightblue" stroke="midnightblue" points="376.454,-37.681 367.031,-42.5235 377.417,-44.6145 376.454,-37.681"/>
</g>
</g>
</svg>
