<?xml version="1.0" encoding="UTF-8" standalone="no"?>
<!DOCTYPE svg PUBLIC "-//W3C//DTD SVG 1.1//EN"
 "http://www.w3.org/Graphics/SVG/1.1/DTD/svg11.dtd">
<!-- Generated by graphviz version 2.38.0 (20140413.2041)
 -->
<!-- Title: src.harness.util.writeConfig Pages: 1 -->
<svg width="386pt" height="110pt"
 viewBox="0.00 0.00 386.00 110.00" xmlns="http://www.w3.org/2000/svg" xmlns:xlink="http://www.w3.org/1999/xlink">
<g id="graph0" class="graph" transform="scale(1 1) rotate(0) translate(4 106)">
<title>src.harness.util.writeConfig</title>
<polygon fill="white" stroke="none" points="-4,4 -4,-106 382,-106 382,4 -4,4"/>
<!-- Node1 -->
<g id="node1" class="node"><title>Node1</title>
<polygon fill="#bfbfbf" stroke="black" points="0,-41.5 0,-60.5 136,-60.5 136,-41.5 0,-41.5"/>
<text text-anchor="middle" x="68" y="-48.5" font-family="Helvetica,sans-Serif" font-size="10.00">src.harness.util.writeConfig</text>
</g>
<!-- Node2 -->
<g id="node2" class="node"><title>Node2</title>
<g id="a_node2"><a xlink:href="../../d3/da6/classsrc_1_1harness_1_1testcases_1_1WINNF__FT__S__REG__testcase_1_1RegistrationTestcase.html#a52e96127e262bc79576584c46ab40705" target="_top" xlink:title="src.harness.testcases.WINNF\l_FT_S_REG_testcase.Registration\lTestcase.generate_REG_11_default_config">
<polygon fill="white" stroke="black" points="172,-60.5 172,-101.5 378,-101.5 378,-60.5 172,-60.5"/>
<text text-anchor="start" x="180" y="-89.5" font-family="Helvetica,sans-Serif" font-size="10.00">src.harness.testcases.WINNF</text>
<text text-anchor="start" x="180" y="-78.5" font-family="Helvetica,sans-Serif" font-size="10.00">_FT_S_REG_testcase.Registration</text>
<text text-anchor="middle" x="275" y="-67.5" font-family="Helvetica,sans-Serif" font-size="10.00">Testcase.generate_REG_11_default_config</text>
</a>
</g>
</g>
<!-- Node1&#45;&gt;Node2 -->
<g id="edge1" class="edge"><title>Node1&#45;&gt;Node2</title>
<path fill="none" stroke="midnightblue" d="M144.214,-62.0069C153.262,-63.331 162.616,-64.6999 171.965,-66.0681"/>
<polygon fill="midnightblue" stroke="midnightblue" points="144.546,-58.5184 134.145,-60.5334 143.533,-65.4446 144.546,-58.5184"/>
</g>
<!-- Node3 -->
<g id="node3" class="node"><title>Node3</title>
<g id="a_node3"><a xlink:href="../../d3/da6/classsrc_1_1harness_1_1testcases_1_1WINNF__FT__S__REG__testcase_1_1RegistrationTestcase.html#aa3c38e756607b15cefd2bfa8c2cd6338" target="_top" xlink:title="src.harness.testcases.WINNF\l_FT_S_REG_testcase.Registration\lTestcase.generate_REG_13_default_config">
<polygon fill="white" stroke="black" points="172,-0.5 172,-41.5 378,-41.5 378,-0.5 172,-0.5"/>
<text text-anchor="start" x="180" y="-29.5" font-family="Helvetica,sans-Serif" font-size="10.00">src.harness.testcases.WINNF</text>
<text text-anchor="start" x="180" y="-18.5" font-family="Helvetica,sans-Serif" font-size="10.00">_FT_S_REG_testcase.Registration</text>
<text text-anchor="middle" x="275" y="-7.5" font-family="Helvetica,sans-Serif" font-size="10.00">Testcase.generate_REG_13_default_config</text>
</a>
</g>
</g>
<!-- Node1&#45;&gt;Node3 -->
<g id="edge2" class="edge"><title>Node1&#45;&gt;Node3</title>
<path fill="none" stroke="midnightblue" d="M144.214,-39.9931C153.262,-38.669 162.616,-37.3001 171.965,-35.9319"/>
<polygon fill="midnightblue" stroke="midnightblue" points="143.533,-36.5554 134.145,-41.4666 144.546,-43.4816 143.533,-36.5554"/>
</g>
</g>
</svg>
