<?xml version="1.0" encoding="UTF-8" standalone="no"?>
<!DOCTYPE svg PUBLIC "-//W3C//DTD SVG 1.1//EN"
 "http://www.w3.org/Graphics/SVG/1.1/DTD/svg11.dtd">
<!-- Generated by graphviz version 2.38.0 (20140413.2041)
 -->
<!-- Title: src.harness.util._log_testcase_header Pages: 1 -->
<svg width="529pt" height="124pt"
 viewBox="0.00 0.00 529.00 123.50" xmlns="http://www.w3.org/2000/svg" xmlns:xlink="http://www.w3.org/1999/xlink">
<g id="graph0" class="graph" transform="scale(1 1) rotate(0) translate(4 119.5)">
<title>src.harness.util._log_testcase_header</title>
<polygon fill="white" stroke="none" points="-4,4 -4,-119.5 525,-119.5 525,4 -4,4"/>
<!-- Node1 -->
<g id="node1" class="node"><title>Node1</title>
<polygon fill="#bfbfbf" stroke="black" points="0,-60 0,-90 104,-90 104,-60 0,-60"/>
<text text-anchor="start" x="8" y="-78" font-family="Helvetica,sans-Serif" font-size="10.00">src.harness.util._log</text>
<text text-anchor="middle" x="52" y="-67" font-family="Helvetica,sans-Serif" font-size="10.00">_testcase_header</text>
</g>
<!-- Node2 -->
<g id="node2" class="node"><title>Node2</title>
<g id="a_node2"><a xlink:href="../../d8/d6c/namespacesrc_1_1harness_1_1util.html#a5fe1cef92adc2c9a8cae8898d80685a1" target="_top" xlink:title="src.harness.util.winnforum\l_testcase">
<polygon fill="white" stroke="black" points="144,-85 144,-115 275,-115 275,-85 144,-85"/>
<text text-anchor="start" x="152" y="-103" font-family="Helvetica,sans-Serif" font-size="10.00">src.harness.util.winnforum</text>
<text text-anchor="middle" x="209.5" y="-92" font-family="Helvetica,sans-Serif" font-size="10.00">_testcase</text>
</a>
</g>
</g>
<!-- Node1&#45;&gt;Node2 -->
<g id="edge1" class="edge"><title>Node1&#45;&gt;Node2</title>
<path fill="none" stroke="midnightblue" d="M114.316,-84.8578C124.032,-86.4199 134.107,-88.0397 143.895,-89.6134"/>
<polygon fill="midnightblue" stroke="midnightblue" points="114.776,-81.387 104.347,-83.2552 113.665,-88.2983 114.776,-81.387"/>
</g>
<!-- Node3 -->
<g id="node3" class="node"><title>Node3</title>
<g id="a_node3"><a xlink:href="../../d8/d6c/namespacesrc_1_1harness_1_1util.html#a7de548444768e2d50033048c1b6aee0f" target="_top" xlink:title="src.harness.util.configurable\l_testcase">
<polygon fill="white" stroke="black" points="140,-36 140,-66 279,-66 279,-36 140,-36"/>
<text text-anchor="start" x="148" y="-54" font-family="Helvetica,sans-Serif" font-size="10.00">src.harness.util.configurable</text>
<text text-anchor="middle" x="209.5" y="-43" font-family="Helvetica,sans-Serif" font-size="10.00">_testcase</text>
</a>
</g>
</g>
<!-- Node1&#45;&gt;Node3 -->
<g id="edge2" class="edge"><title>Node1&#45;&gt;Node3</title>
<path fill="none" stroke="midnightblue" d="M114.352,-65.5309C122.684,-64.245 131.278,-62.9185 139.73,-61.6141"/>
<polygon fill="midnightblue" stroke="midnightblue" points="113.697,-62.0905 104.347,-67.075 114.764,-69.0086 113.697,-62.0905"/>
</g>
<!-- Node4 -->
<g id="node4" class="node"><title>Node4</title>
<g id="a_node4"><a xlink:href="../../d3/da6/classsrc_1_1harness_1_1testcases_1_1WINNF__FT__S__REG__testcase_1_1RegistrationTestcase.html#a52e96127e262bc79576584c46ab40705" target="_top" xlink:title="src.harness.testcases.WINNF\l_FT_S_REG_testcase.Registration\lTestcase.generate_REG_11_default_config">
<polygon fill="white" stroke="black" points="315,-60.5 315,-101.5 521,-101.5 521,-60.5 315,-60.5"/>
<text text-anchor="start" x="323" y="-89.5" font-family="Helvetica,sans-Serif" font-size="10.00">src.harness.testcases.WINNF</text>
<text text-anchor="start" x="323" y="-78.5" font-family="Helvetica,sans-Serif" font-size="10.00">_FT_S_REG_testcase.Registration</text>
<text text-anchor="middle" x="418" y="-67.5" font-family="Helvetica,sans-Serif" font-size="10.00">Testcase.generate_REG_11_default_config</text>
</a>
</g>
</g>
<!-- Node3&#45;&gt;Node4 -->
<g id="edge3" class="edge"><title>Node3&#45;&gt;Node4</title>
<path fill="none" stroke="midnightblue" d="M289.273,-62.4441C297.585,-63.6516 306.122,-64.8918 314.65,-66.1308"/>
<polygon fill="midnightblue" stroke="midnightblue" points="289.661,-58.9637 279.262,-60.9896 288.654,-65.891 289.661,-58.9637"/>
</g>
<!-- Node5 -->
<g id="node5" class="node"><title>Node5</title>
<g id="a_node5"><a xlink:href="../../d3/da6/classsrc_1_1harness_1_1testcases_1_1WINNF__FT__S__REG__testcase_1_1RegistrationTestcase.html#aa3c38e756607b15cefd2bfa8c2cd6338" target="_top" xlink:title="src.harness.testcases.WINNF\l_FT_S_REG_testcase.Registration\lTestcase.generate_REG_13_default_config">
<polygon fill="white" stroke="black" points="315,-0.5 315,-41.5 521,-41.5 521,-0.5 315,-0.5"/>
<text text-anchor="start" x="323" y="-29.5" font-family="Helvetica,sans-Serif" font-size="10.00">src.harness.testcases.WINNF</text>
<text text-anchor="start" x="323" y="-18.5" font-family="Helvetica,sans-Serif" font-size="10.00">_FT_S_REG_testcase.Registration</text>
<text text-anchor="middle" x="418" y="-7.5" font-family="Helvetica,sans-Serif" font-size="10.00">Testcase.generate_REG_13_default_config</text>
</a>
</g>
</g>
<!-- Node3&#45;&gt;Node5 -->
<g id="edge4" class="edge"><title>Node3&#45;&gt;Node5</title>
<path fill="none" stroke="midnightblue" d="M289.273,-39.5559C297.585,-38.3484 306.122,-37.1082 314.65,-35.8692"/>
<polygon fill="midnightblue" stroke="midnightblue" points="288.654,-36.109 279.262,-41.0104 289.661,-43.0363 288.654,-36.109"/>
</g>
</g>
</svg>
