<?xml version="1.0" encoding="UTF-8" standalone="no"?>
<!DOCTYPE svg PUBLIC "-//W3C//DTD SVG 1.1//EN"
 "http://www.w3.org/Graphics/SVG/1.1/DTD/svg11.dtd">
<!-- Generated by graphviz version 2.38.0 (20140413.2041)
 -->
<!-- Title: src.harness.util.getRandomLatLongInPolygon Pages: 1 -->
<!--zoomable 770 -->
<svg id="main" version="1.1" xmlns="http://www.w3.org/2000/svg" xmlns:xlink="http://www.w3.org/1999/xlink" xml:space="preserve" onload="init(evt)">
<style type="text/css"><![CDATA[
.edge:hover path { stroke: red; }
.edge:hover polygon { stroke: red; fill: red; }
]]></style>
<script type="text/javascript"><![CDATA[
var edges = document.getElementsByTagName('g');
if (edges && edges.length) {
  for (var i=0;i<edges.length;i++) {
    if (edges[i].id.substr(0,4)=='edge') {
      edges[i].setAttribute('class','edge');
    }
  }
}
]]></script>
        <defs>
                <circle id="rim" cx="0" cy="0" r="7"/>
                <circle id="rim2" cx="0" cy="0" r="3.5"/>
                <g id="zoomPlus">
                        <use xlink:href="#rim" fill="#404040">
                                <set attributeName="fill" to="#808080" begin="zoomplus.mouseover" end="zoomplus.mouseout"/>
                        </use>
                        <path d="M-4,0h8M0,-4v8" fill="none" stroke="white" stroke-width="1.5" pointer-events="none"/>
                </g>
                <g id="zoomMin">
                        <use xlink:href="#rim" fill="#404040">
                                <set attributeName="fill" to="#808080" begin="zoomminus.mouseover" end="zoomminus.mouseout"/>
                        </use>
                        <path d="M-4,0h8" fill="none" stroke="white" stroke-width="1.5" pointer-events="none"/>
                </g>
                <g id="dirArrow">
                        <path fill="none" stroke="white" stroke-width="1.5" d="M0,-3.0v7 M-2.5,-0.5L0,-3.0L2.5,-0.5"/>
                </g>
               <g id="resetDef">
                       <use xlink:href="#rim2" fill="#404040">
                               <set attributeName="fill" to="#808080" begin="reset.mouseover" end="reset.mouseout"/>
                       </use>
               </g>
        </defs>

<script type="text/javascript">
var viewWidth = 389;
var viewHeight = 770;
var sectionId = 'dynsection-8';
</script>
<script xlink:href="../../svgpan.js"/>
<svg id="graph" class="graph">
<g id="viewport">
<title>src.harness.util.getRandomLatLongInPolygon</title>
<polygon fill="white" stroke="none" points="-4,4 -4,-766 385,-766 385,4 -4,4"/>
<!-- Node1 -->
<g id="node1" class="node"><title>Node1</title>
<polygon fill="#bfbfbf" stroke="black" points="0,-366 0,-396 137,-396 137,-366 0,-366"/>
<text text-anchor="start" x="8" y="-384" font-family="Helvetica,sans-Serif" font-size="10.00">src.harness.util.getRandom</text>
<text text-anchor="middle" x="68.5" y="-373" font-family="Helvetica,sans-Serif" font-size="10.00">LatLongInPolygon</text>
</g>
<!-- Node2 -->
<g id="node2" class="node"><title>Node2</title>
<g id="a_node2"><a xlink:href="../../de/d99/classsrc_1_1harness_1_1testcases_1_1grant__testcase_1_1GrantTestcaseUsingOldIds.html#a16dc4cd91b9b0e42ae63d2c247be3995" target="_top" xlink:title="src.harness.testcases.grant\l_testcase.GrantTestcaseUsingOld\lIds.test_WINNF_FT_S_GRA_15">
<polygon fill="white" stroke="black" points="193.5,-720.5 193.5,-761.5 360.5,-761.5 360.5,-720.5 193.5,-720.5"/>
<text text-anchor="start" x="201.5" y="-749.5" font-family="Helvetica,sans-Serif" font-size="10.00">src.harness.testcases.grant</text>
<text text-anchor="start" x="201.5" y="-738.5" font-family="Helvetica,sans-Serif" font-size="10.00">_testcase.GrantTestcaseUsingOld</text>
<text text-anchor="middle" x="277" y="-727.5" font-family="Helvetica,sans-Serif" font-size="10.00">Ids.test_WINNF_FT_S_GRA_15</text>
</a>
</g>
</g>
<!-- Node1&#45;&gt;Node2 -->
<g id="edge1" class="edge"><title>Node1&#45;&gt;Node2</title>
<path fill="none" stroke="midnightblue" d="M69.7657,-406.296C71.8208,-467.643 85.7858,-625.556 173,-711 178.92,-716.8 185.895,-721.49 193.378,-725.281"/>
<polygon fill="midnightblue" stroke="midnightblue" points="73.2572,-405.913 69.5056,-396.005 66.2594,-406.09 73.2572,-405.913"/>
</g>
<!-- Node3 -->
<g id="node3" class="node"><title>Node3</title>
<g id="a_node3"><a xlink:href="../../de/d99/classsrc_1_1harness_1_1testcases_1_1grant__testcase_1_1GrantTestcaseUsingOldIds.html#aeb64c8f939edb9894f97553ec90845e1" target="_top" xlink:title="src.harness.testcases.grant\l_testcase.GrantTestcaseUsingOld\lIds.test_WINNF_FT_S_GRA_18">
<polygon fill="white" stroke="black" points="193.5,-660.5 193.5,-701.5 360.5,-701.5 360.5,-660.5 193.5,-660.5"/>
<text text-anchor="start" x="201.5" y="-689.5" font-family="Helvetica,sans-Serif" font-size="10.00">src.harness.testcases.grant</text>
<text text-anchor="start" x="201.5" y="-678.5" font-family="Helvetica,sans-Serif" font-size="10.00">_testcase.GrantTestcaseUsingOld</text>
<text text-anchor="middle" x="277" y="-667.5" font-family="Helvetica,sans-Serif" font-size="10.00">Ids.test_WINNF_FT_S_GRA_18</text>
</a>
</g>
</g>
<!-- Node1&#45;&gt;Node3 -->
<g id="edge2" class="edge"><title>Node1&#45;&gt;Node3</title>
<path fill="none" stroke="midnightblue" d="M71.8211,-406.37C78.0706,-459.665 100.073,-583.863 173,-651 179.029,-656.55 186.029,-661.079 193.486,-664.773"/>
<polygon fill="midnightblue" stroke="midnightblue" points="75.2676,-405.686 70.7139,-396.12 68.3081,-406.438 75.2676,-405.686"/>
</g>
<!-- Node4 -->
<g id="node4" class="node"><title>Node4</title>
<g id="a_node4"><a xlink:href="../../de/d99/classsrc_1_1harness_1_1testcases_1_1grant__testcase_1_1GrantTestcaseUsingOldIds.html#a748b120d69d64407e2b10d5aac28205e" target="_top" xlink:title="src.harness.testcases.grant\l_testcase.GrantTestcaseUsingOld\lIds.test_WINNF_FT_S_GRA_25">
<polygon fill="white" stroke="black" points="193.5,-600.5 193.5,-641.5 360.5,-641.5 360.5,-600.5 193.5,-600.5"/>
<text text-anchor="start" x="201.5" y="-629.5" font-family="Helvetica,sans-Serif" font-size="10.00">src.harness.testcases.grant</text>
<text text-anchor="start" x="201.5" y="-618.5" font-family="Helvetica,sans-Serif" font-size="10.00">_testcase.GrantTestcaseUsingOld</text>
<text text-anchor="middle" x="277" y="-607.5" font-family="Helvetica,sans-Serif" font-size="10.00">Ids.test_WINNF_FT_S_GRA_25</text>
</a>
</g>
</g>
<!-- Node1&#45;&gt;Node4 -->
<g id="edge3" class="edge"><title>Node1&#45;&gt;Node4</title>
<path fill="none" stroke="midnightblue" d="M74.8205,-405.885C85.53,-449.874 113.889,-541.398 173,-591 179.135,-596.148 186.115,-600.413 193.483,-603.946"/>
<polygon fill="midnightblue" stroke="midnightblue" points="78.201,-404.969 72.5241,-396.024 71.3834,-406.557 78.201,-404.969"/>
</g>
<!-- Node5 -->
<g id="node5" class="node"><title>Node5</title>
<g id="a_node5"><a xlink:href="../../d7/d0d/classsrc_1_1harness_1_1testcases_1_1spectrum__inquiry__testcase_1_1SpectrumInquiryTestcaseUsingOldIds.html#a8729d4265873dbda89ebfaa774208e8b" target="_top" xlink:title="src.harness.testcases.spectrum\l_inquiry_testcase.SpectrumInquiryTestcase\lUsingOldIds.test_WINNF_FT_S_SIQ_17">
<polygon fill="white" stroke="black" points="173,-540.5 173,-581.5 381,-581.5 381,-540.5 173,-540.5"/>
<text text-anchor="start" x="181" y="-569.5" font-family="Helvetica,sans-Serif" font-size="10.00">src.harness.testcases.spectrum</text>
<text text-anchor="start" x="181" y="-558.5" font-family="Helvetica,sans-Serif" font-size="10.00">_inquiry_testcase.SpectrumInquiryTestcase</text>
<text text-anchor="middle" x="277" y="-547.5" font-family="Helvetica,sans-Serif" font-size="10.00">UsingOldIds.test_WINNF_FT_S_SIQ_17</text>
</a>
</g>
</g>
<!-- Node1&#45;&gt;Node5 -->
<g id="edge4" class="edge"><title>Node1&#45;&gt;Node5</title>
<path fill="none" stroke="midnightblue" d="M80.0861,-405.834C95.5973,-439.255 127.661,-498.28 173,-531 177.908,-534.542 183.231,-537.669 188.782,-540.428"/>
<polygon fill="midnightblue" stroke="midnightblue" points="83.1075,-404.02 75.8073,-396.342 76.7259,-406.896 83.1075,-404.02"/>
</g>
<!-- Node6 -->
<g id="node6" class="node"><title>Node6</title>
<g id="a_node6"><a xlink:href="../../d7/d0d/classsrc_1_1harness_1_1testcases_1_1spectrum__inquiry__testcase_1_1SpectrumInquiryTestcaseUsingOldIds.html#a4d93b45aec221f12006529ba14a14bfe" target="_top" xlink:title="src.harness.testcases.spectrum\l_inquiry_testcase.SpectrumInquiryTestcase\lUsingOldIds.test_WINNF_FT_S_SIQ_18">
<polygon fill="white" stroke="black" points="173,-480.5 173,-521.5 381,-521.5 381,-480.5 173,-480.5"/>
<text text-anchor="start" x="181" y="-509.5" font-family="Helvetica,sans-Serif" font-size="10.00">src.harness.testcases.spectrum</text>
<text text-anchor="start" x="181" y="-498.5" font-family="Helvetica,sans-Serif" font-size="10.00">_inquiry_testcase.SpectrumInquiryTestcase</text>
<text text-anchor="middle" x="277" y="-487.5" font-family="Helvetica,sans-Serif" font-size="10.00">UsingOldIds.test_WINNF_FT_S_SIQ_18</text>
</a>
</g>
</g>
<!-- Node1&#45;&gt;Node6 -->
<g id="edge5" class="edge"><title>Node1&#45;&gt;Node6</title>
<path fill="none" stroke="midnightblue" d="M89.9239,-403.647C109.423,-423.989 140.565,-453.298 173,-471 179.458,-474.524 186.375,-477.675 193.456,-480.484"/>
<polygon fill="midnightblue" stroke="midnightblue" points="92.4438,-401.218 83.0422,-396.333 87.3457,-406.015 92.4438,-401.218"/>
</g>
<!-- Node7 -->
<g id="node7" class="node"><title>Node7</title>
<g id="a_node7"><a xlink:href="../../d5/de0/classsrc_1_1harness_1_1testcases_1_1WINNF__FT__S__GRA__testcase_1_1GrantTestcase.html#abca2e5f6b50a692b6860fb0a3be2dfe5" target="_top" xlink:title="src.harness.testcases.WINNF\l_FT_S_GRA_testcase.GrantTestcase.test\l_WINNF_FT_S_GRA_1">
<polygon fill="white" stroke="black" points="175.5,-420.5 175.5,-461.5 378.5,-461.5 378.5,-420.5 175.5,-420.5"/>
<text text-anchor="start" x="183.5" y="-449.5" font-family="Helvetica,sans-Serif" font-size="10.00">src.harness.testcases.WINNF</text>
<text text-anchor="start" x="183.5" y="-438.5" font-family="Helvetica,sans-Serif" font-size="10.00">_FT_S_GRA_testcase.GrantTestcase.test</text>
<text text-anchor="middle" x="277" y="-427.5" font-family="Helvetica,sans-Serif" font-size="10.00">_WINNF_FT_S_GRA_1</text>
</a>
</g>
</g>
<!-- Node1&#45;&gt;Node7 -->
<g id="edge6" class="edge"><title>Node1&#45;&gt;Node7</title>
<path fill="none" stroke="midnightblue" d="M131.129,-398.907C154.496,-405.696 181.277,-413.478 205.407,-420.489"/>
<polygon fill="midnightblue" stroke="midnightblue" points="131.922,-395.492 121.342,-396.063 129.968,-402.214 131.922,-395.492"/>
</g>
<!-- Node8 -->
<g id="node8" class="node"><title>Node8</title>
<g id="a_node8"><a xlink:href="../../d5/de0/classsrc_1_1harness_1_1testcases_1_1WINNF__FT__S__GRA__testcase_1_1GrantTestcase.html#a2b09aed06fe88e98679f8d547fa5d193" target="_top" xlink:title="src.harness.testcases.WINNF\l_FT_S_GRA_testcase.GrantTestcase.test\l_WINNF_FT_S_GRA_8">
<polygon fill="white" stroke="black" points="175.5,-360.5 175.5,-401.5 378.5,-401.5 378.5,-360.5 175.5,-360.5"/>
<text text-anchor="start" x="183.5" y="-389.5" font-family="Helvetica,sans-Serif" font-size="10.00">src.harness.testcases.WINNF</text>
<text text-anchor="start" x="183.5" y="-378.5" font-family="Helvetica,sans-Serif" font-size="10.00">_FT_S_GRA_testcase.GrantTestcase.test</text>
<text text-anchor="middle" x="277" y="-367.5" font-family="Helvetica,sans-Serif" font-size="10.00">_WINNF_FT_S_GRA_8</text>
</a>
</g>
</g>
<!-- Node1&#45;&gt;Node8 -->
<g id="edge7" class="edge"><title>Node1&#45;&gt;Node8</title>
<path fill="none" stroke="midnightblue" d="M147.305,-381C156.451,-381 165.881,-381 175.283,-381"/>
<polygon fill="midnightblue" stroke="midnightblue" points="147.116,-377.5 137.116,-381 147.116,-384.5 147.116,-377.5"/>
</g>
<!-- Node9 -->
<g id="node9" class="node"><title>Node9</title>
<g id="a_node9"><a xlink:href="../../d5/de0/classsrc_1_1harness_1_1testcases_1_1WINNF__FT__S__GRA__testcase_1_1GrantTestcase.html#a21141affece7458af2b68c5d9a62cfa9" target="_top" xlink:title="src.harness.testcases.WINNF\l_FT_S_GRA_testcase.GrantTestcase.test\l_WINNF_FT_S_GRA_9">
<polygon fill="white" stroke="black" points="175.5,-300.5 175.5,-341.5 378.5,-341.5 378.5,-300.5 175.5,-300.5"/>
<text text-anchor="start" x="183.5" y="-329.5" font-family="Helvetica,sans-Serif" font-size="10.00">src.harness.testcases.WINNF</text>
<text text-anchor="start" x="183.5" y="-318.5" font-family="Helvetica,sans-Serif" font-size="10.00">_FT_S_GRA_testcase.GrantTestcase.test</text>
<text text-anchor="middle" x="277" y="-307.5" font-family="Helvetica,sans-Serif" font-size="10.00">_WINNF_FT_S_GRA_9</text>
</a>
</g>
</g>
<!-- Node1&#45;&gt;Node9 -->
<g id="edge8" class="edge"><title>Node1&#45;&gt;Node9</title>
<path fill="none" stroke="midnightblue" d="M131.129,-363.093C154.496,-356.304 181.277,-348.522 205.407,-341.511"/>
<polygon fill="midnightblue" stroke="midnightblue" points="129.968,-359.786 121.342,-365.937 131.922,-366.508 129.968,-359.786"/>
</g>
<!-- Node10 -->
<g id="node10" class="node"><title>Node10</title>
<g id="a_node10"><a xlink:href="../../d5/de0/classsrc_1_1harness_1_1testcases_1_1WINNF__FT__S__GRA__testcase_1_1GrantTestcase.html#aea1b5b02b16c21167a6fc3ac207fa1a6" target="_top" xlink:title="src.harness.testcases.WINNF\l_FT_S_GRA_testcase.GrantTestcase.test\l_WINNF_FT_S_GRA_10">
<polygon fill="white" stroke="black" points="175.5,-240.5 175.5,-281.5 378.5,-281.5 378.5,-240.5 175.5,-240.5"/>
<text text-anchor="start" x="183.5" y="-269.5" font-family="Helvetica,sans-Serif" font-size="10.00">src.harness.testcases.WINNF</text>
<text text-anchor="start" x="183.5" y="-258.5" font-family="Helvetica,sans-Serif" font-size="10.00">_FT_S_GRA_testcase.GrantTestcase.test</text>
<text text-anchor="middle" x="277" y="-247.5" font-family="Helvetica,sans-Serif" font-size="10.00">_WINNF_FT_S_GRA_10</text>
</a>
</g>
</g>
<!-- Node1&#45;&gt;Node10 -->
<g id="edge9" class="edge"><title>Node1&#45;&gt;Node10</title>
<path fill="none" stroke="midnightblue" d="M89.9239,-358.353C109.423,-338.011 140.565,-308.702 173,-291 179.458,-287.476 186.375,-284.325 193.456,-281.516"/>
<polygon fill="midnightblue" stroke="midnightblue" points="87.3457,-355.985 83.0422,-365.667 92.4438,-360.782 87.3457,-355.985"/>
</g>
<!-- Node11 -->
<g id="node11" class="node"><title>Node11</title>
<g id="a_node11"><a xlink:href="../../d5/de0/classsrc_1_1harness_1_1testcases_1_1WINNF__FT__S__GRA__testcase_1_1GrantTestcase.html#a57891611cbef75fc784c2a746b96ce62" target="_top" xlink:title="src.harness.testcases.WINNF\l_FT_S_GRA_testcase.GrantTestcase.test\l_WINNF_FT_S_GRA_13">
<polygon fill="white" stroke="black" points="175.5,-180.5 175.5,-221.5 378.5,-221.5 378.5,-180.5 175.5,-180.5"/>
<text text-anchor="start" x="183.5" y="-209.5" font-family="Helvetica,sans-Serif" font-size="10.00">src.harness.testcases.WINNF</text>
<text text-anchor="start" x="183.5" y="-198.5" font-family="Helvetica,sans-Serif" font-size="10.00">_FT_S_GRA_testcase.GrantTestcase.test</text>
<text text-anchor="middle" x="277" y="-187.5" font-family="Helvetica,sans-Serif" font-size="10.00">_WINNF_FT_S_GRA_13</text>
</a>
</g>
</g>
<!-- Node1&#45;&gt;Node11 -->
<g id="edge10" class="edge"><title>Node1&#45;&gt;Node11</title>
<path fill="none" stroke="midnightblue" d="M80.0861,-356.166C95.5973,-322.745 127.661,-263.72 173,-231 177.908,-227.458 183.231,-224.331 188.782,-221.572"/>
<polygon fill="midnightblue" stroke="midnightblue" points="76.7259,-355.104 75.8073,-365.658 83.1075,-357.98 76.7259,-355.104"/>
</g>
<!-- Node12 -->
<g id="node12" class="node"><title>Node12</title>
<g id="a_node12"><a xlink:href="../../dd/df3/classsrc_1_1harness_1_1testcases_1_1WINNF__FT__S__SIQ__testcase_1_1SpectrumInquiryTestcase.html#af164604ec7d8713b9c171c379df8c97b" target="_top" xlink:title="src.harness.testcases.WINNF\l_FT_S_SIQ_testcase.SpectrumInquiry\lTestcase.test_WINNF_FT_S_SIQ_2">
<polygon fill="white" stroke="black" points="184.5,-120.5 184.5,-161.5 369.5,-161.5 369.5,-120.5 184.5,-120.5"/>
<text text-anchor="start" x="192.5" y="-149.5" font-family="Helvetica,sans-Serif" font-size="10.00">src.harness.testcases.WINNF</text>
<text text-anchor="start" x="192.5" y="-138.5" font-family="Helvetica,sans-Serif" font-size="10.00">_FT_S_SIQ_testcase.SpectrumInquiry</text>
<text text-anchor="middle" x="277" y="-127.5" font-family="Helvetica,sans-Serif" font-size="10.00">Testcase.test_WINNF_FT_S_SIQ_2</text>
</a>
</g>
</g>
<!-- Node1&#45;&gt;Node12 -->
<g id="edge11" class="edge"><title>Node1&#45;&gt;Node12</title>
<path fill="none" stroke="midnightblue" d="M74.8205,-356.115C85.53,-312.126 113.889,-220.602 173,-171 177.138,-167.528 181.659,-164.458 186.425,-161.743"/>
<polygon fill="midnightblue" stroke="midnightblue" points="71.3834,-355.443 72.5241,-365.976 78.201,-357.031 71.3834,-355.443"/>
</g>
<!-- Node13 -->
<g id="node13" class="node"><title>Node13</title>
<g id="a_node13"><a xlink:href="../../dd/df3/classsrc_1_1harness_1_1testcases_1_1WINNF__FT__S__SIQ__testcase_1_1SpectrumInquiryTestcase.html#ae08c82f207c20e034a68e51a3096a8a4" target="_top" xlink:title="src.harness.testcases.WINNF\l_FT_S_SIQ_testcase.SpectrumInquiry\lTestcase.test_WINNF_FT_S_SIQ_5">
<polygon fill="white" stroke="black" points="184.5,-60.5 184.5,-101.5 369.5,-101.5 369.5,-60.5 184.5,-60.5"/>
<text text-anchor="start" x="192.5" y="-89.5" font-family="Helvetica,sans-Serif" font-size="10.00">src.harness.testcases.WINNF</text>
<text text-anchor="start" x="192.5" y="-78.5" font-family="Helvetica,sans-Serif" font-size="10.00">_FT_S_SIQ_testcase.SpectrumInquiry</text>
<text text-anchor="middle" x="277" y="-67.5" font-family="Helvetica,sans-Serif" font-size="10.00">Testcase.test_WINNF_FT_S_SIQ_5</text>
</a>
</g>
</g>
<!-- Node1&#45;&gt;Node13 -->
<g id="edge12" class="edge"><title>Node1&#45;&gt;Node13</title>
<path fill="none" stroke="midnightblue" d="M71.8211,-355.63C78.0706,-302.335 100.073,-178.137 173,-111 176.837,-107.468 181.066,-104.35 185.557,-101.597"/>
<polygon fill="midnightblue" stroke="midnightblue" points="68.3081,-355.562 70.7139,-365.88 75.2676,-356.314 68.3081,-355.562"/>
</g>
<!-- Node14 -->
<g id="node14" class="node"><title>Node14</title>
<g id="a_node14"><a xlink:href="../../dd/df3/classsrc_1_1harness_1_1testcases_1_1WINNF__FT__S__SIQ__testcase_1_1SpectrumInquiryTestcase.html#a0d4f3fcfc17ad9efb42163561ac8d7c4" target="_top" xlink:title="src.harness.testcases.WINNF\l_FT_S_SIQ_testcase.SpectrumInquiry\lTestcase.test_WINNF_FT_S_SIQ_9">
<polygon fill="white" stroke="black" points="184.5,-0.5 184.5,-41.5 369.5,-41.5 369.5,-0.5 184.5,-0.5"/>
<text text-anchor="start" x="192.5" y="-29.5" font-family="Helvetica,sans-Serif" font-size="10.00">src.harness.testcases.WINNF</text>
<text text-anchor="start" x="192.5" y="-18.5" font-family="Helvetica,sans-Serif" font-size="10.00">_FT_S_SIQ_testcase.SpectrumInquiry</text>
<text text-anchor="middle" x="277" y="-7.5" font-family="Helvetica,sans-Serif" font-size="10.00">Testcase.test_WINNF_FT_S_SIQ_9</text>
</a>
</g>
</g>
<!-- Node1&#45;&gt;Node14 -->
<g id="edge13" class="edge"><title>Node1&#45;&gt;Node14</title>
<path fill="none" stroke="midnightblue" d="M69.7657,-355.704C71.8208,-294.357 85.7858,-136.444 173,-51 176.592,-47.4808 180.572,-44.3702 184.819,-41.6211"/>
<polygon fill="midnightblue" stroke="midnightblue" points="66.2594,-355.91 69.5056,-365.995 73.2572,-356.087 66.2594,-355.91"/>
</g>
</g>
</svg>
        <g id="navigator" transform="translate(0 0)" fill="#404254">
                <rect fill="#f2f5e9" fill-opacity="0.5" stroke="#606060" stroke-width=".5" x="0" y="0" width="60" height="60"/>
                <use id="zoomplus" xlink:href="#zoomPlus" x="17" y="9" onmousedown="handleZoom(evt,'in')"/>
                <use id="zoomminus" xlink:href="#zoomMin" x="42" y="9" onmousedown="handleZoom(evt,'out')"/>
                <use id="reset" xlink:href="#resetDef" x="30" y="36" onmousedown="handleReset()"/>
                <g id="arrowUp" xlink:href="#dirArrow" transform="translate(30 24)" onmousedown="handlePan(0,-1)">
                  <use xlink:href="#rim" fill="#404040">
                        <set attributeName="fill" to="#808080" begin="arrowUp.mouseover" end="arrowUp.mouseout"/>
                  </use>
                  <path fill="none" stroke="white" stroke-width="1.5" d="M0,-3.0v7 M-2.5,-0.5L0,-3.0L2.5,-0.5"/>
                </g>
                <g id="arrowRight" xlink:href="#dirArrow" transform="rotate(90) translate(36 -43)" onmousedown="handlePan(1,0)">
                  <use xlink:href="#rim" fill="#404040">
                        <set attributeName="fill" to="#808080" begin="arrowRight.mouseover" end="arrowRight.mouseout"/>
                  </use>
                  <path fill="none" stroke="white" stroke-width="1.5" d="M0,-3.0v7 M-2.5,-0.5L0,-3.0L2.5,-0.5"/>
                </g>
                <g id="arrowDown" xlink:href="#dirArrow" transform="rotate(180) translate(-30 -48)" onmousedown="handlePan(0,1)">
                  <use xlink:href="#rim" fill="#404040">
                        <set attributeName="fill" to="#808080" begin="arrowDown.mouseover" end="arrowDown.mouseout"/>
                  </use>
                  <path fill="none" stroke="white" stroke-width="1.5" d="M0,-3.0v7 M-2.5,-0.5L0,-3.0L2.5,-0.5"/>
                </g>
                <g id="arrowLeft" xlink:href="#dirArrow" transform="rotate(270) translate(-36 17)" onmousedown="handlePan(-1,0)">
                  <use xlink:href="#rim" fill="#404040">
                        <set attributeName="fill" to="#808080" begin="arrowLeft.mouseover" end="arrowLeft.mouseout"/>
                  </use>
                  <path fill="none" stroke="white" stroke-width="1.5" d="M0,-3.0v7 M-2.5,-0.5L0,-3.0L2.5,-0.5"/>
                </g>
        </g>
        <svg viewBox="0 0 15 15" width="100%" height="30px" preserveAspectRatio="xMaxYMin meet">
         <g id="arrow_out" transform="scale(0.3 0.3)">
          <a xlink:href="namespacesrc_1_1harness_1_1util_a105dd692e0d0640cc251860113ff5a97_icgraph_org.svg" target="_base">
           <rect id="button" ry="5" rx="5" y="6" x="6" height="38" width="38"
                fill="#f2f5e9" fill-opacity="0.5" stroke="#606060" stroke-width="1.0"/>
           <path id="arrow"
             d="M 11.500037,31.436501 C 11.940474,20.09759 22.043105,11.32322 32.158766,21.979434 L 37.068811,17.246167 C 37.068811,17.246167 37.088388,32 37.088388,32 L 22.160133,31.978069 C 22.160133,31.978069 26.997745,27.140456 26.997745,27.140456 C 18.528582,18.264221 13.291696,25.230495 11.500037,31.436501 z"
             style="fill:#404040;"/>
          </a>
         </g>
        </svg>
</svg>
