<?xml version="1.0" encoding="UTF-8" standalone="no"?>
<!DOCTYPE svg PUBLIC "-//W3C//DTD SVG 1.1//EN"
 "http://www.w3.org/Graphics/SVG/1.1/DTD/svg11.dtd">
<!-- Generated by graphviz version 2.38.0 (20140413.2041)
 -->
<!-- Title: src.harness.util.loadConfig Pages: 1 -->
<svg width="365pt" height="110pt"
 viewBox="0.00 0.00 365.00 110.00" xmlns="http://www.w3.org/2000/svg" xmlns:xlink="http://www.w3.org/1999/xlink">
<g id="graph0" class="graph" transform="scale(1 1) rotate(0) translate(4 106)">
<title>src.harness.util.loadConfig</title>
<polygon fill="white" stroke="none" points="-4,4 -4,-106 361,-106 361,4 -4,4"/>
<!-- Node1 -->
<g id="node1" class="node"><title>Node1</title>
<polygon fill="#bfbfbf" stroke="black" points="0,-41.5 0,-60.5 133,-60.5 133,-41.5 0,-41.5"/>
<text text-anchor="middle" x="66.5" y="-48.5" font-family="Helvetica,sans-Serif" font-size="10.00">src.harness.util.loadConfig</text>
</g>
<!-- Node2 -->
<g id="node2" class="node"><title>Node2</title>
<g id="a_node2"><a xlink:href="../../d3/da6/classsrc_1_1harness_1_1testcases_1_1WINNF__FT__S__REG__testcase_1_1RegistrationTestcase.html#a258b8d1d27bffd4b104c3f32763e6c40" target="_top" xlink:title="src.harness.testcases.WINNF\l_FT_S_REG_testcase.Registration\lTestcase.test_WINNF_FT_S_REG_11">
<polygon fill="white" stroke="black" points="169,-60.5 169,-101.5 357,-101.5 357,-60.5 169,-60.5"/>
<text text-anchor="start" x="177" y="-89.5" font-family="Helvetica,sans-Serif" font-size="10.00">src.harness.testcases.WINNF</text>
<text text-anchor="start" x="177" y="-78.5" font-family="Helvetica,sans-Serif" font-size="10.00">_FT_S_REG_testcase.Registration</text>
<text text-anchor="middle" x="263" y="-67.5" font-family="Helvetica,sans-Serif" font-size="10.00">Testcase.test_WINNF_FT_S_REG_11</text>
</a>
</g>
</g>
<!-- Node1&#45;&gt;Node2 -->
<g id="edge1" class="edge"><title>Node1&#45;&gt;Node2</title>
<path fill="none" stroke="midnightblue" d="M139.195,-62.0584C148.824,-63.5436 158.813,-65.0843 168.746,-66.6164"/>
<polygon fill="midnightblue" stroke="midnightblue" points="139.725,-58.5988 129.308,-60.5334 138.658,-65.517 139.725,-58.5988"/>
</g>
<!-- Node3 -->
<g id="node3" class="node"><title>Node3</title>
<g id="a_node3"><a xlink:href="../../d3/da6/classsrc_1_1harness_1_1testcases_1_1WINNF__FT__S__REG__testcase_1_1RegistrationTestcase.html#a97784b84305b72603227c42493aac9cc" target="_top" xlink:title="src.harness.testcases.WINNF\l_FT_S_REG_testcase.Registration\lTestcase.test_WINNF_FT_S_REG_13">
<polygon fill="white" stroke="black" points="169,-0.5 169,-41.5 357,-41.5 357,-0.5 169,-0.5"/>
<text text-anchor="start" x="177" y="-29.5" font-family="Helvetica,sans-Serif" font-size="10.00">src.harness.testcases.WINNF</text>
<text text-anchor="start" x="177" y="-18.5" font-family="Helvetica,sans-Serif" font-size="10.00">_FT_S_REG_testcase.Registration</text>
<text text-anchor="middle" x="263" y="-7.5" font-family="Helvetica,sans-Serif" font-size="10.00">Testcase.test_WINNF_FT_S_REG_13</text>
</a>
</g>
</g>
<!-- Node1&#45;&gt;Node3 -->
<g id="edge2" class="edge"><title>Node1&#45;&gt;Node3</title>
<path fill="none" stroke="midnightblue" d="M139.195,-39.9416C148.824,-38.4564 158.813,-36.9157 168.746,-35.3836"/>
<polygon fill="midnightblue" stroke="midnightblue" points="138.658,-36.483 129.308,-41.4666 139.725,-43.4012 138.658,-36.483"/>
</g>
</g>
</svg>
