<?xml version="1.0" encoding="UTF-8" standalone="no"?>
<!DOCTYPE svg PUBLIC "-//W3C//DTD SVG 1.1//EN"
 "http://www.w3.org/Graphics/SVG/1.1/DTD/svg11.dtd">
<!-- Generated by graphviz version 2.38.0 (20140413.2041)
 -->
<!-- Title: src.harness.util.configurable_testcase Pages: 1 -->
<svg width="287pt" height="39pt"
 viewBox="0.00 0.00 287.00 39.00" xmlns="http://www.w3.org/2000/svg" xmlns:xlink="http://www.w3.org/1999/xlink">
<g id="graph0" class="graph" transform="scale(1 1) rotate(0) translate(4 35)">
<title>src.harness.util.configurable_testcase</title>
<polygon fill="white" stroke="none" points="-4,4 -4,-35 283,-35 283,4 -4,4"/>
<!-- Node1 -->
<g id="node1" class="node"><title>Node1</title>
<polygon fill="#bfbfbf" stroke="black" points="0,-0.5 0,-30.5 139,-30.5 139,-0.5 0,-0.5"/>
<text text-anchor="start" x="8" y="-18.5" font-family="Helvetica,sans-Serif" font-size="10.00">src.harness.util.configurable</text>
<text text-anchor="middle" x="69.5" y="-7.5" font-family="Helvetica,sans-Serif" font-size="10.00">_testcase</text>
</g>
<!-- Node2 -->
<g id="node2" class="node"><title>Node2</title>
<g id="a_node2"><a xlink:href="../../d8/d6c/namespacesrc_1_1harness_1_1util.html#a7c167df108582dd4ab2a5a0c6ba98bcd" target="_top" xlink:title="src.harness.util._log\l_testcase_header">
<polygon fill="white" stroke="black" points="175,-0.5 175,-30.5 279,-30.5 279,-0.5 175,-0.5"/>
<text text-anchor="start" x="183" y="-18.5" font-family="Helvetica,sans-Serif" font-size="10.00">src.harness.util._log</text>
<text text-anchor="middle" x="227" y="-7.5" font-family="Helvetica,sans-Serif" font-size="10.00">_testcase_header</text>
</a>
</g>
</g>
<!-- Node1&#45;&gt;Node2 -->
<g id="edge1" class="edge"><title>Node1&#45;&gt;Node2</title>
<path fill="none" stroke="midnightblue" d="M139.157,-15.5C147.718,-15.5 156.427,-15.5 164.863,-15.5"/>
<polygon fill="midnightblue" stroke="midnightblue" points="164.989,-19.0001 174.989,-15.5 164.989,-12.0001 164.989,-19.0001"/>
</g>
</g>
</svg>
