<?xml version="1.0" encoding="UTF-8" standalone="no"?>
<!DOCTYPE svg PUBLIC "-//W3C//DTD SVG 1.1//EN"
 "http://www.w3.org/Graphics/SVG/1.1/DTD/svg11.dtd">
<!-- Generated by graphviz version 2.38.0 (20140413.2041)
 -->
<!-- Title: src.harness.util.getRandomLatLongInPolygon Pages: 1 -->
<svg width="313pt" height="39pt"
 viewBox="0.00 0.00 313.00 39.00" xmlns="http://www.w3.org/2000/svg" xmlns:xlink="http://www.w3.org/1999/xlink">
<g id="graph0" class="graph" transform="scale(1 1) rotate(0) translate(4 35)">
<title>src.harness.util.getRandomLatLongInPolygon</title>
<polygon fill="white" stroke="none" points="-4,4 -4,-35 309,-35 309,4 -4,4"/>
<!-- Node1 -->
<g id="node1" class="node"><title>Node1</title>
<polygon fill="#bfbfbf" stroke="black" points="0,-0.5 0,-30.5 137,-30.5 137,-0.5 0,-0.5"/>
<text text-anchor="start" x="8" y="-18.5" font-family="Helvetica,sans-Serif" font-size="10.00">src.harness.util.getRandom</text>
<text text-anchor="middle" x="68.5" y="-7.5" font-family="Helvetica,sans-Serif" font-size="10.00">LatLongInPolygon</text>
</g>
<!-- Node2 -->
<g id="node2" class="node"><title>Node2</title>
<g id="a_node2"><a xlink:href="../../d8/d6c/namespacesrc_1_1harness_1_1util.html#ad781031fc0a08430a583769551ac9b40" target="_top" xlink:title="src.harness.util.makePpa\lAndPalRecordsConsistent">
<polygon fill="white" stroke="black" points="173,-0.5 173,-30.5 305,-30.5 305,-0.5 173,-0.5"/>
<text text-anchor="start" x="181" y="-18.5" font-family="Helvetica,sans-Serif" font-size="10.00">src.harness.util.makePpa</text>
<text text-anchor="middle" x="239" y="-7.5" font-family="Helvetica,sans-Serif" font-size="10.00">AndPalRecordsConsistent</text>
</a>
</g>
</g>
<!-- Node1&#45;&gt;Node2 -->
<g id="edge1" class="edge"><title>Node1&#45;&gt;Node2</title>
<path fill="none" stroke="midnightblue" d="M137.065,-15.5C145.554,-15.5 154.278,-15.5 162.875,-15.5"/>
<polygon fill="midnightblue" stroke="midnightblue" points="162.886,-19.0001 172.886,-15.5 162.885,-12.0001 162.886,-19.0001"/>
</g>
</g>
</svg>
