<?xml version="1.0" encoding="UTF-8" standalone="no"?>
<!DOCTYPE svg PUBLIC "-//W3C//DTD SVG 1.1//EN"
 "http://www.w3.org/Graphics/SVG/1.1/DTD/svg11.dtd">
<!-- Generated by graphviz version 2.38.0 (20140413.2041)
 -->
<!-- Title: src.harness.util.configurable_testcase Pages: 1 -->
<svg width="389pt" height="110pt"
 viewBox="0.00 0.00 389.00 110.00" xmlns="http://www.w3.org/2000/svg" xmlns:xlink="http://www.w3.org/1999/xlink">
<g id="graph0" class="graph" transform="scale(1 1) rotate(0) translate(4 106)">
<title>src.harness.util.configurable_testcase</title>
<polygon fill="white" stroke="none" points="-4,4 -4,-106 385,-106 385,4 -4,4"/>
<!-- Node1 -->
<g id="node1" class="node"><title>Node1</title>
<polygon fill="#bfbfbf" stroke="black" points="0,-36 0,-66 139,-66 139,-36 0,-36"/>
<text text-anchor="start" x="8" y="-54" font-family="Helvetica,sans-Serif" font-size="10.00">src.harness.util.configurable</text>
<text text-anchor="middle" x="69.5" y="-43" font-family="Helvetica,sans-Serif" font-size="10.00">_testcase</text>
</g>
<!-- Node2 -->
<g id="node2" class="node"><title>Node2</title>
<g id="a_node2"><a xlink:href="../../d3/da6/classsrc_1_1harness_1_1testcases_1_1WINNF__FT__S__REG__testcase_1_1RegistrationTestcase.html#a52e96127e262bc79576584c46ab40705" target="_top" xlink:title="src.harness.testcases.WINNF\l_FT_S_REG_testcase.Registration\lTestcase.generate_REG_11_default_config">
<polygon fill="white" stroke="black" points="175,-60.5 175,-101.5 381,-101.5 381,-60.5 175,-60.5"/>
<text text-anchor="start" x="183" y="-89.5" font-family="Helvetica,sans-Serif" font-size="10.00">src.harness.testcases.WINNF</text>
<text text-anchor="start" x="183" y="-78.5" font-family="Helvetica,sans-Serif" font-size="10.00">_FT_S_REG_testcase.Registration</text>
<text text-anchor="middle" x="278" y="-67.5" font-family="Helvetica,sans-Serif" font-size="10.00">Testcase.generate_REG_11_default_config</text>
</a>
</g>
</g>
<!-- Node1&#45;&gt;Node2 -->
<g id="edge1" class="edge"><title>Node1&#45;&gt;Node2</title>
<path fill="none" stroke="midnightblue" d="M149.273,-62.4441C157.585,-63.6516 166.122,-64.8918 174.65,-66.1308"/>
<polygon fill="midnightblue" stroke="midnightblue" points="149.661,-58.9637 139.262,-60.9896 148.654,-65.891 149.661,-58.9637"/>
</g>
<!-- Node3 -->
<g id="node3" class="node"><title>Node3</title>
<g id="a_node3"><a xlink:href="../../d3/da6/classsrc_1_1harness_1_1testcases_1_1WINNF__FT__S__REG__testcase_1_1RegistrationTestcase.html#aa3c38e756607b15cefd2bfa8c2cd6338" target="_top" xlink:title="src.harness.testcases.WINNF\l_FT_S_REG_testcase.Registration\lTestcase.generate_REG_13_default_config">
<polygon fill="white" stroke="black" points="175,-0.5 175,-41.5 381,-41.5 381,-0.5 175,-0.5"/>
<text text-anchor="start" x="183" y="-29.5" font-family="Helvetica,sans-Serif" font-size="10.00">src.harness.testcases.WINNF</text>
<text text-anchor="start" x="183" y="-18.5" font-family="Helvetica,sans-Serif" font-size="10.00">_FT_S_REG_testcase.Registration</text>
<text text-anchor="middle" x="278" y="-7.5" font-family="Helvetica,sans-Serif" font-size="10.00">Testcase.generate_REG_13_default_config</text>
</a>
</g>
</g>
<!-- Node1&#45;&gt;Node3 -->
<g id="edge2" class="edge"><title>Node1&#45;&gt;Node3</title>
<path fill="none" stroke="midnightblue" d="M149.273,-39.5559C157.585,-38.3484 166.122,-37.1082 174.65,-35.8692"/>
<polygon fill="midnightblue" stroke="midnightblue" points="148.654,-36.109 139.262,-41.0104 149.661,-43.0363 148.654,-36.109"/>
</g>
</g>
</svg>
