<?xml version="1.0" encoding="UTF-8" standalone="no"?>
<!DOCTYPE svg PUBLIC "-//W3C//DTD SVG 1.1//EN"
 "http://www.w3.org/Graphics/SVG/1.1/DTD/svg11.dtd">
<!-- Generated by graphviz version 2.38.0 (20140413.2041)
 -->
<!-- Title: src.harness.util.makePpaAndPalRecordsConsistent Pages: 1 -->
<!--zoomable 770 -->
<svg id="main" version="1.1" xmlns="http://www.w3.org/2000/svg" xmlns:xlink="http://www.w3.org/1999/xlink" xml:space="preserve" onload="init(evt)">
<style type="text/css"><![CDATA[
.edge:hover path { stroke: red; }
.edge:hover polygon { stroke: red; fill: red; }
]]></style>
<script type="text/javascript"><![CDATA[
var edges = document.getElementsByTagName('g');
if (edges && edges.length) {
  for (var i=0;i<edges.length;i++) {
    if (edges[i].id.substr(0,4)=='edge') {
      edges[i].setAttribute('class','edge');
    }
  }
}
]]></script>
        <defs>
                <circle id="rim" cx="0" cy="0" r="7"/>
                <circle id="rim2" cx="0" cy="0" r="3.5"/>
                <g id="zoomPlus">
                        <use xlink:href="#rim" fill="#404040">
                                <set attributeName="fill" to="#808080" begin="zoomplus.mouseover" end="zoomplus.mouseout"/>
                        </use>
                        <path d="M-4,0h8M0,-4v8" fill="none" stroke="white" stroke-width="1.5" pointer-events="none"/>
                </g>
                <g id="zoomMin">
                        <use xlink:href="#rim" fill="#404040">
                                <set attributeName="fill" to="#808080" begin="zoomminus.mouseover" end="zoomminus.mouseout"/>
                        </use>
                        <path d="M-4,0h8" fill="none" stroke="white" stroke-width="1.5" pointer-events="none"/>
                </g>
                <g id="dirArrow">
                        <path fill="none" stroke="white" stroke-width="1.5" d="M0,-3.0v7 M-2.5,-0.5L0,-3.0L2.5,-0.5"/>
                </g>
               <g id="resetDef">
                       <use xlink:href="#rim2" fill="#404040">
                               <set attributeName="fill" to="#808080" begin="reset.mouseover" end="reset.mouseout"/>
                       </use>
               </g>
        </defs>

<script type="text/javascript">
var viewWidth = 557;
var viewHeight = 770;
var sectionId = 'dynsection-10';
</script>
<script xlink:href="../../svgpan.js"/>
<svg id="graph" class="graph">
<g id="viewport">
<title>src.harness.util.makePpaAndPalRecordsConsistent</title>
<polygon fill="white" stroke="none" points="-4,4 -4,-766 553,-766 553,4 -4,4"/>
<!-- Node1 -->
<g id="node1" class="node"><title>Node1</title>
<polygon fill="#bfbfbf" stroke="black" points="0,-366 0,-396 132,-396 132,-366 0,-366"/>
<text text-anchor="start" x="8" y="-384" font-family="Helvetica,sans-Serif" font-size="10.00">src.harness.util.makePpa</text>
<text text-anchor="middle" x="66" y="-373" font-family="Helvetica,sans-Serif" font-size="10.00">AndPalRecordsConsistent</text>
</g>
<!-- Node2 -->
<g id="node2" class="node"><title>Node2</title>
<g id="a_node2"><a xlink:href="../../de/d99/classsrc_1_1harness_1_1testcases_1_1grant__testcase_1_1GrantTestcaseUsingOldIds.html#a16dc4cd91b9b0e42ae63d2c247be3995" target="_top" xlink:title="src.harness.testcases.grant\l_testcase.GrantTestcaseUsingOld\lIds.test_WINNF_FT_S_GRA_15">
<polygon fill="white" stroke="black" points="361.5,-720.5 361.5,-761.5 528.5,-761.5 528.5,-720.5 361.5,-720.5"/>
<text text-anchor="start" x="369.5" y="-749.5" font-family="Helvetica,sans-Serif" font-size="10.00">src.harness.testcases.grant</text>
<text text-anchor="start" x="369.5" y="-738.5" font-family="Helvetica,sans-Serif" font-size="10.00">_testcase.GrantTestcaseUsingOld</text>
<text text-anchor="middle" x="445" y="-727.5" font-family="Helvetica,sans-Serif" font-size="10.00">Ids.test_WINNF_FT_S_GRA_15</text>
</a>
</g>
</g>
<!-- Node1&#45;&gt;Node2 -->
<g id="edge1" class="edge"><title>Node1&#45;&gt;Node2</title>
<path fill="none" stroke="midnightblue" d="M72.5317,-406.158C83.6499,-451.75 112.522,-549.036 168,-611 218.964,-667.922 300.126,-701.971 361.272,-720.851"/>
<polygon fill="midnightblue" stroke="midnightblue" points="75.894,-405.166 70.1955,-396.234 69.0803,-406.77 75.894,-405.166"/>
</g>
<!-- Node3 -->
<g id="node3" class="node"><title>Node3</title>
<g id="a_node3"><a xlink:href="../../de/d99/classsrc_1_1harness_1_1testcases_1_1grant__testcase_1_1GrantTestcaseUsingOldIds.html#aeb64c8f939edb9894f97553ec90845e1" target="_top" xlink:title="src.harness.testcases.grant\l_testcase.GrantTestcaseUsingOld\lIds.test_WINNF_FT_S_GRA_18">
<polygon fill="white" stroke="black" points="361.5,-660.5 361.5,-701.5 528.5,-701.5 528.5,-660.5 361.5,-660.5"/>
<text text-anchor="start" x="369.5" y="-689.5" font-family="Helvetica,sans-Serif" font-size="10.00">src.harness.testcases.grant</text>
<text text-anchor="start" x="369.5" y="-678.5" font-family="Helvetica,sans-Serif" font-size="10.00">_testcase.GrantTestcaseUsingOld</text>
<text text-anchor="middle" x="445" y="-667.5" font-family="Helvetica,sans-Serif" font-size="10.00">Ids.test_WINNF_FT_S_GRA_18</text>
</a>
</g>
</g>
<!-- Node1&#45;&gt;Node3 -->
<g id="edge2" class="edge"><title>Node1&#45;&gt;Node3</title>
<path fill="none" stroke="midnightblue" d="M75.9669,-405.446C90.4728,-442.218 122.164,-512.217 168,-557 221.637,-609.404 301.275,-641.921 361.239,-660.436"/>
<polygon fill="midnightblue" stroke="midnightblue" points="79.1915,-404.08 72.3337,-396.004 72.6585,-406.594 79.1915,-404.08"/>
</g>
<!-- Node4 -->
<g id="node4" class="node"><title>Node4</title>
<g id="a_node4"><a xlink:href="../../de/d99/classsrc_1_1harness_1_1testcases_1_1grant__testcase_1_1GrantTestcaseUsingOldIds.html#a748b120d69d64407e2b10d5aac28205e" target="_top" xlink:title="src.harness.testcases.grant\l_testcase.GrantTestcaseUsingOld\lIds.test_WINNF_FT_S_GRA_25">
<polygon fill="white" stroke="black" points="361.5,-600.5 361.5,-641.5 528.5,-641.5 528.5,-600.5 361.5,-600.5"/>
<text text-anchor="start" x="369.5" y="-629.5" font-family="Helvetica,sans-Serif" font-size="10.00">src.harness.testcases.grant</text>
<text text-anchor="start" x="369.5" y="-618.5" font-family="Helvetica,sans-Serif" font-size="10.00">_testcase.GrantTestcaseUsingOld</text>
<text text-anchor="middle" x="445" y="-607.5" font-family="Helvetica,sans-Serif" font-size="10.00">Ids.test_WINNF_FT_S_GRA_25</text>
</a>
</g>
</g>
<!-- Node1&#45;&gt;Node4 -->
<g id="edge3" class="edge"><title>Node1&#45;&gt;Node4</title>
<path fill="none" stroke="midnightblue" d="M81.5462,-405.012C99.1908,-432.534 131.185,-477.62 168,-507 225.337,-552.758 303.612,-582.761 362.162,-600.446"/>
<polygon fill="midnightblue" stroke="midnightblue" points="84.4148,-402.999 76.1262,-396.399 78.4903,-406.727 84.4148,-402.999"/>
</g>
<!-- Node5 -->
<g id="node5" class="node"><title>Node5</title>
<g id="a_node5"><a xlink:href="../../d7/d0d/classsrc_1_1harness_1_1testcases_1_1spectrum__inquiry__testcase_1_1SpectrumInquiryTestcaseUsingOldIds.html#a8729d4265873dbda89ebfaa774208e8b" target="_top" xlink:title="src.harness.testcases.spectrum\l_inquiry_testcase.SpectrumInquiryTestcase\lUsingOldIds.test_WINNF_FT_S_SIQ_17">
<polygon fill="white" stroke="black" points="341,-540.5 341,-581.5 549,-581.5 549,-540.5 341,-540.5"/>
<text text-anchor="start" x="349" y="-569.5" font-family="Helvetica,sans-Serif" font-size="10.00">src.harness.testcases.spectrum</text>
<text text-anchor="start" x="349" y="-558.5" font-family="Helvetica,sans-Serif" font-size="10.00">_inquiry_testcase.SpectrumInquiryTestcase</text>
<text text-anchor="middle" x="445" y="-547.5" font-family="Helvetica,sans-Serif" font-size="10.00">UsingOldIds.test_WINNF_FT_S_SIQ_17</text>
</a>
</g>
</g>
<!-- Node1&#45;&gt;Node5 -->
<g id="edge4" class="edge"><title>Node1&#45;&gt;Node5</title>
<path fill="none" stroke="midnightblue" d="M89.3053,-403.289C108.753,-421.76 138.41,-447.698 168,-465 227.561,-499.827 301.733,-524.744 358.182,-540.451"/>
<polygon fill="midnightblue" stroke="midnightblue" points="91.5025,-400.545 81.8754,-396.121 86.6426,-405.583 91.5025,-400.545"/>
</g>
<!-- Node6 -->
<g id="node6" class="node"><title>Node6</title>
<g id="a_node6"><a xlink:href="../../d7/d0d/classsrc_1_1harness_1_1testcases_1_1spectrum__inquiry__testcase_1_1SpectrumInquiryTestcaseUsingOldIds.html#a4d93b45aec221f12006529ba14a14bfe" target="_top" xlink:title="src.harness.testcases.spectrum\l_inquiry_testcase.SpectrumInquiryTestcase\lUsingOldIds.test_WINNF_FT_S_SIQ_18">
<polygon fill="white" stroke="black" points="341,-480.5 341,-521.5 549,-521.5 549,-480.5 341,-480.5"/>
<text text-anchor="start" x="349" y="-509.5" font-family="Helvetica,sans-Serif" font-size="10.00">src.harness.testcases.spectrum</text>
<text text-anchor="start" x="349" y="-498.5" font-family="Helvetica,sans-Serif" font-size="10.00">_inquiry_testcase.SpectrumInquiryTestcase</text>
<text text-anchor="middle" x="445" y="-487.5" font-family="Helvetica,sans-Serif" font-size="10.00">UsingOldIds.test_WINNF_FT_S_SIQ_18</text>
</a>
</g>
</g>
<!-- Node1&#45;&gt;Node6 -->
<g id="edge5" class="edge"><title>Node1&#45;&gt;Node6</title>
<path fill="none" stroke="midnightblue" d="M103.088,-400.688C122.02,-410.452 145.83,-421.864 168,-430 225.247,-451.01 291.345,-468.246 344.502,-480.473"/>
<polygon fill="midnightblue" stroke="midnightblue" points="104.699,-397.58 94.2155,-396.049 101.456,-403.784 104.699,-397.58"/>
</g>
<!-- Node7 -->
<g id="node7" class="node"><title>Node7</title>
<g id="a_node7"><a xlink:href="../../d5/de0/classsrc_1_1harness_1_1testcases_1_1WINNF__FT__S__GRA__testcase_1_1GrantTestcase.html#abca2e5f6b50a692b6860fb0a3be2dfe5" target="_top" xlink:title="src.harness.testcases.WINNF\l_FT_S_GRA_testcase.GrantTestcase.test\l_WINNF_FT_S_GRA_1">
<polygon fill="white" stroke="black" points="343.5,-420.5 343.5,-461.5 546.5,-461.5 546.5,-420.5 343.5,-420.5"/>
<text text-anchor="start" x="351.5" y="-449.5" font-family="Helvetica,sans-Serif" font-size="10.00">src.harness.testcases.WINNF</text>
<text text-anchor="start" x="351.5" y="-438.5" font-family="Helvetica,sans-Serif" font-size="10.00">_FT_S_GRA_testcase.GrantTestcase.test</text>
<text text-anchor="middle" x="445" y="-427.5" font-family="Helvetica,sans-Serif" font-size="10.00">_WINNF_FT_S_GRA_1</text>
</a>
</g>
</g>
<!-- Node1&#45;&gt;Node7 -->
<g id="edge6" class="edge"><title>Node1&#45;&gt;Node7</title>
<path fill="none" stroke="midnightblue" d="M135.615,-398.312C146.413,-400.745 157.482,-403.07 168,-405 225.748,-415.598 290.85,-424.245 343.318,-430.406"/>
<polygon fill="midnightblue" stroke="midnightblue" points="136.327,-394.885 125.797,-396.056 134.759,-401.707 136.327,-394.885"/>
</g>
<!-- Node8 -->
<g id="node8" class="node"><title>Node8</title>
<g id="a_node8"><a xlink:href="../../d5/de0/classsrc_1_1harness_1_1testcases_1_1WINNF__FT__S__GRA__testcase_1_1GrantTestcase.html#a2b09aed06fe88e98679f8d547fa5d193" target="_top" xlink:title="src.harness.testcases.WINNF\l_FT_S_GRA_testcase.GrantTestcase.test\l_WINNF_FT_S_GRA_8">
<polygon fill="white" stroke="black" points="343.5,-300.5 343.5,-341.5 546.5,-341.5 546.5,-300.5 343.5,-300.5"/>
<text text-anchor="start" x="351.5" y="-329.5" font-family="Helvetica,sans-Serif" font-size="10.00">src.harness.testcases.WINNF</text>
<text text-anchor="start" x="351.5" y="-318.5" font-family="Helvetica,sans-Serif" font-size="10.00">_FT_S_GRA_testcase.GrantTestcase.test</text>
<text text-anchor="middle" x="445" y="-307.5" font-family="Helvetica,sans-Serif" font-size="10.00">_WINNF_FT_S_GRA_8</text>
</a>
</g>
</g>
<!-- Node1&#45;&gt;Node8 -->
<g id="edge7" class="edge"><title>Node1&#45;&gt;Node8</title>
<path fill="none" stroke="midnightblue" d="M132.582,-363.592C144.324,-360.811 156.485,-358.148 168,-356 225.69,-345.24 290.79,-336.81 343.271,-330.922"/>
<polygon fill="midnightblue" stroke="midnightblue" points="131.739,-360.195 122.841,-365.946 133.383,-366.999 131.739,-360.195"/>
</g>
<!-- Node9 -->
<g id="node9" class="node"><title>Node9</title>
<g id="a_node9"><a xlink:href="../../d5/de0/classsrc_1_1harness_1_1testcases_1_1WINNF__FT__S__GRA__testcase_1_1GrantTestcase.html#a21141affece7458af2b68c5d9a62cfa9" target="_top" xlink:title="src.harness.testcases.WINNF\l_FT_S_GRA_testcase.GrantTestcase.test\l_WINNF_FT_S_GRA_9">
<polygon fill="white" stroke="black" points="343.5,-240.5 343.5,-281.5 546.5,-281.5 546.5,-240.5 343.5,-240.5"/>
<text text-anchor="start" x="351.5" y="-269.5" font-family="Helvetica,sans-Serif" font-size="10.00">src.harness.testcases.WINNF</text>
<text text-anchor="start" x="351.5" y="-258.5" font-family="Helvetica,sans-Serif" font-size="10.00">_FT_S_GRA_testcase.GrantTestcase.test</text>
<text text-anchor="middle" x="445" y="-247.5" font-family="Helvetica,sans-Serif" font-size="10.00">_WINNF_FT_S_GRA_9</text>
</a>
</g>
</g>
<!-- Node1&#45;&gt;Node9 -->
<g id="edge8" class="edge"><title>Node1&#45;&gt;Node9</title>
<path fill="none" stroke="midnightblue" d="M103.088,-361.312C122.02,-351.548 145.83,-340.136 168,-332 225.247,-310.99 291.345,-293.754 344.502,-281.527"/>
<polygon fill="midnightblue" stroke="midnightblue" points="101.456,-358.216 94.2155,-365.951 104.699,-364.42 101.456,-358.216"/>
</g>
<!-- Node10 -->
<g id="node10" class="node"><title>Node10</title>
<g id="a_node10"><a xlink:href="../../d5/de0/classsrc_1_1harness_1_1testcases_1_1WINNF__FT__S__GRA__testcase_1_1GrantTestcase.html#aea1b5b02b16c21167a6fc3ac207fa1a6" target="_top" xlink:title="src.harness.testcases.WINNF\l_FT_S_GRA_testcase.GrantTestcase.test\l_WINNF_FT_S_GRA_10">
<polygon fill="white" stroke="black" points="343.5,-180.5 343.5,-221.5 546.5,-221.5 546.5,-180.5 343.5,-180.5"/>
<text text-anchor="start" x="351.5" y="-209.5" font-family="Helvetica,sans-Serif" font-size="10.00">src.harness.testcases.WINNF</text>
<text text-anchor="start" x="351.5" y="-198.5" font-family="Helvetica,sans-Serif" font-size="10.00">_FT_S_GRA_testcase.GrantTestcase.test</text>
<text text-anchor="middle" x="445" y="-187.5" font-family="Helvetica,sans-Serif" font-size="10.00">_WINNF_FT_S_GRA_10</text>
</a>
</g>
</g>
<!-- Node1&#45;&gt;Node10 -->
<g id="edge9" class="edge"><title>Node1&#45;&gt;Node10</title>
<path fill="none" stroke="midnightblue" d="M86.4955,-358.163C105.424,-337.275 135.928,-306.845 168,-288 222.038,-256.249 288.95,-234.783 343.358,-221.118"/>
<polygon fill="midnightblue" stroke="midnightblue" points="83.8605,-355.859 79.8287,-365.656 89.0905,-360.512 83.8605,-355.859"/>
</g>
<!-- Node11 -->
<g id="node11" class="node"><title>Node11</title>
<g id="a_node11"><a xlink:href="../../d5/de0/classsrc_1_1harness_1_1testcases_1_1WINNF__FT__S__GRA__testcase_1_1GrantTestcase.html#a57891611cbef75fc784c2a746b96ce62" target="_top" xlink:title="src.harness.testcases.WINNF\l_FT_S_GRA_testcase.GrantTestcase.test\l_WINNF_FT_S_GRA_13">
<polygon fill="white" stroke="black" points="343.5,-120.5 343.5,-161.5 546.5,-161.5 546.5,-120.5 343.5,-120.5"/>
<text text-anchor="start" x="351.5" y="-149.5" font-family="Helvetica,sans-Serif" font-size="10.00">src.harness.testcases.WINNF</text>
<text text-anchor="start" x="351.5" y="-138.5" font-family="Helvetica,sans-Serif" font-size="10.00">_FT_S_GRA_testcase.GrantTestcase.test</text>
<text text-anchor="middle" x="445" y="-127.5" font-family="Helvetica,sans-Serif" font-size="10.00">_WINNF_FT_S_GRA_13</text>
</a>
</g>
</g>
<!-- Node1&#45;&gt;Node11 -->
<g id="edge10" class="edge"><title>Node1&#45;&gt;Node11</title>
<path fill="none" stroke="midnightblue" d="M77.3426,-356.292C92.4931,-322.984 123.798,-263.95 168,-230 218.808,-190.975 287.3,-168.757 343.341,-156.279"/>
<polygon fill="midnightblue" stroke="midnightblue" points="74.005,-355.185 73.1629,-365.746 80.4073,-358.015 74.005,-355.185"/>
</g>
<!-- Node12 -->
<g id="node12" class="node"><title>Node12</title>
<g id="a_node12"><a xlink:href="../../dd/df3/classsrc_1_1harness_1_1testcases_1_1WINNF__FT__S__SIQ__testcase_1_1SpectrumInquiryTestcase.html#ae08c82f207c20e034a68e51a3096a8a4" target="_top" xlink:title="src.harness.testcases.WINNF\l_FT_S_SIQ_testcase.SpectrumInquiry\lTestcase.test_WINNF_FT_S_SIQ_5">
<polygon fill="white" stroke="black" points="352.5,-60.5 352.5,-101.5 537.5,-101.5 537.5,-60.5 352.5,-60.5"/>
<text text-anchor="start" x="360.5" y="-89.5" font-family="Helvetica,sans-Serif" font-size="10.00">src.harness.testcases.WINNF</text>
<text text-anchor="start" x="360.5" y="-78.5" font-family="Helvetica,sans-Serif" font-size="10.00">_FT_S_SIQ_testcase.SpectrumInquiry</text>
<text text-anchor="middle" x="445" y="-67.5" font-family="Helvetica,sans-Serif" font-size="10.00">Testcase.test_WINNF_FT_S_SIQ_5</text>
</a>
</g>
</g>
<!-- Node1&#45;&gt;Node12 -->
<g id="edge11" class="edge"><title>Node1&#45;&gt;Node12</title>
<path fill="none" stroke="midnightblue" d="M71.6309,-355.865C81.2951,-310.57 107.905,-215.121 168,-163 219.262,-118.539 293.767,-98.1738 352.45,-88.8511"/>
<polygon fill="midnightblue" stroke="midnightblue" points="68.185,-355.247 69.6248,-365.743 75.045,-356.64 68.185,-355.247"/>
</g>
<!-- Node13 -->
<g id="node13" class="node"><title>Node13</title>
<g id="a_node13"><a xlink:href="../../dd/df3/classsrc_1_1harness_1_1testcases_1_1WINNF__FT__S__SIQ__testcase_1_1SpectrumInquiryTestcase.html#a0d4f3fcfc17ad9efb42163561ac8d7c4" target="_top" xlink:title="src.harness.testcases.WINNF\l_FT_S_SIQ_testcase.SpectrumInquiry\lTestcase.test_WINNF_FT_S_SIQ_9">
<polygon fill="white" stroke="black" points="352.5,-0.5 352.5,-41.5 537.5,-41.5 537.5,-0.5 352.5,-0.5"/>
<text text-anchor="start" x="360.5" y="-29.5" font-family="Helvetica,sans-Serif" font-size="10.00">src.harness.testcases.WINNF</text>
<text text-anchor="start" x="360.5" y="-18.5" font-family="Helvetica,sans-Serif" font-size="10.00">_FT_S_SIQ_testcase.SpectrumInquiry</text>
<text text-anchor="middle" x="445" y="-7.5" font-family="Helvetica,sans-Serif" font-size="10.00">Testcase.test_WINNF_FT_S_SIQ_9</text>
</a>
</g>
</g>
<!-- Node1&#45;&gt;Node13 -->
<g id="edge12" class="edge"><title>Node1&#45;&gt;Node13</title>
<path fill="none" stroke="midnightblue" d="M68.3856,-355.653C72.8208,-300.14 91.3227,-167.114 168,-96 217.695,-49.9102 292.863,-31.648 352.211,-24.6413"/>
<polygon fill="midnightblue" stroke="midnightblue" points="64.8907,-355.457 67.673,-365.68 71.8731,-355.954 64.8907,-355.457"/>
</g>
<!-- Node14 -->
<g id="node14" class="node"><title>Node14</title>
<g id="a_node14"><a xlink:href="../../d8/d6c/namespacesrc_1_1harness_1_1util.html#a105dd692e0d0640cc251860113ff5a97" target="_top" xlink:title="src.harness.util.getRandom\lLatLongInPolygon">
<polygon fill="white" stroke="black" points="168,-366 168,-396 305,-396 305,-366 168,-366"/>
<text text-anchor="start" x="176" y="-384" font-family="Helvetica,sans-Serif" font-size="10.00">src.harness.util.getRandom</text>
<text text-anchor="middle" x="236.5" y="-373" font-family="Helvetica,sans-Serif" font-size="10.00">LatLongInPolygon</text>
</a>
</g>
</g>
<!-- Node1&#45;&gt;Node14 -->
<g id="edge13" class="edge"><title>Node1&#45;&gt;Node14</title>
<path fill="none" stroke="midnightblue" d="M142.372,-381C150.822,-381 159.394,-381 167.74,-381"/>
<polygon fill="midnightblue" stroke="midnightblue" points="142.147,-377.5 132.146,-381 142.146,-384.5 142.147,-377.5"/>
</g>
<!-- Node14&#45;&gt;Node2 -->
<g id="edge14" class="edge"><title>Node14&#45;&gt;Node2</title>
<path fill="none" stroke="midnightblue" d="M237.766,-406.296C239.821,-467.643 253.786,-625.556 341,-711 346.92,-716.8 353.895,-721.49 361.378,-725.281"/>
<polygon fill="midnightblue" stroke="midnightblue" points="241.257,-405.913 237.506,-396.005 234.259,-406.09 241.257,-405.913"/>
</g>
<!-- Node14&#45;&gt;Node3 -->
<g id="edge15" class="edge"><title>Node14&#45;&gt;Node3</title>
<path fill="none" stroke="midnightblue" d="M239.821,-406.37C246.071,-459.665 268.073,-583.863 341,-651 347.029,-656.55 354.029,-661.079 361.486,-664.773"/>
<polygon fill="midnightblue" stroke="midnightblue" points="243.268,-405.686 238.714,-396.12 236.308,-406.438 243.268,-405.686"/>
</g>
<!-- Node14&#45;&gt;Node4 -->
<g id="edge16" class="edge"><title>Node14&#45;&gt;Node4</title>
<path fill="none" stroke="midnightblue" d="M242.821,-405.885C253.53,-449.874 281.889,-541.398 341,-591 347.135,-596.148 354.115,-600.413 361.483,-603.946"/>
<polygon fill="midnightblue" stroke="midnightblue" points="246.201,-404.969 240.524,-396.024 239.383,-406.557 246.201,-404.969"/>
</g>
<!-- Node14&#45;&gt;Node5 -->
<g id="edge17" class="edge"><title>Node14&#45;&gt;Node5</title>
<path fill="none" stroke="midnightblue" d="M248.086,-405.834C263.597,-439.255 295.661,-498.28 341,-531 345.908,-534.542 351.231,-537.669 356.782,-540.428"/>
<polygon fill="midnightblue" stroke="midnightblue" points="251.108,-404.02 243.807,-396.342 244.726,-406.896 251.108,-404.02"/>
</g>
<!-- Node14&#45;&gt;Node6 -->
<g id="edge18" class="edge"><title>Node14&#45;&gt;Node6</title>
<path fill="none" stroke="midnightblue" d="M257.924,-403.647C277.423,-423.989 308.565,-453.298 341,-471 347.458,-474.524 354.375,-477.675 361.456,-480.484"/>
<polygon fill="midnightblue" stroke="midnightblue" points="260.444,-401.218 251.042,-396.333 255.346,-406.015 260.444,-401.218"/>
</g>
<!-- Node14&#45;&gt;Node7 -->
<g id="edge19" class="edge"><title>Node14&#45;&gt;Node7</title>
<path fill="none" stroke="midnightblue" d="M299.129,-398.907C322.496,-405.696 349.277,-413.478 373.407,-420.489"/>
<polygon fill="midnightblue" stroke="midnightblue" points="299.922,-395.492 289.342,-396.063 297.968,-402.214 299.922,-395.492"/>
</g>
<!-- Node14&#45;&gt;Node8 -->
<g id="edge20" class="edge"><title>Node14&#45;&gt;Node8</title>
<path fill="none" stroke="midnightblue" d="M299.129,-363.093C322.496,-356.304 349.277,-348.522 373.407,-341.511"/>
<polygon fill="midnightblue" stroke="midnightblue" points="297.968,-359.786 289.342,-365.937 299.922,-366.508 297.968,-359.786"/>
</g>
<!-- Node14&#45;&gt;Node9 -->
<g id="edge21" class="edge"><title>Node14&#45;&gt;Node9</title>
<path fill="none" stroke="midnightblue" d="M257.924,-358.353C277.423,-338.011 308.565,-308.702 341,-291 347.458,-287.476 354.375,-284.325 361.456,-281.516"/>
<polygon fill="midnightblue" stroke="midnightblue" points="255.346,-355.985 251.042,-365.667 260.444,-360.782 255.346,-355.985"/>
</g>
<!-- Node14&#45;&gt;Node10 -->
<g id="edge22" class="edge"><title>Node14&#45;&gt;Node10</title>
<path fill="none" stroke="midnightblue" d="M248.086,-356.166C263.597,-322.745 295.661,-263.72 341,-231 345.908,-227.458 351.231,-224.331 356.782,-221.572"/>
<polygon fill="midnightblue" stroke="midnightblue" points="244.726,-355.104 243.807,-365.658 251.108,-357.98 244.726,-355.104"/>
</g>
<!-- Node14&#45;&gt;Node11 -->
<g id="edge23" class="edge"><title>Node14&#45;&gt;Node11</title>
<path fill="none" stroke="midnightblue" d="M242.821,-356.115C253.53,-312.126 281.889,-220.602 341,-171 345.138,-167.528 349.659,-164.458 354.425,-161.743"/>
<polygon fill="midnightblue" stroke="midnightblue" points="239.383,-355.443 240.524,-365.976 246.201,-357.031 239.383,-355.443"/>
</g>
<!-- Node14&#45;&gt;Node12 -->
<g id="edge25" class="edge"><title>Node14&#45;&gt;Node12</title>
<path fill="none" stroke="midnightblue" d="M239.821,-355.63C246.071,-302.335 268.073,-178.137 341,-111 344.837,-107.468 349.066,-104.35 353.557,-101.597"/>
<polygon fill="midnightblue" stroke="midnightblue" points="236.308,-355.562 238.714,-365.88 243.268,-356.314 236.308,-355.562"/>
</g>
<!-- Node14&#45;&gt;Node13 -->
<g id="edge26" class="edge"><title>Node14&#45;&gt;Node13</title>
<path fill="none" stroke="midnightblue" d="M237.766,-355.704C239.821,-294.357 253.786,-136.444 341,-51 344.592,-47.4808 348.572,-44.3702 352.819,-41.6211"/>
<polygon fill="midnightblue" stroke="midnightblue" points="234.259,-355.91 237.506,-365.995 241.257,-356.087 234.259,-355.91"/>
</g>
<!-- Node15 -->
<g id="node15" class="node"><title>Node15</title>
<g id="a_node15"><a xlink:href="../../dd/df3/classsrc_1_1harness_1_1testcases_1_1WINNF__FT__S__SIQ__testcase_1_1SpectrumInquiryTestcase.html#af164604ec7d8713b9c171c379df8c97b" target="_top" xlink:title="src.harness.testcases.WINNF\l_FT_S_SIQ_testcase.SpectrumInquiry\lTestcase.test_WINNF_FT_S_SIQ_2">
<polygon fill="white" stroke="black" points="352.5,-360.5 352.5,-401.5 537.5,-401.5 537.5,-360.5 352.5,-360.5"/>
<text text-anchor="start" x="360.5" y="-389.5" font-family="Helvetica,sans-Serif" font-size="10.00">src.harness.testcases.WINNF</text>
<text text-anchor="start" x="360.5" y="-378.5" font-family="Helvetica,sans-Serif" font-size="10.00">_FT_S_SIQ_testcase.SpectrumInquiry</text>
<text text-anchor="middle" x="445" y="-367.5" font-family="Helvetica,sans-Serif" font-size="10.00">Testcase.test_WINNF_FT_S_SIQ_2</text>
</a>
</g>
</g>
<!-- Node14&#45;&gt;Node15 -->
<g id="edge24" class="edge"><title>Node14&#45;&gt;Node15</title>
<path fill="none" stroke="midnightblue" d="M315.146,-381C327.246,-381 339.846,-381 352.224,-381"/>
<polygon fill="midnightblue" stroke="midnightblue" points="315.116,-377.5 305.116,-381 315.116,-384.5 315.116,-377.5"/>
</g>
</g>
</svg>
        <g id="navigator" transform="translate(0 0)" fill="#404254">
                <rect fill="#f2f5e9" fill-opacity="0.5" stroke="#606060" stroke-width=".5" x="0" y="0" width="60" height="60"/>
                <use id="zoomplus" xlink:href="#zoomPlus" x="17" y="9" onmousedown="handleZoom(evt,'in')"/>
                <use id="zoomminus" xlink:href="#zoomMin" x="42" y="9" onmousedown="handleZoom(evt,'out')"/>
                <use id="reset" xlink:href="#resetDef" x="30" y="36" onmousedown="handleReset()"/>
                <g id="arrowUp" xlink:href="#dirArrow" transform="translate(30 24)" onmousedown="handlePan(0,-1)">
                  <use xlink:href="#rim" fill="#404040">
                        <set attributeName="fill" to="#808080" begin="arrowUp.mouseover" end="arrowUp.mouseout"/>
                  </use>
                  <path fill="none" stroke="white" stroke-width="1.5" d="M0,-3.0v7 M-2.5,-0.5L0,-3.0L2.5,-0.5"/>
                </g>
                <g id="arrowRight" xlink:href="#dirArrow" transform="rotate(90) translate(36 -43)" onmousedown="handlePan(1,0)">
                  <use xlink:href="#rim" fill="#404040">
                        <set attributeName="fill" to="#808080" begin="arrowRight.mouseover" end="arrowRight.mouseout"/>
                  </use>
                  <path fill="none" stroke="white" stroke-width="1.5" d="M0,-3.0v7 M-2.5,-0.5L0,-3.0L2.5,-0.5"/>
                </g>
                <g id="arrowDown" xlink:href="#dirArrow" transform="rotate(180) translate(-30 -48)" onmousedown="handlePan(0,1)">
                  <use xlink:href="#rim" fill="#404040">
                        <set attributeName="fill" to="#808080" begin="arrowDown.mouseover" end="arrowDown.mouseout"/>
                  </use>
                  <path fill="none" stroke="white" stroke-width="1.5" d="M0,-3.0v7 M-2.5,-0.5L0,-3.0L2.5,-0.5"/>
                </g>
                <g id="arrowLeft" xlink:href="#dirArrow" transform="rotate(270) translate(-36 17)" onmousedown="handlePan(-1,0)">
                  <use xlink:href="#rim" fill="#404040">
                        <set attributeName="fill" to="#808080" begin="arrowLeft.mouseover" end="arrowLeft.mouseout"/>
                  </use>
                  <path fill="none" stroke="white" stroke-width="1.5" d="M0,-3.0v7 M-2.5,-0.5L0,-3.0L2.5,-0.5"/>
                </g>
        </g>
        <svg viewBox="0 0 15 15" width="100%" height="30px" preserveAspectRatio="xMaxYMin meet">
         <g id="arrow_out" transform="scale(0.3 0.3)">
          <a xlink:href="namespacesrc_1_1harness_1_1util_ad781031fc0a08430a583769551ac9b40_icgraph_org.svg" target="_base">
           <rect id="button" ry="5" rx="5" y="6" x="6" height="38" width="38"
                fill="#f2f5e9" fill-opacity="0.5" stroke="#606060" stroke-width="1.0"/>
           <path id="arrow"
             d="M 11.500037,31.436501 C 11.940474,20.09759 22.043105,11.32322 32.158766,21.979434 L 37.068811,17.246167 C 37.068811,17.246167 37.088388,32 37.088388,32 L 22.160133,31.978069 C 22.160133,31.978069 26.997745,27.140456 26.997745,27.140456 C 18.528582,18.264221 13.291696,25.230495 11.500037,31.436501 z"
             style="fill:#404040;"/>
          </a>
         </g>
        </svg>
</svg>
