<?xml version="1.0" encoding="UTF-8" standalone="no"?>
<!DOCTYPE svg PUBLIC "-//W3C//DTD SVG 1.1//EN"
 "http://www.w3.org/Graphics/SVG/1.1/DTD/svg11.dtd">
<!-- Generated by graphviz version 2.38.0 (20140413.2041)
 -->
<!-- Title: src.harness.testcases.WINNF_FT_S_DRG_testcase.DeregistrationTestcase Pages: 1 -->
<svg width="221pt" height="240pt"
 viewBox="0.00 0.00 221.00 240.00" xmlns="http://www.w3.org/2000/svg" xmlns:xlink="http://www.w3.org/1999/xlink">
<g id="graph0" class="graph" transform="scale(1 1) rotate(0) translate(4 236)">
<title>src.harness.testcases.WINNF_FT_S_DRG_testcase.DeregistrationTestcase</title>
<polygon fill="white" stroke="none" points="-4,4 -4,-236 217,-236 217,4 -4,4"/>
<!-- Node1 -->
<g id="node1" class="node"><title>Node1</title>
<polygon fill="#bfbfbf" stroke="black" points="33,-0.5 33,-41.5 213,-41.5 213,-0.5 33,-0.5"/>
<text text-anchor="start" x="41" y="-29.5" font-family="Helvetica,sans-Serif" font-size="10.00">src.harness.testcases.WINNF</text>
<text text-anchor="start" x="41" y="-18.5" font-family="Helvetica,sans-Serif" font-size="10.00">_FT_S_DRG_testcase.Deregistration</text>
<text text-anchor="middle" x="123" y="-7.5" font-family="Helvetica,sans-Serif" font-size="10.00">Testcase</text>
</g>
<!-- Node2 -->
<g id="node2" class="node"><title>Node2</title>
<g id="a_node2"><a xlink:href="../../df/dc5/classsrc_1_1harness_1_1sas__testcase_1_1SasTestCase.html" target="_top" xlink:title="src.harness.sas_testcase.\lSasTestCase">
<polygon fill="white" stroke="black" points="57,-78.5 57,-108.5 189,-108.5 189,-78.5 57,-78.5"/>
<text text-anchor="start" x="65" y="-96.5" font-family="Helvetica,sans-Serif" font-size="10.00">src.harness.sas_testcase.</text>
<text text-anchor="middle" x="123" y="-85.5" font-family="Helvetica,sans-Serif" font-size="10.00">SasTestCase</text>
</a>
</g>
</g>
<!-- Node2&#45;&gt;Node1 -->
<g id="edge1" class="edge"><title>Node2&#45;&gt;Node1</title>
<path fill="none" stroke="midnightblue" d="M123,-67.9815C123,-59.3468 123,-49.7625 123,-41.5884"/>
<polygon fill="midnightblue" stroke="midnightblue" points="119.5,-68.2332 123,-78.2333 126.5,-68.2333 119.5,-68.2332"/>
</g>
<!-- Node3 -->
<g id="node3" class="node"><title>Node3</title>
<g id="a_node3"><a xlink:href="../../df/ded/classsrc_1_1harness_1_1sas__interface_1_1SasTestcaseInterface.html" target="_top" xlink:title="src.harness.sas_interface.\lSasTestcaseInterface">
<polygon fill="white" stroke="black" points="0,-145.5 0,-175.5 132,-175.5 132,-145.5 0,-145.5"/>
<text text-anchor="start" x="8" y="-163.5" font-family="Helvetica,sans-Serif" font-size="10.00">src.harness.sas_interface.</text>
<text text-anchor="middle" x="66" y="-152.5" font-family="Helvetica,sans-Serif" font-size="10.00">SasTestcaseInterface</text>
</a>
</g>
</g>
<!-- Node3&#45;&gt;Node2 -->
<g id="edge2" class="edge"><title>Node3&#45;&gt;Node2</title>
<path fill="none" stroke="midnightblue" d="M85.0852,-137.736C93.5187,-128.119 103.191,-117.089 110.656,-108.577"/>
<polygon fill="midnightblue" stroke="midnightblue" points="82.3299,-135.57 78.3682,-145.396 87.5929,-140.185 82.3299,-135.57"/>
</g>
<!-- Node4 -->
<g id="node4" class="node"><title>Node4</title>
<polygon fill="white" stroke="#bfbfbf" points="44.5,-212.5 44.5,-231.5 87.5,-231.5 87.5,-212.5 44.5,-212.5"/>
<text text-anchor="middle" x="66" y="-219.5" font-family="Helvetica,sans-Serif" font-size="10.00">object</text>
</g>
<!-- Node4&#45;&gt;Node3 -->
<g id="edge3" class="edge"><title>Node4&#45;&gt;Node3</title>
<path fill="none" stroke="midnightblue" d="M66,-202.235C66,-193.586 66,-183.497 66,-175.523"/>
<polygon fill="midnightblue" stroke="midnightblue" points="62.5001,-202.475 66,-212.475 69.5001,-202.475 62.5001,-202.475"/>
</g>
<!-- Node5 -->
<g id="node5" class="node"><title>Node5</title>
<polygon fill="white" stroke="#bfbfbf" points="150.5,-151 150.5,-170 209.5,-170 209.5,-151 150.5,-151"/>
<text text-anchor="middle" x="180" y="-158" font-family="Helvetica,sans-Serif" font-size="10.00">TestCase</text>
</g>
<!-- Node5&#45;&gt;Node2 -->
<g id="edge4" class="edge"><title>Node5&#45;&gt;Node2</title>
<path fill="none" stroke="midnightblue" d="M165.521,-142.989C156.204,-132.364 144.223,-118.702 135.355,-108.589"/>
<polygon fill="midnightblue" stroke="midnightblue" points="163.088,-145.523 172.313,-150.734 168.351,-140.908 163.088,-145.523"/>
</g>
</g>
</svg>
