<?xml version="1.0" encoding="UTF-8" standalone="no"?>
<!DOCTYPE svg PUBLIC "-//W3C//DTD SVG 1.1//EN"
 "http://www.w3.org/Graphics/SVG/1.1/DTD/svg11.dtd">
<!-- Generated by graphviz version 2.38.0 (20140413.2041)
 -->
<!-- Title: src.harness.reference_models.geo.nlcd.NlcdDriver.RegionNlcdVote Pages: 1 -->
<svg width="700pt" height="197pt"
 viewBox="0.00 0.00 700.00 196.50" xmlns="http://www.w3.org/2000/svg" xmlns:xlink="http://www.w3.org/1999/xlink">
<g id="graph0" class="graph" transform="scale(1 1) rotate(0) translate(4 192.5)">
<title>src.harness.reference_models.geo.nlcd.NlcdDriver.RegionNlcdVote</title>
<polygon fill="white" stroke="none" points="-4,4 -4,-192.5 696,-192.5 696,4 -4,4"/>
<!-- Node1 -->
<g id="node1" class="node"><title>Node1</title>
<polygon fill="#bfbfbf" stroke="black" points="0,-61.5 0,-102.5 146,-102.5 146,-61.5 0,-61.5"/>
<text text-anchor="start" x="8" y="-90.5" font-family="Helvetica,sans-Serif" font-size="10.00">src.harness.reference</text>
<text text-anchor="start" x="8" y="-79.5" font-family="Helvetica,sans-Serif" font-size="10.00">_models.geo.nlcd.NlcdDriver.</text>
<text text-anchor="middle" x="73" y="-68.5" font-family="Helvetica,sans-Serif" font-size="10.00">RegionNlcdVote</text>
</g>
<!-- Node2 -->
<g id="node2" class="node"><title>Node2</title>
<g id="a_node2"><a xlink:href="../../d6/d2e/classnlcd__origin_1_1NlcdOriginDriver.html#aabc0517a8bb685a2a844905b422cc950" target="_top" xlink:title="nlcd_origin.NlcdOriginDriver.\lGetLandCoverCodes">
<polygon fill="white" stroke="black" points="184.5,-99 184.5,-129 325.5,-129 325.5,-99 184.5,-99"/>
<text text-anchor="start" x="192.5" y="-117" font-family="Helvetica,sans-Serif" font-size="10.00">nlcd_origin.NlcdOriginDriver.</text>
<text text-anchor="middle" x="255" y="-106" font-family="Helvetica,sans-Serif" font-size="10.00">GetLandCoverCodes</text>
</a>
</g>
</g>
<!-- Node1&#45;&gt;Node2 -->
<g id="edge1" class="edge"><title>Node1&#45;&gt;Node2</title>
<path fill="none" stroke="midnightblue" d="M146.176,-94.8312C155.441,-96.4785 164.97,-98.1724 174.346,-99.8393"/>
<polygon fill="midnightblue" stroke="midnightblue" points="173.983,-103.33 184.442,-101.634 175.209,-96.4377 173.983,-103.33"/>
</g>
<!-- Node7 -->
<g id="node7" class="node"><title>Node7</title>
<g id="a_node7"><a xlink:href="../../dd/dda/classsrc_1_1harness_1_1reference__models_1_1geo_1_1nlcd_1_1NlcdDriver.html#aee3de4fa94676b19c6d622705a1d557c" target="_top" xlink:title="src.harness.reference\l_models.geo.nlcd.NlcdDriver.\lGetLandCoverCodes">
<polygon fill="white" stroke="black" points="182,-29.5 182,-70.5 328,-70.5 328,-29.5 182,-29.5"/>
<text text-anchor="start" x="190" y="-58.5" font-family="Helvetica,sans-Serif" font-size="10.00">src.harness.reference</text>
<text text-anchor="start" x="190" y="-47.5" font-family="Helvetica,sans-Serif" font-size="10.00">_models.geo.nlcd.NlcdDriver.</text>
<text text-anchor="middle" x="255" y="-36.5" font-family="Helvetica,sans-Serif" font-size="10.00">GetLandCoverCodes</text>
</a>
</g>
</g>
<!-- Node1&#45;&gt;Node7 -->
<g id="edge8" class="edge"><title>Node1&#45;&gt;Node7</title>
<path fill="none" stroke="midnightblue" d="M146.176,-69.1688C154.612,-67.669 163.265,-66.1306 171.824,-64.6091"/>
<polygon fill="midnightblue" stroke="midnightblue" points="172.575,-68.0305 181.808,-62.8341 171.35,-61.1386 172.575,-68.0305"/>
</g>
<!-- Node3 -->
<g id="node3" class="node"><title>Node3</title>
<g id="a_node3"><a xlink:href="../../d6/d2e/classnlcd__origin_1_1NlcdOriginDriver.html#ac7e7e6dde2c13c2f9a124b5515425662" target="_top" xlink:title="nlcd_origin.NlcdOriginDriver.\l_GetKeys">
<polygon fill="white" stroke="black" points="548.5,-158 548.5,-188 689.5,-188 689.5,-158 548.5,-158"/>
<text text-anchor="start" x="556.5" y="-176" font-family="Helvetica,sans-Serif" font-size="10.00">nlcd_origin.NlcdOriginDriver.</text>
<text text-anchor="middle" x="619" y="-165" font-family="Helvetica,sans-Serif" font-size="10.00">_GetKeys</text>
</a>
</g>
</g>
<!-- Node2&#45;&gt;Node3 -->
<g id="edge2" class="edge"><title>Node2&#45;&gt;Node3</title>
<path fill="none" stroke="midnightblue" d="M296.759,-129.027C316.762,-135.834 341.37,-143.376 364,-148 421.674,-159.784 487.89,-166.07 538.252,-169.391"/>
<polygon fill="midnightblue" stroke="midnightblue" points="538.226,-172.896 548.427,-170.036 538.669,-165.91 538.226,-172.896"/>
</g>
<!-- Node4 -->
<g id="node4" class="node"><title>Node4</title>
<g id="a_node4"><a xlink:href="../../d6/d2e/classnlcd__origin_1_1NlcdOriginDriver.html#a6b16760497d4025321f3a9c77ce2a52d" target="_top" xlink:title="nlcd_origin.NlcdOriginDriver.\l_CacheLruUpdate">
<polygon fill="white" stroke="black" points="548.5,-60 548.5,-90 689.5,-90 689.5,-60 548.5,-60"/>
<text text-anchor="start" x="556.5" y="-78" font-family="Helvetica,sans-Serif" font-size="10.00">nlcd_origin.NlcdOriginDriver.</text>
<text text-anchor="middle" x="619" y="-67" font-family="Helvetica,sans-Serif" font-size="10.00">_CacheLruUpdate</text>
</a>
</g>
</g>
<!-- Node2&#45;&gt;Node4 -->
<g id="edge3" class="edge"><title>Node2&#45;&gt;Node4</title>
<path fill="none" stroke="midnightblue" d="M325.659,-103.869C338.401,-102.145 351.59,-100.447 364,-99 422.241,-92.2072 488.168,-86.022 538.259,-81.6324"/>
<polygon fill="midnightblue" stroke="midnightblue" points="538.719,-85.1056 548.378,-80.7511 538.112,-78.132 538.719,-85.1056"/>
</g>
<!-- Node5 -->
<g id="node5" class="node"><title>Node5</title>
<g id="a_node5"><a xlink:href="../../d6/d2e/classnlcd__origin_1_1NlcdOriginDriver.html#ad42c10393c73943dd4f95c05360b44f3" target="_top" xlink:title="nlcd_origin.NlcdOriginDriver.\l_CacheGridTile">
<polygon fill="white" stroke="black" points="366.5,-109 366.5,-139 507.5,-139 507.5,-109 366.5,-109"/>
<text text-anchor="start" x="374.5" y="-127" font-family="Helvetica,sans-Serif" font-size="10.00">nlcd_origin.NlcdOriginDriver.</text>
<text text-anchor="middle" x="437" y="-116" font-family="Helvetica,sans-Serif" font-size="10.00">_CacheGridTile</text>
</a>
</g>
</g>
<!-- Node2&#45;&gt;Node5 -->
<g id="edge4" class="edge"><title>Node2&#45;&gt;Node5</title>
<path fill="none" stroke="midnightblue" d="M325.593,-117.866C335.609,-118.423 345.982,-118.999 356.178,-119.565"/>
<polygon fill="midnightblue" stroke="midnightblue" points="356.117,-123.067 366.296,-120.128 356.505,-116.078 356.117,-123.067"/>
</g>
<!-- Node5&#45;&gt;Node3 -->
<g id="edge5" class="edge"><title>Node5&#45;&gt;Node3</title>
<path fill="none" stroke="midnightblue" d="M493.475,-139.101C512.297,-144.225 533.494,-149.996 552.991,-155.303"/>
<polygon fill="midnightblue" stroke="midnightblue" points="552.14,-158.699 562.708,-157.948 553.979,-151.945 552.14,-158.699"/>
</g>
<!-- Node5&#45;&gt;Node4 -->
<g id="edge7" class="edge"><title>Node5&#45;&gt;Node4</title>
<path fill="none" stroke="midnightblue" d="M493.475,-108.899C512.297,-103.775 533.494,-98.0044 552.991,-92.6968"/>
<polygon fill="midnightblue" stroke="midnightblue" points="553.979,-96.0554 562.708,-90.0516 552.14,-89.3012 553.979,-96.0554"/>
</g>
<!-- Node6 -->
<g id="node6" class="node"><title>Node6</title>
<g id="a_node6"><a xlink:href="../../d6/d2e/classnlcd__origin_1_1NlcdOriginDriver.html#aec4c16a63a58ad97a2959f3813c05712" target="_top" xlink:title="nlcd_origin.NlcdOriginDriver.\lCacheTileInBox">
<polygon fill="white" stroke="black" points="548.5,-109 548.5,-139 689.5,-139 689.5,-109 548.5,-109"/>
<text text-anchor="start" x="556.5" y="-127" font-family="Helvetica,sans-Serif" font-size="10.00">nlcd_origin.NlcdOriginDriver.</text>
<text text-anchor="middle" x="619" y="-116" font-family="Helvetica,sans-Serif" font-size="10.00">CacheTileInBox</text>
</a>
</g>
</g>
<!-- Node5&#45;&gt;Node6 -->
<g id="edge6" class="edge"><title>Node5&#45;&gt;Node6</title>
<path fill="none" stroke="midnightblue" d="M507.593,-124C517.609,-124 527.982,-124 538.178,-124"/>
<polygon fill="midnightblue" stroke="midnightblue" points="538.296,-127.5 548.296,-124 538.296,-120.5 538.296,-127.5"/>
</g>
<!-- Node8 -->
<g id="node8" class="node"><title>Node8</title>
<g id="a_node8"><a xlink:href="../../dd/dda/classsrc_1_1harness_1_1reference__models_1_1geo_1_1nlcd_1_1NlcdDriver.html#adbd9c43c60ad71af55be4357eb307e67" target="_top" xlink:title="src.harness.reference\l_models.geo.nlcd.NlcdDriver.\lGetTile">
<polygon fill="white" stroke="black" points="364,-10.5 364,-51.5 510,-51.5 510,-10.5 364,-10.5"/>
<text text-anchor="start" x="372" y="-39.5" font-family="Helvetica,sans-Serif" font-size="10.00">src.harness.reference</text>
<text text-anchor="start" x="372" y="-28.5" font-family="Helvetica,sans-Serif" font-size="10.00">_models.geo.nlcd.NlcdDriver.</text>
<text text-anchor="middle" x="437" y="-17.5" font-family="Helvetica,sans-Serif" font-size="10.00">GetTile</text>
</a>
</g>
</g>
<!-- Node7&#45;&gt;Node8 -->
<g id="edge9" class="edge"><title>Node7&#45;&gt;Node8</title>
<path fill="none" stroke="midnightblue" d="M328.176,-42.3815C336.612,-41.491 345.265,-40.5776 353.824,-39.6742"/>
<polygon fill="midnightblue" stroke="midnightblue" points="354.231,-43.1507 363.808,-38.6203 353.496,-36.1894 354.231,-43.1507"/>
</g>
<!-- Node8&#45;&gt;Node4 -->
<g id="edge10" class="edge"><title>Node8&#45;&gt;Node4</title>
<path fill="none" stroke="midnightblue" d="M510.176,-48.643C522.172,-51.5755 534.609,-54.6156 546.587,-57.5435"/>
<polygon fill="midnightblue" stroke="midnightblue" points="545.975,-60.9969 556.52,-59.9716 547.637,-54.1971 545.975,-60.9969"/>
</g>
<!-- Node9 -->
<g id="node9" class="node"><title>Node9</title>
<g id="a_node9"><a xlink:href="../../dd/dda/classsrc_1_1harness_1_1reference__models_1_1geo_1_1nlcd_1_1NlcdDriver.html#ac0f09361ada4f43d02e87ddab5dde289" target="_top" xlink:title="src.harness.reference\l_models.geo.nlcd.NlcdDriver.\l_CacheLruUpdate">
<polygon fill="white" stroke="black" points="546,-0.5 546,-41.5 692,-41.5 692,-0.5 546,-0.5"/>
<text text-anchor="start" x="554" y="-29.5" font-family="Helvetica,sans-Serif" font-size="10.00">src.harness.reference</text>
<text text-anchor="start" x="554" y="-18.5" font-family="Helvetica,sans-Serif" font-size="10.00">_models.geo.nlcd.NlcdDriver.</text>
<text text-anchor="middle" x="619" y="-7.5" font-family="Helvetica,sans-Serif" font-size="10.00">_CacheLruUpdate</text>
</a>
</g>
</g>
<!-- Node8&#45;&gt;Node9 -->
<g id="edge11" class="edge"><title>Node8&#45;&gt;Node9</title>
<path fill="none" stroke="midnightblue" d="M510.176,-26.9902C518.52,-26.5267 527.077,-26.0513 535.544,-25.5809"/>
<polygon fill="midnightblue" stroke="midnightblue" points="536.018,-29.0601 545.808,-25.0107 535.629,-22.0708 536.018,-29.0601"/>
</g>
</g>
</svg>
