<?xml version="1.0" encoding="UTF-8" standalone="no"?>
<!DOCTYPE svg PUBLIC "-//W3C//DTD SVG 1.1//EN"
 "http://www.w3.org/Graphics/SVG/1.1/DTD/svg11.dtd">
<!-- Generated by graphviz version 2.38.0 (20140413.2041)
 -->
<!-- Title: src.harness.reference_models.geo.nlcd.NlcdDriver.__init__ Pages: 1 -->
<svg width="336pt" height="110pt"
 viewBox="0.00 0.00 336.00 110.00" xmlns="http://www.w3.org/2000/svg" xmlns:xlink="http://www.w3.org/1999/xlink">
<g id="graph0" class="graph" transform="scale(1 1) rotate(0) translate(4 106)">
<title>src.harness.reference_models.geo.nlcd.NlcdDriver.__init__</title>
<polygon fill="white" stroke="none" points="-4,4 -4,-106 332,-106 332,4 -4,4"/>
<!-- Node1 -->
<g id="node1" class="node"><title>Node1</title>
<polygon fill="#bfbfbf" stroke="black" points="0,-30.5 0,-71.5 146,-71.5 146,-30.5 0,-30.5"/>
<text text-anchor="start" x="8" y="-59.5" font-family="Helvetica,sans-Serif" font-size="10.00">src.harness.reference</text>
<text text-anchor="start" x="8" y="-48.5" font-family="Helvetica,sans-Serif" font-size="10.00">_models.geo.nlcd.NlcdDriver.</text>
<text text-anchor="middle" x="73" y="-37.5" font-family="Helvetica,sans-Serif" font-size="10.00">__init__</text>
</g>
<!-- Node2 -->
<g id="node2" class="node"><title>Node2</title>
<g id="a_node2"><a xlink:href="../../dd/dda/classsrc_1_1harness_1_1reference__models_1_1geo_1_1nlcd_1_1NlcdDriver.html#a0b53b30ae6f039e127e4f66961045982" target="_top" xlink:title="src.harness.reference\l_models.geo.nlcd.NlcdDriver.\lSetNlcdDirectory">
<polygon fill="white" stroke="black" points="182,-60.5 182,-101.5 328,-101.5 328,-60.5 182,-60.5"/>
<text text-anchor="start" x="190" y="-89.5" font-family="Helvetica,sans-Serif" font-size="10.00">src.harness.reference</text>
<text text-anchor="start" x="190" y="-78.5" font-family="Helvetica,sans-Serif" font-size="10.00">_models.geo.nlcd.NlcdDriver.</text>
<text text-anchor="middle" x="255" y="-67.5" font-family="Helvetica,sans-Serif" font-size="10.00">SetNlcdDirectory</text>
</a>
</g>
</g>
<!-- Node1&#45;&gt;Node2 -->
<g id="edge1" class="edge"><title>Node1&#45;&gt;Node2</title>
<path fill="none" stroke="midnightblue" d="M146.176,-63.0293C154.612,-64.4353 163.265,-65.8775 171.824,-67.3039"/>
<polygon fill="midnightblue" stroke="midnightblue" points="171.369,-70.7763 181.808,-68.968 172.52,-63.8716 171.369,-70.7763"/>
</g>
<!-- Node3 -->
<g id="node3" class="node"><title>Node3</title>
<g id="a_node3"><a xlink:href="../../dd/dda/classsrc_1_1harness_1_1reference__models_1_1geo_1_1nlcd_1_1NlcdDriver.html#a7ade19dde1080141681df045f4c44623" target="_top" xlink:title="src.harness.reference\l_models.geo.nlcd.NlcdDriver.\lSetCacheSize">
<polygon fill="white" stroke="black" points="182,-0.5 182,-41.5 328,-41.5 328,-0.5 182,-0.5"/>
<text text-anchor="start" x="190" y="-29.5" font-family="Helvetica,sans-Serif" font-size="10.00">src.harness.reference</text>
<text text-anchor="start" x="190" y="-18.5" font-family="Helvetica,sans-Serif" font-size="10.00">_models.geo.nlcd.NlcdDriver.</text>
<text text-anchor="middle" x="255" y="-7.5" font-family="Helvetica,sans-Serif" font-size="10.00">SetCacheSize</text>
</a>
</g>
</g>
<!-- Node1&#45;&gt;Node3 -->
<g id="edge2" class="edge"><title>Node1&#45;&gt;Node3</title>
<path fill="none" stroke="midnightblue" d="M146.176,-38.9707C154.612,-37.5647 163.265,-36.1225 171.824,-34.6961"/>
<polygon fill="midnightblue" stroke="midnightblue" points="172.52,-38.1284 181.808,-33.032 171.369,-31.2237 172.52,-38.1284"/>
</g>
</g>
</svg>
