<?xml version="1.0" encoding="UTF-8" standalone="no"?>
<!DOCTYPE svg PUBLIC "-//W3C//DTD SVG 1.1//EN"
 "http://www.w3.org/Graphics/SVG/1.1/DTD/svg11.dtd">
<!-- Generated by graphviz version 2.38.0 (20140413.2041)
 -->
<!-- Title: src.harness.reference_models.geo.nlcd.NlcdDriver.GetTile Pages: 1 -->
<svg width="528pt" height="170pt"
 viewBox="0.00 0.00 528.00 170.00" xmlns="http://www.w3.org/2000/svg" xmlns:xlink="http://www.w3.org/1999/xlink">
<g id="graph0" class="graph" transform="scale(1 1) rotate(0) translate(4 166)">
<title>src.harness.reference_models.geo.nlcd.NlcdDriver.GetTile</title>
<polygon fill="white" stroke="none" points="-4,4 -4,-166 524,-166 524,4 -4,4"/>
<!-- Node1 -->
<g id="node1" class="node"><title>Node1</title>
<polygon fill="#bfbfbf" stroke="black" points="0,-90.5 0,-131.5 146,-131.5 146,-90.5 0,-90.5"/>
<text text-anchor="start" x="8" y="-119.5" font-family="Helvetica,sans-Serif" font-size="10.00">src.harness.reference</text>
<text text-anchor="start" x="8" y="-108.5" font-family="Helvetica,sans-Serif" font-size="10.00">_models.geo.nlcd.NlcdDriver.</text>
<text text-anchor="middle" x="73" y="-97.5" font-family="Helvetica,sans-Serif" font-size="10.00">GetTile</text>
</g>
<!-- Node2 -->
<g id="node2" class="node"><title>Node2</title>
<g id="a_node2"><a xlink:href="../../dd/dda/classsrc_1_1harness_1_1reference__models_1_1geo_1_1nlcd_1_1NlcdDriver.html#aee3de4fa94676b19c6d622705a1d557c" target="_top" xlink:title="src.harness.reference\l_models.geo.nlcd.NlcdDriver.\lGetLandCoverCodes">
<polygon fill="white" stroke="black" points="182,-120.5 182,-161.5 328,-161.5 328,-120.5 182,-120.5"/>
<text text-anchor="start" x="190" y="-149.5" font-family="Helvetica,sans-Serif" font-size="10.00">src.harness.reference</text>
<text text-anchor="start" x="190" y="-138.5" font-family="Helvetica,sans-Serif" font-size="10.00">_models.geo.nlcd.NlcdDriver.</text>
<text text-anchor="middle" x="255" y="-127.5" font-family="Helvetica,sans-Serif" font-size="10.00">GetLandCoverCodes</text>
</a>
</g>
</g>
<!-- Node1&#45;&gt;Node2 -->
<g id="edge1" class="edge"><title>Node1&#45;&gt;Node2</title>
<path fill="none" stroke="midnightblue" d="M156.16,-124.693C164.718,-126.12 173.372,-127.562 181.808,-128.968"/>
<polygon fill="midnightblue" stroke="midnightblue" points="156.615,-121.221 146.176,-123.029 155.464,-128.126 156.615,-121.221"/>
</g>
<!-- Node4 -->
<g id="node4" class="node"><title>Node4</title>
<g id="a_node4"><a xlink:href="../../d6/d6b/classsrc_1_1harness_1_1reference__models_1_1geo_1_1terrain_1_1TerrainDriver.html#a8d5f60a37aec4d3318fd0ef720c9c12c" target="_top" xlink:title="src.harness.reference\l_models.geo.terrain.Terrain\lDriver.GetTerrainElevation">
<polygon fill="white" stroke="black" points="187.5,-60.5 187.5,-101.5 322.5,-101.5 322.5,-60.5 187.5,-60.5"/>
<text text-anchor="start" x="195.5" y="-89.5" font-family="Helvetica,sans-Serif" font-size="10.00">src.harness.reference</text>
<text text-anchor="start" x="195.5" y="-78.5" font-family="Helvetica,sans-Serif" font-size="10.00">_models.geo.terrain.Terrain</text>
<text text-anchor="middle" x="255" y="-67.5" font-family="Helvetica,sans-Serif" font-size="10.00">Driver.GetTerrainElevation</text>
</a>
</g>
</g>
<!-- Node1&#45;&gt;Node4 -->
<g id="edge3" class="edge"><title>Node1&#45;&gt;Node4</title>
<path fill="none" stroke="midnightblue" d="M156.134,-97.3109C166.586,-95.5689 177.181,-93.8032 187.348,-92.1086"/>
<polygon fill="midnightblue" stroke="midnightblue" points="155.464,-93.8743 146.176,-98.9707 156.615,-100.779 155.464,-93.8743"/>
</g>
<!-- Node3 -->
<g id="node3" class="node"><title>Node3</title>
<g id="a_node3"><a xlink:href="../../dd/dda/classsrc_1_1harness_1_1reference__models_1_1geo_1_1nlcd_1_1NlcdDriver.html#ae1472dc7570f131a6de25729f167b237" target="_top" xlink:title="src.harness.reference\l_models.geo.nlcd.NlcdDriver.\lRegionNlcdVote">
<polygon fill="white" stroke="black" points="369,-120.5 369,-161.5 515,-161.5 515,-120.5 369,-120.5"/>
<text text-anchor="start" x="377" y="-149.5" font-family="Helvetica,sans-Serif" font-size="10.00">src.harness.reference</text>
<text text-anchor="start" x="377" y="-138.5" font-family="Helvetica,sans-Serif" font-size="10.00">_models.geo.nlcd.NlcdDriver.</text>
<text text-anchor="middle" x="442" y="-127.5" font-family="Helvetica,sans-Serif" font-size="10.00">RegionNlcdVote</text>
</a>
</g>
</g>
<!-- Node2&#45;&gt;Node3 -->
<g id="edge2" class="edge"><title>Node2&#45;&gt;Node3</title>
<path fill="none" stroke="midnightblue" d="M338.194,-141C348.407,-141 358.79,-141 368.837,-141"/>
<polygon fill="midnightblue" stroke="midnightblue" points="338.056,-137.5 328.056,-141 338.056,-144.5 338.056,-137.5"/>
</g>
<!-- Node5 -->
<g id="node5" class="node"><title>Node5</title>
<g id="a_node5"><a xlink:href="../../d6/d6b/classsrc_1_1harness_1_1reference__models_1_1geo_1_1terrain_1_1TerrainDriver.html#a937db85ff8e17162dd624ad69cebe456" target="_top" xlink:title="src.harness.reference\l_models.geo.terrain.Terrain\lDriver.TerrainProfile">
<polygon fill="white" stroke="black" points="374.5,-60.5 374.5,-101.5 509.5,-101.5 509.5,-60.5 374.5,-60.5"/>
<text text-anchor="start" x="382.5" y="-89.5" font-family="Helvetica,sans-Serif" font-size="10.00">src.harness.reference</text>
<text text-anchor="start" x="382.5" y="-78.5" font-family="Helvetica,sans-Serif" font-size="10.00">_models.geo.terrain.Terrain</text>
<text text-anchor="middle" x="442" y="-67.5" font-family="Helvetica,sans-Serif" font-size="10.00">Driver.TerrainProfile</text>
</a>
</g>
</g>
<!-- Node4&#45;&gt;Node5 -->
<g id="edge4" class="edge"><title>Node4&#45;&gt;Node5</title>
<path fill="none" stroke="midnightblue" d="M332.547,-74.34C346.452,-74.1817 360.853,-74.2322 374.441,-74.4917"/>
<polygon fill="midnightblue" stroke="midnightblue" points="332.474,-70.8406 322.528,-74.4923 332.58,-77.8398 332.474,-70.8406"/>
</g>
<!-- Node6 -->
<g id="node6" class="node"><title>Node6</title>
<g id="a_node6"><a xlink:href="../../d6/d6b/classsrc_1_1harness_1_1reference__models_1_1geo_1_1terrain_1_1TerrainDriver.html#aedbde9861afb8bcdee5a04e00b77bd22" target="_top" xlink:title="src.harness.reference\l_models.geo.terrain.Terrain\lDriver.ComputeNormalizedHaat">
<polygon fill="white" stroke="black" points="364,-0.5 364,-41.5 520,-41.5 520,-0.5 364,-0.5"/>
<text text-anchor="start" x="372" y="-29.5" font-family="Helvetica,sans-Serif" font-size="10.00">src.harness.reference</text>
<text text-anchor="start" x="372" y="-18.5" font-family="Helvetica,sans-Serif" font-size="10.00">_models.geo.terrain.Terrain</text>
<text text-anchor="middle" x="442" y="-7.5" font-family="Helvetica,sans-Serif" font-size="10.00">Driver.ComputeNormalizedHaat</text>
</a>
</g>
</g>
<!-- Node4&#45;&gt;Node6 -->
<g id="edge6" class="edge"><title>Node4&#45;&gt;Node6</title>
<path fill="none" stroke="midnightblue" d="M329.256,-57.2413C345.269,-52.0477 362.088,-46.5931 377.675,-41.5378"/>
<polygon fill="midnightblue" stroke="midnightblue" points="327.84,-54.021 319.408,-60.4353 330,-60.6795 327.84,-54.021"/>
</g>
<!-- Node5&#45;&gt;Node4 -->
<g id="edge5" class="edge"><title>Node5&#45;&gt;Node4</title>
<path fill="none" stroke="midnightblue" d="M364.422,-87.6603C350.516,-87.8184 336.115,-87.7675 322.528,-87.5077"/>
<polygon fill="midnightblue" stroke="midnightblue" points="364.495,-91.1597 374.441,-87.5083 364.389,-84.1605 364.495,-91.1597"/>
</g>
</g>
</svg>
