<?xml version="1.0" encoding="UTF-8" standalone="no"?>
<!DOCTYPE svg PUBLIC "-//W3C//DTD SVG 1.1//EN"
 "http://www.w3.org/Graphics/SVG/1.1/DTD/svg11.dtd">
<!-- Generated by graphviz version 2.38.0 (20140413.2041)
 -->
<!-- Title: src.harness.reference_models.geo.nlcd.NlcdDriver.GetTile Pages: 1 -->
<svg width="336pt" height="99pt"
 viewBox="0.00 0.00 336.00 98.50" xmlns="http://www.w3.org/2000/svg" xmlns:xlink="http://www.w3.org/1999/xlink">
<g id="graph0" class="graph" transform="scale(1 1) rotate(0) translate(4 94.5)">
<title>src.harness.reference_models.geo.nlcd.NlcdDriver.GetTile</title>
<polygon fill="white" stroke="none" points="-4,4 -4,-94.5 332,-94.5 332,4 -4,4"/>
<!-- Node1 -->
<g id="node1" class="node"><title>Node1</title>
<polygon fill="#bfbfbf" stroke="black" points="0,-27.5 0,-68.5 146,-68.5 146,-27.5 0,-27.5"/>
<text text-anchor="start" x="8" y="-56.5" font-family="Helvetica,sans-Serif" font-size="10.00">src.harness.reference</text>
<text text-anchor="start" x="8" y="-45.5" font-family="Helvetica,sans-Serif" font-size="10.00">_models.geo.nlcd.NlcdDriver.</text>
<text text-anchor="middle" x="73" y="-34.5" font-family="Helvetica,sans-Serif" font-size="10.00">GetTile</text>
</g>
<!-- Node2 -->
<g id="node2" class="node"><title>Node2</title>
<g id="a_node2"><a xlink:href="../../d6/d2e/classnlcd__origin_1_1NlcdOriginDriver.html#a6b16760497d4025321f3a9c77ce2a52d" target="_top" xlink:title="nlcd_origin.NlcdOriginDriver.\l_CacheLruUpdate">
<polygon fill="white" stroke="black" points="184.5,-60 184.5,-90 325.5,-90 325.5,-60 184.5,-60"/>
<text text-anchor="start" x="192.5" y="-78" font-family="Helvetica,sans-Serif" font-size="10.00">nlcd_origin.NlcdOriginDriver.</text>
<text text-anchor="middle" x="255" y="-67" font-family="Helvetica,sans-Serif" font-size="10.00">_CacheLruUpdate</text>
</a>
</g>
</g>
<!-- Node1&#45;&gt;Node2 -->
<g id="edge1" class="edge"><title>Node1&#45;&gt;Node2</title>
<path fill="none" stroke="midnightblue" d="M146.176,-58.8264C155.441,-60.2162 164.97,-61.6455 174.346,-63.0519"/>
<polygon fill="midnightblue" stroke="midnightblue" points="174.033,-66.544 184.442,-64.5662 175.071,-59.6215 174.033,-66.544"/>
</g>
<!-- Node3 -->
<g id="node3" class="node"><title>Node3</title>
<g id="a_node3"><a xlink:href="../../dd/dda/classsrc_1_1harness_1_1reference__models_1_1geo_1_1nlcd_1_1NlcdDriver.html#ac0f09361ada4f43d02e87ddab5dde289" target="_top" xlink:title="src.harness.reference\l_models.geo.nlcd.NlcdDriver.\l_CacheLruUpdate">
<polygon fill="white" stroke="black" points="182,-0.5 182,-41.5 328,-41.5 328,-0.5 182,-0.5"/>
<text text-anchor="start" x="190" y="-29.5" font-family="Helvetica,sans-Serif" font-size="10.00">src.harness.reference</text>
<text text-anchor="start" x="190" y="-18.5" font-family="Helvetica,sans-Serif" font-size="10.00">_models.geo.nlcd.NlcdDriver.</text>
<text text-anchor="middle" x="255" y="-7.5" font-family="Helvetica,sans-Serif" font-size="10.00">_CacheLruUpdate</text>
</a>
</g>
</g>
<!-- Node1&#45;&gt;Node3 -->
<g id="edge2" class="edge"><title>Node1&#45;&gt;Node3</title>
<path fill="none" stroke="midnightblue" d="M146.176,-37.1736C154.612,-35.9083 163.265,-34.6102 171.824,-33.3265"/>
<polygon fill="midnightblue" stroke="midnightblue" points="172.438,-36.7736 181.808,-31.8288 171.399,-29.851 172.438,-36.7736"/>
</g>
</g>
</svg>
