<?xml version="1.0" encoding="UTF-8" standalone="no"?>
<!DOCTYPE svg PUBLIC "-//W3C//DTD SVG 1.1//EN"
 "http://www.w3.org/Graphics/SVG/1.1/DTD/svg11.dtd">
<!-- Generated by graphviz version 2.38.0 (20140413.2041)
 -->
<!-- Title: src.harness.reference_models.geo.nlcd.NlcdDriver.SetCacheSize Pages: 1 -->
<svg width="336pt" height="110pt"
 viewBox="0.00 0.00 336.00 110.00" xmlns="http://www.w3.org/2000/svg" xmlns:xlink="http://www.w3.org/1999/xlink">
<g id="graph0" class="graph" transform="scale(1 1) rotate(0) translate(4 106)">
<title>src.harness.reference_models.geo.nlcd.NlcdDriver.SetCacheSize</title>
<polygon fill="white" stroke="none" points="-4,4 -4,-106 332,-106 332,4 -4,4"/>
<!-- Node1 -->
<g id="node1" class="node"><title>Node1</title>
<polygon fill="#bfbfbf" stroke="black" points="0,-30.5 0,-71.5 146,-71.5 146,-30.5 0,-30.5"/>
<text text-anchor="start" x="8" y="-59.5" font-family="Helvetica,sans-Serif" font-size="10.00">src.harness.reference</text>
<text text-anchor="start" x="8" y="-48.5" font-family="Helvetica,sans-Serif" font-size="10.00">_models.geo.nlcd.NlcdDriver.</text>
<text text-anchor="middle" x="73" y="-37.5" font-family="Helvetica,sans-Serif" font-size="10.00">SetCacheSize</text>
</g>
<!-- Node2 -->
<g id="node2" class="node"><title>Node2</title>
<g id="a_node2"><a xlink:href="../../dd/dda/classsrc_1_1harness_1_1reference__models_1_1geo_1_1nlcd_1_1NlcdDriver.html#a12937d0e7ff6213eca913720726d7da8" target="_top" xlink:title="src.harness.reference\l_models.geo.nlcd.NlcdDriver.\l__init__">
<polygon fill="white" stroke="black" points="182,-60.5 182,-101.5 328,-101.5 328,-60.5 182,-60.5"/>
<text text-anchor="start" x="190" y="-89.5" font-family="Helvetica,sans-Serif" font-size="10.00">src.harness.reference</text>
<text text-anchor="start" x="190" y="-78.5" font-family="Helvetica,sans-Serif" font-size="10.00">_models.geo.nlcd.NlcdDriver.</text>
<text text-anchor="middle" x="255" y="-67.5" font-family="Helvetica,sans-Serif" font-size="10.00">__init__</text>
</a>
</g>
</g>
<!-- Node1&#45;&gt;Node2 -->
<g id="edge1" class="edge"><title>Node1&#45;&gt;Node2</title>
<path fill="none" stroke="midnightblue" d="M156.16,-64.6933C164.718,-66.1197 173.372,-67.562 181.808,-68.968"/>
<polygon fill="midnightblue" stroke="midnightblue" points="156.615,-61.221 146.176,-63.0293 155.464,-68.1257 156.615,-61.221"/>
</g>
<!-- Node3 -->
<g id="node3" class="node"><title>Node3</title>
<g id="a_node3"><a xlink:href="../../d6/d6b/classsrc_1_1harness_1_1reference__models_1_1geo_1_1terrain_1_1TerrainDriver.html#a7218d8047938a21eded9a32b9894e9ba" target="_top" xlink:title="src.harness.reference\l_models.geo.terrain.Terrain\lDriver.__init__">
<polygon fill="white" stroke="black" points="187.5,-0.5 187.5,-41.5 322.5,-41.5 322.5,-0.5 187.5,-0.5"/>
<text text-anchor="start" x="195.5" y="-29.5" font-family="Helvetica,sans-Serif" font-size="10.00">src.harness.reference</text>
<text text-anchor="start" x="195.5" y="-18.5" font-family="Helvetica,sans-Serif" font-size="10.00">_models.geo.terrain.Terrain</text>
<text text-anchor="middle" x="255" y="-7.5" font-family="Helvetica,sans-Serif" font-size="10.00">Driver.__init__</text>
</a>
</g>
</g>
<!-- Node1&#45;&gt;Node3 -->
<g id="edge2" class="edge"><title>Node1&#45;&gt;Node3</title>
<path fill="none" stroke="midnightblue" d="M156.134,-37.3109C166.586,-35.5689 177.181,-33.8032 187.348,-32.1086"/>
<polygon fill="midnightblue" stroke="midnightblue" points="155.464,-33.8743 146.176,-38.9707 156.615,-40.779 155.464,-33.8743"/>
</g>
</g>
</svg>
