<?xml version="1.0" encoding="UTF-8" standalone="no"?>
<!DOCTYPE svg PUBLIC "-//W3C//DTD SVG 1.1//EN"
 "http://www.w3.org/Graphics/SVG/1.1/DTD/svg11.dtd">
<!-- Generated by graphviz version 2.38.0 (20140413.2041)
 -->
<!-- Title: src.harness.reference_models.geo.refractivity.RefractivityIndexer.ConfigureDataFile Pages: 1 -->
<svg width="392pt" height="110pt"
 viewBox="0.00 0.00 392.00 110.00" xmlns="http://www.w3.org/2000/svg" xmlns:xlink="http://www.w3.org/1999/xlink">
<g id="graph0" class="graph" transform="scale(1 1) rotate(0) translate(4 106)">
<title>src.harness.reference_models.geo.refractivity.RefractivityIndexer.ConfigureDataFile</title>
<polygon fill="white" stroke="none" points="-4,4 -4,-106 388,-106 388,4 -4,4"/>
<!-- Node1 -->
<g id="node1" class="node"><title>Node1</title>
<polygon fill="#bfbfbf" stroke="black" points="0,-30.5 0,-71.5 174,-71.5 174,-30.5 0,-30.5"/>
<text text-anchor="start" x="8" y="-59.5" font-family="Helvetica,sans-Serif" font-size="10.00">src.harness.reference</text>
<text text-anchor="start" x="8" y="-48.5" font-family="Helvetica,sans-Serif" font-size="10.00">_models.geo.refractivity.Refractivity</text>
<text text-anchor="middle" x="87" y="-37.5" font-family="Helvetica,sans-Serif" font-size="10.00">Indexer.ConfigureDataFile</text>
</g>
<!-- Node2 -->
<g id="node2" class="node"><title>Node2</title>
<g id="a_node2"><a xlink:href="../../d9/dea/classsrc_1_1harness_1_1reference__models_1_1geo_1_1refractivity_1_1RefractivityIndexer.html#a2bc299ca8b83eefe5a693324f5c7f7c4" target="_top" xlink:title="src.harness.reference\l_models.geo.refractivity.Refractivity\lIndexer.__init__">
<polygon fill="white" stroke="black" points="210,-60.5 210,-101.5 384,-101.5 384,-60.5 210,-60.5"/>
<text text-anchor="start" x="218" y="-89.5" font-family="Helvetica,sans-Serif" font-size="10.00">src.harness.reference</text>
<text text-anchor="start" x="218" y="-78.5" font-family="Helvetica,sans-Serif" font-size="10.00">_models.geo.refractivity.Refractivity</text>
<text text-anchor="middle" x="297" y="-67.5" font-family="Helvetica,sans-Serif" font-size="10.00">Indexer.__init__</text>
</a>
</g>
</g>
<!-- Node1&#45;&gt;Node2 -->
<g id="edge1" class="edge"><title>Node1&#45;&gt;Node2</title>
<path fill="none" stroke="midnightblue" d="M184.16,-64.8693C192.768,-66.1108 201.448,-67.3626 209.962,-68.5906"/>
<polygon fill="midnightblue" stroke="midnightblue" points="184.5,-61.3822 174.103,-63.4187 183.501,-68.3105 184.5,-61.3822"/>
</g>
<!-- Node3 -->
<g id="node3" class="node"><title>Node3</title>
<g id="a_node3"><a xlink:href="../../d8/d86/classsrc_1_1harness_1_1reference__models_1_1geo_1_1tropoclim_1_1ClimateIndexer.html#a25f6ee0703aa3e6863022ce4fb510f8e" target="_top" xlink:title="src.harness.reference\l_models.geo.tropoclim.Climate\lIndexer.__init__">
<polygon fill="white" stroke="black" points="221,-0.5 221,-41.5 373,-41.5 373,-0.5 221,-0.5"/>
<text text-anchor="start" x="229" y="-29.5" font-family="Helvetica,sans-Serif" font-size="10.00">src.harness.reference</text>
<text text-anchor="start" x="229" y="-18.5" font-family="Helvetica,sans-Serif" font-size="10.00">_models.geo.tropoclim.Climate</text>
<text text-anchor="middle" x="297" y="-7.5" font-family="Helvetica,sans-Serif" font-size="10.00">Indexer.__init__</text>
</a>
</g>
</g>
<!-- Node1&#45;&gt;Node3 -->
<g id="edge2" class="edge"><title>Node1&#45;&gt;Node3</title>
<path fill="none" stroke="midnightblue" d="M184.362,-37.1017C196.632,-35.3319 209.045,-33.5416 220.912,-31.8299"/>
<polygon fill="midnightblue" stroke="midnightblue" points="183.501,-33.6895 174.103,-38.5813 184.5,-40.6178 183.501,-33.6895"/>
</g>
</g>
</svg>
