<?xml version="1.0" encoding="UTF-8" standalone="no"?>
<!DOCTYPE svg PUBLIC "-//W3C//DTD SVG 1.1//EN"
 "http://www.w3.org/Graphics/SVG/1.1/DTD/svg11.dtd">
<!-- Generated by graphviz version 2.38.0 (20140413.2041)
 -->
<!-- Title: src.harness.reference_models.geo.refractivity.RefractivityIndexer.__init__ Pages: 1 -->
<svg width="392pt" height="50pt"
 viewBox="0.00 0.00 392.00 50.00" xmlns="http://www.w3.org/2000/svg" xmlns:xlink="http://www.w3.org/1999/xlink">
<g id="graph0" class="graph" transform="scale(1 1) rotate(0) translate(4 46)">
<title>src.harness.reference_models.geo.refractivity.RefractivityIndexer.__init__</title>
<polygon fill="white" stroke="none" points="-4,4 -4,-46 388,-46 388,4 -4,4"/>
<!-- Node1 -->
<g id="node1" class="node"><title>Node1</title>
<polygon fill="#bfbfbf" stroke="black" points="0,-0.5 0,-41.5 174,-41.5 174,-0.5 0,-0.5"/>
<text text-anchor="start" x="8" y="-29.5" font-family="Helvetica,sans-Serif" font-size="10.00">src.harness.reference</text>
<text text-anchor="start" x="8" y="-18.5" font-family="Helvetica,sans-Serif" font-size="10.00">_models.geo.refractivity.Refractivity</text>
<text text-anchor="middle" x="87" y="-7.5" font-family="Helvetica,sans-Serif" font-size="10.00">Indexer.__init__</text>
</g>
<!-- Node2 -->
<g id="node2" class="node"><title>Node2</title>
<g id="a_node2"><a xlink:href="../../d9/dea/classsrc_1_1harness_1_1reference__models_1_1geo_1_1refractivity_1_1RefractivityIndexer.html#a048d06b164f3730ce3c400d11eb56854" target="_top" xlink:title="src.harness.reference\l_models.geo.refractivity.Refractivity\lIndexer.ConfigureDataFile">
<polygon fill="white" stroke="black" points="210,-0.5 210,-41.5 384,-41.5 384,-0.5 210,-0.5"/>
<text text-anchor="start" x="218" y="-29.5" font-family="Helvetica,sans-Serif" font-size="10.00">src.harness.reference</text>
<text text-anchor="start" x="218" y="-18.5" font-family="Helvetica,sans-Serif" font-size="10.00">_models.geo.refractivity.Refractivity</text>
<text text-anchor="middle" x="297" y="-7.5" font-family="Helvetica,sans-Serif" font-size="10.00">Indexer.ConfigureDataFile</text>
</a>
</g>
</g>
<!-- Node1&#45;&gt;Node2 -->
<g id="edge1" class="edge"><title>Node1&#45;&gt;Node2</title>
<path fill="none" stroke="midnightblue" d="M174.103,-21C182.618,-21 191.298,-21 199.905,-21"/>
<polygon fill="midnightblue" stroke="midnightblue" points="199.962,-24.5001 209.962,-21 199.962,-17.5001 199.962,-24.5001"/>
</g>
</g>
</svg>
