<?xml version="1.0" encoding="UTF-8" standalone="no"?>
<!DOCTYPE svg PUBLIC "-//W3C//DTD SVG 1.1//EN"
 "http://www.w3.org/Graphics/SVG/1.1/DTD/svg11.dtd">
<!-- Generated by graphviz version 2.38.0 (20140413.2041)
 -->
<!-- Title: src.harness.reference_models.geo.terrain.TerrainDriver.GetTerrainElevation Pages: 1 -->
<svg width="335pt" height="110pt"
 viewBox="0.00 0.00 335.00 110.00" xmlns="http://www.w3.org/2000/svg" xmlns:xlink="http://www.w3.org/1999/xlink">
<g id="graph0" class="graph" transform="scale(1 1) rotate(0) translate(4 106)">
<title>src.harness.reference_models.geo.terrain.TerrainDriver.GetTerrainElevation</title>
<polygon fill="white" stroke="none" points="-4,4 -4,-106 331,-106 331,4 -4,4"/>
<!-- Node1 -->
<g id="node1" class="node"><title>Node1</title>
<polygon fill="#bfbfbf" stroke="black" points="0,-60.5 0,-101.5 135,-101.5 135,-60.5 0,-60.5"/>
<text text-anchor="start" x="8" y="-89.5" font-family="Helvetica,sans-Serif" font-size="10.00">src.harness.reference</text>
<text text-anchor="start" x="8" y="-78.5" font-family="Helvetica,sans-Serif" font-size="10.00">_models.geo.terrain.Terrain</text>
<text text-anchor="middle" x="67.5" y="-67.5" font-family="Helvetica,sans-Serif" font-size="10.00">Driver.GetTerrainElevation</text>
</g>
<!-- Node2 -->
<g id="node2" class="node"><title>Node2</title>
<g id="a_node2"><a xlink:href="../../d6/d6b/classsrc_1_1harness_1_1reference__models_1_1geo_1_1terrain_1_1TerrainDriver.html#a937db85ff8e17162dd624ad69cebe456" target="_top" xlink:title="src.harness.reference\l_models.geo.terrain.Terrain\lDriver.TerrainProfile">
<polygon fill="white" stroke="black" points="181.5,-60.5 181.5,-101.5 316.5,-101.5 316.5,-60.5 181.5,-60.5"/>
<text text-anchor="start" x="189.5" y="-89.5" font-family="Helvetica,sans-Serif" font-size="10.00">src.harness.reference</text>
<text text-anchor="start" x="189.5" y="-78.5" font-family="Helvetica,sans-Serif" font-size="10.00">_models.geo.terrain.Terrain</text>
<text text-anchor="middle" x="249" y="-67.5" font-family="Helvetica,sans-Serif" font-size="10.00">Driver.TerrainProfile</text>
</a>
</g>
</g>
<!-- Node1&#45;&gt;Node2 -->
<g id="edge1" class="edge"><title>Node1&#45;&gt;Node2</title>
<path fill="none" stroke="midnightblue" d="M145.086,-74.315C157.106,-74.1956 169.448,-74.2408 181.224,-74.4505"/>
<polygon fill="midnightblue" stroke="midnightblue" points="145.034,-70.8152 135.084,-74.454 145.132,-77.8146 145.034,-70.8152"/>
</g>
<!-- Node3 -->
<g id="node3" class="node"><title>Node3</title>
<g id="a_node3"><a xlink:href="../../d6/d6b/classsrc_1_1harness_1_1reference__models_1_1geo_1_1terrain_1_1TerrainDriver.html#aedbde9861afb8bcdee5a04e00b77bd22" target="_top" xlink:title="src.harness.reference\l_models.geo.terrain.Terrain\lDriver.ComputeNormalizedHaat">
<polygon fill="white" stroke="black" points="171,-0.5 171,-41.5 327,-41.5 327,-0.5 171,-0.5"/>
<text text-anchor="start" x="179" y="-29.5" font-family="Helvetica,sans-Serif" font-size="10.00">src.harness.reference</text>
<text text-anchor="start" x="179" y="-18.5" font-family="Helvetica,sans-Serif" font-size="10.00">_models.geo.terrain.Terrain</text>
<text text-anchor="middle" x="249" y="-7.5" font-family="Helvetica,sans-Serif" font-size="10.00">Driver.ComputeNormalizedHaat</text>
</a>
</g>
</g>
<!-- Node1&#45;&gt;Node3 -->
<g id="edge3" class="edge"><title>Node1&#45;&gt;Node3</title>
<path fill="none" stroke="midnightblue" d="M139.578,-57.2413C155.116,-52.0477 171.434,-46.5931 186.558,-41.5378"/>
<polygon fill="midnightblue" stroke="midnightblue" points="138.397,-53.9456 130.023,-60.4353 140.616,-60.5845 138.397,-53.9456"/>
</g>
<!-- Node2&#45;&gt;Node1 -->
<g id="edge2" class="edge"><title>Node2&#45;&gt;Node1</title>
<path fill="none" stroke="midnightblue" d="M171.218,-87.687C159.195,-87.8046 146.854,-87.7576 135.084,-87.546"/>
<polygon fill="midnightblue" stroke="midnightblue" points="171.273,-91.1866 181.224,-87.5495 171.177,-84.1873 171.273,-91.1866"/>
</g>
</g>
</svg>
