<?xml version="1.0" encoding="UTF-8" standalone="no"?>
<!DOCTYPE svg PUBLIC "-//W3C//DTD SVG 1.1//EN"
 "http://www.w3.org/Graphics/SVG/1.1/DTD/svg11.dtd">
<!-- Generated by graphviz version 2.38.0 (20140413.2041)
 -->
<!-- Title: src.harness.reference_models.geo.terrain.TerrainDriver.__init__ Pages: 1 -->
<svg width="325pt" height="170pt"
 viewBox="0.00 0.00 325.00 170.00" xmlns="http://www.w3.org/2000/svg" xmlns:xlink="http://www.w3.org/1999/xlink">
<g id="graph0" class="graph" transform="scale(1 1) rotate(0) translate(4 166)">
<title>src.harness.reference_models.geo.terrain.TerrainDriver.__init__</title>
<polygon fill="white" stroke="none" points="-4,4 -4,-166 321,-166 321,4 -4,4"/>
<!-- Node1 -->
<g id="node1" class="node"><title>Node1</title>
<polygon fill="#bfbfbf" stroke="black" points="0,-60.5 0,-101.5 135,-101.5 135,-60.5 0,-60.5"/>
<text text-anchor="start" x="8" y="-89.5" font-family="Helvetica,sans-Serif" font-size="10.00">src.harness.reference</text>
<text text-anchor="start" x="8" y="-78.5" font-family="Helvetica,sans-Serif" font-size="10.00">_models.geo.terrain.Terrain</text>
<text text-anchor="middle" x="67.5" y="-67.5" font-family="Helvetica,sans-Serif" font-size="10.00">Driver.__init__</text>
</g>
<!-- Node2 -->
<g id="node2" class="node"><title>Node2</title>
<g id="a_node2"><a xlink:href="../../d6/d6b/classsrc_1_1harness_1_1reference__models_1_1geo_1_1terrain_1_1TerrainDriver.html#ab4a4665755d87bc3e1508ba31d366201" target="_top" xlink:title="src.harness.reference\l_models.geo.terrain.Terrain\lDriver.SetTerrainDirectory">
<polygon fill="white" stroke="black" points="176.5,-120.5 176.5,-161.5 311.5,-161.5 311.5,-120.5 176.5,-120.5"/>
<text text-anchor="start" x="184.5" y="-149.5" font-family="Helvetica,sans-Serif" font-size="10.00">src.harness.reference</text>
<text text-anchor="start" x="184.5" y="-138.5" font-family="Helvetica,sans-Serif" font-size="10.00">_models.geo.terrain.Terrain</text>
<text text-anchor="middle" x="244" y="-127.5" font-family="Helvetica,sans-Serif" font-size="10.00">Driver.SetTerrainDirectory</text>
</a>
</g>
</g>
<!-- Node1&#45;&gt;Node2 -->
<g id="edge1" class="edge"><title>Node1&#45;&gt;Node2</title>
<path fill="none" stroke="midnightblue" d="M128.553,-101.649C143.029,-106.626 158.615,-111.985 173.484,-117.098"/>
<polygon fill="midnightblue" stroke="midnightblue" points="172.537,-120.473 183.132,-120.415 174.813,-113.854 172.537,-120.473"/>
</g>
<!-- Node3 -->
<g id="node3" class="node"><title>Node3</title>
<g id="a_node3"><a xlink:href="../../dd/dda/classsrc_1_1harness_1_1reference__models_1_1geo_1_1nlcd_1_1NlcdDriver.html#a7ade19dde1080141681df045f4c44623" target="_top" xlink:title="src.harness.reference\l_models.geo.nlcd.NlcdDriver.\lSetCacheSize">
<polygon fill="white" stroke="black" points="171,-60.5 171,-101.5 317,-101.5 317,-60.5 171,-60.5"/>
<text text-anchor="start" x="179" y="-89.5" font-family="Helvetica,sans-Serif" font-size="10.00">src.harness.reference</text>
<text text-anchor="start" x="179" y="-78.5" font-family="Helvetica,sans-Serif" font-size="10.00">_models.geo.nlcd.NlcdDriver.</text>
<text text-anchor="middle" x="244" y="-67.5" font-family="Helvetica,sans-Serif" font-size="10.00">SetCacheSize</text>
</a>
</g>
</g>
<!-- Node1&#45;&gt;Node3 -->
<g id="edge2" class="edge"><title>Node1&#45;&gt;Node3</title>
<path fill="none" stroke="midnightblue" d="M135.467,-81C143.735,-81 152.26,-81 160.723,-81"/>
<polygon fill="midnightblue" stroke="midnightblue" points="160.993,-84.5001 170.993,-81 160.993,-77.5001 160.993,-84.5001"/>
</g>
<!-- Node4 -->
<g id="node4" class="node"><title>Node4</title>
<g id="a_node4"><a xlink:href="../../d6/d6b/classsrc_1_1harness_1_1reference__models_1_1geo_1_1terrain_1_1TerrainDriver.html#a570637440f50dce842a68d1b94fb75ae" target="_top" xlink:title="src.harness.reference\l_models.geo.terrain.Terrain\lDriver.SetCacheSize">
<polygon fill="white" stroke="black" points="176.5,-0.5 176.5,-41.5 311.5,-41.5 311.5,-0.5 176.5,-0.5"/>
<text text-anchor="start" x="184.5" y="-29.5" font-family="Helvetica,sans-Serif" font-size="10.00">src.harness.reference</text>
<text text-anchor="start" x="184.5" y="-18.5" font-family="Helvetica,sans-Serif" font-size="10.00">_models.geo.terrain.Terrain</text>
<text text-anchor="middle" x="244" y="-7.5" font-family="Helvetica,sans-Serif" font-size="10.00">Driver.SetCacheSize</text>
</a>
</g>
</g>
<!-- Node1&#45;&gt;Node4 -->
<g id="edge3" class="edge"><title>Node1&#45;&gt;Node4</title>
<path fill="none" stroke="midnightblue" d="M128.553,-60.3514C143.029,-55.3739 158.615,-50.0149 173.484,-44.9025"/>
<polygon fill="midnightblue" stroke="midnightblue" points="174.813,-48.1464 183.132,-41.585 172.537,-41.5268 174.813,-48.1464"/>
</g>
</g>
</svg>
