<?xml version="1.0" encoding="UTF-8" standalone="no"?>
<!DOCTYPE svg PUBLIC "-//W3C//DTD SVG 1.1//EN"
 "http://www.w3.org/Graphics/SVG/1.1/DTD/svg11.dtd">
<!-- Generated by graphviz version 2.38.0 (20140413.2041)
 -->
<!-- Title: src.harness.reference_models.geo.terrain.TerrainDriver.TerrainProfile Pages: 1 -->
<svg width="678pt" height="158pt"
 viewBox="0.00 0.00 678.00 158.00" xmlns="http://www.w3.org/2000/svg" xmlns:xlink="http://www.w3.org/1999/xlink">
<g id="graph0" class="graph" transform="scale(1 1) rotate(0) translate(4 154)">
<title>src.harness.reference_models.geo.terrain.TerrainDriver.TerrainProfile</title>
<polygon fill="white" stroke="none" points="-4,4 -4,-154 674,-154 674,4 -4,4"/>
<!-- Node1 -->
<g id="node1" class="node"><title>Node1</title>
<polygon fill="#bfbfbf" stroke="black" points="0,-78.5 0,-119.5 135,-119.5 135,-78.5 0,-78.5"/>
<text text-anchor="start" x="8" y="-107.5" font-family="Helvetica,sans-Serif" font-size="10.00">src.harness.reference</text>
<text text-anchor="start" x="8" y="-96.5" font-family="Helvetica,sans-Serif" font-size="10.00">_models.geo.terrain.Terrain</text>
<text text-anchor="middle" x="67.5" y="-85.5" font-family="Helvetica,sans-Serif" font-size="10.00">Driver.TerrainProfile</text>
</g>
<!-- Node2 -->
<g id="node2" class="node"><title>Node2</title>
<g id="a_node2"><a xlink:href="../../d6/d6b/classsrc_1_1harness_1_1reference__models_1_1geo_1_1terrain_1_1TerrainDriver.html#a8d5f60a37aec4d3318fd0ef720c9c12c" target="_top" xlink:title="src.harness.reference\l_models.geo.terrain.Terrain\lDriver.GetTerrainElevation">
<polygon fill="white" stroke="black" points="171,-78.5 171,-119.5 306,-119.5 306,-78.5 171,-78.5"/>
<text text-anchor="start" x="179" y="-107.5" font-family="Helvetica,sans-Serif" font-size="10.00">src.harness.reference</text>
<text text-anchor="start" x="179" y="-96.5" font-family="Helvetica,sans-Serif" font-size="10.00">_models.geo.terrain.Terrain</text>
<text text-anchor="middle" x="238.5" y="-85.5" font-family="Helvetica,sans-Serif" font-size="10.00">Driver.GetTerrainElevation</text>
</a>
</g>
</g>
<!-- Node1&#45;&gt;Node2 -->
<g id="edge1" class="edge"><title>Node1&#45;&gt;Node2</title>
<path fill="none" stroke="midnightblue" d="M135.293,-92.3835C143.624,-92.2562 152.194,-92.2199 160.661,-92.2747"/>
<polygon fill="midnightblue" stroke="midnightblue" points="160.878,-95.7772 170.915,-92.3867 160.954,-88.7776 160.878,-95.7772"/>
</g>
<!-- Node2&#45;&gt;Node1 -->
<g id="edge9" class="edge"><title>Node2&#45;&gt;Node1</title>
<path fill="none" stroke="midnightblue" d="M170.915,-105.613C162.589,-105.742 154.019,-105.78 145.551,-105.727"/>
<polygon fill="midnightblue" stroke="midnightblue" points="145.33,-102.224 135.293,-105.617 145.255,-109.224 145.33,-102.224"/>
</g>
<!-- Node3 -->
<g id="node3" class="node"><title>Node3</title>
<g id="a_node3"><a xlink:href="../../dd/dda/classsrc_1_1harness_1_1reference__models_1_1geo_1_1nlcd_1_1NlcdDriver.html#adbd9c43c60ad71af55be4357eb307e67" target="_top" xlink:title="src.harness.reference\l_models.geo.nlcd.NlcdDriver.\lGetTile">
<polygon fill="white" stroke="black" points="342,-108.5 342,-149.5 488,-149.5 488,-108.5 342,-108.5"/>
<text text-anchor="start" x="350" y="-137.5" font-family="Helvetica,sans-Serif" font-size="10.00">src.harness.reference</text>
<text text-anchor="start" x="350" y="-126.5" font-family="Helvetica,sans-Serif" font-size="10.00">_models.geo.nlcd.NlcdDriver.</text>
<text text-anchor="middle" x="415" y="-115.5" font-family="Helvetica,sans-Serif" font-size="10.00">GetTile</text>
</a>
</g>
</g>
<!-- Node2&#45;&gt;Node3 -->
<g id="edge2" class="edge"><title>Node2&#45;&gt;Node3</title>
<path fill="none" stroke="midnightblue" d="M306.467,-110.513C314.826,-111.95 323.448,-113.432 332.002,-114.903"/>
<polygon fill="midnightblue" stroke="midnightblue" points="331.545,-118.376 341.993,-116.621 332.731,-111.477 331.545,-118.376"/>
</g>
<!-- Node6 -->
<g id="node6" class="node"><title>Node6</title>
<g id="a_node6"><a xlink:href="../../d6/d6b/classsrc_1_1harness_1_1reference__models_1_1geo_1_1terrain_1_1TerrainDriver.html#afed4e9574b4802744592875621699199" target="_top" xlink:title="src.harness.reference\l_models.geo.terrain.Terrain\lDriver.GetTile">
<polygon fill="white" stroke="black" points="347.5,-48.5 347.5,-89.5 482.5,-89.5 482.5,-48.5 347.5,-48.5"/>
<text text-anchor="start" x="355.5" y="-77.5" font-family="Helvetica,sans-Serif" font-size="10.00">src.harness.reference</text>
<text text-anchor="start" x="355.5" y="-66.5" font-family="Helvetica,sans-Serif" font-size="10.00">_models.geo.terrain.Terrain</text>
<text text-anchor="middle" x="415" y="-55.5" font-family="Helvetica,sans-Serif" font-size="10.00">Driver.GetTile</text>
</a>
</g>
</g>
<!-- Node2&#45;&gt;Node6 -->
<g id="edge5" class="edge"><title>Node2&#45;&gt;Node6</title>
<path fill="none" stroke="midnightblue" d="M306.467,-87.487C316.487,-85.7644 326.885,-83.9769 337.091,-82.2222"/>
<polygon fill="midnightblue" stroke="midnightblue" points="337.95,-85.626 347.212,-80.4822 336.764,-78.7272 337.95,-85.626"/>
</g>
<!-- Node4 -->
<g id="node4" class="node"><title>Node4</title>
<g id="a_node4"><a xlink:href="../../d6/d2e/classnlcd__origin_1_1NlcdOriginDriver.html#a6b16760497d4025321f3a9c77ce2a52d" target="_top" xlink:title="nlcd_origin.NlcdOriginDriver.\l_CacheLruUpdate">
<polygon fill="white" stroke="black" points="526.5,-60 526.5,-90 667.5,-90 667.5,-60 526.5,-60"/>
<text text-anchor="start" x="534.5" y="-78" font-family="Helvetica,sans-Serif" font-size="10.00">nlcd_origin.NlcdOriginDriver.</text>
<text text-anchor="middle" x="597" y="-67" font-family="Helvetica,sans-Serif" font-size="10.00">_CacheLruUpdate</text>
</a>
</g>
</g>
<!-- Node3&#45;&gt;Node4 -->
<g id="edge3" class="edge"><title>Node3&#45;&gt;Node4</title>
<path fill="none" stroke="midnightblue" d="M484.564,-108.431C501.43,-103.371 519.363,-97.9911 535.801,-93.0597"/>
<polygon fill="midnightblue" stroke="midnightblue" points="537.247,-96.28 545.82,-90.0541 535.236,-89.5752 537.247,-96.28"/>
</g>
<!-- Node5 -->
<g id="node5" class="node"><title>Node5</title>
<g id="a_node5"><a xlink:href="../../dd/dda/classsrc_1_1harness_1_1reference__models_1_1geo_1_1nlcd_1_1NlcdDriver.html#ac0f09361ada4f43d02e87ddab5dde289" target="_top" xlink:title="src.harness.reference\l_models.geo.nlcd.NlcdDriver.\l_CacheLruUpdate">
<polygon fill="white" stroke="black" points="524,-108.5 524,-149.5 670,-149.5 670,-108.5 524,-108.5"/>
<text text-anchor="start" x="532" y="-137.5" font-family="Helvetica,sans-Serif" font-size="10.00">src.harness.reference</text>
<text text-anchor="start" x="532" y="-126.5" font-family="Helvetica,sans-Serif" font-size="10.00">_models.geo.nlcd.NlcdDriver.</text>
<text text-anchor="middle" x="597" y="-115.5" font-family="Helvetica,sans-Serif" font-size="10.00">_CacheLruUpdate</text>
</a>
</g>
</g>
<!-- Node3&#45;&gt;Node5 -->
<g id="edge4" class="edge"><title>Node3&#45;&gt;Node5</title>
<path fill="none" stroke="midnightblue" d="M488.176,-129C496.52,-129 505.077,-129 513.544,-129"/>
<polygon fill="midnightblue" stroke="midnightblue" points="513.808,-132.5 523.808,-129 513.808,-125.5 513.808,-132.5"/>
</g>
<!-- Node6&#45;&gt;Node4 -->
<g id="edge6" class="edge"><title>Node6&#45;&gt;Node4</title>
<path fill="none" stroke="midnightblue" d="M482.514,-71.2171C493.478,-71.5826 504.943,-71.9648 516.192,-72.3397"/>
<polygon fill="midnightblue" stroke="midnightblue" points="516.331,-75.8462 526.443,-72.6814 516.565,-68.8501 516.331,-75.8462"/>
</g>
<!-- Node6&#45;&gt;Node5 -->
<g id="edge7" class="edge"><title>Node6&#45;&gt;Node5</title>
<path fill="none" stroke="midnightblue" d="M477.694,-89.5647C492.864,-94.6214 509.229,-100.076 524.807,-105.269"/>
<polygon fill="midnightblue" stroke="midnightblue" points="523.793,-108.62 534.387,-108.462 526.007,-101.979 523.793,-108.62"/>
</g>
<!-- Node7 -->
<g id="node7" class="node"><title>Node7</title>
<g id="a_node7"><a xlink:href="../../d6/d6b/classsrc_1_1harness_1_1reference__models_1_1geo_1_1terrain_1_1TerrainDriver.html#a536f81cf23b5305bc51d275ab4cccb87" target="_top" xlink:title="src.harness.reference\l_models.geo.terrain.Terrain\lDriver._CacheLruUpdate">
<polygon fill="white" stroke="black" points="529.5,-0.5 529.5,-41.5 664.5,-41.5 664.5,-0.5 529.5,-0.5"/>
<text text-anchor="start" x="537.5" y="-29.5" font-family="Helvetica,sans-Serif" font-size="10.00">src.harness.reference</text>
<text text-anchor="start" x="537.5" y="-18.5" font-family="Helvetica,sans-Serif" font-size="10.00">_models.geo.terrain.Terrain</text>
<text text-anchor="middle" x="597" y="-7.5" font-family="Helvetica,sans-Serif" font-size="10.00">Driver._CacheLruUpdate</text>
</a>
</g>
</g>
<!-- Node6&#45;&gt;Node7 -->
<g id="edge8" class="edge"><title>Node6&#45;&gt;Node7</title>
<path fill="none" stroke="midnightblue" d="M482.514,-51.2629C494.604,-48.0388 507.303,-44.6526 519.65,-41.3599"/>
<polygon fill="midnightblue" stroke="midnightblue" points="520.699,-44.7028 529.459,-38.7442 518.895,-37.9391 520.699,-44.7028"/>
</g>
</g>
</svg>
