<?xml version="1.0" encoding="UTF-8" standalone="no"?>
<!DOCTYPE svg PUBLIC "-//W3C//DTD SVG 1.1//EN"
 "http://www.w3.org/Graphics/SVG/1.1/DTD/svg11.dtd">
<!-- Generated by graphviz version 2.38.0 (20140413.2041)
 -->
<!-- Title: src.harness.reference_models.geo.terrain.TerrainDriver._CacheLruUpdate Pages: 1 -->
<!--zoomable 110 -->
<svg id="main" version="1.1" xmlns="http://www.w3.org/2000/svg" xmlns:xlink="http://www.w3.org/1999/xlink" xml:space="preserve" onload="init(evt)">
<style type="text/css"><![CDATA[
.edge:hover path { stroke: red; }
.edge:hover polygon { stroke: red; fill: red; }
]]></style>
<script type="text/javascript"><![CDATA[
var edges = document.getElementsByTagName('g');
if (edges && edges.length) {
  for (var i=0;i<edges.length;i++) {
    if (edges[i].id.substr(0,4)=='edge') {
      edges[i].setAttribute('class','edge');
    }
  }
}
]]></script>
        <defs>
                <circle id="rim" cx="0" cy="0" r="7"/>
                <circle id="rim2" cx="0" cy="0" r="3.5"/>
                <g id="zoomPlus">
                        <use xlink:href="#rim" fill="#404040">
                                <set attributeName="fill" to="#808080" begin="zoomplus.mouseover" end="zoomplus.mouseout"/>
                        </use>
                        <path d="M-4,0h8M0,-4v8" fill="none" stroke="white" stroke-width="1.5" pointer-events="none"/>
                </g>
                <g id="zoomMin">
                        <use xlink:href="#rim" fill="#404040">
                                <set attributeName="fill" to="#808080" begin="zoomminus.mouseover" end="zoomminus.mouseout"/>
                        </use>
                        <path d="M-4,0h8" fill="none" stroke="white" stroke-width="1.5" pointer-events="none"/>
                </g>
                <g id="dirArrow">
                        <path fill="none" stroke="white" stroke-width="1.5" d="M0,-3.0v7 M-2.5,-0.5L0,-3.0L2.5,-0.5"/>
                </g>
               <g id="resetDef">
                       <use xlink:href="#rim2" fill="#404040">
                               <set attributeName="fill" to="#808080" begin="reset.mouseover" end="reset.mouseout"/>
                       </use>
               </g>
        </defs>

<script type="text/javascript">
var viewWidth = 677;
var viewHeight = 110;
var sectionId = 'dynsection-1';
</script>
<script xlink:href="../../svgpan.js"/>
<svg id="graph" class="graph">
<g id="viewport">
<title>src.harness.reference_models.geo.terrain.TerrainDriver._CacheLruUpdate</title>
<polygon fill="white" stroke="none" points="-4,4 -4,-106 673,-106 673,4 -4,4"/>
<!-- Node1 -->
<g id="node1" class="node"><title>Node1</title>
<polygon fill="#bfbfbf" stroke="black" points="0,-60.5 0,-101.5 135,-101.5 135,-60.5 0,-60.5"/>
<text text-anchor="start" x="8" y="-89.5" font-family="Helvetica,sans-Serif" font-size="10.00">src.harness.reference</text>
<text text-anchor="start" x="8" y="-78.5" font-family="Helvetica,sans-Serif" font-size="10.00">_models.geo.terrain.Terrain</text>
<text text-anchor="middle" x="67.5" y="-67.5" font-family="Helvetica,sans-Serif" font-size="10.00">Driver._CacheLruUpdate</text>
</g>
<!-- Node2 -->
<g id="node2" class="node"><title>Node2</title>
<g id="a_node2"><a xlink:href="../../d6/d6b/classsrc_1_1harness_1_1reference__models_1_1geo_1_1terrain_1_1TerrainDriver.html#afed4e9574b4802744592875621699199" target="_top" xlink:title="src.harness.reference\l_models.geo.terrain.Terrain\lDriver.GetTile">
<polygon fill="white" stroke="black" points="171,-60.5 171,-101.5 306,-101.5 306,-60.5 171,-60.5"/>
<text text-anchor="start" x="179" y="-89.5" font-family="Helvetica,sans-Serif" font-size="10.00">src.harness.reference</text>
<text text-anchor="start" x="179" y="-78.5" font-family="Helvetica,sans-Serif" font-size="10.00">_models.geo.terrain.Terrain</text>
<text text-anchor="middle" x="238.5" y="-67.5" font-family="Helvetica,sans-Serif" font-size="10.00">Driver.GetTile</text>
</a>
</g>
</g>
<!-- Node1&#45;&gt;Node2 -->
<g id="edge1" class="edge"><title>Node1&#45;&gt;Node2</title>
<path fill="none" stroke="midnightblue" d="M145.551,-81C154.019,-81 162.589,-81 170.915,-81"/>
<polygon fill="midnightblue" stroke="midnightblue" points="145.293,-77.5001 135.293,-81 145.293,-84.5001 145.293,-77.5001"/>
</g>
<!-- Node3 -->
<g id="node3" class="node"><title>Node3</title>
<g id="a_node3"><a xlink:href="../../d6/d6b/classsrc_1_1harness_1_1reference__models_1_1geo_1_1terrain_1_1TerrainDriver.html#a8d5f60a37aec4d3318fd0ef720c9c12c" target="_top" xlink:title="src.harness.reference\l_models.geo.terrain.Terrain\lDriver.GetTerrainElevation">
<polygon fill="white" stroke="black" points="342,-60.5 342,-101.5 477,-101.5 477,-60.5 342,-60.5"/>
<text text-anchor="start" x="350" y="-89.5" font-family="Helvetica,sans-Serif" font-size="10.00">src.harness.reference</text>
<text text-anchor="start" x="350" y="-78.5" font-family="Helvetica,sans-Serif" font-size="10.00">_models.geo.terrain.Terrain</text>
<text text-anchor="middle" x="409.5" y="-67.5" font-family="Helvetica,sans-Serif" font-size="10.00">Driver.GetTerrainElevation</text>
</a>
</g>
</g>
<!-- Node2&#45;&gt;Node3 -->
<g id="edge2" class="edge"><title>Node2&#45;&gt;Node3</title>
<path fill="none" stroke="midnightblue" d="M316.551,-81C325.019,-81 333.589,-81 341.915,-81"/>
<polygon fill="midnightblue" stroke="midnightblue" points="316.293,-77.5001 306.293,-81 316.293,-84.5001 316.293,-77.5001"/>
</g>
<!-- Node4 -->
<g id="node4" class="node"><title>Node4</title>
<g id="a_node4"><a xlink:href="../../d6/d6b/classsrc_1_1harness_1_1reference__models_1_1geo_1_1terrain_1_1TerrainDriver.html#a937db85ff8e17162dd624ad69cebe456" target="_top" xlink:title="src.harness.reference\l_models.geo.terrain.Terrain\lDriver.TerrainProfile">
<polygon fill="white" stroke="black" points="523.5,-60.5 523.5,-101.5 658.5,-101.5 658.5,-60.5 523.5,-60.5"/>
<text text-anchor="start" x="531.5" y="-89.5" font-family="Helvetica,sans-Serif" font-size="10.00">src.harness.reference</text>
<text text-anchor="start" x="531.5" y="-78.5" font-family="Helvetica,sans-Serif" font-size="10.00">_models.geo.terrain.Terrain</text>
<text text-anchor="middle" x="591" y="-67.5" font-family="Helvetica,sans-Serif" font-size="10.00">Driver.TerrainProfile</text>
</a>
</g>
</g>
<!-- Node3&#45;&gt;Node4 -->
<g id="edge3" class="edge"><title>Node3&#45;&gt;Node4</title>
<path fill="none" stroke="midnightblue" d="M487.086,-74.315C499.106,-74.1956 511.448,-74.2408 523.224,-74.4505"/>
<polygon fill="midnightblue" stroke="midnightblue" points="487.034,-70.8152 477.084,-74.454 487.132,-77.8146 487.034,-70.8152"/>
</g>
<!-- Node5 -->
<g id="node5" class="node"><title>Node5</title>
<g id="a_node5"><a xlink:href="../../d6/d6b/classsrc_1_1harness_1_1reference__models_1_1geo_1_1terrain_1_1TerrainDriver.html#aedbde9861afb8bcdee5a04e00b77bd22" target="_top" xlink:title="src.harness.reference\l_models.geo.terrain.Terrain\lDriver.ComputeNormalizedHaat">
<polygon fill="white" stroke="black" points="513,-0.5 513,-41.5 669,-41.5 669,-0.5 513,-0.5"/>
<text text-anchor="start" x="521" y="-29.5" font-family="Helvetica,sans-Serif" font-size="10.00">src.harness.reference</text>
<text text-anchor="start" x="521" y="-18.5" font-family="Helvetica,sans-Serif" font-size="10.00">_models.geo.terrain.Terrain</text>
<text text-anchor="middle" x="591" y="-7.5" font-family="Helvetica,sans-Serif" font-size="10.00">Driver.ComputeNormalizedHaat</text>
</a>
</g>
</g>
<!-- Node3&#45;&gt;Node5 -->
<g id="edge5" class="edge"><title>Node3&#45;&gt;Node5</title>
<path fill="none" stroke="midnightblue" d="M481.578,-57.2413C497.116,-52.0477 513.434,-46.5931 528.558,-41.5378"/>
<polygon fill="midnightblue" stroke="midnightblue" points="480.397,-53.9456 472.023,-60.4353 482.616,-60.5845 480.397,-53.9456"/>
</g>
<!-- Node4&#45;&gt;Node3 -->
<g id="edge4" class="edge"><title>Node4&#45;&gt;Node3</title>
<path fill="none" stroke="midnightblue" d="M513.218,-87.687C501.195,-87.8046 488.854,-87.7576 477.084,-87.546"/>
<polygon fill="midnightblue" stroke="midnightblue" points="513.273,-91.1866 523.224,-87.5495 513.177,-84.1873 513.273,-91.1866"/>
</g>
</g>
</svg>
        <g id="navigator" transform="translate(0 0)" fill="#404254">
                <rect fill="#f2f5e9" fill-opacity="0.5" stroke="#606060" stroke-width=".5" x="0" y="0" width="60" height="60"/>
                <use id="zoomplus" xlink:href="#zoomPlus" x="17" y="9" onmousedown="handleZoom(evt,'in')"/>
                <use id="zoomminus" xlink:href="#zoomMin" x="42" y="9" onmousedown="handleZoom(evt,'out')"/>
                <use id="reset" xlink:href="#resetDef" x="30" y="36" onmousedown="handleReset()"/>
                <g id="arrowUp" xlink:href="#dirArrow" transform="translate(30 24)" onmousedown="handlePan(0,-1)">
                  <use xlink:href="#rim" fill="#404040">
                        <set attributeName="fill" to="#808080" begin="arrowUp.mouseover" end="arrowUp.mouseout"/>
                  </use>
                  <path fill="none" stroke="white" stroke-width="1.5" d="M0,-3.0v7 M-2.5,-0.5L0,-3.0L2.5,-0.5"/>
                </g>
                <g id="arrowRight" xlink:href="#dirArrow" transform="rotate(90) translate(36 -43)" onmousedown="handlePan(1,0)">
                  <use xlink:href="#rim" fill="#404040">
                        <set attributeName="fill" to="#808080" begin="arrowRight.mouseover" end="arrowRight.mouseout"/>
                  </use>
                  <path fill="none" stroke="white" stroke-width="1.5" d="M0,-3.0v7 M-2.5,-0.5L0,-3.0L2.5,-0.5"/>
                </g>
                <g id="arrowDown" xlink:href="#dirArrow" transform="rotate(180) translate(-30 -48)" onmousedown="handlePan(0,1)">
                  <use xlink:href="#rim" fill="#404040">
                        <set attributeName="fill" to="#808080" begin="arrowDown.mouseover" end="arrowDown.mouseout"/>
                  </use>
                  <path fill="none" stroke="white" stroke-width="1.5" d="M0,-3.0v7 M-2.5,-0.5L0,-3.0L2.5,-0.5"/>
                </g>
                <g id="arrowLeft" xlink:href="#dirArrow" transform="rotate(270) translate(-36 17)" onmousedown="handlePan(-1,0)">
                  <use xlink:href="#rim" fill="#404040">
                        <set attributeName="fill" to="#808080" begin="arrowLeft.mouseover" end="arrowLeft.mouseout"/>
                  </use>
                  <path fill="none" stroke="white" stroke-width="1.5" d="M0,-3.0v7 M-2.5,-0.5L0,-3.0L2.5,-0.5"/>
                </g>
        </g>
        <svg viewBox="0 0 15 15" width="100%" height="30px" preserveAspectRatio="xMaxYMin meet">
         <g id="arrow_out" transform="scale(0.3 0.3)">
          <a xlink:href="classsrc_1_1harness_1_1reference__models_1_1geo_1_1terrain_1_1TerrainDriver_a536f81cf23b5305bc51d275ab4cccb87_icgraph_org.svg" target="_base">
           <rect id="button" ry="5" rx="5" y="6" x="6" height="38" width="38"
                fill="#f2f5e9" fill-opacity="0.5" stroke="#606060" stroke-width="1.0"/>
           <path id="arrow"
             d="M 11.500037,31.436501 C 11.940474,20.09759 22.043105,11.32322 32.158766,21.979434 L 37.068811,17.246167 C 37.068811,17.246167 37.088388,32 37.088388,32 L 22.160133,31.978069 C 22.160133,31.978069 26.997745,27.140456 26.997745,27.140456 C 18.528582,18.264221 13.291696,25.230495 11.500037,31.436501 z"
             style="fill:#404040;"/>
          </a>
         </g>
        </svg>
</svg>
