<?xml version="1.0" encoding="UTF-8" standalone="no"?>
<!DOCTYPE svg PUBLIC "-//W3C//DTD SVG 1.1//EN"
 "http://www.w3.org/Graphics/SVG/1.1/DTD/svg11.dtd">
<!-- Generated by graphviz version 2.38.0 (20140413.2041)
 -->
<!-- Title: src.harness.reference_models.geo.terrain.TerrainDriver.ComputeNormalizedHaat Pages: 1 -->
<svg width="699pt" height="170pt"
 viewBox="0.00 0.00 699.00 170.00" xmlns="http://www.w3.org/2000/svg" xmlns:xlink="http://www.w3.org/1999/xlink">
<g id="graph0" class="graph" transform="scale(1 1) rotate(0) translate(4 166)">
<title>src.harness.reference_models.geo.terrain.TerrainDriver.ComputeNormalizedHaat</title>
<polygon fill="white" stroke="none" points="-4,4 -4,-166 695,-166 695,4 -4,4"/>
<!-- Node1 -->
<g id="node1" class="node"><title>Node1</title>
<polygon fill="#bfbfbf" stroke="black" points="0,-30.5 0,-71.5 156,-71.5 156,-30.5 0,-30.5"/>
<text text-anchor="start" x="8" y="-59.5" font-family="Helvetica,sans-Serif" font-size="10.00">src.harness.reference</text>
<text text-anchor="start" x="8" y="-48.5" font-family="Helvetica,sans-Serif" font-size="10.00">_models.geo.terrain.Terrain</text>
<text text-anchor="middle" x="78" y="-37.5" font-family="Helvetica,sans-Serif" font-size="10.00">Driver.ComputeNormalizedHaat</text>
</g>
<!-- Node2 -->
<g id="node2" class="node"><title>Node2</title>
<g id="a_node2"><a xlink:href="../../d6/d6b/classsrc_1_1harness_1_1reference__models_1_1geo_1_1terrain_1_1TerrainDriver.html#a8d5f60a37aec4d3318fd0ef720c9c12c" target="_top" xlink:title="src.harness.reference\l_models.geo.terrain.Terrain\lDriver.GetTerrainElevation">
<polygon fill="white" stroke="black" points="192,-30.5 192,-71.5 327,-71.5 327,-30.5 192,-30.5"/>
<text text-anchor="start" x="200" y="-59.5" font-family="Helvetica,sans-Serif" font-size="10.00">src.harness.reference</text>
<text text-anchor="start" x="200" y="-48.5" font-family="Helvetica,sans-Serif" font-size="10.00">_models.geo.terrain.Terrain</text>
<text text-anchor="middle" x="259.5" y="-37.5" font-family="Helvetica,sans-Serif" font-size="10.00">Driver.GetTerrainElevation</text>
</a>
</g>
</g>
<!-- Node1&#45;&gt;Node2 -->
<g id="edge1" class="edge"><title>Node1&#45;&gt;Node2</title>
<path fill="none" stroke="midnightblue" d="M156.166,-51C164.61,-51 173.206,-51 181.646,-51"/>
<polygon fill="midnightblue" stroke="midnightblue" points="181.844,-54.5001 191.844,-51 181.844,-47.5001 181.844,-54.5001"/>
</g>
<!-- Node3 -->
<g id="node3" class="node"><title>Node3</title>
<g id="a_node3"><a xlink:href="../../dd/dda/classsrc_1_1harness_1_1reference__models_1_1geo_1_1nlcd_1_1NlcdDriver.html#adbd9c43c60ad71af55be4357eb307e67" target="_top" xlink:title="src.harness.reference\l_models.geo.nlcd.NlcdDriver.\lGetTile">
<polygon fill="white" stroke="black" points="363,-120.5 363,-161.5 509,-161.5 509,-120.5 363,-120.5"/>
<text text-anchor="start" x="371" y="-149.5" font-family="Helvetica,sans-Serif" font-size="10.00">src.harness.reference</text>
<text text-anchor="start" x="371" y="-138.5" font-family="Helvetica,sans-Serif" font-size="10.00">_models.geo.nlcd.NlcdDriver.</text>
<text text-anchor="middle" x="436" y="-127.5" font-family="Helvetica,sans-Serif" font-size="10.00">GetTile</text>
</a>
</g>
</g>
<!-- Node2&#45;&gt;Node3 -->
<g id="edge2" class="edge"><title>Node2&#45;&gt;Node3</title>
<path fill="none" stroke="midnightblue" d="M293.112,-71.6102C312.95,-83.7614 339.007,-99.0471 363,-111 366.513,-112.75 370.154,-114.489 373.848,-116.196"/>
<polygon fill="midnightblue" stroke="midnightblue" points="372.543,-119.447 383.099,-120.362 375.418,-113.064 372.543,-119.447"/>
</g>
<!-- Node6 -->
<g id="node6" class="node"><title>Node6</title>
<g id="a_node6"><a xlink:href="../../d6/d6b/classsrc_1_1harness_1_1reference__models_1_1geo_1_1terrain_1_1TerrainDriver.html#afed4e9574b4802744592875621699199" target="_top" xlink:title="src.harness.reference\l_models.geo.terrain.Terrain\lDriver.GetTile">
<polygon fill="white" stroke="black" points="368.5,-60.5 368.5,-101.5 503.5,-101.5 503.5,-60.5 368.5,-60.5"/>
<text text-anchor="start" x="376.5" y="-89.5" font-family="Helvetica,sans-Serif" font-size="10.00">src.harness.reference</text>
<text text-anchor="start" x="376.5" y="-78.5" font-family="Helvetica,sans-Serif" font-size="10.00">_models.geo.terrain.Terrain</text>
<text text-anchor="middle" x="436" y="-67.5" font-family="Helvetica,sans-Serif" font-size="10.00">Driver.GetTile</text>
</a>
</g>
</g>
<!-- Node2&#45;&gt;Node6 -->
<g id="edge5" class="edge"><title>Node2&#45;&gt;Node6</title>
<path fill="none" stroke="midnightblue" d="M327.467,-62.513C337.487,-64.2356 347.885,-66.0231 358.091,-67.7778"/>
<polygon fill="midnightblue" stroke="midnightblue" points="357.764,-71.2728 368.212,-69.5178 358.95,-64.374 357.764,-71.2728"/>
</g>
<!-- Node8 -->
<g id="node8" class="node"><title>Node8</title>
<g id="a_node8"><a xlink:href="../../d6/d6b/classsrc_1_1harness_1_1reference__models_1_1geo_1_1terrain_1_1TerrainDriver.html#a937db85ff8e17162dd624ad69cebe456" target="_top" xlink:title="src.harness.reference\l_models.geo.terrain.Terrain\lDriver.TerrainProfile">
<polygon fill="white" stroke="black" points="368.5,-0.5 368.5,-41.5 503.5,-41.5 503.5,-0.5 368.5,-0.5"/>
<text text-anchor="start" x="376.5" y="-29.5" font-family="Helvetica,sans-Serif" font-size="10.00">src.harness.reference</text>
<text text-anchor="start" x="376.5" y="-18.5" font-family="Helvetica,sans-Serif" font-size="10.00">_models.geo.terrain.Terrain</text>
<text text-anchor="middle" x="436" y="-7.5" font-family="Helvetica,sans-Serif" font-size="10.00">Driver.TerrainProfile</text>
</a>
</g>
</g>
<!-- Node2&#45;&gt;Node8 -->
<g id="edge9" class="edge"><title>Node2&#45;&gt;Node8</title>
<path fill="none" stroke="midnightblue" d="M327.467,-32.9018C337.487,-31.0137 347.885,-29.1853 358.091,-27.5145"/>
<polygon fill="midnightblue" stroke="midnightblue" points="358.888,-30.9317 368.212,-25.8999 357.785,-24.0191 358.888,-30.9317"/>
</g>
<!-- Node4 -->
<g id="node4" class="node"><title>Node4</title>
<g id="a_node4"><a xlink:href="../../d6/d2e/classnlcd__origin_1_1NlcdOriginDriver.html#a6b16760497d4025321f3a9c77ce2a52d" target="_top" xlink:title="nlcd_origin.NlcdOriginDriver.\l_CacheLruUpdate">
<polygon fill="white" stroke="black" points="547.5,-72 547.5,-102 688.5,-102 688.5,-72 547.5,-72"/>
<text text-anchor="start" x="555.5" y="-90" font-family="Helvetica,sans-Serif" font-size="10.00">nlcd_origin.NlcdOriginDriver.</text>
<text text-anchor="middle" x="618" y="-79" font-family="Helvetica,sans-Serif" font-size="10.00">_CacheLruUpdate</text>
</a>
</g>
</g>
<!-- Node3&#45;&gt;Node4 -->
<g id="edge3" class="edge"><title>Node3&#45;&gt;Node4</title>
<path fill="none" stroke="midnightblue" d="M505.564,-120.431C522.43,-115.371 540.363,-109.991 556.801,-105.06"/>
<polygon fill="midnightblue" stroke="midnightblue" points="558.247,-108.28 566.82,-102.054 556.236,-101.575 558.247,-108.28"/>
</g>
<!-- Node5 -->
<g id="node5" class="node"><title>Node5</title>
<g id="a_node5"><a xlink:href="../../dd/dda/classsrc_1_1harness_1_1reference__models_1_1geo_1_1nlcd_1_1NlcdDriver.html#ac0f09361ada4f43d02e87ddab5dde289" target="_top" xlink:title="src.harness.reference\l_models.geo.nlcd.NlcdDriver.\l_CacheLruUpdate">
<polygon fill="white" stroke="black" points="545,-120.5 545,-161.5 691,-161.5 691,-120.5 545,-120.5"/>
<text text-anchor="start" x="553" y="-149.5" font-family="Helvetica,sans-Serif" font-size="10.00">src.harness.reference</text>
<text text-anchor="start" x="553" y="-138.5" font-family="Helvetica,sans-Serif" font-size="10.00">_models.geo.nlcd.NlcdDriver.</text>
<text text-anchor="middle" x="618" y="-127.5" font-family="Helvetica,sans-Serif" font-size="10.00">_CacheLruUpdate</text>
</a>
</g>
</g>
<!-- Node3&#45;&gt;Node5 -->
<g id="edge4" class="edge"><title>Node3&#45;&gt;Node5</title>
<path fill="none" stroke="midnightblue" d="M509.176,-141C517.52,-141 526.077,-141 534.544,-141"/>
<polygon fill="midnightblue" stroke="midnightblue" points="534.808,-144.5 544.808,-141 534.808,-137.5 534.808,-144.5"/>
</g>
<!-- Node6&#45;&gt;Node4 -->
<g id="edge6" class="edge"><title>Node6&#45;&gt;Node4</title>
<path fill="none" stroke="midnightblue" d="M503.514,-83.2171C514.478,-83.5826 525.943,-83.9648 537.192,-84.3397"/>
<polygon fill="midnightblue" stroke="midnightblue" points="537.331,-87.8462 547.443,-84.6814 537.565,-80.8501 537.331,-87.8462"/>
</g>
<!-- Node6&#45;&gt;Node5 -->
<g id="edge7" class="edge"><title>Node6&#45;&gt;Node5</title>
<path fill="none" stroke="midnightblue" d="M498.694,-101.565C513.864,-106.621 530.229,-112.076 545.807,-117.269"/>
<polygon fill="midnightblue" stroke="midnightblue" points="544.793,-120.62 555.387,-120.462 547.007,-113.979 544.793,-120.62"/>
</g>
<!-- Node7 -->
<g id="node7" class="node"><title>Node7</title>
<g id="a_node7"><a xlink:href="../../d6/d6b/classsrc_1_1harness_1_1reference__models_1_1geo_1_1terrain_1_1TerrainDriver.html#a536f81cf23b5305bc51d275ab4cccb87" target="_top" xlink:title="src.harness.reference\l_models.geo.terrain.Terrain\lDriver._CacheLruUpdate">
<polygon fill="white" stroke="black" points="550.5,-12.5 550.5,-53.5 685.5,-53.5 685.5,-12.5 550.5,-12.5"/>
<text text-anchor="start" x="558.5" y="-41.5" font-family="Helvetica,sans-Serif" font-size="10.00">src.harness.reference</text>
<text text-anchor="start" x="558.5" y="-30.5" font-family="Helvetica,sans-Serif" font-size="10.00">_models.geo.terrain.Terrain</text>
<text text-anchor="middle" x="618" y="-19.5" font-family="Helvetica,sans-Serif" font-size="10.00">Driver._CacheLruUpdate</text>
</a>
</g>
</g>
<!-- Node6&#45;&gt;Node7 -->
<g id="edge8" class="edge"><title>Node6&#45;&gt;Node7</title>
<path fill="none" stroke="midnightblue" d="M503.514,-63.2629C515.604,-60.0388 528.303,-56.6526 540.65,-53.3599"/>
<polygon fill="midnightblue" stroke="midnightblue" points="541.699,-56.7028 550.459,-50.7442 539.895,-49.9391 541.699,-56.7028"/>
</g>
<!-- Node8&#45;&gt;Node2 -->
<g id="edge10" class="edge"><title>Node8&#45;&gt;Node2</title>
<path fill="none" stroke="midnightblue" d="M368.212,-39.0644C358.197,-40.9533 347.8,-42.7829 337.592,-44.4556"/>
<polygon fill="midnightblue" stroke="midnightblue" points="336.79,-41.0391 327.467,-46.0722 337.894,-47.9516 336.79,-41.0391"/>
</g>
</g>
</svg>
