<?xml version="1.0" encoding="UTF-8" standalone="no"?>
<!DOCTYPE svg PUBLIC "-//W3C//DTD SVG 1.1//EN"
 "http://www.w3.org/Graphics/SVG/1.1/DTD/svg11.dtd">
<!-- Generated by graphviz version 2.38.0 (20140413.2041)
 -->
<!-- Title: src.harness.sas_interface.SasTestcaseInterface.TriggerDailyActivitiesImmediatelyAndWaitUntilComplete Pages: 1 -->
<svg width="474pt" height="530pt"
 viewBox="0.00 0.00 474.00 530.00" xmlns="http://www.w3.org/2000/svg" xmlns:xlink="http://www.w3.org/1999/xlink">
<g id="graph0" class="graph" transform="scale(1 1) rotate(0) translate(4 526)">
<title>src.harness.sas_interface.SasTestcaseInterface.TriggerDailyActivitiesImmediatelyAndWaitUntilComplete</title>
<polygon fill="white" stroke="none" points="-4,4 -4,-526 470,-526 470,4 -4,4"/>
<!-- Node1 -->
<g id="node1" class="node"><title>Node1</title>
<polygon fill="#bfbfbf" stroke="black" points="0,-240.5 0,-281.5 210,-281.5 210,-240.5 0,-240.5"/>
<text text-anchor="start" x="8" y="-269.5" font-family="Helvetica,sans-Serif" font-size="10.00">src.harness.sas_interface.</text>
<text text-anchor="start" x="8" y="-258.5" font-family="Helvetica,sans-Serif" font-size="10.00">SasTestcaseInterface.TriggerDaily</text>
<text text-anchor="middle" x="105" y="-247.5" font-family="Helvetica,sans-Serif" font-size="10.00">ActivitiesImmediatelyAndWaitUntilComplete</text>
</g>
<!-- Node2 -->
<g id="node2" class="node"><title>Node2</title>
<g id="a_node2"><a xlink:href="../../de/d99/classsrc_1_1harness_1_1testcases_1_1grant__testcase_1_1GrantTestcaseUsingOldIds.html#a16dc4cd91b9b0e42ae63d2c247be3995" target="_top" xlink:title="src.harness.testcases.grant\l_testcase.GrantTestcaseUsingOld\lIds.test_WINNF_FT_S_GRA_15">
<polygon fill="white" stroke="black" points="272.5,-480.5 272.5,-521.5 439.5,-521.5 439.5,-480.5 272.5,-480.5"/>
<text text-anchor="start" x="280.5" y="-509.5" font-family="Helvetica,sans-Serif" font-size="10.00">src.harness.testcases.grant</text>
<text text-anchor="start" x="280.5" y="-498.5" font-family="Helvetica,sans-Serif" font-size="10.00">_testcase.GrantTestcaseUsingOld</text>
<text text-anchor="middle" x="356" y="-487.5" font-family="Helvetica,sans-Serif" font-size="10.00">Ids.test_WINNF_FT_S_GRA_15</text>
</a>
</g>
</g>
<!-- Node1&#45;&gt;Node2 -->
<g id="edge1" class="edge"><title>Node1&#45;&gt;Node2</title>
<path fill="none" stroke="midnightblue" d="M117.783,-290.983C137.36,-336.843 180.98,-424.021 246,-471 253.955,-476.747 262.96,-481.394 272.302,-485.151"/>
<polygon fill="midnightblue" stroke="midnightblue" points="120.943,-289.469 113.863,-281.587 114.483,-292.164 120.943,-289.469"/>
</g>
<!-- Node3 -->
<g id="node3" class="node"><title>Node3</title>
<g id="a_node3"><a xlink:href="../../de/d99/classsrc_1_1harness_1_1testcases_1_1grant__testcase_1_1GrantTestcaseUsingOldIds.html#aeb64c8f939edb9894f97553ec90845e1" target="_top" xlink:title="src.harness.testcases.grant\l_testcase.GrantTestcaseUsingOld\lIds.test_WINNF_FT_S_GRA_18">
<polygon fill="white" stroke="black" points="272.5,-420.5 272.5,-461.5 439.5,-461.5 439.5,-420.5 272.5,-420.5"/>
<text text-anchor="start" x="280.5" y="-449.5" font-family="Helvetica,sans-Serif" font-size="10.00">src.harness.testcases.grant</text>
<text text-anchor="start" x="280.5" y="-438.5" font-family="Helvetica,sans-Serif" font-size="10.00">_testcase.GrantTestcaseUsingOld</text>
<text text-anchor="middle" x="356" y="-427.5" font-family="Helvetica,sans-Serif" font-size="10.00">Ids.test_WINNF_FT_S_GRA_18</text>
</a>
</g>
</g>
<!-- Node1&#45;&gt;Node3 -->
<g id="edge2" class="edge"><title>Node1&#45;&gt;Node3</title>
<path fill="none" stroke="midnightblue" d="M125.515,-290.177C149.788,-324.204 194.385,-379.763 246,-411 254.144,-415.929 263.114,-420.067 272.306,-423.536"/>
<polygon fill="midnightblue" stroke="midnightblue" points="128.111,-287.783 119.504,-281.604 122.379,-291.801 128.111,-287.783"/>
</g>
<!-- Node4 -->
<g id="node4" class="node"><title>Node4</title>
<g id="a_node4"><a xlink:href="../../de/d99/classsrc_1_1harness_1_1testcases_1_1grant__testcase_1_1GrantTestcaseUsingOldIds.html#a748b120d69d64407e2b10d5aac28205e" target="_top" xlink:title="src.harness.testcases.grant\l_testcase.GrantTestcaseUsingOld\lIds.test_WINNF_FT_S_GRA_25">
<polygon fill="white" stroke="black" points="272.5,-360.5 272.5,-401.5 439.5,-401.5 439.5,-360.5 272.5,-360.5"/>
<text text-anchor="start" x="280.5" y="-389.5" font-family="Helvetica,sans-Serif" font-size="10.00">src.harness.testcases.grant</text>
<text text-anchor="start" x="280.5" y="-378.5" font-family="Helvetica,sans-Serif" font-size="10.00">_testcase.GrantTestcaseUsingOld</text>
<text text-anchor="middle" x="356" y="-367.5" font-family="Helvetica,sans-Serif" font-size="10.00">Ids.test_WINNF_FT_S_GRA_25</text>
</a>
</g>
</g>
<!-- Node1&#45;&gt;Node4 -->
<g id="edge3" class="edge"><title>Node1&#45;&gt;Node4</title>
<path fill="none" stroke="midnightblue" d="M140.56,-287.453C167.91,-307.313 207.743,-333.918 246,-351 254.334,-354.721 263.236,-358.08 272.226,-361.086"/>
<polygon fill="midnightblue" stroke="midnightblue" points="142.619,-284.623 132.488,-281.524 138.475,-290.265 142.619,-284.623"/>
</g>
<!-- Node5 -->
<g id="node5" class="node"><title>Node5</title>
<g id="a_node5"><a xlink:href="../../d7/d0d/classsrc_1_1harness_1_1testcases_1_1spectrum__inquiry__testcase_1_1SpectrumInquiryTestcaseUsingOldIds.html#a8729d4265873dbda89ebfaa774208e8b" target="_top" xlink:title="src.harness.testcases.spectrum\l_inquiry_testcase.SpectrumInquiryTestcase\lUsingOldIds.test_WINNF_FT_S_SIQ_17">
<polygon fill="white" stroke="black" points="252,-300.5 252,-341.5 460,-341.5 460,-300.5 252,-300.5"/>
<text text-anchor="start" x="260" y="-329.5" font-family="Helvetica,sans-Serif" font-size="10.00">src.harness.testcases.spectrum</text>
<text text-anchor="start" x="260" y="-318.5" font-family="Helvetica,sans-Serif" font-size="10.00">_inquiry_testcase.SpectrumInquiryTestcase</text>
<text text-anchor="middle" x="356" y="-307.5" font-family="Helvetica,sans-Serif" font-size="10.00">UsingOldIds.test_WINNF_FT_S_SIQ_17</text>
</a>
</g>
</g>
<!-- Node1&#45;&gt;Node5 -->
<g id="edge4" class="edge"><title>Node1&#45;&gt;Node5</title>
<path fill="none" stroke="midnightblue" d="M201.253,-283.952C223.798,-289.385 247.7,-295.145 269.768,-300.462"/>
<polygon fill="midnightblue" stroke="midnightblue" points="201.885,-280.505 191.343,-281.565 200.245,-287.31 201.885,-280.505"/>
</g>
<!-- Node6 -->
<g id="node6" class="node"><title>Node6</title>
<g id="a_node6"><a xlink:href="../../d7/d0d/classsrc_1_1harness_1_1testcases_1_1spectrum__inquiry__testcase_1_1SpectrumInquiryTestcaseUsingOldIds.html#a4d93b45aec221f12006529ba14a14bfe" target="_top" xlink:title="src.harness.testcases.spectrum\l_inquiry_testcase.SpectrumInquiryTestcase\lUsingOldIds.test_WINNF_FT_S_SIQ_18">
<polygon fill="white" stroke="black" points="252,-240.5 252,-281.5 460,-281.5 460,-240.5 252,-240.5"/>
<text text-anchor="start" x="260" y="-269.5" font-family="Helvetica,sans-Serif" font-size="10.00">src.harness.testcases.spectrum</text>
<text text-anchor="start" x="260" y="-258.5" font-family="Helvetica,sans-Serif" font-size="10.00">_inquiry_testcase.SpectrumInquiryTestcase</text>
<text text-anchor="middle" x="356" y="-247.5" font-family="Helvetica,sans-Serif" font-size="10.00">UsingOldIds.test_WINNF_FT_S_SIQ_18</text>
</a>
</g>
</g>
<!-- Node1&#45;&gt;Node6 -->
<g id="edge5" class="edge"><title>Node1&#45;&gt;Node6</title>
<path fill="none" stroke="midnightblue" d="M220.179,-261C230.674,-261 241.269,-261 251.66,-261"/>
<polygon fill="midnightblue" stroke="midnightblue" points="220.156,-257.5 210.156,-261 220.156,-264.5 220.156,-257.5"/>
</g>
<!-- Node7 -->
<g id="node7" class="node"><title>Node7</title>
<g id="a_node7"><a xlink:href="../../d5/de0/classsrc_1_1harness_1_1testcases_1_1WINNF__FT__S__GRA__testcase_1_1GrantTestcase.html#a21141affece7458af2b68c5d9a62cfa9" target="_top" xlink:title="src.harness.testcases.WINNF\l_FT_S_GRA_testcase.GrantTestcase.test\l_WINNF_FT_S_GRA_9">
<polygon fill="white" stroke="black" points="254.5,-180.5 254.5,-221.5 457.5,-221.5 457.5,-180.5 254.5,-180.5"/>
<text text-anchor="start" x="262.5" y="-209.5" font-family="Helvetica,sans-Serif" font-size="10.00">src.harness.testcases.WINNF</text>
<text text-anchor="start" x="262.5" y="-198.5" font-family="Helvetica,sans-Serif" font-size="10.00">_FT_S_GRA_testcase.GrantTestcase.test</text>
<text text-anchor="middle" x="356" y="-187.5" font-family="Helvetica,sans-Serif" font-size="10.00">_WINNF_FT_S_GRA_9</text>
</a>
</g>
</g>
<!-- Node1&#45;&gt;Node7 -->
<g id="edge6" class="edge"><title>Node1&#45;&gt;Node7</title>
<path fill="none" stroke="midnightblue" d="M201.253,-238.048C223.798,-232.615 247.7,-226.855 269.768,-221.538"/>
<polygon fill="midnightblue" stroke="midnightblue" points="200.245,-234.69 191.343,-240.435 201.885,-241.495 200.245,-234.69"/>
</g>
<!-- Node8 -->
<g id="node8" class="node"><title>Node8</title>
<g id="a_node8"><a xlink:href="../../d5/d7b/classsrc_1_1harness_1_1testcases_1_1WINNF__FT__S__HBT__testcase_1_1HeartbeatTestcase.html#af9e853e93ac2fc611be0f8d9dbcbf647" target="_top" xlink:title="src.harness.testcases.WINNF\l_FT_S_HBT_testcase.HeartbeatTestcase.test\l_WINNF_FT_S_HBT_9">
<polygon fill="white" stroke="black" points="246,-120.5 246,-161.5 466,-161.5 466,-120.5 246,-120.5"/>
<text text-anchor="start" x="254" y="-149.5" font-family="Helvetica,sans-Serif" font-size="10.00">src.harness.testcases.WINNF</text>
<text text-anchor="start" x="254" y="-138.5" font-family="Helvetica,sans-Serif" font-size="10.00">_FT_S_HBT_testcase.HeartbeatTestcase.test</text>
<text text-anchor="middle" x="356" y="-127.5" font-family="Helvetica,sans-Serif" font-size="10.00">_WINNF_FT_S_HBT_9</text>
</a>
</g>
</g>
<!-- Node1&#45;&gt;Node8 -->
<g id="edge7" class="edge"><title>Node1&#45;&gt;Node8</title>
<path fill="none" stroke="midnightblue" d="M140.56,-234.547C167.91,-214.687 207.743,-188.082 246,-171 253.796,-167.519 262.09,-164.355 270.487,-161.5"/>
<polygon fill="midnightblue" stroke="midnightblue" points="138.475,-231.735 132.488,-240.476 142.619,-237.377 138.475,-231.735"/>
</g>
<!-- Node9 -->
<g id="node9" class="node"><title>Node9</title>
<g id="a_node9"><a xlink:href="../../dd/df3/classsrc_1_1harness_1_1testcases_1_1WINNF__FT__S__SIQ__testcase_1_1SpectrumInquiryTestcase.html#af164604ec7d8713b9c171c379df8c97b" target="_top" xlink:title="src.harness.testcases.WINNF\l_FT_S_SIQ_testcase.SpectrumInquiry\lTestcase.test_WINNF_FT_S_SIQ_2">
<polygon fill="white" stroke="black" points="263.5,-60.5 263.5,-101.5 448.5,-101.5 448.5,-60.5 263.5,-60.5"/>
<text text-anchor="start" x="271.5" y="-89.5" font-family="Helvetica,sans-Serif" font-size="10.00">src.harness.testcases.WINNF</text>
<text text-anchor="start" x="271.5" y="-78.5" font-family="Helvetica,sans-Serif" font-size="10.00">_FT_S_SIQ_testcase.SpectrumInquiry</text>
<text text-anchor="middle" x="356" y="-67.5" font-family="Helvetica,sans-Serif" font-size="10.00">Testcase.test_WINNF_FT_S_SIQ_2</text>
</a>
</g>
</g>
<!-- Node1&#45;&gt;Node9 -->
<g id="edge8" class="edge"><title>Node1&#45;&gt;Node9</title>
<path fill="none" stroke="midnightblue" d="M125.515,-231.823C149.788,-197.796 194.385,-142.237 246,-111 251.877,-107.443 258.185,-104.298 264.695,-101.519"/>
<polygon fill="midnightblue" stroke="midnightblue" points="122.379,-230.199 119.504,-240.396 128.111,-234.217 122.379,-230.199"/>
</g>
<!-- Node10 -->
<g id="node10" class="node"><title>Node10</title>
<g id="a_node10"><a xlink:href="../../dd/df3/classsrc_1_1harness_1_1testcases_1_1WINNF__FT__S__SIQ__testcase_1_1SpectrumInquiryTestcase.html#ae08c82f207c20e034a68e51a3096a8a4" target="_top" xlink:title="src.harness.testcases.WINNF\l_FT_S_SIQ_testcase.SpectrumInquiry\lTestcase.test_WINNF_FT_S_SIQ_5">
<polygon fill="white" stroke="black" points="263.5,-0.5 263.5,-41.5 448.5,-41.5 448.5,-0.5 263.5,-0.5"/>
<text text-anchor="start" x="271.5" y="-29.5" font-family="Helvetica,sans-Serif" font-size="10.00">src.harness.testcases.WINNF</text>
<text text-anchor="start" x="271.5" y="-18.5" font-family="Helvetica,sans-Serif" font-size="10.00">_FT_S_SIQ_testcase.SpectrumInquiry</text>
<text text-anchor="middle" x="356" y="-7.5" font-family="Helvetica,sans-Serif" font-size="10.00">Testcase.test_WINNF_FT_S_SIQ_5</text>
</a>
</g>
</g>
<!-- Node1&#45;&gt;Node10 -->
<g id="edge9" class="edge"><title>Node1&#45;&gt;Node10</title>
<path fill="none" stroke="midnightblue" d="M117.783,-231.017C137.36,-185.157 180.98,-97.9785 246,-51 251.409,-47.0918 257.304,-43.6925 263.46,-40.7359"/>
<polygon fill="midnightblue" stroke="midnightblue" points="114.483,-229.836 113.863,-240.413 120.943,-232.531 114.483,-229.836"/>
</g>
</g>
</svg>
