<?xml version="1.0" encoding="UTF-8" standalone="no"?>
<!DOCTYPE svg PUBLIC "-//W3C//DTD SVG 1.1//EN"
 "http://www.w3.org/Graphics/SVG/1.1/DTD/svg11.dtd">
<!-- Generated by graphviz version 2.38.0 (20140413.2041)
 -->
<!-- Title: src.harness.sas_interface.SasTestcaseInterface.assertRegisteredAndGranted Pages: 1 -->
<!--zoomable 1358 -->
<svg id="main" version="1.1" xmlns="http://www.w3.org/2000/svg" xmlns:xlink="http://www.w3.org/1999/xlink" xml:space="preserve" onload="init(evt)">
<style type="text/css"><![CDATA[
.edge:hover path { stroke: red; }
.edge:hover polygon { stroke: red; fill: red; }
]]></style>
<script type="text/javascript"><![CDATA[
var edges = document.getElementsByTagName('g');
if (edges && edges.length) {
  for (var i=0;i<edges.length;i++) {
    if (edges[i].id.substr(0,4)=='edge') {
      edges[i].setAttribute('class','edge');
    }
  }
}
]]></script>
        <defs>
                <circle id="rim" cx="0" cy="0" r="7"/>
                <circle id="rim2" cx="0" cy="0" r="3.5"/>
                <g id="zoomPlus">
                        <use xlink:href="#rim" fill="#404040">
                                <set attributeName="fill" to="#808080" begin="zoomplus.mouseover" end="zoomplus.mouseout"/>
                        </use>
                        <path d="M-4,0h8M0,-4v8" fill="none" stroke="white" stroke-width="1.5" pointer-events="none"/>
                </g>
                <g id="zoomMin">
                        <use xlink:href="#rim" fill="#404040">
                                <set attributeName="fill" to="#808080" begin="zoomminus.mouseover" end="zoomminus.mouseout"/>
                        </use>
                        <path d="M-4,0h8" fill="none" stroke="white" stroke-width="1.5" pointer-events="none"/>
                </g>
                <g id="dirArrow">
                        <path fill="none" stroke="white" stroke-width="1.5" d="M0,-3.0v7 M-2.5,-0.5L0,-3.0L2.5,-0.5"/>
                </g>
               <g id="resetDef">
                       <use xlink:href="#rim2" fill="#404040">
                               <set attributeName="fill" to="#808080" begin="reset.mouseover" end="reset.mouseout"/>
                       </use>
               </g>
        </defs>

<script type="text/javascript">
var viewWidth = 1143;
var viewHeight = 1358;
var sectionId = 'dynsection-4';
</script>
<script xlink:href="../../svgpan.js"/>
<svg id="graph" class="graph">
<g id="viewport">
<title>src.harness.sas_interface.SasTestcaseInterface.assertRegisteredAndGranted</title>
<polygon fill="white" stroke="none" points="-4,4 -4,-1354 1139,-1354 1139,4 -4,4"/>
<!-- Node1 -->
<g id="node1" class="node"><title>Node1</title>
<polygon fill="#bfbfbf" stroke="black" points="0,-480.5 0,-521.5 190,-521.5 190,-480.5 0,-480.5"/>
<text text-anchor="start" x="8" y="-509.5" font-family="Helvetica,sans-Serif" font-size="10.00">src.harness.sas_interface.</text>
<text text-anchor="start" x="8" y="-498.5" font-family="Helvetica,sans-Serif" font-size="10.00">SasTestcaseInterface.assertRegistered</text>
<text text-anchor="middle" x="95" y="-487.5" font-family="Helvetica,sans-Serif" font-size="10.00">AndGranted</text>
</g>
<!-- Node2 -->
<g id="node2" class="node"><title>Node2</title>
<g id="a_node2"><a xlink:href="../../df/ded/classsrc_1_1harness_1_1sas__interface_1_1SasTestcaseInterface.html#ae5fdeb19b3235937e0fe9b447297f7ec" target="_top" xlink:title="src.harness.sas_interface.\lSasTestcaseInterface.assertRegistered">
<polygon fill="white" stroke="black" points="226,-486 226,-516 416,-516 416,-486 226,-486"/>
<text text-anchor="start" x="234" y="-504" font-family="Helvetica,sans-Serif" font-size="10.00">src.harness.sas_interface.</text>
<text text-anchor="middle" x="321" y="-493" font-family="Helvetica,sans-Serif" font-size="10.00">SasTestcaseInterface.assertRegistered</text>
</a>
</g>
</g>
<!-- Node1&#45;&gt;Node2 -->
<g id="edge1" class="edge"><title>Node1&#45;&gt;Node2</title>
<path fill="none" stroke="midnightblue" d="M200.077,-501C208.676,-501 217.338,-501 225.859,-501"/>
<polygon fill="midnightblue" stroke="midnightblue" points="200.023,-497.5 190.023,-501 200.023,-504.5 200.023,-497.5"/>
</g>
<!-- Node3 -->
<g id="node3" class="node"><title>Node3</title>
<g id="a_node3"><a xlink:href="../../df/ded/classsrc_1_1harness_1_1sas__interface_1_1SasTestcaseInterface.html#a30381223329eaa6c5394735a2ef90901" target="_top" xlink:title="src.harness.sas_interface.\lSasTestcaseInterface.assertValid\lResponseFormatForApprovedGrant">
<polygon fill="white" stroke="black" points="476.5,-1158.5 476.5,-1199.5 647.5,-1199.5 647.5,-1158.5 476.5,-1158.5"/>
<text text-anchor="start" x="484.5" y="-1187.5" font-family="Helvetica,sans-Serif" font-size="10.00">src.harness.sas_interface.</text>
<text text-anchor="start" x="484.5" y="-1176.5" font-family="Helvetica,sans-Serif" font-size="10.00">SasTestcaseInterface.assertValid</text>
<text text-anchor="middle" x="562" y="-1165.5" font-family="Helvetica,sans-Serif" font-size="10.00">ResponseFormatForApprovedGrant</text>
</a>
</g>
</g>
<!-- Node2&#45;&gt;Node3 -->
<g id="edge2" class="edge"><title>Node2&#45;&gt;Node3</title>
<path fill="none" stroke="midnightblue" d="M321.263,-526.556C319.944,-614.357 325.674,-908.825 452,-1101 468.233,-1125.69 495.186,-1145.08 518.227,-1158.35"/>
<polygon fill="midnightblue" stroke="midnightblue" points="324.765,-526.515 321.462,-516.448 317.766,-526.377 324.765,-526.515"/>
</g>
<!-- Node7 -->
<g id="node7" class="node"><title>Node7</title>
<g id="a_node7"><a xlink:href="../../de/d99/classsrc_1_1harness_1_1testcases_1_1grant__testcase_1_1GrantTestcaseUsingOldIds.html#a748b120d69d64407e2b10d5aac28205e" target="_top" xlink:title="src.harness.testcases.grant\l_testcase.GrantTestcaseUsingOld\lIds.test_WINNF_FT_S_GRA_25">
<polygon fill="white" stroke="black" points="733.5,-1068.5 733.5,-1109.5 900.5,-1109.5 900.5,-1068.5 733.5,-1068.5"/>
<text text-anchor="start" x="741.5" y="-1097.5" font-family="Helvetica,sans-Serif" font-size="10.00">src.harness.testcases.grant</text>
<text text-anchor="start" x="741.5" y="-1086.5" font-family="Helvetica,sans-Serif" font-size="10.00">_testcase.GrantTestcaseUsingOld</text>
<text text-anchor="middle" x="817" y="-1075.5" font-family="Helvetica,sans-Serif" font-size="10.00">Ids.test_WINNF_FT_S_GRA_25</text>
</a>
</g>
</g>
<!-- Node2&#45;&gt;Node7 -->
<g id="edge22" class="edge"><title>Node2&#45;&gt;Node7</title>
<path fill="none" stroke="midnightblue" d="M325.658,-526.214C338.995,-614.899 387.624,-910.733 452,-978 525.545,-1054.85 650.554,-1078.94 733.207,-1086.24"/>
<polygon fill="midnightblue" stroke="midnightblue" points="329.106,-525.607 324.175,-516.23 322.182,-526.635 329.106,-525.607"/>
</g>
<!-- Node9 -->
<g id="node9" class="node"><title>Node9</title>
<g id="a_node9"><a xlink:href="../../df/dc5/classsrc_1_1harness_1_1sas__testcase_1_1SasTestCase.html#a870278c04283b472528a33ba80519c67" target="_top" xlink:title="src.harness.sas_testcase.\lSasTestCase.assertRegisteredAnd\lGranted">
<polygon fill="white" stroke="black" points="476.5,-927.5 476.5,-968.5 647.5,-968.5 647.5,-927.5 476.5,-927.5"/>
<text text-anchor="start" x="484.5" y="-956.5" font-family="Helvetica,sans-Serif" font-size="10.00">src.harness.sas_testcase.</text>
<text text-anchor="start" x="484.5" y="-945.5" font-family="Helvetica,sans-Serif" font-size="10.00">SasTestCase.assertRegisteredAnd</text>
<text text-anchor="middle" x="562" y="-934.5" font-family="Helvetica,sans-Serif" font-size="10.00">Granted</text>
</a>
</g>
</g>
<!-- Node2&#45;&gt;Node9 -->
<g id="edge8" class="edge"><title>Node2&#45;&gt;Node9</title>
<path fill="none" stroke="midnightblue" d="M328.378,-526.018C343.671,-583.191 386.119,-726.532 452,-831 475.842,-868.806 512.807,-905.335 536.959,-927.241"/>
<polygon fill="midnightblue" stroke="midnightblue" points="331.69,-524.851 325.761,-516.071 324.921,-526.633 331.69,-524.851"/>
</g>
<!-- Node12 -->
<g id="node12" class="node"><title>Node12</title>
<g id="a_node12"><a xlink:href="../../db/df9/classsrc_1_1harness_1_1security__testcase_1_1SecurityTestCase.html#ae4503f0701e9fa5758f44cd21f8160f5" target="_top" xlink:title="src.harness.security\l_testcase.SecurityTestCase.do\lTestCipher">
<polygon fill="white" stroke="black" points="484.5,-780.5 484.5,-821.5 639.5,-821.5 639.5,-780.5 484.5,-780.5"/>
<text text-anchor="start" x="492.5" y="-809.5" font-family="Helvetica,sans-Serif" font-size="10.00">src.harness.security</text>
<text text-anchor="start" x="492.5" y="-798.5" font-family="Helvetica,sans-Serif" font-size="10.00">_testcase.SecurityTestCase.do</text>
<text text-anchor="middle" x="562" y="-787.5" font-family="Helvetica,sans-Serif" font-size="10.00">TestCipher</text>
</a>
</g>
</g>
<!-- Node2&#45;&gt;Node12 -->
<g id="edge11" class="edge"><title>Node2&#45;&gt;Node12</title>
<path fill="none" stroke="midnightblue" d="M326.838,-526.242C338.439,-579.749 372.957,-705.052 452,-771 461.419,-778.859 472.736,-784.668 484.463,-788.961"/>
<polygon fill="midnightblue" stroke="midnightblue" points="330.223,-525.327 324.76,-516.249 323.369,-526.752 330.223,-525.327"/>
</g>
<!-- Node23 -->
<g id="node23" class="node"><title>Node23</title>
<g id="a_node23"><a xlink:href="../../d5/de0/classsrc_1_1harness_1_1testcases_1_1WINNF__FT__S__GRA__testcase_1_1GrantTestcase.html#abca2e5f6b50a692b6860fb0a3be2dfe5" target="_top" xlink:title="src.harness.testcases.WINNF\l_FT_S_GRA_testcase.GrantTestcase.test\l_WINNF_FT_S_GRA_1">
<polygon fill="white" stroke="black" points="460.5,-720.5 460.5,-761.5 663.5,-761.5 663.5,-720.5 460.5,-720.5"/>
<text text-anchor="start" x="468.5" y="-749.5" font-family="Helvetica,sans-Serif" font-size="10.00">src.harness.testcases.WINNF</text>
<text text-anchor="start" x="468.5" y="-738.5" font-family="Helvetica,sans-Serif" font-size="10.00">_FT_S_GRA_testcase.GrantTestcase.test</text>
<text text-anchor="middle" x="562" y="-727.5" font-family="Helvetica,sans-Serif" font-size="10.00">_WINNF_FT_S_GRA_1</text>
</a>
</g>
</g>
<!-- Node2&#45;&gt;Node23 -->
<g id="edge23" class="edge"><title>Node2&#45;&gt;Node23</title>
<path fill="none" stroke="midnightblue" d="M330.398,-525.77C346.655,-569.911 386.692,-662.118 452,-711 456.714,-714.528 461.82,-717.642 467.161,-720.389"/>
<polygon fill="midnightblue" stroke="midnightblue" points="333.611,-524.362 326.945,-516.127 327.021,-526.722 333.611,-524.362"/>
</g>
<!-- Node24 -->
<g id="node24" class="node"><title>Node24</title>
<g id="a_node24"><a xlink:href="../../d5/de0/classsrc_1_1harness_1_1testcases_1_1WINNF__FT__S__GRA__testcase_1_1GrantTestcase.html#a2b09aed06fe88e98679f8d547fa5d193" target="_top" xlink:title="src.harness.testcases.WINNF\l_FT_S_GRA_testcase.GrantTestcase.test\l_WINNF_FT_S_GRA_8">
<polygon fill="white" stroke="black" points="460.5,-660.5 460.5,-701.5 663.5,-701.5 663.5,-660.5 460.5,-660.5"/>
<text text-anchor="start" x="468.5" y="-689.5" font-family="Helvetica,sans-Serif" font-size="10.00">src.harness.testcases.WINNF</text>
<text text-anchor="start" x="468.5" y="-678.5" font-family="Helvetica,sans-Serif" font-size="10.00">_FT_S_GRA_testcase.GrantTestcase.test</text>
<text text-anchor="middle" x="562" y="-667.5" font-family="Helvetica,sans-Serif" font-size="10.00">_WINNF_FT_S_GRA_8</text>
</a>
</g>
</g>
<!-- Node2&#45;&gt;Node24 -->
<g id="edge24" class="edge"><title>Node2&#45;&gt;Node24</title>
<path fill="none" stroke="midnightblue" d="M336.315,-525.041C357.417,-558.38 400.045,-618.235 452,-651 457.645,-654.56 463.712,-657.703 469.992,-660.478"/>
<polygon fill="midnightblue" stroke="midnightblue" points="339.191,-523.037 330.944,-516.386 333.243,-526.728 339.191,-523.037"/>
</g>
<!-- Node25 -->
<g id="node25" class="node"><title>Node25</title>
<g id="a_node25"><a xlink:href="../../d5/de0/classsrc_1_1harness_1_1testcases_1_1WINNF__FT__S__GRA__testcase_1_1GrantTestcase.html#a21141affece7458af2b68c5d9a62cfa9" target="_top" xlink:title="src.harness.testcases.WINNF\l_FT_S_GRA_testcase.GrantTestcase.test\l_WINNF_FT_S_GRA_9">
<polygon fill="white" stroke="black" points="460.5,-600.5 460.5,-641.5 663.5,-641.5 663.5,-600.5 460.5,-600.5"/>
<text text-anchor="start" x="468.5" y="-629.5" font-family="Helvetica,sans-Serif" font-size="10.00">src.harness.testcases.WINNF</text>
<text text-anchor="start" x="468.5" y="-618.5" font-family="Helvetica,sans-Serif" font-size="10.00">_FT_S_GRA_testcase.GrantTestcase.test</text>
<text text-anchor="middle" x="562" y="-607.5" font-family="Helvetica,sans-Serif" font-size="10.00">_WINNF_FT_S_GRA_9</text>
</a>
</g>
</g>
<!-- Node2&#45;&gt;Node25 -->
<g id="edge25" class="edge"><title>Node2&#45;&gt;Node25</title>
<path fill="none" stroke="midnightblue" d="M347.661,-522.697C372.79,-542.955 412.898,-572.732 452,-591 459.469,-594.489 467.42,-597.641 475.496,-600.472"/>
<polygon fill="midnightblue" stroke="midnightblue" points="349.695,-519.839 339.737,-516.222 345.266,-525.259 349.695,-519.839"/>
</g>
<!-- Node26 -->
<g id="node26" class="node"><title>Node26</title>
<g id="a_node26"><a xlink:href="../../d5/de0/classsrc_1_1harness_1_1testcases_1_1WINNF__FT__S__GRA__testcase_1_1GrantTestcase.html#aea1b5b02b16c21167a6fc3ac207fa1a6" target="_top" xlink:title="src.harness.testcases.WINNF\l_FT_S_GRA_testcase.GrantTestcase.test\l_WINNF_FT_S_GRA_10">
<polygon fill="white" stroke="black" points="460.5,-540.5 460.5,-581.5 663.5,-581.5 663.5,-540.5 460.5,-540.5"/>
<text text-anchor="start" x="468.5" y="-569.5" font-family="Helvetica,sans-Serif" font-size="10.00">src.harness.testcases.WINNF</text>
<text text-anchor="start" x="468.5" y="-558.5" font-family="Helvetica,sans-Serif" font-size="10.00">_FT_S_GRA_testcase.GrantTestcase.test</text>
<text text-anchor="middle" x="562" y="-547.5" font-family="Helvetica,sans-Serif" font-size="10.00">_WINNF_FT_S_GRA_10</text>
</a>
</g>
</g>
<!-- Node2&#45;&gt;Node26 -->
<g id="edge26" class="edge"><title>Node2&#45;&gt;Node26</title>
<path fill="none" stroke="midnightblue" d="M391.884,-518.544C419.265,-525.418 450.871,-533.352 479.296,-540.489"/>
<polygon fill="midnightblue" stroke="midnightblue" points="392.553,-515.103 382.001,-516.063 390.848,-521.893 392.553,-515.103"/>
</g>
<!-- Node27 -->
<g id="node27" class="node"><title>Node27</title>
<g id="a_node27"><a xlink:href="../../d5/de0/classsrc_1_1harness_1_1testcases_1_1WINNF__FT__S__GRA__testcase_1_1GrantTestcase.html#a57891611cbef75fc784c2a746b96ce62" target="_top" xlink:title="src.harness.testcases.WINNF\l_FT_S_GRA_testcase.GrantTestcase.test\l_WINNF_FT_S_GRA_13">
<polygon fill="white" stroke="black" points="460.5,-480.5 460.5,-521.5 663.5,-521.5 663.5,-480.5 460.5,-480.5"/>
<text text-anchor="start" x="468.5" y="-509.5" font-family="Helvetica,sans-Serif" font-size="10.00">src.harness.testcases.WINNF</text>
<text text-anchor="start" x="468.5" y="-498.5" font-family="Helvetica,sans-Serif" font-size="10.00">_FT_S_GRA_testcase.GrantTestcase.test</text>
<text text-anchor="middle" x="562" y="-487.5" font-family="Helvetica,sans-Serif" font-size="10.00">_WINNF_FT_S_GRA_13</text>
</a>
</g>
</g>
<!-- Node2&#45;&gt;Node27 -->
<g id="edge27" class="edge"><title>Node2&#45;&gt;Node27</title>
<path fill="none" stroke="midnightblue" d="M426.386,-501C437.636,-501 449.069,-501 460.275,-501"/>
<polygon fill="midnightblue" stroke="midnightblue" points="426.116,-497.5 416.116,-501 426.116,-504.5 426.116,-497.5"/>
</g>
<!-- Node28 -->
<g id="node28" class="node"><title>Node28</title>
<g id="a_node28"><a xlink:href="../../d5/d7b/classsrc_1_1harness_1_1testcases_1_1WINNF__FT__S__HBT__testcase_1_1HeartbeatTestcase.html#a6730b922e07121cfce4aa15f467ea5c2" target="_top" xlink:title="src.harness.testcases.WINNF\l_FT_S_HBT_testcase.HeartbeatTestcase.test\l_WINNF_FT_S_HBT_6">
<polygon fill="white" stroke="black" points="452,-420.5 452,-461.5 672,-461.5 672,-420.5 452,-420.5"/>
<text text-anchor="start" x="460" y="-449.5" font-family="Helvetica,sans-Serif" font-size="10.00">src.harness.testcases.WINNF</text>
<text text-anchor="start" x="460" y="-438.5" font-family="Helvetica,sans-Serif" font-size="10.00">_FT_S_HBT_testcase.HeartbeatTestcase.test</text>
<text text-anchor="middle" x="562" y="-427.5" font-family="Helvetica,sans-Serif" font-size="10.00">_WINNF_FT_S_HBT_6</text>
</a>
</g>
</g>
<!-- Node2&#45;&gt;Node28 -->
<g id="edge28" class="edge"><title>Node2&#45;&gt;Node28</title>
<path fill="none" stroke="midnightblue" d="M391.884,-483.456C419.265,-476.582 450.871,-468.648 479.296,-461.511"/>
<polygon fill="midnightblue" stroke="midnightblue" points="390.848,-480.107 382.001,-485.937 392.553,-486.897 390.848,-480.107"/>
</g>
<!-- Node29 -->
<g id="node29" class="node"><title>Node29</title>
<g id="a_node29"><a xlink:href="../../d5/d7b/classsrc_1_1harness_1_1testcases_1_1WINNF__FT__S__HBT__testcase_1_1HeartbeatTestcase.html#acf582340583590aaee9bd845be90091b" target="_top" xlink:title="src.harness.testcases.WINNF\l_FT_S_HBT_testcase.HeartbeatTestcase.test\l_WINNF_FT_S_HBT_8">
<polygon fill="white" stroke="black" points="452,-360.5 452,-401.5 672,-401.5 672,-360.5 452,-360.5"/>
<text text-anchor="start" x="460" y="-389.5" font-family="Helvetica,sans-Serif" font-size="10.00">src.harness.testcases.WINNF</text>
<text text-anchor="start" x="460" y="-378.5" font-family="Helvetica,sans-Serif" font-size="10.00">_FT_S_HBT_testcase.HeartbeatTestcase.test</text>
<text text-anchor="middle" x="562" y="-367.5" font-family="Helvetica,sans-Serif" font-size="10.00">_WINNF_FT_S_HBT_8</text>
</a>
</g>
</g>
<!-- Node2&#45;&gt;Node29 -->
<g id="edge29" class="edge"><title>Node2&#45;&gt;Node29</title>
<path fill="none" stroke="midnightblue" d="M347.661,-479.303C372.79,-459.045 412.898,-429.268 452,-411 459.469,-407.511 467.42,-404.359 475.496,-401.528"/>
<polygon fill="midnightblue" stroke="midnightblue" points="345.266,-476.741 339.737,-485.778 349.695,-482.161 345.266,-476.741"/>
</g>
<!-- Node30 -->
<g id="node30" class="node"><title>Node30</title>
<g id="a_node30"><a xlink:href="../../d5/d7b/classsrc_1_1harness_1_1testcases_1_1WINNF__FT__S__HBT__testcase_1_1HeartbeatTestcase.html#af9e853e93ac2fc611be0f8d9dbcbf647" target="_top" xlink:title="src.harness.testcases.WINNF\l_FT_S_HBT_testcase.HeartbeatTestcase.test\l_WINNF_FT_S_HBT_9">
<polygon fill="white" stroke="black" points="452,-300.5 452,-341.5 672,-341.5 672,-300.5 452,-300.5"/>
<text text-anchor="start" x="460" y="-329.5" font-family="Helvetica,sans-Serif" font-size="10.00">src.harness.testcases.WINNF</text>
<text text-anchor="start" x="460" y="-318.5" font-family="Helvetica,sans-Serif" font-size="10.00">_FT_S_HBT_testcase.HeartbeatTestcase.test</text>
<text text-anchor="middle" x="562" y="-307.5" font-family="Helvetica,sans-Serif" font-size="10.00">_WINNF_FT_S_HBT_9</text>
</a>
</g>
</g>
<!-- Node2&#45;&gt;Node30 -->
<g id="edge30" class="edge"><title>Node2&#45;&gt;Node30</title>
<path fill="none" stroke="midnightblue" d="M336.315,-476.959C357.417,-443.62 400.045,-383.765 452,-351 457.645,-347.44 463.712,-344.297 469.992,-341.522"/>
<polygon fill="midnightblue" stroke="midnightblue" points="333.243,-475.272 330.944,-485.614 339.191,-478.963 333.243,-475.272"/>
</g>
<!-- Node31 -->
<g id="node31" class="node"><title>Node31</title>
<g id="a_node31"><a xlink:href="../../dd/df3/classsrc_1_1harness_1_1testcases_1_1WINNF__FT__S__SIQ__testcase_1_1SpectrumInquiryTestcase.html#af164604ec7d8713b9c171c379df8c97b" target="_top" xlink:title="src.harness.testcases.WINNF\l_FT_S_SIQ_testcase.SpectrumInquiry\lTestcase.test_WINNF_FT_S_SIQ_2">
<polygon fill="white" stroke="black" points="469.5,-240.5 469.5,-281.5 654.5,-281.5 654.5,-240.5 469.5,-240.5"/>
<text text-anchor="start" x="477.5" y="-269.5" font-family="Helvetica,sans-Serif" font-size="10.00">src.harness.testcases.WINNF</text>
<text text-anchor="start" x="477.5" y="-258.5" font-family="Helvetica,sans-Serif" font-size="10.00">_FT_S_SIQ_testcase.SpectrumInquiry</text>
<text text-anchor="middle" x="562" y="-247.5" font-family="Helvetica,sans-Serif" font-size="10.00">Testcase.test_WINNF_FT_S_SIQ_2</text>
</a>
</g>
</g>
<!-- Node2&#45;&gt;Node31 -->
<g id="edge31" class="edge"><title>Node2&#45;&gt;Node31</title>
<path fill="none" stroke="midnightblue" d="M330.398,-476.23C346.655,-432.089 386.692,-339.882 452,-291 457.342,-287.001 463.189,-283.535 469.31,-280.532"/>
<polygon fill="midnightblue" stroke="midnightblue" points="327.021,-475.278 326.945,-485.873 333.611,-477.638 327.021,-475.278"/>
</g>
<!-- Node32 -->
<g id="node32" class="node"><title>Node32</title>
<g id="a_node32"><a xlink:href="../../dd/df3/classsrc_1_1harness_1_1testcases_1_1WINNF__FT__S__SIQ__testcase_1_1SpectrumInquiryTestcase.html#ac8377a3a254db13e5a011fdfca390d8c" target="_top" xlink:title="src.harness.testcases.WINNF\l_FT_S_SIQ_testcase.SpectrumInquiry\lTestcase.test_WINNF_FT_S_SIQ_4">
<polygon fill="white" stroke="black" points="469.5,-180.5 469.5,-221.5 654.5,-221.5 654.5,-180.5 469.5,-180.5"/>
<text text-anchor="start" x="477.5" y="-209.5" font-family="Helvetica,sans-Serif" font-size="10.00">src.harness.testcases.WINNF</text>
<text text-anchor="start" x="477.5" y="-198.5" font-family="Helvetica,sans-Serif" font-size="10.00">_FT_S_SIQ_testcase.SpectrumInquiry</text>
<text text-anchor="middle" x="562" y="-187.5" font-family="Helvetica,sans-Serif" font-size="10.00">Testcase.test_WINNF_FT_S_SIQ_4</text>
</a>
</g>
</g>
<!-- Node2&#45;&gt;Node32 -->
<g id="edge32" class="edge"><title>Node2&#45;&gt;Node32</title>
<path fill="none" stroke="midnightblue" d="M326.838,-475.758C338.439,-422.251 372.957,-296.948 452,-231 457.275,-226.599 463.145,-222.841 469.348,-219.632"/>
<polygon fill="midnightblue" stroke="midnightblue" points="323.369,-475.248 324.76,-485.751 330.223,-476.673 323.369,-475.248"/>
</g>
<!-- Node33 -->
<g id="node33" class="node"><title>Node33</title>
<g id="a_node33"><a xlink:href="../../dd/df3/classsrc_1_1harness_1_1testcases_1_1WINNF__FT__S__SIQ__testcase_1_1SpectrumInquiryTestcase.html#ae08c82f207c20e034a68e51a3096a8a4" target="_top" xlink:title="src.harness.testcases.WINNF\l_FT_S_SIQ_testcase.SpectrumInquiry\lTestcase.test_WINNF_FT_S_SIQ_5">
<polygon fill="white" stroke="black" points="469.5,-120.5 469.5,-161.5 654.5,-161.5 654.5,-120.5 469.5,-120.5"/>
<text text-anchor="start" x="477.5" y="-149.5" font-family="Helvetica,sans-Serif" font-size="10.00">src.harness.testcases.WINNF</text>
<text text-anchor="start" x="477.5" y="-138.5" font-family="Helvetica,sans-Serif" font-size="10.00">_FT_S_SIQ_testcase.SpectrumInquiry</text>
<text text-anchor="middle" x="562" y="-127.5" font-family="Helvetica,sans-Serif" font-size="10.00">Testcase.test_WINNF_FT_S_SIQ_5</text>
</a>
</g>
</g>
<!-- Node2&#45;&gt;Node33 -->
<g id="edge33" class="edge"><title>Node2&#45;&gt;Node33</title>
<path fill="none" stroke="midnightblue" d="M324.372,-475.865C331.553,-414.296 358.673,-254.866 452,-171 457.183,-166.343 463.024,-162.4 469.242,-159.064"/>
<polygon fill="midnightblue" stroke="midnightblue" points="320.887,-475.539 323.284,-485.859 327.846,-476.297 320.887,-475.539"/>
</g>
<!-- Node34 -->
<g id="node34" class="node"><title>Node34</title>
<g id="a_node34"><a xlink:href="../../dd/df3/classsrc_1_1harness_1_1testcases_1_1WINNF__FT__S__SIQ__testcase_1_1SpectrumInquiryTestcase.html#a0d4f3fcfc17ad9efb42163561ac8d7c4" target="_top" xlink:title="src.harness.testcases.WINNF\l_FT_S_SIQ_testcase.SpectrumInquiry\lTestcase.test_WINNF_FT_S_SIQ_9">
<polygon fill="white" stroke="black" points="469.5,-60.5 469.5,-101.5 654.5,-101.5 654.5,-60.5 469.5,-60.5"/>
<text text-anchor="start" x="477.5" y="-89.5" font-family="Helvetica,sans-Serif" font-size="10.00">src.harness.testcases.WINNF</text>
<text text-anchor="start" x="477.5" y="-78.5" font-family="Helvetica,sans-Serif" font-size="10.00">_FT_S_SIQ_testcase.SpectrumInquiry</text>
<text text-anchor="middle" x="562" y="-67.5" font-family="Helvetica,sans-Serif" font-size="10.00">Testcase.test_WINNF_FT_S_SIQ_9</text>
</a>
</g>
</g>
<!-- Node2&#45;&gt;Node34 -->
<g id="edge34" class="edge"><title>Node2&#45;&gt;Node34</title>
<path fill="none" stroke="midnightblue" d="M322.641,-475.661C325.805,-406.539 344.338,-213.084 452,-111 457.199,-106.071 463.131,-101.937 469.481,-98.4728"/>
<polygon fill="midnightblue" stroke="midnightblue" points="319.144,-475.526 322.254,-485.654 326.138,-475.797 319.144,-475.526"/>
</g>
<!-- Node35 -->
<g id="node35" class="node"><title>Node35</title>
<g id="a_node35"><a xlink:href="../../dd/df3/classsrc_1_1harness_1_1testcases_1_1WINNF__FT__S__SIQ__testcase_1_1SpectrumInquiryTestcase.html#a3161bd70906204c17e668b78f54c4f72" target="_top" xlink:title="src.harness.testcases.WINNF\l_FT_S_SIQ_testcase.SpectrumInquiry\lTestcase.test_WINNF_FT_S_SIQ_13">
<polygon fill="white" stroke="black" points="469.5,-0.5 469.5,-41.5 654.5,-41.5 654.5,-0.5 469.5,-0.5"/>
<text text-anchor="start" x="477.5" y="-29.5" font-family="Helvetica,sans-Serif" font-size="10.00">src.harness.testcases.WINNF</text>
<text text-anchor="start" x="477.5" y="-18.5" font-family="Helvetica,sans-Serif" font-size="10.00">_FT_S_SIQ_testcase.SpectrumInquiry</text>
<text text-anchor="middle" x="562" y="-7.5" font-family="Helvetica,sans-Serif" font-size="10.00">Testcase.test_WINNF_FT_S_SIQ_13</text>
</a>
</g>
</g>
<!-- Node2&#45;&gt;Node35 -->
<g id="edge35" class="edge"><title>Node2&#45;&gt;Node35</title>
<path fill="none" stroke="midnightblue" d="M321.322,-475.477C320.753,-399.338 329.838,-171.626 452,-51 457.098,-45.9665 462.957,-41.7584 469.258,-38.2428"/>
<polygon fill="midnightblue" stroke="midnightblue" points="317.823,-475.63 321.463,-485.58 324.823,-475.532 317.823,-475.63"/>
</g>
<!-- Node4 -->
<g id="node4" class="node"><title>Node4</title>
<g id="a_node4"><a xlink:href="../../de/d99/classsrc_1_1harness_1_1testcases_1_1grant__testcase_1_1GrantTestcaseUsingOldIds.html#aeb64c8f939edb9894f97553ec90845e1" target="_top" xlink:title="src.harness.testcases.grant\l_testcase.GrantTestcaseUsingOld\lIds.test_WINNF_FT_S_GRA_18">
<polygon fill="white" stroke="black" points="733.5,-1308.5 733.5,-1349.5 900.5,-1349.5 900.5,-1308.5 733.5,-1308.5"/>
<text text-anchor="start" x="741.5" y="-1337.5" font-family="Helvetica,sans-Serif" font-size="10.00">src.harness.testcases.grant</text>
<text text-anchor="start" x="741.5" y="-1326.5" font-family="Helvetica,sans-Serif" font-size="10.00">_testcase.GrantTestcaseUsingOld</text>
<text text-anchor="middle" x="817" y="-1315.5" font-family="Helvetica,sans-Serif" font-size="10.00">Ids.test_WINNF_FT_S_GRA_18</text>
</a>
</g>
</g>
<!-- Node3&#45;&gt;Node4 -->
<g id="edge3" class="edge"><title>Node3&#45;&gt;Node4</title>
<path fill="none" stroke="midnightblue" d="M589.816,-1207.25C617.136,-1234.46 661.93,-1274.95 708,-1299 715.935,-1303.14 724.506,-1306.77 733.227,-1309.92"/>
<polygon fill="midnightblue" stroke="midnightblue" points="592.11,-1204.59 582.587,-1199.95 587.137,-1209.52 592.11,-1204.59"/>
</g>
<!-- Node5 -->
<g id="node5" class="node"><title>Node5</title>
<g id="a_node5"><a xlink:href="../../de/d99/classsrc_1_1harness_1_1testcases_1_1grant__testcase_1_1GrantTestcaseUsingOldIds.html#adcef04cb1005e795f346ecc8b5878768" target="_top" xlink:title="src.harness.testcases.grant\l_testcase.GrantTestcaseUsingOld\lIds.test_WINNF_FT_S_GRA_20">
<polygon fill="white" stroke="black" points="733.5,-1248.5 733.5,-1289.5 900.5,-1289.5 900.5,-1248.5 733.5,-1248.5"/>
<text text-anchor="start" x="741.5" y="-1277.5" font-family="Helvetica,sans-Serif" font-size="10.00">src.harness.testcases.grant</text>
<text text-anchor="start" x="741.5" y="-1266.5" font-family="Helvetica,sans-Serif" font-size="10.00">_testcase.GrantTestcaseUsingOld</text>
<text text-anchor="middle" x="817" y="-1255.5" font-family="Helvetica,sans-Serif" font-size="10.00">Ids.test_WINNF_FT_S_GRA_20</text>
</a>
</g>
</g>
<!-- Node3&#45;&gt;Node5 -->
<g id="edge4" class="edge"><title>Node3&#45;&gt;Node5</title>
<path fill="none" stroke="midnightblue" d="M618.041,-1203.62C644.881,-1215.15 677.815,-1228.61 708,-1239 717.568,-1242.29 727.705,-1245.49 737.785,-1248.49"/>
<polygon fill="midnightblue" stroke="midnightblue" points="619.383,-1200.39 608.816,-1199.63 616.604,-1206.82 619.383,-1200.39"/>
</g>
<!-- Node6 -->
<g id="node6" class="node"><title>Node6</title>
<g id="a_node6"><a xlink:href="../../de/d99/classsrc_1_1harness_1_1testcases_1_1grant__testcase_1_1GrantTestcaseUsingOldIds.html#a2b77c4ea5bcf549ec91e938682dd9044" target="_top" xlink:title="src.harness.testcases.grant\l_testcase.GrantTestcaseUsingOld\lIds.test_WINNF_FT_S_GRA_23">
<polygon fill="white" stroke="black" points="733.5,-1188.5 733.5,-1229.5 900.5,-1229.5 900.5,-1188.5 733.5,-1188.5"/>
<text text-anchor="start" x="741.5" y="-1217.5" font-family="Helvetica,sans-Serif" font-size="10.00">src.harness.testcases.grant</text>
<text text-anchor="start" x="741.5" y="-1206.5" font-family="Helvetica,sans-Serif" font-size="10.00">_testcase.GrantTestcaseUsingOld</text>
<text text-anchor="middle" x="817" y="-1195.5" font-family="Helvetica,sans-Serif" font-size="10.00">Ids.test_WINNF_FT_S_GRA_23</text>
</a>
</g>
</g>
<!-- Node3&#45;&gt;Node6 -->
<g id="edge5" class="edge"><title>Node3&#45;&gt;Node6</title>
<path fill="none" stroke="midnightblue" d="M657.738,-1190.23C682.537,-1193.17 709.078,-1196.32 733.202,-1199.18"/>
<polygon fill="midnightblue" stroke="midnightblue" points="657.94,-1186.73 647.597,-1189.03 657.115,-1193.68 657.94,-1186.73"/>
</g>
<!-- Node3&#45;&gt;Node7 -->
<g id="edge6" class="edge"><title>Node3&#45;&gt;Node7</title>
<path fill="none" stroke="midnightblue" d="M618.041,-1154.38C644.881,-1142.85 677.815,-1129.39 708,-1119 717.568,-1115.71 727.705,-1112.51 737.785,-1109.51"/>
<polygon fill="midnightblue" stroke="midnightblue" points="616.604,-1151.18 608.816,-1158.37 619.383,-1157.61 616.604,-1151.18"/>
</g>
<!-- Node8 -->
<g id="node8" class="node"><title>Node8</title>
<g id="a_node8"><a xlink:href="../../de/d99/classsrc_1_1harness_1_1testcases_1_1grant__testcase_1_1GrantTestcaseUsingOldIds.html#a9459aa8c472f50cb8d89b89e504ef816" target="_top" xlink:title="src.harness.testcases.grant\l_testcase.GrantTestcaseUsingOld\lIds.test_WINNF_FT_S_GRA_26">
<polygon fill="white" stroke="black" points="733.5,-1128.5 733.5,-1169.5 900.5,-1169.5 900.5,-1128.5 733.5,-1128.5"/>
<text text-anchor="start" x="741.5" y="-1157.5" font-family="Helvetica,sans-Serif" font-size="10.00">src.harness.testcases.grant</text>
<text text-anchor="start" x="741.5" y="-1146.5" font-family="Helvetica,sans-Serif" font-size="10.00">_testcase.GrantTestcaseUsingOld</text>
<text text-anchor="middle" x="817" y="-1135.5" font-family="Helvetica,sans-Serif" font-size="10.00">Ids.test_WINNF_FT_S_GRA_26</text>
</a>
</g>
</g>
<!-- Node3&#45;&gt;Node8 -->
<g id="edge7" class="edge"><title>Node3&#45;&gt;Node8</title>
<path fill="none" stroke="midnightblue" d="M657.738,-1167.77C682.537,-1164.83 709.078,-1161.68 733.202,-1158.82"/>
<polygon fill="midnightblue" stroke="midnightblue" points="657.115,-1164.32 647.597,-1168.97 657.94,-1171.27 657.115,-1164.32"/>
</g>
<!-- Node10 -->
<g id="node10" class="node"><title>Node10</title>
<g id="a_node10"><a xlink:href="../../df/dc5/classsrc_1_1harness_1_1sas__testcase_1_1SasTestCase.html#a28b72ffa7d5098fb69bc91ddf7ee7f20" target="_top" xlink:title="src.harness.sas_testcase.\lSasTestCase.assertRegistered">
<polygon fill="white" stroke="black" points="740,-1020 740,-1050 894,-1050 894,-1020 740,-1020"/>
<text text-anchor="start" x="748" y="-1038" font-family="Helvetica,sans-Serif" font-size="10.00">src.harness.sas_testcase.</text>
<text text-anchor="middle" x="817" y="-1027" font-family="Helvetica,sans-Serif" font-size="10.00">SasTestCase.assertRegistered</text>
</a>
</g>
</g>
<!-- Node9&#45;&gt;Node10 -->
<g id="edge9" class="edge"><title>Node9&#45;&gt;Node10</title>
<path fill="none" stroke="midnightblue" d="M613.749,-972.895C641.167,-985.613 675.894,-1000.56 708,-1011 718.229,-1014.32 729.151,-1017.34 739.973,-1020.03"/>
<polygon fill="midnightblue" stroke="midnightblue" points="614.913,-969.575 604.373,-968.501 611.942,-975.913 614.913,-969.575"/>
</g>
<!-- Node11 -->
<g id="node11" class="node"><title>Node11</title>
<g id="a_node11"><a xlink:href="../../df/dc5/classsrc_1_1harness_1_1sas__testcase_1_1SasTestCase.html#a1690e73264aa42576f9e1bbd37e4d2b0" target="_top" xlink:title="src.harness.sas_testcase.\lSasTestCase.assertValidResponse\lFormatForApprovedGrant">
<polygon fill="white" stroke="black" points="962,-1014.5 962,-1055.5 1135,-1055.5 1135,-1014.5 962,-1014.5"/>
<text text-anchor="start" x="970" y="-1043.5" font-family="Helvetica,sans-Serif" font-size="10.00">src.harness.sas_testcase.</text>
<text text-anchor="start" x="970" y="-1032.5" font-family="Helvetica,sans-Serif" font-size="10.00">SasTestCase.assertValidResponse</text>
<text text-anchor="middle" x="1048.5" y="-1021.5" font-family="Helvetica,sans-Serif" font-size="10.00">FormatForApprovedGrant</text>
</a>
</g>
</g>
<!-- Node10&#45;&gt;Node11 -->
<g id="edge10" class="edge"><title>Node10&#45;&gt;Node11</title>
<path fill="none" stroke="midnightblue" d="M904.132,-1035C922.958,-1035 942.882,-1035 961.695,-1035"/>
<polygon fill="midnightblue" stroke="midnightblue" points="904.101,-1031.5 894.101,-1035 904.101,-1038.5 904.101,-1031.5"/>
</g>
<!-- Node13 -->
<g id="node13" class="node"><title>Node13</title>
<g id="a_node13"><a xlink:href="../../da/d08/classsrc_1_1harness_1_1testcases_1_1WINNF__FT__S__SCS__testcase_1_1SasCbsdSecurityTestcase.html#a9be08abb1cd25ad40d9deecdb05dcede" target="_top" xlink:title="src.harness.testcases.WINNF\l_FT_S_SCS_testcase.SasCbsdSecurity\lTestcase.test_WINNF_FT_S_SCS_1">
<polygon fill="white" stroke="black" points="720,-960.5 720,-1001.5 914,-1001.5 914,-960.5 720,-960.5"/>
<text text-anchor="start" x="728" y="-989.5" font-family="Helvetica,sans-Serif" font-size="10.00">src.harness.testcases.WINNF</text>
<text text-anchor="start" x="728" y="-978.5" font-family="Helvetica,sans-Serif" font-size="10.00">_FT_S_SCS_testcase.SasCbsdSecurity</text>
<text text-anchor="middle" x="817" y="-967.5" font-family="Helvetica,sans-Serif" font-size="10.00">Testcase.test_WINNF_FT_S_SCS_1</text>
</a>
</g>
</g>
<!-- Node12&#45;&gt;Node13 -->
<g id="edge12" class="edge"><title>Node12&#45;&gt;Node13</title>
<path fill="none" stroke="midnightblue" d="M588.635,-829.071C626.336,-870.112 693.817,-942.563 708,-951 713.937,-954.532 720.305,-957.661 726.869,-960.432"/>
<polygon fill="midnightblue" stroke="midnightblue" points="591.078,-826.556 581.739,-821.553 585.919,-831.288 591.078,-826.556"/>
</g>
<!-- Node14 -->
<g id="node14" class="node"><title>Node14</title>
<g id="a_node14"><a xlink:href="../../da/d08/classsrc_1_1harness_1_1testcases_1_1WINNF__FT__S__SCS__testcase_1_1SasCbsdSecurityTestcase.html#a9a24b10eaed496d910bc1e75539823cc" target="_top" xlink:title="src.harness.testcases.WINNF\l_FT_S_SCS_testcase.SasCbsdSecurity\lTestcase.test_WINNF_FT_S_SCS_2">
<polygon fill="white" stroke="black" points="720,-900.5 720,-941.5 914,-941.5 914,-900.5 720,-900.5"/>
<text text-anchor="start" x="728" y="-929.5" font-family="Helvetica,sans-Serif" font-size="10.00">src.harness.testcases.WINNF</text>
<text text-anchor="start" x="728" y="-918.5" font-family="Helvetica,sans-Serif" font-size="10.00">_FT_S_SCS_testcase.SasCbsdSecurity</text>
<text text-anchor="middle" x="817" y="-907.5" font-family="Helvetica,sans-Serif" font-size="10.00">Testcase.test_WINNF_FT_S_SCS_2</text>
</a>
</g>
</g>
<!-- Node12&#45;&gt;Node14 -->
<g id="edge13" class="edge"><title>Node12&#45;&gt;Node14</title>
<path fill="none" stroke="midnightblue" d="M599.217,-827.544C627.62,-847.332 668.778,-873.802 708,-891 715.842,-894.438 724.178,-897.581 732.608,-900.428"/>
<polygon fill="midnightblue" stroke="midnightblue" points="601.019,-824.532 590.828,-821.635 596.988,-830.255 601.019,-824.532"/>
</g>
<!-- Node15 -->
<g id="node15" class="node"><title>Node15</title>
<g id="a_node15"><a xlink:href="../../da/d08/classsrc_1_1harness_1_1testcases_1_1WINNF__FT__S__SCS__testcase_1_1SasCbsdSecurityTestcase.html#ac71116f6a9b86f82473e4deb4a95ea06" target="_top" xlink:title="src.harness.testcases.WINNF\l_FT_S_SCS_testcase.SasCbsdSecurity\lTestcase.test_WINNF_FT_S_SCS_3">
<polygon fill="white" stroke="black" points="720,-840.5 720,-881.5 914,-881.5 914,-840.5 720,-840.5"/>
<text text-anchor="start" x="728" y="-869.5" font-family="Helvetica,sans-Serif" font-size="10.00">src.harness.testcases.WINNF</text>
<text text-anchor="start" x="728" y="-858.5" font-family="Helvetica,sans-Serif" font-size="10.00">_FT_S_SCS_testcase.SasCbsdSecurity</text>
<text text-anchor="middle" x="817" y="-847.5" font-family="Helvetica,sans-Serif" font-size="10.00">Testcase.test_WINNF_FT_S_SCS_3</text>
</a>
</g>
</g>
<!-- Node12&#45;&gt;Node15 -->
<g id="edge14" class="edge"><title>Node12&#45;&gt;Node15</title>
<path fill="none" stroke="midnightblue" d="M649.376,-821.484C675.243,-827.619 703.607,-834.346 729.483,-840.482"/>
<polygon fill="midnightblue" stroke="midnightblue" points="650.133,-818.067 639.595,-819.165 648.517,-824.878 650.133,-818.067"/>
</g>
<!-- Node16 -->
<g id="node16" class="node"><title>Node16</title>
<g id="a_node16"><a xlink:href="../../da/d08/classsrc_1_1harness_1_1testcases_1_1WINNF__FT__S__SCS__testcase_1_1SasCbsdSecurityTestcase.html#ac6c3476e4632ab71aac6aae3ba7e29b4" target="_top" xlink:title="src.harness.testcases.WINNF\l_FT_S_SCS_testcase.SasCbsdSecurity\lTestcase.test_WINNF_FT_S_SCS_4">
<polygon fill="white" stroke="black" points="720,-780.5 720,-821.5 914,-821.5 914,-780.5 720,-780.5"/>
<text text-anchor="start" x="728" y="-809.5" font-family="Helvetica,sans-Serif" font-size="10.00">src.harness.testcases.WINNF</text>
<text text-anchor="start" x="728" y="-798.5" font-family="Helvetica,sans-Serif" font-size="10.00">_FT_S_SCS_testcase.SasCbsdSecurity</text>
<text text-anchor="middle" x="817" y="-787.5" font-family="Helvetica,sans-Serif" font-size="10.00">Testcase.test_WINNF_FT_S_SCS_4</text>
</a>
</g>
</g>
<!-- Node12&#45;&gt;Node16 -->
<g id="edge15" class="edge"><title>Node12&#45;&gt;Node16</title>
<path fill="none" stroke="midnightblue" d="M649.834,-801C672.432,-801 696.91,-801 719.954,-801"/>
<polygon fill="midnightblue" stroke="midnightblue" points="649.595,-797.5 639.595,-801 649.595,-804.5 649.595,-797.5"/>
</g>
<!-- Node17 -->
<g id="node17" class="node"><title>Node17</title>
<g id="a_node17"><a xlink:href="../../da/d08/classsrc_1_1harness_1_1testcases_1_1WINNF__FT__S__SCS__testcase_1_1SasCbsdSecurityTestcase.html#a056c5b611a63d4c3a90816e893c152b8" target="_top" xlink:title="src.harness.testcases.WINNF\l_FT_S_SCS_testcase.SasCbsdSecurity\lTestcase.test_WINNF_FT_S_SCS_5">
<polygon fill="white" stroke="black" points="720,-720.5 720,-761.5 914,-761.5 914,-720.5 720,-720.5"/>
<text text-anchor="start" x="728" y="-749.5" font-family="Helvetica,sans-Serif" font-size="10.00">src.harness.testcases.WINNF</text>
<text text-anchor="start" x="728" y="-738.5" font-family="Helvetica,sans-Serif" font-size="10.00">_FT_S_SCS_testcase.SasCbsdSecurity</text>
<text text-anchor="middle" x="817" y="-727.5" font-family="Helvetica,sans-Serif" font-size="10.00">Testcase.test_WINNF_FT_S_SCS_5</text>
</a>
</g>
</g>
<!-- Node12&#45;&gt;Node17 -->
<g id="edge16" class="edge"><title>Node12&#45;&gt;Node17</title>
<path fill="none" stroke="midnightblue" d="M649.376,-780.516C675.243,-774.381 703.607,-767.654 729.483,-761.518"/>
<polygon fill="midnightblue" stroke="midnightblue" points="648.517,-777.122 639.595,-782.835 650.133,-783.933 648.517,-777.122"/>
</g>
<!-- Node18 -->
<g id="node18" class="node"><title>Node18</title>
<g id="a_node18"><a xlink:href="../../d5/daa/classsrc_1_1harness_1_1testcases_1_1WINNF__FT__S__SDS__testcase_1_1SasDomainProxySecurityTestcase.html#aeb94e52f79acf12df9d5bce15edfabe1" target="_top" xlink:title="src.harness.testcases.WINNF\l_FT_S_SDS_testcase.SasDomainProxy\lSecurityTestcase.test_WINNF_FT_S_SDS_1">
<polygon fill="white" stroke="black" points="708,-660.5 708,-701.5 926,-701.5 926,-660.5 708,-660.5"/>
<text text-anchor="start" x="716" y="-689.5" font-family="Helvetica,sans-Serif" font-size="10.00">src.harness.testcases.WINNF</text>
<text text-anchor="start" x="716" y="-678.5" font-family="Helvetica,sans-Serif" font-size="10.00">_FT_S_SDS_testcase.SasDomainProxy</text>
<text text-anchor="middle" x="817" y="-667.5" font-family="Helvetica,sans-Serif" font-size="10.00">SecurityTestcase.test_WINNF_FT_S_SDS_1</text>
</a>
</g>
</g>
<!-- Node12&#45;&gt;Node18 -->
<g id="edge17" class="edge"><title>Node12&#45;&gt;Node18</title>
<path fill="none" stroke="midnightblue" d="M648.92,-784.265C657.148,-780.67 665.015,-776.304 672,-771 696.767,-752.193 683.256,-729.837 708,-711 712.645,-707.464 717.685,-704.345 722.963,-701.593"/>
<polygon fill="midnightblue" stroke="midnightblue" points="647.505,-781.06 639.503,-788.004 650.089,-787.566 647.505,-781.06"/>
</g>
<!-- Node19 -->
<g id="node19" class="node"><title>Node19</title>
<g id="a_node19"><a xlink:href="../../d5/daa/classsrc_1_1harness_1_1testcases_1_1WINNF__FT__S__SDS__testcase_1_1SasDomainProxySecurityTestcase.html#ab12185b93c8848ad3b533faa7b0e3384" target="_top" xlink:title="src.harness.testcases.WINNF\l_FT_S_SDS_testcase.SasDomainProxy\lSecurityTestcase.test_WINNF_FT_S_SDS_2">
<polygon fill="white" stroke="black" points="708,-600.5 708,-641.5 926,-641.5 926,-600.5 708,-600.5"/>
<text text-anchor="start" x="716" y="-629.5" font-family="Helvetica,sans-Serif" font-size="10.00">src.harness.testcases.WINNF</text>
<text text-anchor="start" x="716" y="-618.5" font-family="Helvetica,sans-Serif" font-size="10.00">_FT_S_SDS_testcase.SasDomainProxy</text>
<text text-anchor="middle" x="817" y="-607.5" font-family="Helvetica,sans-Serif" font-size="10.00">SecurityTestcase.test_WINNF_FT_S_SDS_2</text>
</a>
</g>
</g>
<!-- Node12&#45;&gt;Node19 -->
<g id="edge18" class="edge"><title>Node12&#45;&gt;Node19</title>
<path fill="none" stroke="midnightblue" d="M648.938,-786.649C657.431,-782.619 665.351,-777.498 672,-771 711.821,-732.08 668.225,-689.967 708,-651 711.614,-647.459 715.608,-644.328 719.868,-641.56"/>
<polygon fill="midnightblue" stroke="midnightblue" points="647.39,-783.503 639.53,-790.608 650.105,-789.955 647.39,-783.503"/>
</g>
<!-- Node20 -->
<g id="node20" class="node"><title>Node20</title>
<g id="a_node20"><a xlink:href="../../d5/daa/classsrc_1_1harness_1_1testcases_1_1WINNF__FT__S__SDS__testcase_1_1SasDomainProxySecurityTestcase.html#afb3254f37aefa5cdd6c41cb825c597d8" target="_top" xlink:title="src.harness.testcases.WINNF\l_FT_S_SDS_testcase.SasDomainProxy\lSecurityTestcase.test_WINNF_FT_S_SDS_3">
<polygon fill="white" stroke="black" points="708,-540.5 708,-581.5 926,-581.5 926,-540.5 708,-540.5"/>
<text text-anchor="start" x="716" y="-569.5" font-family="Helvetica,sans-Serif" font-size="10.00">src.harness.testcases.WINNF</text>
<text text-anchor="start" x="716" y="-558.5" font-family="Helvetica,sans-Serif" font-size="10.00">_FT_S_SDS_testcase.SasDomainProxy</text>
<text text-anchor="middle" x="817" y="-547.5" font-family="Helvetica,sans-Serif" font-size="10.00">SecurityTestcase.test_WINNF_FT_S_SDS_3</text>
</a>
</g>
</g>
<!-- Node12&#45;&gt;Node20 -->
<g id="edge19" class="edge"><title>Node12&#45;&gt;Node20</title>
<path fill="none" stroke="midnightblue" d="M648.899,-787.582C657.534,-783.395 665.498,-777.983 672,-771 727.599,-711.295 652.471,-650.771 708,-591 711.179,-587.578 714.711,-584.535 718.502,-581.828"/>
<polygon fill="midnightblue" stroke="midnightblue" points="647.511,-784.369 639.69,-791.516 650.261,-790.806 647.511,-784.369"/>
</g>
<!-- Node21 -->
<g id="node21" class="node"><title>Node21</title>
<g id="a_node21"><a xlink:href="../../d5/daa/classsrc_1_1harness_1_1testcases_1_1WINNF__FT__S__SDS__testcase_1_1SasDomainProxySecurityTestcase.html#aa6ca4d198dd5378006c9b8297e41c510" target="_top" xlink:title="src.harness.testcases.WINNF\l_FT_S_SDS_testcase.SasDomainProxy\lSecurityTestcase.test_WINNF_FT_S_SDS_4">
<polygon fill="white" stroke="black" points="708,-480.5 708,-521.5 926,-521.5 926,-480.5 708,-480.5"/>
<text text-anchor="start" x="716" y="-509.5" font-family="Helvetica,sans-Serif" font-size="10.00">src.harness.testcases.WINNF</text>
<text text-anchor="start" x="716" y="-498.5" font-family="Helvetica,sans-Serif" font-size="10.00">_FT_S_SDS_testcase.SasDomainProxy</text>
<text text-anchor="middle" x="817" y="-487.5" font-family="Helvetica,sans-Serif" font-size="10.00">SecurityTestcase.test_WINNF_FT_S_SDS_4</text>
</a>
</g>
</g>
<!-- Node12&#45;&gt;Node21 -->
<g id="edge20" class="edge"><title>Node12&#45;&gt;Node21</title>
<path fill="none" stroke="midnightblue" d="M648.843,-788.082C657.571,-783.815 665.572,-778.247 672,-771 743.57,-690.306 636.525,-611.778 708,-531 711.095,-527.502 714.559,-524.397 718.295,-521.64"/>
<polygon fill="midnightblue" stroke="midnightblue" points="647.335,-784.92 639.519,-792.073 650.089,-791.355 647.335,-784.92"/>
</g>
<!-- Node22 -->
<g id="node22" class="node"><title>Node22</title>
<g id="a_node22"><a xlink:href="../../d5/daa/classsrc_1_1harness_1_1testcases_1_1WINNF__FT__S__SDS__testcase_1_1SasDomainProxySecurityTestcase.html#a6f4d7fe04de9d6796d6f3ce0d7f67f89" target="_top" xlink:title="src.harness.testcases.WINNF\l_FT_S_SDS_testcase.SasDomainProxy\lSecurityTestcase.test_WINNF_FT_S_SDS_5">
<polygon fill="white" stroke="black" points="708,-420.5 708,-461.5 926,-461.5 926,-420.5 708,-420.5"/>
<text text-anchor="start" x="716" y="-449.5" font-family="Helvetica,sans-Serif" font-size="10.00">src.harness.testcases.WINNF</text>
<text text-anchor="start" x="716" y="-438.5" font-family="Helvetica,sans-Serif" font-size="10.00">_FT_S_SDS_testcase.SasDomainProxy</text>
<text text-anchor="middle" x="817" y="-427.5" font-family="Helvetica,sans-Serif" font-size="10.00">SecurityTestcase.test_WINNF_FT_S_SDS_5</text>
</a>
</g>
</g>
<!-- Node12&#45;&gt;Node22 -->
<g id="edge21" class="edge"><title>Node12&#45;&gt;Node22</title>
<path fill="none" stroke="midnightblue" d="M649.053,-788.265C657.745,-783.967 665.68,-778.341 672,-771 759.618,-669.232 620.502,-572.872 708,-471 711.043,-467.457 714.465,-464.315 718.167,-461.529"/>
<polygon fill="midnightblue" stroke="midnightblue" points="647.549,-785.102 639.757,-792.281 650.325,-791.528 647.549,-785.102"/>
</g>
</g>
</svg>
        <g id="navigator" transform="translate(0 0)" fill="#404254">
                <rect fill="#f2f5e9" fill-opacity="0.5" stroke="#606060" stroke-width=".5" x="0" y="0" width="60" height="60"/>
                <use id="zoomplus" xlink:href="#zoomPlus" x="17" y="9" onmousedown="handleZoom(evt,'in')"/>
                <use id="zoomminus" xlink:href="#zoomMin" x="42" y="9" onmousedown="handleZoom(evt,'out')"/>
                <use id="reset" xlink:href="#resetDef" x="30" y="36" onmousedown="handleReset()"/>
                <g id="arrowUp" xlink:href="#dirArrow" transform="translate(30 24)" onmousedown="handlePan(0,-1)">
                  <use xlink:href="#rim" fill="#404040">
                        <set attributeName="fill" to="#808080" begin="arrowUp.mouseover" end="arrowUp.mouseout"/>
                  </use>
                  <path fill="none" stroke="white" stroke-width="1.5" d="M0,-3.0v7 M-2.5,-0.5L0,-3.0L2.5,-0.5"/>
                </g>
                <g id="arrowRight" xlink:href="#dirArrow" transform="rotate(90) translate(36 -43)" onmousedown="handlePan(1,0)">
                  <use xlink:href="#rim" fill="#404040">
                        <set attributeName="fill" to="#808080" begin="arrowRight.mouseover" end="arrowRight.mouseout"/>
                  </use>
                  <path fill="none" stroke="white" stroke-width="1.5" d="M0,-3.0v7 M-2.5,-0.5L0,-3.0L2.5,-0.5"/>
                </g>
                <g id="arrowDown" xlink:href="#dirArrow" transform="rotate(180) translate(-30 -48)" onmousedown="handlePan(0,1)">
                  <use xlink:href="#rim" fill="#404040">
                        <set attributeName="fill" to="#808080" begin="arrowDown.mouseover" end="arrowDown.mouseout"/>
                  </use>
                  <path fill="none" stroke="white" stroke-width="1.5" d="M0,-3.0v7 M-2.5,-0.5L0,-3.0L2.5,-0.5"/>
                </g>
                <g id="arrowLeft" xlink:href="#dirArrow" transform="rotate(270) translate(-36 17)" onmousedown="handlePan(-1,0)">
                  <use xlink:href="#rim" fill="#404040">
                        <set attributeName="fill" to="#808080" begin="arrowLeft.mouseover" end="arrowLeft.mouseout"/>
                  </use>
                  <path fill="none" stroke="white" stroke-width="1.5" d="M0,-3.0v7 M-2.5,-0.5L0,-3.0L2.5,-0.5"/>
                </g>
        </g>
        <svg viewBox="0 0 15 15" width="100%" height="30px" preserveAspectRatio="xMaxYMin meet">
         <g id="arrow_out" transform="scale(0.3 0.3)">
          <a xlink:href="classsrc_1_1harness_1_1sas__interface_1_1SasTestcaseInterface_a36b0593c135c9f69cba9eb4b359bdfa2_icgraph_org.svg" target="_base">
           <rect id="button" ry="5" rx="5" y="6" x="6" height="38" width="38"
                fill="#f2f5e9" fill-opacity="0.5" stroke="#606060" stroke-width="1.0"/>
           <path id="arrow"
             d="M 11.500037,31.436501 C 11.940474,20.09759 22.043105,11.32322 32.158766,21.979434 L 37.068811,17.246167 C 37.068811,17.246167 37.088388,32 37.088388,32 L 22.160133,31.978069 C 22.160133,31.978069 26.997745,27.140456 26.997745,27.140456 C 18.528582,18.264221 13.291696,25.230495 11.500037,31.436501 z"
             style="fill:#404040;"/>
          </a>
         </g>
        </svg>
</svg>
