<?xml version="1.0" encoding="UTF-8" standalone="no"?>
<!DOCTYPE svg PUBLIC "-//W3C//DTD SVG 1.1//EN"
 "http://www.w3.org/Graphics/SVG/1.1/DTD/svg11.dtd">
<!-- Generated by graphviz version 2.38.0 (20140413.2041)
 -->
<!-- Title: src.harness.sas_interface.SasTestcaseInterface.assertValidResponseFormatForApprovedGrant Pages: 1 -->
<svg width="382pt" height="290pt"
 viewBox="0.00 0.00 382.00 290.00" xmlns="http://www.w3.org/2000/svg" xmlns:xlink="http://www.w3.org/1999/xlink">
<g id="graph0" class="graph" transform="scale(1 1) rotate(0) translate(4 286)">
<title>src.harness.sas_interface.SasTestcaseInterface.assertValidResponseFormatForApprovedGrant</title>
<polygon fill="white" stroke="none" points="-4,4 -4,-286 378,-286 378,4 -4,4"/>
<!-- Node1 -->
<g id="node1" class="node"><title>Node1</title>
<polygon fill="#bfbfbf" stroke="black" points="0,-120.5 0,-161.5 171,-161.5 171,-120.5 0,-120.5"/>
<text text-anchor="start" x="8" y="-149.5" font-family="Helvetica,sans-Serif" font-size="10.00">src.harness.sas_interface.</text>
<text text-anchor="start" x="8" y="-138.5" font-family="Helvetica,sans-Serif" font-size="10.00">SasTestcaseInterface.assertValid</text>
<text text-anchor="middle" x="85.5" y="-127.5" font-family="Helvetica,sans-Serif" font-size="10.00">ResponseFormatForApprovedGrant</text>
</g>
<!-- Node2 -->
<g id="node2" class="node"><title>Node2</title>
<g id="a_node2"><a xlink:href="../../de/d99/classsrc_1_1harness_1_1testcases_1_1grant__testcase_1_1GrantTestcaseUsingOldIds.html#aeb64c8f939edb9894f97553ec90845e1" target="_top" xlink:title="src.harness.testcases.grant\l_testcase.GrantTestcaseUsingOld\lIds.test_WINNF_FT_S_GRA_18">
<polygon fill="white" stroke="black" points="207,-240.5 207,-281.5 374,-281.5 374,-240.5 207,-240.5"/>
<text text-anchor="start" x="215" y="-269.5" font-family="Helvetica,sans-Serif" font-size="10.00">src.harness.testcases.grant</text>
<text text-anchor="start" x="215" y="-258.5" font-family="Helvetica,sans-Serif" font-size="10.00">_testcase.GrantTestcaseUsingOld</text>
<text text-anchor="middle" x="290.5" y="-247.5" font-family="Helvetica,sans-Serif" font-size="10.00">Ids.test_WINNF_FT_S_GRA_18</text>
</a>
</g>
</g>
<!-- Node1&#45;&gt;Node2 -->
<g id="edge1" class="edge"><title>Node1&#45;&gt;Node2</title>
<path fill="none" stroke="midnightblue" d="M117.824,-168.439C141.182,-187.859 174.528,-213.465 207,-231 213.303,-234.404 220.072,-237.569 226.924,-240.468"/>
<polygon fill="midnightblue" stroke="midnightblue" points="119.902,-165.613 109.997,-161.851 115.394,-170.968 119.902,-165.613"/>
</g>
<!-- Node3 -->
<g id="node3" class="node"><title>Node3</title>
<g id="a_node3"><a xlink:href="../../de/d99/classsrc_1_1harness_1_1testcases_1_1grant__testcase_1_1GrantTestcaseUsingOldIds.html#adcef04cb1005e795f346ecc8b5878768" target="_top" xlink:title="src.harness.testcases.grant\l_testcase.GrantTestcaseUsingOld\lIds.test_WINNF_FT_S_GRA_20">
<polygon fill="white" stroke="black" points="207,-180.5 207,-221.5 374,-221.5 374,-180.5 207,-180.5"/>
<text text-anchor="start" x="215" y="-209.5" font-family="Helvetica,sans-Serif" font-size="10.00">src.harness.testcases.grant</text>
<text text-anchor="start" x="215" y="-198.5" font-family="Helvetica,sans-Serif" font-size="10.00">_testcase.GrantTestcaseUsingOld</text>
<text text-anchor="middle" x="290.5" y="-187.5" font-family="Helvetica,sans-Serif" font-size="10.00">Ids.test_WINNF_FT_S_GRA_20</text>
</a>
</g>
</g>
<!-- Node1&#45;&gt;Node3 -->
<g id="edge2" class="edge"><title>Node1&#45;&gt;Node3</title>
<path fill="none" stroke="midnightblue" d="M165.89,-164.465C183.758,-169.746 202.587,-175.312 220.014,-180.462"/>
<polygon fill="midnightblue" stroke="midnightblue" points="166.659,-161.043 156.077,-161.565 164.675,-167.756 166.659,-161.043"/>
</g>
<!-- Node4 -->
<g id="node4" class="node"><title>Node4</title>
<g id="a_node4"><a xlink:href="../../de/d99/classsrc_1_1harness_1_1testcases_1_1grant__testcase_1_1GrantTestcaseUsingOldIds.html#a2b77c4ea5bcf549ec91e938682dd9044" target="_top" xlink:title="src.harness.testcases.grant\l_testcase.GrantTestcaseUsingOld\lIds.test_WINNF_FT_S_GRA_23">
<polygon fill="white" stroke="black" points="207,-120.5 207,-161.5 374,-161.5 374,-120.5 207,-120.5"/>
<text text-anchor="start" x="215" y="-149.5" font-family="Helvetica,sans-Serif" font-size="10.00">src.harness.testcases.grant</text>
<text text-anchor="start" x="215" y="-138.5" font-family="Helvetica,sans-Serif" font-size="10.00">_testcase.GrantTestcaseUsingOld</text>
<text text-anchor="middle" x="290.5" y="-127.5" font-family="Helvetica,sans-Serif" font-size="10.00">Ids.test_WINNF_FT_S_GRA_23</text>
</a>
</g>
</g>
<!-- Node1&#45;&gt;Node4 -->
<g id="edge3" class="edge"><title>Node1&#45;&gt;Node4</title>
<path fill="none" stroke="midnightblue" d="M181.186,-141C189.798,-141 198.477,-141 206.972,-141"/>
<polygon fill="midnightblue" stroke="midnightblue" points="181.12,-137.5 171.12,-141 181.12,-144.5 181.12,-137.5"/>
</g>
<!-- Node5 -->
<g id="node5" class="node"><title>Node5</title>
<g id="a_node5"><a xlink:href="../../de/d99/classsrc_1_1harness_1_1testcases_1_1grant__testcase_1_1GrantTestcaseUsingOldIds.html#a748b120d69d64407e2b10d5aac28205e" target="_top" xlink:title="src.harness.testcases.grant\l_testcase.GrantTestcaseUsingOld\lIds.test_WINNF_FT_S_GRA_25">
<polygon fill="white" stroke="black" points="207,-60.5 207,-101.5 374,-101.5 374,-60.5 207,-60.5"/>
<text text-anchor="start" x="215" y="-89.5" font-family="Helvetica,sans-Serif" font-size="10.00">src.harness.testcases.grant</text>
<text text-anchor="start" x="215" y="-78.5" font-family="Helvetica,sans-Serif" font-size="10.00">_testcase.GrantTestcaseUsingOld</text>
<text text-anchor="middle" x="290.5" y="-67.5" font-family="Helvetica,sans-Serif" font-size="10.00">Ids.test_WINNF_FT_S_GRA_25</text>
</a>
</g>
</g>
<!-- Node1&#45;&gt;Node5 -->
<g id="edge4" class="edge"><title>Node1&#45;&gt;Node5</title>
<path fill="none" stroke="midnightblue" d="M165.89,-117.535C183.758,-112.254 202.587,-106.688 220.014,-101.538"/>
<polygon fill="midnightblue" stroke="midnightblue" points="164.675,-114.244 156.077,-120.435 166.659,-120.957 164.675,-114.244"/>
</g>
<!-- Node6 -->
<g id="node6" class="node"><title>Node6</title>
<g id="a_node6"><a xlink:href="../../de/d99/classsrc_1_1harness_1_1testcases_1_1grant__testcase_1_1GrantTestcaseUsingOldIds.html#a9459aa8c472f50cb8d89b89e504ef816" target="_top" xlink:title="src.harness.testcases.grant\l_testcase.GrantTestcaseUsingOld\lIds.test_WINNF_FT_S_GRA_26">
<polygon fill="white" stroke="black" points="207,-0.5 207,-41.5 374,-41.5 374,-0.5 207,-0.5"/>
<text text-anchor="start" x="215" y="-29.5" font-family="Helvetica,sans-Serif" font-size="10.00">src.harness.testcases.grant</text>
<text text-anchor="start" x="215" y="-18.5" font-family="Helvetica,sans-Serif" font-size="10.00">_testcase.GrantTestcaseUsingOld</text>
<text text-anchor="middle" x="290.5" y="-7.5" font-family="Helvetica,sans-Serif" font-size="10.00">Ids.test_WINNF_FT_S_GRA_26</text>
</a>
</g>
</g>
<!-- Node1&#45;&gt;Node6 -->
<g id="edge5" class="edge"><title>Node1&#45;&gt;Node6</title>
<path fill="none" stroke="midnightblue" d="M117.824,-113.561C141.182,-94.141 174.528,-68.5353 207,-51 213.303,-47.5965 220.072,-44.4315 226.924,-41.5321"/>
<polygon fill="midnightblue" stroke="midnightblue" points="115.394,-111.032 109.997,-120.149 119.902,-116.387 115.394,-111.032"/>
</g>
</g>
</svg>
