<?xml version="1.0" encoding="UTF-8" standalone="no"?>
<!DOCTYPE svg PUBLIC "-//W3C//DTD SVG 1.1//EN"
 "http://www.w3.org/Graphics/SVG/1.1/DTD/svg11.dtd">
<!-- Generated by graphviz version 2.38.0 (20140413.2041)
 -->
<!-- Title: src.harness.sas_interface.SasTestcaseInterface.assertRegistered Pages: 1 -->
<!--zoomable 1358 -->
<svg id="main" version="1.1" xmlns="http://www.w3.org/2000/svg" xmlns:xlink="http://www.w3.org/1999/xlink" xml:space="preserve" onload="init(evt)">
<style type="text/css"><![CDATA[
.edge:hover path { stroke: red; }
.edge:hover polygon { stroke: red; fill: red; }
]]></style>
<script type="text/javascript"><![CDATA[
var edges = document.getElementsByTagName('g');
if (edges && edges.length) {
  for (var i=0;i<edges.length;i++) {
    if (edges[i].id.substr(0,4)=='edge') {
      edges[i].setAttribute('class','edge');
    }
  }
}
]]></script>
        <defs>
                <circle id="rim" cx="0" cy="0" r="7"/>
                <circle id="rim2" cx="0" cy="0" r="3.5"/>
                <g id="zoomPlus">
                        <use xlink:href="#rim" fill="#404040">
                                <set attributeName="fill" to="#808080" begin="zoomplus.mouseover" end="zoomplus.mouseout"/>
                        </use>
                        <path d="M-4,0h8M0,-4v8" fill="none" stroke="white" stroke-width="1.5" pointer-events="none"/>
                </g>
                <g id="zoomMin">
                        <use xlink:href="#rim" fill="#404040">
                                <set attributeName="fill" to="#808080" begin="zoomminus.mouseover" end="zoomminus.mouseout"/>
                        </use>
                        <path d="M-4,0h8" fill="none" stroke="white" stroke-width="1.5" pointer-events="none"/>
                </g>
                <g id="dirArrow">
                        <path fill="none" stroke="white" stroke-width="1.5" d="M0,-3.0v7 M-2.5,-0.5L0,-3.0L2.5,-0.5"/>
                </g>
               <g id="resetDef">
                       <use xlink:href="#rim2" fill="#404040">
                               <set attributeName="fill" to="#808080" begin="reset.mouseover" end="reset.mouseout"/>
                       </use>
               </g>
        </defs>

<script type="text/javascript">
var viewWidth = 917;
var viewHeight = 1358;
var sectionId = 'dynsection-3';
</script>
<script xlink:href="../../svgpan.js"/>
<svg id="graph" class="graph">
<g id="viewport">
<title>src.harness.sas_interface.SasTestcaseInterface.assertRegistered</title>
<polygon fill="white" stroke="none" points="-4,4 -4,-1354 913,-1354 913,4 -4,4"/>
<!-- Node1 -->
<g id="node1" class="node"><title>Node1</title>
<polygon fill="#bfbfbf" stroke="black" points="0,-486 0,-516 190,-516 190,-486 0,-486"/>
<text text-anchor="start" x="8" y="-504" font-family="Helvetica,sans-Serif" font-size="10.00">src.harness.sas_interface.</text>
<text text-anchor="middle" x="95" y="-493" font-family="Helvetica,sans-Serif" font-size="10.00">SasTestcaseInterface.assertRegistered</text>
</g>
<!-- Node2 -->
<g id="node2" class="node"><title>Node2</title>
<g id="a_node2"><a xlink:href="../../df/ded/classsrc_1_1harness_1_1sas__interface_1_1SasTestcaseInterface.html#a30381223329eaa6c5394735a2ef90901" target="_top" xlink:title="src.harness.sas_interface.\lSasTestcaseInterface.assertValid\lResponseFormatForApprovedGrant">
<polygon fill="white" stroke="black" points="250.5,-1158.5 250.5,-1199.5 421.5,-1199.5 421.5,-1158.5 250.5,-1158.5"/>
<text text-anchor="start" x="258.5" y="-1187.5" font-family="Helvetica,sans-Serif" font-size="10.00">src.harness.sas_interface.</text>
<text text-anchor="start" x="258.5" y="-1176.5" font-family="Helvetica,sans-Serif" font-size="10.00">SasTestcaseInterface.assertValid</text>
<text text-anchor="middle" x="336" y="-1165.5" font-family="Helvetica,sans-Serif" font-size="10.00">ResponseFormatForApprovedGrant</text>
</a>
</g>
</g>
<!-- Node1&#45;&gt;Node2 -->
<g id="edge1" class="edge"><title>Node1&#45;&gt;Node2</title>
<path fill="none" stroke="midnightblue" d="M95.2633,-526.556C93.9445,-614.357 99.674,-908.825 226,-1101 242.233,-1125.69 269.186,-1145.08 292.227,-1158.35"/>
<polygon fill="midnightblue" stroke="midnightblue" points="98.7646,-526.515 95.4623,-516.448 91.766,-526.377 98.7646,-526.515"/>
</g>
<!-- Node6 -->
<g id="node6" class="node"><title>Node6</title>
<g id="a_node6"><a xlink:href="../../de/d99/classsrc_1_1harness_1_1testcases_1_1grant__testcase_1_1GrantTestcaseUsingOldIds.html#a748b120d69d64407e2b10d5aac28205e" target="_top" xlink:title="src.harness.testcases.grant\l_testcase.GrantTestcaseUsingOld\lIds.test_WINNF_FT_S_GRA_25">
<polygon fill="white" stroke="black" points="507.5,-1068.5 507.5,-1109.5 674.5,-1109.5 674.5,-1068.5 507.5,-1068.5"/>
<text text-anchor="start" x="515.5" y="-1097.5" font-family="Helvetica,sans-Serif" font-size="10.00">src.harness.testcases.grant</text>
<text text-anchor="start" x="515.5" y="-1086.5" font-family="Helvetica,sans-Serif" font-size="10.00">_testcase.GrantTestcaseUsingOld</text>
<text text-anchor="middle" x="591" y="-1075.5" font-family="Helvetica,sans-Serif" font-size="10.00">Ids.test_WINNF_FT_S_GRA_25</text>
</a>
</g>
</g>
<!-- Node1&#45;&gt;Node6 -->
<g id="edge21" class="edge"><title>Node1&#45;&gt;Node6</title>
<path fill="none" stroke="midnightblue" d="M99.6578,-526.214C112.995,-614.899 161.624,-910.733 226,-978 299.545,-1054.85 424.554,-1078.94 507.207,-1086.24"/>
<polygon fill="midnightblue" stroke="midnightblue" points="103.106,-525.607 98.1746,-516.23 96.1822,-526.635 103.106,-525.607"/>
</g>
<!-- Node8 -->
<g id="node8" class="node"><title>Node8</title>
<g id="a_node8"><a xlink:href="../../df/dc5/classsrc_1_1harness_1_1sas__testcase_1_1SasTestCase.html#a870278c04283b472528a33ba80519c67" target="_top" xlink:title="src.harness.sas_testcase.\lSasTestCase.assertRegisteredAnd\lGranted">
<polygon fill="white" stroke="black" points="250.5,-927.5 250.5,-968.5 421.5,-968.5 421.5,-927.5 250.5,-927.5"/>
<text text-anchor="start" x="258.5" y="-956.5" font-family="Helvetica,sans-Serif" font-size="10.00">src.harness.sas_testcase.</text>
<text text-anchor="start" x="258.5" y="-945.5" font-family="Helvetica,sans-Serif" font-size="10.00">SasTestCase.assertRegisteredAnd</text>
<text text-anchor="middle" x="336" y="-934.5" font-family="Helvetica,sans-Serif" font-size="10.00">Granted</text>
</a>
</g>
</g>
<!-- Node1&#45;&gt;Node8 -->
<g id="edge7" class="edge"><title>Node1&#45;&gt;Node8</title>
<path fill="none" stroke="midnightblue" d="M102.378,-526.018C117.671,-583.191 160.119,-726.532 226,-831 249.842,-868.806 286.807,-905.335 310.959,-927.241"/>
<polygon fill="midnightblue" stroke="midnightblue" points="105.69,-524.851 99.7608,-516.071 98.9208,-526.633 105.69,-524.851"/>
</g>
<!-- Node11 -->
<g id="node11" class="node"><title>Node11</title>
<g id="a_node11"><a xlink:href="../../db/df9/classsrc_1_1harness_1_1security__testcase_1_1SecurityTestCase.html#ae4503f0701e9fa5758f44cd21f8160f5" target="_top" xlink:title="src.harness.security\l_testcase.SecurityTestCase.do\lTestCipher">
<polygon fill="white" stroke="black" points="258.5,-780.5 258.5,-821.5 413.5,-821.5 413.5,-780.5 258.5,-780.5"/>
<text text-anchor="start" x="266.5" y="-809.5" font-family="Helvetica,sans-Serif" font-size="10.00">src.harness.security</text>
<text text-anchor="start" x="266.5" y="-798.5" font-family="Helvetica,sans-Serif" font-size="10.00">_testcase.SecurityTestCase.do</text>
<text text-anchor="middle" x="336" y="-787.5" font-family="Helvetica,sans-Serif" font-size="10.00">TestCipher</text>
</a>
</g>
</g>
<!-- Node1&#45;&gt;Node11 -->
<g id="edge10" class="edge"><title>Node1&#45;&gt;Node11</title>
<path fill="none" stroke="midnightblue" d="M100.838,-526.242C112.439,-579.749 146.957,-705.052 226,-771 235.419,-778.859 246.736,-784.668 258.463,-788.961"/>
<polygon fill="midnightblue" stroke="midnightblue" points="104.223,-525.327 98.7599,-516.249 97.3694,-526.752 104.223,-525.327"/>
</g>
<!-- Node22 -->
<g id="node22" class="node"><title>Node22</title>
<g id="a_node22"><a xlink:href="../../d5/de0/classsrc_1_1harness_1_1testcases_1_1WINNF__FT__S__GRA__testcase_1_1GrantTestcase.html#abca2e5f6b50a692b6860fb0a3be2dfe5" target="_top" xlink:title="src.harness.testcases.WINNF\l_FT_S_GRA_testcase.GrantTestcase.test\l_WINNF_FT_S_GRA_1">
<polygon fill="white" stroke="black" points="234.5,-720.5 234.5,-761.5 437.5,-761.5 437.5,-720.5 234.5,-720.5"/>
<text text-anchor="start" x="242.5" y="-749.5" font-family="Helvetica,sans-Serif" font-size="10.00">src.harness.testcases.WINNF</text>
<text text-anchor="start" x="242.5" y="-738.5" font-family="Helvetica,sans-Serif" font-size="10.00">_FT_S_GRA_testcase.GrantTestcase.test</text>
<text text-anchor="middle" x="336" y="-727.5" font-family="Helvetica,sans-Serif" font-size="10.00">_WINNF_FT_S_GRA_1</text>
</a>
</g>
</g>
<!-- Node1&#45;&gt;Node22 -->
<g id="edge22" class="edge"><title>Node1&#45;&gt;Node22</title>
<path fill="none" stroke="midnightblue" d="M104.398,-525.77C120.655,-569.911 160.692,-662.118 226,-711 230.714,-714.528 235.82,-717.642 241.161,-720.389"/>
<polygon fill="midnightblue" stroke="midnightblue" points="107.611,-524.362 100.945,-516.127 101.021,-526.722 107.611,-524.362"/>
</g>
<!-- Node23 -->
<g id="node23" class="node"><title>Node23</title>
<g id="a_node23"><a xlink:href="../../d5/de0/classsrc_1_1harness_1_1testcases_1_1WINNF__FT__S__GRA__testcase_1_1GrantTestcase.html#a2b09aed06fe88e98679f8d547fa5d193" target="_top" xlink:title="src.harness.testcases.WINNF\l_FT_S_GRA_testcase.GrantTestcase.test\l_WINNF_FT_S_GRA_8">
<polygon fill="white" stroke="black" points="234.5,-660.5 234.5,-701.5 437.5,-701.5 437.5,-660.5 234.5,-660.5"/>
<text text-anchor="start" x="242.5" y="-689.5" font-family="Helvetica,sans-Serif" font-size="10.00">src.harness.testcases.WINNF</text>
<text text-anchor="start" x="242.5" y="-678.5" font-family="Helvetica,sans-Serif" font-size="10.00">_FT_S_GRA_testcase.GrantTestcase.test</text>
<text text-anchor="middle" x="336" y="-667.5" font-family="Helvetica,sans-Serif" font-size="10.00">_WINNF_FT_S_GRA_8</text>
</a>
</g>
</g>
<!-- Node1&#45;&gt;Node23 -->
<g id="edge23" class="edge"><title>Node1&#45;&gt;Node23</title>
<path fill="none" stroke="midnightblue" d="M110.315,-525.041C131.417,-558.38 174.045,-618.235 226,-651 231.645,-654.56 237.712,-657.703 243.992,-660.478"/>
<polygon fill="midnightblue" stroke="midnightblue" points="113.191,-523.037 104.944,-516.386 107.243,-526.728 113.191,-523.037"/>
</g>
<!-- Node24 -->
<g id="node24" class="node"><title>Node24</title>
<g id="a_node24"><a xlink:href="../../d5/de0/classsrc_1_1harness_1_1testcases_1_1WINNF__FT__S__GRA__testcase_1_1GrantTestcase.html#a21141affece7458af2b68c5d9a62cfa9" target="_top" xlink:title="src.harness.testcases.WINNF\l_FT_S_GRA_testcase.GrantTestcase.test\l_WINNF_FT_S_GRA_9">
<polygon fill="white" stroke="black" points="234.5,-600.5 234.5,-641.5 437.5,-641.5 437.5,-600.5 234.5,-600.5"/>
<text text-anchor="start" x="242.5" y="-629.5" font-family="Helvetica,sans-Serif" font-size="10.00">src.harness.testcases.WINNF</text>
<text text-anchor="start" x="242.5" y="-618.5" font-family="Helvetica,sans-Serif" font-size="10.00">_FT_S_GRA_testcase.GrantTestcase.test</text>
<text text-anchor="middle" x="336" y="-607.5" font-family="Helvetica,sans-Serif" font-size="10.00">_WINNF_FT_S_GRA_9</text>
</a>
</g>
</g>
<!-- Node1&#45;&gt;Node24 -->
<g id="edge24" class="edge"><title>Node1&#45;&gt;Node24</title>
<path fill="none" stroke="midnightblue" d="M121.661,-522.697C146.79,-542.955 186.898,-572.732 226,-591 233.469,-594.489 241.42,-597.641 249.496,-600.472"/>
<polygon fill="midnightblue" stroke="midnightblue" points="123.695,-519.839 113.737,-516.222 119.266,-525.259 123.695,-519.839"/>
</g>
<!-- Node25 -->
<g id="node25" class="node"><title>Node25</title>
<g id="a_node25"><a xlink:href="../../d5/de0/classsrc_1_1harness_1_1testcases_1_1WINNF__FT__S__GRA__testcase_1_1GrantTestcase.html#aea1b5b02b16c21167a6fc3ac207fa1a6" target="_top" xlink:title="src.harness.testcases.WINNF\l_FT_S_GRA_testcase.GrantTestcase.test\l_WINNF_FT_S_GRA_10">
<polygon fill="white" stroke="black" points="234.5,-540.5 234.5,-581.5 437.5,-581.5 437.5,-540.5 234.5,-540.5"/>
<text text-anchor="start" x="242.5" y="-569.5" font-family="Helvetica,sans-Serif" font-size="10.00">src.harness.testcases.WINNF</text>
<text text-anchor="start" x="242.5" y="-558.5" font-family="Helvetica,sans-Serif" font-size="10.00">_FT_S_GRA_testcase.GrantTestcase.test</text>
<text text-anchor="middle" x="336" y="-547.5" font-family="Helvetica,sans-Serif" font-size="10.00">_WINNF_FT_S_GRA_10</text>
</a>
</g>
</g>
<!-- Node1&#45;&gt;Node25 -->
<g id="edge25" class="edge"><title>Node1&#45;&gt;Node25</title>
<path fill="none" stroke="midnightblue" d="M165.884,-518.544C193.265,-525.418 224.871,-533.352 253.296,-540.489"/>
<polygon fill="midnightblue" stroke="midnightblue" points="166.553,-515.103 156.001,-516.063 164.848,-521.893 166.553,-515.103"/>
</g>
<!-- Node26 -->
<g id="node26" class="node"><title>Node26</title>
<g id="a_node26"><a xlink:href="../../d5/de0/classsrc_1_1harness_1_1testcases_1_1WINNF__FT__S__GRA__testcase_1_1GrantTestcase.html#a57891611cbef75fc784c2a746b96ce62" target="_top" xlink:title="src.harness.testcases.WINNF\l_FT_S_GRA_testcase.GrantTestcase.test\l_WINNF_FT_S_GRA_13">
<polygon fill="white" stroke="black" points="234.5,-480.5 234.5,-521.5 437.5,-521.5 437.5,-480.5 234.5,-480.5"/>
<text text-anchor="start" x="242.5" y="-509.5" font-family="Helvetica,sans-Serif" font-size="10.00">src.harness.testcases.WINNF</text>
<text text-anchor="start" x="242.5" y="-498.5" font-family="Helvetica,sans-Serif" font-size="10.00">_FT_S_GRA_testcase.GrantTestcase.test</text>
<text text-anchor="middle" x="336" y="-487.5" font-family="Helvetica,sans-Serif" font-size="10.00">_WINNF_FT_S_GRA_13</text>
</a>
</g>
</g>
<!-- Node1&#45;&gt;Node26 -->
<g id="edge26" class="edge"><title>Node1&#45;&gt;Node26</title>
<path fill="none" stroke="midnightblue" d="M200.386,-501C211.636,-501 223.069,-501 234.275,-501"/>
<polygon fill="midnightblue" stroke="midnightblue" points="200.116,-497.5 190.116,-501 200.116,-504.5 200.116,-497.5"/>
</g>
<!-- Node27 -->
<g id="node27" class="node"><title>Node27</title>
<g id="a_node27"><a xlink:href="../../d5/d7b/classsrc_1_1harness_1_1testcases_1_1WINNF__FT__S__HBT__testcase_1_1HeartbeatTestcase.html#a6730b922e07121cfce4aa15f467ea5c2" target="_top" xlink:title="src.harness.testcases.WINNF\l_FT_S_HBT_testcase.HeartbeatTestcase.test\l_WINNF_FT_S_HBT_6">
<polygon fill="white" stroke="black" points="226,-420.5 226,-461.5 446,-461.5 446,-420.5 226,-420.5"/>
<text text-anchor="start" x="234" y="-449.5" font-family="Helvetica,sans-Serif" font-size="10.00">src.harness.testcases.WINNF</text>
<text text-anchor="start" x="234" y="-438.5" font-family="Helvetica,sans-Serif" font-size="10.00">_FT_S_HBT_testcase.HeartbeatTestcase.test</text>
<text text-anchor="middle" x="336" y="-427.5" font-family="Helvetica,sans-Serif" font-size="10.00">_WINNF_FT_S_HBT_6</text>
</a>
</g>
</g>
<!-- Node1&#45;&gt;Node27 -->
<g id="edge27" class="edge"><title>Node1&#45;&gt;Node27</title>
<path fill="none" stroke="midnightblue" d="M165.884,-483.456C193.265,-476.582 224.871,-468.648 253.296,-461.511"/>
<polygon fill="midnightblue" stroke="midnightblue" points="164.848,-480.107 156.001,-485.937 166.553,-486.897 164.848,-480.107"/>
</g>
<!-- Node28 -->
<g id="node28" class="node"><title>Node28</title>
<g id="a_node28"><a xlink:href="../../d5/d7b/classsrc_1_1harness_1_1testcases_1_1WINNF__FT__S__HBT__testcase_1_1HeartbeatTestcase.html#acf582340583590aaee9bd845be90091b" target="_top" xlink:title="src.harness.testcases.WINNF\l_FT_S_HBT_testcase.HeartbeatTestcase.test\l_WINNF_FT_S_HBT_8">
<polygon fill="white" stroke="black" points="226,-360.5 226,-401.5 446,-401.5 446,-360.5 226,-360.5"/>
<text text-anchor="start" x="234" y="-389.5" font-family="Helvetica,sans-Serif" font-size="10.00">src.harness.testcases.WINNF</text>
<text text-anchor="start" x="234" y="-378.5" font-family="Helvetica,sans-Serif" font-size="10.00">_FT_S_HBT_testcase.HeartbeatTestcase.test</text>
<text text-anchor="middle" x="336" y="-367.5" font-family="Helvetica,sans-Serif" font-size="10.00">_WINNF_FT_S_HBT_8</text>
</a>
</g>
</g>
<!-- Node1&#45;&gt;Node28 -->
<g id="edge28" class="edge"><title>Node1&#45;&gt;Node28</title>
<path fill="none" stroke="midnightblue" d="M121.661,-479.303C146.79,-459.045 186.898,-429.268 226,-411 233.469,-407.511 241.42,-404.359 249.496,-401.528"/>
<polygon fill="midnightblue" stroke="midnightblue" points="119.266,-476.741 113.737,-485.778 123.695,-482.161 119.266,-476.741"/>
</g>
<!-- Node29 -->
<g id="node29" class="node"><title>Node29</title>
<g id="a_node29"><a xlink:href="../../d5/d7b/classsrc_1_1harness_1_1testcases_1_1WINNF__FT__S__HBT__testcase_1_1HeartbeatTestcase.html#af9e853e93ac2fc611be0f8d9dbcbf647" target="_top" xlink:title="src.harness.testcases.WINNF\l_FT_S_HBT_testcase.HeartbeatTestcase.test\l_WINNF_FT_S_HBT_9">
<polygon fill="white" stroke="black" points="226,-300.5 226,-341.5 446,-341.5 446,-300.5 226,-300.5"/>
<text text-anchor="start" x="234" y="-329.5" font-family="Helvetica,sans-Serif" font-size="10.00">src.harness.testcases.WINNF</text>
<text text-anchor="start" x="234" y="-318.5" font-family="Helvetica,sans-Serif" font-size="10.00">_FT_S_HBT_testcase.HeartbeatTestcase.test</text>
<text text-anchor="middle" x="336" y="-307.5" font-family="Helvetica,sans-Serif" font-size="10.00">_WINNF_FT_S_HBT_9</text>
</a>
</g>
</g>
<!-- Node1&#45;&gt;Node29 -->
<g id="edge29" class="edge"><title>Node1&#45;&gt;Node29</title>
<path fill="none" stroke="midnightblue" d="M110.315,-476.959C131.417,-443.62 174.045,-383.765 226,-351 231.645,-347.44 237.712,-344.297 243.992,-341.522"/>
<polygon fill="midnightblue" stroke="midnightblue" points="107.243,-475.272 104.944,-485.614 113.191,-478.963 107.243,-475.272"/>
</g>
<!-- Node30 -->
<g id="node30" class="node"><title>Node30</title>
<g id="a_node30"><a xlink:href="../../dd/df3/classsrc_1_1harness_1_1testcases_1_1WINNF__FT__S__SIQ__testcase_1_1SpectrumInquiryTestcase.html#af164604ec7d8713b9c171c379df8c97b" target="_top" xlink:title="src.harness.testcases.WINNF\l_FT_S_SIQ_testcase.SpectrumInquiry\lTestcase.test_WINNF_FT_S_SIQ_2">
<polygon fill="white" stroke="black" points="243.5,-240.5 243.5,-281.5 428.5,-281.5 428.5,-240.5 243.5,-240.5"/>
<text text-anchor="start" x="251.5" y="-269.5" font-family="Helvetica,sans-Serif" font-size="10.00">src.harness.testcases.WINNF</text>
<text text-anchor="start" x="251.5" y="-258.5" font-family="Helvetica,sans-Serif" font-size="10.00">_FT_S_SIQ_testcase.SpectrumInquiry</text>
<text text-anchor="middle" x="336" y="-247.5" font-family="Helvetica,sans-Serif" font-size="10.00">Testcase.test_WINNF_FT_S_SIQ_2</text>
</a>
</g>
</g>
<!-- Node1&#45;&gt;Node30 -->
<g id="edge30" class="edge"><title>Node1&#45;&gt;Node30</title>
<path fill="none" stroke="midnightblue" d="M104.398,-476.23C120.655,-432.089 160.692,-339.882 226,-291 231.342,-287.001 237.189,-283.535 243.31,-280.532"/>
<polygon fill="midnightblue" stroke="midnightblue" points="101.021,-475.278 100.945,-485.873 107.611,-477.638 101.021,-475.278"/>
</g>
<!-- Node31 -->
<g id="node31" class="node"><title>Node31</title>
<g id="a_node31"><a xlink:href="../../dd/df3/classsrc_1_1harness_1_1testcases_1_1WINNF__FT__S__SIQ__testcase_1_1SpectrumInquiryTestcase.html#ac8377a3a254db13e5a011fdfca390d8c" target="_top" xlink:title="src.harness.testcases.WINNF\l_FT_S_SIQ_testcase.SpectrumInquiry\lTestcase.test_WINNF_FT_S_SIQ_4">
<polygon fill="white" stroke="black" points="243.5,-180.5 243.5,-221.5 428.5,-221.5 428.5,-180.5 243.5,-180.5"/>
<text text-anchor="start" x="251.5" y="-209.5" font-family="Helvetica,sans-Serif" font-size="10.00">src.harness.testcases.WINNF</text>
<text text-anchor="start" x="251.5" y="-198.5" font-family="Helvetica,sans-Serif" font-size="10.00">_FT_S_SIQ_testcase.SpectrumInquiry</text>
<text text-anchor="middle" x="336" y="-187.5" font-family="Helvetica,sans-Serif" font-size="10.00">Testcase.test_WINNF_FT_S_SIQ_4</text>
</a>
</g>
</g>
<!-- Node1&#45;&gt;Node31 -->
<g id="edge31" class="edge"><title>Node1&#45;&gt;Node31</title>
<path fill="none" stroke="midnightblue" d="M100.838,-475.758C112.439,-422.251 146.957,-296.948 226,-231 231.275,-226.599 237.145,-222.841 243.348,-219.632"/>
<polygon fill="midnightblue" stroke="midnightblue" points="97.3694,-475.248 98.7599,-485.751 104.223,-476.673 97.3694,-475.248"/>
</g>
<!-- Node32 -->
<g id="node32" class="node"><title>Node32</title>
<g id="a_node32"><a xlink:href="../../dd/df3/classsrc_1_1harness_1_1testcases_1_1WINNF__FT__S__SIQ__testcase_1_1SpectrumInquiryTestcase.html#ae08c82f207c20e034a68e51a3096a8a4" target="_top" xlink:title="src.harness.testcases.WINNF\l_FT_S_SIQ_testcase.SpectrumInquiry\lTestcase.test_WINNF_FT_S_SIQ_5">
<polygon fill="white" stroke="black" points="243.5,-120.5 243.5,-161.5 428.5,-161.5 428.5,-120.5 243.5,-120.5"/>
<text text-anchor="start" x="251.5" y="-149.5" font-family="Helvetica,sans-Serif" font-size="10.00">src.harness.testcases.WINNF</text>
<text text-anchor="start" x="251.5" y="-138.5" font-family="Helvetica,sans-Serif" font-size="10.00">_FT_S_SIQ_testcase.SpectrumInquiry</text>
<text text-anchor="middle" x="336" y="-127.5" font-family="Helvetica,sans-Serif" font-size="10.00">Testcase.test_WINNF_FT_S_SIQ_5</text>
</a>
</g>
</g>
<!-- Node1&#45;&gt;Node32 -->
<g id="edge32" class="edge"><title>Node1&#45;&gt;Node32</title>
<path fill="none" stroke="midnightblue" d="M98.3717,-475.865C105.553,-414.296 132.673,-254.866 226,-171 231.183,-166.343 237.024,-162.4 243.242,-159.064"/>
<polygon fill="midnightblue" stroke="midnightblue" points="94.8866,-475.539 97.2838,-485.859 101.846,-476.297 94.8866,-475.539"/>
</g>
<!-- Node33 -->
<g id="node33" class="node"><title>Node33</title>
<g id="a_node33"><a xlink:href="../../dd/df3/classsrc_1_1harness_1_1testcases_1_1WINNF__FT__S__SIQ__testcase_1_1SpectrumInquiryTestcase.html#a0d4f3fcfc17ad9efb42163561ac8d7c4" target="_top" xlink:title="src.harness.testcases.WINNF\l_FT_S_SIQ_testcase.SpectrumInquiry\lTestcase.test_WINNF_FT_S_SIQ_9">
<polygon fill="white" stroke="black" points="243.5,-60.5 243.5,-101.5 428.5,-101.5 428.5,-60.5 243.5,-60.5"/>
<text text-anchor="start" x="251.5" y="-89.5" font-family="Helvetica,sans-Serif" font-size="10.00">src.harness.testcases.WINNF</text>
<text text-anchor="start" x="251.5" y="-78.5" font-family="Helvetica,sans-Serif" font-size="10.00">_FT_S_SIQ_testcase.SpectrumInquiry</text>
<text text-anchor="middle" x="336" y="-67.5" font-family="Helvetica,sans-Serif" font-size="10.00">Testcase.test_WINNF_FT_S_SIQ_9</text>
</a>
</g>
</g>
<!-- Node1&#45;&gt;Node33 -->
<g id="edge33" class="edge"><title>Node1&#45;&gt;Node33</title>
<path fill="none" stroke="midnightblue" d="M96.641,-475.661C99.8047,-406.539 118.338,-213.084 226,-111 231.199,-106.071 237.131,-101.937 243.481,-98.4728"/>
<polygon fill="midnightblue" stroke="midnightblue" points="93.1437,-475.526 96.254,-485.654 100.138,-475.797 93.1437,-475.526"/>
</g>
<!-- Node34 -->
<g id="node34" class="node"><title>Node34</title>
<g id="a_node34"><a xlink:href="../../dd/df3/classsrc_1_1harness_1_1testcases_1_1WINNF__FT__S__SIQ__testcase_1_1SpectrumInquiryTestcase.html#a3161bd70906204c17e668b78f54c4f72" target="_top" xlink:title="src.harness.testcases.WINNF\l_FT_S_SIQ_testcase.SpectrumInquiry\lTestcase.test_WINNF_FT_S_SIQ_13">
<polygon fill="white" stroke="black" points="243.5,-0.5 243.5,-41.5 428.5,-41.5 428.5,-0.5 243.5,-0.5"/>
<text text-anchor="start" x="251.5" y="-29.5" font-family="Helvetica,sans-Serif" font-size="10.00">src.harness.testcases.WINNF</text>
<text text-anchor="start" x="251.5" y="-18.5" font-family="Helvetica,sans-Serif" font-size="10.00">_FT_S_SIQ_testcase.SpectrumInquiry</text>
<text text-anchor="middle" x="336" y="-7.5" font-family="Helvetica,sans-Serif" font-size="10.00">Testcase.test_WINNF_FT_S_SIQ_13</text>
</a>
</g>
</g>
<!-- Node1&#45;&gt;Node34 -->
<g id="edge34" class="edge"><title>Node1&#45;&gt;Node34</title>
<path fill="none" stroke="midnightblue" d="M95.3216,-475.477C94.7525,-399.338 103.838,-171.626 226,-51 231.098,-45.9665 236.957,-41.7584 243.258,-38.2428"/>
<polygon fill="midnightblue" stroke="midnightblue" points="91.8233,-475.63 95.4634,-485.58 98.8227,-475.532 91.8233,-475.63"/>
</g>
<!-- Node3 -->
<g id="node3" class="node"><title>Node3</title>
<g id="a_node3"><a xlink:href="../../de/d99/classsrc_1_1harness_1_1testcases_1_1grant__testcase_1_1GrantTestcaseUsingOldIds.html#aeb64c8f939edb9894f97553ec90845e1" target="_top" xlink:title="src.harness.testcases.grant\l_testcase.GrantTestcaseUsingOld\lIds.test_WINNF_FT_S_GRA_18">
<polygon fill="white" stroke="black" points="507.5,-1308.5 507.5,-1349.5 674.5,-1349.5 674.5,-1308.5 507.5,-1308.5"/>
<text text-anchor="start" x="515.5" y="-1337.5" font-family="Helvetica,sans-Serif" font-size="10.00">src.harness.testcases.grant</text>
<text text-anchor="start" x="515.5" y="-1326.5" font-family="Helvetica,sans-Serif" font-size="10.00">_testcase.GrantTestcaseUsingOld</text>
<text text-anchor="middle" x="591" y="-1315.5" font-family="Helvetica,sans-Serif" font-size="10.00">Ids.test_WINNF_FT_S_GRA_18</text>
</a>
</g>
</g>
<!-- Node2&#45;&gt;Node3 -->
<g id="edge2" class="edge"><title>Node2&#45;&gt;Node3</title>
<path fill="none" stroke="midnightblue" d="M363.816,-1207.25C391.136,-1234.46 435.93,-1274.95 482,-1299 489.935,-1303.14 498.506,-1306.77 507.227,-1309.92"/>
<polygon fill="midnightblue" stroke="midnightblue" points="366.11,-1204.59 356.587,-1199.95 361.137,-1209.52 366.11,-1204.59"/>
</g>
<!-- Node4 -->
<g id="node4" class="node"><title>Node4</title>
<g id="a_node4"><a xlink:href="../../de/d99/classsrc_1_1harness_1_1testcases_1_1grant__testcase_1_1GrantTestcaseUsingOldIds.html#adcef04cb1005e795f346ecc8b5878768" target="_top" xlink:title="src.harness.testcases.grant\l_testcase.GrantTestcaseUsingOld\lIds.test_WINNF_FT_S_GRA_20">
<polygon fill="white" stroke="black" points="507.5,-1248.5 507.5,-1289.5 674.5,-1289.5 674.5,-1248.5 507.5,-1248.5"/>
<text text-anchor="start" x="515.5" y="-1277.5" font-family="Helvetica,sans-Serif" font-size="10.00">src.harness.testcases.grant</text>
<text text-anchor="start" x="515.5" y="-1266.5" font-family="Helvetica,sans-Serif" font-size="10.00">_testcase.GrantTestcaseUsingOld</text>
<text text-anchor="middle" x="591" y="-1255.5" font-family="Helvetica,sans-Serif" font-size="10.00">Ids.test_WINNF_FT_S_GRA_20</text>
</a>
</g>
</g>
<!-- Node2&#45;&gt;Node4 -->
<g id="edge3" class="edge"><title>Node2&#45;&gt;Node4</title>
<path fill="none" stroke="midnightblue" d="M392.041,-1203.62C418.881,-1215.15 451.815,-1228.61 482,-1239 491.568,-1242.29 501.705,-1245.49 511.785,-1248.49"/>
<polygon fill="midnightblue" stroke="midnightblue" points="393.383,-1200.39 382.816,-1199.63 390.604,-1206.82 393.383,-1200.39"/>
</g>
<!-- Node5 -->
<g id="node5" class="node"><title>Node5</title>
<g id="a_node5"><a xlink:href="../../de/d99/classsrc_1_1harness_1_1testcases_1_1grant__testcase_1_1GrantTestcaseUsingOldIds.html#a2b77c4ea5bcf549ec91e938682dd9044" target="_top" xlink:title="src.harness.testcases.grant\l_testcase.GrantTestcaseUsingOld\lIds.test_WINNF_FT_S_GRA_23">
<polygon fill="white" stroke="black" points="507.5,-1188.5 507.5,-1229.5 674.5,-1229.5 674.5,-1188.5 507.5,-1188.5"/>
<text text-anchor="start" x="515.5" y="-1217.5" font-family="Helvetica,sans-Serif" font-size="10.00">src.harness.testcases.grant</text>
<text text-anchor="start" x="515.5" y="-1206.5" font-family="Helvetica,sans-Serif" font-size="10.00">_testcase.GrantTestcaseUsingOld</text>
<text text-anchor="middle" x="591" y="-1195.5" font-family="Helvetica,sans-Serif" font-size="10.00">Ids.test_WINNF_FT_S_GRA_23</text>
</a>
</g>
</g>
<!-- Node2&#45;&gt;Node5 -->
<g id="edge4" class="edge"><title>Node2&#45;&gt;Node5</title>
<path fill="none" stroke="midnightblue" d="M431.738,-1190.23C456.537,-1193.17 483.078,-1196.32 507.202,-1199.18"/>
<polygon fill="midnightblue" stroke="midnightblue" points="431.94,-1186.73 421.597,-1189.03 431.115,-1193.68 431.94,-1186.73"/>
</g>
<!-- Node2&#45;&gt;Node6 -->
<g id="edge5" class="edge"><title>Node2&#45;&gt;Node6</title>
<path fill="none" stroke="midnightblue" d="M392.041,-1154.38C418.881,-1142.85 451.815,-1129.39 482,-1119 491.568,-1115.71 501.705,-1112.51 511.785,-1109.51"/>
<polygon fill="midnightblue" stroke="midnightblue" points="390.604,-1151.18 382.816,-1158.37 393.383,-1157.61 390.604,-1151.18"/>
</g>
<!-- Node7 -->
<g id="node7" class="node"><title>Node7</title>
<g id="a_node7"><a xlink:href="../../de/d99/classsrc_1_1harness_1_1testcases_1_1grant__testcase_1_1GrantTestcaseUsingOldIds.html#a9459aa8c472f50cb8d89b89e504ef816" target="_top" xlink:title="src.harness.testcases.grant\l_testcase.GrantTestcaseUsingOld\lIds.test_WINNF_FT_S_GRA_26">
<polygon fill="white" stroke="black" points="507.5,-1128.5 507.5,-1169.5 674.5,-1169.5 674.5,-1128.5 507.5,-1128.5"/>
<text text-anchor="start" x="515.5" y="-1157.5" font-family="Helvetica,sans-Serif" font-size="10.00">src.harness.testcases.grant</text>
<text text-anchor="start" x="515.5" y="-1146.5" font-family="Helvetica,sans-Serif" font-size="10.00">_testcase.GrantTestcaseUsingOld</text>
<text text-anchor="middle" x="591" y="-1135.5" font-family="Helvetica,sans-Serif" font-size="10.00">Ids.test_WINNF_FT_S_GRA_26</text>
</a>
</g>
</g>
<!-- Node2&#45;&gt;Node7 -->
<g id="edge6" class="edge"><title>Node2&#45;&gt;Node7</title>
<path fill="none" stroke="midnightblue" d="M431.738,-1167.77C456.537,-1164.83 483.078,-1161.68 507.202,-1158.82"/>
<polygon fill="midnightblue" stroke="midnightblue" points="431.115,-1164.32 421.597,-1168.97 431.94,-1171.27 431.115,-1164.32"/>
</g>
<!-- Node9 -->
<g id="node9" class="node"><title>Node9</title>
<g id="a_node9"><a xlink:href="../../df/dc5/classsrc_1_1harness_1_1sas__testcase_1_1SasTestCase.html#a28b72ffa7d5098fb69bc91ddf7ee7f20" target="_top" xlink:title="src.harness.sas_testcase.\lSasTestCase.assertRegistered">
<polygon fill="white" stroke="black" points="514,-1020 514,-1050 668,-1050 668,-1020 514,-1020"/>
<text text-anchor="start" x="522" y="-1038" font-family="Helvetica,sans-Serif" font-size="10.00">src.harness.sas_testcase.</text>
<text text-anchor="middle" x="591" y="-1027" font-family="Helvetica,sans-Serif" font-size="10.00">SasTestCase.assertRegistered</text>
</a>
</g>
</g>
<!-- Node8&#45;&gt;Node9 -->
<g id="edge8" class="edge"><title>Node8&#45;&gt;Node9</title>
<path fill="none" stroke="midnightblue" d="M387.749,-972.895C415.167,-985.613 449.894,-1000.56 482,-1011 492.229,-1014.32 503.151,-1017.34 513.973,-1020.03"/>
<polygon fill="midnightblue" stroke="midnightblue" points="388.913,-969.575 378.373,-968.501 385.942,-975.913 388.913,-969.575"/>
</g>
<!-- Node10 -->
<g id="node10" class="node"><title>Node10</title>
<g id="a_node10"><a xlink:href="../../df/dc5/classsrc_1_1harness_1_1sas__testcase_1_1SasTestCase.html#a1690e73264aa42576f9e1bbd37e4d2b0" target="_top" xlink:title="src.harness.sas_testcase.\lSasTestCase.assertValidResponse\lFormatForApprovedGrant">
<polygon fill="white" stroke="black" points="736,-1014.5 736,-1055.5 909,-1055.5 909,-1014.5 736,-1014.5"/>
<text text-anchor="start" x="744" y="-1043.5" font-family="Helvetica,sans-Serif" font-size="10.00">src.harness.sas_testcase.</text>
<text text-anchor="start" x="744" y="-1032.5" font-family="Helvetica,sans-Serif" font-size="10.00">SasTestCase.assertValidResponse</text>
<text text-anchor="middle" x="822.5" y="-1021.5" font-family="Helvetica,sans-Serif" font-size="10.00">FormatForApprovedGrant</text>
</a>
</g>
</g>
<!-- Node9&#45;&gt;Node10 -->
<g id="edge9" class="edge"><title>Node9&#45;&gt;Node10</title>
<path fill="none" stroke="midnightblue" d="M678.132,-1035C696.958,-1035 716.882,-1035 735.695,-1035"/>
<polygon fill="midnightblue" stroke="midnightblue" points="678.101,-1031.5 668.101,-1035 678.101,-1038.5 678.101,-1031.5"/>
</g>
<!-- Node12 -->
<g id="node12" class="node"><title>Node12</title>
<g id="a_node12"><a xlink:href="../../da/d08/classsrc_1_1harness_1_1testcases_1_1WINNF__FT__S__SCS__testcase_1_1SasCbsdSecurityTestcase.html#a9be08abb1cd25ad40d9deecdb05dcede" target="_top" xlink:title="src.harness.testcases.WINNF\l_FT_S_SCS_testcase.SasCbsdSecurity\lTestcase.test_WINNF_FT_S_SCS_1">
<polygon fill="white" stroke="black" points="494,-960.5 494,-1001.5 688,-1001.5 688,-960.5 494,-960.5"/>
<text text-anchor="start" x="502" y="-989.5" font-family="Helvetica,sans-Serif" font-size="10.00">src.harness.testcases.WINNF</text>
<text text-anchor="start" x="502" y="-978.5" font-family="Helvetica,sans-Serif" font-size="10.00">_FT_S_SCS_testcase.SasCbsdSecurity</text>
<text text-anchor="middle" x="591" y="-967.5" font-family="Helvetica,sans-Serif" font-size="10.00">Testcase.test_WINNF_FT_S_SCS_1</text>
</a>
</g>
</g>
<!-- Node11&#45;&gt;Node12 -->
<g id="edge11" class="edge"><title>Node11&#45;&gt;Node12</title>
<path fill="none" stroke="midnightblue" d="M362.635,-829.071C400.336,-870.112 467.817,-942.563 482,-951 487.937,-954.532 494.305,-957.661 500.869,-960.432"/>
<polygon fill="midnightblue" stroke="midnightblue" points="365.078,-826.556 355.739,-821.553 359.919,-831.288 365.078,-826.556"/>
</g>
<!-- Node13 -->
<g id="node13" class="node"><title>Node13</title>
<g id="a_node13"><a xlink:href="../../da/d08/classsrc_1_1harness_1_1testcases_1_1WINNF__FT__S__SCS__testcase_1_1SasCbsdSecurityTestcase.html#a9a24b10eaed496d910bc1e75539823cc" target="_top" xlink:title="src.harness.testcases.WINNF\l_FT_S_SCS_testcase.SasCbsdSecurity\lTestcase.test_WINNF_FT_S_SCS_2">
<polygon fill="white" stroke="black" points="494,-900.5 494,-941.5 688,-941.5 688,-900.5 494,-900.5"/>
<text text-anchor="start" x="502" y="-929.5" font-family="Helvetica,sans-Serif" font-size="10.00">src.harness.testcases.WINNF</text>
<text text-anchor="start" x="502" y="-918.5" font-family="Helvetica,sans-Serif" font-size="10.00">_FT_S_SCS_testcase.SasCbsdSecurity</text>
<text text-anchor="middle" x="591" y="-907.5" font-family="Helvetica,sans-Serif" font-size="10.00">Testcase.test_WINNF_FT_S_SCS_2</text>
</a>
</g>
</g>
<!-- Node11&#45;&gt;Node13 -->
<g id="edge12" class="edge"><title>Node11&#45;&gt;Node13</title>
<path fill="none" stroke="midnightblue" d="M373.217,-827.544C401.62,-847.332 442.778,-873.802 482,-891 489.842,-894.438 498.178,-897.581 506.608,-900.428"/>
<polygon fill="midnightblue" stroke="midnightblue" points="375.019,-824.532 364.828,-821.635 370.988,-830.255 375.019,-824.532"/>
</g>
<!-- Node14 -->
<g id="node14" class="node"><title>Node14</title>
<g id="a_node14"><a xlink:href="../../da/d08/classsrc_1_1harness_1_1testcases_1_1WINNF__FT__S__SCS__testcase_1_1SasCbsdSecurityTestcase.html#ac71116f6a9b86f82473e4deb4a95ea06" target="_top" xlink:title="src.harness.testcases.WINNF\l_FT_S_SCS_testcase.SasCbsdSecurity\lTestcase.test_WINNF_FT_S_SCS_3">
<polygon fill="white" stroke="black" points="494,-840.5 494,-881.5 688,-881.5 688,-840.5 494,-840.5"/>
<text text-anchor="start" x="502" y="-869.5" font-family="Helvetica,sans-Serif" font-size="10.00">src.harness.testcases.WINNF</text>
<text text-anchor="start" x="502" y="-858.5" font-family="Helvetica,sans-Serif" font-size="10.00">_FT_S_SCS_testcase.SasCbsdSecurity</text>
<text text-anchor="middle" x="591" y="-847.5" font-family="Helvetica,sans-Serif" font-size="10.00">Testcase.test_WINNF_FT_S_SCS_3</text>
</a>
</g>
</g>
<!-- Node11&#45;&gt;Node14 -->
<g id="edge13" class="edge"><title>Node11&#45;&gt;Node14</title>
<path fill="none" stroke="midnightblue" d="M423.376,-821.484C449.243,-827.619 477.607,-834.346 503.483,-840.482"/>
<polygon fill="midnightblue" stroke="midnightblue" points="424.133,-818.067 413.595,-819.165 422.517,-824.878 424.133,-818.067"/>
</g>
<!-- Node15 -->
<g id="node15" class="node"><title>Node15</title>
<g id="a_node15"><a xlink:href="../../da/d08/classsrc_1_1harness_1_1testcases_1_1WINNF__FT__S__SCS__testcase_1_1SasCbsdSecurityTestcase.html#ac6c3476e4632ab71aac6aae3ba7e29b4" target="_top" xlink:title="src.harness.testcases.WINNF\l_FT_S_SCS_testcase.SasCbsdSecurity\lTestcase.test_WINNF_FT_S_SCS_4">
<polygon fill="white" stroke="black" points="494,-780.5 494,-821.5 688,-821.5 688,-780.5 494,-780.5"/>
<text text-anchor="start" x="502" y="-809.5" font-family="Helvetica,sans-Serif" font-size="10.00">src.harness.testcases.WINNF</text>
<text text-anchor="start" x="502" y="-798.5" font-family="Helvetica,sans-Serif" font-size="10.00">_FT_S_SCS_testcase.SasCbsdSecurity</text>
<text text-anchor="middle" x="591" y="-787.5" font-family="Helvetica,sans-Serif" font-size="10.00">Testcase.test_WINNF_FT_S_SCS_4</text>
</a>
</g>
</g>
<!-- Node11&#45;&gt;Node15 -->
<g id="edge14" class="edge"><title>Node11&#45;&gt;Node15</title>
<path fill="none" stroke="midnightblue" d="M423.834,-801C446.432,-801 470.91,-801 493.954,-801"/>
<polygon fill="midnightblue" stroke="midnightblue" points="423.595,-797.5 413.595,-801 423.595,-804.5 423.595,-797.5"/>
</g>
<!-- Node16 -->
<g id="node16" class="node"><title>Node16</title>
<g id="a_node16"><a xlink:href="../../da/d08/classsrc_1_1harness_1_1testcases_1_1WINNF__FT__S__SCS__testcase_1_1SasCbsdSecurityTestcase.html#a056c5b611a63d4c3a90816e893c152b8" target="_top" xlink:title="src.harness.testcases.WINNF\l_FT_S_SCS_testcase.SasCbsdSecurity\lTestcase.test_WINNF_FT_S_SCS_5">
<polygon fill="white" stroke="black" points="494,-720.5 494,-761.5 688,-761.5 688,-720.5 494,-720.5"/>
<text text-anchor="start" x="502" y="-749.5" font-family="Helvetica,sans-Serif" font-size="10.00">src.harness.testcases.WINNF</text>
<text text-anchor="start" x="502" y="-738.5" font-family="Helvetica,sans-Serif" font-size="10.00">_FT_S_SCS_testcase.SasCbsdSecurity</text>
<text text-anchor="middle" x="591" y="-727.5" font-family="Helvetica,sans-Serif" font-size="10.00">Testcase.test_WINNF_FT_S_SCS_5</text>
</a>
</g>
</g>
<!-- Node11&#45;&gt;Node16 -->
<g id="edge15" class="edge"><title>Node11&#45;&gt;Node16</title>
<path fill="none" stroke="midnightblue" d="M423.376,-780.516C449.243,-774.381 477.607,-767.654 503.483,-761.518"/>
<polygon fill="midnightblue" stroke="midnightblue" points="422.517,-777.122 413.595,-782.835 424.133,-783.933 422.517,-777.122"/>
</g>
<!-- Node17 -->
<g id="node17" class="node"><title>Node17</title>
<g id="a_node17"><a xlink:href="../../d5/daa/classsrc_1_1harness_1_1testcases_1_1WINNF__FT__S__SDS__testcase_1_1SasDomainProxySecurityTestcase.html#aeb94e52f79acf12df9d5bce15edfabe1" target="_top" xlink:title="src.harness.testcases.WINNF\l_FT_S_SDS_testcase.SasDomainProxy\lSecurityTestcase.test_WINNF_FT_S_SDS_1">
<polygon fill="white" stroke="black" points="482,-660.5 482,-701.5 700,-701.5 700,-660.5 482,-660.5"/>
<text text-anchor="start" x="490" y="-689.5" font-family="Helvetica,sans-Serif" font-size="10.00">src.harness.testcases.WINNF</text>
<text text-anchor="start" x="490" y="-678.5" font-family="Helvetica,sans-Serif" font-size="10.00">_FT_S_SDS_testcase.SasDomainProxy</text>
<text text-anchor="middle" x="591" y="-667.5" font-family="Helvetica,sans-Serif" font-size="10.00">SecurityTestcase.test_WINNF_FT_S_SDS_1</text>
</a>
</g>
</g>
<!-- Node11&#45;&gt;Node17 -->
<g id="edge16" class="edge"><title>Node11&#45;&gt;Node17</title>
<path fill="none" stroke="midnightblue" d="M422.92,-784.265C431.148,-780.67 439.015,-776.304 446,-771 470.767,-752.193 457.256,-729.837 482,-711 486.645,-707.464 491.685,-704.345 496.963,-701.593"/>
<polygon fill="midnightblue" stroke="midnightblue" points="421.505,-781.06 413.503,-788.004 424.089,-787.566 421.505,-781.06"/>
</g>
<!-- Node18 -->
<g id="node18" class="node"><title>Node18</title>
<g id="a_node18"><a xlink:href="../../d5/daa/classsrc_1_1harness_1_1testcases_1_1WINNF__FT__S__SDS__testcase_1_1SasDomainProxySecurityTestcase.html#ab12185b93c8848ad3b533faa7b0e3384" target="_top" xlink:title="src.harness.testcases.WINNF\l_FT_S_SDS_testcase.SasDomainProxy\lSecurityTestcase.test_WINNF_FT_S_SDS_2">
<polygon fill="white" stroke="black" points="482,-600.5 482,-641.5 700,-641.5 700,-600.5 482,-600.5"/>
<text text-anchor="start" x="490" y="-629.5" font-family="Helvetica,sans-Serif" font-size="10.00">src.harness.testcases.WINNF</text>
<text text-anchor="start" x="490" y="-618.5" font-family="Helvetica,sans-Serif" font-size="10.00">_FT_S_SDS_testcase.SasDomainProxy</text>
<text text-anchor="middle" x="591" y="-607.5" font-family="Helvetica,sans-Serif" font-size="10.00">SecurityTestcase.test_WINNF_FT_S_SDS_2</text>
</a>
</g>
</g>
<!-- Node11&#45;&gt;Node18 -->
<g id="edge17" class="edge"><title>Node11&#45;&gt;Node18</title>
<path fill="none" stroke="midnightblue" d="M422.938,-786.649C431.431,-782.619 439.351,-777.498 446,-771 485.821,-732.08 442.225,-689.967 482,-651 485.614,-647.459 489.608,-644.328 493.868,-641.56"/>
<polygon fill="midnightblue" stroke="midnightblue" points="421.39,-783.503 413.53,-790.608 424.105,-789.955 421.39,-783.503"/>
</g>
<!-- Node19 -->
<g id="node19" class="node"><title>Node19</title>
<g id="a_node19"><a xlink:href="../../d5/daa/classsrc_1_1harness_1_1testcases_1_1WINNF__FT__S__SDS__testcase_1_1SasDomainProxySecurityTestcase.html#afb3254f37aefa5cdd6c41cb825c597d8" target="_top" xlink:title="src.harness.testcases.WINNF\l_FT_S_SDS_testcase.SasDomainProxy\lSecurityTestcase.test_WINNF_FT_S_SDS_3">
<polygon fill="white" stroke="black" points="482,-540.5 482,-581.5 700,-581.5 700,-540.5 482,-540.5"/>
<text text-anchor="start" x="490" y="-569.5" font-family="Helvetica,sans-Serif" font-size="10.00">src.harness.testcases.WINNF</text>
<text text-anchor="start" x="490" y="-558.5" font-family="Helvetica,sans-Serif" font-size="10.00">_FT_S_SDS_testcase.SasDomainProxy</text>
<text text-anchor="middle" x="591" y="-547.5" font-family="Helvetica,sans-Serif" font-size="10.00">SecurityTestcase.test_WINNF_FT_S_SDS_3</text>
</a>
</g>
</g>
<!-- Node11&#45;&gt;Node19 -->
<g id="edge18" class="edge"><title>Node11&#45;&gt;Node19</title>
<path fill="none" stroke="midnightblue" d="M422.899,-787.582C431.534,-783.395 439.498,-777.983 446,-771 501.599,-711.295 426.471,-650.771 482,-591 485.179,-587.578 488.711,-584.535 492.502,-581.828"/>
<polygon fill="midnightblue" stroke="midnightblue" points="421.511,-784.369 413.69,-791.516 424.261,-790.806 421.511,-784.369"/>
</g>
<!-- Node20 -->
<g id="node20" class="node"><title>Node20</title>
<g id="a_node20"><a xlink:href="../../d5/daa/classsrc_1_1harness_1_1testcases_1_1WINNF__FT__S__SDS__testcase_1_1SasDomainProxySecurityTestcase.html#aa6ca4d198dd5378006c9b8297e41c510" target="_top" xlink:title="src.harness.testcases.WINNF\l_FT_S_SDS_testcase.SasDomainProxy\lSecurityTestcase.test_WINNF_FT_S_SDS_4">
<polygon fill="white" stroke="black" points="482,-480.5 482,-521.5 700,-521.5 700,-480.5 482,-480.5"/>
<text text-anchor="start" x="490" y="-509.5" font-family="Helvetica,sans-Serif" font-size="10.00">src.harness.testcases.WINNF</text>
<text text-anchor="start" x="490" y="-498.5" font-family="Helvetica,sans-Serif" font-size="10.00">_FT_S_SDS_testcase.SasDomainProxy</text>
<text text-anchor="middle" x="591" y="-487.5" font-family="Helvetica,sans-Serif" font-size="10.00">SecurityTestcase.test_WINNF_FT_S_SDS_4</text>
</a>
</g>
</g>
<!-- Node11&#45;&gt;Node20 -->
<g id="edge19" class="edge"><title>Node11&#45;&gt;Node20</title>
<path fill="none" stroke="midnightblue" d="M422.843,-788.082C431.571,-783.815 439.572,-778.247 446,-771 517.57,-690.306 410.525,-611.778 482,-531 485.095,-527.502 488.559,-524.397 492.295,-521.64"/>
<polygon fill="midnightblue" stroke="midnightblue" points="421.335,-784.92 413.519,-792.073 424.089,-791.355 421.335,-784.92"/>
</g>
<!-- Node21 -->
<g id="node21" class="node"><title>Node21</title>
<g id="a_node21"><a xlink:href="../../d5/daa/classsrc_1_1harness_1_1testcases_1_1WINNF__FT__S__SDS__testcase_1_1SasDomainProxySecurityTestcase.html#a6f4d7fe04de9d6796d6f3ce0d7f67f89" target="_top" xlink:title="src.harness.testcases.WINNF\l_FT_S_SDS_testcase.SasDomainProxy\lSecurityTestcase.test_WINNF_FT_S_SDS_5">
<polygon fill="white" stroke="black" points="482,-420.5 482,-461.5 700,-461.5 700,-420.5 482,-420.5"/>
<text text-anchor="start" x="490" y="-449.5" font-family="Helvetica,sans-Serif" font-size="10.00">src.harness.testcases.WINNF</text>
<text text-anchor="start" x="490" y="-438.5" font-family="Helvetica,sans-Serif" font-size="10.00">_FT_S_SDS_testcase.SasDomainProxy</text>
<text text-anchor="middle" x="591" y="-427.5" font-family="Helvetica,sans-Serif" font-size="10.00">SecurityTestcase.test_WINNF_FT_S_SDS_5</text>
</a>
</g>
</g>
<!-- Node11&#45;&gt;Node21 -->
<g id="edge20" class="edge"><title>Node11&#45;&gt;Node21</title>
<path fill="none" stroke="midnightblue" d="M423.053,-788.265C431.745,-783.967 439.68,-778.341 446,-771 533.618,-669.232 394.502,-572.872 482,-471 485.043,-467.457 488.465,-464.315 492.167,-461.529"/>
<polygon fill="midnightblue" stroke="midnightblue" points="421.549,-785.102 413.757,-792.281 424.325,-791.528 421.549,-785.102"/>
</g>
</g>
</svg>
        <g id="navigator" transform="translate(0 0)" fill="#404254">
                <rect fill="#f2f5e9" fill-opacity="0.5" stroke="#606060" stroke-width=".5" x="0" y="0" width="60" height="60"/>
                <use id="zoomplus" xlink:href="#zoomPlus" x="17" y="9" onmousedown="handleZoom(evt,'in')"/>
                <use id="zoomminus" xlink:href="#zoomMin" x="42" y="9" onmousedown="handleZoom(evt,'out')"/>
                <use id="reset" xlink:href="#resetDef" x="30" y="36" onmousedown="handleReset()"/>
                <g id="arrowUp" xlink:href="#dirArrow" transform="translate(30 24)" onmousedown="handlePan(0,-1)">
                  <use xlink:href="#rim" fill="#404040">
                        <set attributeName="fill" to="#808080" begin="arrowUp.mouseover" end="arrowUp.mouseout"/>
                  </use>
                  <path fill="none" stroke="white" stroke-width="1.5" d="M0,-3.0v7 M-2.5,-0.5L0,-3.0L2.5,-0.5"/>
                </g>
                <g id="arrowRight" xlink:href="#dirArrow" transform="rotate(90) translate(36 -43)" onmousedown="handlePan(1,0)">
                  <use xlink:href="#rim" fill="#404040">
                        <set attributeName="fill" to="#808080" begin="arrowRight.mouseover" end="arrowRight.mouseout"/>
                  </use>
                  <path fill="none" stroke="white" stroke-width="1.5" d="M0,-3.0v7 M-2.5,-0.5L0,-3.0L2.5,-0.5"/>
                </g>
                <g id="arrowDown" xlink:href="#dirArrow" transform="rotate(180) translate(-30 -48)" onmousedown="handlePan(0,1)">
                  <use xlink:href="#rim" fill="#404040">
                        <set attributeName="fill" to="#808080" begin="arrowDown.mouseover" end="arrowDown.mouseout"/>
                  </use>
                  <path fill="none" stroke="white" stroke-width="1.5" d="M0,-3.0v7 M-2.5,-0.5L0,-3.0L2.5,-0.5"/>
                </g>
                <g id="arrowLeft" xlink:href="#dirArrow" transform="rotate(270) translate(-36 17)" onmousedown="handlePan(-1,0)">
                  <use xlink:href="#rim" fill="#404040">
                        <set attributeName="fill" to="#808080" begin="arrowLeft.mouseover" end="arrowLeft.mouseout"/>
                  </use>
                  <path fill="none" stroke="white" stroke-width="1.5" d="M0,-3.0v7 M-2.5,-0.5L0,-3.0L2.5,-0.5"/>
                </g>
        </g>
        <svg viewBox="0 0 15 15" width="100%" height="30px" preserveAspectRatio="xMaxYMin meet">
         <g id="arrow_out" transform="scale(0.3 0.3)">
          <a xlink:href="classsrc_1_1harness_1_1sas__interface_1_1SasTestcaseInterface_ae5fdeb19b3235937e0fe9b447297f7ec_icgraph_org.svg" target="_base">
           <rect id="button" ry="5" rx="5" y="6" x="6" height="38" width="38"
                fill="#f2f5e9" fill-opacity="0.5" stroke="#606060" stroke-width="1.0"/>
           <path id="arrow"
             d="M 11.500037,31.436501 C 11.940474,20.09759 22.043105,11.32322 32.158766,21.979434 L 37.068811,17.246167 C 37.068811,17.246167 37.088388,32 37.088388,32 L 22.160133,31.978069 C 22.160133,31.978069 26.997745,27.140456 26.997745,27.140456 C 18.528582,18.264221 13.291696,25.230495 11.500037,31.436501 z"
             style="fill:#404040;"/>
          </a>
         </g>
        </svg>
</svg>
