<?xml version="1.0" encoding="UTF-8" standalone="no"?>
<!DOCTYPE svg PUBLIC "-//W3C//DTD SVG 1.1//EN"
 "http://www.w3.org/Graphics/SVG/1.1/DTD/svg11.dtd">
<!-- Generated by graphviz version 2.38.0 (20140413.2041)
 -->
<!-- Title: src.harness.sas_interface.SasInterface Pages: 1 -->
<svg width="304pt" height="151pt"
 viewBox="0.00 0.00 303.50 151.00" xmlns="http://www.w3.org/2000/svg" xmlns:xlink="http://www.w3.org/1999/xlink">
<g id="graph0" class="graph" transform="scale(1 1) rotate(0) translate(4 147)">
<title>src.harness.sas_interface.SasInterface</title>
<polygon fill="white" stroke="none" points="-4,4 -4,-147 299.5,-147 299.5,4 -4,4"/>
<!-- Node1 -->
<g id="node1" class="node"><title>Node1</title>
<polygon fill="#bfbfbf" stroke="black" points="88,-56.5 88,-86.5 220,-86.5 220,-56.5 88,-56.5"/>
<text text-anchor="start" x="96" y="-74.5" font-family="Helvetica,sans-Serif" font-size="10.00">src.harness.sas_interface.</text>
<text text-anchor="middle" x="154" y="-63.5" font-family="Helvetica,sans-Serif" font-size="10.00">SasInterface</text>
</g>
<!-- Node3 -->
<g id="node3" class="node"><title>Node3</title>
<g id="a_node3"><a xlink:href="../../d0/db1/classsrc_1_1harness_1_1fake__sas_1_1FakeSas.html" target="_top" xlink:title="src.harness.fake_sas.FakeSas">
<polygon fill="white" stroke="black" points="0,-0.5 0,-19.5 152,-19.5 152,-0.5 0,-0.5"/>
<text text-anchor="middle" x="76" y="-7.5" font-family="Helvetica,sans-Serif" font-size="10.00">src.harness.fake_sas.FakeSas</text>
</a>
</g>
</g>
<!-- Node1&#45;&gt;Node3 -->
<g id="edge2" class="edge"><title>Node1&#45;&gt;Node3</title>
<path fill="none" stroke="midnightblue" d="M127.373,-50.1886C113.718,-39.7719 97.8045,-27.6329 87.3497,-19.6578"/>
<polygon fill="midnightblue" stroke="midnightblue" points="125.441,-53.117 135.515,-56.3993 129.687,-47.5515 125.441,-53.117"/>
</g>
<!-- Node4 -->
<g id="node4" class="node"><title>Node4</title>
<g id="a_node4"><a xlink:href="../../db/dbc/classsrc_1_1harness_1_1sas_1_1SasImpl.html" target="_top" xlink:title="src.harness.sas.SasImpl">
<polygon fill="white" stroke="black" points="170.5,-0.5 170.5,-19.5 295.5,-19.5 295.5,-0.5 170.5,-0.5"/>
<text text-anchor="middle" x="233" y="-7.5" font-family="Helvetica,sans-Serif" font-size="10.00">src.harness.sas.SasImpl</text>
</a>
</g>
</g>
<!-- Node1&#45;&gt;Node4 -->
<g id="edge3" class="edge"><title>Node1&#45;&gt;Node4</title>
<path fill="none" stroke="midnightblue" d="M180.968,-50.1886C194.799,-39.7719 210.916,-27.6329 221.505,-19.6578"/>
<polygon fill="midnightblue" stroke="midnightblue" points="178.604,-47.5874 172.722,-56.3993 182.815,-53.1789 178.604,-47.5874"/>
</g>
<!-- Node2 -->
<g id="node2" class="node"><title>Node2</title>
<polygon fill="white" stroke="#bfbfbf" points="132.5,-123.5 132.5,-142.5 175.5,-142.5 175.5,-123.5 132.5,-123.5"/>
<text text-anchor="middle" x="154" y="-130.5" font-family="Helvetica,sans-Serif" font-size="10.00">object</text>
</g>
<!-- Node2&#45;&gt;Node1 -->
<g id="edge1" class="edge"><title>Node2&#45;&gt;Node1</title>
<path fill="none" stroke="midnightblue" d="M154,-113.235C154,-104.586 154,-94.4969 154,-86.523"/>
<polygon fill="midnightblue" stroke="midnightblue" points="150.5,-113.475 154,-123.475 157.5,-113.475 150.5,-113.475"/>
</g>
</g>
</svg>
