<?xml version="1.0" encoding="UTF-8" standalone="no"?>
<!DOCTYPE svg PUBLIC "-//W3C//DTD SVG 1.1//EN"
 "http://www.w3.org/Graphics/SVG/1.1/DTD/svg11.dtd">
<!-- Generated by graphviz version 2.38.0 (20140413.2041)
 -->
<!-- Title: src.harness.testcases.WINNF_FT_S_SDS_testcase.SasDomainProxySecurityTestcase.test_WINNF_FT_S_SDS_2 Pages: 1 -->
<svg width="869pt" height="164pt"
 viewBox="0.00 0.00 869.00 164.00" xmlns="http://www.w3.org/2000/svg" xmlns:xlink="http://www.w3.org/1999/xlink">
<g id="graph0" class="graph" transform="scale(1 1) rotate(0) translate(4 160)">
<title>src.harness.testcases.WINNF_FT_S_SDS_testcase.SasDomainProxySecurityTestcase.test_WINNF_FT_S_SDS_2</title>
<polygon fill="white" stroke="none" points="-4,4 -4,-160 865,-160 865,4 -4,4"/>
<!-- Node1 -->
<g id="node1" class="node"><title>Node1</title>
<polygon fill="#bfbfbf" stroke="black" points="0,-54.5 0,-95.5 218,-95.5 218,-54.5 0,-54.5"/>
<text text-anchor="start" x="8" y="-83.5" font-family="Helvetica,sans-Serif" font-size="10.00">src.harness.testcases.WINNF</text>
<text text-anchor="start" x="8" y="-72.5" font-family="Helvetica,sans-Serif" font-size="10.00">_FT_S_SDS_testcase.SasDomainProxy</text>
<text text-anchor="middle" x="109" y="-61.5" font-family="Helvetica,sans-Serif" font-size="10.00">SecurityTestcase.test_WINNF_FT_S_SDS_2</text>
</g>
<!-- Node2 -->
<g id="node2" class="node"><title>Node2</title>
<g id="a_node2"><a xlink:href="../../db/df9/classsrc_1_1harness_1_1security__testcase_1_1SecurityTestCase.html#ae4503f0701e9fa5758f44cd21f8160f5" target="_top" xlink:title="src.harness.security\l_testcase.SecurityTestCase.do\lTestCipher">
<polygon fill="white" stroke="black" points="254,-54.5 254,-95.5 409,-95.5 409,-54.5 254,-54.5"/>
<text text-anchor="start" x="262" y="-83.5" font-family="Helvetica,sans-Serif" font-size="10.00">src.harness.security</text>
<text text-anchor="start" x="262" y="-72.5" font-family="Helvetica,sans-Serif" font-size="10.00">_testcase.SecurityTestCase.do</text>
<text text-anchor="middle" x="331.5" y="-61.5" font-family="Helvetica,sans-Serif" font-size="10.00">TestCipher</text>
</a>
</g>
</g>
<!-- Node1&#45;&gt;Node2 -->
<g id="edge1" class="edge"><title>Node1&#45;&gt;Node2</title>
<path fill="none" stroke="midnightblue" d="M218.312,-75C226.829,-75 235.362,-75 243.707,-75"/>
<polygon fill="midnightblue" stroke="midnightblue" points="243.779,-78.5001 253.779,-75 243.779,-71.5001 243.779,-78.5001"/>
</g>
<!-- Node3 -->
<g id="node3" class="node"><title>Node3</title>
<g id="a_node3"><a xlink:href="../../db/df9/classsrc_1_1harness_1_1security__testcase_1_1SecurityTestCase.html#a39567813af1d6b1ad22f3e06301f1d8d" target="_top" xlink:title="src.harness.security\l_testcase.SecurityTestCase.assert\lTlsHandshakeSucceed">
<polygon fill="white" stroke="black" points="454.5,-114.5 454.5,-155.5 625.5,-155.5 625.5,-114.5 454.5,-114.5"/>
<text text-anchor="start" x="462.5" y="-143.5" font-family="Helvetica,sans-Serif" font-size="10.00">src.harness.security</text>
<text text-anchor="start" x="462.5" y="-132.5" font-family="Helvetica,sans-Serif" font-size="10.00">_testcase.SecurityTestCase.assert</text>
<text text-anchor="middle" x="540" y="-121.5" font-family="Helvetica,sans-Serif" font-size="10.00">TlsHandshakeSucceed</text>
</a>
</g>
</g>
<!-- Node2&#45;&gt;Node3 -->
<g id="edge2" class="edge"><title>Node2&#45;&gt;Node3</title>
<path fill="none" stroke="midnightblue" d="M403.277,-95.5647C421.091,-100.741 440.34,-106.334 458.588,-111.636"/>
<polygon fill="midnightblue" stroke="midnightblue" points="457.736,-115.033 468.316,-114.462 459.69,-108.311 457.736,-115.033"/>
</g>
<!-- Node4 -->
<g id="node4" class="node"><title>Node4</title>
<g id="a_node4"><a xlink:href="../../db/df9/classsrc_1_1harness_1_1security__testcase_1_1SecurityTestCase.html#af1e403d01b8ebf0efdb941907e9f4375" target="_top" xlink:title="src.harness.security\l_testcase.SecurityTestCase.\lSasReset">
<polygon fill="white" stroke="black" points="468,-54.5 468,-95.5 612,-95.5 612,-54.5 468,-54.5"/>
<text text-anchor="start" x="476" y="-83.5" font-family="Helvetica,sans-Serif" font-size="10.00">src.harness.security</text>
<text text-anchor="start" x="476" y="-72.5" font-family="Helvetica,sans-Serif" font-size="10.00">_testcase.SecurityTestCase.</text>
<text text-anchor="middle" x="540" y="-61.5" font-family="Helvetica,sans-Serif" font-size="10.00">SasReset</text>
</a>
</g>
</g>
<!-- Node2&#45;&gt;Node4 -->
<g id="edge3" class="edge"><title>Node2&#45;&gt;Node4</title>
<path fill="none" stroke="midnightblue" d="M409.1,-75C424.918,-75 441.632,-75 457.613,-75"/>
<polygon fill="midnightblue" stroke="midnightblue" points="457.993,-78.5001 467.993,-75 457.993,-71.5001 457.993,-78.5001"/>
</g>
<!-- Node5 -->
<g id="node5" class="node"><title>Node5</title>
<g id="a_node5"><a xlink:href="../../df/ded/classsrc_1_1harness_1_1sas__interface_1_1SasTestcaseInterface.html#ae5fdeb19b3235937e0fe9b447297f7ec" target="_top" xlink:title="src.harness.sas_interface.\lSasTestcaseInterface.assertRegistered">
<polygon fill="white" stroke="black" points="445,-6 445,-36 635,-36 635,-6 445,-6"/>
<text text-anchor="start" x="453" y="-24" font-family="Helvetica,sans-Serif" font-size="10.00">src.harness.sas_interface.</text>
<text text-anchor="middle" x="540" y="-13" font-family="Helvetica,sans-Serif" font-size="10.00">SasTestcaseInterface.assertRegistered</text>
</a>
</g>
</g>
<!-- Node2&#45;&gt;Node5 -->
<g id="edge4" class="edge"><title>Node2&#45;&gt;Node5</title>
<path fill="none" stroke="midnightblue" d="M409.024,-54.4768C421.058,-51.2832 433.363,-48.0372 445,-45 453.082,-42.8906 461.561,-40.6978 469.979,-38.5331"/>
<polygon fill="midnightblue" stroke="midnightblue" points="470.99,-41.8872 479.806,-36.0114 469.25,-35.1069 470.99,-41.8872"/>
</g>
<!-- Node6 -->
<g id="node6" class="node"><title>Node6</title>
<g id="a_node6"><a xlink:href="../../df/ded/classsrc_1_1harness_1_1sas__interface_1_1SasTestcaseInterface.html#a36b0593c135c9f69cba9eb4b359bdfa2" target="_top" xlink:title="src.harness.sas_interface.\lSasTestcaseInterface.assertRegistered\lAndGranted">
<polygon fill="white" stroke="black" points="671,-0.5 671,-41.5 861,-41.5 861,-0.5 671,-0.5"/>
<text text-anchor="start" x="679" y="-29.5" font-family="Helvetica,sans-Serif" font-size="10.00">src.harness.sas_interface.</text>
<text text-anchor="start" x="679" y="-18.5" font-family="Helvetica,sans-Serif" font-size="10.00">SasTestcaseInterface.assertRegistered</text>
<text text-anchor="middle" x="766" y="-7.5" font-family="Helvetica,sans-Serif" font-size="10.00">AndGranted</text>
</a>
</g>
</g>
<!-- Node5&#45;&gt;Node6 -->
<g id="edge5" class="edge"><title>Node5&#45;&gt;Node6</title>
<path fill="none" stroke="midnightblue" d="M635.023,-21C643.542,-21 652.204,-21 660.804,-21"/>
<polygon fill="midnightblue" stroke="midnightblue" points="660.859,-24.5001 670.859,-21 660.859,-17.5001 660.859,-24.5001"/>
</g>
</g>
</svg>
