<?xml version="1.0" encoding="UTF-8" standalone="no"?>
<!DOCTYPE svg PUBLIC "-//W3C//DTD SVG 1.1//EN"
 "http://www.w3.org/Graphics/SVG/1.1/DTD/svg11.dtd">
<!-- Generated by graphviz version 2.38.0 (20140413.2041)
 -->
<!-- Title: nlcd_origin.NlcdOriginDriver._CacheGridTile Pages: 1 -->
<svg width="326pt" height="137pt"
 viewBox="0.00 0.00 326.00 137.00" xmlns="http://www.w3.org/2000/svg" xmlns:xlink="http://www.w3.org/1999/xlink">
<g id="graph0" class="graph" transform="scale(1 1) rotate(0) translate(4 133)">
<title>nlcd_origin.NlcdOriginDriver._CacheGridTile</title>
<polygon fill="white" stroke="none" points="-4,4 -4,-133 322,-133 322,4 -4,4"/>
<!-- Node1 -->
<g id="node1" class="node"><title>Node1</title>
<polygon fill="#bfbfbf" stroke="black" points="0,-49.5 0,-79.5 141,-79.5 141,-49.5 0,-49.5"/>
<text text-anchor="start" x="8" y="-67.5" font-family="Helvetica,sans-Serif" font-size="10.00">nlcd_origin.NlcdOriginDriver.</text>
<text text-anchor="middle" x="70.5" y="-56.5" font-family="Helvetica,sans-Serif" font-size="10.00">_CacheGridTile</text>
</g>
<!-- Node2 -->
<g id="node2" class="node"><title>Node2</title>
<g id="a_node2"><a xlink:href="../../d6/d2e/classnlcd__origin_1_1NlcdOriginDriver.html#ac7e7e6dde2c13c2f9a124b5515425662" target="_top" xlink:title="nlcd_origin.NlcdOriginDriver.\l_GetKeys">
<polygon fill="white" stroke="black" points="177,-98.5 177,-128.5 318,-128.5 318,-98.5 177,-98.5"/>
<text text-anchor="start" x="185" y="-116.5" font-family="Helvetica,sans-Serif" font-size="10.00">nlcd_origin.NlcdOriginDriver.</text>
<text text-anchor="middle" x="247.5" y="-105.5" font-family="Helvetica,sans-Serif" font-size="10.00">_GetKeys</text>
</a>
</g>
</g>
<!-- Node1&#45;&gt;Node2 -->
<g id="edge1" class="edge"><title>Node1&#45;&gt;Node2</title>
<path fill="none" stroke="midnightblue" d="M125.434,-79.6014C143.65,-84.7019 164.153,-90.4429 183.037,-95.7305"/>
<polygon fill="midnightblue" stroke="midnightblue" points="182.171,-99.1224 192.744,-98.4484 184.058,-92.3817 182.171,-99.1224"/>
</g>
<!-- Node3 -->
<g id="node3" class="node"><title>Node3</title>
<g id="a_node3"><a xlink:href="../../d6/d2e/classnlcd__origin_1_1NlcdOriginDriver.html#aec4c16a63a58ad97a2959f3813c05712" target="_top" xlink:title="nlcd_origin.NlcdOriginDriver.\lCacheTileInBox">
<polygon fill="white" stroke="black" points="177,-49.5 177,-79.5 318,-79.5 318,-49.5 177,-49.5"/>
<text text-anchor="start" x="185" y="-67.5" font-family="Helvetica,sans-Serif" font-size="10.00">nlcd_origin.NlcdOriginDriver.</text>
<text text-anchor="middle" x="247.5" y="-56.5" font-family="Helvetica,sans-Serif" font-size="10.00">CacheTileInBox</text>
</a>
</g>
</g>
<!-- Node1&#45;&gt;Node3 -->
<g id="edge2" class="edge"><title>Node1&#45;&gt;Node3</title>
<path fill="none" stroke="midnightblue" d="M141.167,-64.5C149.502,-64.5 158.063,-64.5 166.529,-64.5"/>
<polygon fill="midnightblue" stroke="midnightblue" points="166.786,-68.0001 176.786,-64.5 166.786,-61.0001 166.786,-68.0001"/>
</g>
<!-- Node4 -->
<g id="node4" class="node"><title>Node4</title>
<g id="a_node4"><a xlink:href="../../d6/d2e/classnlcd__origin_1_1NlcdOriginDriver.html#a6b16760497d4025321f3a9c77ce2a52d" target="_top" xlink:title="nlcd_origin.NlcdOriginDriver.\l_CacheLruUpdate">
<polygon fill="white" stroke="black" points="177,-0.5 177,-30.5 318,-30.5 318,-0.5 177,-0.5"/>
<text text-anchor="start" x="185" y="-18.5" font-family="Helvetica,sans-Serif" font-size="10.00">nlcd_origin.NlcdOriginDriver.</text>
<text text-anchor="middle" x="247.5" y="-7.5" font-family="Helvetica,sans-Serif" font-size="10.00">_CacheLruUpdate</text>
</a>
</g>
</g>
<!-- Node1&#45;&gt;Node4 -->
<g id="edge3" class="edge"><title>Node1&#45;&gt;Node4</title>
<path fill="none" stroke="midnightblue" d="M125.434,-49.3986C143.65,-44.2981 164.153,-38.5571 183.037,-33.2695"/>
<polygon fill="midnightblue" stroke="midnightblue" points="184.058,-36.6183 192.744,-30.5516 182.171,-29.8776 184.058,-36.6183"/>
</g>
</g>
</svg>
