<?xml version="1.0" encoding="UTF-8" standalone="no"?>
<!DOCTYPE svg PUBLIC "-//W3C//DTD SVG 1.1//EN"
 "http://www.w3.org/Graphics/SVG/1.1/DTD/svg11.dtd">
<!-- Generated by graphviz version 2.38.0 (20140413.2041)
 -->
<!-- Title: nlcd_origin.NlcdOriginDriver.CacheTileInBox Pages: 1 -->
<svg width="685pt" height="94pt"
 viewBox="0.00 0.00 685.00 93.50" xmlns="http://www.w3.org/2000/svg" xmlns:xlink="http://www.w3.org/1999/xlink">
<g id="graph0" class="graph" transform="scale(1 1) rotate(0) translate(4 89.5)">
<title>nlcd_origin.NlcdOriginDriver.CacheTileInBox</title>
<polygon fill="white" stroke="none" points="-4,4 -4,-89.5 681,-89.5 681,4 -4,4"/>
<!-- Node1 -->
<g id="node1" class="node"><title>Node1</title>
<polygon fill="#bfbfbf" stroke="black" points="0,-30 0,-60 141,-60 141,-30 0,-30"/>
<text text-anchor="start" x="8" y="-48" font-family="Helvetica,sans-Serif" font-size="10.00">nlcd_origin.NlcdOriginDriver.</text>
<text text-anchor="middle" x="70.5" y="-37" font-family="Helvetica,sans-Serif" font-size="10.00">CacheTileInBox</text>
</g>
<!-- Node2 -->
<g id="node2" class="node"><title>Node2</title>
<g id="a_node2"><a xlink:href="../../d6/d2e/classnlcd__origin_1_1NlcdOriginDriver.html#ae33e2a6cc62ab61993199c9bca47f5cd" target="_top" xlink:title="nlcd_origin.NlcdOriginDriver.\lUnloadTile">
<polygon fill="white" stroke="black" points="177,-55 177,-85 318,-85 318,-55 177,-55"/>
<text text-anchor="start" x="185" y="-73" font-family="Helvetica,sans-Serif" font-size="10.00">nlcd_origin.NlcdOriginDriver.</text>
<text text-anchor="middle" x="247.5" y="-62" font-family="Helvetica,sans-Serif" font-size="10.00">UnloadTile</text>
</a>
</g>
</g>
<!-- Node1&#45;&gt;Node2 -->
<g id="edge1" class="edge"><title>Node1&#45;&gt;Node2</title>
<path fill="none" stroke="midnightblue" d="M151.146,-56.3779C159.702,-57.6003 168.359,-58.837 176.786,-60.0409"/>
<polygon fill="midnightblue" stroke="midnightblue" points="151.562,-52.902 141.167,-54.9525 150.572,-59.8316 151.562,-52.902"/>
</g>
<!-- Node3 -->
<g id="node3" class="node"><title>Node3</title>
<g id="a_node3"><a xlink:href="../../d6/d2e/classnlcd__origin_1_1NlcdOriginDriver.html#ad42c10393c73943dd4f95c05360b44f3" target="_top" xlink:title="nlcd_origin.NlcdOriginDriver.\l_CacheGridTile">
<polygon fill="white" stroke="black" points="177,-6 177,-36 318,-36 318,-6 177,-6"/>
<text text-anchor="start" x="185" y="-24" font-family="Helvetica,sans-Serif" font-size="10.00">nlcd_origin.NlcdOriginDriver.</text>
<text text-anchor="middle" x="247.5" y="-13" font-family="Helvetica,sans-Serif" font-size="10.00">_CacheGridTile</text>
</a>
</g>
</g>
<!-- Node1&#45;&gt;Node3 -->
<g id="edge2" class="edge"><title>Node1&#45;&gt;Node3</title>
<path fill="none" stroke="midnightblue" d="M151.146,-34.0772C159.702,-32.9038 168.359,-31.7165 176.786,-30.5607"/>
<polygon fill="midnightblue" stroke="midnightblue" points="150.599,-30.6193 141.167,-35.4456 151.55,-37.5544 150.599,-30.6193"/>
</g>
<!-- Node4 -->
<g id="node4" class="node"><title>Node4</title>
<g id="a_node4"><a xlink:href="../../d6/d2e/classnlcd__origin_1_1NlcdOriginDriver.html#aabc0517a8bb685a2a844905b422cc950" target="_top" xlink:title="nlcd_origin.NlcdOriginDriver.\lGetLandCoverCodes">
<polygon fill="white" stroke="black" points="354,-6 354,-36 495,-36 495,-6 354,-6"/>
<text text-anchor="start" x="362" y="-24" font-family="Helvetica,sans-Serif" font-size="10.00">nlcd_origin.NlcdOriginDriver.</text>
<text text-anchor="middle" x="424.5" y="-13" font-family="Helvetica,sans-Serif" font-size="10.00">GetLandCoverCodes</text>
</a>
</g>
</g>
<!-- Node3&#45;&gt;Node4 -->
<g id="edge3" class="edge"><title>Node3&#45;&gt;Node4</title>
<path fill="none" stroke="midnightblue" d="M328.425,-21C336.89,-21 345.451,-21 353.786,-21"/>
<polygon fill="midnightblue" stroke="midnightblue" points="328.168,-17.5001 318.167,-21 328.167,-24.5001 328.168,-17.5001"/>
</g>
<!-- Node5 -->
<g id="node5" class="node"><title>Node5</title>
<g id="a_node5"><a xlink:href="../../dd/dda/classsrc_1_1harness_1_1reference__models_1_1geo_1_1nlcd_1_1NlcdDriver.html#ae1472dc7570f131a6de25729f167b237" target="_top" xlink:title="src.harness.reference\l_models.geo.nlcd.NlcdDriver.\lRegionNlcdVote">
<polygon fill="white" stroke="black" points="531,-0.5 531,-41.5 677,-41.5 677,-0.5 531,-0.5"/>
<text text-anchor="start" x="539" y="-29.5" font-family="Helvetica,sans-Serif" font-size="10.00">src.harness.reference</text>
<text text-anchor="start" x="539" y="-18.5" font-family="Helvetica,sans-Serif" font-size="10.00">_models.geo.nlcd.NlcdDriver.</text>
<text text-anchor="middle" x="604" y="-7.5" font-family="Helvetica,sans-Serif" font-size="10.00">RegionNlcdVote</text>
</a>
</g>
</g>
<!-- Node4&#45;&gt;Node5 -->
<g id="edge4" class="edge"><title>Node4&#45;&gt;Node5</title>
<path fill="none" stroke="midnightblue" d="M505.151,-21C513.737,-21 522.439,-21 530.929,-21"/>
<polygon fill="midnightblue" stroke="midnightblue" points="505.143,-17.5001 495.143,-21 505.143,-24.5001 505.143,-17.5001"/>
</g>
</g>
</svg>
