<?xml version="1.0" encoding="UTF-8" standalone="no"?>
<!DOCTYPE svg PUBLIC "-//W3C//DTD SVG 1.1//EN"
 "http://www.w3.org/Graphics/SVG/1.1/DTD/svg11.dtd">
<!-- Generated by graphviz version 2.38.0 (20140413.2041)
 -->
<!-- Title: nlcd_origin.NlcdOriginDriver.GetLandCoverCodes Pages: 1 -->
<svg width="503pt" height="137pt"
 viewBox="0.00 0.00 503.00 137.00" xmlns="http://www.w3.org/2000/svg" xmlns:xlink="http://www.w3.org/1999/xlink">
<g id="graph0" class="graph" transform="scale(1 1) rotate(0) translate(4 133)">
<title>nlcd_origin.NlcdOriginDriver.GetLandCoverCodes</title>
<polygon fill="white" stroke="none" points="-4,4 -4,-133 499,-133 499,4 -4,4"/>
<!-- Node1 -->
<g id="node1" class="node"><title>Node1</title>
<polygon fill="#bfbfbf" stroke="black" points="0,-49.5 0,-79.5 141,-79.5 141,-49.5 0,-49.5"/>
<text text-anchor="start" x="8" y="-67.5" font-family="Helvetica,sans-Serif" font-size="10.00">nlcd_origin.NlcdOriginDriver.</text>
<text text-anchor="middle" x="70.5" y="-56.5" font-family="Helvetica,sans-Serif" font-size="10.00">GetLandCoverCodes</text>
</g>
<!-- Node2 -->
<g id="node2" class="node"><title>Node2</title>
<g id="a_node2"><a xlink:href="../../d6/d2e/classnlcd__origin_1_1NlcdOriginDriver.html#ac7e7e6dde2c13c2f9a124b5515425662" target="_top" xlink:title="nlcd_origin.NlcdOriginDriver.\l_GetKeys">
<polygon fill="white" stroke="black" points="354,-98.5 354,-128.5 495,-128.5 495,-98.5 354,-98.5"/>
<text text-anchor="start" x="362" y="-116.5" font-family="Helvetica,sans-Serif" font-size="10.00">nlcd_origin.NlcdOriginDriver.</text>
<text text-anchor="middle" x="424.5" y="-105.5" font-family="Helvetica,sans-Serif" font-size="10.00">_GetKeys</text>
</a>
</g>
</g>
<!-- Node1&#45;&gt;Node2 -->
<g id="edge1" class="edge"><title>Node1&#45;&gt;Node2</title>
<path fill="none" stroke="midnightblue" d="M131.781,-79.5512C146.505,-82.8565 162.263,-86.0858 177,-88.5 232.383,-97.5728 295.34,-103.891 343.766,-107.906"/>
<polygon fill="midnightblue" stroke="midnightblue" points="343.621,-111.406 353.871,-108.728 344.188,-104.429 343.621,-111.406"/>
</g>
<!-- Node3 -->
<g id="node3" class="node"><title>Node3</title>
<g id="a_node3"><a xlink:href="../../d6/d2e/classnlcd__origin_1_1NlcdOriginDriver.html#a6b16760497d4025321f3a9c77ce2a52d" target="_top" xlink:title="nlcd_origin.NlcdOriginDriver.\l_CacheLruUpdate">
<polygon fill="white" stroke="black" points="354,-0.5 354,-30.5 495,-30.5 495,-0.5 354,-0.5"/>
<text text-anchor="start" x="362" y="-18.5" font-family="Helvetica,sans-Serif" font-size="10.00">nlcd_origin.NlcdOriginDriver.</text>
<text text-anchor="middle" x="424.5" y="-7.5" font-family="Helvetica,sans-Serif" font-size="10.00">_CacheLruUpdate</text>
</a>
</g>
</g>
<!-- Node1&#45;&gt;Node3 -->
<g id="edge2" class="edge"><title>Node1&#45;&gt;Node3</title>
<path fill="none" stroke="midnightblue" d="M128.705,-49.453C144.284,-45.7641 161.217,-42.1259 177,-39.5 232.338,-30.2931 295.296,-24.2369 343.734,-20.5114"/>
<polygon fill="midnightblue" stroke="midnightblue" points="344.132,-23.9915 353.842,-19.7515 343.607,-17.0112 344.132,-23.9915"/>
</g>
<!-- Node4 -->
<g id="node4" class="node"><title>Node4</title>
<g id="a_node4"><a xlink:href="../../d6/d2e/classnlcd__origin_1_1NlcdOriginDriver.html#ad42c10393c73943dd4f95c05360b44f3" target="_top" xlink:title="nlcd_origin.NlcdOriginDriver.\l_CacheGridTile">
<polygon fill="white" stroke="black" points="177,-49.5 177,-79.5 318,-79.5 318,-49.5 177,-49.5"/>
<text text-anchor="start" x="185" y="-67.5" font-family="Helvetica,sans-Serif" font-size="10.00">nlcd_origin.NlcdOriginDriver.</text>
<text text-anchor="middle" x="247.5" y="-56.5" font-family="Helvetica,sans-Serif" font-size="10.00">_CacheGridTile</text>
</a>
</g>
</g>
<!-- Node1&#45;&gt;Node4 -->
<g id="edge3" class="edge"><title>Node1&#45;&gt;Node4</title>
<path fill="none" stroke="midnightblue" d="M141.167,-64.5C149.502,-64.5 158.063,-64.5 166.529,-64.5"/>
<polygon fill="midnightblue" stroke="midnightblue" points="166.786,-68.0001 176.786,-64.5 166.786,-61.0001 166.786,-68.0001"/>
</g>
<!-- Node4&#45;&gt;Node2 -->
<g id="edge4" class="edge"><title>Node4&#45;&gt;Node2</title>
<path fill="none" stroke="midnightblue" d="M302.434,-79.6014C320.65,-84.7019 341.153,-90.4429 360.037,-95.7305"/>
<polygon fill="midnightblue" stroke="midnightblue" points="359.171,-99.1224 369.744,-98.4484 361.058,-92.3817 359.171,-99.1224"/>
</g>
<!-- Node4&#45;&gt;Node3 -->
<g id="edge6" class="edge"><title>Node4&#45;&gt;Node3</title>
<path fill="none" stroke="midnightblue" d="M302.434,-49.3986C320.65,-44.2981 341.153,-38.5571 360.037,-33.2695"/>
<polygon fill="midnightblue" stroke="midnightblue" points="361.058,-36.6183 369.744,-30.5516 359.171,-29.8776 361.058,-36.6183"/>
</g>
<!-- Node5 -->
<g id="node5" class="node"><title>Node5</title>
<g id="a_node5"><a xlink:href="../../d6/d2e/classnlcd__origin_1_1NlcdOriginDriver.html#aec4c16a63a58ad97a2959f3813c05712" target="_top" xlink:title="nlcd_origin.NlcdOriginDriver.\lCacheTileInBox">
<polygon fill="white" stroke="black" points="354,-49.5 354,-79.5 495,-79.5 495,-49.5 354,-49.5"/>
<text text-anchor="start" x="362" y="-67.5" font-family="Helvetica,sans-Serif" font-size="10.00">nlcd_origin.NlcdOriginDriver.</text>
<text text-anchor="middle" x="424.5" y="-56.5" font-family="Helvetica,sans-Serif" font-size="10.00">CacheTileInBox</text>
</a>
</g>
</g>
<!-- Node4&#45;&gt;Node5 -->
<g id="edge5" class="edge"><title>Node4&#45;&gt;Node5</title>
<path fill="none" stroke="midnightblue" d="M318.167,-64.5C326.502,-64.5 335.063,-64.5 343.529,-64.5"/>
<polygon fill="midnightblue" stroke="midnightblue" points="343.786,-68.0001 353.786,-64.5 343.786,-61.0001 343.786,-68.0001"/>
</g>
</g>
</svg>
