<?xml version="1.0" encoding="UTF-8" standalone="no"?>
<!DOCTYPE svg PUBLIC "-//W3C//DTD SVG 1.1//EN"
 "http://www.w3.org/Graphics/SVG/1.1/DTD/svg11.dtd">
<!-- Generated by graphviz version 2.38.0 (20140413.2041)
 -->
<!-- Title: nlcd_origin.NlcdOriginDriver._GetKeys Pages: 1 -->
<svg width="685pt" height="67pt"
 viewBox="0.00 0.00 685.00 66.50" xmlns="http://www.w3.org/2000/svg" xmlns:xlink="http://www.w3.org/1999/xlink">
<g id="graph0" class="graph" transform="scale(1 1) rotate(0) translate(4 62.5)">
<title>nlcd_origin.NlcdOriginDriver._GetKeys</title>
<polygon fill="white" stroke="none" points="-4,4 -4,-62.5 681,-62.5 681,4 -4,4"/>
<!-- Node1 -->
<g id="node1" class="node"><title>Node1</title>
<polygon fill="#bfbfbf" stroke="black" points="0,-6 0,-36 141,-36 141,-6 0,-6"/>
<text text-anchor="start" x="8" y="-24" font-family="Helvetica,sans-Serif" font-size="10.00">nlcd_origin.NlcdOriginDriver.</text>
<text text-anchor="middle" x="70.5" y="-13" font-family="Helvetica,sans-Serif" font-size="10.00">_GetKeys</text>
</g>
<!-- Node2 -->
<g id="node2" class="node"><title>Node2</title>
<g id="a_node2"><a xlink:href="../../d6/d2e/classnlcd__origin_1_1NlcdOriginDriver.html#ad42c10393c73943dd4f95c05360b44f3" target="_top" xlink:title="nlcd_origin.NlcdOriginDriver.\l_CacheGridTile">
<polygon fill="white" stroke="black" points="177,-28 177,-58 318,-58 318,-28 177,-28"/>
<text text-anchor="start" x="185" y="-46" font-family="Helvetica,sans-Serif" font-size="10.00">nlcd_origin.NlcdOriginDriver.</text>
<text text-anchor="middle" x="247.5" y="-35" font-family="Helvetica,sans-Serif" font-size="10.00">_CacheGridTile</text>
</a>
</g>
</g>
<!-- Node1&#45;&gt;Node2 -->
<g id="edge1" class="edge"><title>Node1&#45;&gt;Node2</title>
<path fill="none" stroke="midnightblue" d="M151.146,-31.0126C159.702,-32.0882 168.359,-33.1766 176.786,-34.236"/>
<polygon fill="midnightblue" stroke="midnightblue" points="151.526,-27.5329 141.167,-29.7582 150.653,-34.4783 151.526,-27.5329"/>
</g>
<!-- Node3 -->
<g id="node3" class="node"><title>Node3</title>
<g id="a_node3"><a xlink:href="../../d6/d2e/classnlcd__origin_1_1NlcdOriginDriver.html#aabc0517a8bb685a2a844905b422cc950" target="_top" xlink:title="nlcd_origin.NlcdOriginDriver.\lGetLandCoverCodes">
<polygon fill="white" stroke="black" points="354,-6 354,-36 495,-36 495,-6 354,-6"/>
<text text-anchor="start" x="362" y="-24" font-family="Helvetica,sans-Serif" font-size="10.00">nlcd_origin.NlcdOriginDriver.</text>
<text text-anchor="middle" x="424.5" y="-13" font-family="Helvetica,sans-Serif" font-size="10.00">GetLandCoverCodes</text>
</a>
</g>
</g>
<!-- Node1&#45;&gt;Node3 -->
<g id="edge4" class="edge"><title>Node1&#45;&gt;Node3</title>
<path fill="none" stroke="midnightblue" d="M151.2,-19.3286C159.907,-19.1938 168.639,-19.0792 177,-19 239.664,-18.4061 255.336,-18.4061 318,-19 329.632,-19.1102 341.985,-19.2889 353.985,-19.4951"/>
<polygon fill="midnightblue" stroke="midnightblue" points="150.957,-15.832 141.015,-19.4951 151.071,-22.831 150.957,-15.832"/>
</g>
<!-- Node2&#45;&gt;Node3 -->
<g id="edge2" class="edge"><title>Node2&#45;&gt;Node3</title>
<path fill="none" stroke="midnightblue" d="M328.146,-32.9874C336.702,-31.9118 345.359,-30.8234 353.786,-29.764"/>
<polygon fill="midnightblue" stroke="midnightblue" points="327.653,-29.5217 318.167,-34.2418 328.526,-36.4671 327.653,-29.5217"/>
</g>
<!-- Node4 -->
<g id="node4" class="node"><title>Node4</title>
<g id="a_node4"><a xlink:href="../../dd/dda/classsrc_1_1harness_1_1reference__models_1_1geo_1_1nlcd_1_1NlcdDriver.html#ae1472dc7570f131a6de25729f167b237" target="_top" xlink:title="src.harness.reference\l_models.geo.nlcd.NlcdDriver.\lRegionNlcdVote">
<polygon fill="white" stroke="black" points="531,-0.5 531,-41.5 677,-41.5 677,-0.5 531,-0.5"/>
<text text-anchor="start" x="539" y="-29.5" font-family="Helvetica,sans-Serif" font-size="10.00">src.harness.reference</text>
<text text-anchor="start" x="539" y="-18.5" font-family="Helvetica,sans-Serif" font-size="10.00">_models.geo.nlcd.NlcdDriver.</text>
<text text-anchor="middle" x="604" y="-7.5" font-family="Helvetica,sans-Serif" font-size="10.00">RegionNlcdVote</text>
</a>
</g>
</g>
<!-- Node3&#45;&gt;Node4 -->
<g id="edge3" class="edge"><title>Node3&#45;&gt;Node4</title>
<path fill="none" stroke="midnightblue" d="M505.151,-21C513.737,-21 522.439,-21 530.929,-21"/>
<polygon fill="midnightblue" stroke="midnightblue" points="505.143,-17.5001 495.143,-21 505.143,-24.5001 505.143,-17.5001"/>
</g>
</g>
</svg>
