<?xml version="1.0" encoding="UTF-8" standalone="no"?>
<!DOCTYPE svg PUBLIC "-//W3C//DTD SVG 1.1//EN"
 "http://www.w3.org/Graphics/SVG/1.1/DTD/svg11.dtd">
<!-- Generated by graphviz version 2.38.0 (20140413.2041)
 -->
<!-- Title: nlcd_origin.NlcdOriginDriver._CacheLruUpdate Pages: 1 -->
<svg width="705pt" height="258pt"
 viewBox="0.00 0.00 705.00 257.50" xmlns="http://www.w3.org/2000/svg" xmlns:xlink="http://www.w3.org/1999/xlink">
<g id="graph0" class="graph" transform="scale(1 1) rotate(0) translate(4 253.5)">
<title>nlcd_origin.NlcdOriginDriver._CacheLruUpdate</title>
<polygon fill="white" stroke="none" points="-4,4 -4,-253.5 701,-253.5 701,4 -4,4"/>
<!-- Node1 -->
<g id="node1" class="node"><title>Node1</title>
<polygon fill="#bfbfbf" stroke="black" points="0,-150 0,-180 141,-180 141,-150 0,-150"/>
<text text-anchor="start" x="8" y="-168" font-family="Helvetica,sans-Serif" font-size="10.00">nlcd_origin.NlcdOriginDriver.</text>
<text text-anchor="middle" x="70.5" y="-157" font-family="Helvetica,sans-Serif" font-size="10.00">_CacheLruUpdate</text>
</g>
<!-- Node2 -->
<g id="node2" class="node"><title>Node2</title>
<g id="a_node2"><a xlink:href="../../d6/d2e/classnlcd__origin_1_1NlcdOriginDriver.html#ad42c10393c73943dd4f95c05360b44f3" target="_top" xlink:title="nlcd_origin.NlcdOriginDriver.\l_CacheGridTile">
<polygon fill="white" stroke="black" points="179.5,-219 179.5,-249 320.5,-249 320.5,-219 179.5,-219"/>
<text text-anchor="start" x="187.5" y="-237" font-family="Helvetica,sans-Serif" font-size="10.00">nlcd_origin.NlcdOriginDriver.</text>
<text text-anchor="middle" x="250" y="-226" font-family="Helvetica,sans-Serif" font-size="10.00">_CacheGridTile</text>
</a>
</g>
</g>
<!-- Node1&#45;&gt;Node2 -->
<g id="edge1" class="edge"><title>Node1&#45;&gt;Node2</title>
<path fill="none" stroke="midnightblue" d="M119.785,-183.77C148.165,-194.802 183.569,-208.565 210.138,-218.893"/>
<polygon fill="midnightblue" stroke="midnightblue" points="121.042,-180.503 110.453,-180.142 118.506,-187.028 121.042,-180.503"/>
</g>
<!-- Node3 -->
<g id="node3" class="node"><title>Node3</title>
<g id="a_node3"><a xlink:href="../../d6/d2e/classnlcd__origin_1_1NlcdOriginDriver.html#aabc0517a8bb685a2a844905b422cc950" target="_top" xlink:title="nlcd_origin.NlcdOriginDriver.\lGetLandCoverCodes">
<polygon fill="white" stroke="black" points="361.5,-180 361.5,-210 502.5,-210 502.5,-180 361.5,-180"/>
<text text-anchor="start" x="369.5" y="-198" font-family="Helvetica,sans-Serif" font-size="10.00">nlcd_origin.NlcdOriginDriver.</text>
<text text-anchor="middle" x="432" y="-187" font-family="Helvetica,sans-Serif" font-size="10.00">GetLandCoverCodes</text>
</a>
</g>
</g>
<!-- Node1&#45;&gt;Node3 -->
<g id="edge4" class="edge"><title>Node1&#45;&gt;Node3</title>
<path fill="none" stroke="midnightblue" d="M151.527,-171.678C214.498,-176.933 301.356,-184.181 361.453,-189.196"/>
<polygon fill="midnightblue" stroke="midnightblue" points="151.498,-168.164 141.241,-170.82 150.916,-175.139 151.498,-168.164"/>
</g>
<!-- Node5 -->
<g id="node5" class="node"><title>Node5</title>
<g id="a_node5"><a xlink:href="../../dd/dda/classsrc_1_1harness_1_1reference__models_1_1geo_1_1nlcd_1_1NlcdDriver.html#adbd9c43c60ad71af55be4357eb307e67" target="_top" xlink:title="src.harness.reference\l_models.geo.nlcd.NlcdDriver.\lGetTile">
<polygon fill="white" stroke="black" points="177,-120.5 177,-161.5 323,-161.5 323,-120.5 177,-120.5"/>
<text text-anchor="start" x="185" y="-149.5" font-family="Helvetica,sans-Serif" font-size="10.00">src.harness.reference</text>
<text text-anchor="start" x="185" y="-138.5" font-family="Helvetica,sans-Serif" font-size="10.00">_models.geo.nlcd.NlcdDriver.</text>
<text text-anchor="middle" x="250" y="-127.5" font-family="Helvetica,sans-Serif" font-size="10.00">GetTile</text>
</a>
</g>
</g>
<!-- Node1&#45;&gt;Node5 -->
<g id="edge5" class="edge"><title>Node1&#45;&gt;Node5</title>
<path fill="none" stroke="midnightblue" d="M151.151,-154.23C159.737,-153.069 168.439,-151.893 176.929,-150.745"/>
<polygon fill="midnightblue" stroke="midnightblue" points="150.584,-150.775 141.143,-155.583 151.522,-157.712 150.584,-150.775"/>
</g>
<!-- Node10 -->
<g id="node10" class="node"><title>Node10</title>
<g id="a_node10"><a xlink:href="../../d6/d6b/classsrc_1_1harness_1_1reference__models_1_1geo_1_1terrain_1_1TerrainDriver.html#afed4e9574b4802744592875621699199" target="_top" xlink:title="src.harness.reference\l_models.geo.terrain.Terrain\lDriver.GetTile">
<polygon fill="white" stroke="black" points="182.5,-60.5 182.5,-101.5 317.5,-101.5 317.5,-60.5 182.5,-60.5"/>
<text text-anchor="start" x="190.5" y="-89.5" font-family="Helvetica,sans-Serif" font-size="10.00">src.harness.reference</text>
<text text-anchor="start" x="190.5" y="-78.5" font-family="Helvetica,sans-Serif" font-size="10.00">_models.geo.terrain.Terrain</text>
<text text-anchor="middle" x="250" y="-67.5" font-family="Helvetica,sans-Serif" font-size="10.00">Driver.GetTile</text>
</a>
</g>
</g>
<!-- Node1&#45;&gt;Node10 -->
<g id="edge12" class="edge"><title>Node1&#45;&gt;Node10</title>
<path fill="none" stroke="midnightblue" d="M108.526,-145.15C128.601,-134.616 153.953,-121.68 177,-111 183.758,-107.869 190.935,-104.698 198.04,-101.649"/>
<polygon fill="midnightblue" stroke="midnightblue" points="106.628,-142.194 99.4154,-149.955 109.893,-148.386 106.628,-142.194"/>
</g>
<!-- Node2&#45;&gt;Node3 -->
<g id="edge2" class="edge"><title>Node2&#45;&gt;Node3</title>
<path fill="none" stroke="midnightblue" d="M330.291,-216.82C340.757,-214.553 351.419,-212.242 361.7,-210.015"/>
<polygon fill="midnightblue" stroke="midnightblue" points="329.367,-213.439 320.335,-218.977 330.85,-220.28 329.367,-213.439"/>
</g>
<!-- Node4 -->
<g id="node4" class="node"><title>Node4</title>
<g id="a_node4"><a xlink:href="../../dd/dda/classsrc_1_1harness_1_1reference__models_1_1geo_1_1nlcd_1_1NlcdDriver.html#ae1472dc7570f131a6de25729f167b237" target="_top" xlink:title="src.harness.reference\l_models.geo.nlcd.NlcdDriver.\lRegionNlcdVote">
<polygon fill="white" stroke="black" points="546,-147.5 546,-188.5 692,-188.5 692,-147.5 546,-147.5"/>
<text text-anchor="start" x="554" y="-176.5" font-family="Helvetica,sans-Serif" font-size="10.00">src.harness.reference</text>
<text text-anchor="start" x="554" y="-165.5" font-family="Helvetica,sans-Serif" font-size="10.00">_models.geo.nlcd.NlcdDriver.</text>
<text text-anchor="middle" x="619" y="-154.5" font-family="Helvetica,sans-Serif" font-size="10.00">RegionNlcdVote</text>
</a>
</g>
</g>
<!-- Node3&#45;&gt;Node4 -->
<g id="edge3" class="edge"><title>Node3&#45;&gt;Node4</title>
<path fill="none" stroke="midnightblue" d="M512.722,-183.365C523.756,-181.755 535.037,-180.108 545.921,-178.52"/>
<polygon fill="midnightblue" stroke="midnightblue" points="512.067,-179.923 502.677,-184.831 513.078,-186.85 512.067,-179.923"/>
</g>
<!-- Node6 -->
<g id="node6" class="node"><title>Node6</title>
<g id="a_node6"><a xlink:href="../../dd/dda/classsrc_1_1harness_1_1reference__models_1_1geo_1_1nlcd_1_1NlcdDriver.html#aee3de4fa94676b19c6d622705a1d557c" target="_top" xlink:title="src.harness.reference\l_models.geo.nlcd.NlcdDriver.\lGetLandCoverCodes">
<polygon fill="white" stroke="black" points="359,-120.5 359,-161.5 505,-161.5 505,-120.5 359,-120.5"/>
<text text-anchor="start" x="367" y="-149.5" font-family="Helvetica,sans-Serif" font-size="10.00">src.harness.reference</text>
<text text-anchor="start" x="367" y="-138.5" font-family="Helvetica,sans-Serif" font-size="10.00">_models.geo.nlcd.NlcdDriver.</text>
<text text-anchor="middle" x="432" y="-127.5" font-family="Helvetica,sans-Serif" font-size="10.00">GetLandCoverCodes</text>
</a>
</g>
</g>
<!-- Node5&#45;&gt;Node6 -->
<g id="edge6" class="edge"><title>Node5&#45;&gt;Node6</title>
<path fill="none" stroke="midnightblue" d="M333.439,-141C341.906,-141 350.464,-141 358.808,-141"/>
<polygon fill="midnightblue" stroke="midnightblue" points="333.176,-137.5 323.176,-141 333.176,-144.5 333.176,-137.5"/>
</g>
<!-- Node7 -->
<g id="node7" class="node"><title>Node7</title>
<g id="a_node7"><a xlink:href="../../d6/d6b/classsrc_1_1harness_1_1reference__models_1_1geo_1_1terrain_1_1TerrainDriver.html#a8d5f60a37aec4d3318fd0ef720c9c12c" target="_top" xlink:title="src.harness.reference\l_models.geo.terrain.Terrain\lDriver.GetTerrainElevation">
<polygon fill="white" stroke="black" points="364.5,-60.5 364.5,-101.5 499.5,-101.5 499.5,-60.5 364.5,-60.5"/>
<text text-anchor="start" x="372.5" y="-89.5" font-family="Helvetica,sans-Serif" font-size="10.00">src.harness.reference</text>
<text text-anchor="start" x="372.5" y="-78.5" font-family="Helvetica,sans-Serif" font-size="10.00">_models.geo.terrain.Terrain</text>
<text text-anchor="middle" x="432" y="-67.5" font-family="Helvetica,sans-Serif" font-size="10.00">Driver.GetTerrainElevation</text>
</a>
</g>
</g>
<!-- Node5&#45;&gt;Node7 -->
<g id="edge8" class="edge"><title>Node5&#45;&gt;Node7</title>
<path fill="none" stroke="midnightblue" d="M322.276,-117.241C337.857,-112.048 354.221,-106.593 369.387,-101.538"/>
<polygon fill="midnightblue" stroke="midnightblue" points="321.074,-113.953 312.694,-120.435 323.288,-120.593 321.074,-113.953"/>
</g>
<!-- Node6&#45;&gt;Node4 -->
<g id="edge7" class="edge"><title>Node6&#45;&gt;Node4</title>
<path fill="none" stroke="midnightblue" d="M515.194,-152.996C525.407,-154.486 535.79,-156.002 545.837,-157.468"/>
<polygon fill="midnightblue" stroke="midnightblue" points="515.456,-149.497 505.056,-151.516 514.445,-156.424 515.456,-149.497"/>
</g>
<!-- Node8 -->
<g id="node8" class="node"><title>Node8</title>
<g id="a_node8"><a xlink:href="../../d6/d6b/classsrc_1_1harness_1_1reference__models_1_1geo_1_1terrain_1_1TerrainDriver.html#a937db85ff8e17162dd624ad69cebe456" target="_top" xlink:title="src.harness.reference\l_models.geo.terrain.Terrain\lDriver.TerrainProfile">
<polygon fill="white" stroke="black" points="551.5,-60.5 551.5,-101.5 686.5,-101.5 686.5,-60.5 551.5,-60.5"/>
<text text-anchor="start" x="559.5" y="-89.5" font-family="Helvetica,sans-Serif" font-size="10.00">src.harness.reference</text>
<text text-anchor="start" x="559.5" y="-78.5" font-family="Helvetica,sans-Serif" font-size="10.00">_models.geo.terrain.Terrain</text>
<text text-anchor="middle" x="619" y="-67.5" font-family="Helvetica,sans-Serif" font-size="10.00">Driver.TerrainProfile</text>
</a>
</g>
</g>
<!-- Node7&#45;&gt;Node8 -->
<g id="edge9" class="edge"><title>Node7&#45;&gt;Node8</title>
<path fill="none" stroke="midnightblue" d="M509.547,-74.34C523.452,-74.1817 537.853,-74.2322 551.441,-74.4917"/>
<polygon fill="midnightblue" stroke="midnightblue" points="509.474,-70.8406 499.528,-74.4923 509.58,-77.8398 509.474,-70.8406"/>
</g>
<!-- Node9 -->
<g id="node9" class="node"><title>Node9</title>
<g id="a_node9"><a xlink:href="../../d6/d6b/classsrc_1_1harness_1_1reference__models_1_1geo_1_1terrain_1_1TerrainDriver.html#aedbde9861afb8bcdee5a04e00b77bd22" target="_top" xlink:title="src.harness.reference\l_models.geo.terrain.Terrain\lDriver.ComputeNormalizedHaat">
<polygon fill="white" stroke="black" points="541,-0.5 541,-41.5 697,-41.5 697,-0.5 541,-0.5"/>
<text text-anchor="start" x="549" y="-29.5" font-family="Helvetica,sans-Serif" font-size="10.00">src.harness.reference</text>
<text text-anchor="start" x="549" y="-18.5" font-family="Helvetica,sans-Serif" font-size="10.00">_models.geo.terrain.Terrain</text>
<text text-anchor="middle" x="619" y="-7.5" font-family="Helvetica,sans-Serif" font-size="10.00">Driver.ComputeNormalizedHaat</text>
</a>
</g>
</g>
<!-- Node7&#45;&gt;Node9 -->
<g id="edge11" class="edge"><title>Node7&#45;&gt;Node9</title>
<path fill="none" stroke="midnightblue" d="M506.256,-57.2413C522.269,-52.0477 539.088,-46.5931 554.675,-41.5378"/>
<polygon fill="midnightblue" stroke="midnightblue" points="504.84,-54.021 496.408,-60.4353 507,-60.6795 504.84,-54.021"/>
</g>
<!-- Node8&#45;&gt;Node7 -->
<g id="edge10" class="edge"><title>Node8&#45;&gt;Node7</title>
<path fill="none" stroke="midnightblue" d="M541.422,-87.6603C527.516,-87.8184 513.115,-87.7675 499.528,-87.5077"/>
<polygon fill="midnightblue" stroke="midnightblue" points="541.495,-91.1597 551.441,-87.5083 541.389,-84.1605 541.495,-91.1597"/>
</g>
<!-- Node10&#45;&gt;Node7 -->
<g id="edge13" class="edge"><title>Node10&#45;&gt;Node7</title>
<path fill="none" stroke="midnightblue" d="M327.689,-81C339.921,-81 352.488,-81 364.459,-81"/>
<polygon fill="midnightblue" stroke="midnightblue" points="327.514,-77.5001 317.514,-81 327.514,-84.5001 327.514,-77.5001"/>
</g>
</g>
</svg>
