<?xml version="1.0" encoding="UTF-8" standalone="no"?>
<!DOCTYPE svg PUBLIC "-//W3C//DTD SVG 1.1//EN"
 "http://www.w3.org/Graphics/SVG/1.1/DTD/svg11.dtd">
<!-- Generated by graphviz version 2.38.0 (20140413.2041)
 -->
<!-- Title: FineRollingHillyTerrainCorectionFactor Pages: 1 -->
<svg width="422pt" height="39pt"
 viewBox="0.00 0.00 422.00 39.00" xmlns="http://www.w3.org/2000/svg" xmlns:xlink="http://www.w3.org/1999/xlink">
<g id="graph0" class="graph" transform="scale(1 1) rotate(0) translate(4 35)">
<title>FineRollingHillyTerrainCorectionFactor</title>
<polygon fill="white" stroke="none" points="-4,4 -4,-35 418,-35 418,4 -4,4"/>
<!-- Node1 -->
<g id="node1" class="node"><title>Node1</title>
<polygon fill="#bfbfbf" stroke="black" points="0,-0.5 0,-30.5 157,-30.5 157,-0.5 0,-0.5"/>
<text text-anchor="start" x="8" y="-18.5" font-family="Helvetica,sans-Serif" font-size="10.00">FineRollingHillyTerrainCorection</text>
<text text-anchor="middle" x="78.5" y="-7.5" font-family="Helvetica,sans-Serif" font-size="10.00">Factor</text>
</g>
<!-- Node2 -->
<g id="node2" class="node"><title>Node2</title>
<g id="a_node2"><a xlink:href="../../d9/daf/ExtendedHata_8cpp.html#a11232c905b4b2d54ca008791dad7ecf3" target="_top" xlink:title="ExtendedHata_DBG">
<polygon fill="white" stroke="black" points="193,-6 193,-25 299,-25 299,-6 193,-6"/>
<text text-anchor="middle" x="246" y="-13" font-family="Helvetica,sans-Serif" font-size="10.00">ExtendedHata_DBG</text>
</a>
</g>
</g>
<!-- Node1&#45;&gt;Node2 -->
<g id="edge1" class="edge"><title>Node1&#45;&gt;Node2</title>
<path fill="none" stroke="midnightblue" d="M167.459,-15.5C176.013,-15.5 184.494,-15.5 192.532,-15.5"/>
<polygon fill="midnightblue" stroke="midnightblue" points="167.404,-12.0001 157.404,-15.5 167.404,-19.0001 167.404,-12.0001"/>
</g>
<!-- Node3 -->
<g id="node3" class="node"><title>Node3</title>
<g id="a_node3"><a xlink:href="../../d6/d96/ehata__its__py_8cpp.html#a327cf674a964d85fc7d2d68c89a52d09" target="_top" xlink:title="ExtendedHata">
<polygon fill="white" stroke="black" points="335,-6 335,-25 414,-25 414,-6 335,-6"/>
<text text-anchor="middle" x="374.5" y="-13" font-family="Helvetica,sans-Serif" font-size="10.00">ExtendedHata</text>
</a>
</g>
</g>
<!-- Node2&#45;&gt;Node3 -->
<g id="edge2" class="edge"><title>Node2&#45;&gt;Node3</title>
<path fill="none" stroke="midnightblue" d="M309.379,-15.5C318.108,-15.5 326.858,-15.5 334.966,-15.5"/>
<polygon fill="midnightblue" stroke="midnightblue" points="309.183,-12.0001 299.183,-15.5 309.183,-19.0001 309.183,-12.0001"/>
</g>
</g>
</svg>
