<?xml version="1.0" encoding="UTF-8" standalone="no"?>
<!DOCTYPE svg PUBLIC "-//W3C//DTD SVG 1.1//EN"
 "http://www.w3.org/Graphics/SVG/1.1/DTD/svg11.dtd">
<!-- Generated by graphviz version 2.38.0 (20140413.2041)
 -->
<!-- Title: PreprocessTerrainPath Pages: 1 -->
<svg width="438pt" height="180pt"
 viewBox="0.00 0.00 438.00 180.00" xmlns="http://www.w3.org/2000/svg" xmlns:xlink="http://www.w3.org/1999/xlink">
<g id="graph0" class="graph" transform="scale(1 1) rotate(0) translate(4 176)">
<title>PreprocessTerrainPath</title>
<polygon fill="white" stroke="none" points="-4,4 -4,-176 434,-176 434,4 -4,4"/>
<!-- Node1 -->
<g id="node1" class="node"><title>Node1</title>
<polygon fill="#bfbfbf" stroke="black" points="0,-76.5 0,-95.5 116,-95.5 116,-76.5 0,-76.5"/>
<text text-anchor="middle" x="58" y="-83.5" font-family="Helvetica,sans-Serif" font-size="10.00">PreprocessTerrainPath</text>
</g>
<!-- Node2 -->
<g id="node2" class="node"><title>Node2</title>
<g id="a_node2"><a xlink:href="../../d9/dbb/PreprocessTerrainPath_8cpp.html#a00f5ff87da922544d27c2b981b5b6b36" target="_top" xlink:title="FindAverageGroundHeight">
<polygon fill="white" stroke="black" points="152,-114.5 152,-133.5 283,-133.5 283,-114.5 152,-114.5"/>
<text text-anchor="middle" x="217.5" y="-121.5" font-family="Helvetica,sans-Serif" font-size="10.00">FindAverageGroundHeight</text>
</a>
</g>
</g>
<!-- Node1&#45;&gt;Node2 -->
<g id="edge1" class="edge"><title>Node1&#45;&gt;Node2</title>
<path fill="none" stroke="midnightblue" d="M98.7439,-95.589C119.528,-100.604 145.161,-106.788 167.199,-112.105"/>
<polygon fill="midnightblue" stroke="midnightblue" points="166.5,-115.537 177.042,-114.48 168.142,-108.732 166.5,-115.537"/>
</g>
<!-- Node4 -->
<g id="node4" class="node"><title>Node4</title>
<g id="a_node4"><a xlink:href="../../d9/dbb/PreprocessTerrainPath_8cpp.html#ac81f09823451e4d2ef74055acfe06b36" target="_top" xlink:title="ComputeTerrainStatistics">
<polygon fill="white" stroke="black" points="153.5,-152.5 153.5,-171.5 281.5,-171.5 281.5,-152.5 153.5,-152.5"/>
<text text-anchor="middle" x="217.5" y="-159.5" font-family="Helvetica,sans-Serif" font-size="10.00">ComputeTerrainStatistics</text>
</a>
</g>
</g>
<!-- Node1&#45;&gt;Node4 -->
<g id="edge3" class="edge"><title>Node1&#45;&gt;Node4</title>
<path fill="none" stroke="midnightblue" d="M72.2444,-95.6795C89.7461,-108.095 121.888,-129.619 152,-143 157.134,-145.281 162.617,-147.376 168.136,-149.275"/>
<polygon fill="midnightblue" stroke="midnightblue" points="167.452,-152.731 178.043,-152.476 169.604,-146.071 167.452,-152.731"/>
</g>
<!-- Node6 -->
<g id="node6" class="node"><title>Node6</title>
<g id="a_node6"><a xlink:href="../../d9/dbb/PreprocessTerrainPath_8cpp.html#a6763c3438128142d15da82c3ce7d5ebb" target="_top" xlink:title="MobileTerrainSlope">
<polygon fill="white" stroke="black" points="167.5,-76.5 167.5,-95.5 267.5,-95.5 267.5,-76.5 167.5,-76.5"/>
<text text-anchor="middle" x="217.5" y="-83.5" font-family="Helvetica,sans-Serif" font-size="10.00">MobileTerrainSlope</text>
</a>
</g>
</g>
<!-- Node1&#45;&gt;Node6 -->
<g id="edge6" class="edge"><title>Node1&#45;&gt;Node6</title>
<path fill="none" stroke="midnightblue" d="M116.307,-86C129.624,-86 143.826,-86 157.226,-86"/>
<polygon fill="midnightblue" stroke="midnightblue" points="157.289,-89.5001 167.289,-86 157.289,-82.5001 157.289,-89.5001"/>
</g>
<!-- Node8 -->
<g id="node8" class="node"><title>Node8</title>
<g id="a_node8"><a xlink:href="../../d9/dbb/PreprocessTerrainPath_8cpp.html#afd68e3ff1f0e2b5300a867d859dd5b21" target="_top" xlink:title="AnalyzeSeaPath">
<polygon fill="white" stroke="black" points="173,-0.5 173,-19.5 262,-19.5 262,-0.5 173,-0.5"/>
<text text-anchor="middle" x="217.5" y="-7.5" font-family="Helvetica,sans-Serif" font-size="10.00">AnalyzeSeaPath</text>
</a>
</g>
</g>
<!-- Node1&#45;&gt;Node8 -->
<g id="edge9" class="edge"><title>Node1&#45;&gt;Node8</title>
<path fill="none" stroke="midnightblue" d="M72.2444,-76.3205C89.7461,-63.9046 121.888,-42.3806 152,-29 157.134,-26.7187 162.617,-24.6236 168.136,-22.7254"/>
<polygon fill="midnightblue" stroke="midnightblue" points="169.604,-25.9293 178.043,-19.5235 167.452,-19.2685 169.604,-25.9293"/>
</g>
<!-- Node9 -->
<g id="node9" class="node"><title>Node9</title>
<g id="a_node9"><a xlink:href="../../d9/dbb/PreprocessTerrainPath_8cpp.html#a27a12c18458e03988a70810234122896" target="_top" xlink:title="SingleHorizonTest">
<polygon fill="white" stroke="black" points="169,-38.5 169,-57.5 266,-57.5 266,-38.5 169,-38.5"/>
<text text-anchor="middle" x="217.5" y="-45.5" font-family="Helvetica,sans-Serif" font-size="10.00">SingleHorizonTest</text>
</a>
</g>
</g>
<!-- Node1&#45;&gt;Node9 -->
<g id="edge10" class="edge"><title>Node1&#45;&gt;Node9</title>
<path fill="none" stroke="midnightblue" d="M98.7439,-76.411C119.528,-71.3965 145.161,-65.2119 167.199,-59.8947"/>
<polygon fill="midnightblue" stroke="midnightblue" points="168.142,-63.2679 177.042,-57.5201 166.5,-56.4632 168.142,-63.2679"/>
</g>
<!-- Node3 -->
<g id="node3" class="node"><title>Node3</title>
<g id="a_node3"><a xlink:href="../../d3/d10/ehata_8h.html#a04da5d949a150c9e4be4ccacc17b237c" target="_top" xlink:title="GetDistanceInMeters">
<polygon fill="white" stroke="black" points="319.5,-114.5 319.5,-133.5 429.5,-133.5 429.5,-114.5 319.5,-114.5"/>
<text text-anchor="middle" x="374.5" y="-121.5" font-family="Helvetica,sans-Serif" font-size="10.00">GetDistanceInMeters</text>
</a>
</g>
</g>
<!-- Node2&#45;&gt;Node3 -->
<g id="edge2" class="edge"><title>Node2&#45;&gt;Node3</title>
<path fill="none" stroke="midnightblue" d="M283.336,-124C291.829,-124 300.53,-124 309.017,-124"/>
<polygon fill="midnightblue" stroke="midnightblue" points="309.234,-127.5 319.234,-124 309.234,-120.5 309.234,-127.5"/>
</g>
<!-- Node4&#45;&gt;Node3 -->
<g id="edge4" class="edge"><title>Node4&#45;&gt;Node3</title>
<path fill="none" stroke="midnightblue" d="M257.613,-152.411C277.975,-147.419 303.066,-141.268 324.689,-135.967"/>
<polygon fill="midnightblue" stroke="midnightblue" points="325.789,-139.301 334.668,-133.52 324.122,-132.502 325.789,-139.301"/>
</g>
<!-- Node5 -->
<g id="node5" class="node"><title>Node5</title>
<g id="a_node5"><a xlink:href="../../d3/d10/ehata_8h.html#ab1ea39eb9d2a55d7d659770100edc454" target="_top" xlink:title="FindQuantile">
<polygon fill="white" stroke="black" points="339,-152.5 339,-171.5 410,-171.5 410,-152.5 339,-152.5"/>
<text text-anchor="middle" x="374.5" y="-159.5" font-family="Helvetica,sans-Serif" font-size="10.00">FindQuantile</text>
</a>
</g>
</g>
<!-- Node4&#45;&gt;Node5 -->
<g id="edge5" class="edge"><title>Node4&#45;&gt;Node5</title>
<path fill="none" stroke="midnightblue" d="M281.544,-162C297.326,-162 313.937,-162 328.633,-162"/>
<polygon fill="midnightblue" stroke="midnightblue" points="328.956,-165.5 338.956,-162 328.956,-158.5 328.956,-165.5"/>
</g>
<!-- Node6&#45;&gt;Node3 -->
<g id="edge7" class="edge"><title>Node6&#45;&gt;Node3</title>
<path fill="none" stroke="midnightblue" d="M257.613,-95.589C277.975,-100.581 303.066,-106.732 324.689,-112.033"/>
<polygon fill="midnightblue" stroke="midnightblue" points="324.122,-115.498 334.668,-114.48 325.789,-108.699 324.122,-115.498"/>
</g>
<!-- Node7 -->
<g id="node7" class="node"><title>Node7</title>
<g id="a_node7"><a xlink:href="../../d3/d10/ehata_8h.html#aaa5b4f6709cdb127a70af78debc1e496" target="_top" xlink:title="LeastSquares">
<polygon fill="white" stroke="black" points="336,-76.5 336,-95.5 413,-95.5 413,-76.5 336,-76.5"/>
<text text-anchor="middle" x="374.5" y="-83.5" font-family="Helvetica,sans-Serif" font-size="10.00">LeastSquares</text>
</a>
</g>
</g>
<!-- Node6&#45;&gt;Node7 -->
<g id="edge8" class="edge"><title>Node6&#45;&gt;Node7</title>
<path fill="none" stroke="midnightblue" d="M267.543,-86C286.016,-86 306.994,-86 325.381,-86"/>
<polygon fill="midnightblue" stroke="midnightblue" points="325.583,-89.5001 335.583,-86 325.583,-82.5001 325.583,-89.5001"/>
</g>
<!-- Node9&#45;&gt;Node3 -->
<g id="edge11" class="edge"><title>Node9&#45;&gt;Node3</title>
<path fill="none" stroke="midnightblue" d="M262.509,-57.5657C269.637,-60.0585 276.728,-63.1594 283,-67 302.84,-79.149 299.463,-92.3688 319,-105 322.085,-106.994 325.403,-108.807 328.826,-110.449"/>
<polygon fill="midnightblue" stroke="midnightblue" points="327.468,-113.675 338.038,-114.406 330.231,-107.243 327.468,-113.675"/>
</g>
<!-- Node10 -->
<g id="node10" class="node"><title>Node10</title>
<g id="a_node10"><a xlink:href="../../d9/dbb/PreprocessTerrainPath_8cpp.html#a5215bf8ba24622edaa42bec0d6f12f2a" target="_top" xlink:title="AverageTerrainHeight">
<polygon fill="white" stroke="black" points="319,-0.5 319,-19.5 430,-19.5 430,-0.5 319,-0.5"/>
<text text-anchor="middle" x="374.5" y="-7.5" font-family="Helvetica,sans-Serif" font-size="10.00">AverageTerrainHeight</text>
</a>
</g>
</g>
<!-- Node9&#45;&gt;Node10 -->
<g id="edge12" class="edge"><title>Node9&#45;&gt;Node10</title>
<path fill="none" stroke="midnightblue" d="M257.613,-38.411C277.975,-33.4191 303.066,-27.2676 324.689,-21.9666"/>
<polygon fill="midnightblue" stroke="midnightblue" points="325.789,-25.3006 334.668,-19.5201 324.122,-18.5019 325.789,-25.3006"/>
</g>
<!-- Node11 -->
<g id="node11" class="node"><title>Node11</title>
<g id="a_node11"><a xlink:href="../../d3/d10/ehata_8h.html#ae12b05e3f880936b5258e4ecbeed7fad" target="_top" xlink:title="FindHorizons">
<polygon fill="white" stroke="black" points="337.5,-38.5 337.5,-57.5 411.5,-57.5 411.5,-38.5 337.5,-38.5"/>
<text text-anchor="middle" x="374.5" y="-45.5" font-family="Helvetica,sans-Serif" font-size="10.00">FindHorizons</text>
</a>
</g>
</g>
<!-- Node9&#45;&gt;Node11 -->
<g id="edge13" class="edge"><title>Node9&#45;&gt;Node11</title>
<path fill="none" stroke="midnightblue" d="M266.27,-48C285.723,-48 308.122,-48 327.4,-48"/>
<polygon fill="midnightblue" stroke="midnightblue" points="327.457,-51.5001 337.457,-48 327.457,-44.5001 327.457,-51.5001"/>
</g>
</g>
</svg>
