<?xml version="1.0" encoding="UTF-8" standalone="no"?>
<!DOCTYPE svg PUBLIC "-//W3C//DTD SVG 1.1//EN"
 "http://www.w3.org/Graphics/SVG/1.1/DTD/svg11.dtd">
<!-- Generated by graphviz version 2.38.0 (20140413.2041)
 -->
<!-- Title: PreprocessTerrainPath Pages: 1 -->
<svg width="381pt" height="28pt"
 viewBox="0.00 0.00 381.00 28.00" xmlns="http://www.w3.org/2000/svg" xmlns:xlink="http://www.w3.org/1999/xlink">
<g id="graph0" class="graph" transform="scale(1 1) rotate(0) translate(4 24)">
<title>PreprocessTerrainPath</title>
<polygon fill="white" stroke="none" points="-4,4 -4,-24 377,-24 377,4 -4,4"/>
<!-- Node1 -->
<g id="node1" class="node"><title>Node1</title>
<polygon fill="#bfbfbf" stroke="black" points="0,-0.5 0,-19.5 116,-19.5 116,-0.5 0,-0.5"/>
<text text-anchor="middle" x="58" y="-7.5" font-family="Helvetica,sans-Serif" font-size="10.00">PreprocessTerrainPath</text>
</g>
<!-- Node2 -->
<g id="node2" class="node"><title>Node2</title>
<g id="a_node2"><a xlink:href="../../d9/daf/ExtendedHata_8cpp.html#a11232c905b4b2d54ca008791dad7ecf3" target="_top" xlink:title="ExtendedHata_DBG">
<polygon fill="white" stroke="black" points="152,-0.5 152,-19.5 258,-19.5 258,-0.5 152,-0.5"/>
<text text-anchor="middle" x="205" y="-7.5" font-family="Helvetica,sans-Serif" font-size="10.00">ExtendedHata_DBG</text>
</a>
</g>
</g>
<!-- Node1&#45;&gt;Node2 -->
<g id="edge1" class="edge"><title>Node1&#45;&gt;Node2</title>
<path fill="none" stroke="midnightblue" d="M126.575,-10C135.055,-10 143.625,-10 151.818,-10"/>
<polygon fill="midnightblue" stroke="midnightblue" points="126.308,-6.5001 116.308,-10 126.308,-13.5001 126.308,-6.5001"/>
</g>
<!-- Node3 -->
<g id="node3" class="node"><title>Node3</title>
<g id="a_node3"><a xlink:href="../../d6/d96/ehata__its__py_8cpp.html#a327cf674a964d85fc7d2d68c89a52d09" target="_top" xlink:title="ExtendedHata">
<polygon fill="white" stroke="black" points="294,-0.5 294,-19.5 373,-19.5 373,-0.5 294,-0.5"/>
<text text-anchor="middle" x="333.5" y="-7.5" font-family="Helvetica,sans-Serif" font-size="10.00">ExtendedHata</text>
</a>
</g>
</g>
<!-- Node2&#45;&gt;Node3 -->
<g id="edge2" class="edge"><title>Node2&#45;&gt;Node3</title>
<path fill="none" stroke="midnightblue" d="M268.379,-10C277.108,-10 285.858,-10 293.966,-10"/>
<polygon fill="midnightblue" stroke="midnightblue" points="268.183,-6.5001 258.183,-10 268.183,-13.5001 268.183,-6.5001"/>
</g>
</g>
</svg>
