<?xml version="1.0" encoding="UTF-8" standalone="no"?>
<!DOCTYPE svg PUBLIC "-//W3C//DTD SVG 1.1//EN"
 "http://www.w3.org/Graphics/SVG/1.1/DTD/svg11.dtd">
<!-- Generated by graphviz version 2.38.0 (20140413.2041)
 -->
<!-- Title: GetDistanceInMeters Pages: 1 -->
<svg width="694pt" height="142pt"
 viewBox="0.00 0.00 694.00 142.00" xmlns="http://www.w3.org/2000/svg" xmlns:xlink="http://www.w3.org/1999/xlink">
<g id="graph0" class="graph" transform="scale(1 1) rotate(0) translate(4 138)">
<title>GetDistanceInMeters</title>
<polygon fill="white" stroke="none" points="-4,4 -4,-138 690,-138 690,4 -4,4"/>
<!-- Node1 -->
<g id="node1" class="node"><title>Node1</title>
<polygon fill="#bfbfbf" stroke="black" points="0,-57.5 0,-76.5 110,-76.5 110,-57.5 0,-57.5"/>
<text text-anchor="middle" x="55" y="-64.5" font-family="Helvetica,sans-Serif" font-size="10.00">GetDistanceInMeters</text>
</g>
<!-- Node2 -->
<g id="node2" class="node"><title>Node2</title>
<g id="a_node2"><a xlink:href="../../d9/dbb/PreprocessTerrainPath_8cpp.html#a00f5ff87da922544d27c2b981b5b6b36" target="_top" xlink:title="FindAverageGroundHeight">
<polygon fill="white" stroke="black" points="146,-114.5 146,-133.5 277,-133.5 277,-114.5 146,-114.5"/>
<text text-anchor="middle" x="211.5" y="-121.5" font-family="Helvetica,sans-Serif" font-size="10.00">FindAverageGroundHeight</text>
</a>
</g>
</g>
<!-- Node1&#45;&gt;Node2 -->
<g id="edge1" class="edge"><title>Node1&#45;&gt;Node2</title>
<path fill="none" stroke="midnightblue" d="M86.3919,-80.8442C103.678,-88.4617 125.838,-97.8 146,-105 155.455,-108.376 165.836,-111.628 175.454,-114.459"/>
<polygon fill="midnightblue" stroke="midnightblue" points="87.3883,-77.4567 76.8292,-76.5872 84.5414,-83.8516 87.3883,-77.4567"/>
</g>
<!-- Node6 -->
<g id="node6" class="node"><title>Node6</title>
<g id="a_node6"><a xlink:href="../../d9/dbb/PreprocessTerrainPath_8cpp.html#ac81f09823451e4d2ef74055acfe06b36" target="_top" xlink:title="ComputeTerrainStatistics">
<polygon fill="white" stroke="black" points="147.5,-76.5 147.5,-95.5 275.5,-95.5 275.5,-76.5 147.5,-76.5"/>
<text text-anchor="middle" x="211.5" y="-83.5" font-family="Helvetica,sans-Serif" font-size="10.00">ComputeTerrainStatistics</text>
</a>
</g>
</g>
<!-- Node1&#45;&gt;Node6 -->
<g id="edge5" class="edge"><title>Node1&#45;&gt;Node6</title>
<path fill="none" stroke="midnightblue" d="M120.119,-74.8852C129.167,-75.9978 138.462,-77.1409 147.488,-78.251"/>
<polygon fill="midnightblue" stroke="midnightblue" points="120.389,-71.3921 110.037,-73.6453 119.535,-78.3398 120.389,-71.3921"/>
</g>
<!-- Node7 -->
<g id="node7" class="node"><title>Node7</title>
<g id="a_node7"><a xlink:href="../../d9/dbb/PreprocessTerrainPath_8cpp.html#a6763c3438128142d15da82c3ce7d5ebb" target="_top" xlink:title="MobileTerrainSlope">
<polygon fill="white" stroke="black" points="161.5,-38.5 161.5,-57.5 261.5,-57.5 261.5,-38.5 161.5,-38.5"/>
<text text-anchor="middle" x="211.5" y="-45.5" font-family="Helvetica,sans-Serif" font-size="10.00">MobileTerrainSlope</text>
</a>
</g>
</g>
<!-- Node1&#45;&gt;Node7 -->
<g id="edge7" class="edge"><title>Node1&#45;&gt;Node7</title>
<path fill="none" stroke="midnightblue" d="M119.982,-59.1316C133.82,-57.4299 148.243,-55.6562 161.403,-54.0378"/>
<polygon fill="midnightblue" stroke="midnightblue" points="119.535,-55.6602 110.037,-60.3547 120.389,-62.6079 119.535,-55.6602"/>
</g>
<!-- Node8 -->
<g id="node8" class="node"><title>Node8</title>
<g id="a_node8"><a xlink:href="../../d9/dbb/PreprocessTerrainPath_8cpp.html#a27a12c18458e03988a70810234122896" target="_top" xlink:title="SingleHorizonTest">
<polygon fill="white" stroke="black" points="163,-0.5 163,-19.5 260,-19.5 260,-0.5 163,-0.5"/>
<text text-anchor="middle" x="211.5" y="-7.5" font-family="Helvetica,sans-Serif" font-size="10.00">SingleHorizonTest</text>
</a>
</g>
</g>
<!-- Node1&#45;&gt;Node8 -->
<g id="edge9" class="edge"><title>Node1&#45;&gt;Node8</title>
<path fill="none" stroke="midnightblue" d="M86.3919,-53.1558C103.678,-45.5383 125.838,-36.2 146,-29 155.455,-25.6237 165.836,-22.3716 175.454,-19.5413"/>
<polygon fill="midnightblue" stroke="midnightblue" points="84.5414,-50.1484 76.8292,-57.4128 87.3883,-56.5433 84.5414,-50.1484"/>
</g>
<!-- Node3 -->
<g id="node3" class="node"><title>Node3</title>
<g id="a_node3"><a xlink:href="../../d9/dbb/PreprocessTerrainPath_8cpp.html#a89ca684c84b78b8528505abc29419fa7" target="_top" xlink:title="PreprocessTerrainPath">
<polygon fill="white" stroke="black" points="313,-57.5 313,-76.5 429,-76.5 429,-57.5 313,-57.5"/>
<text text-anchor="middle" x="371" y="-64.5" font-family="Helvetica,sans-Serif" font-size="10.00">PreprocessTerrainPath</text>
</a>
</g>
</g>
<!-- Node2&#45;&gt;Node3 -->
<g id="edge2" class="edge"><title>Node2&#45;&gt;Node3</title>
<path fill="none" stroke="midnightblue" d="M256.944,-111.552C263.699,-109.475 270.561,-107.257 277,-105 301.854,-96.2869 329.744,-84.6317 348.442,-76.5367"/>
<polygon fill="midnightblue" stroke="midnightblue" points="255.754,-108.255 247.185,-114.485 257.769,-114.959 255.754,-108.255"/>
</g>
<!-- Node4 -->
<g id="node4" class="node"><title>Node4</title>
<g id="a_node4"><a xlink:href="../../d9/daf/ExtendedHata_8cpp.html#a11232c905b4b2d54ca008791dad7ecf3" target="_top" xlink:title="ExtendedHata_DBG">
<polygon fill="white" stroke="black" points="465,-57.5 465,-76.5 571,-76.5 571,-57.5 465,-57.5"/>
<text text-anchor="middle" x="518" y="-64.5" font-family="Helvetica,sans-Serif" font-size="10.00">ExtendedHata_DBG</text>
</a>
</g>
</g>
<!-- Node3&#45;&gt;Node4 -->
<g id="edge3" class="edge"><title>Node3&#45;&gt;Node4</title>
<path fill="none" stroke="midnightblue" d="M439.575,-67C448.055,-67 456.625,-67 464.818,-67"/>
<polygon fill="midnightblue" stroke="midnightblue" points="439.308,-63.5001 429.308,-67 439.308,-70.5001 439.308,-63.5001"/>
</g>
<!-- Node5 -->
<g id="node5" class="node"><title>Node5</title>
<g id="a_node5"><a xlink:href="../../d6/d96/ehata__its__py_8cpp.html#a327cf674a964d85fc7d2d68c89a52d09" target="_top" xlink:title="ExtendedHata">
<polygon fill="white" stroke="black" points="607,-57.5 607,-76.5 686,-76.5 686,-57.5 607,-57.5"/>
<text text-anchor="middle" x="646.5" y="-64.5" font-family="Helvetica,sans-Serif" font-size="10.00">ExtendedHata</text>
</a>
</g>
</g>
<!-- Node4&#45;&gt;Node5 -->
<g id="edge4" class="edge"><title>Node4&#45;&gt;Node5</title>
<path fill="none" stroke="midnightblue" d="M581.379,-67C590.108,-67 598.858,-67 606.966,-67"/>
<polygon fill="midnightblue" stroke="midnightblue" points="581.183,-63.5001 571.183,-67 581.183,-70.5001 581.183,-63.5001"/>
</g>
<!-- Node6&#45;&gt;Node3 -->
<g id="edge6" class="edge"><title>Node6&#45;&gt;Node3</title>
<path fill="none" stroke="midnightblue" d="M285.856,-77.1507C294.952,-76.0534 304.144,-74.9445 312.944,-73.8829"/>
<polygon fill="midnightblue" stroke="midnightblue" points="285.163,-73.7089 275.654,-78.3815 286.001,-80.6585 285.163,-73.7089"/>
</g>
<!-- Node7&#45;&gt;Node3 -->
<g id="edge8" class="edge"><title>Node7&#45;&gt;Node3</title>
<path fill="none" stroke="midnightblue" d="M271.952,-55.172C285.333,-56.7862 299.507,-58.496 312.793,-60.0989"/>
<polygon fill="midnightblue" stroke="midnightblue" points="272.249,-51.6825 261.902,-53.9596 271.411,-58.6321 272.249,-51.6825"/>
</g>
<!-- Node8&#45;&gt;Node3 -->
<g id="edge10" class="edge"><title>Node8&#45;&gt;Node3</title>
<path fill="none" stroke="midnightblue" d="M256.944,-22.4478C263.699,-24.5254 270.561,-26.7425 277,-29 301.854,-37.7131 329.744,-49.3683 348.442,-57.4633"/>
<polygon fill="midnightblue" stroke="midnightblue" points="257.769,-19.0412 247.185,-19.5155 255.754,-25.7451 257.769,-19.0412"/>
</g>
</g>
</svg>
