<?xml version="1.0" encoding="UTF-8" standalone="no"?>
<!DOCTYPE svg PUBLIC "-//W3C//DTD SVG 1.1//EN"
 "http://www.w3.org/Graphics/SVG/1.1/DTD/svg11.dtd">
<!-- Generated by graphviz version 2.38.0 (20140413.2041)
 -->
<!-- Title: AverageTerrainHeight Pages: 1 -->
<svg width="661pt" height="28pt"
 viewBox="0.00 0.00 661.00 28.00" xmlns="http://www.w3.org/2000/svg" xmlns:xlink="http://www.w3.org/1999/xlink">
<g id="graph0" class="graph" transform="scale(1 1) rotate(0) translate(4 24)">
<title>AverageTerrainHeight</title>
<polygon fill="white" stroke="none" points="-4,4 -4,-24 657,-24 657,4 -4,4"/>
<!-- Node1 -->
<g id="node1" class="node"><title>Node1</title>
<polygon fill="#bfbfbf" stroke="black" points="0,-0.5 0,-19.5 111,-19.5 111,-0.5 0,-0.5"/>
<text text-anchor="middle" x="55.5" y="-7.5" font-family="Helvetica,sans-Serif" font-size="10.00">AverageTerrainHeight</text>
</g>
<!-- Node2 -->
<g id="node2" class="node"><title>Node2</title>
<g id="a_node2"><a xlink:href="../../d9/dbb/PreprocessTerrainPath_8cpp.html#a27a12c18458e03988a70810234122896" target="_top" xlink:title="SingleHorizonTest">
<polygon fill="white" stroke="black" points="147,-0.5 147,-19.5 244,-19.5 244,-0.5 147,-0.5"/>
<text text-anchor="middle" x="195.5" y="-7.5" font-family="Helvetica,sans-Serif" font-size="10.00">SingleHorizonTest</text>
</a>
</g>
</g>
<!-- Node1&#45;&gt;Node2 -->
<g id="edge1" class="edge"><title>Node1&#45;&gt;Node2</title>
<path fill="none" stroke="midnightblue" d="M121.065,-10C129.666,-10 138.361,-10 146.609,-10"/>
<polygon fill="midnightblue" stroke="midnightblue" points="121.041,-6.5001 111.041,-10 121.041,-13.5001 121.041,-6.5001"/>
</g>
<!-- Node3 -->
<g id="node3" class="node"><title>Node3</title>
<g id="a_node3"><a xlink:href="../../d9/dbb/PreprocessTerrainPath_8cpp.html#a89ca684c84b78b8528505abc29419fa7" target="_top" xlink:title="PreprocessTerrainPath">
<polygon fill="white" stroke="black" points="280,-0.5 280,-19.5 396,-19.5 396,-0.5 280,-0.5"/>
<text text-anchor="middle" x="338" y="-7.5" font-family="Helvetica,sans-Serif" font-size="10.00">PreprocessTerrainPath</text>
</a>
</g>
</g>
<!-- Node2&#45;&gt;Node3 -->
<g id="edge2" class="edge"><title>Node2&#45;&gt;Node3</title>
<path fill="none" stroke="midnightblue" d="M254.2,-10C262.637,-10 271.324,-10 279.752,-10"/>
<polygon fill="midnightblue" stroke="midnightblue" points="254.067,-6.5001 244.067,-10 254.067,-13.5001 254.067,-6.5001"/>
</g>
<!-- Node4 -->
<g id="node4" class="node"><title>Node4</title>
<g id="a_node4"><a xlink:href="../../d9/daf/ExtendedHata_8cpp.html#a11232c905b4b2d54ca008791dad7ecf3" target="_top" xlink:title="ExtendedHata_DBG">
<polygon fill="white" stroke="black" points="432,-0.5 432,-19.5 538,-19.5 538,-0.5 432,-0.5"/>
<text text-anchor="middle" x="485" y="-7.5" font-family="Helvetica,sans-Serif" font-size="10.00">ExtendedHata_DBG</text>
</a>
</g>
</g>
<!-- Node3&#45;&gt;Node4 -->
<g id="edge3" class="edge"><title>Node3&#45;&gt;Node4</title>
<path fill="none" stroke="midnightblue" d="M406.575,-10C415.055,-10 423.625,-10 431.818,-10"/>
<polygon fill="midnightblue" stroke="midnightblue" points="406.308,-6.5001 396.308,-10 406.308,-13.5001 406.308,-6.5001"/>
</g>
<!-- Node5 -->
<g id="node5" class="node"><title>Node5</title>
<g id="a_node5"><a xlink:href="../../d6/d96/ehata__its__py_8cpp.html#a327cf674a964d85fc7d2d68c89a52d09" target="_top" xlink:title="ExtendedHata">
<polygon fill="white" stroke="black" points="574,-0.5 574,-19.5 653,-19.5 653,-0.5 574,-0.5"/>
<text text-anchor="middle" x="613.5" y="-7.5" font-family="Helvetica,sans-Serif" font-size="10.00">ExtendedHata</text>
</a>
</g>
</g>
<!-- Node4&#45;&gt;Node5 -->
<g id="edge4" class="edge"><title>Node4&#45;&gt;Node5</title>
<path fill="none" stroke="midnightblue" d="M548.379,-10C557.108,-10 565.858,-10 573.966,-10"/>
<polygon fill="midnightblue" stroke="midnightblue" points="548.183,-6.5001 538.183,-10 548.183,-13.5001 548.183,-6.5001"/>
</g>
</g>
</svg>
