<?xml version="1.0" encoding="UTF-8" standalone="no"?>
<!DOCTYPE svg PUBLIC "-//W3C//DTD SVG 1.1//EN"
 "http://www.w3.org/Graphics/SVG/1.1/DTD/svg11.dtd">
<!-- Generated by graphviz version 2.38.0 (20140413.2041)
 -->
<!-- Title: SingleHorizonTest Pages: 1 -->
<svg width="514pt" height="28pt"
 viewBox="0.00 0.00 514.00 28.00" xmlns="http://www.w3.org/2000/svg" xmlns:xlink="http://www.w3.org/1999/xlink">
<g id="graph0" class="graph" transform="scale(1 1) rotate(0) translate(4 24)">
<title>SingleHorizonTest</title>
<polygon fill="white" stroke="none" points="-4,4 -4,-24 510,-24 510,4 -4,4"/>
<!-- Node1 -->
<g id="node1" class="node"><title>Node1</title>
<polygon fill="#bfbfbf" stroke="black" points="0,-0.5 0,-19.5 97,-19.5 97,-0.5 0,-0.5"/>
<text text-anchor="middle" x="48.5" y="-7.5" font-family="Helvetica,sans-Serif" font-size="10.00">SingleHorizonTest</text>
</g>
<!-- Node2 -->
<g id="node2" class="node"><title>Node2</title>
<g id="a_node2"><a xlink:href="../../d9/dbb/PreprocessTerrainPath_8cpp.html#a89ca684c84b78b8528505abc29419fa7" target="_top" xlink:title="PreprocessTerrainPath">
<polygon fill="white" stroke="black" points="133,-0.5 133,-19.5 249,-19.5 249,-0.5 133,-0.5"/>
<text text-anchor="middle" x="191" y="-7.5" font-family="Helvetica,sans-Serif" font-size="10.00">PreprocessTerrainPath</text>
</a>
</g>
</g>
<!-- Node1&#45;&gt;Node2 -->
<g id="edge1" class="edge"><title>Node1&#45;&gt;Node2</title>
<path fill="none" stroke="midnightblue" d="M107.2,-10C115.637,-10 124.324,-10 132.752,-10"/>
<polygon fill="midnightblue" stroke="midnightblue" points="107.067,-6.5001 97.0669,-10 107.067,-13.5001 107.067,-6.5001"/>
</g>
<!-- Node3 -->
<g id="node3" class="node"><title>Node3</title>
<g id="a_node3"><a xlink:href="../../d9/daf/ExtendedHata_8cpp.html#a11232c905b4b2d54ca008791dad7ecf3" target="_top" xlink:title="ExtendedHata_DBG">
<polygon fill="white" stroke="black" points="285,-0.5 285,-19.5 391,-19.5 391,-0.5 285,-0.5"/>
<text text-anchor="middle" x="338" y="-7.5" font-family="Helvetica,sans-Serif" font-size="10.00">ExtendedHata_DBG</text>
</a>
</g>
</g>
<!-- Node2&#45;&gt;Node3 -->
<g id="edge2" class="edge"><title>Node2&#45;&gt;Node3</title>
<path fill="none" stroke="midnightblue" d="M259.575,-10C268.055,-10 276.625,-10 284.818,-10"/>
<polygon fill="midnightblue" stroke="midnightblue" points="259.308,-6.5001 249.308,-10 259.308,-13.5001 259.308,-6.5001"/>
</g>
<!-- Node4 -->
<g id="node4" class="node"><title>Node4</title>
<g id="a_node4"><a xlink:href="../../d6/d96/ehata__its__py_8cpp.html#a327cf674a964d85fc7d2d68c89a52d09" target="_top" xlink:title="ExtendedHata">
<polygon fill="white" stroke="black" points="427,-0.5 427,-19.5 506,-19.5 506,-0.5 427,-0.5"/>
<text text-anchor="middle" x="466.5" y="-7.5" font-family="Helvetica,sans-Serif" font-size="10.00">ExtendedHata</text>
</a>
</g>
</g>
<!-- Node3&#45;&gt;Node4 -->
<g id="edge3" class="edge"><title>Node3&#45;&gt;Node4</title>
<path fill="none" stroke="midnightblue" d="M401.379,-10C410.108,-10 418.858,-10 426.966,-10"/>
<polygon fill="midnightblue" stroke="midnightblue" points="401.183,-6.5001 391.183,-10 401.183,-13.5001 401.183,-6.5001"/>
</g>
</g>
</svg>
