<?xml version="1.0" encoding="UTF-8" standalone="no"?>
<!DOCTYPE svg PUBLIC "-//W3C//DTD SVG 1.1//EN"
 "http://www.w3.org/Graphics/SVG/1.1/DTD/svg11.dtd">
<!-- Generated by graphviz version 2.38.0 (20140413.2041)
 -->
<!-- Title: MixedPathCorrectionFactor Pages: 1 -->
<svg width="401pt" height="28pt"
 viewBox="0.00 0.00 401.00 28.00" xmlns="http://www.w3.org/2000/svg" xmlns:xlink="http://www.w3.org/1999/xlink">
<g id="graph0" class="graph" transform="scale(1 1) rotate(0) translate(4 24)">
<title>MixedPathCorrectionFactor</title>
<polygon fill="white" stroke="none" points="-4,4 -4,-24 397,-24 397,4 -4,4"/>
<!-- Node1 -->
<g id="node1" class="node"><title>Node1</title>
<polygon fill="#bfbfbf" stroke="black" points="0,-0.5 0,-19.5 136,-19.5 136,-0.5 0,-0.5"/>
<text text-anchor="middle" x="68" y="-7.5" font-family="Helvetica,sans-Serif" font-size="10.00">MixedPathCorrectionFactor</text>
</g>
<!-- Node2 -->
<g id="node2" class="node"><title>Node2</title>
<g id="a_node2"><a xlink:href="../../d9/daf/ExtendedHata_8cpp.html#a11232c905b4b2d54ca008791dad7ecf3" target="_top" xlink:title="ExtendedHata_DBG">
<polygon fill="white" stroke="black" points="172,-0.5 172,-19.5 278,-19.5 278,-0.5 172,-0.5"/>
<text text-anchor="middle" x="225" y="-7.5" font-family="Helvetica,sans-Serif" font-size="10.00">ExtendedHata_DBG</text>
</a>
</g>
</g>
<!-- Node1&#45;&gt;Node2 -->
<g id="edge1" class="edge"><title>Node1&#45;&gt;Node2</title>
<path fill="none" stroke="midnightblue" d="M146.217,-10C154.872,-10 163.532,-10 171.765,-10"/>
<polygon fill="midnightblue" stroke="midnightblue" points="146.084,-6.5001 136.084,-10 146.084,-13.5001 146.084,-6.5001"/>
</g>
<!-- Node3 -->
<g id="node3" class="node"><title>Node3</title>
<g id="a_node3"><a xlink:href="../../d6/d96/ehata__its__py_8cpp.html#a327cf674a964d85fc7d2d68c89a52d09" target="_top" xlink:title="ExtendedHata">
<polygon fill="white" stroke="black" points="314,-0.5 314,-19.5 393,-19.5 393,-0.5 314,-0.5"/>
<text text-anchor="middle" x="353.5" y="-7.5" font-family="Helvetica,sans-Serif" font-size="10.00">ExtendedHata</text>
</a>
</g>
</g>
<!-- Node2&#45;&gt;Node3 -->
<g id="edge2" class="edge"><title>Node2&#45;&gt;Node3</title>
<path fill="none" stroke="midnightblue" d="M288.379,-10C297.108,-10 305.858,-10 313.966,-10"/>
<polygon fill="midnightblue" stroke="midnightblue" points="288.183,-6.5001 278.183,-10 288.183,-13.5001 288.183,-6.5001"/>
</g>
</g>
</svg>
