<?xml version="1.0" encoding="UTF-8" standalone="no"?>
<!DOCTYPE svg PUBLIC "-//W3C//DTD SVG 1.1//EN"
 "http://www.w3.org/Graphics/SVG/1.1/DTD/svg11.dtd">
<!-- Generated by graphviz version 2.38.0 (20140413.2041)
 -->
<!-- Title: itm_point_to_point Pages: 1 -->
<svg width="304pt" height="50pt"
 viewBox="0.00 0.00 304.00 50.00" xmlns="http://www.w3.org/2000/svg" xmlns:xlink="http://www.w3.org/1999/xlink">
<g id="graph0" class="graph" transform="scale(1 1) rotate(0) translate(4 46)">
<title>itm_point_to_point</title>
<polygon fill="white" stroke="none" points="-4,4 -4,-46 300,-46 300,4 -4,4"/>
<!-- Node1 -->
<g id="node1" class="node"><title>Node1</title>
<polygon fill="#bfbfbf" stroke="black" points="0,-11.5 0,-30.5 96,-30.5 96,-11.5 0,-11.5"/>
<text text-anchor="middle" x="48" y="-18.5" font-family="Helvetica,sans-Serif" font-size="10.00">itm_point_to_point</text>
</g>
<!-- Node2 -->
<g id="node2" class="node"><title>Node2</title>
<g id="a_node2"><a xlink:href="../../d8/dd9/namespacesrc_1_1harness_1_1reference__models_1_1propagation_1_1itm_1_1itm.html#a96abc8d6e64c112b6bfc41723f5c501a" target="_top" xlink:title="src.harness.reference\l_models.propagation.itm.itm.point\l_to_point">
<polygon fill="white" stroke="black" points="132,-0.5 132,-41.5 296,-41.5 296,-0.5 132,-0.5"/>
<text text-anchor="start" x="140" y="-29.5" font-family="Helvetica,sans-Serif" font-size="10.00">src.harness.reference</text>
<text text-anchor="start" x="140" y="-18.5" font-family="Helvetica,sans-Serif" font-size="10.00">_models.propagation.itm.itm.point</text>
<text text-anchor="middle" x="214" y="-7.5" font-family="Helvetica,sans-Serif" font-size="10.00">_to_point</text>
</a>
</g>
</g>
<!-- Node1&#45;&gt;Node2 -->
<g id="edge1" class="edge"><title>Node1&#45;&gt;Node2</title>
<path fill="none" stroke="midnightblue" d="M96.4356,-21C104.459,-21 113.023,-21 121.727,-21"/>
<polygon fill="midnightblue" stroke="midnightblue" points="121.987,-24.5001 131.987,-21 121.987,-17.5001 121.987,-24.5001"/>
</g>
</g>
</svg>
