<?xml version="1.0" encoding="UTF-8" standalone="no"?>
<!DOCTYPE svg PUBLIC "-//W3C//DTD SVG 1.1//EN"
 "http://www.w3.org/Graphics/SVG/1.1/DTD/svg11.dtd">
<!-- Generated by graphviz version 2.38.0 (20140413.2041)
 -->
<!-- Title: itm_point_to_point_rels Pages: 1 -->
<!--zoomable 593 -->
<svg id="main" version="1.1" xmlns="http://www.w3.org/2000/svg" xmlns:xlink="http://www.w3.org/1999/xlink" xml:space="preserve" onload="init(evt)">
<style type="text/css"><![CDATA[
.edge:hover path { stroke: red; }
.edge:hover polygon { stroke: red; fill: red; }
]]></style>
<script type="text/javascript"><![CDATA[
var edges = document.getElementsByTagName('g');
if (edges && edges.length) {
  for (var i=0;i<edges.length;i++) {
    if (edges[i].id.substr(0,4)=='edge') {
      edges[i].setAttribute('class','edge');
    }
  }
}
]]></script>
        <defs>
                <circle id="rim" cx="0" cy="0" r="7"/>
                <circle id="rim2" cx="0" cy="0" r="3.5"/>
                <g id="zoomPlus">
                        <use xlink:href="#rim" fill="#404040">
                                <set attributeName="fill" to="#808080" begin="zoomplus.mouseover" end="zoomplus.mouseout"/>
                        </use>
                        <path d="M-4,0h8M0,-4v8" fill="none" stroke="white" stroke-width="1.5" pointer-events="none"/>
                </g>
                <g id="zoomMin">
                        <use xlink:href="#rim" fill="#404040">
                                <set attributeName="fill" to="#808080" begin="zoomminus.mouseover" end="zoomminus.mouseout"/>
                        </use>
                        <path d="M-4,0h8" fill="none" stroke="white" stroke-width="1.5" pointer-events="none"/>
                </g>
                <g id="dirArrow">
                        <path fill="none" stroke="white" stroke-width="1.5" d="M0,-3.0v7 M-2.5,-0.5L0,-3.0L2.5,-0.5"/>
                </g>
               <g id="resetDef">
                       <use xlink:href="#rim2" fill="#404040">
                               <set attributeName="fill" to="#808080" begin="reset.mouseover" end="reset.mouseout"/>
                       </use>
               </g>
        </defs>

<script type="text/javascript">
var viewWidth = 614;
var viewHeight = 593;
var sectionId = 'dynsection-2';
</script>
<script xlink:href="../../svgpan.js"/>
<svg id="graph" class="graph">
<g id="viewport">
<title>itm_point_to_point_rels</title>
<polygon fill="white" stroke="none" points="-4,4 -4,-589 610,-589 610,4 -4,4"/>
<!-- Node1 -->
<g id="node1" class="node"><title>Node1</title>
<polygon fill="#bfbfbf" stroke="black" points="0,-95.5 0,-114.5 117,-114.5 117,-95.5 0,-95.5"/>
<text text-anchor="middle" x="58.5" y="-102.5" font-family="Helvetica,sans-Serif" font-size="10.00">itm_point_to_point_rels</text>
</g>
<!-- Node2 -->
<g id="node2" class="node"><title>Node2</title>
<g id="a_node2"><a xlink:href="../../d2/d31/itm_8cpp.html#a10cbe00a25272645d169d34f2296cd7f" target="_top" xlink:title="point_to_point_rels">
<polygon fill="white" stroke="black" points="153,-95.5 153,-114.5 251,-114.5 251,-95.5 153,-95.5"/>
<text text-anchor="middle" x="202" y="-102.5" font-family="Helvetica,sans-Serif" font-size="10.00">point_to_point_rels</text>
</a>
</g>
</g>
<!-- Node1&#45;&gt;Node2 -->
<g id="edge1" class="edge"><title>Node1&#45;&gt;Node2</title>
<path fill="none" stroke="midnightblue" d="M117.053,-105C125.539,-105 134.288,-105 142.787,-105"/>
<polygon fill="midnightblue" stroke="midnightblue" points="142.996,-108.5 152.996,-105 142.996,-101.5 142.996,-108.5"/>
</g>
<!-- Node3 -->
<g id="node3" class="node"><title>Node3</title>
<g id="a_node3"><a xlink:href="../../d2/d31/itm_8cpp.html#ad0a12435e029210dab38fce002347a31" target="_top" xlink:title="qerfi">
<polygon fill="white" stroke="black" points="288.5,-76.5 288.5,-95.5 323.5,-95.5 323.5,-76.5 288.5,-76.5"/>
<text text-anchor="middle" x="306" y="-83.5" font-family="Helvetica,sans-Serif" font-size="10.00">qerfi</text>
</a>
</g>
</g>
<!-- Node2&#45;&gt;Node3 -->
<g id="edge2" class="edge"><title>Node2&#45;&gt;Node3</title>
<path fill="none" stroke="midnightblue" d="M251.013,-96.0564C260.459,-94.2968 270.043,-92.5117 278.461,-90.9436"/>
<polygon fill="midnightblue" stroke="midnightblue" points="279.213,-94.3638 288.403,-89.0917 277.931,-87.4822 279.213,-94.3638"/>
</g>
<!-- Node5 -->
<g id="node5" class="node"><title>Node5</title>
<g id="a_node5"><a xlink:href="../../d2/d31/itm_8cpp.html#a35bdc04d015dd4e8c83f0ff5ffb4966a" target="_top" xlink:title="qlrps">
<polygon fill="white" stroke="black" points="287,-114.5 287,-133.5 325,-133.5 325,-114.5 287,-114.5"/>
<text text-anchor="middle" x="306" y="-121.5" font-family="Helvetica,sans-Serif" font-size="10.00">qlrps</text>
</a>
</g>
</g>
<!-- Node2&#45;&gt;Node5 -->
<g id="edge4" class="edge"><title>Node2&#45;&gt;Node5</title>
<path fill="none" stroke="midnightblue" d="M251.013,-113.944C259.923,-115.603 268.955,-117.286 277.017,-118.787"/>
<polygon fill="midnightblue" stroke="midnightblue" points="276.491,-122.25 286.963,-120.64 277.773,-115.368 276.491,-122.25"/>
</g>
<!-- Node6 -->
<g id="node6" class="node"><title>Node6</title>
<g id="a_node6"><a xlink:href="../../d2/d31/itm_8cpp.html#ae682440b4eaee05406c08f8ae48e60d8" target="_top" xlink:title="qlrpfl">
<polygon fill="white" stroke="black" points="287,-247.5 287,-266.5 325,-266.5 325,-247.5 287,-247.5"/>
<text text-anchor="middle" x="306" y="-254.5" font-family="Helvetica,sans-Serif" font-size="10.00">qlrpfl</text>
</a>
</g>
</g>
<!-- Node2&#45;&gt;Node6 -->
<g id="edge5" class="edge"><title>Node2&#45;&gt;Node6</title>
<path fill="none" stroke="midnightblue" d="M209.381,-114.508C226.053,-139.353 271.131,-206.528 292.905,-238.976"/>
<polygon fill="midnightblue" stroke="midnightblue" points="290.143,-241.142 298.622,-247.495 295.956,-237.241 290.143,-241.142"/>
</g>
<!-- Node22 -->
<g id="node22" class="node"><title>Node22</title>
<g id="a_node22"><a xlink:href="../../d2/d31/itm_8cpp.html#af10b92806af5d5946a8332763321e2df" target="_top" xlink:title="avar">
<polygon fill="white" stroke="black" points="288.5,-38.5 288.5,-57.5 323.5,-57.5 323.5,-38.5 288.5,-38.5"/>
<text text-anchor="middle" x="306" y="-45.5" font-family="Helvetica,sans-Serif" font-size="10.00">avar</text>
</a>
</g>
</g>
<!-- Node2&#45;&gt;Node22 -->
<g id="edge37" class="edge"><title>Node2&#45;&gt;Node22</title>
<path fill="none" stroke="midnightblue" d="M220.303,-95.3307C236.543,-86.2554 261.035,-72.569 279.51,-62.2443"/>
<polygon fill="midnightblue" stroke="midnightblue" points="281.269,-65.2712 288.291,-57.3376 277.854,-59.1606 281.269,-65.2712"/>
</g>
<!-- Node4 -->
<g id="node4" class="node"><title>Node4</title>
<g id="a_node4"><a xlink:href="../../d2/d31/itm_8cpp.html#aef74668a97df8c1c4614043e233d38fe" target="_top" xlink:title="mymax">
<polygon fill="white" stroke="black" points="537,-171.5 537,-190.5 586,-190.5 586,-171.5 537,-171.5"/>
<text text-anchor="middle" x="561.5" y="-178.5" font-family="Helvetica,sans-Serif" font-size="10.00">mymax</text>
</a>
</g>
</g>
<!-- Node3&#45;&gt;Node4 -->
<g id="edge3" class="edge"><title>Node3&#45;&gt;Node4</title>
<path fill="none" stroke="midnightblue" d="M323.633,-92.2332C364.8,-107.661 472.079,-147.864 527.016,-168.452"/>
<polygon fill="midnightblue" stroke="midnightblue" points="526.045,-171.825 536.637,-172.057 528.501,-165.271 526.045,-171.825"/>
</g>
<!-- Node6&#45;&gt;Node4 -->
<g id="edge18" class="edge"><title>Node6&#45;&gt;Node4</title>
<path fill="none" stroke="midnightblue" d="M310.856,-247.481C318.055,-231.018 335.187,-197.416 361,-181 411.489,-148.89 484.686,-160.118 526.951,-170.814"/>
<polygon fill="midnightblue" stroke="midnightblue" points="526.18,-174.231 536.744,-173.425 527.983,-167.467 526.18,-174.231"/>
</g>
<!-- Node7 -->
<g id="node7" class="node"><title>Node7</title>
<g id="a_node7"><a xlink:href="../../d2/d31/itm_8cpp.html#a33721834e531cc713891ff5da4ab5d1f" target="_top" xlink:title="hzns">
<polygon fill="white" stroke="black" points="362.5,-190.5 362.5,-209.5 400.5,-209.5 400.5,-190.5 362.5,-190.5"/>
<text text-anchor="middle" x="381.5" y="-197.5" font-family="Helvetica,sans-Serif" font-size="10.00">hzns</text>
</a>
</g>
</g>
<!-- Node6&#45;&gt;Node7 -->
<g id="edge6" class="edge"><title>Node6&#45;&gt;Node7</title>
<path fill="none" stroke="midnightblue" d="M319.468,-247.331C330.623,-238.68 347.179,-225.841 360.234,-215.716"/>
<polygon fill="midnightblue" stroke="midnightblue" points="362.459,-218.421 368.216,-209.526 358.169,-212.889 362.459,-218.421"/>
</g>
<!-- Node8 -->
<g id="node8" class="node"><title>Node8</title>
<g id="a_node8"><a xlink:href="../../d2/d31/itm_8cpp.html#ae383616ab74473e2622ac352721e342f" target="_top" xlink:title="mymin">
<polygon fill="white" stroke="black" points="538.5,-344.5 538.5,-363.5 584.5,-363.5 584.5,-344.5 538.5,-344.5"/>
<text text-anchor="middle" x="561.5" y="-351.5" font-family="Helvetica,sans-Serif" font-size="10.00">mymin</text>
</a>
</g>
</g>
<!-- Node6&#45;&gt;Node8 -->
<g id="edge7" class="edge"><title>Node6&#45;&gt;Node8</title>
<path fill="none" stroke="midnightblue" d="M325.231,-263.976C367.981,-280.334 475.11,-321.326 528.796,-341.868"/>
<polygon fill="midnightblue" stroke="midnightblue" points="527.58,-345.151 538.17,-345.456 530.081,-338.613 527.58,-345.151"/>
</g>
<!-- Node9 -->
<g id="node9" class="node"><title>Node9</title>
<g id="a_node9"><a xlink:href="../../d2/d31/itm_8cpp.html#a45e678693240356cd41b59d8edb5bb12" target="_top" xlink:title="d1thx">
<polygon fill="white" stroke="black" points="361,-228.5 361,-247.5 402,-247.5 402,-228.5 361,-228.5"/>
<text text-anchor="middle" x="381.5" y="-235.5" font-family="Helvetica,sans-Serif" font-size="10.00">d1thx</text>
</a>
</g>
</g>
<!-- Node6&#45;&gt;Node9 -->
<g id="edge8" class="edge"><title>Node6&#45;&gt;Node9</title>
<path fill="none" stroke="midnightblue" d="M325.169,-252.303C332.991,-250.281 342.337,-247.865 351.101,-245.6"/>
<polygon fill="midnightblue" stroke="midnightblue" points="352.191,-248.933 360.996,-243.042 350.439,-242.156 352.191,-248.933"/>
</g>
<!-- Node10 -->
<g id="node10" class="node"><title>Node10</title>
<g id="a_node10"><a xlink:href="../../d2/d31/itm_8cpp.html#a95a65538c0942d9e797bc3ea36ab7f08" target="_top" xlink:title="z1sq1">
<polygon fill="white" stroke="black" points="438,-494.5 438,-513.5 481,-513.5 481,-494.5 438,-494.5"/>
<text text-anchor="middle" x="459.5" y="-501.5" font-family="Helvetica,sans-Serif" font-size="10.00">z1sq1</text>
</a>
</g>
</g>
<!-- Node6&#45;&gt;Node10 -->
<g id="edge16" class="edge"><title>Node6&#45;&gt;Node10</title>
<path fill="none" stroke="midnightblue" d="M308.813,-266.571C313.876,-291.603 329.875,-360.427 361,-409 381.712,-441.323 415.395,-470.875 437.249,-488.159"/>
<polygon fill="midnightblue" stroke="midnightblue" points="435.22,-491.015 445.269,-494.372 439.506,-485.481 435.22,-491.015"/>
</g>
<!-- Node11 -->
<g id="node11" class="node"><title>Node11</title>
<g id="a_node11"><a xlink:href="../../d2/d31/itm_8cpp.html#ae61eab5929102f86b606d9007f0cc139" target="_top" xlink:title="FORTRAN_DIM">
<polygon fill="white" stroke="black" points="517,-480.5 517,-499.5 606,-499.5 606,-480.5 517,-480.5"/>
<text text-anchor="middle" x="561.5" y="-487.5" font-family="Helvetica,sans-Serif" font-size="10.00">FORTRAN_DIM</text>
</a>
</g>
</g>
<!-- Node6&#45;&gt;Node11 -->
<g id="edge17" class="edge"><title>Node6&#45;&gt;Node11</title>
<path fill="none" stroke="midnightblue" d="M307.274,-266.625C309.15,-311.474 323.81,-500.331 438,-561 454.877,-569.967 463.684,-569.086 481,-561 503.583,-550.454 498.308,-534.488 517,-518 522.34,-513.29 528.544,-508.811 534.566,-504.873"/>
<polygon fill="midnightblue" stroke="midnightblue" points="536.504,-507.789 543.135,-499.526 532.798,-501.851 536.504,-507.789"/>
</g>
<!-- Node13 -->
<g id="node13" class="node"><title>Node13</title>
<g id="a_node13"><a xlink:href="../../d2/d31/itm_8cpp.html#a32289828f24201e9dde6140e27708d73" target="_top" xlink:title="lrprop">
<polygon fill="white" stroke="black" points="361,-380.5 361,-399.5 402,-399.5 402,-380.5 361,-380.5"/>
<text text-anchor="middle" x="381.5" y="-387.5" font-family="Helvetica,sans-Serif" font-size="10.00">lrprop</text>
</a>
</g>
</g>
<!-- Node6&#45;&gt;Node13 -->
<g id="edge19" class="edge"><title>Node6&#45;&gt;Node13</title>
<path fill="none" stroke="midnightblue" d="M312.286,-266.565C324.358,-288.41 354.137,-342.296 370.061,-371.11"/>
<polygon fill="midnightblue" stroke="midnightblue" points="367.163,-373.103 375.064,-380.163 373.29,-369.717 367.163,-373.103"/>
</g>
<!-- Node9&#45;&gt;Node4 -->
<g id="edge10" class="edge"><title>Node9&#45;&gt;Node4</title>
<path fill="none" stroke="midnightblue" d="M392.496,-228.41C395.57,-225.421 398.947,-222.096 402,-219 418.335,-202.435 416.629,-190.192 438,-181 466.16,-168.887 501.445,-170.415 526.904,-174.062"/>
<polygon fill="midnightblue" stroke="midnightblue" points="526.393,-177.525 536.823,-175.66 527.507,-170.614 526.393,-177.525"/>
</g>
<!-- Node9&#45;&gt;Node8 -->
<g id="edge9" class="edge"><title>Node9&#45;&gt;Node8</title>
<path fill="none" stroke="midnightblue" d="M402.01,-238.036C423.556,-239.058 458.205,-243.723 481,-262 509.224,-284.629 490.834,-310.02 517,-335 520.539,-338.379 524.777,-341.212 529.198,-343.572"/>
<polygon fill="midnightblue" stroke="midnightblue" points="527.818,-346.79 538.367,-347.772 530.733,-340.425 527.818,-346.79"/>
</g>
<!-- Node9&#45;&gt;Node10 -->
<g id="edge11" class="edge"><title>Node9&#45;&gt;Node10</title>
<path fill="none" stroke="midnightblue" d="M384.754,-247.666C391.791,-277.552 414.297,-371.022 438,-447 441.987,-459.781 447.079,-473.947 451.19,-484.959"/>
<polygon fill="midnightblue" stroke="midnightblue" points="447.951,-486.289 454.763,-494.403 454.498,-483.812 447.951,-486.289"/>
</g>
<!-- Node12 -->
<g id="node12" class="node"><title>Node12</title>
<g id="a_node12"><a xlink:href="../../d2/d31/itm_8cpp.html#a8ab54b7902d55b592e2d76dafdb93069" target="_top" xlink:title="qtile">
<polygon fill="white" stroke="black" points="442,-190.5 442,-209.5 477,-209.5 477,-190.5 442,-190.5"/>
<text text-anchor="middle" x="459.5" y="-197.5" font-family="Helvetica,sans-Serif" font-size="10.00">qtile</text>
</a>
</g>
</g>
<!-- Node9&#45;&gt;Node12 -->
<g id="edge13" class="edge"><title>Node9&#45;&gt;Node12</title>
<path fill="none" stroke="midnightblue" d="M401.678,-228.411C411.075,-223.712 422.527,-217.986 432.681,-212.909"/>
<polygon fill="midnightblue" stroke="midnightblue" points="434.531,-215.898 441.91,-208.295 431.4,-209.637 434.531,-215.898"/>
</g>
<!-- Node10&#45;&gt;Node11 -->
<g id="edge12" class="edge"><title>Node10&#45;&gt;Node11</title>
<path fill="none" stroke="midnightblue" d="M481.22,-501.099C488.702,-500.052 497.534,-498.815 506.539,-497.555"/>
<polygon fill="midnightblue" stroke="midnightblue" points="507.298,-500.983 516.716,-496.13 506.327,-494.05 507.298,-500.983"/>
</g>
<!-- Node12&#45;&gt;Node4 -->
<g id="edge15" class="edge"><title>Node12&#45;&gt;Node4</title>
<path fill="none" stroke="midnightblue" d="M477.013,-196.863C490.519,-194.296 510.059,-190.584 526.84,-187.395"/>
<polygon fill="midnightblue" stroke="midnightblue" points="527.682,-190.798 536.853,-185.493 526.375,-183.921 527.682,-190.798"/>
</g>
<!-- Node12&#45;&gt;Node8 -->
<g id="edge14" class="edge"><title>Node12&#45;&gt;Node8</title>
<path fill="none" stroke="midnightblue" d="M470.235,-209.611C474.009,-213.757 478.11,-218.836 481,-224 506.33,-269.257 482.171,-296.572 517,-335 520.352,-338.698 524.552,-341.71 529.012,-344.153"/>
<polygon fill="midnightblue" stroke="midnightblue" points="527.792,-347.443 538.343,-348.407 530.696,-341.074 527.792,-347.443"/>
</g>
<!-- Node13&#45;&gt;Node4 -->
<g id="edge20" class="edge"><title>Node13&#45;&gt;Node4</title>
<path fill="none" stroke="midnightblue" d="M390.611,-380.477C418.353,-347.903 509.72,-240.624 545.727,-198.346"/>
<polygon fill="midnightblue" stroke="midnightblue" points="548.522,-200.462 552.342,-190.579 543.193,-195.923 548.522,-200.462"/>
</g>
<!-- Node13&#45;&gt;Node8 -->
<g id="edge29" class="edge"><title>Node13&#45;&gt;Node8</title>
<path fill="none" stroke="midnightblue" d="M402.146,-386.331C422.043,-382.586 453.693,-376.553 481,-371 496.582,-367.832 513.845,-364.16 528.293,-361.041"/>
<polygon fill="midnightblue" stroke="midnightblue" points="529.219,-364.421 538.251,-358.883 527.736,-357.58 529.219,-364.421"/>
</g>
<!-- Node13&#45;&gt;Node11 -->
<g id="edge30" class="edge"><title>Node13&#45;&gt;Node11</title>
<path fill="none" stroke="midnightblue" d="M389.7,-399.818C399.383,-412.383 417.743,-434.068 438,-447 459.514,-460.734 485.965,-470.732 508.775,-477.611"/>
<polygon fill="midnightblue" stroke="midnightblue" points="508.056,-481.046 518.635,-480.462 510.001,-474.322 508.056,-481.046"/>
</g>
<!-- Node14 -->
<g id="node14" class="node"><title>Node14</title>
<g id="a_node14"><a xlink:href="../../d2/d31/itm_8cpp.html#a61774c377cce1be80117b174ac61eef2" target="_top" xlink:title="adiff">
<polygon fill="white" stroke="black" points="442,-532.5 442,-551.5 477,-551.5 477,-532.5 442,-532.5"/>
<text text-anchor="middle" x="459.5" y="-539.5" font-family="Helvetica,sans-Serif" font-size="10.00">adiff</text>
</a>
</g>
</g>
<!-- Node13&#45;&gt;Node14 -->
<g id="edge21" class="edge"><title>Node13&#45;&gt;Node14</title>
<path fill="none" stroke="midnightblue" d="M385.005,-399.725C391.242,-422.707 409.074,-481.555 438,-523 438.437,-523.627 438.899,-524.248 439.379,-524.863"/>
<polygon fill="midnightblue" stroke="midnightblue" points="436.953,-527.394 446.332,-532.321 442.073,-522.62 436.953,-527.394"/>
</g>
<!-- Node17 -->
<g id="node17" class="node"><title>Node17</title>
<g id="a_node17"><a xlink:href="../../d2/d31/itm_8cpp.html#a404799cf89ce54ce7b92e13ad355ad85" target="_top" xlink:title="alos">
<polygon fill="white" stroke="black" points="442,-342.5 442,-361.5 477,-361.5 477,-342.5 442,-342.5"/>
<text text-anchor="middle" x="459.5" y="-349.5" font-family="Helvetica,sans-Serif" font-size="10.00">alos</text>
</a>
</g>
</g>
<!-- Node13&#45;&gt;Node17 -->
<g id="edge25" class="edge"><title>Node13&#45;&gt;Node17</title>
<path fill="none" stroke="midnightblue" d="M401.678,-380.411C411.075,-375.712 422.527,-369.986 432.681,-364.909"/>
<polygon fill="midnightblue" stroke="midnightblue" points="434.531,-367.898 441.91,-360.295 431.4,-361.637 434.531,-367.898"/>
</g>
<!-- Node19 -->
<g id="node19" class="node"><title>Node19</title>
<g id="a_node19"><a xlink:href="../../d2/d31/itm_8cpp.html#a74cbbcd996594f97dd6088dbbaff27c7" target="_top" xlink:title="ascat">
<polygon fill="white" stroke="black" points="439,-418.5 439,-437.5 480,-437.5 480,-418.5 439,-418.5"/>
<text text-anchor="middle" x="459.5" y="-425.5" font-family="Helvetica,sans-Serif" font-size="10.00">ascat</text>
</a>
</g>
</g>
<!-- Node13&#45;&gt;Node19 -->
<g id="edge31" class="edge"><title>Node13&#45;&gt;Node19</title>
<path fill="none" stroke="midnightblue" d="M401.678,-399.589C410.319,-403.909 420.697,-409.098 430.205,-413.853"/>
<polygon fill="midnightblue" stroke="midnightblue" points="428.819,-417.072 439.328,-418.414 431.949,-410.811 428.819,-417.072"/>
</g>
<!-- Node14&#45;&gt;Node8 -->
<g id="edge22" class="edge"><title>Node14&#45;&gt;Node8</title>
<path fill="none" stroke="midnightblue" d="M473.454,-532.151C476.291,-529.456 479.032,-526.346 481,-523 515.106,-465.024 475.158,-428.666 517,-376 520.336,-371.801 524.687,-368.332 529.345,-365.49"/>
<polygon fill="midnightblue" stroke="midnightblue" points="531.213,-368.465 538.495,-360.769 528.003,-362.244 531.213,-368.465"/>
</g>
<!-- Node15 -->
<g id="node15" class="node"><title>Node15</title>
<g id="a_node15"><a xlink:href="../../d2/d31/itm_8cpp.html#a58865d6a14f0fb4c0da66d610f830cdb" target="_top" xlink:title="fht">
<polygon fill="white" stroke="black" points="547,-565.5 547,-584.5 576,-584.5 576,-565.5 547,-565.5"/>
<text text-anchor="middle" x="561.5" y="-572.5" font-family="Helvetica,sans-Serif" font-size="10.00">fht</text>
</a>
</g>
</g>
<!-- Node14&#45;&gt;Node15 -->
<g id="edge23" class="edge"><title>Node14&#45;&gt;Node15</title>
<path fill="none" stroke="midnightblue" d="M477.013,-547.449C493.413,-552.861 518.707,-561.208 537.158,-567.297"/>
<polygon fill="midnightblue" stroke="midnightblue" points="536.264,-570.688 546.857,-570.498 538.458,-564.04 536.264,-570.688"/>
</g>
<!-- Node16 -->
<g id="node16" class="node"><title>Node16</title>
<g id="a_node16"><a xlink:href="../../d2/d31/itm_8cpp.html#a133ac157c106bdbab35606739556ed65" target="_top" xlink:title="aknfe">
<polygon fill="white" stroke="black" points="541,-527.5 541,-546.5 582,-546.5 582,-527.5 541,-527.5"/>
<text text-anchor="middle" x="561.5" y="-534.5" font-family="Helvetica,sans-Serif" font-size="10.00">aknfe</text>
</a>
</g>
</g>
<!-- Node14&#45;&gt;Node16 -->
<g id="edge24" class="edge"><title>Node14&#45;&gt;Node16</title>
<path fill="none" stroke="midnightblue" d="M477.013,-541.174C491.53,-540.449 513.017,-539.374 530.557,-538.497"/>
<polygon fill="midnightblue" stroke="midnightblue" points="531.057,-541.977 540.87,-537.982 530.708,-534.985 531.057,-541.977"/>
</g>
<!-- Node17&#45;&gt;Node4 -->
<g id="edge26" class="edge"><title>Node17&#45;&gt;Node4</title>
<path fill="none" stroke="midnightblue" d="M469.776,-342.103C473.48,-337.914 477.652,-332.88 481,-328 510.823,-284.532 538.358,-228.721 551.831,-199.981"/>
<polygon fill="midnightblue" stroke="midnightblue" points="555.108,-201.235 556.137,-190.69 548.756,-198.292 555.108,-201.235"/>
</g>
<!-- Node17&#45;&gt;Node8 -->
<g id="edge27" class="edge"><title>Node17&#45;&gt;Node8</title>
<path fill="none" stroke="midnightblue" d="M477.013,-352.33C490.887,-352.608 511.127,-353.013 528.203,-353.354"/>
<polygon fill="midnightblue" stroke="midnightblue" points="528.274,-356.856 538.342,-353.557 528.414,-349.857 528.274,-356.856"/>
</g>
<!-- Node18 -->
<g id="node18" class="node"><title>Node18</title>
<g id="a_node18"><a xlink:href="../../d2/d31/itm_8cpp.html#aea4c472ad2b67e25eefe72767a817667" target="_top" xlink:title="abq_alos">
<polygon fill="white" stroke="black" points="533.5,-306.5 533.5,-325.5 589.5,-325.5 589.5,-306.5 533.5,-306.5"/>
<text text-anchor="middle" x="561.5" y="-313.5" font-family="Helvetica,sans-Serif" font-size="10.00">abq_alos</text>
</a>
</g>
</g>
<!-- Node17&#45;&gt;Node18 -->
<g id="edge28" class="edge"><title>Node17&#45;&gt;Node18</title>
<path fill="none" stroke="midnightblue" d="M477.013,-346.055C489.784,-341.458 507.95,-334.918 524.077,-329.112"/>
<polygon fill="midnightblue" stroke="midnightblue" points="525.565,-332.297 533.788,-325.616 523.194,-325.71 525.565,-332.297"/>
</g>
<!-- Node19&#45;&gt;Node4 -->
<g id="edge32" class="edge"><title>Node19&#45;&gt;Node4</title>
<path fill="none" stroke="midnightblue" d="M464.42,-418.317C479.324,-381.506 532.631,-249.838 552.744,-200.158"/>
<polygon fill="midnightblue" stroke="midnightblue" points="556.098,-201.198 556.607,-190.616 549.61,-198.571 556.098,-201.198"/>
</g>
<!-- Node19&#45;&gt;Node8 -->
<g id="edge33" class="edge"><title>Node19&#45;&gt;Node8</title>
<path fill="none" stroke="midnightblue" d="M469.414,-418.313C480.013,-407.166 498.593,-388.758 517,-376 520.965,-373.252 525.32,-370.637 529.696,-368.232"/>
<polygon fill="midnightblue" stroke="midnightblue" points="531.326,-371.33 538.589,-363.615 528.101,-365.117 531.326,-371.33"/>
</g>
<!-- Node19&#45;&gt;Node11 -->
<g id="edge35" class="edge"><title>Node19&#45;&gt;Node11</title>
<path fill="none" stroke="midnightblue" d="M476.125,-437.688C492.27,-447.697 517.682,-463.453 536.402,-475.059"/>
<polygon fill="midnightblue" stroke="midnightblue" points="534.641,-478.086 544.985,-480.381 538.33,-472.136 534.641,-478.086"/>
</g>
<!-- Node20 -->
<g id="node20" class="node"><title>Node20</title>
<g id="a_node20"><a xlink:href="../../d2/d31/itm_8cpp.html#a8e415ee823bbb4b0da13d5f81f042d7f" target="_top" xlink:title="h0f">
<polygon fill="white" stroke="black" points="546.5,-423.5 546.5,-442.5 576.5,-442.5 576.5,-423.5 546.5,-423.5"/>
<text text-anchor="middle" x="561.5" y="-430.5" font-family="Helvetica,sans-Serif" font-size="10.00">h0f</text>
</a>
</g>
</g>
<!-- Node19&#45;&gt;Node20 -->
<g id="edge34" class="edge"><title>Node19&#45;&gt;Node20</title>
<path fill="none" stroke="midnightblue" d="M480.257,-428.988C496.226,-429.786 518.787,-430.914 535.921,-431.771"/>
<polygon fill="midnightblue" stroke="midnightblue" points="536.111,-435.285 546.274,-432.289 536.461,-428.294 536.111,-435.285"/>
</g>
<!-- Node21 -->
<g id="node21" class="node"><title>Node21</title>
<g id="a_node21"><a xlink:href="../../d2/d31/itm_8cpp.html#a5cd3659f451452a38a465a50992b9e7c" target="_top" xlink:title="ahd">
<polygon fill="white" stroke="black" points="545.5,-385.5 545.5,-404.5 577.5,-404.5 577.5,-385.5 545.5,-385.5"/>
<text text-anchor="middle" x="561.5" y="-392.5" font-family="Helvetica,sans-Serif" font-size="10.00">ahd</text>
</a>
</g>
</g>
<!-- Node19&#45;&gt;Node21 -->
<g id="edge36" class="edge"><title>Node19&#45;&gt;Node21</title>
<path fill="none" stroke="midnightblue" d="M480.257,-421.48C496.095,-416.254 518.418,-408.887 535.499,-403.25"/>
<polygon fill="midnightblue" stroke="midnightblue" points="536.953,-406.456 545.353,-399.999 534.76,-399.809 536.953,-406.456"/>
</g>
<!-- Node22&#45;&gt;Node4 -->
<g id="edge38" class="edge"><title>Node22&#45;&gt;Node4</title>
<path fill="none" stroke="midnightblue" d="M323.632,-55.1578C354.978,-68.8167 424.706,-100.008 481,-131 500.701,-141.846 522.251,-155.519 537.938,-165.825"/>
<polygon fill="midnightblue" stroke="midnightblue" points="536.17,-168.851 546.439,-171.456 540.036,-163.016 536.17,-168.851"/>
</g>
<!-- Node23 -->
<g id="node23" class="node"><title>Node23</title>
<g id="a_node23"><a xlink:href="../../d2/d31/itm_8cpp.html#acc398b6d1b1334689f775af613edb43f" target="_top" xlink:title="curve">
<polygon fill="white" stroke="black" points="361,-0.5 361,-19.5 402,-19.5 402,-0.5 361,-0.5"/>
<text text-anchor="middle" x="381.5" y="-7.5" font-family="Helvetica,sans-Serif" font-size="10.00">curve</text>
</a>
</g>
</g>
<!-- Node22&#45;&gt;Node23 -->
<g id="edge39" class="edge"><title>Node22&#45;&gt;Node23</title>
<path fill="none" stroke="midnightblue" d="M323.678,-39.3772C332.344,-34.8967 343.159,-29.3057 353.02,-24.2073"/>
<polygon fill="midnightblue" stroke="midnightblue" points="354.806,-27.224 362.082,-19.5223 351.591,-21.0059 354.806,-27.224"/>
</g>
</g>
</svg>
        <g id="navigator" transform="translate(0 0)" fill="#404254">
                <rect fill="#f2f5e9" fill-opacity="0.5" stroke="#606060" stroke-width=".5" x="0" y="0" width="60" height="60"/>
                <use id="zoomplus" xlink:href="#zoomPlus" x="17" y="9" onmousedown="handleZoom(evt,'in')"/>
                <use id="zoomminus" xlink:href="#zoomMin" x="42" y="9" onmousedown="handleZoom(evt,'out')"/>
                <use id="reset" xlink:href="#resetDef" x="30" y="36" onmousedown="handleReset()"/>
                <g id="arrowUp" xlink:href="#dirArrow" transform="translate(30 24)" onmousedown="handlePan(0,-1)">
                  <use xlink:href="#rim" fill="#404040">
                        <set attributeName="fill" to="#808080" begin="arrowUp.mouseover" end="arrowUp.mouseout"/>
                  </use>
                  <path fill="none" stroke="white" stroke-width="1.5" d="M0,-3.0v7 M-2.5,-0.5L0,-3.0L2.5,-0.5"/>
                </g>
                <g id="arrowRight" xlink:href="#dirArrow" transform="rotate(90) translate(36 -43)" onmousedown="handlePan(1,0)">
                  <use xlink:href="#rim" fill="#404040">
                        <set attributeName="fill" to="#808080" begin="arrowRight.mouseover" end="arrowRight.mouseout"/>
                  </use>
                  <path fill="none" stroke="white" stroke-width="1.5" d="M0,-3.0v7 M-2.5,-0.5L0,-3.0L2.5,-0.5"/>
                </g>
                <g id="arrowDown" xlink:href="#dirArrow" transform="rotate(180) translate(-30 -48)" onmousedown="handlePan(0,1)">
                  <use xlink:href="#rim" fill="#404040">
                        <set attributeName="fill" to="#808080" begin="arrowDown.mouseover" end="arrowDown.mouseout"/>
                  </use>
                  <path fill="none" stroke="white" stroke-width="1.5" d="M0,-3.0v7 M-2.5,-0.5L0,-3.0L2.5,-0.5"/>
                </g>
                <g id="arrowLeft" xlink:href="#dirArrow" transform="rotate(270) translate(-36 17)" onmousedown="handlePan(-1,0)">
                  <use xlink:href="#rim" fill="#404040">
                        <set attributeName="fill" to="#808080" begin="arrowLeft.mouseover" end="arrowLeft.mouseout"/>
                  </use>
                  <path fill="none" stroke="white" stroke-width="1.5" d="M0,-3.0v7 M-2.5,-0.5L0,-3.0L2.5,-0.5"/>
                </g>
        </g>
        <svg viewBox="0 0 15 15" width="100%" height="30px" preserveAspectRatio="xMaxYMin meet">
         <g id="arrow_out" transform="scale(0.3 0.3)">
          <a xlink:href="itm__its__py_8cpp_ab9bd9d469dbd1234f77f39093f765453_cgraph_org.svg" target="_base">
           <rect id="button" ry="5" rx="5" y="6" x="6" height="38" width="38"
                fill="#f2f5e9" fill-opacity="0.5" stroke="#606060" stroke-width="1.0"/>
           <path id="arrow"
             d="M 11.500037,31.436501 C 11.940474,20.09759 22.043105,11.32322 32.158766,21.979434 L 37.068811,17.246167 C 37.068811,17.246167 37.088388,32 37.088388,32 L 22.160133,31.978069 C 22.160133,31.978069 26.997745,27.140456 26.997745,27.140456 C 18.528582,18.264221 13.291696,25.230495 11.500037,31.436501 z"
             style="fill:#404040;"/>
          </a>
         </g>
        </svg>
</svg>
