<?xml version="1.0" encoding="UTF-8" standalone="no"?>
<!DOCTYPE svg PUBLIC "-//W3C//DTD SVG 1.1//EN"
 "http://www.w3.org/Graphics/SVG/1.1/DTD/svg11.dtd">
<!-- Generated by graphviz version 2.38.0 (20140413.2041)
 -->
<!-- Title: /home/nirajan/NetBeansProjects/sas&#45;winnforum/Spectrum&#45;Access&#45;System/Spectrum&#45;Access&#45;System&#45;master/src/harness/reference_models/propagation/ehata/its/ehata.h Pages: 1 -->
<svg width="2784pt" height="183pt"
 viewBox="0.00 0.00 2784.00 183.00" xmlns="http://www.w3.org/2000/svg" xmlns:xlink="http://www.w3.org/1999/xlink">
<g id="graph0" class="graph" transform="scale(1 1) rotate(0) translate(4 179)">
<title>/home/nirajan/NetBeansProjects/sas&#45;winnforum/Spectrum&#45;Access&#45;System/Spectrum&#45;Access&#45;System&#45;master/src/harness/reference_models/propagation/ehata/its/ehata.h</title>
<polygon fill="white" stroke="none" points="-4,4 -4,-179 2780,-179 2780,4 -4,4"/>
<!-- Node1 -->
<g id="node1" class="node"><title>Node1</title>
<polygon fill="#bfbfbf" stroke="black" points="1226,-111.5 1226,-174.5 1410,-174.5 1410,-111.5 1226,-111.5"/>
<text text-anchor="start" x="1234" y="-162.5" font-family="Helvetica,sans-Serif" font-size="10.00">/home/nirajan/NetBeansProjects</text>
<text text-anchor="start" x="1234" y="-151.5" font-family="Helvetica,sans-Serif" font-size="10.00">/sas&#45;winnforum/Spectrum&#45;Access</text>
<text text-anchor="start" x="1234" y="-140.5" font-family="Helvetica,sans-Serif" font-size="10.00">&#45;System/Spectrum&#45;Access&#45;System</text>
<text text-anchor="start" x="1234" y="-129.5" font-family="Helvetica,sans-Serif" font-size="10.00">&#45;master/src/harness/reference_models</text>
<text text-anchor="middle" x="1318" y="-118.5" font-family="Helvetica,sans-Serif" font-size="10.00">/propagation/ehata/its/ehata.h</text>
</g>
<!-- Node2 -->
<g id="node2" class="node"><title>Node2</title>
<g id="a_node2"><a xlink:href="../../d6/d96/ehata__its__py_8cpp.html" target="_top" xlink:title="/home/nirajan/NetBeansProjects\l/sas&#45;winnforum/Spectrum&#45;Access\l&#45;System/Spectrum&#45;Access&#45;System\l&#45;master/src/harness/reference_models\l/propagation/ehata/ehata_its_py.cpp">
<polygon fill="white" stroke="black" points="0,-6 0,-69 184,-69 184,-6 0,-6"/>
<text text-anchor="start" x="8" y="-57" font-family="Helvetica,sans-Serif" font-size="10.00">/home/nirajan/NetBeansProjects</text>
<text text-anchor="start" x="8" y="-46" font-family="Helvetica,sans-Serif" font-size="10.00">/sas&#45;winnforum/Spectrum&#45;Access</text>
<text text-anchor="start" x="8" y="-35" font-family="Helvetica,sans-Serif" font-size="10.00">&#45;System/Spectrum&#45;Access&#45;System</text>
<text text-anchor="start" x="8" y="-24" font-family="Helvetica,sans-Serif" font-size="10.00">&#45;master/src/harness/reference_models</text>
<text text-anchor="middle" x="92" y="-13" font-family="Helvetica,sans-Serif" font-size="10.00">/propagation/ehata/ehata_its_py.cpp</text>
</a>
</g>
</g>
<!-- Node1&#45;&gt;Node2 -->
<g id="edge1" class="edge"><title>Node1&#45;&gt;Node2</title>
<path fill="none" stroke="midnightblue" d="M1215.57,-139.656C976.387,-133.575 386.763,-114.91 193,-75 185.33,-73.4202 177.459,-71.3764 169.658,-69.0632"/>
<polygon fill="midnightblue" stroke="midnightblue" points="1215.57,-143.157 1225.65,-139.91 1215.75,-136.159 1215.57,-143.157"/>
</g>
<!-- Node3 -->
<g id="node3" class="node"><title>Node3</title>
<g id="a_node3"><a xlink:href="../../d9/daf/ExtendedHata_8cpp.html" target="_top" xlink:title="/home/nirajan/NetBeansProjects\l/sas&#45;winnforum/Spectrum&#45;Access\l&#45;System/Spectrum&#45;Access&#45;System\l&#45;master/src/harness/reference_models\l/propagation/ehata/its/ExtendedHata.cpp">
<polygon fill="white" stroke="black" points="202,-6 202,-69 396,-69 396,-6 202,-6"/>
<text text-anchor="start" x="210" y="-57" font-family="Helvetica,sans-Serif" font-size="10.00">/home/nirajan/NetBeansProjects</text>
<text text-anchor="start" x="210" y="-46" font-family="Helvetica,sans-Serif" font-size="10.00">/sas&#45;winnforum/Spectrum&#45;Access</text>
<text text-anchor="start" x="210" y="-35" font-family="Helvetica,sans-Serif" font-size="10.00">&#45;System/Spectrum&#45;Access&#45;System</text>
<text text-anchor="start" x="210" y="-24" font-family="Helvetica,sans-Serif" font-size="10.00">&#45;master/src/harness/reference_models</text>
<text text-anchor="middle" x="299" y="-13" font-family="Helvetica,sans-Serif" font-size="10.00">/propagation/ehata/its/ExtendedHata.cpp</text>
</a>
</g>
</g>
<!-- Node1&#45;&gt;Node3 -->
<g id="edge2" class="edge"><title>Node1&#45;&gt;Node3</title>
<path fill="none" stroke="midnightblue" d="M1215.63,-137.82C1010.87,-128.912 557.433,-106.287 405,-75 397.088,-73.376 388.955,-71.3193 380.882,-69.013"/>
<polygon fill="midnightblue" stroke="midnightblue" points="1215.64,-141.324 1225.78,-138.259 1215.94,-134.33 1215.64,-141.324"/>
</g>
<!-- Node4 -->
<g id="node4" class="node"><title>Node4</title>
<g id="a_node4"><a xlink:href="../../d9/dff/FindHorizons_8cpp.html" target="_top" xlink:title="/home/nirajan/NetBeansProjects\l/sas&#45;winnforum/Spectrum&#45;Access\l&#45;System/Spectrum&#45;Access&#45;System\l&#45;master/src/harness/reference_models\l/propagation/ehata/its/FindHorizons.cpp">
<polygon fill="white" stroke="black" points="414,-6 414,-69 604,-69 604,-6 414,-6"/>
<text text-anchor="start" x="422" y="-57" font-family="Helvetica,sans-Serif" font-size="10.00">/home/nirajan/NetBeansProjects</text>
<text text-anchor="start" x="422" y="-46" font-family="Helvetica,sans-Serif" font-size="10.00">/sas&#45;winnforum/Spectrum&#45;Access</text>
<text text-anchor="start" x="422" y="-35" font-family="Helvetica,sans-Serif" font-size="10.00">&#45;System/Spectrum&#45;Access&#45;System</text>
<text text-anchor="start" x="422" y="-24" font-family="Helvetica,sans-Serif" font-size="10.00">&#45;master/src/harness/reference_models</text>
<text text-anchor="middle" x="509" y="-13" font-family="Helvetica,sans-Serif" font-size="10.00">/propagation/ehata/its/FindHorizons.cpp</text>
</a>
</g>
</g>
<!-- Node1&#45;&gt;Node4 -->
<g id="edge3" class="edge"><title>Node1&#45;&gt;Node4</title>
<path fill="none" stroke="midnightblue" d="M1215.76,-140.036C1077.53,-135.628 824.025,-121.335 613,-75 605.431,-73.338 597.653,-71.2883 589.923,-69.0152"/>
<polygon fill="midnightblue" stroke="midnightblue" points="1215.82,-143.539 1225.92,-140.348 1216.04,-136.542 1215.82,-143.539"/>
</g>
<!-- Node5 -->
<g id="node5" class="node"><title>Node5</title>
<g id="a_node5"><a xlink:href="../../de/d5e/FindQuantile_8cpp.html" target="_top" xlink:title="/home/nirajan/NetBeansProjects\l/sas&#45;winnforum/Spectrum&#45;Access\l&#45;System/Spectrum&#45;Access&#45;System\l&#45;master/src/harness/reference_models\l/propagation/ehata/its/FindQuantile.cpp">
<polygon fill="white" stroke="black" points="622.5,-6 622.5,-69 809.5,-69 809.5,-6 622.5,-6"/>
<text text-anchor="start" x="630.5" y="-57" font-family="Helvetica,sans-Serif" font-size="10.00">/home/nirajan/NetBeansProjects</text>
<text text-anchor="start" x="630.5" y="-46" font-family="Helvetica,sans-Serif" font-size="10.00">/sas&#45;winnforum/Spectrum&#45;Access</text>
<text text-anchor="start" x="630.5" y="-35" font-family="Helvetica,sans-Serif" font-size="10.00">&#45;System/Spectrum&#45;Access&#45;System</text>
<text text-anchor="start" x="630.5" y="-24" font-family="Helvetica,sans-Serif" font-size="10.00">&#45;master/src/harness/reference_models</text>
<text text-anchor="middle" x="716" y="-13" font-family="Helvetica,sans-Serif" font-size="10.00">/propagation/ehata/its/FindQuantile.cpp</text>
</a>
</g>
</g>
<!-- Node1&#45;&gt;Node5 -->
<g id="edge4" class="edge"><title>Node1&#45;&gt;Node5</title>
<path fill="none" stroke="midnightblue" d="M1215.71,-134.63C1113.82,-125.813 953.484,-107.929 818,-75 810.964,-73.2899 803.737,-71.2686 796.536,-69.0684"/>
<polygon fill="midnightblue" stroke="midnightblue" points="1215.43,-138.119 1225.69,-135.481 1216.02,-131.144 1215.43,-138.119"/>
</g>
<!-- Node6 -->
<g id="node6" class="node"><title>Node6</title>
<g id="a_node6"><a xlink:href="../../df/d70/FineRollingHillyTerrainCorectionFactor_8cpp.html" target="_top" xlink:title="/home/nirajan/NetBeansProjects\l/sas&#45;winnforum/Spectrum&#45;Access\l&#45;System/Spectrum&#45;Access&#45;System\l&#45;master/src/harness/reference_models\l/propagation/ehata/its/FineRollingHillyTerrain\lCorectionFactor.cpp">
<polygon fill="white" stroke="black" points="827,-0.5 827,-74.5 1039,-74.5 1039,-0.5 827,-0.5"/>
<text text-anchor="start" x="835" y="-62.5" font-family="Helvetica,sans-Serif" font-size="10.00">/home/nirajan/NetBeansProjects</text>
<text text-anchor="start" x="835" y="-51.5" font-family="Helvetica,sans-Serif" font-size="10.00">/sas&#45;winnforum/Spectrum&#45;Access</text>
<text text-anchor="start" x="835" y="-40.5" font-family="Helvetica,sans-Serif" font-size="10.00">&#45;System/Spectrum&#45;Access&#45;System</text>
<text text-anchor="start" x="835" y="-29.5" font-family="Helvetica,sans-Serif" font-size="10.00">&#45;master/src/harness/reference_models</text>
<text text-anchor="start" x="835" y="-18.5" font-family="Helvetica,sans-Serif" font-size="10.00">/propagation/ehata/its/FineRollingHillyTerrain</text>
<text text-anchor="middle" x="933" y="-7.5" font-family="Helvetica,sans-Serif" font-size="10.00">CorectionFactor.cpp</text>
</a>
</g>
</g>
<!-- Node1&#45;&gt;Node6 -->
<g id="edge5" class="edge"><title>Node1&#45;&gt;Node6</title>
<path fill="none" stroke="midnightblue" d="M1215.79,-118.27C1165.11,-106.092 1103.12,-90.569 1048,-75 1045.08,-74.1744 1042.12,-73.3252 1039.13,-72.4578"/>
<polygon fill="midnightblue" stroke="midnightblue" points="1215.22,-121.734 1225.76,-120.66 1216.85,-114.927 1215.22,-121.734"/>
</g>
<!-- Node7 -->
<g id="node7" class="node"><title>Node7</title>
<g id="a_node7"><a xlink:href="../../d0/d9b/GeneralSlopeCorrectionFactor_8cpp.html" target="_top" xlink:title="/home/nirajan/NetBeansProjects\l/sas&#45;winnforum/Spectrum&#45;Access\l&#45;System/Spectrum&#45;Access&#45;System\l&#45;master/src/harness/reference_models\l/propagation/ehata/its/GeneralSlopeCorrectionFactor.cpp">
<polygon fill="white" stroke="black" points="1057.5,-6 1057.5,-69 1320.5,-69 1320.5,-6 1057.5,-6"/>
<text text-anchor="start" x="1065.5" y="-57" font-family="Helvetica,sans-Serif" font-size="10.00">/home/nirajan/NetBeansProjects</text>
<text text-anchor="start" x="1065.5" y="-46" font-family="Helvetica,sans-Serif" font-size="10.00">/sas&#45;winnforum/Spectrum&#45;Access</text>
<text text-anchor="start" x="1065.5" y="-35" font-family="Helvetica,sans-Serif" font-size="10.00">&#45;System/Spectrum&#45;Access&#45;System</text>
<text text-anchor="start" x="1065.5" y="-24" font-family="Helvetica,sans-Serif" font-size="10.00">&#45;master/src/harness/reference_models</text>
<text text-anchor="middle" x="1189" y="-13" font-family="Helvetica,sans-Serif" font-size="10.00">/propagation/ehata/its/GeneralSlopeCorrectionFactor.cpp</text>
</a>
</g>
</g>
<!-- Node1&#45;&gt;Node7 -->
<g id="edge6" class="edge"><title>Node1&#45;&gt;Node7</title>
<path fill="none" stroke="midnightblue" d="M1271.74,-104.881C1257.21,-93.2301 1241.35,-80.5005 1227.43,-69.3333"/>
<polygon fill="midnightblue" stroke="midnightblue" points="1269.65,-107.699 1279.65,-111.227 1274.04,-102.239 1269.65,-107.699"/>
</g>
<!-- Node8 -->
<g id="node8" class="node"><title>Node8</title>
<g id="a_node8"><a xlink:href="../../de/d46/IsolatedRidgeCorrectionFactor_8cpp.html" target="_top" xlink:title="/home/nirajan/NetBeansProjects\l/sas&#45;winnforum/Spectrum&#45;Access\l&#45;System/Spectrum&#45;Access&#45;System\l&#45;master/src/harness/reference_models\l/propagation/ehata/its/IsolatedRidgeCorrection\lFactor.cpp">
<polygon fill="white" stroke="black" points="1339,-0.5 1339,-74.5 1557,-74.5 1557,-0.5 1339,-0.5"/>
<text text-anchor="start" x="1347" y="-62.5" font-family="Helvetica,sans-Serif" font-size="10.00">/home/nirajan/NetBeansProjects</text>
<text text-anchor="start" x="1347" y="-51.5" font-family="Helvetica,sans-Serif" font-size="10.00">/sas&#45;winnforum/Spectrum&#45;Access</text>
<text text-anchor="start" x="1347" y="-40.5" font-family="Helvetica,sans-Serif" font-size="10.00">&#45;System/Spectrum&#45;Access&#45;System</text>
<text text-anchor="start" x="1347" y="-29.5" font-family="Helvetica,sans-Serif" font-size="10.00">&#45;master/src/harness/reference_models</text>
<text text-anchor="start" x="1347" y="-18.5" font-family="Helvetica,sans-Serif" font-size="10.00">/propagation/ehata/its/IsolatedRidgeCorrection</text>
<text text-anchor="middle" x="1448" y="-7.5" font-family="Helvetica,sans-Serif" font-size="10.00">Factor.cpp</text>
</a>
</g>
</g>
<!-- Node1&#45;&gt;Node8 -->
<g id="edge7" class="edge"><title>Node1&#45;&gt;Node8</title>
<path fill="none" stroke="midnightblue" d="M1364.58,-104.916C1376.88,-95.1213 1390.14,-84.562 1402.4,-74.8083"/>
<polygon fill="midnightblue" stroke="midnightblue" points="1362.3,-102.26 1356.65,-111.227 1366.66,-107.736 1362.3,-102.26"/>
</g>
<!-- Node9 -->
<g id="node9" class="node"><title>Node9</title>
<g id="a_node9"><a xlink:href="../../d9/dd1/LeastSquares_8cpp.html" target="_top" xlink:title="/home/nirajan/NetBeansProjects\l/sas&#45;winnforum/Spectrum&#45;Access\l&#45;System/Spectrum&#45;Access&#45;System\l&#45;master/src/harness/reference_models\l/propagation/ehata/its/LeastSquares.cpp">
<polygon fill="white" stroke="black" points="1575,-6 1575,-69 1767,-69 1767,-6 1575,-6"/>
<text text-anchor="start" x="1583" y="-57" font-family="Helvetica,sans-Serif" font-size="10.00">/home/nirajan/NetBeansProjects</text>
<text text-anchor="start" x="1583" y="-46" font-family="Helvetica,sans-Serif" font-size="10.00">/sas&#45;winnforum/Spectrum&#45;Access</text>
<text text-anchor="start" x="1583" y="-35" font-family="Helvetica,sans-Serif" font-size="10.00">&#45;System/Spectrum&#45;Access&#45;System</text>
<text text-anchor="start" x="1583" y="-24" font-family="Helvetica,sans-Serif" font-size="10.00">&#45;master/src/harness/reference_models</text>
<text text-anchor="middle" x="1671" y="-13" font-family="Helvetica,sans-Serif" font-size="10.00">/propagation/ehata/its/LeastSquares.cpp</text>
</a>
</g>
</g>
<!-- Node1&#45;&gt;Node9 -->
<g id="edge8" class="edge"><title>Node1&#45;&gt;Node9</title>
<path fill="none" stroke="midnightblue" d="M1419.79,-116.237C1464.8,-104.396 1518.26,-89.7276 1566,-75 1572.09,-73.1227 1578.35,-71.1229 1584.64,-69.0634"/>
<polygon fill="midnightblue" stroke="midnightblue" points="1418.8,-112.876 1410.02,-118.797 1420.58,-119.647 1418.8,-112.876"/>
</g>
<!-- Node10 -->
<g id="node10" class="node"><title>Node10</title>
<g id="a_node10"><a xlink:href="../../d1/d3d/MedianBasicPropLoss_8cpp.html" target="_top" xlink:title="/home/nirajan/NetBeansProjects\l/sas&#45;winnforum/Spectrum&#45;Access\l&#45;System/Spectrum&#45;Access&#45;System\l&#45;master/src/harness/reference_models\l/propagation/ehata/its/MedianBasicPropLoss.cpp">
<polygon fill="white" stroke="black" points="1785,-6 1785,-69 2015,-69 2015,-6 1785,-6"/>
<text text-anchor="start" x="1793" y="-57" font-family="Helvetica,sans-Serif" font-size="10.00">/home/nirajan/NetBeansProjects</text>
<text text-anchor="start" x="1793" y="-46" font-family="Helvetica,sans-Serif" font-size="10.00">/sas&#45;winnforum/Spectrum&#45;Access</text>
<text text-anchor="start" x="1793" y="-35" font-family="Helvetica,sans-Serif" font-size="10.00">&#45;System/Spectrum&#45;Access&#45;System</text>
<text text-anchor="start" x="1793" y="-24" font-family="Helvetica,sans-Serif" font-size="10.00">&#45;master/src/harness/reference_models</text>
<text text-anchor="middle" x="1900" y="-13" font-family="Helvetica,sans-Serif" font-size="10.00">/propagation/ehata/its/MedianBasicPropLoss.cpp</text>
</a>
</g>
</g>
<!-- Node1&#45;&gt;Node10 -->
<g id="edge9" class="edge"><title>Node1&#45;&gt;Node10</title>
<path fill="none" stroke="midnightblue" d="M1420.37,-131.213C1513.68,-120.392 1655.01,-101.518 1776,-75 1784.11,-73.2223 1792.47,-71.1961 1800.83,-69.0302"/>
<polygon fill="midnightblue" stroke="midnightblue" points="1419.9,-127.744 1410.36,-132.364 1420.7,-134.699 1419.9,-127.744"/>
</g>
<!-- Node11 -->
<g id="node11" class="node"><title>Node11</title>
<g id="a_node11"><a xlink:href="../../de/d2e/MedianRollingHillyTerrainCorrectionFactor_8cpp.html" target="_top" xlink:title="/home/nirajan/NetBeansProjects\l/sas&#45;winnforum/Spectrum&#45;Access\l&#45;System/Spectrum&#45;Access&#45;System\l&#45;master/src/harness/reference_models\l/propagation/ehata/its/MedianRollingHillyTerrain\lCorrectionFactor.cpp">
<polygon fill="white" stroke="black" points="2033,-0.5 2033,-74.5 2257,-74.5 2257,-0.5 2033,-0.5"/>
<text text-anchor="start" x="2041" y="-62.5" font-family="Helvetica,sans-Serif" font-size="10.00">/home/nirajan/NetBeansProjects</text>
<text text-anchor="start" x="2041" y="-51.5" font-family="Helvetica,sans-Serif" font-size="10.00">/sas&#45;winnforum/Spectrum&#45;Access</text>
<text text-anchor="start" x="2041" y="-40.5" font-family="Helvetica,sans-Serif" font-size="10.00">&#45;System/Spectrum&#45;Access&#45;System</text>
<text text-anchor="start" x="2041" y="-29.5" font-family="Helvetica,sans-Serif" font-size="10.00">&#45;master/src/harness/reference_models</text>
<text text-anchor="start" x="2041" y="-18.5" font-family="Helvetica,sans-Serif" font-size="10.00">/propagation/ehata/its/MedianRollingHillyTerrain</text>
<text text-anchor="middle" x="2145" y="-7.5" font-family="Helvetica,sans-Serif" font-size="10.00">CorrectionFactor.cpp</text>
</a>
</g>
</g>
<!-- Node1&#45;&gt;Node11 -->
<g id="edge10" class="edge"><title>Node1&#45;&gt;Node11</title>
<path fill="none" stroke="midnightblue" d="M1420.38,-138.646C1558.55,-132.678 1811.84,-116.638 2024,-75 2026.91,-74.4295 2029.84,-73.8177 2032.8,-73.1705"/>
<polygon fill="midnightblue" stroke="midnightblue" points="1420.07,-135.156 1410.23,-139.076 1420.36,-142.15 1420.07,-135.156"/>
</g>
<!-- Node12 -->
<g id="node12" class="node"><title>Node12</title>
<g id="a_node12"><a xlink:href="../../d0/d90/MixedPathCorrectionFactor_8cpp.html" target="_top" xlink:title="/home/nirajan/NetBeansProjects\l/sas&#45;winnforum/Spectrum&#45;Access\l&#45;System/Spectrum&#45;Access&#45;System\l&#45;master/src/harness/reference_models\l/propagation/ehata/its/MixedPathCorrectionFactor.cpp">
<polygon fill="white" stroke="black" points="2274.5,-6 2274.5,-69 2525.5,-69 2525.5,-6 2274.5,-6"/>
<text text-anchor="start" x="2282.5" y="-57" font-family="Helvetica,sans-Serif" font-size="10.00">/home/nirajan/NetBeansProjects</text>
<text text-anchor="start" x="2282.5" y="-46" font-family="Helvetica,sans-Serif" font-size="10.00">/sas&#45;winnforum/Spectrum&#45;Access</text>
<text text-anchor="start" x="2282.5" y="-35" font-family="Helvetica,sans-Serif" font-size="10.00">&#45;System/Spectrum&#45;Access&#45;System</text>
<text text-anchor="start" x="2282.5" y="-24" font-family="Helvetica,sans-Serif" font-size="10.00">&#45;master/src/harness/reference_models</text>
<text text-anchor="middle" x="2400" y="-13" font-family="Helvetica,sans-Serif" font-size="10.00">/propagation/ehata/its/MixedPathCorrectionFactor.cpp</text>
</a>
</g>
</g>
<!-- Node1&#45;&gt;Node12 -->
<g id="edge11" class="edge"><title>Node1&#45;&gt;Node12</title>
<path fill="none" stroke="midnightblue" d="M1420.43,-141.293C1595.13,-138.636 1961.38,-126.741 2266,-75 2275.63,-73.3648 2285.56,-71.3334 2295.47,-69.0722"/>
<polygon fill="midnightblue" stroke="midnightblue" points="1420.17,-137.797 1410.22,-141.442 1420.27,-144.796 1420.17,-137.797"/>
</g>
<!-- Node13 -->
<g id="node13" class="node"><title>Node13</title>
<g id="a_node13"><a xlink:href="../../d9/dbb/PreprocessTerrainPath_8cpp.html" target="_top" xlink:title="/home/nirajan/NetBeansProjects\l/sas&#45;winnforum/Spectrum&#45;Access\l&#45;System/Spectrum&#45;Access&#45;System\l&#45;master/src/harness/reference_models\l/propagation/ehata/its/PreprocessTerrainPath.cpp">
<polygon fill="white" stroke="black" points="2544,-6 2544,-69 2776,-69 2776,-6 2544,-6"/>
<text text-anchor="start" x="2552" y="-57" font-family="Helvetica,sans-Serif" font-size="10.00">/home/nirajan/NetBeansProjects</text>
<text text-anchor="start" x="2552" y="-46" font-family="Helvetica,sans-Serif" font-size="10.00">/sas&#45;winnforum/Spectrum&#45;Access</text>
<text text-anchor="start" x="2552" y="-35" font-family="Helvetica,sans-Serif" font-size="10.00">&#45;System/Spectrum&#45;Access&#45;System</text>
<text text-anchor="start" x="2552" y="-24" font-family="Helvetica,sans-Serif" font-size="10.00">&#45;master/src/harness/reference_models</text>
<text text-anchor="middle" x="2660" y="-13" font-family="Helvetica,sans-Serif" font-size="10.00">/propagation/ehata/its/PreprocessTerrainPath.cpp</text>
</a>
</g>
</g>
<!-- Node1&#45;&gt;Node13 -->
<g id="edge12" class="edge"><title>Node1&#45;&gt;Node13</title>
<path fill="none" stroke="midnightblue" d="M1420.36,-139.381C1673.13,-132.427 2321.82,-111.494 2535,-75 2544.36,-73.3978 2554.01,-71.3389 2563.61,-69.0162"/>
<polygon fill="midnightblue" stroke="midnightblue" points="1419.98,-135.89 1410.08,-139.662 1420.17,-142.887 1419.98,-135.89"/>
</g>
</g>
</svg>
