<?xml version="1.0" encoding="UTF-8" standalone="no"?>
<!DOCTYPE svg PUBLIC "-//W3C//DTD SVG 1.1//EN"
 "http://www.w3.org/Graphics/SVG/1.1/DTD/svg11.dtd">
<!-- Generated by graphviz version 2.38.0 (20140413.2041)
 -->
<!-- Title: src.harness.testcases.WINNF_FT_S_REG_testcase.RegistrationTestcase.test_WINNF_FT_S_REG_6 Pages: 1 -->
<svg width="564pt" height="67pt"
 viewBox="0.00 0.00 564.00 66.50" xmlns="http://www.w3.org/2000/svg" xmlns:xlink="http://www.w3.org/1999/xlink">
<g id="graph0" class="graph" transform="scale(1 1) rotate(0) translate(4 62.5)">
<title>src.harness.testcases.WINNF_FT_S_REG_testcase.RegistrationTestcase.test_WINNF_FT_S_REG_6</title>
<polygon fill="white" stroke="none" points="-4,4 -4,-62.5 560,-62.5 560,4 -4,4"/>
<!-- Node1 -->
<g id="node1" class="node"><title>Node1</title>
<polygon fill="#bfbfbf" stroke="black" points="5.68434e-14,-0.5 5.68434e-14,-41.5 182,-41.5 182,-0.5 5.68434e-14,-0.5"/>
<text text-anchor="start" x="8" y="-29.5" font-family="Helvetica,sans-Serif" font-size="10.00">src.harness.testcases.WINNF</text>
<text text-anchor="start" x="8" y="-18.5" font-family="Helvetica,sans-Serif" font-size="10.00">_FT_S_REG_testcase.Registration</text>
<text text-anchor="middle" x="91" y="-7.5" font-family="Helvetica,sans-Serif" font-size="10.00">Testcase.test_WINNF_FT_S_REG_6</text>
</g>
<!-- Node2 -->
<g id="node2" class="node"><title>Node2</title>
<g id="a_node2"><a xlink:href="../../d8/d6c/namespacesrc_1_1harness_1_1util.html#a3aa1fdf560b61d353fc09eae701b084d" target="_top" xlink:title="src.harness.util.generate\lCpiEcKeys">
<polygon fill="white" stroke="black" points="218,-28 218,-58 342,-58 342,-28 218,-28"/>
<text text-anchor="start" x="226" y="-46" font-family="Helvetica,sans-Serif" font-size="10.00">src.harness.util.generate</text>
<text text-anchor="middle" x="280" y="-35" font-family="Helvetica,sans-Serif" font-size="10.00">CpiEcKeys</text>
</a>
</g>
</g>
<!-- Node1&#45;&gt;Node2 -->
<g id="edge1" class="edge"><title>Node1&#45;&gt;Node2</title>
<path fill="none" stroke="midnightblue" d="M182.213,-31.6134C190.779,-32.6211 199.381,-33.6331 207.733,-34.6156"/>
<polygon fill="midnightblue" stroke="midnightblue" points="207.435,-38.1046 217.775,-35.7971 208.253,-31.1526 207.435,-38.1046"/>
</g>
<!-- Node3 -->
<g id="node3" class="node"><title>Node3</title>
<g id="a_node3"><a xlink:href="../../d8/d6c/namespacesrc_1_1harness_1_1util.html#a9dfb661004d2f98b1252282e777e7aa8" target="_top" xlink:title="src.harness.util.convert\lRequestToRequestWithCpiSignature">
<polygon fill="white" stroke="black" points="378,-6 378,-36 556,-36 556,-6 378,-6"/>
<text text-anchor="start" x="386" y="-24" font-family="Helvetica,sans-Serif" font-size="10.00">src.harness.util.convert</text>
<text text-anchor="middle" x="467" y="-13" font-family="Helvetica,sans-Serif" font-size="10.00">RequestToRequestWithCpiSignature</text>
</a>
</g>
</g>
<!-- Node1&#45;&gt;Node3 -->
<g id="edge3" class="edge"><title>Node1&#45;&gt;Node3</title>
<path fill="none" stroke="midnightblue" d="M182.162,-19.3953C194.211,-19.2317 206.405,-19.092 218,-19 273.109,-18.5627 286.891,-18.5556 342,-19 350.356,-19.0674 359.029,-19.1603 367.73,-19.2695"/>
<polygon fill="midnightblue" stroke="midnightblue" points="367.895,-22.7719 377.94,-19.4045 367.988,-15.7725 367.895,-22.7719"/>
</g>
<!-- Node2&#45;&gt;Node3 -->
<g id="edge2" class="edge"><title>Node2&#45;&gt;Node3</title>
<path fill="none" stroke="midnightblue" d="M342.089,-35.7354C350.424,-34.7442 359.145,-33.7071 367.933,-32.662"/>
<polygon fill="midnightblue" stroke="midnightblue" points="368.351,-36.1371 377.867,-31.4806 367.524,-29.1861 368.351,-36.1371"/>
</g>
</g>
</svg>
