<?xml version="1.0" encoding="UTF-8" standalone="no"?>
<!DOCTYPE svg PUBLIC "-//W3C//DTD SVG 1.1//EN"
 "http://www.w3.org/Graphics/SVG/1.1/DTD/svg11.dtd">
<!-- Generated by graphviz version 2.38.0 (20140413.2041)
 -->
<!-- Title: src.harness.testcases.WINNF_FT_S_REG_testcase.RegistrationTestcase.generate_REG_11_default_config Pages: 1 -->
<svg width="529pt" height="78pt"
 viewBox="0.00 0.00 529.00 77.50" xmlns="http://www.w3.org/2000/svg" xmlns:xlink="http://www.w3.org/1999/xlink">
<g id="graph0" class="graph" transform="scale(1 1) rotate(0) translate(4 73.5)">
<title>src.harness.testcases.WINNF_FT_S_REG_testcase.RegistrationTestcase.generate_REG_11_default_config</title>
<polygon fill="white" stroke="none" points="-4,4 -4,-73.5 525,-73.5 525,4 -4,4"/>
<!-- Node1 -->
<g id="node1" class="node"><title>Node1</title>
<polygon fill="#bfbfbf" stroke="black" points="0,-17 0,-58 206,-58 206,-17 0,-17"/>
<text text-anchor="start" x="8" y="-46" font-family="Helvetica,sans-Serif" font-size="10.00">src.harness.testcases.WINNF</text>
<text text-anchor="start" x="8" y="-35" font-family="Helvetica,sans-Serif" font-size="10.00">_FT_S_REG_testcase.Registration</text>
<text text-anchor="middle" x="103" y="-24" font-family="Helvetica,sans-Serif" font-size="10.00">Testcase.generate_REG_11_default_config</text>
</g>
<!-- Node2 -->
<g id="node2" class="node"><title>Node2</title>
<g id="a_node2"><a xlink:href="../../d8/d6c/namespacesrc_1_1harness_1_1util.html#a8736eade8b3ce4ef9455f62b5f57dbf8" target="_top" xlink:title="src.harness.util.writeConfig">
<polygon fill="white" stroke="black" points="243.5,-50 243.5,-69 379.5,-69 379.5,-50 243.5,-50"/>
<text text-anchor="middle" x="311.5" y="-57" font-family="Helvetica,sans-Serif" font-size="10.00">src.harness.util.writeConfig</text>
</a>
</g>
</g>
<!-- Node1&#45;&gt;Node2 -->
<g id="edge1" class="edge"><title>Node1&#45;&gt;Node2</title>
<path fill="none" stroke="midnightblue" d="M206.04,-48.3711C215.268,-49.3543 224.51,-50.3388 233.469,-51.2933"/>
<polygon fill="midnightblue" stroke="midnightblue" points="233.134,-54.7774 243.449,-52.3565 233.876,-47.8167 233.134,-54.7774"/>
</g>
<!-- Node3 -->
<g id="node3" class="node"><title>Node3</title>
<g id="a_node3"><a xlink:href="../../d8/d6c/namespacesrc_1_1harness_1_1util.html#a7de548444768e2d50033048c1b6aee0f" target="_top" xlink:title="src.harness.util.configurable\l_testcase">
<polygon fill="white" stroke="black" points="242,-0.5 242,-30.5 381,-30.5 381,-0.5 242,-0.5"/>
<text text-anchor="start" x="250" y="-18.5" font-family="Helvetica,sans-Serif" font-size="10.00">src.harness.util.configurable</text>
<text text-anchor="middle" x="311.5" y="-7.5" font-family="Helvetica,sans-Serif" font-size="10.00">_testcase</text>
</a>
</g>
</g>
<!-- Node1&#45;&gt;Node3 -->
<g id="edge2" class="edge"><title>Node1&#45;&gt;Node3</title>
<path fill="none" stroke="midnightblue" d="M206.04,-26.6289C214.637,-25.7131 223.244,-24.796 231.625,-23.9032"/>
<polygon fill="midnightblue" stroke="midnightblue" points="232.145,-27.3676 241.718,-22.8278 231.404,-20.407 232.145,-27.3676"/>
</g>
<!-- Node4 -->
<g id="node4" class="node"><title>Node4</title>
<g id="a_node4"><a xlink:href="../../d8/d6c/namespacesrc_1_1harness_1_1util.html#a7c167df108582dd4ab2a5a0c6ba98bcd" target="_top" xlink:title="src.harness.util._log\l_testcase_header">
<polygon fill="white" stroke="black" points="417,-0.5 417,-30.5 521,-30.5 521,-0.5 417,-0.5"/>
<text text-anchor="start" x="425" y="-18.5" font-family="Helvetica,sans-Serif" font-size="10.00">src.harness.util._log</text>
<text text-anchor="middle" x="469" y="-7.5" font-family="Helvetica,sans-Serif" font-size="10.00">_testcase_header</text>
</a>
</g>
</g>
<!-- Node3&#45;&gt;Node4 -->
<g id="edge3" class="edge"><title>Node3&#45;&gt;Node4</title>
<path fill="none" stroke="midnightblue" d="M381.157,-15.5C389.718,-15.5 398.427,-15.5 406.863,-15.5"/>
<polygon fill="midnightblue" stroke="midnightblue" points="406.989,-19.0001 416.989,-15.5 406.989,-12.0001 406.989,-19.0001"/>
</g>
</g>
</svg>
