<?xml version="1.0" encoding="UTF-8" standalone="no"?>
<!DOCTYPE svg PUBLIC "-//W3C//DTD SVG 1.1//EN"
 "http://www.w3.org/Graphics/SVG/1.1/DTD/svg11.dtd">
<!-- Generated by graphviz version 2.38.0 (20140413.2041)
 -->
<!-- Title: src.harness.testcases.WINNF_FT_S_REG_testcase.RegistrationTestcase.test_WINNF_FT_S_REG_4 Pages: 1 -->
<svg width="404pt" height="88pt"
 viewBox="0.00 0.00 404.00 88.00" xmlns="http://www.w3.org/2000/svg" xmlns:xlink="http://www.w3.org/1999/xlink">
<g id="graph0" class="graph" transform="scale(1 1) rotate(0) translate(4 84)">
<title>src.harness.testcases.WINNF_FT_S_REG_testcase.RegistrationTestcase.test_WINNF_FT_S_REG_4</title>
<polygon fill="white" stroke="none" points="-4,4 -4,-84 400,-84 400,4 -4,4"/>
<!-- Node1 -->
<g id="node1" class="node"><title>Node1</title>
<polygon fill="#bfbfbf" stroke="black" points="0,-19 0,-60 182,-60 182,-19 0,-19"/>
<text text-anchor="start" x="8" y="-48" font-family="Helvetica,sans-Serif" font-size="10.00">src.harness.testcases.WINNF</text>
<text text-anchor="start" x="8" y="-37" font-family="Helvetica,sans-Serif" font-size="10.00">_FT_S_REG_testcase.Registration</text>
<text text-anchor="middle" x="91" y="-26" font-family="Helvetica,sans-Serif" font-size="10.00">Testcase.test_WINNF_FT_S_REG_4</text>
</g>
<!-- Node2 -->
<g id="node2" class="node"><title>Node2</title>
<g id="a_node2"><a xlink:href="../../d8/d6c/namespacesrc_1_1harness_1_1util.html#ae5d91a1613b3d63821f89cdd0cbc5c66" target="_top" xlink:title="src.harness.util.generate\lCpiRsaKeys">
<polygon fill="white" stroke="black" points="245,-49.5 245,-79.5 369,-79.5 369,-49.5 245,-49.5"/>
<text text-anchor="start" x="253" y="-67.5" font-family="Helvetica,sans-Serif" font-size="10.00">src.harness.util.generate</text>
<text text-anchor="middle" x="307" y="-56.5" font-family="Helvetica,sans-Serif" font-size="10.00">CpiRsaKeys</text>
</a>
</g>
</g>
<!-- Node1&#45;&gt;Node2 -->
<g id="edge1" class="edge"><title>Node1&#45;&gt;Node2</title>
<path fill="none" stroke="midnightblue" d="M182.135,-50.0298C199.635,-52.0742 217.753,-54.1907 234.551,-56.1532"/>
<polygon fill="midnightblue" stroke="midnightblue" points="234.484,-59.6691 244.823,-57.3531 235.296,-52.7164 234.484,-59.6691"/>
</g>
<!-- Node3 -->
<g id="node3" class="node"><title>Node3</title>
<g id="a_node3"><a xlink:href="../../d8/d6c/namespacesrc_1_1harness_1_1util.html#a9dfb661004d2f98b1252282e777e7aa8" target="_top" xlink:title="src.harness.util.convert\lRequestToRequestWithCpiSignature">
<polygon fill="white" stroke="black" points="218,-0.5 218,-30.5 396,-30.5 396,-0.5 218,-0.5"/>
<text text-anchor="start" x="226" y="-18.5" font-family="Helvetica,sans-Serif" font-size="10.00">src.harness.util.convert</text>
<text text-anchor="middle" x="307" y="-7.5" font-family="Helvetica,sans-Serif" font-size="10.00">RequestToRequestWithCpiSignature</text>
</a>
</g>
</g>
<!-- Node1&#45;&gt;Node3 -->
<g id="edge2" class="edge"><title>Node1&#45;&gt;Node3</title>
<path fill="none" stroke="midnightblue" d="M182.135,-29.3914C190.591,-28.443 199.192,-27.4785 207.718,-26.5222"/>
<polygon fill="midnightblue" stroke="midnightblue" points="208.133,-29.9978 217.68,-25.405 207.352,-23.0414 208.133,-29.9978"/>
</g>
</g>
</svg>
