<?xml version="1.0" encoding="UTF-8" standalone="no"?>
<!DOCTYPE svg PUBLIC "-//W3C//DTD SVG 1.1//EN"
 "http://www.w3.org/Graphics/SVG/1.1/DTD/svg11.dtd">
<!-- Generated by graphviz version 2.38.0 (20140413.2041)
 -->
<!-- Title: src.harness.testcases.WINNF_FT_S_REG_testcase.RegistrationTestcase.test_WINNF_FT_S_REG_11 Pages: 1 -->
<svg width="365pt" height="50pt"
 viewBox="0.00 0.00 365.00 50.00" xmlns="http://www.w3.org/2000/svg" xmlns:xlink="http://www.w3.org/1999/xlink">
<g id="graph0" class="graph" transform="scale(1 1) rotate(0) translate(4 46)">
<title>src.harness.testcases.WINNF_FT_S_REG_testcase.RegistrationTestcase.test_WINNF_FT_S_REG_11</title>
<polygon fill="white" stroke="none" points="-4,4 -4,-46 361,-46 361,4 -4,4"/>
<!-- Node1 -->
<g id="node1" class="node"><title>Node1</title>
<polygon fill="#bfbfbf" stroke="black" points="0,-0.5 0,-41.5 188,-41.5 188,-0.5 0,-0.5"/>
<text text-anchor="start" x="8" y="-29.5" font-family="Helvetica,sans-Serif" font-size="10.00">src.harness.testcases.WINNF</text>
<text text-anchor="start" x="8" y="-18.5" font-family="Helvetica,sans-Serif" font-size="10.00">_FT_S_REG_testcase.Registration</text>
<text text-anchor="middle" x="94" y="-7.5" font-family="Helvetica,sans-Serif" font-size="10.00">Testcase.test_WINNF_FT_S_REG_11</text>
</g>
<!-- Node2 -->
<g id="node2" class="node"><title>Node2</title>
<g id="a_node2"><a xlink:href="../../d8/d6c/namespacesrc_1_1harness_1_1util.html#abfafe11413f069a2c6f98c49eef26580" target="_top" xlink:title="src.harness.util.loadConfig">
<polygon fill="white" stroke="black" points="224,-11.5 224,-30.5 357,-30.5 357,-11.5 224,-11.5"/>
<text text-anchor="middle" x="290.5" y="-18.5" font-family="Helvetica,sans-Serif" font-size="10.00">src.harness.util.loadConfig</text>
</a>
</g>
</g>
<!-- Node1&#45;&gt;Node2 -->
<g id="edge1" class="edge"><title>Node1&#45;&gt;Node2</title>
<path fill="none" stroke="midnightblue" d="M188.262,-21C196.788,-21 205.354,-21 213.699,-21"/>
<polygon fill="midnightblue" stroke="midnightblue" points="213.75,-24.5001 223.75,-21 213.75,-17.5001 213.75,-24.5001"/>
</g>
</g>
</svg>
