<?xml version="1.0" encoding="UTF-8" standalone="no"?>
<!DOCTYPE svg PUBLIC "-//W3C//DTD SVG 1.1//EN"
 "http://www.w3.org/Graphics/SVG/1.1/DTD/svg11.dtd">
<!-- Generated by graphviz version 2.38.0 (20140413.2041)
 -->
<!-- Title: src.harness.sas.SasAdminImpl.BlacklistByFccIdAndSerialNumber Pages: 1 -->
<svg width="351pt" height="50pt"
 viewBox="0.00 0.00 351.00 50.00" xmlns="http://www.w3.org/2000/svg" xmlns:xlink="http://www.w3.org/1999/xlink">
<g id="graph0" class="graph" transform="scale(1 1) rotate(0) translate(4 46)">
<title>src.harness.sas.SasAdminImpl.BlacklistByFccIdAndSerialNumber</title>
<polygon fill="white" stroke="none" points="-4,4 -4,-46 347,-46 347,4 -4,4"/>
<!-- Node1 -->
<g id="node1" class="node"><title>Node1</title>
<polygon fill="#bfbfbf" stroke="black" points="0,-0.5 0,-41.5 155,-41.5 155,-0.5 0,-0.5"/>
<text text-anchor="start" x="8" y="-29.5" font-family="Helvetica,sans-Serif" font-size="10.00">src.harness.sas.SasAdmin</text>
<text text-anchor="start" x="8" y="-18.5" font-family="Helvetica,sans-Serif" font-size="10.00">Impl.BlacklistByFccIdAndSerial</text>
<text text-anchor="middle" x="77.5" y="-7.5" font-family="Helvetica,sans-Serif" font-size="10.00">Number</text>
</g>
<!-- Node2 -->
<g id="node2" class="node"><title>Node2</title>
<g id="a_node2"><a xlink:href="../../d4/d97/namespacesrc_1_1harness_1_1sas.html#a3fa87f39d6ac675cc79718db6e45aabe" target="_top" xlink:title="src.harness.sas._RequestPost">
<polygon fill="white" stroke="black" points="191,-11.5 191,-30.5 343,-30.5 343,-11.5 191,-11.5"/>
<text text-anchor="middle" x="267" y="-18.5" font-family="Helvetica,sans-Serif" font-size="10.00">src.harness.sas._RequestPost</text>
</a>
</g>
</g>
<!-- Node1&#45;&gt;Node2 -->
<g id="edge1" class="edge"><title>Node1&#45;&gt;Node2</title>
<path fill="none" stroke="midnightblue" d="M155.034,-21C163.549,-21 172.261,-21 180.875,-21"/>
<polygon fill="midnightblue" stroke="midnightblue" points="180.924,-24.5001 190.924,-21 180.924,-17.5001 180.924,-24.5001"/>
</g>
</g>
</svg>
