<?xml version="1.0" encoding="UTF-8" standalone="no"?>
<!DOCTYPE svg PUBLIC "-//W3C//DTD SVG 1.1//EN"
 "http://www.w3.org/Graphics/SVG/1.1/DTD/svg11.dtd">
<!-- Generated by graphviz version 2.38.0 (20140413.2041)
 -->
<!-- Title: src.harness.testcases.grant_testcase.GrantTestcaseUsingOldIds.test_WINNF_FT_S_GRA_18 Pages: 1 -->
<svg width="873pt" height="181pt"
 viewBox="0.00 0.00 873.00 181.15" xmlns="http://www.w3.org/2000/svg" xmlns:xlink="http://www.w3.org/1999/xlink">
<g id="graph0" class="graph" transform="scale(1 1) rotate(0) translate(4 177.147)">
<title>src.harness.testcases.grant_testcase.GrantTestcaseUsingOldIds.test_WINNF_FT_S_GRA_18</title>
<polygon fill="white" stroke="none" points="-4,4 -4,-177.147 869,-177.147 869,4 -4,4"/>
<!-- Node1 -->
<g id="node1" class="node"><title>Node1</title>
<polygon fill="#bfbfbf" stroke="black" points="0,-87.5 0,-128.5 167,-128.5 167,-87.5 0,-87.5"/>
<text text-anchor="start" x="8" y="-116.5" font-family="Helvetica,sans-Serif" font-size="10.00">src.harness.testcases.grant</text>
<text text-anchor="start" x="8" y="-105.5" font-family="Helvetica,sans-Serif" font-size="10.00">_testcase.GrantTestcaseUsingOld</text>
<text text-anchor="middle" x="83.5" y="-94.5" font-family="Helvetica,sans-Serif" font-size="10.00">Ids.test_WINNF_FT_S_GRA_18</text>
</g>
<!-- Node2 -->
<g id="node2" class="node"><title>Node2</title>
<g id="a_node2"><a xlink:href="../../d8/d6c/namespacesrc_1_1harness_1_1util.html#ad781031fc0a08430a583769551ac9b40" target="_top" xlink:title="src.harness.util.makePpa\lAndPalRecordsConsistent">
<polygon fill="white" stroke="black" points="478,-142 478,-172 610,-172 610,-142 478,-142"/>
<text text-anchor="start" x="486" y="-160" font-family="Helvetica,sans-Serif" font-size="10.00">src.harness.util.makePpa</text>
<text text-anchor="middle" x="544" y="-149" font-family="Helvetica,sans-Serif" font-size="10.00">AndPalRecordsConsistent</text>
</a>
</g>
</g>
<!-- Node1&#45;&gt;Node2 -->
<g id="edge1" class="edge"><title>Node1&#45;&gt;Node2</title>
<path fill="none" stroke="midnightblue" d="M120.804,-128.631C143.609,-140.38 174.086,-153.935 203,-160 292.618,-178.798 398.466,-173.713 467.97,-166.787"/>
<polygon fill="midnightblue" stroke="midnightblue" points="468.368,-170.265 477.955,-165.755 467.648,-163.302 468.368,-170.265"/>
</g>
<!-- Node3 -->
<g id="node3" class="node"><title>Node3</title>
<g id="a_node3"><a xlink:href="../../d8/d6c/namespacesrc_1_1harness_1_1util.html#a105dd692e0d0640cc251860113ff5a97" target="_top" xlink:title="src.harness.util.getRandom\lLatLongInPolygon">
<polygon fill="white" stroke="black" points="239.5,-120 239.5,-150 376.5,-150 376.5,-120 239.5,-120"/>
<text text-anchor="start" x="247.5" y="-138" font-family="Helvetica,sans-Serif" font-size="10.00">src.harness.util.getRandom</text>
<text text-anchor="middle" x="308" y="-127" font-family="Helvetica,sans-Serif" font-size="10.00">LatLongInPolygon</text>
</a>
</g>
</g>
<!-- Node1&#45;&gt;Node3 -->
<g id="edge2" class="edge"><title>Node1&#45;&gt;Node3</title>
<path fill="none" stroke="midnightblue" d="M167.035,-118.015C187.348,-120.48 209.033,-123.112 229.118,-125.549"/>
<polygon fill="midnightblue" stroke="midnightblue" points="228.798,-129.036 239.147,-126.766 229.642,-122.087 228.798,-129.036"/>
</g>
<!-- Node4 -->
<g id="node4" class="node"><title>Node4</title>
<g id="a_node4"><a xlink:href="../../df/ded/classsrc_1_1harness_1_1sas__interface_1_1SasTestcaseInterface.html#a39812d93a172aad20d1ec3006ade06bb" target="_top" xlink:title="src.harness.sas_interface.\lSasTestcaseInterface.TriggerDaily\lActivitiesImmediatelyAndWaitUntilComplete">
<polygon fill="white" stroke="black" points="203,-60.5 203,-101.5 413,-101.5 413,-60.5 203,-60.5"/>
<text text-anchor="start" x="211" y="-89.5" font-family="Helvetica,sans-Serif" font-size="10.00">src.harness.sas_interface.</text>
<text text-anchor="start" x="211" y="-78.5" font-family="Helvetica,sans-Serif" font-size="10.00">SasTestcaseInterface.TriggerDaily</text>
<text text-anchor="middle" x="308" y="-67.5" font-family="Helvetica,sans-Serif" font-size="10.00">ActivitiesImmediatelyAndWaitUntilComplete</text>
</a>
</g>
</g>
<!-- Node1&#45;&gt;Node4 -->
<g id="edge4" class="edge"><title>Node1&#45;&gt;Node4</title>
<path fill="none" stroke="midnightblue" d="M167.035,-97.9846C175.39,-96.9706 183.978,-95.9285 192.591,-94.8833"/>
<polygon fill="midnightblue" stroke="midnightblue" points="193.196,-98.3357 202.701,-93.6565 192.352,-91.3867 193.196,-98.3357"/>
</g>
<!-- Node5 -->
<g id="node5" class="node"><title>Node5</title>
<g id="a_node5"><a xlink:href="../../df/ded/classsrc_1_1harness_1_1sas__interface_1_1SasTestcaseInterface.html#a30381223329eaa6c5394735a2ef90901" target="_top" xlink:title="src.harness.sas_interface.\lSasTestcaseInterface.assertValid\lResponseFormatForApprovedGrant">
<polygon fill="white" stroke="black" points="222.5,-0.5 222.5,-41.5 393.5,-41.5 393.5,-0.5 222.5,-0.5"/>
<text text-anchor="start" x="230.5" y="-29.5" font-family="Helvetica,sans-Serif" font-size="10.00">src.harness.sas_interface.</text>
<text text-anchor="start" x="230.5" y="-18.5" font-family="Helvetica,sans-Serif" font-size="10.00">SasTestcaseInterface.assertValid</text>
<text text-anchor="middle" x="308" y="-7.5" font-family="Helvetica,sans-Serif" font-size="10.00">ResponseFormatForApprovedGrant</text>
</a>
</g>
</g>
<!-- Node1&#45;&gt;Node5 -->
<g id="edge5" class="edge"><title>Node1&#45;&gt;Node5</title>
<path fill="none" stroke="midnightblue" d="M123.008,-87.4509C145.843,-75.7807 175.593,-61.4601 203,-51 208.761,-48.8014 214.753,-46.6735 220.824,-44.6344"/>
<polygon fill="midnightblue" stroke="midnightblue" points="221.985,-47.9371 230.405,-41.5057 219.812,-41.2829 221.985,-47.9371"/>
</g>
<!-- Node3&#45;&gt;Node2 -->
<g id="edge3" class="edge"><title>Node3&#45;&gt;Node2</title>
<path fill="none" stroke="midnightblue" d="M376.682,-141.363C405.178,-144.042 438.45,-147.171 467.716,-149.922"/>
<polygon fill="midnightblue" stroke="midnightblue" points="467.602,-153.427 477.886,-150.878 468.258,-146.457 467.602,-153.427"/>
</g>
<!-- Node6 -->
<g id="node6" class="node"><title>Node6</title>
<g id="a_node6"><a xlink:href="../../df/ded/classsrc_1_1harness_1_1sas__interface_1_1SasTestcaseInterface.html#ae5fdeb19b3235937e0fe9b447297f7ec" target="_top" xlink:title="src.harness.sas_interface.\lSasTestcaseInterface.assertRegistered">
<polygon fill="white" stroke="black" points="449,-6 449,-36 639,-36 639,-6 449,-6"/>
<text text-anchor="start" x="457" y="-24" font-family="Helvetica,sans-Serif" font-size="10.00">src.harness.sas_interface.</text>
<text text-anchor="middle" x="544" y="-13" font-family="Helvetica,sans-Serif" font-size="10.00">SasTestcaseInterface.assertRegistered</text>
</a>
</g>
</g>
<!-- Node5&#45;&gt;Node6 -->
<g id="edge6" class="edge"><title>Node5&#45;&gt;Node6</title>
<path fill="none" stroke="midnightblue" d="M393.81,-21C408.369,-21 423.649,-21 438.649,-21"/>
<polygon fill="midnightblue" stroke="midnightblue" points="438.976,-24.5001 448.976,-21 438.976,-17.5001 438.976,-24.5001"/>
</g>
<!-- Node7 -->
<g id="node7" class="node"><title>Node7</title>
<g id="a_node7"><a xlink:href="../../df/ded/classsrc_1_1harness_1_1sas__interface_1_1SasTestcaseInterface.html#a36b0593c135c9f69cba9eb4b359bdfa2" target="_top" xlink:title="src.harness.sas_interface.\lSasTestcaseInterface.assertRegistered\lAndGranted">
<polygon fill="white" stroke="black" points="675,-0.5 675,-41.5 865,-41.5 865,-0.5 675,-0.5"/>
<text text-anchor="start" x="683" y="-29.5" font-family="Helvetica,sans-Serif" font-size="10.00">src.harness.sas_interface.</text>
<text text-anchor="start" x="683" y="-18.5" font-family="Helvetica,sans-Serif" font-size="10.00">SasTestcaseInterface.assertRegistered</text>
<text text-anchor="middle" x="770" y="-7.5" font-family="Helvetica,sans-Serif" font-size="10.00">AndGranted</text>
</a>
</g>
</g>
<!-- Node6&#45;&gt;Node7 -->
<g id="edge7" class="edge"><title>Node6&#45;&gt;Node7</title>
<path fill="none" stroke="midnightblue" d="M639.023,-21C647.542,-21 656.204,-21 664.804,-21"/>
<polygon fill="midnightblue" stroke="midnightblue" points="664.859,-24.5001 674.859,-21 664.859,-17.5001 664.859,-24.5001"/>
</g>
</g>
</svg>
