<?xml version="1.0" encoding="UTF-8" standalone="no"?>
<!DOCTYPE svg PUBLIC "-//W3C//DTD SVG 1.1//EN"
 "http://www.w3.org/Graphics/SVG/1.1/DTD/svg11.dtd">
<!-- Generated by graphviz version 2.38.0 (20140413.2041)
 -->
<!-- Title: src.harness.testcases.grant_testcase.GrantTestcaseUsingOldIds.test_WINNF_FT_S_GRA_25 Pages: 1 -->
<svg width="873pt" height="224pt"
 viewBox="0.00 0.00 873.00 223.91" xmlns="http://www.w3.org/2000/svg" xmlns:xlink="http://www.w3.org/1999/xlink">
<g id="graph0" class="graph" transform="scale(1 1) rotate(0) translate(4 219.914)">
<title>src.harness.testcases.grant_testcase.GrantTestcaseUsingOldIds.test_WINNF_FT_S_GRA_25</title>
<polygon fill="white" stroke="none" points="-4,4 -4,-219.914 869,-219.914 869,4 -4,4"/>
<!-- Node1 -->
<g id="node1" class="node"><title>Node1</title>
<polygon fill="#bfbfbf" stroke="black" points="0,-109.5 0,-150.5 167,-150.5 167,-109.5 0,-109.5"/>
<text text-anchor="start" x="8" y="-138.5" font-family="Helvetica,sans-Serif" font-size="10.00">src.harness.testcases.grant</text>
<text text-anchor="start" x="8" y="-127.5" font-family="Helvetica,sans-Serif" font-size="10.00">_testcase.GrantTestcaseUsingOld</text>
<text text-anchor="middle" x="83.5" y="-116.5" font-family="Helvetica,sans-Serif" font-size="10.00">Ids.test_WINNF_FT_S_GRA_25</text>
</g>
<!-- Node2 -->
<g id="node2" class="node"><title>Node2</title>
<g id="a_node2"><a xlink:href="../../d8/d6c/namespacesrc_1_1harness_1_1util.html#ad781031fc0a08430a583769551ac9b40" target="_top" xlink:title="src.harness.util.makePpa\lAndPalRecordsConsistent">
<polygon fill="white" stroke="black" points="478,-181 478,-211 610,-211 610,-181 478,-181"/>
<text text-anchor="start" x="486" y="-199" font-family="Helvetica,sans-Serif" font-size="10.00">src.harness.util.makePpa</text>
<text text-anchor="middle" x="544" y="-188" font-family="Helvetica,sans-Serif" font-size="10.00">AndPalRecordsConsistent</text>
</a>
</g>
</g>
<!-- Node1&#45;&gt;Node2 -->
<g id="edge1" class="edge"><title>Node1&#45;&gt;Node2</title>
<path fill="none" stroke="midnightblue" d="M110.437,-150.573C133.303,-167.309 168.294,-189.632 203,-199 291.54,-222.899 397.835,-216.686 467.726,-208.107"/>
<polygon fill="midnightblue" stroke="midnightblue" points="468.29,-211.564 477.768,-206.828 467.405,-204.62 468.29,-211.564"/>
</g>
<!-- Node3 -->
<g id="node3" class="node"><title>Node3</title>
<g id="a_node3"><a xlink:href="../../d8/d6c/namespacesrc_1_1harness_1_1util.html#a105dd692e0d0640cc251860113ff5a97" target="_top" xlink:title="src.harness.util.getRandom\lLatLongInPolygon">
<polygon fill="white" stroke="black" points="239.5,-159 239.5,-189 376.5,-189 376.5,-159 239.5,-159"/>
<text text-anchor="start" x="247.5" y="-177" font-family="Helvetica,sans-Serif" font-size="10.00">src.harness.util.getRandom</text>
<text text-anchor="middle" x="308" y="-166" font-family="Helvetica,sans-Serif" font-size="10.00">LatLongInPolygon</text>
</a>
</g>
</g>
<!-- Node1&#45;&gt;Node3 -->
<g id="edge2" class="edge"><title>Node1&#45;&gt;Node3</title>
<path fill="none" stroke="midnightblue" d="M167.035,-146.321C187.348,-150.339 209.033,-154.627 229.118,-158.599"/>
<polygon fill="midnightblue" stroke="midnightblue" points="228.658,-162.075 239.147,-160.582 230.016,-155.208 228.658,-162.075"/>
</g>
<!-- Node4 -->
<g id="node4" class="node"><title>Node4</title>
<g id="a_node4"><a xlink:href="../../df/ded/classsrc_1_1harness_1_1sas__interface_1_1SasTestcaseInterface.html#ae5fdeb19b3235937e0fe9b447297f7ec" target="_top" xlink:title="src.harness.sas_interface.\lSasTestcaseInterface.assertRegistered">
<polygon fill="white" stroke="black" points="449,-80 449,-110 639,-110 639,-80 449,-80"/>
<text text-anchor="start" x="457" y="-98" font-family="Helvetica,sans-Serif" font-size="10.00">src.harness.sas_interface.</text>
<text text-anchor="middle" x="544" y="-87" font-family="Helvetica,sans-Serif" font-size="10.00">SasTestcaseInterface.assertRegistered</text>
</a>
</g>
</g>
<!-- Node1&#45;&gt;Node4 -->
<g id="edge4" class="edge"><title>Node1&#45;&gt;Node4</title>
<path fill="none" stroke="midnightblue" d="M167.3,-126.695C233.79,-123.683 329.507,-118.545 413,-111 421.474,-110.234 430.248,-109.351 439.054,-108.4"/>
<polygon fill="midnightblue" stroke="midnightblue" points="439.44,-111.878 448.995,-107.3 438.671,-104.921 439.44,-111.878"/>
</g>
<!-- Node6 -->
<g id="node6" class="node"><title>Node6</title>
<g id="a_node6"><a xlink:href="../../df/ded/classsrc_1_1harness_1_1sas__interface_1_1SasTestcaseInterface.html#a39812d93a172aad20d1ec3006ade06bb" target="_top" xlink:title="src.harness.sas_interface.\lSasTestcaseInterface.TriggerDaily\lActivitiesImmediatelyAndWaitUntilComplete">
<polygon fill="white" stroke="black" points="203,-60.5 203,-101.5 413,-101.5 413,-60.5 203,-60.5"/>
<text text-anchor="start" x="211" y="-89.5" font-family="Helvetica,sans-Serif" font-size="10.00">src.harness.sas_interface.</text>
<text text-anchor="start" x="211" y="-78.5" font-family="Helvetica,sans-Serif" font-size="10.00">SasTestcaseInterface.TriggerDaily</text>
<text text-anchor="middle" x="308" y="-67.5" font-family="Helvetica,sans-Serif" font-size="10.00">ActivitiesImmediatelyAndWaitUntilComplete</text>
</a>
</g>
</g>
<!-- Node1&#45;&gt;Node6 -->
<g id="edge6" class="edge"><title>Node1&#45;&gt;Node6</title>
<path fill="none" stroke="midnightblue" d="M167.035,-111.824C179.038,-109.18 191.52,-106.432 203.868,-103.712"/>
<polygon fill="midnightblue" stroke="midnightblue" points="204.717,-107.109 213.73,-101.54 203.211,-100.273 204.717,-107.109"/>
</g>
<!-- Node7 -->
<g id="node7" class="node"><title>Node7</title>
<g id="a_node7"><a xlink:href="../../df/ded/classsrc_1_1harness_1_1sas__interface_1_1SasTestcaseInterface.html#a30381223329eaa6c5394735a2ef90901" target="_top" xlink:title="src.harness.sas_interface.\lSasTestcaseInterface.assertValid\lResponseFormatForApprovedGrant">
<polygon fill="white" stroke="black" points="222.5,-0.5 222.5,-41.5 393.5,-41.5 393.5,-0.5 222.5,-0.5"/>
<text text-anchor="start" x="230.5" y="-29.5" font-family="Helvetica,sans-Serif" font-size="10.00">src.harness.sas_interface.</text>
<text text-anchor="start" x="230.5" y="-18.5" font-family="Helvetica,sans-Serif" font-size="10.00">SasTestcaseInterface.assertValid</text>
<text text-anchor="middle" x="308" y="-7.5" font-family="Helvetica,sans-Serif" font-size="10.00">ResponseFormatForApprovedGrant</text>
</a>
</g>
</g>
<!-- Node1&#45;&gt;Node7 -->
<g id="edge7" class="edge"><title>Node1&#45;&gt;Node7</title>
<path fill="none" stroke="midnightblue" d="M110.402,-109.311C133.524,-91.7027 168.908,-66.818 203,-51 207.403,-48.9572 211.976,-47.0213 216.64,-45.1914"/>
<polygon fill="midnightblue" stroke="midnightblue" points="218.168,-48.3568 226.316,-41.584 215.723,-41.7978 218.168,-48.3568"/>
</g>
<!-- Node3&#45;&gt;Node2 -->
<g id="edge3" class="edge"><title>Node3&#45;&gt;Node2</title>
<path fill="none" stroke="midnightblue" d="M376.682,-180.363C405.178,-183.042 438.45,-186.171 467.716,-188.922"/>
<polygon fill="midnightblue" stroke="midnightblue" points="467.602,-192.427 477.886,-189.878 468.258,-185.457 467.602,-192.427"/>
</g>
<!-- Node5 -->
<g id="node5" class="node"><title>Node5</title>
<g id="a_node5"><a xlink:href="../../df/ded/classsrc_1_1harness_1_1sas__interface_1_1SasTestcaseInterface.html#a36b0593c135c9f69cba9eb4b359bdfa2" target="_top" xlink:title="src.harness.sas_interface.\lSasTestcaseInterface.assertRegistered\lAndGranted">
<polygon fill="white" stroke="black" points="675,-74.5 675,-115.5 865,-115.5 865,-74.5 675,-74.5"/>
<text text-anchor="start" x="683" y="-103.5" font-family="Helvetica,sans-Serif" font-size="10.00">src.harness.sas_interface.</text>
<text text-anchor="start" x="683" y="-92.5" font-family="Helvetica,sans-Serif" font-size="10.00">SasTestcaseInterface.assertRegistered</text>
<text text-anchor="middle" x="770" y="-81.5" font-family="Helvetica,sans-Serif" font-size="10.00">AndGranted</text>
</a>
</g>
</g>
<!-- Node4&#45;&gt;Node5 -->
<g id="edge5" class="edge"><title>Node4&#45;&gt;Node5</title>
<path fill="none" stroke="midnightblue" d="M639.023,-95C647.542,-95 656.204,-95 664.804,-95"/>
<polygon fill="midnightblue" stroke="midnightblue" points="664.859,-98.5001 674.859,-95 664.859,-91.5001 664.859,-98.5001"/>
</g>
<!-- Node7&#45;&gt;Node4 -->
<g id="edge8" class="edge"><title>Node7&#45;&gt;Node4</title>
<path fill="none" stroke="midnightblue" d="M381.86,-41.5609C392.333,-44.6488 402.958,-47.854 413,-51 438.68,-59.045 467.003,-68.5553 490.64,-76.6722"/>
<polygon fill="midnightblue" stroke="midnightblue" points="489.528,-79.9913 500.123,-79.9404 491.809,-73.3733 489.528,-79.9913"/>
</g>
</g>
</svg>
