<?xml version="1.0" encoding="UTF-8" standalone="no"?>
<!DOCTYPE svg PUBLIC "-//W3C//DTD SVG 1.1//EN"
 "http://www.w3.org/Graphics/SVG/1.1/DTD/svg11.dtd">
<!-- Generated by graphviz version 2.38.0 (20140413.2041)
 -->
<!-- Title: src.harness.testcases.grant_testcase.GrantTestcaseUsingOldIds.test_WINNF_FT_S_GRA_15 Pages: 1 -->
<svg width="589pt" height="121pt"
 viewBox="0.00 0.00 589.00 120.50" xmlns="http://www.w3.org/2000/svg" xmlns:xlink="http://www.w3.org/1999/xlink">
<g id="graph0" class="graph" transform="scale(1 1) rotate(0) translate(4 116.5)">
<title>src.harness.testcases.grant_testcase.GrantTestcaseUsingOldIds.test_WINNF_FT_S_GRA_15</title>
<polygon fill="white" stroke="none" points="-4,4 -4,-116.5 585,-116.5 585,4 -4,4"/>
<!-- Node1 -->
<g id="node1" class="node"><title>Node1</title>
<polygon fill="#bfbfbf" stroke="black" points="0,-54.5 0,-95.5 167,-95.5 167,-54.5 0,-54.5"/>
<text text-anchor="start" x="8" y="-83.5" font-family="Helvetica,sans-Serif" font-size="10.00">src.harness.testcases.grant</text>
<text text-anchor="start" x="8" y="-72.5" font-family="Helvetica,sans-Serif" font-size="10.00">_testcase.GrantTestcaseUsingOld</text>
<text text-anchor="middle" x="83.5" y="-61.5" font-family="Helvetica,sans-Serif" font-size="10.00">Ids.test_WINNF_FT_S_GRA_15</text>
</g>
<!-- Node2 -->
<g id="node2" class="node"><title>Node2</title>
<g id="a_node2"><a xlink:href="../../d8/d6c/namespacesrc_1_1harness_1_1util.html#ad781031fc0a08430a583769551ac9b40" target="_top" xlink:title="src.harness.util.makePpa\lAndPalRecordsConsistent">
<polygon fill="white" stroke="black" points="449,-82 449,-112 581,-112 581,-82 449,-82"/>
<text text-anchor="start" x="457" y="-100" font-family="Helvetica,sans-Serif" font-size="10.00">src.harness.util.makePpa</text>
<text text-anchor="middle" x="515" y="-89" font-family="Helvetica,sans-Serif" font-size="10.00">AndPalRecordsConsistent</text>
</a>
</g>
</g>
<!-- Node1&#45;&gt;Node2 -->
<g id="edge1" class="edge"><title>Node1&#45;&gt;Node2</title>
<path fill="none" stroke="midnightblue" d="M167.026,-94.6972C179.031,-96.8945 191.289,-98.7781 203,-100 295.829,-109.686 319.677,-101.386 413,-100 421.321,-99.8765 430.026,-99.6957 438.687,-99.4831"/>
<polygon fill="midnightblue" stroke="midnightblue" points="438.903,-102.979 448.809,-99.2206 438.722,-95.9812 438.903,-102.979"/>
</g>
<!-- Node3 -->
<g id="node3" class="node"><title>Node3</title>
<g id="a_node3"><a xlink:href="../../d8/d6c/namespacesrc_1_1harness_1_1util.html#a105dd692e0d0640cc251860113ff5a97" target="_top" xlink:title="src.harness.util.getRandom\lLatLongInPolygon">
<polygon fill="white" stroke="black" points="239.5,-60 239.5,-90 376.5,-90 376.5,-60 239.5,-60"/>
<text text-anchor="start" x="247.5" y="-78" font-family="Helvetica,sans-Serif" font-size="10.00">src.harness.util.getRandom</text>
<text text-anchor="middle" x="308" y="-67" font-family="Helvetica,sans-Serif" font-size="10.00">LatLongInPolygon</text>
</a>
</g>
</g>
<!-- Node1&#45;&gt;Node3 -->
<g id="edge2" class="edge"><title>Node1&#45;&gt;Node3</title>
<path fill="none" stroke="midnightblue" d="M167.035,-75C187.348,-75 209.033,-75 229.118,-75"/>
<polygon fill="midnightblue" stroke="midnightblue" points="229.147,-78.5001 239.147,-75 229.147,-71.5001 229.147,-78.5001"/>
</g>
<!-- Node4 -->
<g id="node4" class="node"><title>Node4</title>
<g id="a_node4"><a xlink:href="../../df/ded/classsrc_1_1harness_1_1sas__interface_1_1SasTestcaseInterface.html#a39812d93a172aad20d1ec3006ade06bb" target="_top" xlink:title="src.harness.sas_interface.\lSasTestcaseInterface.TriggerDaily\lActivitiesImmediatelyAndWaitUntilComplete">
<polygon fill="white" stroke="black" points="203,-0.5 203,-41.5 413,-41.5 413,-0.5 203,-0.5"/>
<text text-anchor="start" x="211" y="-29.5" font-family="Helvetica,sans-Serif" font-size="10.00">src.harness.sas_interface.</text>
<text text-anchor="start" x="211" y="-18.5" font-family="Helvetica,sans-Serif" font-size="10.00">SasTestcaseInterface.TriggerDaily</text>
<text text-anchor="middle" x="308" y="-7.5" font-family="Helvetica,sans-Serif" font-size="10.00">ActivitiesImmediatelyAndWaitUntilComplete</text>
</a>
</g>
</g>
<!-- Node1&#45;&gt;Node4 -->
<g id="edge4" class="edge"><title>Node1&#45;&gt;Node4</title>
<path fill="none" stroke="midnightblue" d="M167.035,-54.9691C181.847,-51.3743 197.387,-47.6026 212.506,-43.9334"/>
<polygon fill="midnightblue" stroke="midnightblue" points="213.475,-47.2998 222.368,-41.5399 211.824,-40.4972 213.475,-47.2998"/>
</g>
<!-- Node3&#45;&gt;Node2 -->
<g id="edge3" class="edge"><title>Node3&#45;&gt;Node2</title>
<path fill="none" stroke="midnightblue" d="M376.693,-82.2646C396.547,-84.3953 418.378,-86.7381 438.676,-88.9165"/>
<polygon fill="midnightblue" stroke="midnightblue" points="438.5,-92.4176 448.817,-90.0047 439.247,-85.4575 438.5,-92.4176"/>
</g>
</g>
</svg>
