<?xml version="1.0" encoding="UTF-8" standalone="no"?>
<!DOCTYPE svg PUBLIC "-//W3C//DTD SVG 1.1//EN"
 "http://www.w3.org/Graphics/SVG/1.1/DTD/svg11.dtd">
<!-- Generated by graphviz version 2.38.0 (20140413.2041)
 -->
<!-- Title: src.harness.sas_interface.SasAdminInterface Pages: 1 -->
<svg width="314pt" height="162pt"
 viewBox="0.00 0.00 314.00 162.00" xmlns="http://www.w3.org/2000/svg" xmlns:xlink="http://www.w3.org/1999/xlink">
<g id="graph0" class="graph" transform="scale(1 1) rotate(0) translate(4 158)">
<title>src.harness.sas_interface.SasAdminInterface</title>
<polygon fill="white" stroke="none" points="-4,4 -4,-158 310,-158 310,4 -4,4"/>
<!-- Node1 -->
<g id="node1" class="node"><title>Node1</title>
<polygon fill="#bfbfbf" stroke="black" points="82.5,-67.5 82.5,-97.5 214.5,-97.5 214.5,-67.5 82.5,-67.5"/>
<text text-anchor="start" x="90.5" y="-85.5" font-family="Helvetica,sans-Serif" font-size="10.00">src.harness.sas_interface.</text>
<text text-anchor="middle" x="148.5" y="-74.5" font-family="Helvetica,sans-Serif" font-size="10.00">SasAdminInterface</text>
</g>
<!-- Node3 -->
<g id="node3" class="node"><title>Node3</title>
<g id="a_node3"><a xlink:href="../../d8/dfd/classsrc_1_1harness_1_1fake__sas_1_1FakeSasAdmin.html" target="_top" xlink:title="src.harness.fake_sas.Fake\lSasAdmin">
<polygon fill="white" stroke="black" points="0,-0.5 0,-30.5 135,-30.5 135,-0.5 0,-0.5"/>
<text text-anchor="start" x="8" y="-18.5" font-family="Helvetica,sans-Serif" font-size="10.00">src.harness.fake_sas.Fake</text>
<text text-anchor="middle" x="67.5" y="-7.5" font-family="Helvetica,sans-Serif" font-size="10.00">SasAdmin</text>
</a>
</g>
</g>
<!-- Node1&#45;&gt;Node3 -->
<g id="edge2" class="edge"><title>Node1&#45;&gt;Node3</title>
<path fill="none" stroke="midnightblue" d="M122.808,-60.8832C110.499,-51.0054 96.0734,-39.4293 85.0415,-30.5765"/>
<polygon fill="midnightblue" stroke="midnightblue" points="120.934,-63.867 130.924,-67.396 125.315,-58.4075 120.934,-63.867"/>
</g>
<!-- Node4 -->
<g id="node4" class="node"><title>Node4</title>
<g id="a_node4"><a xlink:href="../../d5/da5/classsrc_1_1harness_1_1sas_1_1SasAdminImpl.html" target="_top" xlink:title="src.harness.sas.SasAdminImpl">
<polygon fill="white" stroke="black" points="153,-6 153,-25 306,-25 306,-6 153,-6"/>
<text text-anchor="middle" x="229.5" y="-13" font-family="Helvetica,sans-Serif" font-size="10.00">src.harness.sas.SasAdminImpl</text>
</a>
</g>
</g>
<!-- Node1&#45;&gt;Node4 -->
<g id="edge3" class="edge"><title>Node1&#45;&gt;Node4</title>
<path fill="none" stroke="midnightblue" d="M174.036,-61.008C189.073,-48.9412 207.313,-34.3046 218.665,-25.1945"/>
<polygon fill="midnightblue" stroke="midnightblue" points="171.685,-58.4075 166.076,-67.396 176.066,-63.867 171.685,-58.4075"/>
</g>
<!-- Node2 -->
<g id="node2" class="node"><title>Node2</title>
<polygon fill="white" stroke="#bfbfbf" points="127,-134.5 127,-153.5 170,-153.5 170,-134.5 127,-134.5"/>
<text text-anchor="middle" x="148.5" y="-141.5" font-family="Helvetica,sans-Serif" font-size="10.00">object</text>
</g>
<!-- Node2&#45;&gt;Node1 -->
<g id="edge1" class="edge"><title>Node2&#45;&gt;Node1</title>
<path fill="none" stroke="midnightblue" d="M148.5,-124.235C148.5,-115.586 148.5,-105.497 148.5,-97.523"/>
<polygon fill="midnightblue" stroke="midnightblue" points="145,-124.475 148.5,-134.475 152,-124.475 145,-124.475"/>
</g>
</g>
</svg>
