<?xml version="1.0" encoding="UTF-8" standalone="no"?>
<!DOCTYPE svg PUBLIC "-//W3C//DTD SVG 1.1//EN"
 "http://www.w3.org/Graphics/SVG/1.1/DTD/svg11.dtd">
<!-- Generated by graphviz version 2.38.0 (20140413.2041)
 -->
<!-- Title: src.harness.sas_testcase.SasTestCase.assertRegisteredAndGranted Pages: 1 -->
<svg width="578pt" height="50pt"
 viewBox="0.00 0.00 578.00 50.00" xmlns="http://www.w3.org/2000/svg" xmlns:xlink="http://www.w3.org/1999/xlink">
<g id="graph0" class="graph" transform="scale(1 1) rotate(0) translate(4 46)">
<title>src.harness.sas_testcase.SasTestCase.assertRegisteredAndGranted</title>
<polygon fill="white" stroke="none" points="-4,4 -4,-46 574,-46 574,4 -4,4"/>
<!-- Node1 -->
<g id="node1" class="node"><title>Node1</title>
<polygon fill="#bfbfbf" stroke="black" points="0,-0.5 0,-41.5 171,-41.5 171,-0.5 0,-0.5"/>
<text text-anchor="start" x="8" y="-29.5" font-family="Helvetica,sans-Serif" font-size="10.00">src.harness.sas_testcase.</text>
<text text-anchor="start" x="8" y="-18.5" font-family="Helvetica,sans-Serif" font-size="10.00">SasTestCase.assertRegisteredAnd</text>
<text text-anchor="middle" x="85.5" y="-7.5" font-family="Helvetica,sans-Serif" font-size="10.00">Granted</text>
</g>
<!-- Node2 -->
<g id="node2" class="node"><title>Node2</title>
<g id="a_node2"><a xlink:href="../../df/dc5/classsrc_1_1harness_1_1sas__testcase_1_1SasTestCase.html#a28b72ffa7d5098fb69bc91ddf7ee7f20" target="_top" xlink:title="src.harness.sas_testcase.\lSasTestCase.assertRegistered">
<polygon fill="white" stroke="black" points="207,-6 207,-36 361,-36 361,-6 207,-6"/>
<text text-anchor="start" x="215" y="-24" font-family="Helvetica,sans-Serif" font-size="10.00">src.harness.sas_testcase.</text>
<text text-anchor="middle" x="284" y="-13" font-family="Helvetica,sans-Serif" font-size="10.00">SasTestCase.assertRegistered</text>
</a>
</g>
</g>
<!-- Node1&#45;&gt;Node2 -->
<g id="edge1" class="edge"><title>Node1&#45;&gt;Node2</title>
<path fill="none" stroke="midnightblue" d="M181.298,-21C189.877,-21 198.491,-21 206.877,-21"/>
<polygon fill="midnightblue" stroke="midnightblue" points="181.259,-17.5001 171.259,-21 181.259,-24.5001 181.259,-17.5001"/>
</g>
<!-- Node3 -->
<g id="node3" class="node"><title>Node3</title>
<g id="a_node3"><a xlink:href="../../df/dc5/classsrc_1_1harness_1_1sas__testcase_1_1SasTestCase.html#a1690e73264aa42576f9e1bbd37e4d2b0" target="_top" xlink:title="src.harness.sas_testcase.\lSasTestCase.assertValidResponse\lFormatForApprovedGrant">
<polygon fill="white" stroke="black" points="397,-0.5 397,-41.5 570,-41.5 570,-0.5 397,-0.5"/>
<text text-anchor="start" x="405" y="-29.5" font-family="Helvetica,sans-Serif" font-size="10.00">src.harness.sas_testcase.</text>
<text text-anchor="start" x="405" y="-18.5" font-family="Helvetica,sans-Serif" font-size="10.00">SasTestCase.assertValidResponse</text>
<text text-anchor="middle" x="483.5" y="-7.5" font-family="Helvetica,sans-Serif" font-size="10.00">FormatForApprovedGrant</text>
</a>
</g>
</g>
<!-- Node2&#45;&gt;Node3 -->
<g id="edge2" class="edge"><title>Node2&#45;&gt;Node3</title>
<path fill="none" stroke="midnightblue" d="M371.349,-21C379.836,-21 388.447,-21 396.926,-21"/>
<polygon fill="midnightblue" stroke="midnightblue" points="371.076,-17.5001 361.076,-21 371.076,-24.5001 371.076,-17.5001"/>
</g>
</g>
</svg>
