<?xml version="1.0" encoding="UTF-8" standalone="no"?>
<!DOCTYPE svg PUBLIC "-//W3C//DTD SVG 1.1//EN"
 "http://www.w3.org/Graphics/SVG/1.1/DTD/svg11.dtd">
<!-- Generated by graphviz version 2.38.0 (20140413.2041)
 -->
<!-- Title: src.harness.sas_testcase.SasTestCase.assertChannelsContainFrequencyRange Pages: 1 -->
<svg width="501pt" height="395pt"
 viewBox="0.00 0.00 501.00 394.50" xmlns="http://www.w3.org/2000/svg" xmlns:xlink="http://www.w3.org/1999/xlink">
<g id="graph0" class="graph" transform="scale(1 1) rotate(0) translate(4 390.5)">
<title>src.harness.sas_testcase.SasTestCase.assertChannelsContainFrequencyRange</title>
<polygon fill="white" stroke="none" points="-4,4 -4,-390.5 497,-390.5 497,4 -4,4"/>
<!-- Node1 -->
<g id="node1" class="node"><title>Node1</title>
<polygon fill="#bfbfbf" stroke="black" points="0,-161.5 0,-202.5 182,-202.5 182,-161.5 0,-161.5"/>
<text text-anchor="start" x="8" y="-190.5" font-family="Helvetica,sans-Serif" font-size="10.00">src.harness.sas_testcase.</text>
<text text-anchor="start" x="8" y="-179.5" font-family="Helvetica,sans-Serif" font-size="10.00">SasTestCase.assertChannelsContain</text>
<text text-anchor="middle" x="91" y="-168.5" font-family="Helvetica,sans-Serif" font-size="10.00">FrequencyRange</text>
</g>
<!-- Node2 -->
<g id="node2" class="node"><title>Node2</title>
<g id="a_node2"><a xlink:href="../../d8/d41/classsrc_1_1harness_1_1testcases_1_1helper__unit__testcase_1_1AssertChannelsContainFrequencyRangeTest.html#a89340e3daaba68b1a607827b96973a8d" target="_top" xlink:title="src.harness.testcases.helper\l_unit_testcase.AssertChannelsContain\lFrequencyRangeTest.test_shouldSucceedWhen\lConflictChannel">
<polygon fill="white" stroke="black" points="242,-334 242,-386 469,-386 469,-334 242,-334"/>
<text text-anchor="start" x="250" y="-374" font-family="Helvetica,sans-Serif" font-size="10.00">src.harness.testcases.helper</text>
<text text-anchor="start" x="250" y="-363" font-family="Helvetica,sans-Serif" font-size="10.00">_unit_testcase.AssertChannelsContain</text>
<text text-anchor="start" x="250" y="-352" font-family="Helvetica,sans-Serif" font-size="10.00">FrequencyRangeTest.test_shouldSucceedWhen</text>
<text text-anchor="middle" x="355.5" y="-341" font-family="Helvetica,sans-Serif" font-size="10.00">ConflictChannel</text>
</a>
</g>
</g>
<!-- Node1&#45;&gt;Node2 -->
<g id="edge1" class="edge"><title>Node1&#45;&gt;Node2</title>
<path fill="none" stroke="midnightblue" d="M109.908,-211.204C131.492,-243.901 170.807,-296.081 218,-325 225.51,-329.602 233.606,-333.601 241.977,-337.077"/>
<polygon fill="midnightblue" stroke="midnightblue" points="112.669,-209.029 104.299,-202.534 106.792,-212.832 112.669,-209.029"/>
</g>
<!-- Node3 -->
<g id="node3" class="node"><title>Node3</title>
<g id="a_node3"><a xlink:href="../../d8/d41/classsrc_1_1harness_1_1testcases_1_1helper__unit__testcase_1_1AssertChannelsContainFrequencyRangeTest.html#ad4a6b73b4430744afe008c36656021ee" target="_top" xlink:title="src.harness.testcases.helper\l_unit_testcase.AssertChannelsContain\lFrequencyRangeTest.test_shouldSucceedWhen\lMultiSequencialChannel">
<polygon fill="white" stroke="black" points="242,-263 242,-315 469,-315 469,-263 242,-263"/>
<text text-anchor="start" x="250" y="-303" font-family="Helvetica,sans-Serif" font-size="10.00">src.harness.testcases.helper</text>
<text text-anchor="start" x="250" y="-292" font-family="Helvetica,sans-Serif" font-size="10.00">_unit_testcase.AssertChannelsContain</text>
<text text-anchor="start" x="250" y="-281" font-family="Helvetica,sans-Serif" font-size="10.00">FrequencyRangeTest.test_shouldSucceedWhen</text>
<text text-anchor="middle" x="355.5" y="-270" font-family="Helvetica,sans-Serif" font-size="10.00">MultiSequencialChannel</text>
</a>
</g>
</g>
<!-- Node1&#45;&gt;Node3 -->
<g id="edge2" class="edge"><title>Node1&#45;&gt;Node3</title>
<path fill="none" stroke="midnightblue" d="M131.198,-208.049C155.393,-223.188 187.534,-241.652 218,-254 225.936,-257.216 234.253,-260.207 242.699,-262.975"/>
<polygon fill="midnightblue" stroke="midnightblue" points="132.982,-205.036 122.662,-202.64 129.235,-210.949 132.982,-205.036"/>
</g>
<!-- Node4 -->
<g id="node4" class="node"><title>Node4</title>
<g id="a_node4"><a xlink:href="../../d8/d41/classsrc_1_1harness_1_1testcases_1_1helper__unit__testcase_1_1AssertChannelsContainFrequencyRangeTest.html#a1544936eb00b21fd07f5f802c47cad97" target="_top" xlink:title="src.harness.testcases.helper\l_unit_testcase.AssertChannelsContain\lFrequencyRangeTest.test_shouldFailWhenChannel\lLowerThanRange">
<polygon fill="white" stroke="black" points="235,-192 235,-244 476,-244 476,-192 235,-192"/>
<text text-anchor="start" x="243" y="-232" font-family="Helvetica,sans-Serif" font-size="10.00">src.harness.testcases.helper</text>
<text text-anchor="start" x="243" y="-221" font-family="Helvetica,sans-Serif" font-size="10.00">_unit_testcase.AssertChannelsContain</text>
<text text-anchor="start" x="243" y="-210" font-family="Helvetica,sans-Serif" font-size="10.00">FrequencyRangeTest.test_shouldFailWhenChannel</text>
<text text-anchor="middle" x="355.5" y="-199" font-family="Helvetica,sans-Serif" font-size="10.00">LowerThanRange</text>
</a>
</g>
</g>
<!-- Node1&#45;&gt;Node4 -->
<g id="edge3" class="edge"><title>Node1&#45;&gt;Node4</title>
<path fill="none" stroke="midnightblue" d="M192.349,-195.762C206.231,-197.666 220.601,-199.637 234.79,-201.583"/>
<polygon fill="midnightblue" stroke="midnightblue" points="192.72,-192.28 182.338,-194.389 191.769,-199.215 192.72,-192.28"/>
</g>
<!-- Node5 -->
<g id="node5" class="node"><title>Node5</title>
<g id="a_node5"><a xlink:href="../../d8/d41/classsrc_1_1harness_1_1testcases_1_1helper__unit__testcase_1_1AssertChannelsContainFrequencyRangeTest.html#ac0d6d9c7d52d327eca75a4b669426e8c" target="_top" xlink:title="src.harness.testcases.helper\l_unit_testcase.AssertChannelsContain\lFrequencyRangeTest.test_shouldFailWhenChannel\lHigherThanRange">
<polygon fill="white" stroke="black" points="235,-121 235,-173 476,-173 476,-121 235,-121"/>
<text text-anchor="start" x="243" y="-161" font-family="Helvetica,sans-Serif" font-size="10.00">src.harness.testcases.helper</text>
<text text-anchor="start" x="243" y="-150" font-family="Helvetica,sans-Serif" font-size="10.00">_unit_testcase.AssertChannelsContain</text>
<text text-anchor="start" x="243" y="-139" font-family="Helvetica,sans-Serif" font-size="10.00">FrequencyRangeTest.test_shouldFailWhenChannel</text>
<text text-anchor="middle" x="355.5" y="-128" font-family="Helvetica,sans-Serif" font-size="10.00">HigherThanRange</text>
</a>
</g>
</g>
<!-- Node1&#45;&gt;Node5 -->
<g id="edge4" class="edge"><title>Node1&#45;&gt;Node5</title>
<path fill="none" stroke="midnightblue" d="M192.349,-168.62C206.231,-166.769 220.601,-164.853 234.79,-162.961"/>
<polygon fill="midnightblue" stroke="midnightblue" points="191.787,-165.164 182.338,-169.955 192.712,-172.103 191.787,-165.164"/>
</g>
<!-- Node6 -->
<g id="node6" class="node"><title>Node6</title>
<g id="a_node6"><a xlink:href="../../d8/d41/classsrc_1_1harness_1_1testcases_1_1helper__unit__testcase_1_1AssertChannelsContainFrequencyRangeTest.html#aa8afc8620f7ea647b00a95e20e7b0a0c" target="_top" xlink:title="src.harness.testcases.helper\l_unit_testcase.AssertChannelsContain\lFrequencyRangeTest.test_shouldFailWhenMissingChannel">
<polygon fill="white" stroke="black" points="218,-60.5 218,-101.5 493,-101.5 493,-60.5 218,-60.5"/>
<text text-anchor="start" x="226" y="-89.5" font-family="Helvetica,sans-Serif" font-size="10.00">src.harness.testcases.helper</text>
<text text-anchor="start" x="226" y="-78.5" font-family="Helvetica,sans-Serif" font-size="10.00">_unit_testcase.AssertChannelsContain</text>
<text text-anchor="middle" x="355.5" y="-67.5" font-family="Helvetica,sans-Serif" font-size="10.00">FrequencyRangeTest.test_shouldFailWhenMissingChannel</text>
</a>
</g>
</g>
<!-- Node1&#45;&gt;Node6 -->
<g id="edge5" class="edge"><title>Node1&#45;&gt;Node6</title>
<path fill="none" stroke="midnightblue" d="M131.672,-156.123C155.801,-141.374 187.711,-123.581 218,-112 228.214,-108.094 239.056,-104.604 249.987,-101.504"/>
<polygon fill="midnightblue" stroke="midnightblue" points="129.809,-153.159 123.152,-161.401 133.496,-159.11 129.809,-153.159"/>
</g>
<!-- Node7 -->
<g id="node7" class="node"><title>Node7</title>
<g id="a_node7"><a xlink:href="../../dd/df3/classsrc_1_1harness_1_1testcases_1_1WINNF__FT__S__SIQ__testcase_1_1SpectrumInquiryTestcase.html#ac8377a3a254db13e5a011fdfca390d8c" target="_top" xlink:title="src.harness.testcases.WINNF\l_FT_S_SIQ_testcase.SpectrumInquiry\lTestcase.test_WINNF_FT_S_SIQ_4">
<polygon fill="white" stroke="black" points="263,-0.5 263,-41.5 448,-41.5 448,-0.5 263,-0.5"/>
<text text-anchor="start" x="271" y="-29.5" font-family="Helvetica,sans-Serif" font-size="10.00">src.harness.testcases.WINNF</text>
<text text-anchor="start" x="271" y="-18.5" font-family="Helvetica,sans-Serif" font-size="10.00">_FT_S_SIQ_testcase.SpectrumInquiry</text>
<text text-anchor="middle" x="355.5" y="-7.5" font-family="Helvetica,sans-Serif" font-size="10.00">Testcase.test_WINNF_FT_S_SIQ_4</text>
</a>
</g>
</g>
<!-- Node1&#45;&gt;Node7 -->
<g id="edge6" class="edge"><title>Node1&#45;&gt;Node7</title>
<path fill="none" stroke="midnightblue" d="M112.071,-152.602C134.353,-122.326 173.147,-76.1239 218,-51 231.76,-43.2926 247.332,-37.5651 262.909,-33.3089"/>
<polygon fill="midnightblue" stroke="midnightblue" points="108.976,-150.909 105.965,-161.067 114.654,-155.004 108.976,-150.909"/>
</g>
</g>
</svg>
