<?xml version="1.0" encoding="UTF-8" standalone="no"?>
<!DOCTYPE svg PUBLIC "-//W3C//DTD SVG 1.1//EN"
 "http://www.w3.org/Graphics/SVG/1.1/DTD/svg11.dtd">
<!-- Generated by graphviz version 2.38.0 (20140413.2041)
 -->
<!-- Title: /home/nirajan/NetBeansProjects/sas&#45;winnforum/Spectrum&#45;Access&#45;System/Spectrum&#45;Access&#45;System&#45;master/src/harness/reference_models/propagation/ehata/its/MedianRollingHillyTerrainCorrectionFactor.cpp Pages: 1 -->
<svg width="232pt" height="139pt"
 viewBox="0.00 0.00 232.00 139.00" xmlns="http://www.w3.org/2000/svg" xmlns:xlink="http://www.w3.org/1999/xlink">
<g id="graph0" class="graph" transform="scale(1 1) rotate(0) translate(4 135)">
<title>/home/nirajan/NetBeansProjects/sas&#45;winnforum/Spectrum&#45;Access&#45;System/Spectrum&#45;Access&#45;System&#45;master/src/harness/reference_models/propagation/ehata/its/MedianRollingHillyTerrainCorrectionFactor.cpp</title>
<polygon fill="white" stroke="none" points="-4,4 -4,-135 228,-135 228,4 -4,4"/>
<!-- Node1 -->
<g id="node1" class="node"><title>Node1</title>
<polygon fill="#bfbfbf" stroke="black" points="-1.42109e-14,-56.5 -1.42109e-14,-130.5 224,-130.5 224,-56.5 -1.42109e-14,-56.5"/>
<text text-anchor="start" x="8" y="-118.5" font-family="Helvetica,sans-Serif" font-size="10.00">/home/nirajan/NetBeansProjects</text>
<text text-anchor="start" x="8" y="-107.5" font-family="Helvetica,sans-Serif" font-size="10.00">/sas&#45;winnforum/Spectrum&#45;Access</text>
<text text-anchor="start" x="8" y="-96.5" font-family="Helvetica,sans-Serif" font-size="10.00">&#45;System/Spectrum&#45;Access&#45;System</text>
<text text-anchor="start" x="8" y="-85.5" font-family="Helvetica,sans-Serif" font-size="10.00">&#45;master/src/harness/reference_models</text>
<text text-anchor="start" x="8" y="-74.5" font-family="Helvetica,sans-Serif" font-size="10.00">/propagation/ehata/its/MedianRollingHillyTerrain</text>
<text text-anchor="middle" x="112" y="-63.5" font-family="Helvetica,sans-Serif" font-size="10.00">CorrectionFactor.cpp</text>
</g>
<!-- Node2 -->
<g id="node2" class="node"><title>Node2</title>
<polygon fill="white" stroke="#bfbfbf" points="55.5,-0.5 55.5,-19.5 102.5,-19.5 102.5,-0.5 55.5,-0.5"/>
<text text-anchor="middle" x="79" y="-7.5" font-family="Helvetica,sans-Serif" font-size="10.00">math.h</text>
</g>
<!-- Node1&#45;&gt;Node2 -->
<g id="edge1" class="edge"><title>Node1&#45;&gt;Node2</title>
<path fill="none" stroke="midnightblue" d="M97.2374,-56.0408C93.419,-46.6107 89.4752,-36.8707 86.2361,-28.871"/>
<polygon fill="midnightblue" stroke="midnightblue" points="89.451,-27.485 82.4537,-19.5296 82.9627,-30.1122 89.451,-27.485"/>
</g>
<!-- Node3 -->
<g id="node3" class="node"><title>Node3</title>
<g id="a_node3"><a xlink:href="../../d3/d10/ehata_8h.html" target="_top" xlink:title="ehata.h">
<polygon fill="white" stroke="black" points="120.5,-0.5 120.5,-19.5 169.5,-19.5 169.5,-0.5 120.5,-0.5"/>
<text text-anchor="middle" x="145" y="-7.5" font-family="Helvetica,sans-Serif" font-size="10.00">ehata.h</text>
</a>
</g>
</g>
<!-- Node1&#45;&gt;Node3 -->
<g id="edge2" class="edge"><title>Node1&#45;&gt;Node3</title>
<path fill="none" stroke="midnightblue" d="M126.763,-56.0408C130.581,-46.6107 134.525,-36.8707 137.764,-28.871"/>
<polygon fill="midnightblue" stroke="midnightblue" points="141.037,-30.1122 141.546,-19.5296 134.549,-27.485 141.037,-30.1122"/>
</g>
</g>
</svg>
