<?xml version="1.0" encoding="UTF-8" standalone="no"?>
<!DOCTYPE svg PUBLIC "-//W3C//DTD SVG 1.1//EN"
 "http://www.w3.org/Graphics/SVG/1.1/DTD/svg11.dtd">
<!-- Generated by graphviz version 2.38.0 (20140413.2041)
 -->
<!-- Title: MobileTerrainSlope Pages: 1 -->
<svg width="254pt" height="66pt"
 viewBox="0.00 0.00 254.00 66.00" xmlns="http://www.w3.org/2000/svg" xmlns:xlink="http://www.w3.org/1999/xlink">
<g id="graph0" class="graph" transform="scale(1 1) rotate(0) translate(4 62)">
<title>MobileTerrainSlope</title>
<polygon fill="white" stroke="none" points="-4,4 -4,-62 250,-62 250,4 -4,4"/>
<!-- Node1 -->
<g id="node1" class="node"><title>Node1</title>
<polygon fill="#bfbfbf" stroke="black" points="0,-19.5 0,-38.5 100,-38.5 100,-19.5 0,-19.5"/>
<text text-anchor="middle" x="50" y="-26.5" font-family="Helvetica,sans-Serif" font-size="10.00">MobileTerrainSlope</text>
</g>
<!-- Node2 -->
<g id="node2" class="node"><title>Node2</title>
<g id="a_node2"><a xlink:href="../../d3/d10/ehata_8h.html#a04da5d949a150c9e4be4ccacc17b237c" target="_top" xlink:title="GetDistanceInMeters">
<polygon fill="white" stroke="black" points="136,-38.5 136,-57.5 246,-57.5 246,-38.5 136,-38.5"/>
<text text-anchor="middle" x="191" y="-45.5" font-family="Helvetica,sans-Serif" font-size="10.00">GetDistanceInMeters</text>
</a>
</g>
</g>
<!-- Node1&#45;&gt;Node2 -->
<g id="edge1" class="edge"><title>Node1&#45;&gt;Node2</title>
<path fill="none" stroke="midnightblue" d="M100.006,-35.6987C108.321,-36.8352 117.065,-38.0305 125.701,-39.211"/>
<polygon fill="midnightblue" stroke="midnightblue" points="125.376,-42.699 135.758,-40.5857 126.324,-35.7635 125.376,-42.699"/>
</g>
<!-- Node3 -->
<g id="node3" class="node"><title>Node3</title>
<g id="a_node3"><a xlink:href="../../d3/d10/ehata_8h.html#aaa5b4f6709cdb127a70af78debc1e496" target="_top" xlink:title="LeastSquares">
<polygon fill="white" stroke="black" points="152.5,-0.5 152.5,-19.5 229.5,-19.5 229.5,-0.5 152.5,-0.5"/>
<text text-anchor="middle" x="191" y="-7.5" font-family="Helvetica,sans-Serif" font-size="10.00">LeastSquares</text>
</a>
</g>
</g>
<!-- Node1&#45;&gt;Node3 -->
<g id="edge2" class="edge"><title>Node1&#45;&gt;Node3</title>
<path fill="none" stroke="midnightblue" d="M100.006,-22.3013C113.709,-20.4283 128.579,-18.3957 142.21,-16.5324"/>
<polygon fill="midnightblue" stroke="midnightblue" points="142.919,-19.9681 152.353,-15.146 141.971,-13.0326 142.919,-19.9681"/>
</g>
</g>
</svg>
