<?xml version="1.0" encoding="UTF-8" standalone="no"?>
<!DOCTYPE svg PUBLIC "-//W3C//DTD SVG 1.1//EN"
 "http://www.w3.org/Graphics/SVG/1.1/DTD/svg11.dtd">
<!-- Generated by graphviz version 2.38.0 (20140413.2041)
 -->
<!-- Title: ComputeTerrainStatistics Pages: 1 -->
<svg width="282pt" height="66pt"
 viewBox="0.00 0.00 282.00 66.00" xmlns="http://www.w3.org/2000/svg" xmlns:xlink="http://www.w3.org/1999/xlink">
<g id="graph0" class="graph" transform="scale(1 1) rotate(0) translate(4 62)">
<title>ComputeTerrainStatistics</title>
<polygon fill="white" stroke="none" points="-4,4 -4,-62 278,-62 278,4 -4,4"/>
<!-- Node1 -->
<g id="node1" class="node"><title>Node1</title>
<polygon fill="#bfbfbf" stroke="black" points="0,-19.5 0,-38.5 128,-38.5 128,-19.5 0,-19.5"/>
<text text-anchor="middle" x="64" y="-26.5" font-family="Helvetica,sans-Serif" font-size="10.00">ComputeTerrainStatistics</text>
</g>
<!-- Node2 -->
<g id="node2" class="node"><title>Node2</title>
<g id="a_node2"><a xlink:href="../../d3/d10/ehata_8h.html#a04da5d949a150c9e4be4ccacc17b237c" target="_top" xlink:title="GetDistanceInMeters">
<polygon fill="white" stroke="black" points="164,-38.5 164,-57.5 274,-57.5 274,-38.5 164,-38.5"/>
<text text-anchor="middle" x="219" y="-45.5" font-family="Helvetica,sans-Serif" font-size="10.00">GetDistanceInMeters</text>
</a>
</g>
</g>
<!-- Node1&#45;&gt;Node2 -->
<g id="edge1" class="edge"><title>Node1&#45;&gt;Node2</title>
<path fill="none" stroke="midnightblue" d="M128.114,-36.8377C136.541,-37.8842 145.192,-38.9585 153.64,-40.0076"/>
<polygon fill="midnightblue" stroke="midnightblue" points="153.461,-43.5121 163.816,-41.2712 154.323,-36.5655 153.461,-43.5121"/>
</g>
<!-- Node3 -->
<g id="node3" class="node"><title>Node3</title>
<g id="a_node3"><a xlink:href="../../d3/d10/ehata_8h.html#ab1ea39eb9d2a55d7d659770100edc454" target="_top" xlink:title="FindQuantile">
<polygon fill="white" stroke="black" points="183.5,-0.5 183.5,-19.5 254.5,-19.5 254.5,-0.5 183.5,-0.5"/>
<text text-anchor="middle" x="219" y="-7.5" font-family="Helvetica,sans-Serif" font-size="10.00">FindQuantile</text>
</a>
</g>
</g>
<!-- Node1&#45;&gt;Node3 -->
<g id="edge2" class="edge"><title>Node1&#45;&gt;Node3</title>
<path fill="none" stroke="midnightblue" d="M128.114,-21.1623C143.349,-19.2704 159.315,-17.2877 173.493,-15.5271"/>
<polygon fill="midnightblue" stroke="midnightblue" points="173.972,-18.9945 183.464,-14.2888 173.109,-12.0479 173.972,-18.9945"/>
</g>
</g>
</svg>
