<?xml version="1.0" encoding="UTF-8" standalone="no"?>
<!DOCTYPE svg PUBLIC "-//W3C//DTD SVG 1.1//EN"
 "http://www.w3.org/Graphics/SVG/1.1/DTD/svg11.dtd">
<!-- Generated by graphviz version 2.38.0 (20140413.2041)
 -->
<!-- Title: SingleHorizonTest Pages: 1 -->
<svg width="252pt" height="104pt"
 viewBox="0.00 0.00 252.00 104.00" xmlns="http://www.w3.org/2000/svg" xmlns:xlink="http://www.w3.org/1999/xlink">
<g id="graph0" class="graph" transform="scale(1 1) rotate(0) translate(4 100)">
<title>SingleHorizonTest</title>
<polygon fill="white" stroke="none" points="-4,4 -4,-100 248,-100 248,4 -4,4"/>
<!-- Node1 -->
<g id="node1" class="node"><title>Node1</title>
<polygon fill="#bfbfbf" stroke="black" points="0,-38.5 0,-57.5 97,-57.5 97,-38.5 0,-38.5"/>
<text text-anchor="middle" x="48.5" y="-45.5" font-family="Helvetica,sans-Serif" font-size="10.00">SingleHorizonTest</text>
</g>
<!-- Node2 -->
<g id="node2" class="node"><title>Node2</title>
<g id="a_node2"><a xlink:href="../../d3/d10/ehata_8h.html#a04da5d949a150c9e4be4ccacc17b237c" target="_top" xlink:title="GetDistanceInMeters">
<polygon fill="white" stroke="black" points="133.5,-76.5 133.5,-95.5 243.5,-95.5 243.5,-76.5 133.5,-76.5"/>
<text text-anchor="middle" x="188.5" y="-83.5" font-family="Helvetica,sans-Serif" font-size="10.00">GetDistanceInMeters</text>
</a>
</g>
</g>
<!-- Node1&#45;&gt;Node2 -->
<g id="edge1" class="edge"><title>Node1&#45;&gt;Node2</title>
<path fill="none" stroke="midnightblue" d="M84.3232,-57.589C102.138,-62.4944 124.018,-68.5196 143.039,-73.7571"/>
<polygon fill="midnightblue" stroke="midnightblue" points="142.118,-77.1336 152.688,-76.4141 143.976,-70.3848 142.118,-77.1336"/>
</g>
<!-- Node3 -->
<g id="node3" class="node"><title>Node3</title>
<g id="a_node3"><a xlink:href="../../d9/dbb/PreprocessTerrainPath_8cpp.html#a5215bf8ba24622edaa42bec0d6f12f2a" target="_top" xlink:title="AverageTerrainHeight">
<polygon fill="white" stroke="black" points="133,-38.5 133,-57.5 244,-57.5 244,-38.5 133,-38.5"/>
<text text-anchor="middle" x="188.5" y="-45.5" font-family="Helvetica,sans-Serif" font-size="10.00">AverageTerrainHeight</text>
</a>
</g>
</g>
<!-- Node1&#45;&gt;Node3 -->
<g id="edge2" class="edge"><title>Node1&#45;&gt;Node3</title>
<path fill="none" stroke="midnightblue" d="M97.3784,-48C105.459,-48 113.967,-48 122.397,-48"/>
<polygon fill="midnightblue" stroke="midnightblue" points="122.607,-51.5001 132.607,-48 122.607,-44.5001 122.607,-51.5001"/>
</g>
<!-- Node4 -->
<g id="node4" class="node"><title>Node4</title>
<g id="a_node4"><a xlink:href="../../d3/d10/ehata_8h.html#ae12b05e3f880936b5258e4ecbeed7fad" target="_top" xlink:title="FindHorizons">
<polygon fill="white" stroke="black" points="151.5,-0.5 151.5,-19.5 225.5,-19.5 225.5,-0.5 151.5,-0.5"/>
<text text-anchor="middle" x="188.5" y="-7.5" font-family="Helvetica,sans-Serif" font-size="10.00">FindHorizons</text>
</a>
</g>
</g>
<!-- Node1&#45;&gt;Node4 -->
<g id="edge3" class="edge"><title>Node1&#45;&gt;Node4</title>
<path fill="none" stroke="midnightblue" d="M84.3232,-38.411C102.138,-33.5056 124.018,-27.4804 143.039,-22.2429"/>
<polygon fill="midnightblue" stroke="midnightblue" points="143.976,-25.6152 152.688,-19.5859 142.118,-18.8664 143.976,-25.6152"/>
</g>
</g>
</svg>
