<?xml version="1.0" encoding="UTF-8" standalone="no"?>
<!DOCTYPE svg PUBLIC "-//W3C//DTD SVG 1.1//EN"
 "http://www.w3.org/Graphics/SVG/1.1/DTD/svg11.dtd">
<!-- Generated by graphviz version 2.38.0 (20140413.2041)
 -->
<!-- Title: src.harness.testcases.WINNF_FT_S_SCS_testcase.SasCbsdSecurityTestcase Pages: 1 -->
<svg width="228pt" height="307pt"
 viewBox="0.00 0.00 228.00 307.00" xmlns="http://www.w3.org/2000/svg" xmlns:xlink="http://www.w3.org/1999/xlink">
<g id="graph0" class="graph" transform="scale(1 1) rotate(0) translate(4 303)">
<title>src.harness.testcases.WINNF_FT_S_SCS_testcase.SasCbsdSecurityTestcase</title>
<polygon fill="white" stroke="none" points="-4,4 -4,-303 224,-303 224,4 -4,4"/>
<!-- Node1 -->
<g id="node1" class="node"><title>Node1</title>
<polygon fill="#bfbfbf" stroke="black" points="26,-0.5 26,-41.5 220,-41.5 220,-0.5 26,-0.5"/>
<text text-anchor="start" x="34" y="-29.5" font-family="Helvetica,sans-Serif" font-size="10.00">src.harness.testcases.WINNF</text>
<text text-anchor="start" x="34" y="-18.5" font-family="Helvetica,sans-Serif" font-size="10.00">_FT_S_SCS_testcase.SasCbsdSecurity</text>
<text text-anchor="middle" x="123" y="-7.5" font-family="Helvetica,sans-Serif" font-size="10.00">Testcase</text>
</g>
<!-- Node2 -->
<g id="node2" class="node"><title>Node2</title>
<g id="a_node2"><a xlink:href="../../db/df9/classsrc_1_1harness_1_1security__testcase_1_1SecurityTestCase.html" target="_top" xlink:title="src.harness.security\l_testcase.SecurityTestCase">
<polygon fill="white" stroke="black" points="52.5,-78.5 52.5,-108.5 193.5,-108.5 193.5,-78.5 52.5,-78.5"/>
<text text-anchor="start" x="60.5" y="-96.5" font-family="Helvetica,sans-Serif" font-size="10.00">src.harness.security</text>
<text text-anchor="middle" x="123" y="-85.5" font-family="Helvetica,sans-Serif" font-size="10.00">_testcase.SecurityTestCase</text>
</a>
</g>
</g>
<!-- Node2&#45;&gt;Node1 -->
<g id="edge1" class="edge"><title>Node2&#45;&gt;Node1</title>
<path fill="none" stroke="midnightblue" d="M123,-67.9815C123,-59.3468 123,-49.7625 123,-41.5884"/>
<polygon fill="midnightblue" stroke="midnightblue" points="119.5,-68.2332 123,-78.2333 126.5,-68.2333 119.5,-68.2332"/>
</g>
<!-- Node3 -->
<g id="node3" class="node"><title>Node3</title>
<g id="a_node3"><a xlink:href="../../df/dc5/classsrc_1_1harness_1_1sas__testcase_1_1SasTestCase.html" target="_top" xlink:title="src.harness.sas_testcase.\lSasTestCase">
<polygon fill="white" stroke="black" points="57,-145.5 57,-175.5 189,-175.5 189,-145.5 57,-145.5"/>
<text text-anchor="start" x="65" y="-163.5" font-family="Helvetica,sans-Serif" font-size="10.00">src.harness.sas_testcase.</text>
<text text-anchor="middle" x="123" y="-152.5" font-family="Helvetica,sans-Serif" font-size="10.00">SasTestCase</text>
</a>
</g>
</g>
<!-- Node3&#45;&gt;Node2 -->
<g id="edge2" class="edge"><title>Node3&#45;&gt;Node2</title>
<path fill="none" stroke="midnightblue" d="M123,-135.108C123,-126.154 123,-116.323 123,-108.577"/>
<polygon fill="midnightblue" stroke="midnightblue" points="119.5,-135.396 123,-145.396 126.5,-135.396 119.5,-135.396"/>
</g>
<!-- Node4 -->
<g id="node4" class="node"><title>Node4</title>
<g id="a_node4"><a xlink:href="../../df/ded/classsrc_1_1harness_1_1sas__interface_1_1SasTestcaseInterface.html" target="_top" xlink:title="src.harness.sas_interface.\lSasTestcaseInterface">
<polygon fill="white" stroke="black" points="0,-212.5 0,-242.5 132,-242.5 132,-212.5 0,-212.5"/>
<text text-anchor="start" x="8" y="-230.5" font-family="Helvetica,sans-Serif" font-size="10.00">src.harness.sas_interface.</text>
<text text-anchor="middle" x="66" y="-219.5" font-family="Helvetica,sans-Serif" font-size="10.00">SasTestcaseInterface</text>
</a>
</g>
</g>
<!-- Node4&#45;&gt;Node3 -->
<g id="edge3" class="edge"><title>Node4&#45;&gt;Node3</title>
<path fill="none" stroke="midnightblue" d="M85.0852,-204.736C93.5187,-195.119 103.191,-184.089 110.656,-175.577"/>
<polygon fill="midnightblue" stroke="midnightblue" points="82.3299,-202.57 78.3682,-212.396 87.5929,-207.185 82.3299,-202.57"/>
</g>
<!-- Node5 -->
<g id="node5" class="node"><title>Node5</title>
<polygon fill="white" stroke="#bfbfbf" points="44.5,-279.5 44.5,-298.5 87.5,-298.5 87.5,-279.5 44.5,-279.5"/>
<text text-anchor="middle" x="66" y="-286.5" font-family="Helvetica,sans-Serif" font-size="10.00">object</text>
</g>
<!-- Node5&#45;&gt;Node4 -->
<g id="edge4" class="edge"><title>Node5&#45;&gt;Node4</title>
<path fill="none" stroke="midnightblue" d="M66,-269.235C66,-260.586 66,-250.497 66,-242.523"/>
<polygon fill="midnightblue" stroke="midnightblue" points="62.5001,-269.475 66,-279.475 69.5001,-269.475 62.5001,-269.475"/>
</g>
<!-- Node6 -->
<g id="node6" class="node"><title>Node6</title>
<polygon fill="white" stroke="#bfbfbf" points="150.5,-218 150.5,-237 209.5,-237 209.5,-218 150.5,-218"/>
<text text-anchor="middle" x="180" y="-225" font-family="Helvetica,sans-Serif" font-size="10.00">TestCase</text>
</g>
<!-- Node6&#45;&gt;Node3 -->
<g id="edge5" class="edge"><title>Node6&#45;&gt;Node3</title>
<path fill="none" stroke="midnightblue" d="M165.521,-209.989C156.204,-199.364 144.223,-185.702 135.355,-175.589"/>
<polygon fill="midnightblue" stroke="midnightblue" points="163.088,-212.523 172.313,-217.734 168.351,-207.908 163.088,-212.523"/>
</g>
</g>
</svg>
