<?xml version="1.0" encoding="UTF-8" standalone="no"?>
<!DOCTYPE svg PUBLIC "-//W3C//DTD SVG 1.1//EN"
 "http://www.w3.org/Graphics/SVG/1.1/DTD/svg11.dtd">
<!-- Generated by graphviz version 2.38.0 (20140413.2041)
 -->
<!-- Title: src.harness.reference_models.propagation.wf_itm.CalcItmPropagationLoss Pages: 1 -->
<svg width="310pt" height="50pt"
 viewBox="0.00 0.00 310.00 50.00" xmlns="http://www.w3.org/2000/svg" xmlns:xlink="http://www.w3.org/1999/xlink">
<g id="graph0" class="graph" transform="scale(1 1) rotate(0) translate(4 46)">
<title>src.harness.reference_models.propagation.wf_itm.CalcItmPropagationLoss</title>
<polygon fill="white" stroke="none" points="-4,4 -4,-46 306,-46 306,4 -4,4"/>
<!-- Node1 -->
<g id="node1" class="node"><title>Node1</title>
<polygon fill="#bfbfbf" stroke="black" points="0,-0.5 0,-41.5 146,-41.5 146,-0.5 0,-0.5"/>
<text text-anchor="start" x="8" y="-29.5" font-family="Helvetica,sans-Serif" font-size="10.00">src.harness.reference</text>
<text text-anchor="start" x="8" y="-18.5" font-family="Helvetica,sans-Serif" font-size="10.00">_models.propagation.wf</text>
<text text-anchor="middle" x="73" y="-7.5" font-family="Helvetica,sans-Serif" font-size="10.00">_itm.CalcItmPropagationLoss</text>
</g>
<!-- Node2 -->
<g id="node2" class="node"><title>Node2</title>
<g id="a_node2"><a xlink:href="../../d1/d0c/namespacesrc_1_1harness_1_1reference__models_1_1propagation_1_1wf__itm.html#add98e33c2a811dab572cd7c001636600" target="_top" xlink:title="src.harness.reference\l_models.propagation.wf\l_itm.GetHorizonAngles">
<polygon fill="white" stroke="black" points="182,-0.5 182,-41.5 302,-41.5 302,-0.5 182,-0.5"/>
<text text-anchor="start" x="190" y="-29.5" font-family="Helvetica,sans-Serif" font-size="10.00">src.harness.reference</text>
<text text-anchor="start" x="190" y="-18.5" font-family="Helvetica,sans-Serif" font-size="10.00">_models.propagation.wf</text>
<text text-anchor="middle" x="242" y="-7.5" font-family="Helvetica,sans-Serif" font-size="10.00">_itm.GetHorizonAngles</text>
</a>
</g>
</g>
<!-- Node1&#45;&gt;Node2 -->
<g id="edge1" class="edge"><title>Node1&#45;&gt;Node2</title>
<path fill="none" stroke="midnightblue" d="M146.277,-21C154.738,-21 163.355,-21 171.773,-21"/>
<polygon fill="midnightblue" stroke="midnightblue" points="171.917,-24.5001 181.917,-21 171.917,-17.5001 171.917,-24.5001"/>
</g>
</g>
</svg>
